<svg width="99" height="127" viewBox="0 0 99 127" fill="none" xmlns="http://www.w3.org/2000/svg">
<path fill-rule="evenodd" clip-rule="evenodd" d="M69.4312 112.792C66.4498 121.241 58.4636 126.892 49.5033 126.892C40.543 126.892 32.5568 121.241 29.5754 112.792H18.3721C12.413 112.792 6.85809 109.778 3.61022 104.782C0.362351 99.7861 -0.137511 93.486 2.28187 88.0402L7.25329 76.8369V56.4583C7.2511 38.5493 18.5366 22.5832 35.42 16.6095V14.2083C35.42 6.43032 41.7253 0.125 49.5033 0.125C57.2813 0.125 63.5866 6.43032 63.5866 14.2083V16.6095C79.9937 22.4119 91.7533 38.0655 91.7533 56.4583V76.8369L96.7317 88.0332C99.1543 93.4797 98.656 99.7822 95.4078 104.78C92.1595 109.779 86.6025 112.793 80.6415 112.792H69.4312ZM61.7065 112.792H37.3001C39.8198 117.148 44.4707 119.831 49.5033 119.831C54.5359 119.831 59.1868 117.148 61.7065 112.792ZM56.542 14.7928V14.2083C56.542 10.3193 53.3893 7.16667 49.5003 7.16667C45.6113 7.16667 42.4586 10.3193 42.4586 14.2083V14.7928C47.1204 14.0102 51.8801 14.0102 56.542 14.7928V14.7928ZM49.5033 21.25C30.0583 21.25 14.295 37.0133 14.295 56.4583V77.5833L13.9922 79.0128L8.71091 90.8991C7.25979 94.1655 7.55896 97.9441 9.50601 100.941C11.453 103.939 14.7838 105.748 18.358 105.75H80.6415C84.2189 105.752 87.5539 103.942 89.503 100.942C91.4521 97.9427 91.7505 94.1603 90.2957 90.8921L85.0144 79.0128L84.7116 77.5833V56.4583C84.7116 37.0133 68.9483 21.25 49.5033 21.25Z" fill="#121924"/>
</svg>
