<svg width="21" height="22" viewBox="0 0 21 22" fill="none" xmlns="http://www.w3.org/2000/svg">
<path fill-rule="evenodd" clip-rule="evenodd" d="M6.31431 10.5521L2.25831 12.7261C1.75887 12.9941 1.4451 13.5304 1.44531 14.1157V14.9282C1.44531 15.7911 2.11689 16.4907 2.94531 16.4907C3.22145 16.4907 3.44531 16.7238 3.44531 17.0115C3.44531 17.2991 3.22145 17.5323 2.94531 17.5323C1.5646 17.5323 0.445313 16.3664 0.445313 14.9282V14.1157C0.445273 13.1402 0.968627 12.2464 1.80131 11.8L5.15931 10C3.69743 8.67126 3.10548 6.5815 3.6407 4.6389C4.17592 2.6963 5.74168 1.2516 7.65755 0.932625C9.57341 0.61365 11.4935 1.47799 12.5833 3.15004C12.687 3.30388 12.703 3.50395 12.6253 3.67357C12.5476 3.84319 12.3882 3.95604 12.2081 3.96885C12.0281 3.98167 11.8555 3.89248 11.7563 3.73545C10.8382 2.32661 9.18941 1.6415 7.59244 2.00523C5.99547 2.36896 4.77167 3.70831 4.50176 5.38775C4.23185 7.06719 4.97014 8.74872 6.36631 9.63441C6.5234 9.7349 6.61467 9.91727 6.60379 10.109C6.59292 10.3007 6.48167 10.4706 6.31431 10.5511V10.5521ZM10.4063 14.998L6.32531 16.9302C5.7894 17.1836 5.44526 17.7401 5.44531 18.3532V19.0948C5.44531 19.5092 5.60335 19.9067 5.88465 20.1997C6.16596 20.4927 6.54749 20.6573 6.94531 20.6573H17.9453C18.7737 20.6573 19.4453 19.9578 19.4453 19.0948V18.3532C19.4454 17.7401 19.1012 17.1836 18.5653 16.9302L14.4843 14.998C13.8428 15.2964 13.1479 15.4501 12.4453 15.449C11.7427 15.4501 11.0478 15.2964 10.4063 14.998ZM9.36731 14.3459C7.68553 12.9774 7.02294 10.6478 7.71766 8.54592C8.41237 6.444 10.3112 5.03306 12.4453 5.03306C14.5794 5.03306 16.4783 6.444 17.173 8.54592C17.8677 10.6478 17.2051 12.9774 15.5233 14.3459L18.9803 15.9813C19.8733 16.4043 20.4462 17.3323 20.4453 18.3542V19.0959C20.4453 19.7865 20.1819 20.4489 19.7131 20.9373C19.2442 21.4257 18.6084 21.7 17.9453 21.7H6.94531C6.2821 21.7 5.64606 21.4255 5.17719 20.9369C4.70832 20.4483 4.44505 19.7857 4.44531 19.0948V18.3532C4.44519 17.332 5.01799 16.4051 5.91031 15.9823L9.36731 14.3459ZM12.4453 14.4073C14.6545 14.4073 16.4453 12.5418 16.4453 10.2407C16.4453 7.93947 14.6545 6.07399 12.4453 6.07399C10.2362 6.07399 8.44531 7.93947 8.44531 10.2407C8.44531 12.5418 10.2362 14.4073 12.4453 14.4073Z" fill="#121924"/>
</svg>
