<svg width="38" height="38" viewBox="0 0 38 38" fill="none" xmlns="http://www.w3.org/2000/svg">
<path d="M18.9811 1C9.05165 1 1 9.05166 1 18.9811C1 28.9105 9.05165 36.9622 18.9811 36.9622C28.9105 36.9622 36.9622 28.9105 36.9622 18.9811C36.9574 9.05166 28.9105 1 18.9811 1ZM8.10803 8.10804L21.224 15.529L19.1423 17.6107C18.7345 17.5633 18.3125 17.6771 17.9995 17.99L17.99 17.9995C17.6771 18.3125 17.5633 18.7345 17.6107 19.1423L15.529 21.224L8.10803 8.10804ZM16.7334 22.4332L18.8151 20.3515C19.2229 20.3989 19.645 20.2851 19.9579 19.9722L19.9674 19.9627C20.2804 19.6497 20.3894 19.2277 20.3467 18.8199L22.4284 16.7382L29.8494 29.8541L16.7334 22.4332Z" fill="#ADD134" stroke="black" stroke-miterlimit="10"/>
</svg>
