<svg width="43" height="44" viewBox="0 0 43 44" fill="none" xmlns="http://www.w3.org/2000/svg">
<rect x="1" y="1" width="41" height="42" rx="20.5" fill="white"/>
<path d="M22 30.25C22 30.25 12.625 25 12.625 18.625C12.625 17.498 13.0155 16.4059 13.73 15.5343C14.4445 14.6628 15.4388 14.0657 16.5439 13.8447C17.649 13.6237 18.7966 13.7923 19.7913 14.322C20.7861 14.8517 21.5665 15.7097 22 16.75C22.4335 15.7097 23.2139 14.8517 24.2087 14.322C25.2034 13.7923 26.351 13.6237 27.4561 13.8447C28.5612 14.0657 29.5555 14.6628 30.27 15.5343C30.9845 16.4059 31.375 17.498 31.375 18.625C31.375 25 22 30.25 22 30.25Z" stroke="#171B2E" stroke-width="1.5" stroke-linecap="round" stroke-linejoin="round"/>
<rect x="1" y="1" width="41" height="42" rx="20.5" stroke="#EFF0F9"/>
</svg>
