<svg width="26" height="23" viewBox="0 0 26 23" fill="none" xmlns="http://www.w3.org/2000/svg">
<path fill-rule="evenodd" clip-rule="evenodd" d="M10.2711 15.0215C9.39127 15.0215 8.55229 15.3967 7.98356 16.0495C7.41482 16.7024 7.16973 17.5657 7.31427 18.4076L7.81389 21.3239C7.84531 21.513 7.77933 21.7022 7.64107 21.8364C7.49967 21.9706 7.30171 22.0255 7.1069 21.9889C2.83038 21.1653 0.630859 18.5998 0.630859 14.4358C0.630859 9.61599 4.65599 5.70828 9.62064 5.70828H12.6183V2.53572C12.6183 1.93782 12.9765 1.39179 13.5358 1.14164C14.0951 0.8915 14.755 0.976908 15.2263 1.36432L23.6599 8.32563C24.2758 8.83507 24.6309 9.5794 24.6309 10.3664C24.6309 11.1504 24.2758 11.8978 23.6599 12.4072L15.2263 19.3685C14.7581 19.7559 14.0982 19.8444 13.5389 19.5943C12.9796 19.3441 12.6214 18.8011 12.6183 18.2002V15.0246H10.2711V15.0215Z" stroke="#272A3D" stroke-width="1.16" stroke-miterlimit="10"/>
</svg>
