<svg width="19" height="19" viewBox="0 0 19 19" fill="none" xmlns="http://www.w3.org/2000/svg">
<path fill-rule="evenodd" clip-rule="evenodd" d="M14.3264 14.0409L18.2325 17.8447C18.4307 18.0377 18.4307 18.3505 18.2325 18.5435C18.0344 18.7364 17.7131 18.7364 17.515 18.5435L13.6088 14.7387C10.3247 17.5599 5.3335 17.3318 2.33514 14.2235C-0.663219 11.1152 -0.58511 6.25001 2.51157 3.23449C5.60824 0.218963 10.6043 0.142901 13.7963 3.06268C16.9883 5.98247 17.2225 10.8429 14.3254 14.0409H14.3264ZM8.24482 15.7267C10.7795 15.7267 13.1217 14.4099 14.389 12.2723C15.6563 10.1348 15.6563 7.50114 14.389 5.36356C13.1217 3.22598 10.7795 1.90918 8.24482 1.90918C4.32653 1.90918 1.15013 5.00234 1.15013 8.81795C1.15013 12.6336 4.32653 15.7267 8.24482 15.7267Z" fill="#121924" fill-opacity="0.45"/>
</svg>
