<svg width="325" height="312" viewBox="0 0 325 312" fill="none" xmlns="http://www.w3.org/2000/svg">
<g opacity="0.8">
<path fill-rule="evenodd" clip-rule="evenodd" d="M86.3472 221.843L75.5046 272.291H68.3613L79.1783 221.843H86.3472Z" fill="#C8E262"/>
<path fill-rule="evenodd" clip-rule="evenodd" d="M260.388 221.843H75.0195V214.06H260.388V221.843Z" fill="#D6E98A"/>
<path fill-rule="evenodd" clip-rule="evenodd" d="M114.334 250.117H78.1836V242.309H114.334V250.117Z" fill="#D6E98A"/>
<path fill-rule="evenodd" clip-rule="evenodd" d="M222.095 170.501L230.208 214.06H220.412L212.273 170.501H222.095Z" fill="#C8E262"/>
<path fill-rule="evenodd" clip-rule="evenodd" d="M80.7869 170.501L88.8996 214.06H79.1031L70.9648 170.501H80.7869Z" fill="#C8E262"/>
<path fill-rule="evenodd" clip-rule="evenodd" d="M118.492 221.843H75.0195V214.06H118.492V221.843Z" fill="#ADD314"/>
<path fill-rule="evenodd" clip-rule="evenodd" d="M61.1934 198.902L62.6475 206.685H72.4696L70.9899 198.902H61.1934Z" fill="#C8E262"/>
<path fill-rule="evenodd" clip-rule="evenodd" d="M70.9902 198.902L72.4699 206.685H237.455L236.001 198.902H70.9902Z" fill="#D6E98A"/>
<path fill-rule="evenodd" clip-rule="evenodd" d="M58.5391 184.688L59.9932 192.497H69.8153L68.3611 184.688H58.5391Z" fill="#C8E262"/>
<path fill-rule="evenodd" clip-rule="evenodd" d="M68.3613 184.688L69.8155 192.497H234.8L233.346 184.688H68.3613Z" fill="#D6E98A"/>
<path fill-rule="evenodd" clip-rule="evenodd" d="M65.7086 170.501L67.1628 178.309H57.3663L55.9121 170.501H65.7086Z" fill="#C8E262"/>
<path fill-rule="evenodd" clip-rule="evenodd" d="M230.694 170.501L232.148 178.309H67.1632L65.709 170.501H230.694Z" fill="#D6E98A"/>
<path fill-rule="evenodd" clip-rule="evenodd" d="M114.335 221.843L125.152 272.291H117.983L107.166 221.843H114.335Z" fill="#C8E262"/>
<path fill-rule="evenodd" clip-rule="evenodd" d="M228.167 221.843L217.35 272.291H210.182L220.999 221.843H228.167Z" fill="#C8E262"/>
<path fill-rule="evenodd" clip-rule="evenodd" d="M256.154 250.117H220.004V242.309H256.154V250.117Z" fill="#D6E98A"/>
<path fill-rule="evenodd" clip-rule="evenodd" d="M256.155 221.843L266.972 272.291H259.803L248.986 221.843H256.155Z" fill="#C8E262"/>
<path fill-rule="evenodd" clip-rule="evenodd" d="M53.7448 203.368L48.9996 272.138H7.31333L2.56813 203.368C2.41506 201.224 4.12435 199.387 6.29286 199.387H50.0456C52.1886 199.361 53.8979 201.199 53.7448 203.368Z" fill="#DCEC9A"/>
<path d="M28.1816 214.876V261.242" stroke="#ADD314" stroke-width="16" stroke-linecap="round"/>
<path d="M42.9528 214.876L39.7383 261.242" stroke="#ADD314" stroke-width="16" stroke-linecap="round"/>
<path d="M13.3848 214.876L16.5993 261.242" stroke="#ADD314" stroke-width="16" stroke-linecap="round"/>
<path fill-rule="evenodd" clip-rule="evenodd" d="M55.5303 203.699H0.628906V200.79C0.628906 198.162 2.7719 196.019 5.39962 196.019H50.7596C53.3873 196.019 55.5303 198.162 55.5303 200.79V203.699Z" fill="#DCEC9A"/>
<path d="M2.56836 205.384H53.745" stroke="#C8E262" stroke-width="14"/>
<path fill-rule="evenodd" clip-rule="evenodd" d="M18.0781 197.014H20.2977V192.089H18.0781V197.014Z" fill="#DCEC9A"/>
<path fill-rule="evenodd" clip-rule="evenodd" d="M35.2734 196.555H37.493V191.63H35.2734V196.555Z" fill="#DCEC9A"/>
<path fill-rule="evenodd" clip-rule="evenodd" d="M18.0781 192.88H37.4926V190.149H18.0781V192.88Z" fill="#DCEC9A"/>
<path fill-rule="evenodd" clip-rule="evenodd" d="M314.527 204.899H318.609V23.2373H314.527V204.899Z" fill="#D6E98A"/>
<path fill-rule="evenodd" clip-rule="evenodd" d="M272.585 27.8557L240.287 17.1382C238.935 16.6789 238.195 15.2244 238.654 13.8719L240.261 8.99803C240.72 7.64558 242.175 6.90557 243.527 7.36489L275.825 18.0824C277.177 18.5417 277.917 19.9962 277.457 21.3486L275.85 26.2226C275.391 27.575 273.937 28.315 272.585 27.8557Z" fill="#ECF5C9"/>
<path fill-rule="evenodd" clip-rule="evenodd" d="M308.736 272.24H324.375V212.044H308.736V272.24Z" fill="#C8E262"/>
<path fill-rule="evenodd" clip-rule="evenodd" d="M312.053 223.272H321.058V202.653H312.053V223.272Z" fill="#C8E262"/>
<path fill-rule="evenodd" clip-rule="evenodd" d="M312.818 27.5757H320.319V18.8486H312.818V27.5757Z" fill="#C8E262"/>
<path d="M261.615 13.4639C261.615 13.4639 316.542 25.6103 316.542 55.1345" stroke="#DCEC9A" stroke-width="15" stroke-linejoin="bevel"/>
<path fill-rule="evenodd" clip-rule="evenodd" d="M276.183 24.5897L240.772 12.8515C237.609 11.8053 235.874 8.33487 236.92 5.17066L237.226 4.20099C238.272 1.03678 241.742 -0.698432 244.905 0.347798L280.316 12.086C283.479 13.1322 285.214 16.6026 284.168 19.7669L283.862 20.7365C282.816 23.9007 279.346 25.636 276.183 24.5897Z" fill="#C8E262"/>
</g>
<path d="M26.9826 48.3213H74.3835C79.6134 48.3213 83.8739 52.5572 83.8739 57.8139V68.0976C83.8739 73.3287 79.6389 77.5902 74.3835 77.5902H71.5517C70.8884 80.091 70.7353 83.4083 73.1845 86.3428C73.1845 86.3428 63.3624 84.1738 61.1429 77.5902H26.9826C21.7527 77.5902 17.4922 73.3543 17.4922 68.0976V57.8139C17.4922 52.5828 21.7527 48.3213 26.9826 48.3213Z" fill="#DCEC9A"/>
<path d="M30.5538 67.9689C29.7697 67.9689 29.049 67.7867 28.3916 67.4224C27.7422 67.0581 27.2234 66.5512 26.8353 65.9018C26.4552 65.2444 26.2651 64.5079 26.2651 63.6921C26.2651 62.8763 26.4552 62.1437 26.8353 61.4943C27.2234 60.8449 27.7422 60.338 28.3916 59.9737C29.049 59.6093 29.7697 59.4272 30.5538 59.4272C31.3378 59.4272 32.0546 59.6093 32.704 59.9737C33.3614 60.338 33.8762 60.8449 34.2484 61.4943C34.6286 62.1437 34.8187 62.8763 34.8187 63.6921C34.8187 64.5079 34.6286 65.2444 34.2484 65.9018C33.8683 66.5512 33.3535 67.0581 32.704 67.4224C32.0546 67.7867 31.3378 67.9689 30.5538 67.9689ZM30.5538 66.0919C31.219 66.0919 31.7497 65.8741 32.1457 65.4385C32.5496 65.0029 32.7516 64.4207 32.7516 63.6921C32.7516 62.9635 32.5496 62.3813 32.1457 61.9457C31.7497 61.5101 31.219 61.2923 30.5538 61.2923C29.8806 61.2923 29.342 61.5101 28.9381 61.9457C28.5421 62.3813 28.3441 62.9635 28.3441 63.6921C28.3441 64.4207 28.5421 65.0029 28.9381 65.4385C29.342 65.8741 29.8806 66.0919 30.5538 66.0919ZM39.893 67.9689C39.1089 67.9689 38.3882 67.7867 37.7309 67.4224C37.0814 67.0581 36.5627 66.5512 36.1746 65.9018C35.7944 65.2444 35.6043 64.5079 35.6043 63.6921C35.6043 62.8763 35.7944 62.1437 36.1746 61.4943C36.5627 60.8449 37.0814 60.338 37.7309 59.9737C38.3882 59.6093 39.1089 59.4272 39.893 59.4272C40.6771 59.4272 41.3939 59.6093 42.0433 59.9737C42.7007 60.338 43.2155 60.8449 43.5877 61.4943C43.9679 62.1437 44.1579 62.8763 44.1579 63.6921C44.1579 64.5079 43.9679 65.2444 43.5877 65.9018C43.2075 66.5512 42.6927 67.0581 42.0433 67.4224C41.3939 67.7867 40.6771 67.9689 39.893 67.9689ZM39.893 66.0919C40.5583 66.0919 41.0889 65.8741 41.4849 65.4385C41.8889 65.0029 42.0908 64.4207 42.0908 63.6921C42.0908 62.9635 41.8889 62.3813 41.4849 61.9457C41.0889 61.5101 40.5583 61.2923 39.893 61.2923C39.2198 61.2923 38.6813 61.5101 38.2773 61.9457C37.8813 62.3813 37.6833 62.9635 37.6833 63.6921C37.6833 64.4207 37.8813 65.0029 38.2773 65.4385C38.6813 65.8741 39.2198 66.0919 39.893 66.0919ZM51.6439 62.2309C51.6439 62.714 51.533 63.1575 51.3113 63.5614C51.0895 63.9574 50.749 64.2782 50.2896 64.5237C49.8302 64.7692 49.26 64.892 48.5789 64.892H47.3196V67.8857H45.2881V59.546H48.5789C49.2442 59.546 49.8065 59.6608 50.2658 59.8905C50.7252 60.1202 51.0697 60.437 51.2994 60.8409C51.5291 61.2448 51.6439 61.7081 51.6439 62.2309ZM48.4244 63.3001C48.8125 63.3001 49.1016 63.205 49.2917 63.0149C49.4818 62.8249 49.5768 62.5635 49.5768 62.2309C49.5768 61.8982 49.4818 61.6369 49.2917 61.4468C49.1016 61.2567 48.8125 61.1617 48.4244 61.1617H47.3196V63.3001H48.4244ZM55.719 67.9689C55.1092 67.9689 54.5627 67.8699 54.0796 67.6719C53.5965 67.4739 53.2084 67.1809 52.9154 66.7928C52.6302 66.4047 52.4798 65.9374 52.4639 65.3909H54.6261C54.6578 65.7077 54.7647 65.9493 54.9468 66.1156C55.129 66.2819 55.3666 66.3651 55.6596 66.3651C55.9606 66.3651 56.1982 66.2938 56.3724 66.1513C56.5467 66.0008 56.6338 65.8028 56.6338 65.5573C56.6338 65.3513 56.5625 65.1811 56.42 65.0464C56.2853 64.9118 56.115 64.8009 55.9091 64.7138C55.7111 64.6267 55.426 64.5277 55.0538 64.4168C54.5152 64.2505 54.0756 64.0841 53.7351 63.9178C53.3945 63.7515 53.1015 63.506 52.856 63.1813C52.6104 62.8565 52.4877 62.4328 52.4877 61.9101C52.4877 61.1339 52.7688 60.5281 53.3312 60.0925C53.8935 59.6489 54.6261 59.4272 55.529 59.4272C56.4477 59.4272 57.1882 59.6489 57.7505 60.0925C58.3128 60.5281 58.6138 61.1379 58.6534 61.922H56.4556C56.4398 61.6369 56.3408 61.4191 56.1586 61.2686C55.9844 61.1102 55.7507 61.031 55.4577 61.031C55.2122 61.031 55.0142 61.0983 54.8637 61.2329C54.7132 61.3676 54.638 61.5616 54.638 61.8151C54.638 62.0843 54.7647 62.2942 55.0181 62.4447C55.2716 62.5952 55.6676 62.7575 56.2061 62.9318C56.7447 63.1139 57.1803 63.2882 57.5129 63.4545C57.8535 63.6208 58.1465 63.8624 58.392 64.1792C58.6376 64.496 58.7603 64.9039 58.7603 65.4028C58.7603 65.878 58.6376 66.3097 58.392 66.6977C58.1544 67.0858 57.806 67.3947 57.3466 67.6244C56.8872 67.8541 56.3447 67.9689 55.719 67.9689ZM60.9609 67.9808C60.6045 67.9808 60.3115 67.8778 60.0818 67.6719C59.86 67.4581 59.7491 67.1967 59.7491 66.8878C59.7491 66.571 59.86 66.3057 60.0818 66.0919C60.3115 65.878 60.6045 65.7711 60.9609 65.7711C61.3094 65.7711 61.5945 65.878 61.8163 66.0919C62.0459 66.3057 62.1608 66.571 62.1608 66.8878C62.1608 67.1967 62.0459 67.4581 61.8163 67.6719C61.5945 67.8778 61.3094 67.9808 60.9609 67.9808ZM64.3138 67.9808C63.9574 67.9808 63.6643 67.8778 63.4346 67.6719C63.2129 67.4581 63.102 67.1967 63.102 66.8878C63.102 66.571 63.2129 66.3057 63.4346 66.0919C63.6643 65.878 63.9574 65.7711 64.3138 65.7711C64.6622 65.7711 64.9474 65.878 65.1691 66.0919C65.3988 66.3057 65.5136 66.571 65.5136 66.8878C65.5136 67.1967 65.3988 67.4581 65.1691 67.6719C64.9474 67.8778 64.6622 67.9808 64.3138 67.9808ZM69.3892 59.249L69.1516 64.9395H67.429L67.1914 59.249H69.3892ZM68.32 67.9808C67.9636 67.9808 67.6706 67.8778 67.4409 67.6719C67.2191 67.4581 67.1082 67.1967 67.1082 66.8878C67.1082 66.571 67.2191 66.3057 67.4409 66.0919C67.6706 65.878 67.9636 65.7711 68.32 65.7711C68.6685 65.7711 68.9536 65.878 69.1754 66.0919C69.405 66.3057 69.5199 66.571 69.5199 66.8878C69.5199 67.1967 69.405 67.4581 69.1754 67.6719C68.9536 67.8778 68.6685 67.9808 68.32 67.9808Z" fill="#ADD314"/>
<path d="M122.551 138.858C122.551 138.858 129.567 131.84 131.837 126.839C131.837 126.839 130.97 124.057 131.786 122.603C132.602 121.148 137.246 117.015 138.521 117.882C139.771 118.775 141.583 122.246 140.817 123.7C140.077 125.155 135.485 128.14 135.485 128.14C135.485 128.14 129.796 139.547 126.276 142.099C122.755 144.676 122.551 138.858 122.551 138.858Z" fill="#E1EFAA"/>
<path d="M104.795 117.755C108.876 118.291 113.545 138.118 116.811 139.981C120.076 141.844 128.546 130.897 128.546 130.897L132.424 135.337C132.424 135.337 121.224 150.928 116.811 149.55C112.372 148.172 104.055 132.759 104.055 132.759L104.795 117.755Z" fill="#370A18"/>
<path opacity="0.05" d="M104.795 117.755C108.876 118.291 113.545 138.118 116.811 139.981C120.076 141.844 128.546 130.897 128.546 130.897L132.424 135.337C132.424 135.337 121.224 150.928 116.811 149.55C112.372 148.172 104.055 132.759 104.055 132.759L104.795 117.755Z" fill="white"/>
<path d="M129.592 300.564L124.235 301.508L122.041 294.185L120.025 287.474L126.225 285.305L128.011 293.368L129.592 300.564Z" fill="#E1EFAA"/>
<path d="M123.01 301.381C122.934 300.794 130.281 299.978 130.281 299.978C130.281 299.978 135.562 303.729 140.078 303.984C144.593 304.239 142.629 307.276 137.782 308.118C132.909 308.985 129.21 309.623 125.766 310.236C122.322 310.848 123.954 307.531 123.01 301.381Z" fill="#370A18"/>
<path d="M133.904 301.177C132.909 301.177 131.608 300.845 131.276 300.743C131.25 300.743 131.225 300.717 131.225 300.717C131.199 300.692 131.199 300.692 131.174 300.666C131.174 300.641 131.148 300.641 131.148 300.615C131.148 300.59 131.148 300.564 131.148 300.539C131.174 300.462 131.48 298.65 132.399 298.064C132.679 297.885 133.011 297.834 133.342 297.91C133.7 298.012 133.904 298.191 133.929 298.446C133.98 298.829 133.521 299.314 132.985 299.722C133.598 299.544 134.235 299.467 134.644 299.62C134.873 299.697 135.026 299.85 135.128 300.054C135.307 300.462 135.205 300.717 135.103 300.87C134.848 301.1 134.414 301.177 133.904 301.177ZM131.914 300.513C133.062 300.768 134.465 300.947 134.771 300.59C134.797 300.564 134.873 300.462 134.746 300.207C134.695 300.105 134.618 300.028 134.49 299.977C133.904 299.773 132.679 300.182 131.914 300.513ZM132.985 298.268C132.832 298.268 132.705 298.319 132.577 298.395C132.092 298.701 131.761 299.595 131.608 300.181C132.603 299.569 133.547 298.829 133.521 298.497C133.521 298.395 133.317 298.319 133.215 298.293C133.113 298.293 133.062 298.268 132.985 298.268Z" fill="#C3DF53"/>
<path opacity="0.2" d="M128.036 293.547L122.066 294.338L120.051 287.55L126.225 285.355L128.036 293.547Z" fill="black"/>
<path d="M93.7469 302.861H88.2874L87.3945 295.257L86.5781 288.29L93.0581 287.244L93.4153 295.512L93.7469 302.861Z" fill="#E1EFAA"/>
<path d="M87.1395 302.529C87.165 301.917 94.5379 302.402 94.5379 302.402C94.5379 302.402 99.079 307.021 103.493 308.067C107.906 309.113 105.431 311.741 100.508 311.741C95.5839 311.741 91.8082 311.741 88.3131 311.741C84.7924 311.741 86.9864 308.756 87.1395 302.529Z" fill="#370A18"/>
<path d="M98.4168 304.264C97.3709 304.264 95.7381 303.524 95.3554 303.32C95.3299 303.32 95.3044 303.294 95.3044 303.269C95.3044 303.269 95.2789 303.243 95.2789 303.218C95.2534 303.167 95.2534 303.116 95.2789 303.065C95.3044 302.988 95.9167 301.278 96.9117 300.845C97.2178 300.717 97.5495 300.717 97.8556 300.87C98.1872 301.023 98.3658 301.253 98.3403 301.483C98.3148 301.865 97.8046 302.248 97.1923 302.58C97.8301 302.529 98.4679 302.529 98.8506 302.759C99.0546 302.886 99.2077 303.039 99.2587 303.269C99.3863 303.703 99.2332 303.932 99.0802 304.06C98.9271 304.213 98.6975 304.264 98.4168 304.264ZM96.0443 303.218C97.1413 303.677 98.4934 304.085 98.825 303.805C98.8506 303.779 98.9526 303.703 98.8761 303.422C98.8506 303.32 98.774 303.218 98.672 303.167C98.1362 302.835 96.8606 303.039 96.0443 303.218ZM97.3454 301.176C97.2433 301.176 97.1413 301.202 97.0392 301.227C96.5035 301.457 96.0443 302.248 95.7636 302.81C96.8606 302.401 97.9066 301.814 97.9321 301.483C97.9321 301.381 97.7791 301.278 97.677 301.227C97.575 301.202 97.4729 301.176 97.3454 301.176Z" fill="#C3DF53"/>
<path opacity="0.2" d="M93.4407 295.69L87.4199 295.435L86.6035 288.392L93.0835 287.295L93.4407 295.69Z" fill="black"/>
<path d="M128.545 289.285L119.718 290.842C110.814 268.641 104.488 250.115 99.9975 234.754C97.5738 226.46 95.7115 219.086 94.2573 212.528L94.6655 236.693V291.582H85.7108C63.8982 187.597 79.3584 163.814 79.3584 163.814L105.431 159.349C106.426 163.227 107.166 169.556 107.625 173.945L108.799 182.57L119.004 235.213L128.545 289.285Z" fill="#C3DF53"/>
<path d="M118.342 289.77L129.286 286.146L129.133 290.816L120.077 293.7L118.342 289.77Z" fill="#C3DF53"/>
<path d="M84.5371 290.255L95.9409 288.571L94.997 293.139L85.5831 294.415L84.5371 290.255Z" fill="#C3DF53"/>
<path d="M103.086 106.909C103.06 106.909 103.009 106.909 102.958 106.884C99.6418 104.868 96.6569 97.4932 96.5293 97.187C96.4783 97.0594 96.5293 96.9573 96.6569 96.9063C96.7844 96.8552 96.8865 96.9063 96.9375 97.0339C96.963 97.1104 99.9734 104.587 103.188 106.526C103.29 106.578 103.341 106.731 103.264 106.833C103.239 106.858 103.162 106.909 103.086 106.909Z" fill="#370A18"/>
<path d="M76.3483 87.5161C76.3483 87.5161 77.6494 83.1015 86.2979 82.3615C94.9464 81.6215 99.2579 90.1444 97.217 96.4984C97.217 96.4984 99.0283 105.123 102.523 107.675C102.523 107.675 85.8642 115.203 77.4453 115.254C75.583 115.254 71.5776 105.965 71.0674 99.2543C70.5827 92.7728 72.5216 87.7202 76.3483 87.5161Z" fill="#370A18"/>
<path d="M79.3594 159.936V163.814L105.968 161.773V157.154L79.3594 159.936Z" fill="#370A18"/>
<path opacity="0.3" d="M79.3594 159.936V163.814L105.968 161.773V157.154L79.3594 159.936Z" fill="white"/>
<path d="M99.8186 158.124L94.002 158.634L94.3846 163.049L100.201 162.539L99.8186 158.124Z" fill="white"/>
<path d="M88.3129 158.277L86.9863 158.354L87.318 165.065L88.6446 164.989L88.3129 158.277Z" fill="#C3DF53"/>
<path d="M104.54 156.517L103.213 156.593L103.545 163.304L104.871 163.228L104.54 156.517Z" fill="#C3DF53"/>
<path d="M106.071 157.639L79.4619 159.936C79.2068 155.904 78.9517 152.459 78.3394 148.606C77.9567 146.131 77.421 143.477 76.6301 140.389C76.0178 137.965 75.278 135.286 74.3341 132.223C74.283 132.045 74.232 131.892 74.181 131.713C73.6452 129.952 69.7419 131.305 69.3848 129.187C67.8541 119.771 77.9823 119.082 81.7325 118.469C85.6868 117.78 89.6667 117.347 93.672 117.219C98.8509 117.168 104.795 117.755 104.795 117.755C104.795 117.755 105.637 117.959 106.173 123.445C106.658 128.6 107.142 138.884 106.071 157.639Z" fill="#370A18"/>
<path d="M91.478 123.088C84.9214 122.246 82.957 119.439 82.957 119.439C87.1155 115.51 83.6714 108.696 83.6714 108.696L91.5545 110.176C91.3504 111.478 91.2739 112.575 91.2484 113.494C91.1973 118.291 93.3403 118.342 93.3403 118.342C94.718 120.945 91.478 123.088 91.478 123.088Z" fill="#E1EFAA"/>
<path opacity="0.2" d="M91.5531 110.202C91.349 111.503 91.2724 112.6 91.2469 113.519C85.915 113.519 83.6699 108.722 83.6699 108.722L91.5531 110.202Z" fill="black"/>
<path d="M85.5065 88.1027C92.2162 86.5717 95.1755 89.6848 97.242 96.4726C99.8187 104.97 99.2829 111.528 90.4814 111.579C78.5163 111.656 74.3834 90.6035 85.5065 88.1027Z" fill="#E1EFAA"/>
<path d="M92.8047 97.085C92.8047 97.085 94.1313 98.616 95.3814 99.4071C95.3814 99.4071 94.9987 100.453 93.7997 100.555L92.8047 97.085Z" fill="#D1E67B"/>
<path d="M88.5694 97.4677C88.7225 98.0036 88.5184 98.5395 88.1613 98.616C87.8041 98.6926 87.3959 98.3353 87.2428 97.7995C87.0898 97.2636 87.2939 96.7277 87.651 96.6512C88.0337 96.5491 88.4419 96.9063 88.5694 97.4677Z" fill="#370A18"/>
<path d="M87.5234 96.7021L88.5949 95.9365C88.5949 95.9365 88.2633 97.0848 87.5234 96.7021Z" fill="#370A18"/>
<path d="M95.3546 95.631C95.5077 96.1668 95.3036 96.7027 94.9464 96.7793C94.5892 96.8558 94.1811 96.4986 94.028 95.9627C93.8749 95.4268 94.079 94.8909 94.4362 94.8144C94.8189 94.7123 95.227 95.0951 95.3546 95.631Z" fill="#370A18"/>
<path d="M94.3086 94.891L95.3801 94.1254C95.3801 94.0999 95.0484 95.2482 94.3086 94.891Z" fill="#370A18"/>
<path d="M84.7932 94.8394C84.7422 94.8394 84.6911 94.8394 84.6401 94.8139C84.4871 94.7374 84.4105 94.5332 84.4871 94.3801C85.3034 92.747 87.3444 92.5428 87.4209 92.5428C87.5995 92.5173 87.7526 92.6704 87.7781 92.8235C87.8036 93.0022 87.6505 93.1553 87.4974 93.1808C87.4719 93.1808 85.7371 93.3594 85.0738 94.6863C85.0228 94.7629 84.9208 94.8394 84.7932 94.8394Z" fill="#370A18"/>
<path d="M92.2673 91.778C92.1653 91.778 92.0632 91.727 91.9867 91.6249C91.8846 91.4718 91.9357 91.2677 92.0887 91.1911C92.1398 91.1656 93.3388 90.4001 95.1757 91.1146C95.3542 91.1656 95.4308 91.3698 95.3542 91.5229C95.3032 91.7015 95.0991 91.778 94.9461 91.7015C93.4153 91.1146 92.4714 91.7015 92.4459 91.727C92.3949 91.778 92.3439 91.778 92.2673 91.778Z" fill="#370A18"/>
<path d="M93.4159 103.439C93.2118 104.332 93.1608 105.94 93.1608 105.94C93.0077 105.965 92.8802 105.991 92.7271 105.991C90.7372 106.246 89.7167 105.684 89.2065 105.021C88.9258 104.638 88.7983 104.23 88.7473 103.873C88.6707 103.464 88.7217 103.184 88.7217 103.184C89.8443 103.694 91.7321 103.592 92.7271 103.515C93.1353 103.49 93.4159 103.439 93.4159 103.439Z" fill="#370A18"/>
<path d="M92.7271 103.516L92.625 104.256C90.7372 104.486 89.385 104.384 88.7473 103.899C88.6707 103.491 88.7217 103.21 88.7217 103.21C89.8443 103.695 91.7321 103.593 92.7271 103.516Z" fill="white"/>
<path d="M92.7023 105.991C90.7123 106.246 89.6919 105.685 89.1816 105.022C89.8705 104.971 90.6868 104.971 91.4522 105.2C92.039 105.353 92.4471 105.66 92.7023 105.991Z" fill="#C6E05B"/>
<path d="M80.7369 101.04C80.7369 101.04 82.6247 94.8138 81.1961 90.6799C81.1961 90.6799 93.2377 82.2335 96.9624 95.5794C96.9624 95.5794 95.5592 83.3053 83.9769 85.6529C72.42 88.0006 76.2723 104.842 83.3391 108.517C83.3136 108.517 79.5633 104.944 80.7369 101.04Z" fill="#370A18"/>
<path d="M82.139 102.214C81.8583 101.142 80.3276 99.5602 78.3632 100.249C76.3478 100.938 76.3223 105.429 81.7053 105.276C82.4961 105.276 82.7513 104.46 82.139 102.214Z" fill="#E1EFAA"/>
<path d="M81.1704 90.706C81.1704 90.706 88.1096 88.1542 92.0129 90.068C92.0129 90.068 87.8035 86.2914 80.6602 89.8384L81.1704 90.706Z" fill="#370A18"/>
<path d="M76.8848 120.179C76.8848 120.179 84.5893 126.431 91.7582 126.329C98.927 126.227 101.453 118.163 101.453 118.163C101.453 118.163 90.304 114.872 76.8848 120.179Z" fill="#E1EFAA"/>
<path opacity="0.2" d="M99.9978 234.754C97.5742 226.46 95.7119 219.086 94.2832 212.528C94.2832 212.528 94.4363 199.794 95.967 189.357C95.967 189.357 99.7682 219.264 99.9978 234.754Z" fill="black"/>
<path d="M55.3269 134.009C55.3269 134.009 50.0459 125.614 48.9744 120.229C48.9744 120.229 50.4286 117.703 49.9694 116.121C49.5102 114.539 45.8875 109.435 44.4844 110.022C43.0812 110.609 40.53 113.595 40.9382 115.177C41.3464 116.759 45.1477 120.714 45.1477 120.714C45.1477 120.714 48.1325 133.09 50.9899 136.382C53.8217 139.649 55.3269 134.009 55.3269 134.009Z" fill="#E1EFAA"/>
<path d="M69.6897 124.568C72.3685 124.185 77.777 129.442 76.9606 133.959C76.1442 138.475 68.5672 151.209 62.725 150.213C54.4592 148.81 45.377 127.018 45.377 127.018L49.9181 123.062C49.9181 123.062 60.633 141.614 62.725 141.231C64.817 140.899 69.6897 124.568 69.6897 124.568Z" fill="#370A18"/>
<path opacity="0.05" d="M69.6897 124.568C72.3685 124.185 77.777 129.442 76.9606 133.959C76.1442 138.475 68.5672 151.209 62.725 150.213C54.4592 148.81 45.377 127.018 45.377 127.018L49.9181 123.062C49.9181 123.062 60.633 141.614 62.725 141.231C64.817 140.899 69.6897 124.568 69.6897 124.568Z" fill="white"/>
<path d="M43.5156 125.716L50.1232 121.735L51.1692 123.445L44.9188 128.982L43.5156 125.716Z" fill="#370A18"/>
<path d="M127.066 130.744L132.424 137.378L133.368 135.311L128.546 129.697L127.066 130.744Z" fill="#370A18"/>
<path d="M129.745 121.786L138.215 111.452C138.495 111.094 139.057 111.069 139.388 111.375L143.164 114.948C143.47 115.228 143.496 115.713 143.241 116.045L134.643 126.609C134.337 126.992 133.776 127.018 133.444 126.66L129.796 122.858C129.515 122.552 129.49 122.093 129.745 121.786Z" fill="#C3DF53"/>
<path opacity="0.3" d="M129.745 121.786L138.215 111.452C138.495 111.094 139.057 111.069 139.388 111.375L143.164 114.948C143.47 115.228 143.496 115.713 143.241 116.045L134.643 126.609C134.337 126.992 133.776 127.018 133.444 126.66L129.796 122.858C129.515 122.552 129.49 122.093 129.745 121.786Z" fill="black"/>
<path d="M129.414 121.353L137.884 111.043C138.164 110.686 138.726 110.661 139.057 110.967L142.833 114.539C143.139 114.82 143.165 115.305 142.91 115.637L134.312 126.201C134.006 126.584 133.445 126.609 133.113 126.252L129.465 122.424C129.159 122.144 129.159 121.684 129.414 121.353Z" fill="#C3DF53"/>
<path opacity="0.6" d="M138.214 111.452L142.398 115.509L134.209 125.589L130.127 121.302L138.214 111.452Z" fill="white"/>
</svg>
