<svg width="45" height="46" viewBox="0 0 45 46" fill="none" xmlns="http://www.w3.org/2000/svg">
<path d="M25.6748 3.92666C24.1457 1.85971 21.0537 1.85971 19.5246 3.92666C18.6729 5.07797 17.1392 5.48892 15.8259 4.91771C13.4683 3.89222 10.7905 5.43824 10.4997 7.9928C10.3378 9.41572 9.21503 10.5385 7.79212 10.7004C5.23756 10.9912 3.69154 13.6689 4.71703 16.0266C5.28824 17.3399 4.87728 18.8736 3.72597 19.7253C1.65903 21.2544 1.65903 24.3464 3.72597 25.8755C4.87728 26.7272 5.28824 28.2609 4.71703 29.5742C3.69154 31.9318 5.23756 34.6096 7.79212 34.9004C9.21503 35.0623 10.3378 36.1851 10.4997 37.608C10.7905 40.1625 13.4683 41.7086 15.8259 40.6831C17.1392 40.1119 18.6729 40.5228 19.5246 41.6741C21.0537 43.7411 24.1457 43.7411 25.6748 41.6741C26.5265 40.5228 28.0602 40.1119 29.3735 40.6831C31.7311 41.7086 34.4089 40.1625 34.6997 37.608C34.8616 36.1851 35.9844 35.0623 37.4073 34.9004C39.9619 34.6096 41.5079 31.9318 40.4824 29.5742C39.9112 28.2609 40.3221 26.7272 41.4734 25.8755C43.5404 24.3464 43.5404 21.2544 41.4734 19.7253C40.3221 18.8736 39.9112 17.3399 40.4824 16.0266C41.5079 13.6689 39.9619 10.9912 37.4073 10.7004C35.9844 10.5385 34.8616 9.41572 34.6997 7.9928C34.4089 5.43824 31.7312 3.89222 29.3735 4.91771C28.0602 5.48892 26.5265 5.07797 25.6748 3.92666Z" fill="#ACD037" stroke="white" stroke-width="0.75"/>
<path fill-rule="evenodd" clip-rule="evenodd" d="M30.4279 15.6988C30.9144 15.2124 31.7032 15.2124 32.1898 15.6988C32.6763 16.1853 32.6763 16.9741 32.1898 17.4605L19.7473 29.9018C19.5139 30.1358 19.1969 30.2673 18.8664 30.2673C18.5358 30.2673 18.2189 30.1358 17.9854 29.9018L13.0084 24.9253C12.5219 24.4388 12.5219 23.6501 13.0084 23.1636C13.495 22.6771 14.2838 22.6771 14.7703 23.1636L18.8664 27.2618L30.4279 15.6988Z" fill="white" stroke="white" stroke-width="0.75"/>
</svg>
