<svg width="351" height="501" viewBox="0 0 351 501" fill="none" xmlns="http://www.w3.org/2000/svg">
<path d="M219.641 98.1049C217.5 100.26 215.418 102.474 213.335 104.569C210.361 101.577 207.505 98.7035 204.65 95.8304C201.616 98.8831 198.76 101.756 196.023 104.569C193.703 102.295 191.561 100.14 189.36 97.8655C192.156 95.1121 195.012 92.239 197.927 89.306C195.012 86.373 192.097 83.4999 189.301 80.6268C191.502 78.472 193.644 76.3171 195.785 74.1623C198.581 76.9755 201.437 79.9085 204.293 82.7816C207.267 79.7888 210.123 76.9157 213.157 73.9229C213.633 74.4616 213.99 74.8806 214.347 75.2397C216.131 77.0354 217.916 78.7712 219.701 80.5071C219.701 80.5669 219.701 80.6268 219.701 80.6866C217.321 83.0809 214.942 85.4752 212.502 87.8694C212.027 88.3483 211.491 88.8271 211.015 89.3659C211.194 89.5454 211.253 89.6651 211.372 89.7849C213.99 92.4186 216.667 95.1121 219.285 97.7458C219.403 97.8655 219.582 97.9852 219.76 98.0451C219.641 97.9852 219.641 98.0451 219.641 98.1049Z" fill="#CE3D29"/>
<path d="M135.938 62.61C155.629 42.0792 190.134 41.72 210.48 62.5502C207.268 65.6627 204.055 68.8351 200.783 72.0075C193.168 64.6451 183.947 60.7545 173.12 60.7545C162.352 60.8143 153.131 64.7649 145.516 72.1871C142.303 69.0147 139.15 65.8423 135.938 62.61Z" fill="#CE3D29"/>
<path d="M150.691 78.4714C162.054 66.6198 179.307 66.3804 190.253 73.9223C188.052 76.137 185.91 78.2918 183.709 80.5065C185.315 82.1227 186.803 83.6191 188.35 85.1155C187.398 86.0133 186.565 86.7915 185.791 87.5696C178.89 80.7459 167.587 80.6861 160.448 87.9287C157.176 84.7563 153.904 81.5839 150.691 78.4714Z" fill="#CE3D29"/>
<path d="M180.972 98.7635C181.031 103.013 177.521 106.545 173.238 106.605C169.014 106.665 165.504 103.073 165.504 98.8234C165.504 94.5736 168.954 91.1019 173.178 91.042C177.402 90.9223 180.972 94.4538 180.972 98.7635Z" fill="#CE3D29"/>
<path d="M203.904 220.282H199.629L192.479 209.457V220.282H188.204V202.732H192.479L199.629 213.607V202.732H203.904V220.282ZM213.353 220.482C211.986 220.482 210.753 220.191 209.653 219.607C208.57 219.024 207.711 218.191 207.078 217.107C206.461 216.024 206.153 214.757 206.153 213.307C206.153 211.874 206.47 210.616 207.103 209.532C207.736 208.432 208.603 207.591 209.703 207.007C210.803 206.424 212.036 206.132 213.403 206.132C214.77 206.132 216.003 206.424 217.103 207.007C218.203 207.591 219.07 208.432 219.703 209.532C220.336 210.616 220.653 211.874 220.653 213.307C220.653 214.741 220.328 216.007 219.678 217.107C219.045 218.191 218.17 219.024 217.053 219.607C215.953 220.191 214.72 220.482 213.353 220.482ZM213.353 216.807C214.17 216.807 214.861 216.507 215.428 215.907C216.011 215.291 216.303 214.424 216.303 213.307C216.303 212.191 216.02 211.332 215.453 210.732C214.903 210.116 214.22 209.807 213.403 209.807C212.57 209.807 211.878 210.107 211.328 210.707C210.778 211.307 210.503 212.174 210.503 213.307C210.503 214.424 210.77 215.291 211.303 215.907C211.853 216.507 212.536 216.807 213.353 216.807ZM232.982 202.732V220.282H228.707V202.732H232.982ZM244.58 206.182C246.214 206.182 247.514 206.716 248.48 207.782C249.464 208.832 249.955 210.282 249.955 212.132V220.282H245.705V212.707C245.705 211.774 245.464 211.049 244.98 210.532C244.497 210.016 243.847 209.757 243.03 209.757C242.214 209.757 241.564 210.016 241.08 210.532C240.597 211.049 240.355 211.774 240.355 212.707V220.282H236.08V206.332H240.355V208.182C240.789 207.566 241.372 207.082 242.105 206.732C242.839 206.366 243.664 206.182 244.58 206.182ZM260.701 216.657V220.282H258.526C256.976 220.282 255.768 219.907 254.901 219.157C254.034 218.391 253.601 217.149 253.601 215.432V209.882H251.901V206.332H253.601V202.932H257.876V206.332H260.676V209.882H257.876V215.482C257.876 215.899 257.976 216.199 258.176 216.382C258.376 216.566 258.709 216.657 259.176 216.657H260.701ZM276.232 213.057C276.232 213.441 276.207 213.849 276.157 214.282H266.482C266.549 215.166 266.824 215.841 267.307 216.307C267.791 216.774 268.399 217.007 269.132 217.007C270.199 217.007 270.941 216.557 271.357 215.657H275.907C275.674 216.574 275.249 217.399 274.632 218.132C274.032 218.866 273.274 219.441 272.357 219.857C271.441 220.274 270.416 220.482 269.282 220.482C267.916 220.482 266.699 220.191 265.632 219.607C264.566 219.024 263.732 218.191 263.132 217.107C262.532 216.024 262.232 214.757 262.232 213.307C262.232 211.857 262.524 210.591 263.107 209.507C263.707 208.424 264.541 207.591 265.607 207.007C266.674 206.424 267.899 206.132 269.282 206.132C270.632 206.132 271.832 206.416 272.882 206.982C273.932 207.549 274.749 208.357 275.332 209.407C275.932 210.457 276.232 211.674 276.232 213.057ZM271.857 212.107C271.857 211.307 271.607 210.682 271.107 210.232C270.607 209.782 269.982 209.557 269.232 209.557C268.499 209.557 267.882 209.782 267.382 210.232C266.899 210.666 266.599 211.291 266.482 212.107H271.857ZM282.763 208.832C283.263 208.016 283.888 207.374 284.638 206.907C285.404 206.424 286.238 206.182 287.138 206.182V210.707H285.963C284.896 210.707 284.096 210.941 283.563 211.407C283.029 211.857 282.763 212.657 282.763 213.807V220.282H278.488V206.332H282.763V208.832ZM297.681 206.182C299.314 206.182 300.614 206.716 301.581 207.782C302.564 208.832 303.056 210.282 303.056 212.132V220.282H298.806V212.707C298.806 211.774 298.564 211.049 298.081 210.532C297.598 210.016 296.948 209.757 296.131 209.757C295.314 209.757 294.664 210.016 294.181 210.532C293.698 211.049 293.456 211.774 293.456 212.707V220.282H289.181V206.332H293.456V208.182C293.889 207.566 294.473 207.082 295.206 206.732C295.939 206.366 296.764 206.182 297.681 206.182ZM319.177 213.057C319.177 213.441 319.152 213.849 319.102 214.282H309.427C309.493 215.166 309.768 215.841 310.252 216.307C310.735 216.774 311.343 217.007 312.077 217.007C313.143 217.007 313.885 216.557 314.302 215.657H318.852C318.618 216.574 318.193 217.399 317.577 218.132C316.977 218.866 316.218 219.441 315.302 219.857C314.385 220.274 313.36 220.482 312.227 220.482C310.86 220.482 309.643 220.191 308.577 219.607C307.51 219.024 306.677 218.191 306.077 217.107C305.477 216.024 305.177 214.757 305.177 213.307C305.177 211.857 305.468 210.591 306.052 209.507C306.652 208.424 307.485 207.591 308.552 207.007C309.618 206.424 310.843 206.132 312.227 206.132C313.577 206.132 314.777 206.416 315.827 206.982C316.877 207.549 317.693 208.357 318.277 209.407C318.877 210.457 319.177 211.674 319.177 213.057ZM314.802 212.107C314.802 211.307 314.552 210.682 314.052 210.232C313.552 209.782 312.927 209.557 312.177 209.557C311.443 209.557 310.827 209.782 310.327 210.232C309.843 210.666 309.543 211.291 309.427 212.107H314.802ZM329.207 216.657V220.282H327.032C325.482 220.282 324.274 219.907 323.407 219.157C322.54 218.391 322.107 217.149 322.107 215.432V209.882H320.407V206.332H322.107V202.932H326.382V206.332H329.182V209.882H326.382V215.482C326.382 215.899 326.482 216.199 326.682 216.382C326.882 216.566 327.215 216.657 327.682 216.657H329.207Z" fill="#ADD314"/>
<path d="M187.479 246.678C187.479 244.944 187.854 243.403 188.604 242.053C189.354 240.686 190.396 239.628 191.729 238.878C193.079 238.111 194.604 237.728 196.304 237.728C198.388 237.728 200.171 238.278 201.654 239.378C203.138 240.478 204.129 241.978 204.629 243.878H199.929C199.563 243.161 199.063 242.619 198.429 242.253C197.796 241.869 197.071 241.678 196.254 241.678C194.938 241.678 193.871 242.136 193.054 243.053C192.238 243.953 191.829 245.161 191.829 246.678C191.829 248.194 192.238 249.411 193.054 250.328C193.871 251.244 194.938 251.703 196.254 251.703C197.071 251.703 197.796 251.511 198.429 251.128C199.063 250.744 199.563 250.194 199.929 249.478H204.629C204.129 251.378 203.138 252.878 201.654 253.978C200.171 255.061 198.388 255.603 196.304 255.603C194.604 255.603 193.079 255.228 191.729 254.478C190.396 253.711 189.354 252.653 188.604 251.303C187.854 249.953 187.479 248.411 187.479 246.678ZM213.597 255.678C212.231 255.678 210.997 255.386 209.897 254.803C208.814 254.219 207.956 253.386 207.322 252.303C206.706 251.219 206.397 249.953 206.397 248.503C206.397 247.069 206.714 245.811 207.347 244.728C207.981 243.628 208.847 242.786 209.947 242.203C211.047 241.619 212.281 241.328 213.647 241.328C215.014 241.328 216.247 241.619 217.347 242.203C218.447 242.786 219.314 243.628 219.947 244.728C220.581 245.811 220.897 247.069 220.897 248.503C220.897 249.936 220.572 251.203 219.922 252.303C219.289 253.386 218.414 254.219 217.297 254.803C216.197 255.386 214.964 255.678 213.597 255.678ZM213.597 252.003C214.414 252.003 215.106 251.703 215.672 251.103C216.256 250.486 216.547 249.619 216.547 248.503C216.547 247.386 216.264 246.528 215.697 245.928C215.147 245.311 214.464 245.003 213.647 245.003C212.814 245.003 212.122 245.303 211.572 245.903C211.022 246.503 210.747 247.369 210.747 248.503C210.747 249.619 211.014 250.486 211.547 251.103C212.097 251.703 212.781 252.003 213.597 252.003ZM231.665 241.378C233.299 241.378 234.599 241.911 235.565 242.978C236.549 244.028 237.04 245.478 237.04 247.328V255.478H232.79V247.903C232.79 246.969 232.549 246.244 232.065 245.728C231.582 245.211 230.932 244.953 230.115 244.953C229.299 244.953 228.649 245.211 228.165 245.728C227.682 246.244 227.44 246.969 227.44 247.903V255.478H223.165V241.528H227.44V243.378C227.874 242.761 228.457 242.278 229.19 241.928C229.924 241.561 230.749 241.378 231.665 241.378ZM248.511 241.378C250.144 241.378 251.444 241.911 252.411 242.978C253.394 244.028 253.886 245.478 253.886 247.328V255.478H249.636V247.903C249.636 246.969 249.394 246.244 248.911 245.728C248.428 245.211 247.778 244.953 246.961 244.953C246.144 244.953 245.494 245.211 245.011 245.728C244.528 246.244 244.286 246.969 244.286 247.903V255.478H240.011V241.528H244.286V243.378C244.719 242.761 245.303 242.278 246.036 241.928C246.769 241.561 247.594 241.378 248.511 241.378ZM270.007 248.253C270.007 248.636 269.982 249.044 269.932 249.478H260.257C260.323 250.361 260.598 251.036 261.082 251.503C261.565 251.969 262.173 252.203 262.907 252.203C263.973 252.203 264.715 251.753 265.132 250.853H269.682C269.448 251.769 269.023 252.594 268.407 253.328C267.807 254.061 267.048 254.636 266.132 255.053C265.215 255.469 264.19 255.678 263.057 255.678C261.69 255.678 260.473 255.386 259.407 254.803C258.34 254.219 257.507 253.386 256.907 252.303C256.307 251.219 256.007 249.953 256.007 248.503C256.007 247.053 256.298 245.786 256.882 244.703C257.482 243.619 258.315 242.786 259.382 242.203C260.448 241.619 261.673 241.328 263.057 241.328C264.407 241.328 265.607 241.611 266.657 242.178C267.707 242.744 268.523 243.553 269.107 244.603C269.707 245.653 270.007 246.869 270.007 248.253ZM265.632 247.303C265.632 246.503 265.382 245.878 264.882 245.428C264.382 244.978 263.757 244.753 263.007 244.753C262.273 244.753 261.657 244.978 261.157 245.428C260.673 245.861 260.373 246.486 260.257 247.303H265.632ZM271.412 248.503C271.412 247.053 271.704 245.786 272.287 244.703C272.887 243.619 273.712 242.786 274.762 242.203C275.829 241.619 277.045 241.328 278.412 241.328C280.162 241.328 281.62 241.786 282.787 242.703C283.97 243.619 284.745 244.911 285.112 246.578H280.562C280.179 245.511 279.437 244.978 278.337 244.978C277.554 244.978 276.929 245.286 276.462 245.903C275.995 246.503 275.762 247.369 275.762 248.503C275.762 249.636 275.995 250.511 276.462 251.128C276.929 251.728 277.554 252.028 278.337 252.028C279.437 252.028 280.179 251.494 280.562 250.428H285.112C284.745 252.061 283.97 253.344 282.787 254.278C281.604 255.211 280.145 255.678 278.412 255.678C277.045 255.678 275.829 255.386 274.762 254.803C273.712 254.219 272.887 253.386 272.287 252.303C271.704 251.219 271.412 249.953 271.412 248.503ZM295.174 251.853V255.478H292.999C291.449 255.478 290.24 255.103 289.374 254.353C288.507 253.586 288.074 252.344 288.074 250.628V245.078H286.374V241.528H288.074V238.128H292.349V241.528H295.149V245.078H292.349V250.678C292.349 251.094 292.449 251.394 292.649 251.578C292.849 251.761 293.182 251.853 293.649 251.853H295.174ZM299.705 240.078C298.955 240.078 298.338 239.861 297.855 239.428C297.388 238.978 297.155 238.428 297.155 237.778C297.155 237.111 297.388 236.561 297.855 236.128C298.338 235.678 298.955 235.453 299.705 235.453C300.438 235.453 301.038 235.678 301.505 236.128C301.988 236.561 302.23 237.111 302.23 237.778C302.23 238.428 301.988 238.978 301.505 239.428C301.038 239.861 300.438 240.078 299.705 240.078ZM301.83 241.528V255.478H297.555V241.528H301.83ZM311.278 255.678C309.911 255.678 308.678 255.386 307.578 254.803C306.495 254.219 305.636 253.386 305.003 252.303C304.386 251.219 304.078 249.953 304.078 248.503C304.078 247.069 304.395 245.811 305.028 244.728C305.661 243.628 306.528 242.786 307.628 242.203C308.728 241.619 309.961 241.328 311.328 241.328C312.695 241.328 313.928 241.619 315.028 242.203C316.128 242.786 316.995 243.628 317.628 244.728C318.261 245.811 318.578 247.069 318.578 248.503C318.578 249.936 318.253 251.203 317.603 252.303C316.97 253.386 316.095 254.219 314.978 254.803C313.878 255.386 312.645 255.678 311.278 255.678ZM311.278 252.003C312.095 252.003 312.786 251.703 313.353 251.103C313.936 250.486 314.228 249.619 314.228 248.503C314.228 247.386 313.945 246.528 313.378 245.928C312.828 245.311 312.145 245.003 311.328 245.003C310.495 245.003 309.803 245.303 309.253 245.903C308.703 246.503 308.428 247.369 308.428 248.503C308.428 249.619 308.695 250.486 309.228 251.103C309.778 251.703 310.461 252.003 311.278 252.003ZM329.346 241.378C330.979 241.378 332.279 241.911 333.246 242.978C334.229 244.028 334.721 245.478 334.721 247.328V255.478H330.471V247.903C330.471 246.969 330.229 246.244 329.746 245.728C329.263 245.211 328.613 244.953 327.796 244.953C326.979 244.953 326.329 245.211 325.846 245.728C325.363 246.244 325.121 246.969 325.121 247.903V255.478H320.846V241.528H325.121V243.378C325.554 242.761 326.138 242.278 326.871 241.928C327.604 241.561 328.429 241.378 329.346 241.378Z" fill="#ADD314"/>
<path d="M178.178 173.704C178.178 173.704 191.325 160.475 195.609 151.018C195.609 151.018 194.002 145.751 195.49 143.057C197.037 140.304 205.722 132.522 208.102 134.139C210.422 135.815 213.813 142.399 212.385 145.092C211.017 147.846 202.391 153.472 202.391 153.472C202.391 153.472 191.742 174.961 185.138 179.809C178.594 184.717 178.178 173.704 178.178 173.704Z" fill="#E1EFAA"/>
<path d="M144.862 133.899C152.537 134.917 161.282 172.327 167.41 175.799C173.537 179.271 189.422 158.68 189.422 158.68L196.68 167.06C196.68 167.06 175.679 196.45 167.41 193.876C159.081 191.302 143.494 162.212 143.494 162.212L144.862 133.899Z" fill="#370A18"/>
<path opacity="0.05" d="M144.862 133.899C152.537 134.917 161.282 172.327 167.41 175.799C173.537 179.271 189.422 158.68 189.422 158.68L196.68 167.06C196.68 167.06 175.679 196.45 167.41 193.876C159.081 191.302 143.494 162.212 143.494 162.212L144.862 133.899Z" fill="white"/>
<path d="M191.384 478.733L181.33 480.529L177.225 466.702L173.418 454.072L185.019 450.002L188.35 465.206L191.384 478.733Z" fill="#E1EFAA"/>
<path d="M179.069 480.23C178.95 479.153 192.693 477.597 192.693 477.597C192.693 477.597 202.568 484.66 211.076 485.139C219.523 485.617 215.835 491.364 206.792 492.92C197.63 494.536 190.729 495.733 184.245 496.93C177.76 498.187 180.794 491.902 179.069 480.23Z" fill="#370A18"/>
<path d="M199.475 479.871C197.631 479.871 195.192 479.272 194.538 479.033C194.478 479.033 194.419 478.973 194.419 478.973C194.359 478.913 194.359 478.913 194.3 478.853C194.3 478.794 194.24 478.794 194.24 478.734C194.24 478.674 194.24 478.614 194.24 478.614C194.3 478.494 194.835 475.023 196.56 473.945C197.096 473.586 197.691 473.526 198.345 473.646C199 473.825 199.416 474.185 199.416 474.663C199.535 475.382 198.643 476.28 197.631 477.058C198.762 476.699 199.951 476.579 200.725 476.878C201.141 476.998 201.439 477.297 201.617 477.716C201.974 478.494 201.736 478.973 201.558 479.272C201.26 479.751 200.427 479.871 199.475 479.871ZM195.728 478.674C197.869 479.153 200.487 479.512 201.082 478.794C201.141 478.734 201.26 478.554 201.022 478.075C200.903 477.896 200.784 477.716 200.546 477.656C199.475 477.297 197.215 478.015 195.728 478.674ZM197.75 474.424C197.453 474.424 197.215 474.544 196.977 474.663C196.084 475.262 195.43 476.938 195.133 478.015C196.977 476.878 198.762 475.442 198.702 474.843C198.702 474.663 198.345 474.484 198.107 474.484C198.048 474.424 197.869 474.424 197.75 474.424Z" fill="#C3DF53"/>
<path opacity="0.2" d="M188.47 465.506L177.286 467.002L173.479 454.193L185.079 450.062L188.47 465.506Z" fill="black"/>
<path d="M124.16 483.103H113.927L112.262 468.737L110.715 455.569L122.851 453.594L123.506 469.216L124.16 483.103Z" fill="#E1EFAA"/>
<path d="M111.786 482.444C111.846 481.307 125.648 482.205 125.648 482.205C125.648 482.205 134.155 490.944 142.425 492.919C150.694 494.894 146.054 499.862 136.832 499.862C127.611 499.862 120.532 499.862 113.988 499.862C107.384 499.803 111.489 494.176 111.786 482.444Z" fill="#370A18"/>
<path d="M132.905 485.736C130.942 485.736 127.908 484.359 127.194 483.94C127.134 483.94 127.075 483.881 127.075 483.821C127.075 483.821 127.015 483.761 127.015 483.701C126.956 483.581 126.956 483.521 127.015 483.402C127.075 483.282 128.205 480.05 130.049 479.212C130.644 478.972 131.239 478.972 131.834 479.272C132.429 479.571 132.786 479.99 132.727 480.409C132.667 481.127 131.715 481.845 130.585 482.504C131.775 482.384 132.964 482.384 133.678 482.863C134.035 483.102 134.333 483.402 134.452 483.821C134.69 484.659 134.392 485.078 134.095 485.317C133.916 485.616 133.44 485.736 132.905 485.736ZM128.503 483.701C130.585 484.539 133.083 485.317 133.738 484.778C133.797 484.719 133.976 484.599 133.857 484.06C133.797 483.881 133.678 483.701 133.5 483.581C132.429 483.043 129.99 483.402 128.503 483.701ZM130.942 479.87C130.763 479.87 130.585 479.93 130.347 479.99C129.335 480.409 128.503 481.905 127.967 482.983C130.049 482.205 132.013 481.127 132.013 480.469C132.013 480.289 131.715 480.11 131.537 479.99C131.358 479.99 131.18 479.87 130.942 479.87Z" fill="#C3DF53"/>
<path opacity="0.2" d="M123.624 469.515L112.32 469.036L110.773 455.748L122.91 453.653L123.624 469.515Z" fill="black"/>
<path d="M189.422 457.485L172.884 460.418C156.167 418.518 144.328 383.622 135.88 354.651C131.359 339.028 127.849 325.082 125.112 312.751L125.885 358.302V461.854H109.109C68.1785 265.704 97.2104 220.871 97.2104 220.871L146.172 212.432C148.016 219.734 149.444 231.705 150.277 239.966L152.478 256.247L171.634 355.549L189.422 457.485Z" fill="#C3DF53"/>
<path d="M170.266 458.382L190.79 451.559L190.493 460.357L173.538 465.804L170.266 458.382Z" fill="#C3DF53"/>
<path d="M106.906 459.339L128.264 456.167L126.479 464.786L108.81 467.181L106.906 459.339Z" fill="#C3DF53"/>
<path d="M141.709 113.428C141.65 113.428 141.59 113.428 141.471 113.369C135.224 109.538 129.632 95.651 129.394 95.0525C129.275 94.813 129.394 94.6335 129.632 94.5138C129.87 94.394 130.049 94.5138 130.168 94.7532C130.227 94.8729 135.879 108.999 141.888 112.65C142.066 112.77 142.185 113.009 142.007 113.249C141.947 113.369 141.828 113.428 141.709 113.428Z" fill="#370A18"/>
<path d="M91.5583 76.8559C91.5583 76.8559 93.9974 68.5359 110.239 67.1592C126.48 65.7825 134.511 81.824 130.704 93.7954C130.704 93.7954 134.095 110.076 140.639 114.865C140.639 114.865 109.406 129.051 93.6405 129.171C90.1305 129.171 82.6346 111.633 81.6827 99.0029C80.7308 86.7921 84.3598 77.2749 91.5583 76.8559Z" fill="#370A18"/>
<path d="M97.2109 213.449V220.752L147.124 216.921V208.182L97.2109 213.449Z" fill="#370A18"/>
<path opacity="0.3" d="M97.2109 213.449V220.752L147.124 216.921V208.182L97.2109 213.449Z" fill="white"/>
<path d="M135.582 210.037L124.695 210.995L125.409 219.315L136.296 218.357L135.582 210.037Z" fill="white"/>
<path d="M113.987 210.336L111.488 210.456L112.083 223.085L114.582 222.966L113.987 210.336Z" fill="#C3DF53"/>
<path d="M144.387 206.984L141.889 207.104L142.484 219.734L144.982 219.614L144.387 206.984Z" fill="#C3DF53"/>
<path d="M147.303 209.139L97.3894 213.449C96.9135 205.847 96.4376 199.323 95.3072 192.08C94.5933 187.411 93.5819 182.383 92.0947 176.577C90.9643 172.028 89.5365 166.94 87.8113 161.194C87.6923 160.835 87.6328 160.596 87.5138 160.236C86.5025 156.944 79.185 159.458 78.5306 155.448C75.675 137.67 94.6528 136.413 101.673 135.216C109.109 133.899 116.546 133.121 124.042 132.882C133.739 132.762 144.923 133.899 144.923 133.899C144.923 133.899 146.529 134.259 147.481 144.614C148.374 154.37 149.266 173.824 147.303 209.139Z" fill="#370A18"/>
<path d="M119.935 143.955C107.62 142.339 103.932 137.072 103.932 137.072C111.725 129.649 105.3 116.78 105.3 116.78L120.054 119.594C119.697 122.048 119.518 124.143 119.459 125.878C119.34 134.917 123.385 135.037 123.385 135.037C126.062 139.945 119.935 143.955 119.935 143.955Z" fill="#E1EFAA"/>
<path opacity="0.2" d="M120.056 119.653C119.699 122.107 119.52 124.202 119.461 125.938C109.466 125.938 105.242 116.899 105.242 116.899L120.056 119.653Z" fill="black"/>
<path d="M108.752 77.993C121.305 75.1199 126.897 80.9858 130.764 93.7952C135.583 109.837 134.571 122.167 118.092 122.287C95.6044 122.407 87.8704 82.7217 108.752 77.993Z" fill="#E1EFAA"/>
<path d="M122.436 94.9326C122.436 94.9326 124.934 97.8057 127.254 99.3021C127.254 99.3021 126.54 101.277 124.28 101.457L122.436 94.9326Z" fill="#D1E67B"/>
<path d="M114.462 95.6511C114.759 96.6686 114.343 97.6862 113.688 97.8059C113.034 97.9256 112.26 97.2672 111.963 96.2497C111.666 95.2321 112.082 94.2145 112.736 94.0948C113.45 93.9153 114.224 94.5737 114.462 95.6511Z" fill="#370A18"/>
<path d="M112.5 94.2139L114.523 92.7773C114.523 92.7773 113.868 94.9322 112.5 94.2139Z" fill="#370A18"/>
<path d="M127.194 92.239C127.492 93.2566 127.075 94.2741 126.421 94.3938C125.766 94.5135 124.993 93.8551 124.695 92.8376C124.398 91.82 124.814 90.8024 125.469 90.6827C126.183 90.5031 126.956 91.1616 127.194 92.239Z" fill="#370A18"/>
<path d="M125.23 90.802L127.253 89.3655C127.253 89.3056 126.599 91.5203 125.23 90.802Z" fill="#370A18"/>
<path d="M112.38 86.3135C112.499 86.3135 112.559 86.3135 112.678 86.3733C112.975 86.493 113.094 86.912 112.975 87.2113C111.428 90.264 107.621 90.683 107.502 90.683C107.145 90.7429 106.907 90.4436 106.848 90.1443C106.788 89.7852 107.085 89.5457 107.383 89.4859C107.442 89.4859 110.655 89.1267 111.904 86.6726C111.904 86.4332 112.142 86.3135 112.38 86.3135Z" fill="#370A18"/>
<path d="M126.598 83.1406C126.777 83.1406 126.955 83.2603 127.134 83.4399C127.312 83.7392 127.253 84.0983 126.955 84.2779C126.836 84.3378 124.635 85.7743 121.185 84.3976C120.828 84.2779 120.709 83.9188 120.828 83.6195C120.947 83.2603 121.304 83.1406 121.601 83.2603C124.457 84.3378 126.242 83.2603 126.301 83.2005C126.361 83.2005 126.48 83.1406 126.598 83.1406Z" fill="#370A18"/>
<path d="M99.7683 102.415C99.7683 102.415 103.338 90.6828 100.601 82.9014C100.601 82.9014 123.208 66.9795 130.168 92.1193C130.168 92.1193 127.551 68.9548 105.836 73.3842C84.1815 77.8136 91.38 109.597 104.647 116.481C104.587 116.541 97.5671 109.717 99.7683 102.415Z" fill="#370A18"/>
<path d="M102.445 104.569C101.91 102.534 99.0544 99.5412 95.3659 100.858C91.5585 102.175 91.5585 110.615 101.613 110.315C103.1 110.375 103.576 108.819 102.445 104.569Z" fill="#E1EFAA"/>
<path d="M100.6 82.9019C100.6 82.9019 113.629 78.1134 120.946 81.7048C120.946 81.7048 113.034 74.5818 99.6484 81.2858L100.6 82.9019Z" fill="#370A18"/>
<path d="M92.5703 138.449C92.5703 138.449 107.027 150.241 120.472 150.061C133.917 149.881 138.617 134.678 138.617 134.678C138.617 134.678 117.735 128.453 92.5703 138.449Z" fill="#E1EFAA"/>
<path opacity="0.2" d="M135.88 354.591C131.359 338.968 127.849 325.022 125.172 312.691C125.172 312.691 125.469 288.689 128.325 268.996C128.325 268.996 135.464 325.381 135.88 354.591Z" fill="black"/>
<path d="M52.1156 164.546C52.1156 164.546 42.24 148.684 40.2173 138.568C40.2173 138.568 42.9539 133.78 42.0615 130.847C41.2286 127.854 34.3871 118.217 31.7695 119.354C29.1519 120.432 24.333 126.118 25.1064 129.051C25.8798 132.044 33.0188 139.466 33.0188 139.466C33.0188 139.466 38.611 162.81 43.9653 169.035C49.379 175.201 52.1156 164.546 52.1156 164.546Z" fill="#E1EFAA"/>
<path d="M79.0655 146.769C84.0628 146.05 94.2359 155.987 92.6891 164.486C91.1423 172.986 76.9239 197.048 65.9774 195.133C50.4501 192.499 33.4355 151.378 33.4355 151.378L41.9428 143.896C41.9428 143.896 62.051 178.912 65.9774 178.193C69.9633 177.535 79.0655 146.769 79.0655 146.769Z" fill="#370A18"/>
<path opacity="0.05" d="M79.0655 146.769C84.0628 146.05 94.2359 155.987 92.6891 164.486C91.1423 172.986 76.9239 197.048 65.9774 195.133C50.4501 192.499 33.4355 151.378 33.4355 151.378L41.9428 143.896C41.9428 143.896 62.051 178.912 65.9774 178.193C69.9633 177.535 79.0655 146.769 79.0655 146.769Z" fill="white"/>
<path d="M29.9844 148.923L42.3586 141.441L44.3218 144.674L32.602 155.089L29.9844 148.923Z" fill="#370A18"/>
<path d="M186.625 158.441L196.679 170.951L198.464 167.06L189.421 156.466L186.625 158.441Z" fill="#370A18"/>
<path d="M191.684 141.501L207.568 121.988C208.104 121.329 209.175 121.269 209.769 121.868L216.849 128.632C217.444 129.171 217.444 130.068 216.968 130.727L200.846 150.659C200.251 151.377 199.239 151.437 198.585 150.779L191.744 143.596C191.268 142.938 191.208 142.1 191.684 141.501Z" fill="#C3DF53"/>
<path opacity="0.3" d="M191.684 141.501L207.568 121.988C208.104 121.329 209.175 121.269 209.769 121.868L216.849 128.632C217.444 129.171 217.444 130.068 216.968 130.727L200.846 150.659C200.251 151.377 199.239 151.437 198.585 150.779L191.744 143.596C191.268 142.938 191.208 142.1 191.684 141.501Z" fill="black"/>
<path d="M191.028 140.723L206.912 121.209C207.447 120.551 208.518 120.491 209.113 121.09L216.192 127.854C216.787 128.392 216.787 129.29 216.311 129.948L200.189 149.881C199.594 150.599 198.583 150.659 197.929 150L191.087 142.818C190.552 142.159 190.552 141.321 191.028 140.723Z" fill="#C3DF53"/>
<path opacity="0.6" d="M207.567 121.987L215.42 129.649L200.071 148.683L192.396 140.603L207.567 121.987Z" fill="white"/>
<path d="M121.541 111.752C121.898 111.273 123.028 109.837 125.111 109.238C126.895 108.699 128.383 109.118 128.977 109.298" fill="#370A18"/>
</svg>
