<svg width="18" height="25" viewBox="0 0 18 25" fill="none" xmlns="http://www.w3.org/2000/svg">
<path fill-rule="evenodd" clip-rule="evenodd" d="M17.6614 9.00122L17.6613 9.04724C17.6612 9.06662 17.6609 9.086 17.6607 9.10538C17.6612 9.128 17.6614 9.15085 17.6614 9.1738C17.6614 12.7859 14.8472 15.9831 12.9642 18.1227C12.4177 18.7435 11.9497 19.2753 11.6515 19.7023C10.591 21.2212 10.0312 22.8666 9.88389 23.4994C9.88389 23.976 9.48829 24.3624 9.00012 24.3624C8.51195 24.3624 8.11635 23.976 8.11635 23.4994C7.969 22.8666 7.40926 21.2212 6.34869 19.7023C6.05053 19.2753 5.5825 18.7435 5.03608 18.1227C3.15302 15.9831 0.338867 12.7859 0.338867 9.1738C0.338867 9.15085 0.339084 9.128 0.339517 9.10538C0.339084 9.07073 0.338867 9.03598 0.338867 9.00122C0.338867 4.33038 4.21662 0.543945 9.00012 0.543945C13.7836 0.543945 17.6614 4.33038 17.6614 9.00122ZM9.00012 12.108C10.8549 12.108 12.3585 10.6397 12.3585 8.82865C12.3585 7.01747 10.8549 5.54927 9.00012 5.54927C7.14531 5.54927 5.64172 7.01747 5.64172 8.82865C5.64172 10.6397 7.14531 12.108 9.00012 12.108Z" fill="#34A851"/>
<path d="M16.6928 5.11119C15.6322 3.11574 13.7812 1.5852 11.5448 0.915039L6.5705 6.56513C7.18209 5.93938 8.04453 5.54956 9.0003 5.54956C10.8551 5.54956 12.3587 7.01779 12.3587 8.82886C12.3587 9.56777 12.1085 10.2495 11.6863 10.7979L16.6928 5.11119Z" fill="#4285F5"/>
<path d="M5.13624 18.2367C5.10301 18.1989 5.06955 18.1609 5.03577 18.1226C3.79451 16.7122 2.14867 14.8423 1.17096 12.6969L6.34102 6.82471C5.90233 7.37881 5.6413 8.07388 5.6413 8.82849C5.6413 10.6396 7.145 12.1079 8.99981 12.1079C9.93934 12.1079 10.7888 11.7311 11.3983 11.1238L5.13624 18.2367Z" fill="#F9BB0E"/>
<path d="M2.38821 3.53809C1.10979 5.01183 0.338867 6.91866 0.338867 9.00126C0.338867 9.03601 0.339084 9.07076 0.339517 9.10541C0.339084 9.12804 0.338867 9.15088 0.338867 9.17383C0.338867 10.4049 0.665787 11.5879 1.17131 12.6971L6.33267 6.83475L2.38821 3.53809Z" fill="#E74335"/>
<path d="M11.5442 0.914798C10.7397 0.673734 9.88523 0.543945 8.99973 0.543945C6.34906 0.543945 3.97653 1.70658 2.38782 3.53806L6.33228 6.83472L6.34083 6.82498C6.41261 6.73436 6.48905 6.64742 6.56992 6.56471L11.5442 0.914798Z" fill="#1A73E6"/>
</svg>
