<?xml version="1.0" encoding="utf-8"?>
<!-- Generator: Adobe Illustrator 26.5.0, SVG Export Plug-In . SVG Version: 6.00 Build 0)  -->
<svg version="1.1" id="Layer_1" xmlns="http://www.w3.org/2000/svg" xmlns:xlink="http://www.w3.org/1999/xlink" x="0px" y="0px"
	 viewBox="0 0 612 618.7" style="enable-background:new 0 0 612 618.7;" xml:space="preserve">
<style type="text/css">
	.st0{fill:#E5EEB6;stroke:#ACD037;stroke-width:1.2591;}
	.st1{fill:#B7B7B8;}
	.st2{fill:#FFFFFF;stroke:#B7B7B8;stroke-width:1.8886;}
	.st3{fill:#273339;}
	.st4{fill:#465B65;}
	.st5{fill:#FFFFFF;}
	.st6{fill:#E0E1E0;}
	.st7{fill:#FBBD9E;}
	.st8{fill:#EC9A6F;}
	.st9{fill:#EBEBEB;}
	.st10{fill:#ACD037;}
	.st11{fill:#ACD037;stroke:#273339;stroke-width:1.2591;stroke-linecap:round;stroke-linejoin:round;}
	.st12{fill:#FBBD9E;stroke:#273339;stroke-width:1.2591;stroke-linecap:round;stroke-linejoin:round;}
	.st13{fill:none;stroke:#273339;stroke-width:1.2591;stroke-linecap:round;stroke-linejoin:round;}
	.st14{fill:#273339;stroke:#273339;stroke-width:1.2591;stroke-linecap:round;stroke-linejoin:round;}
	.st15{fill:#FAFBFC;}
	.st16{opacity:0.3;}
	.st17{fill:#010101;}
	.st18{fill:#E5EEB6;}
	.st19{fill:#272B3D;}
	.st20{fill:none;stroke:#ABD039;stroke-width:1.3802;}
	.st21{fill:#FFFFFF;filter:url(#Adobe_OpacityMaskFilter);}
	.st22{mask:url(#path-1-inside-1_5982_25202_00000095325700385410963650000011175230102277288595_);fill:#ABD039;}
</style>
<g>
	<g>
		<ellipse class="st0" cx="304.9" cy="444.2" rx="116.3" ry="115.8"/>
		<path class="st1" d="M245.3,516.3l-5-3.5c0,0-2.9,4.2-7.4,1.3c-0.9-0.6-1.5-1.4-1.9-2.3c-0.4-1-0.5-2-0.2-3
			c0.2-0.8,0.6-1.6,1.1-2.3c0.6-0.7,1.3-1.2,2-1.5c1.8-0.8,4.6-0.8,7.6,2.1l7.8-11.4l-5-3.4l-4.6,6.6c0,0-8.2-3-13.5,4.7
			c-5.1,7.4,0.4,13.6,3.2,15.6C231.5,520.7,239.2,525.2,245.3,516.3z"/>
		<path class="st1" d="M245.8,489.9l5.1,3.5l3.3-4.7l-5.1-3.5L245.8,489.9z"/>
		<path class="st1" d="M266.7,530.2l2.7-0.7c-0.1-0.3-0.1-0.6-0.1-0.9c0-0.3,0.2-0.6,0.3-0.9c0.2-0.3,0.4-0.5,0.6-0.7
			c0.3-0.2,0.5-0.3,0.8-0.4c0.4-0.1,0.9-0.1,1.4,0c0.4,0.1,0.8,0.4,1.1,0.8c0.2,0.3,0.4,0.7,0.5,1.1c0.1,0.4,0,0.8-0.1,1.2
			c-0.3,0.9-1.1,1.8-3,2l1.6,6l2.6-0.7l-0.9-3.5c1-0.6,1.8-1.5,2.2-2.6s0.5-2.3,0.2-3.4c-1-3.9-4.8-3.9-6.3-3.5
			C269.3,524.2,265.4,525.5,266.7,530.2z"/>
		<path class="st1" d="M275.6,538.1l-2.7,0.7l0.7,2.5l2.7-0.7L275.6,538.1z"/>
		<path class="st2" d="M310.7,362.2l0.5,0.3l0.5-0.3c1.3-0.8,2.7-1.4,4.1-1.8l0.5-0.2l0.1-0.6l0.7-3.5l5.7-0.1l0.9,3.5l0.1,0.6
			l0.6,0.1c1.5,0.4,2.9,0.9,4.2,1.6l0.5,0.3l0.5-0.3l3-2l4.1,4l-1.9,3.1l-0.3,0.5l0.3,0.5c0.8,1.3,1.4,2.7,1.8,4.1l0.2,0.5l0.6,0.1
			l3.6,0.7l0.1,5.7l-3.5,0.9l-0.6,0.1l-0.1,0.6c-0.4,1.5-0.9,2.9-1.6,4.2l-0.3,0.5l0.3,0.5l2,3l-4,4.1l-3.1-1.9l-0.5-0.3l-0.5,0.3
			c-1.3,0.8-2.7,1.4-4.1,1.8l-0.6,0.2l-0.1,0.6l-0.7,3.6l-5.7,0.1l-0.9-3.5l-0.1-0.6l-0.6-0.1c-1.5-0.4-2.9-0.9-4.2-1.6l-0.5-0.3
			l-0.5,0.3l-3,2l-4.1-4l1.9-3.1l0.3-0.5l-0.3-0.5c-0.8-1.3-1.4-2.7-1.8-4.1l-0.2-0.5l-0.6-0.1l-3.5-0.7l-0.1-5.7l3.5-0.9l0.6-0.1
			l0.1-0.6c0.4-1.5,0.9-2.9,1.6-4.2l0.3-0.5l-0.3-0.5l-2-3l4-4.1L310.7,362.2z M314.4,370.4L314.4,370.4c-1.2,1.2-2,2.8-2.3,4.5
			c-0.3,1.7-0.1,3.4,0.6,5c0.7,1.6,1.8,2.9,3.3,3.8c1.5,0.9,3.1,1.4,4.9,1.4c1.7,0,3.4-0.6,4.8-1.6c1.4-1,2.5-2.4,3.1-4
			c0.6-1.6,0.8-3.4,0.4-5c-0.4-1.7-1.2-3.2-2.5-4.4l0,0c-1.7-1.6-3.9-2.5-6.2-2.4C318.2,367.7,316,368.7,314.4,370.4z"/>
		<path class="st1" d="M280.8,346.3c0.8-0.5,1.6-0.8,2.5-1.1l0.5-2.5l4.2-0.1l0.6,2.4c0.9,0.2,1.7,0.6,2.5,1l2.1-1.4l3,2.9l-1.3,2.2
			c0.5,0.8,0.8,1.6,1.1,2.5l2.5,0.5l0.1,4.2l-2.5,0.6c-0.2,0.9-0.6,1.7-1,2.5l1.4,2.1l-2.9,3l-2.2-1.3c-0.8,0.5-1.6,0.8-2.5,1.1
			l-0.5,2.5l-4.2,0.1l-0.6-2.4c-0.9-0.2-1.7-0.6-2.5-1l-2.1,1.4l-3-2.9l1.3-2.2c-0.5-0.8-0.8-1.6-1.1-2.5l-2.5-0.5l-0.1-4.2l2.5-0.6
			c0.2-0.9,0.6-1.7,1-2.5l-1.4-2.1l2.9-3L280.8,346.3z M283.1,351.8c-0.6,0.6-1,1.4-1.2,2.3c-0.2,0.9-0.1,1.8,0.3,2.6
			c0.4,0.8,0.9,1.5,1.7,2c0.7,0.5,1.6,0.7,2.5,0.7c0.9,0,1.8-0.3,2.5-0.8c0.7-0.5,1.3-1.2,1.6-2c0.3-0.8,0.4-1.7,0.2-2.6
			c-0.2-0.9-0.6-1.7-1.3-2.3c-0.9-0.8-2-1.3-3.2-1.3C285,350.5,283.9,351,283.1,351.8L283.1,351.8z"/>
		<path class="st1" d="M414.2,423.7c0.8-0.5,1.6-0.8,2.5-1.1l0.5-2.5l4.2-0.1l0.6,2.4c0.9,0.2,1.7,0.6,2.5,1l2.1-1.4l3,2.9l-1.3,2.2
			c0.5,0.8,0.8,1.6,1.1,2.5l2.5,0.5l0.1,4.2l-2.5,0.6c-0.2,0.9-0.6,1.7-1,2.5l1.4,2.1l-2.9,3l-2.2-1.3c-0.8,0.5-1.6,0.8-2.5,1.1
			l-0.5,2.5l-4.2,0.1l-0.6-2.5c-0.9-0.2-1.7-0.6-2.5-1l-2.1,1.4l-3-2.9l1.3-2.2c-0.5-0.8-0.8-1.6-1.1-2.5l-2.5-0.5l-0.1-4.2l2.5-0.6
			c0.2-0.9,0.6-1.7,1-2.5l-1.4-2.1l2.9-3L414.2,423.7z M416.4,429.3c-0.6,0.6-1,1.4-1.2,2.3c-0.2,0.9-0.1,1.8,0.3,2.6
			c0.4,0.8,0.9,1.5,1.7,2c0.7,0.5,1.6,0.7,2.5,0.7c0.9,0,1.7-0.3,2.5-0.8c0.7-0.5,1.3-1.2,1.6-2c0.3-0.8,0.4-1.7,0.2-2.6
			c-0.2-0.9-0.6-1.7-1.3-2.3c-0.9-0.8-2-1.3-3.2-1.3C418.4,427.9,417.2,428.4,416.4,429.3z"/>
		<path class="st3" d="M425.4,547.2c0,0.1-45,0.1-100.5,0.1c-55.5,0-100.5-0.1-100.5-0.1c0-0.1,45-0.1,100.5-0.1
			C380.5,547.1,425.4,547.1,425.4,547.2z"/>
		<path class="st4" d="M403.5,546.8l-67.4,0c-3.9,0-7.6-1.5-10.4-4.3c-2.7-2.7-4.3-6.5-4.3-10.4l0-168.7c0-3.9,1.6-7.6,4.3-10.4
			c2.8-2.7,6.5-4.3,10.4-4.3l67.4,0c3.9,0,7.6,1.5,10.4,4.3c2.8,2.7,4.3,6.5,4.3,10.4l0,168.7c0,1.9-0.4,3.8-1.1,5.6
			c-0.7,1.8-1.8,3.4-3.2,4.8c-1.4,1.4-3,2.4-4.8,3.2C407.4,546.5,405.5,546.9,403.5,546.8z"/>
		<path class="st5" d="M403.5,354.8h-13.1c-0.9,0-1.7,0.4-2.3,1c-0.6,0.6-0.9,1.5-0.9,2.3v2.4c0,0.9-0.3,1.7-0.9,2.3
			c-0.6,0.6-1.4,1-2.3,1h-25.5c-0.9,0-1.7-0.4-2.3-1c-0.6-0.6-0.9-1.5-0.9-2.3v-2.4c0-0.9-0.3-1.7-0.9-2.3c-0.6-0.6-1.4-1-2.3-1h-16
			c-2.7,0-5.3,1.1-7.3,3c-1.9,1.9-3,4.5-3,7.2l0,164.6c0,2.7,1.1,5.3,3,7.2c1.9,1.9,4.5,3,7.3,3l67.2,0c1.3,0,2.7-0.3,3.9-0.8
			c1.2-0.5,2.4-1.3,3.3-2.2c1-1,1.7-2.1,2.2-3.3c0.5-1.2,0.8-2.6,0.8-3.9l0-164.6c0-2.7-1.1-5.3-3-7.2
			C408.9,355.9,406.2,354.8,403.5,354.8z"/>
		<path class="st6" d="M343.9,422.7c5.9,0,10.6-4.7,10.6-10.6c0-5.9-4.8-10.6-10.6-10.6c-5.9,0-10.6,4.7-10.6,10.6
			C333.3,417.9,338,422.7,343.9,422.7z"/>
		<path class="st4" d="M338.9,414.7l2.8-0.2l6.8,1.1l0.8,5.1l-0.1,0.6c-1.5,0.9-3.3,1.3-5,1.4c-1.8,0-3.5-0.4-5.1-1.1L338.9,414.7z"
			/>
		<path class="st4" d="M347.1,415.6c0.7-0.1,1.4,0,2,0.3c0.6,0.3,1.2,0.7,1.5,1.3c0.5,0.6,0.9,1.3,1.3,2c-1.1,1.2-2,2.1-3.5,2.7
			L347.1,415.6z"/>
		<path class="st4" d="M338.9,414.7c0,0-1.8,0.2-2.6,1.8c-0.7,1.6-0.9,2.1-0.9,2.1c0.9,1.1,2.2,2.5,3.6,3c0,0,0.3-4,0.4-5.1
			C339.6,415.3,339.6,414.7,338.9,414.7z"/>
		<path class="st3" d="M340.6,404.7c0.5-0.6,1.1-1.1,1.7-1.4c0.7-0.3,1.4-0.5,2.2-0.5c0.6,0,1.3,0.1,1.9,0.3
			c0.6,0.2,1.2,0.5,1.6,1.1c0.5,0.6,0.8,1.4,0.9,2.1c0.1,0.8,0.1,1.6,0.1,2.4c0,0.8-0.3,1.6-0.8,2.3l-2,0.4c-1.1,0.1-2.3,0-3.4-0.2
			c-1.1-0.2-2.1-0.9-2.8-1.8C339.3,408,339.6,405.9,340.6,404.7z"/>
		<path class="st3" d="M338.6,410.6c0-0.2,0.1-0.5,0.2-0.7c0.1-0.2,0.3-0.4,0.5-0.5c0.2-0.1,0.4-0.2,0.7-0.2c0.2,0,0.5,0.1,0.6,0.3
			l0.3,0.4c0.2,0.1,0.5,0.3,0.6,0.5c0.1,0.2,0.2,0.5,0.2,0.8c0,0.3-0.1,0.5-0.3,0.7c-0.2,0.2-0.4,0.4-0.7,0.4
			c-0.3,0.1-0.5,0.1-0.8,0c-0.3-0.1-0.5-0.2-0.7-0.4c-0.2-0.2-0.3-0.4-0.4-0.7C338.6,411.1,338.6,410.9,338.6,410.6z"/>
		<path class="st4" d="M339,412c-0.1-0.1-0.1-0.3-0.1-0.4c0.1-0.3,0.2-0.7,0.5-0.9c0.2-0.3,0.5-0.5,0.8-0.7c0.2-0.1,0.4-0.2,0.4-0.2
			c-0.2,0-0.3,0.1-0.4,0.1c-0.3,0.1-0.6,0.4-0.9,0.7c-0.1,0.1-0.2,0.3-0.3,0.5c-0.1,0.1-0.1,0.3-0.1,0.5c0,0.1,0,0.2,0.1,0.3
			C339,412,339,412,339,412z"/>
		<path class="st7" d="M346.2,415.2v-1.9c0,0,1.7-0.2,2.1-2.3c0.2-1.4,0.3-2.8,0.3-4.3c0-1.3-1.1-3.1-2.7-3.1l-0.7-0.1l-2.7,1.1
			c-0.2,0-0.4,0.1-0.5,0.2c-0.1,0.1-0.2,0.3-0.2,0.5l-0.1,9.1l1.2,1.7c0.2,0.3,0.5,0.5,0.9,0.7c0.4,0.1,0.8,0.1,1.1,0
			c0.4-0.1,0.7-0.3,0.9-0.7C346.1,415.9,346.2,415.6,346.2,415.2L346.2,415.2z"/>
		<path class="st8" d="M345.1,410.5c0-0.1,0.1-0.2,0.2-0.3c0.1-0.1,0.2-0.1,0.3-0.1c0.1,0,0.2,0,0.3,0.1c0.1,0.1,0.2,0.2,0.2,0.3
			c0,0.1,0.1,0.2,0,0.3c0,0.1-0.1,0.1-0.2,0.2c-0.1,0-0.1,0.1-0.2,0.1h-0.1c-0.1,0-0.1,0-0.2,0c-0.1,0-0.1-0.1-0.2-0.1
			c0,0-0.1-0.1-0.1-0.2S345.1,410.6,345.1,410.5z"/>
		<path class="st3" d="M347.6,408.2c0,0.1,0,0.1-0.1,0.2c-0.1,0-0.1,0.1-0.2,0.1c0,0-0.1,0-0.1,0c0,0-0.1,0-0.1-0.1
			c0,0,0-0.1-0.1-0.1c0,0,0-0.1,0-0.1c0-0.1,0-0.1,0.1-0.2c0.1,0,0.1-0.1,0.2-0.1c0,0,0.1,0,0.1,0c0,0,0.1,0,0.1,0.1
			c0,0,0,0.1,0.1,0.1C347.6,408.2,347.6,408.2,347.6,408.2z"/>
		<path class="st3" d="M348.1,407.5c0,0-0.2-0.1-0.5-0.1c-0.3,0-0.5,0.1-0.6,0.1c0,0,0-0.1,0.1-0.1c0.1-0.1,0.3-0.1,0.4-0.1
			c0.2,0,0.3,0.1,0.4,0.2C348.1,407.5,348.1,407.5,348.1,407.5z"/>
		<path class="st3" d="M346.2,409.8c0.2,0,0.3-0.1,0.5-0.1c0.1,0,0.2,0,0.2-0.1c0-0.1,0-0.2,0-0.2l-0.2-0.6c-0.2-0.5-0.3-1-0.4-1.5
			c0.2,0.5,0.4,1,0.5,1.5c0.1,0.2,0.1,0.4,0.2,0.6c0,0.1,0,0.2,0,0.3c0,0.1-0.1,0.1-0.1,0.1c0,0-0.1,0-0.1,0
			C346.5,409.8,346.4,409.8,346.2,409.8z"/>
		<path class="st8" d="M346.2,413.3c-1,0-2-0.4-2.8-0.9c0,0,0.7,1.5,2.8,1.4V413.3z"/>
		<path class="st3" d="M345.3,410c0.1,0,0,0.3,0.3,0.6c0.3,0.2,0.6,0.2,0.6,0.3c0,0-0.1,0.1-0.2,0.1c-0.2,0-0.4-0.1-0.5-0.2
			c-0.1-0.1-0.2-0.3-0.2-0.5C345.2,410,345.3,409.9,345.3,410z"/>
		<path class="st3" d="M348,406.4c-0.1,0.1-0.3,0-0.5,0c-0.3,0-0.5,0.1-0.5,0c-0.1-0.1,0-0.1,0.1-0.2c0.1-0.1,0.3-0.1,0.4-0.1
			c0.2,0,0.3,0,0.4,0.1C348,406.3,348,406.4,348,406.4z"/>
		<path class="st3" d="M344.3,408.2c0,0.1,0,0.1,0.1,0.2s0.1,0.1,0.2,0.1c0,0,0.1,0,0.1,0c0,0,0.1,0,0.1-0.1c0,0,0-0.1,0.1-0.1
			c0,0,0-0.1,0-0.1c0-0.1,0-0.1-0.1-0.2c0-0.1-0.1-0.1-0.2-0.1c0,0-0.1,0-0.1,0c0,0-0.1,0-0.1,0c0,0,0,0.1-0.1,0.1
			C344.4,408.2,344.4,408.2,344.3,408.2z"/>
		<path class="st3" d="M344,407.4c0,0,0.2-0.1,0.5-0.1c0.3,0,0.5,0.2,0.5,0.1c0,0,0-0.1-0.1-0.2c-0.1-0.1-0.3-0.1-0.4-0.1
			c-0.2,0-0.3,0-0.4,0.1C344,407.4,344,407.4,344,407.4z"/>
		<path class="st3" d="M343.8,406.8c0.1,0.1,0.3,0,0.6,0c0.3,0,0.5,0.1,0.6,0c0.1-0.1,0-0.1-0.1-0.2c-0.1-0.1-0.3-0.1-0.5-0.1
			c-0.2,0-0.3,0-0.5,0.1C343.8,406.7,343.8,406.8,343.8,406.8z"/>
		<path class="st7" d="M342.1,409c0-0.2-0.2-0.5-0.3-0.6c-0.4-0.1-1.2-0.1-1.2,1c-0.1,1.5,1.4,1.3,1.4,1.2
			C342,410.6,342.1,409.6,342.1,409z"/>
		<path class="st8" d="M341.6,410.1C341.6,410.1,341.5,410.1,341.6,410.1c-0.1,0-0.1,0.1-0.2,0.1c0,0-0.1,0-0.1,0
			c-0.1-0.1-0.2-0.2-0.2-0.3c0-0.1-0.1-0.2-0.1-0.3c0-0.1,0-0.2,0.1-0.4c0,0,0-0.1,0.1-0.1c0,0,0.1-0.1,0.1-0.1c0,0,0.1,0,0.1,0
			c0,0,0,0,0.1,0.1c0,0,0,0,0,0.1c0,0,0,0,0-0.1c0,0,0-0.1-0.1-0.1c0,0,0,0-0.1,0s0,0-0.1,0c-0.1,0-0.1,0-0.2,0.1
			c0,0-0.1,0.1-0.1,0.1c-0.1,0.1-0.1,0.3-0.1,0.4c0,0.1,0,0.3,0.1,0.4s0.2,0.2,0.3,0.3c0,0,0.1,0,0.1,0
			C341.4,410.2,341.5,410.2,341.6,410.1C341.6,410.1,341.6,410.1,341.6,410.1z"/>
		<path class="st3" d="M341.7,408.5l0.4,0.4c1.6-1.5,4.8-5.4,4.6-5.2c-0.7-0.3-1.5-0.4-2.3-0.2c-1.2,0.2-3.5,0.8-3.4,2.2
			C341,406.6,341.3,407.6,341.7,408.5z"/>
		<path class="st4" d="M339.6,408.1C339.6,408.1,339.6,408.1,339.6,408.1c0-0.2,0.1-0.2,0.1-0.3c0.2-0.3,0.4-0.5,0.6-0.7
			c0.4-0.3,0.8-0.5,1.2-0.6c0.5-0.2,1-0.3,1.6-0.5c0.9-0.4,1.8-1,2.5-1.7c0.2-0.2,0.4-0.5,0.6-0.7l0.1-0.2c0,0,0,0,0.1-0.1l0,0.1
			c0,0-0.1,0.1-0.1,0.2c-0.2,0.3-0.4,0.5-0.6,0.7c-0.3,0.3-0.7,0.6-1,0.9c-0.5,0.3-0.9,0.6-1.5,0.8c-0.5,0.2-1.1,0.4-1.6,0.5
			c-0.4,0.1-0.9,0.3-1.2,0.6c-0.3,0.2-0.5,0.4-0.6,0.7C339.7,407.9,339.6,408,339.6,408.1z"/>
		<path class="st4" d="M340,408.4c0-0.1,0-0.2,0.1-0.3c0.1-0.3,0.3-0.5,0.6-0.7c0.4-0.2,0.8-0.4,1.2-0.5c0.5-0.1,1-0.3,1.5-0.5
			c0.5-0.2,0.9-0.5,1.4-0.8c0.3-0.3,0.7-0.6,0.9-0.9c0.2-0.2,0.4-0.5,0.5-0.7c0.1-0.1,0.1-0.2,0.1-0.2c0,0,0,0,0.1-0.1
			c0,0,0,0.1,0,0.1l-0.1,0.2c-0.1,0.3-0.3,0.5-0.5,0.7c-0.3,0.3-0.6,0.7-0.9,0.9c-0.4,0.3-0.9,0.6-1.4,0.9c-0.5,0.2-1,0.4-1.5,0.5
			c-0.4,0.1-0.8,0.2-1.2,0.5c-0.2,0.2-0.4,0.4-0.6,0.7C340.1,408.2,340,408.3,340,408.4z"/>
		<path class="st3" d="M339.2,421.6c-0.1-0.9-0.1-1.9,0-2.8C339.2,419.7,339.2,420.7,339.2,421.6z"/>
		<path class="st3" d="M349.2,421.4c0-0.2,0-0.3,0-0.5c0-0.4,0-0.8,0-1.2c-0.1-0.4-0.2-0.8-0.3-1.1c-0.1-0.2-0.1-0.3-0.2-0.5
			c0.1,0.1,0.2,0.3,0.2,0.4c0.2,0.4,0.3,0.8,0.4,1.2c0.1,0.4,0.1,0.8,0,1.2C349.3,421.1,349.3,421.2,349.2,421.4z"/>
		<path class="st9" d="M400.4,425.6h-36.3c-0.9,0-1.7-0.3-2.3-1c-0.6-0.6-1-1.4-1-2.3v-15.2l-4-3.5h43.5c0.4,0,0.9,0.1,1.3,0.2
			c0.4,0.2,0.8,0.4,1.1,0.7c0.3,0.3,0.5,0.7,0.7,1.1c0.2,0.4,0.3,0.8,0.2,1.3v15.5c0,0.4-0.1,0.9-0.3,1.3c-0.2,0.4-0.4,0.8-0.7,1.1
			s-0.7,0.5-1.1,0.7C401.3,425.5,400.9,425.6,400.4,425.6z"/>
		<path class="st6" d="M397.9,428c-1.3,0.1-2.6,0.2-3.9,0.1c-1.3,0-2.6,0-3.9-0.1c1.3-0.1,2.6-0.2,3.9-0.1
			C395.4,427.9,396.7,427.9,397.9,428z"/>
		<path class="st10" d="M399.5,428.3C399.5,428.3,399.5,428.3,399.5,428.3C399.5,428.3,399.5,428.3,399.5,428.3l-0.8-0.8
			c0,0,0-0.1,0-0.1c0,0,0-0.1,0-0.1c0,0,0,0,0,0s0,0,0,0c0,0,0,0,0,0c0,0,0,0,0,0l0.7,0.7l1.5-1.5c0,0,0,0,0,0s0,0,0,0c0,0,0,0,0,0
			c0,0,0,0,0,0c0,0,0,0.1,0,0.1c0,0,0,0.1,0,0.1L399.5,428.3C399.6,428.3,399.6,428.3,399.5,428.3z"/>
		<path class="st10" d="M400.6,428.3h-0.1c0,0-0.1,0-0.1,0c0,0,0-0.1,0-0.1c0,0,0-0.1,0-0.1c0,0,0.1,0,0.1,0h0.1l1.5-1.5
			c0,0,0,0,0,0c0,0,0,0,0,0c0,0,0,0,0,0c0,0,0,0,0,0c0,0,0,0.1,0,0.1s0,0.1,0,0.1L400.6,428.3C400.7,428.3,400.7,428.3,400.6,428.3
			C400.6,428.3,400.6,428.3,400.6,428.3z"/>
		<path class="st6" d="M397.9,487.6c-1.3,0.1-2.6,0.2-3.9,0.1c-1.3,0-2.6,0-3.9-0.1c1.3-0.1,2.6-0.2,3.9-0.1
			C395.4,487.4,396.7,487.4,397.9,487.6z"/>
		<path class="st10" d="M399.5,487.9C399.5,487.9,399.5,487.9,399.5,487.9C399.5,487.8,399.4,487.8,399.5,487.9l-0.8-0.8
			c0,0,0,0,0,0c0,0,0,0,0,0c0,0,0,0,0-0.1c0,0,0,0,0,0c0,0,0,0,0,0c0,0,0,0,0.1,0c0,0,0,0,0,0c0,0,0,0,0,0l0.7,0.7l1.5-1.5
			c0,0,0,0,0,0c0,0,0,0,0,0c0,0,0,0,0,0c0,0,0,0,0,0c0,0,0,0.1,0,0.1c0,0,0,0.1,0,0.1L399.5,487.9
			C399.6,487.8,399.6,487.9,399.5,487.9z"/>
		<path class="st10" d="M400.6,487.8h-0.1c0,0-0.1,0-0.1,0c0,0,0-0.1,0-0.1c0,0,0,0,0,0c0,0,0,0,0,0c0,0,0,0,0,0c0,0,0,0,0,0h0.1
			l1.5-1.5c0,0,0,0,0,0c0,0,0,0,0,0c0,0,0,0,0,0c0,0,0,0,0,0c0,0,0,0.1,0,0.1c0,0,0,0.1,0,0.1L400.6,487.8
			C400.7,487.8,400.7,487.8,400.6,487.8C400.6,487.8,400.6,487.8,400.6,487.8z"/>
		<path class="st5" d="M400,407.9c0,0.1-7.9,0.1-17.7,0.1c-9.8,0-17.7-0.1-17.7-0.1c0-0.1,7.9-0.1,17.7-0.1
			C392,407.8,400,407.8,400,407.9z"/>
		<path class="st5" d="M400,410.5c0,0.1-7.9,0.1-17.7,0.1c-9.8,0-17.7-0.1-17.7-0.1c0-0.1,7.9-0.1,17.7-0.1
			C392,410.4,400,410.4,400,410.5z"/>
		<path class="st5" d="M400,413.1c0,0.1-7.9,0.1-17.7,0.1c-9.8,0-17.7-0.1-17.7-0.1c0-0.1,7.9-0.1,17.7-0.1
			C392,413,400,413,400,413.1z"/>
		<path class="st6" d="M343.9,488.8c5.9,0,10.6-4.7,10.6-10.6c0-5.9-4.8-10.6-10.6-10.6c-5.9,0-10.6,4.7-10.6,10.6
			C333.3,484.1,338,488.8,343.9,488.8z"/>
		<path class="st4" d="M338.9,480.9l2.8-0.2l6.8,1.1l0.8,5.1l-0.1,0.6c-1.5,0.9-3.3,1.3-5,1.4c-1.8,0-3.5-0.4-5.1-1.1L338.9,480.9"
			/>
		<path class="st4" d="M347.1,481.7c0.7-0.1,1.4,0,2,0.3c0.6,0.3,1.2,0.7,1.5,1.3c0.5,0.6,0.9,1.3,1.3,2c-1.1,1.2-2,2.1-3.5,2.6
			L347.1,481.7z"/>
		<path class="st4" d="M338.9,480.9c0,0-1.8,0.2-2.6,1.8c-0.7,1.6-0.9,2.1-0.9,2.1c0.9,1.1,2.2,2.5,3.6,3c0,0,0.3-3.9,0.4-5.1
			C339.6,481.4,339.6,480.8,338.9,480.9z"/>
		<path class="st3" d="M340.6,470.8c0.5-0.6,1.1-1.1,1.7-1.4c0.7-0.3,1.4-0.5,2.2-0.5c0.6,0,1.3,0.1,1.9,0.3
			c0.6,0.2,1.2,0.5,1.6,1.1c0.5,0.6,0.8,1.4,0.9,2.1c0.1,0.8,0.1,1.6,0.1,2.4c0,0.8-0.3,1.6-0.8,2.3l-2,0.4c-1.1,0.1-2.3,0-3.4-0.2
			c-1.1-0.2-2.1-0.9-2.8-1.8C339.3,474.1,339.6,472,340.6,470.8z"/>
		<path class="st3" d="M338.6,476.7c0-0.2,0.1-0.5,0.2-0.7c0.1-0.2,0.3-0.4,0.5-0.5c0.2-0.1,0.4-0.2,0.7-0.2c0.2,0,0.5,0.1,0.6,0.3
			l0.3,0.4c0.2,0.1,0.5,0.3,0.6,0.5c0.1,0.2,0.2,0.5,0.2,0.8c0,0.3-0.2,0.5-0.3,0.7c-0.2,0.2-0.4,0.4-0.7,0.4
			c-0.3,0.1-0.5,0.1-0.8,0c-0.3-0.1-0.5-0.2-0.7-0.4c-0.2-0.2-0.3-0.4-0.4-0.7C338.6,477.3,338.6,477,338.6,476.7z"/>
		<path class="st4" d="M339,478.1c-0.1-0.1-0.1-0.3-0.1-0.4c0.1-0.3,0.2-0.7,0.5-0.9c0.2-0.3,0.5-0.5,0.8-0.7
			c0.2-0.1,0.4-0.2,0.4-0.2c-0.2,0-0.3,0.1-0.4,0.1c-0.3,0.2-0.6,0.4-0.9,0.7c-0.1,0.2-0.2,0.3-0.3,0.5c-0.1,0.1-0.1,0.3-0.1,0.5
			C338.9,477.8,338.9,477.9,339,478.1C339,478.1,339,478.1,339,478.1z"/>
		<path class="st7" d="M346.2,481.5v-1.9c0,0,1.7-0.2,2.1-2.3c0.2-1.4,0.3-2.8,0.3-4.3c0-1.3-1.1-3.1-2.7-3.1l-0.7-0.1l-2.7,1.1
			c-0.2,0-0.4,0.1-0.5,0.2c-0.1,0.1-0.2,0.3-0.2,0.5l-0.1,9.1l1.2,1.7c0.2,0.3,0.5,0.5,0.9,0.7c0.4,0.1,0.8,0.1,1.1,0
			c0.4-0.1,0.7-0.3,0.9-0.7C346.1,482.2,346.2,481.9,346.2,481.5L346.2,481.5z"/>
		<path class="st8" d="M345.1,476.6c0-0.1,0.1-0.2,0.2-0.3c0.1-0.1,0.2-0.1,0.3-0.1c0.1,0,0.2,0,0.3,0.1c0.1,0.1,0.2,0.2,0.2,0.3
			s0.1,0.2,0,0.3c0,0.1-0.1,0.1-0.2,0.2c-0.1,0-0.1,0.1-0.2,0.1h-0.1c-0.1,0-0.2-0.1-0.3-0.1c0,0-0.1-0.1-0.1-0.2
			C345.1,476.8,345.1,476.7,345.1,476.6z"/>
		<path class="st3" d="M347.6,474.6c0,0.1,0,0.1-0.1,0.2c-0.1,0-0.1,0.1-0.2,0.1s-0.1,0-0.2-0.1c-0.1,0-0.1-0.1-0.1-0.2
			c0-0.1,0-0.1,0.1-0.2c0.1,0,0.1-0.1,0.2-0.1c0,0,0.1,0,0.1,0c0,0,0.1,0,0.1,0.1c0,0,0,0.1,0.1,0.1
			C347.6,474.5,347.6,474.5,347.6,474.6z"/>
		<path class="st3" d="M348.1,473.9c0,0-0.2-0.1-0.5-0.1c-0.3,0-0.5,0.1-0.6,0.1c0,0,0-0.1,0.1-0.1c0.1-0.1,0.3-0.1,0.4-0.1
			c0.2,0,0.3,0.1,0.4,0.2C348.1,473.8,348.1,473.8,348.1,473.9z"/>
		<path class="st3" d="M346.2,476.1c0.2,0,0.3-0.1,0.5-0.1c0.1,0,0.2,0,0.2-0.1c0-0.1,0-0.2,0-0.2c-0.1-0.2-0.1-0.4-0.2-0.6
			c-0.2-0.5-0.3-1-0.4-1.5c0.2,0.5,0.4,1,0.5,1.5c0.1,0.2,0.1,0.4,0.2,0.6c0,0.1,0,0.2,0,0.3c0,0,0,0-0.1,0.1c0,0,0,0-0.1,0
			c0,0-0.1,0-0.1,0C346.5,476.1,346.4,476.1,346.2,476.1z"/>
		<path class="st8" d="M346.2,479.6c-1,0-2-0.4-2.8-0.9c0,0,0.7,1.5,2.8,1.4V479.6z"/>
		<path class="st3" d="M345.3,476.3c0.1,0,0,0.3,0.3,0.6c0.3,0.2,0.6,0.2,0.6,0.3s-0.1,0.1-0.2,0.1c-0.2,0-0.4-0.1-0.5-0.2
			c-0.1-0.1-0.2-0.3-0.2-0.5C345.2,476.3,345.3,476.3,345.3,476.3z"/>
		<path class="st3" d="M348,472.7c-0.1,0.1-0.3,0-0.5,0c-0.3,0-0.5,0.1-0.5,0c-0.1-0.1,0-0.1,0.1-0.2c0.1-0.1,0.3-0.1,0.4-0.1
			c0.2,0,0.3,0,0.4,0.1C348,472.6,348,472.7,348,472.7z"/>
		<path class="st3" d="M344.3,474.5c0,0.1,0,0.1,0.1,0.2c0.1,0.1,0.1,0.1,0.2,0.1c0,0,0.1,0,0.1,0s0.1,0,0.1,0c0,0,0-0.1,0.1-0.1
			s0-0.1,0-0.1c0-0.1,0-0.1-0.1-0.2c0-0.1-0.1-0.1-0.2-0.1c0,0-0.1,0-0.1,0c0,0-0.1,0-0.1,0.1c0,0,0,0.1-0.1,0.1
			C344.4,474.5,344.4,474.5,344.3,474.5z"/>
		<path class="st3" d="M344,473.7c0,0,0.2-0.1,0.5-0.1c0.3,0,0.5,0.2,0.5,0.1c0,0,0-0.1-0.1-0.2c-0.1-0.1-0.3-0.1-0.4-0.1
			c-0.2,0-0.3,0-0.4,0.1C344,473.7,344,473.7,344,473.7z"/>
		<path class="st3" d="M343.8,473.1c0.1,0.1,0.3,0,0.6,0c0.3,0,0.5,0.1,0.6,0c0.1-0.1,0-0.1-0.1-0.2c-0.1-0.1-0.3-0.1-0.5-0.1
			c-0.2,0-0.3,0-0.5,0.1C343.8,473,343.8,473.1,343.8,473.1z"/>
		<path class="st7" d="M342.1,475.2c0-0.2-0.2-0.5-0.3-0.6c-0.4-0.1-1.2-0.1-1.2,1c-0.1,1.5,1.4,1.3,1.4,1.2
			S342.1,475.7,342.1,475.2z"/>
		<path class="st8" d="M341.6,476.2C341.6,476.2,341.5,476.2,341.6,476.2c-0.1,0.1-0.2,0.1-0.3,0c-0.1-0.1-0.2-0.2-0.2-0.3
			c0-0.1-0.1-0.2-0.1-0.3c0-0.1,0-0.2,0.1-0.4c0,0,0-0.1,0.1-0.1c0,0,0.1-0.1,0.1-0.1c0,0,0.1,0,0.1,0c0,0,0,0,0.1,0.1
			c0,0,0,0.1,0,0.1c0,0,0,0,0-0.1c0,0,0-0.1-0.1-0.1c0,0,0,0-0.1,0c0,0,0,0-0.1,0c-0.1,0-0.1,0-0.2,0.1c0,0-0.1,0.1-0.1,0.1
			c-0.1,0.1-0.1,0.3-0.1,0.4c0,0.1,0,0.3,0.1,0.4c0.1,0.1,0.2,0.2,0.3,0.3c0,0,0.1,0,0.1,0C341.4,476.3,341.5,476.3,341.6,476.2
			C341.6,476.2,341.6,476.2,341.6,476.2z"/>
		<path class="st3" d="M341.7,474.6l0.4,0.4c1.6-1.5,4.8-5.4,4.6-5.2c-0.7-0.3-1.5-0.4-2.3-0.3c-1.2,0.2-3.5,0.8-3.4,2.2
			C341,472.7,341.3,473.7,341.7,474.6z"/>
		<path class="st4" d="M339.6,474.3C339.6,474.3,339.6,474.2,339.6,474.3c0-0.2,0.1-0.2,0.1-0.3c0.2-0.3,0.4-0.5,0.6-0.7
			c0.4-0.3,0.8-0.5,1.3-0.6c0.5-0.2,1-0.3,1.6-0.5c0.5-0.2,1-0.5,1.5-0.8c0.4-0.3,0.7-0.6,1-0.9c0.3-0.3,0.5-0.5,0.6-0.7
			c0.1-0.1,0.1-0.2,0.1-0.2c0-0.1,0.1-0.1,0.1-0.1l0,0.1l-0.1,0.2c-0.2,0.3-0.4,0.5-0.6,0.7c-0.3,0.3-0.7,0.6-1,0.9
			c-0.5,0.3-0.9,0.6-1.5,0.8c-0.6,0.2-1.1,0.4-1.6,0.5c-0.4,0.1-0.9,0.3-1.2,0.6c-0.3,0.2-0.5,0.4-0.6,0.7
			C339.7,474,339.6,474.1,339.6,474.3z"/>
		<path class="st4" d="M340,474.5c0-0.1,0-0.2,0.1-0.3c0.1-0.3,0.3-0.5,0.6-0.7c0.4-0.2,0.8-0.4,1.2-0.5c0.5-0.1,1-0.3,1.5-0.5
			c0.5-0.2,0.9-0.5,1.4-0.8c0.6-0.5,1.1-1,1.5-1.6c0.1-0.1,0.1-0.2,0.1-0.2c0,0,0,0,0.1-0.1c0,0,0,0.1,0,0.1l-0.1,0.2
			c-0.1,0.3-0.3,0.5-0.5,0.7c-0.3,0.4-0.6,0.7-0.9,0.9c-0.4,0.3-0.9,0.6-1.4,0.8c-0.5,0.2-1,0.4-1.5,0.5c-0.4,0.1-0.8,0.2-1.2,0.5
			c-0.2,0.2-0.4,0.4-0.6,0.7C340,474.3,340,474.4,340,474.5z"/>
		<path class="st3" d="M339.2,487.7c-0.1-0.9-0.1-1.9,0-2.8C339.2,485.8,339.2,486.8,339.2,487.7z"/>
		<path class="st3" d="M349.2,487.5c0-0.2,0-0.3,0-0.5c0-0.4,0-0.8,0-1.2c-0.1-0.4-0.2-0.8-0.3-1.1c-0.1-0.2-0.1-0.3-0.2-0.5
			c0.1,0.1,0.2,0.3,0.2,0.4c0.2,0.4,0.3,0.8,0.4,1.2c0.1,0.4,0.1,0.8,0,1.2C349.3,487.2,349.3,487.4,349.2,487.5z"/>
		<path class="st9" d="M400.4,484.5h-36.3c-0.9,0-1.7-0.3-2.3-1c-0.6-0.6-1-1.4-1-2.3v-8l-4-3.5h43.5c0.9,0,1.7,0.3,2.3,1
			s1,1.4,1,2.3v8.3c0,0.9-0.3,1.7-1,2.3C402.1,484.1,401.3,484.5,400.4,484.5z"/>
		<path class="st5" d="M400,474c0,0.1-7.9,0.1-17.7,0.1c-9.8,0-17.7-0.1-17.7-0.1c0-0.1,7.9-0.1,17.7-0.1C392,473.9,400,474,400,474
			z"/>
		<path class="st5" d="M400,476.6c0,0.1-7.9,0.1-17.7,0.1c-9.8,0-17.7-0.1-17.7-0.1c0-0.1,7.9-0.1,17.7-0.1
			C392,476.5,400,476.6,400,476.6z"/>
		<path class="st5" d="M400,479.2c0,0.1-7.9,0.1-17.7,0.1c-9.8,0-17.7-0.1-17.7-0.1s7.9-0.1,17.7-0.1C392,479.1,400,479.1,400,479.2
			z"/>
		<path class="st5" d="M400,415.7c0,0.1-7.9,0.1-17.7,0.1c-9.8,0-17.7-0.1-17.7-0.1s7.9-0.1,17.7-0.1C392,415.6,400,415.6,400,415.7
			z"/>
		<path class="st5" d="M400,418.3c0,0.1-7.9,0.1-17.7,0.1c-9.8,0-17.7-0.1-17.7-0.1c0-0.1,7.9-0.1,17.7-0.1
			C392,418.2,400,418.2,400,418.3z"/>
		<path class="st5" d="M400,421.4c0,0.1-7.9,0.1-17.7,0.1c-9.8,0-17.7-0.1-17.7-0.1c0-0.1,7.9-0.1,17.7-0.1
			C392,421.3,400,421.3,400,421.4z"/>
		<path class="st6" d="M396,458c5.9,0,10.6-4.7,10.6-10.6c0-5.9-4.8-10.6-10.6-10.6c-5.9,0-10.6,4.7-10.6,10.6
			C385.3,453.2,390.1,458,396,458z"/>
		<path class="st11" d="M402.9,454.3c-0.8,1-1.8,1.8-3,2.4c-1.2,0.6-2.4,0.9-3.7,0.9c-1.3,0-2.6-0.2-3.8-0.7s-2.3-1.2-3.2-2.2l4.4-1
			l6.1-0.3L402.9,454.3z"/>
		<path class="st12" d="M398.4,451.3c-0.4-1.5,0.1-3.7,0.1-3.7c-1-1-4,3.8-4,3.8s0.1,0.9-0.9,2.4c-0.1,0.1-0.1,0.2-0.2,0.3
			c0.6,1,1.9,2.9,2.9,2.7c1-0.2,2.5-2.1,3.4-3.2C398.8,452.9,398.7,452.4,398.4,451.3z"/>
		<path class="st12" d="M399.5,445.7c0,0,0.5-0.1,0.5,0.8c0.1,0.9-0.3,1.3-0.7,1.3h-0.5c-0.1,0.5-0.2,1-0.3,1.5
			c-0.3,1-0.3,1.5-2.4,2.4c-2.1,0.9-2.6,0.7-3.2-0.2c-0.6-0.9-0.6-4.3-0.7-5.8c-0.1-1.5-0.3-3.1-0.3-3.1c0.4-0.4,1-0.8,1.5-1.1
			c1-0.5,4,0.1,5,0.5s0.6,2.8,0.6,2.8L399.5,445.7z"/>
		<path class="st3" d="M395.1,446.8c0,0.2-0.1,0.4-0.2,0.4c-0.1,0-0.2-0.2-0.2-0.4s0.1-0.4,0.2-0.4
			C395,446.4,395.1,446.6,395.1,446.8z"/>
		<path class="st3" d="M393.2,446.8c0,0.2-0.1,0.4-0.2,0.4c-0.1,0-0.2-0.2-0.2-0.4s0.1-0.4,0.2-0.4
			C393.1,446.4,393.2,446.6,393.2,446.8z"/>
		<path class="st13" d="M392.6,445.3c0.1-0.1,0.2-0.1,0.4-0.1s0.3,0,0.4,0.1"/>
		<path class="st13" d="M394.8,445.4c0,0,0.8-0.3,1.4,0.6"/>
		<path class="st13" d="M393.7,446.2l-0.3,2.7l1.3,0.1"/>
		<path class="st14" d="M400.8,441.1c-0.1-1.1-1.7-0.7-2.8-1.1c-1-0.4-2.9-1.6-4.5-1.6c-0.4,0-0.8,0.1-1.2,0.3
			c-0.3,0.2-0.6,0.6-0.7,1l0.1-1.1c0,0-1.1,0.6-1,1.7c0.1,1.1,0.9,2.4,1.4,2.4c0.5-0.1,5-0.3,5.3,0.4c0.3,0.7-0.7,1.9-0.7,1.9
			c0.1,0.7,1,0.5,1.1,0.8c0,0.6,0,1.3-0.1,1.9c0,0.4,0.1,0.7,0.3,1.1c0,0.3-0.1,0.7-0.3,0.9c-0.2,0.2-0.4,0.3-0.6,0.4
			c-0.2,0.1-0.5,0.1-0.7,0.1c0,0-1.5-1.4-2.7-1.2c-1.1,0.2-1.4,0.7-1.4,0.7h0c0,0.2,0.1,0.5,0.1,0.7c0.2-0.3,0.7-1,1.6-1
			c1,0,2.2,1.3,2.2,1.3s-1.1,0.7-1.7,0.7s-0.5-0.7-0.9-0.7c-0.4,0.1-0.3,0.5-0.5,0.5c-0.2,0-0.5-0.2-0.6-0.4
			c0.1,0.2,0.1,0.4,0.2,0.6c0.6,0.9,1.1,1,3.2,0.2c2.1-0.8,2.1-1.4,2.4-2.4l0.1-0.3c-0.1-0.5-0.2-0.9-0.3-1.4c0-0.8,0.1-1.6,0.3-1.8
			c0.3-0.4,0.9-0.1,0.9-0.1S400.9,442.1,400.8,441.1z"/>
		<path class="st9" d="M337.8,458.2H374c0.4,0,0.9-0.1,1.2-0.2c0.4-0.2,0.8-0.4,1.1-0.7c0.3-0.3,0.5-0.7,0.7-1.1
			c0.2-0.4,0.2-0.8,0.2-1.2v-10.5l4-3.5h-43.5c-0.4,0-0.9,0.1-1.2,0.2s-0.8,0.4-1.1,0.7c-0.3,0.3-0.5,0.7-0.7,1.1
			c-0.2,0.4-0.2,0.8-0.2,1.2v10.8c0,0.4,0.1,0.9,0.2,1.2c0.2,0.4,0.4,0.8,0.7,1.1c0.3,0.3,0.7,0.5,1.1,0.7
			C336.9,458.1,337.3,458.2,337.8,458.2z"/>
		<path class="st5" d="M372.4,446c0,0.1-7.5,0.1-16.7,0.1S339,446.1,339,446c0-0.1,7.5-0.1,16.7-0.1S372.4,445.9,372.4,446z"/>
		<path class="st5" d="M372.4,448.8c0,0.1-7.5,0.1-16.7,0.1s-16.7-0.1-16.7-0.1c0-0.1,7.5-0.1,16.7-0.1S372.4,448.8,372.4,448.8z"/>
		<path class="st5" d="M372.4,451.6c0,0.1-7.5,0.1-16.7,0.1s-16.7-0.1-16.7-0.1c0-0.1,7.5-0.1,16.7-0.1S372.4,451.6,372.4,451.6z"/>
		<path class="st5" d="M372.4,454.5c0,0.1-7.5,0.1-16.7,0.1s-16.7-0.1-16.7-0.1c0-0.1,7.5-0.1,16.7-0.1S372.4,454.4,372.4,454.5z"/>
		<path class="st6" d="M396,517c5.9,0,10.6-4.7,10.6-10.6s-4.8-10.6-10.6-10.6c-5.9,0-10.6,4.7-10.6,10.6S390.1,517,396,517z"/>
		<path class="st11" d="M402.9,513.4c-0.8,1-1.8,1.8-3,2.4c-1.2,0.6-2.4,0.9-3.7,0.9c-1.3,0-2.6-0.2-3.8-0.7
			c-1.2-0.5-2.3-1.2-3.2-2.2l4.4-1l6.1-0.3L402.9,513.4z"/>
		<path class="st12" d="M398.4,510.4c-0.4-1.5,0.1-3.7,0.1-3.7c-1-1-4,3.8-4,3.8s0.1,0.9-0.9,2.4c-0.1,0.1-0.1,0.2-0.2,0.3
			c0.6,1,1.9,2.9,2.9,2.7c1-0.2,2.5-2.1,3.4-3.2C398.8,512,398.7,511.5,398.4,510.4z"/>
		<path class="st12" d="M399.5,504.7c0,0,0.5-0.1,0.5,0.8c0.1,0.9-0.3,1.3-0.7,1.3h-0.5c-0.1,0.5-0.2,1-0.3,1.5
			c-0.3,1-0.3,1.5-2.4,2.4c-2.1,0.9-2.6,0.7-3.2-0.2c-0.6-0.9-0.6-4.3-0.7-5.8c-0.1-1.5-0.3-3.1-0.3-3.1c0.4-0.4,1-0.8,1.5-1.1
			c1-0.5,4,0.1,5,0.5c0.9,0.5,0.6,2.8,0.6,2.8L399.5,504.7z"/>
		<path class="st3" d="M395.1,505.9c0,0.2-0.1,0.4-0.2,0.4c-0.1,0-0.2-0.2-0.2-0.4c0-0.2,0.1-0.4,0.2-0.4
			C395,505.5,395.1,505.6,395.1,505.9z"/>
		<path class="st3" d="M393.2,505.9c0,0.2-0.1,0.4-0.2,0.4c-0.1,0-0.2-0.2-0.2-0.4c0-0.2,0.1-0.4,0.2-0.4
			C393.1,505.5,393.2,505.6,393.2,505.9z"/>
		<path class="st13" d="M392.6,504.3c0.1-0.1,0.2-0.1,0.4-0.1c0.1,0,0.3,0,0.4,0.1"/>
		<path class="st13" d="M394.8,504.5c0,0,0.8-0.3,1.4,0.6"/>
		<path class="st13" d="M393.7,505.3l-0.3,2.7l1.3,0.1"/>
		<path class="st14" d="M400.8,500.1c-0.1-1.1-1.7-0.7-2.8-1.1c-1-0.4-2.9-1.6-4.5-1.6c-0.4,0-0.8,0.1-1.2,0.3
			c-0.3,0.2-0.6,0.6-0.7,1l0.1-1.1c0,0-1.1,0.6-1,1.7c0.1,1.1,0.9,2.4,1.4,2.4c0.5-0.1,5-0.3,5.3,0.4c0.3,0.7-0.7,1.9-0.7,1.9
			c0.1,0.7,1,0.5,1.1,0.8c0,0.6,0,1.3-0.1,1.9c0,0.4,0.1,0.7,0.3,1.1c0,0.3-0.1,0.7-0.3,0.9c-0.2,0.2-0.4,0.3-0.6,0.4
			c-0.2,0.1-0.5,0.1-0.7,0.1c0,0-1.5-1.4-2.7-1.2c-1.1,0.2-1.4,0.7-1.4,0.7h0c0,0.2,0.1,0.5,0.1,0.7c0.2-0.3,0.7-1,1.6-1
			c1,0,2.2,1.3,2.2,1.3s-1.1,0.7-1.7,0.7s-0.5-0.7-0.9-0.7c-0.4,0.1-0.3,0.5-0.5,0.5c-0.2,0-0.5-0.2-0.6-0.4
			c0.1,0.2,0.1,0.4,0.2,0.6c0.6,0.9,1.1,1,3.2,0.2c2.1-0.8,2.1-1.4,2.4-2.4l0.1-0.3c-0.1-0.5-0.2-0.9-0.3-1.4c0-0.8,0.1-1.6,0.3-1.8
			c0.3-0.4,0.9-0.1,0.9-0.1S400.9,501.2,400.8,500.1z"/>
		<path class="st9" d="M337.8,517.1H374c0.4,0,0.9-0.1,1.2-0.2c0.4-0.2,0.8-0.4,1.1-0.7c0.3-0.3,0.5-0.7,0.7-1.1
			c0.2-0.4,0.2-0.8,0.2-1.2v-10.5l4-3.5h-43.5c-0.4,0-0.9,0.1-1.2,0.2c-0.4,0.2-0.8,0.4-1.1,0.7c-0.3,0.3-0.5,0.7-0.7,1.1
			c-0.2,0.4-0.2,0.8-0.2,1.2v10.8c0,0.4,0.1,0.9,0.2,1.2c0.2,0.4,0.4,0.8,0.7,1.1s0.7,0.5,1.1,0.7
			C336.9,517,337.3,517.1,337.8,517.1z"/>
		<path class="st9" d="M337.8,533.5H374c0.4,0,0.9-0.1,1.2-0.2c0.4-0.2,0.8-0.4,1.1-0.7c0.3-0.3,0.5-0.7,0.7-1.1
			c0.2-0.4,0.2-0.8,0.2-1.2v-3.5l4-3.5h-43.5c-0.4,0-0.9,0.1-1.2,0.2s-0.8,0.4-1.1,0.7c-0.3,0.3-0.5,0.7-0.7,1.1
			c-0.2,0.4-0.2,0.8-0.2,1.2v3.8c0,0.9,0.3,1.7,1,2.3C336.1,533.2,336.9,533.5,337.8,533.5z"/>
		<path class="st5" d="M372.4,504.9c0,0.1-7.5,0.1-16.7,0.1S339,505,339,504.9c0-0.1,7.5-0.1,16.7-0.1S372.4,504.8,372.4,504.9z"/>
		<path class="st5" d="M372.4,507.7c0,0.1-7.5,0.1-16.7,0.1s-16.7-0.1-16.7-0.1c0-0.1,7.5-0.1,16.7-0.1S372.4,507.6,372.4,507.7z"/>
		<path class="st5" d="M372.4,510.5c0,0.1-7.5,0.1-16.7,0.1s-16.7-0.1-16.7-0.1c0-0.1,7.5-0.1,16.7-0.1S372.4,510.5,372.4,510.5z"/>
		<path class="st5" d="M372.4,513.3c0,0.1-7.5,0.1-16.7,0.1s-16.7-0.1-16.7-0.1c0-0.1,7.5-0.1,16.7-0.1S372.4,513.3,372.4,513.3z"/>
		<path class="st5" d="M372.5,528.5c0,0.1-7.4,0.1-16.5,0.1c-9.1,0-16.5-0.1-16.5-0.1c0-0.1,7.4-0.1,16.5-0.1
			C365.1,528.4,372.5,528.4,372.5,528.5z"/>
		<path class="st4" d="M251.2,521.6c0.6,0.2,1.2,0.4,1.8,0.8c0.5,0.4,1,0.9,1.3,1.5c0.7,1.1,1,2.4,1.1,3.7c0.2,2.5-0.6,5.3-1.7,7.6
			c-2.5-1.4-3.6-4.4-4.1-6C248.8,526.7,248.9,521.7,251.2,521.6"/>
		<path class="st4" d="M256.9,538.8c-0.3-0.7-0.4-1.4-0.3-2.1c0.1-0.7,0.4-1.4,0.8-2c0.5-0.6,1-1.1,1.7-1.4c0.6-0.4,1.3-0.6,2.1-0.7
			c0.3-0.1,0.7-0.1,1,0c0.3,0.1,0.6,0.2,0.9,0.4c0.2,0.2,0.4,0.5,0.4,0.8c0.1,0.3,0.1,0.6,0,0.9c-0.2,0.6-0.6,1.1-1,1.6
			C260.8,537.8,259,539,256.9,538.8"/>
		<path class="st3" d="M255.8,546.9c0-0.2,0-0.3,0-0.5c0-0.4,0-0.8,0-1.4c-0.1-1.6,0.1-3.1,0.5-4.7c0.4-1.5,1.3-2.9,2.4-4
			c0.4-0.3,0.7-0.6,1.2-0.8c0.1-0.1,0.2-0.1,0.3-0.2c0,0,0.1,0,0.1,0c-0.6,0.3-1.1,0.7-1.5,1.2c-1.1,1.1-1.9,2.5-2.4,4
			c-0.4,1.5-0.6,3.1-0.5,4.6c0,0.6,0,1.1,0,1.4C255.9,546.6,255.9,546.7,255.8,546.9z"/>
		<path class="st3" d="M251.4,525.5c0,0.1,0.1,0.1,0.1,0.2c0,0.2,0.1,0.4,0.2,0.6c0.1,0.5,0.4,1.3,0.6,2.3c0.5,2,1.1,4.7,1.7,7.7
			c0.6,3,1.1,5.8,1.5,7.8c0.2,1,0.3,1.8,0.4,2.4c0,0.3,0.1,0.5,0.1,0.6c0,0.1,0,0.2,0,0.2c0-0.1,0-0.1-0.1-0.2
			c0-0.2-0.1-0.4-0.1-0.6c-0.1-0.6-0.3-1.4-0.4-2.3c-0.4-2-0.9-4.7-1.5-7.7c-0.6-3-1.2-5.7-1.7-7.7c-0.2-0.9-0.4-1.8-0.5-2.3
			c-0.1-0.3-0.1-0.5-0.1-0.6C251.4,525.6,251.4,525.5,251.4,525.5z"/>
		<path class="st4" d="M253.6,541.1c-0.6-1.4-1.5-2.7-2.6-3.7c-1.2-1-2.6-1.7-4.1-2.1c-0.8-0.2-1.7-0.2-2.2,0.4
			c-0.5,0.6-0.1,1.5,0.3,2.2c0.9,1.4,2.2,2.4,3.7,3c1.5,0.6,3.2,0.8,4.8,0.4"/>
		<path class="st3" d="M247.8,537.4c0.2,0,0.3,0.1,0.5,0.1c0.2,0,0.4,0.1,0.6,0.2c0.2,0.1,0.5,0.1,0.7,0.3c0.2,0.1,0.6,0.2,0.8,0.4
			c0.3,0.2,0.6,0.3,0.9,0.5c0.7,0.5,1.3,1,1.9,1.6c0.5,0.6,1,1.3,1.4,2c0.2,0.3,0.3,0.6,0.5,0.9c0.1,0.3,0.2,0.6,0.3,0.9
			c0.1,0.3,0.1,0.5,0.2,0.7c0,0.2,0.1,0.4,0.1,0.6c0,0.2,0,0.3,0,0.5c0,0-0.1-0.7-0.5-1.8c-0.1-0.3-0.2-0.6-0.3-0.8
			c-0.1-0.3-0.3-0.6-0.5-0.9c-0.4-0.7-0.9-1.3-1.4-1.9c-0.6-0.6-1.2-1.1-1.8-1.6c-0.3-0.2-0.6-0.4-0.9-0.5c-0.3-0.2-0.5-0.3-0.8-0.4
			C248.5,537.6,247.8,537.5,247.8,537.4z"/>
		<path class="st15" d="M262.9,398.6l-1.8-5.5c2.5-4,3.4-8.9,2.5-13.5c-0.9-4.7-3.5-8.8-7.3-11.7s-8.5-4.2-13.3-3.7
			c-4.7,0.5-9.1,2.7-12.3,6.2c-3.2,3.5-4.9,8.1-4.9,12.9s1.9,9.3,5.1,12.8c3.2,3.5,7.7,5.6,12.4,6c4.7,0.4,9.5-1,13.2-3.9
			L262.9,398.6z"/>
		<path class="st3" d="M262.9,398.6h-0.4l-1.2-0.1l-4.7-0.3c0,0,0,0,0,0c0,0,0,0,0,0c0,0,0,0,0,0c0,0,0,0,0,0c0,0,0,0,0,0l0.1,0.1
			c-3.3,2.6-7.3,4-11.5,4c-1.1,0-2.1-0.1-3.2-0.3c-4.9-0.8-9.2-3.4-12.2-7.3c-1.7-2.2-2.8-4.7-3.4-7.4c-0.7-2.9-0.6-5.8,0.1-8.7
			c0.1-0.4,0.2-0.7,0.3-1.1c0.1-0.4,0.3-0.7,0.4-1.1c0.1-0.4,0.3-0.7,0.4-1.1c0.2-0.3,0.3-0.7,0.5-1c0.2-0.3,0.4-0.7,0.6-1l0.6-1
			l0.7-0.9l0.4-0.5c0.1-0.2,0.3-0.3,0.4-0.4c2.1-2.4,4.7-4.2,7.6-5.3c2.8-1.1,5.8-1.5,8.7-1.2c2.8,0.3,5.5,1.2,7.9,2.6
			c4.3,2.5,7.4,6.6,8.7,11.4c0.3,1,0.5,2.1,0.6,3.1c0.1,1,0.1,2,0.1,3c-0.2,3.2-1.2,6.2-2.8,8.9v0c0.6,1.8,1,3.2,1.3,4.1
			c0.1,0.5,0.2,0.8,0.3,1L262.9,398.6c0,0-0.1-0.1-0.1-0.4l-0.3-1c-0.3-0.9-0.8-2.3-1.3-4c0,0,0,0,0,0c1.6-2.7,2.6-5.7,2.7-8.8
			c0-1,0-2-0.1-2.9c-0.1-1-0.3-2.1-0.6-3.1c-1-3.7-3.1-7-6.1-9.4c-2.9-2.5-6.5-4-10.3-4.4c-2.9-0.3-5.9,0.1-8.6,1.2
			c-2.9,1.1-5.4,2.9-7.5,5.2c-0.1,0.1-0.3,0.3-0.4,0.4l-0.3,0.5l-0.7,0.9l-0.6,1c-0.2,0.3-0.4,0.7-0.6,1c-0.2,0.3-0.3,0.7-0.5,1
			c-0.2,0.3-0.3,0.7-0.4,1c-0.1,0.4-0.3,0.7-0.4,1.1c-0.1,0.4-0.2,0.7-0.3,1.1c-0.7,2.8-0.7,5.7-0.1,8.5c0.8,3.7,2.7,7.1,5.5,9.6
			c2.8,2.6,6.2,4.3,10,4.9c1,0.2,2.1,0.2,3.1,0.3c1,0,2-0.1,2.9-0.2c3.1-0.5,6-1.8,8.5-3.7c0,0,0,0,0,0c0,0,0,0,0,0c0,0,0,0,0,0
			c0,0,0,0,0,0c0,0,0,0,0,0c0,0,0,0,0,0l0-0.1l4.7,0.3l1.2,0.1L262.9,398.6z"/>
		<path class="st3" d="M239.5,383.2c0,0.4-0.1,0.8-0.3,1.1c-0.2,0.3-0.5,0.6-0.9,0.7c-0.4,0.1-0.7,0.2-1.1,0.1
			c-0.4-0.1-0.7-0.3-1-0.5c-0.3-0.3-0.5-0.6-0.5-1c-0.1-0.4,0-0.8,0.1-1.1c0.1-0.4,0.4-0.7,0.7-0.9c0.3-0.2,0.7-0.3,1.1-0.3
			c0.5,0,1,0.2,1.4,0.6C239.3,382.2,239.5,382.7,239.5,383.2z"/>
		<path class="st3" d="M247.3,383.2c0,0.4-0.1,0.8-0.3,1.1c-0.2,0.3-0.5,0.6-0.9,0.7c-0.4,0.1-0.7,0.2-1.1,0.1
			c-0.4-0.1-0.7-0.3-1-0.5c-0.3-0.3-0.5-0.6-0.5-1c-0.1-0.4,0-0.8,0.1-1.1c0.1-0.4,0.4-0.7,0.7-0.9c0.3-0.2,0.7-0.3,1.1-0.3
			c0.5,0,1,0.2,1.4,0.6C247.1,382.2,247.3,382.7,247.3,383.2z"/>
		<path class="st3" d="M255,382.2c0.2,0.3,0.3,0.7,0.3,1.1c0,0.4-0.2,0.7-0.4,1c-0.2,0.3-0.5,0.5-0.9,0.7c-0.4,0.1-0.8,0.1-1.1,0
			c-0.4-0.1-0.7-0.3-1-0.6s-0.4-0.6-0.5-1c-0.1-0.4,0-0.8,0.2-1.1c0.2-0.3,0.4-0.6,0.8-0.8c0.2-0.1,0.5-0.2,0.7-0.2
			c0.3,0,0.5,0,0.8,0c0.2,0.1,0.5,0.2,0.7,0.3C254.7,381.8,254.9,382,255,382.2z"/>
		<path class="st10" d="M255.8,468.4l-20-2.1l-8.5-19.2l-6.6,1.7c0,0,4.9,20.3,10.3,23.4c5.4,3.1,24,3.7,24,3.7L255.8,468.4z"/>
		<path class="st5" d="M249.5,468.7c-1.2,0-2.3,0-3.5-0.1c-1.2,0-2.3-0.2-3.4-0.4c1.2,0,2.3,0,3.5,0.1
			C247.2,468.3,248.3,468.5,249.5,468.7z"/>
		<path class="st5" d="M231.6,458.5c-0.7-1-1.3-2-1.8-3.1c-0.6-1-1.1-2.1-1.6-3.2c0.7,1,1.3,2,1.8,3.1
			C230.6,456.4,231.2,457.4,231.6,458.5z"/>
		<path class="st3" d="M234,473.8c3.6-0.9,5.8-4.4,4.9-8c-0.9-3.6-4.4-5.8-8-4.9c-3.6,0.9-5.8,4.4-4.9,8
			C226.8,472.5,230.4,474.6,234,473.8z"/>
		<path class="st5" d="M234.7,463c0,0-0.4-0.1-0.9-0.3c-0.8-0.2-1.6-0.2-2.4,0s-1.5,0.5-2.1,1.1c-0.5,0.4-0.7,0.7-0.7,0.7
			c0.1-0.3,0.3-0.6,0.6-0.8c0.6-0.6,1.4-1,2.2-1.2c0.8-0.2,1.7-0.2,2.5,0C234.1,462.6,234.4,462.8,234.7,463z"/>
		<path class="st3" d="M229.7,446.2c0.7-2.9-1-5.9-3.9-6.6c-2.9-0.7-5.9,1-6.6,3.9c-0.7,2.9,1,5.9,3.9,6.6
			C226,450.9,229,449.1,229.7,446.2z"/>
		<path class="st3" d="M230.2,438.1l-1.9,5.5l-2.4-0.8l1.9-5.5c0.1-0.3,0.3-0.5,0.6-0.7c0.3-0.1,0.6-0.2,0.9-0.1l0.2,0.1
			c0.1,0,0.3,0.1,0.4,0.2c0.1,0.1,0.2,0.2,0.3,0.4c0.1,0.1,0.1,0.3,0.1,0.4C230.3,437.8,230.3,437.9,230.2,438.1z"/>
		<path class="st3" d="M221.8,435l2.9,4.9c0,0,0,0.1,0,0.1c0,0,0,0.1-0.1,0.1l-1.9,1.1c0,0-0.1,0-0.1,0c0,0-0.1,0-0.1-0.1l-2.9-4.9
			c-0.2-0.3-0.2-0.6-0.1-0.9c0.1-0.3,0.3-0.6,0.5-0.7l0.1-0.1c0.3-0.2,0.6-0.2,0.9-0.1C221.4,434.6,221.7,434.7,221.8,435z"/>
		<path class="st3" d="M218.4,437.1l3.9,4.1c0,0,0,0.1,0,0.1c0,0,0,0.1-0.1,0.1l-1.6,1.5c0,0-0.1,0-0.1,0c0,0-0.1,0-0.1-0.1
			l-3.9-4.1c-0.2-0.2-0.3-0.5-0.3-0.8c0-0.3,0.1-0.6,0.4-0.8l0.1-0.1c0.2-0.2,0.5-0.3,0.8-0.3C217.9,436.7,218.2,436.9,218.4,437.1z
			"/>
		<path class="st3" d="M215.4,440.5l5,2.8c0,0,0.1,0.1,0.1,0.1c0,0,0,0.1,0,0.1l-1.1,1.9c0,0-0.1,0.1-0.1,0.1s-0.1,0-0.1,0l-5-2.8
			c-0.3-0.2-0.5-0.4-0.5-0.7c-0.1-0.3,0-0.6,0.1-0.9l0.1-0.1c0.2-0.3,0.4-0.5,0.7-0.5C214.8,440.3,215.1,440.3,215.4,440.5z"/>
		<path class="st3" d="M266.4,478.2c3.3-3.7,2.9-9.2-0.7-12.5c-3.7-3.2-9.3-2.9-12.5,0.7c-3.3,3.7-2.9,9.2,0.7,12.5
			C257.5,482.1,263.1,481.8,266.4,478.2z"/>
		<path class="st3" d="M259.7,481.1c-2.1,0-4-0.7-5.6-2c-1.6-1.3-2.7-3.1-3.1-5.1c-0.4-2-0.1-4.1,0.9-5.9c1-1.8,2.5-3.2,4.4-4
			c1.9-0.8,4-0.9,6-0.3c2,0.6,3.7,1.9,4.8,3.6c1.1,1.7,1.7,3.8,1.5,5.8c-0.2,2-1.1,3.9-2.6,5.4c-0.8,0.8-1.8,1.5-2.9,1.9
			C262.1,480.9,260.9,481.1,259.7,481.1z M259.7,463.4c-2,0-4,0.7-5.6,2c-1.6,1.3-2.7,3.1-3.1,5.1c-0.4,2-0.1,4.1,0.9,5.9
			c1,1.8,2.5,3.2,4.4,4c1.9,0.8,4,0.9,6,0.3c2-0.6,3.7-1.8,4.8-3.5c1.1-1.7,1.7-3.7,1.5-5.8c-0.2-2-1.1-3.9-2.5-5.4
			c-0.8-0.8-1.8-1.5-2.9-1.9C262.1,463.7,260.9,463.4,259.7,463.4z"/>
		<path class="st10" d="M342.6,518.1l6-2.5L331.3,475l-6,2.5L342.6,518.1z"/>
		<path class="st3" d="M332.2,478.9c3.2-3.7,2.7-9.3-1-12.5c-3.7-3.2-9.3-2.7-12.5,1c-3.2,3.7-2.7,9.3,1,12.5
			C323.4,483.1,329,482.6,332.2,478.9z"/>
		<path class="st3" d="M325.4,482.1c-1.4,0-2.8-0.3-4-0.9c-1.2-0.6-2.3-1.5-3.1-2.6c-0.8-1.1-1.4-2.4-1.6-3.8
			c-0.2-1.4-0.1-2.8,0.3-4.1c0.5-1.6,1.4-3,2.6-4c1.2-1.1,2.7-1.8,4.4-2.1c1.6-0.3,3.3-0.1,4.8,0.5c1.5,0.6,2.8,1.6,3.8,3
			c1,1.3,1.6,2.9,1.7,4.5c0.1,1.6-0.2,3.3-0.9,4.7c-0.7,1.5-1.9,2.7-3.3,3.6C328.7,481.6,327.1,482.1,325.4,482.1z M325.4,464.4
			c-1.6,0-3.2,0.5-4.6,1.3c-1.4,0.9-2.5,2.1-3.3,3.5c-0.7,1.5-1.1,3.1-0.9,4.7c0.1,1.6,0.7,3.2,1.7,4.5c1,1.3,2.3,2.3,3.8,2.9
			c1.5,0.6,3.2,0.8,4.8,0.5c1.6-0.3,3.1-1,4.4-2.1c1.2-1.1,2.1-2.5,2.6-4c0.7-2.2,0.5-4.7-0.6-6.7c-1.1-2.1-3-3.6-5.2-4.3
			C327.2,464.5,326.3,464.4,325.4,464.4L325.4,464.4z"/>
		<path class="st3" d="M343.4,499.6c1-3.5-1.1-7.2-4.6-8.2s-7.2,1.1-8.2,4.6c-1,3.5,1.1,7.2,4.6,8.2
			C338.7,505.2,342.4,503.2,343.4,499.6z"/>
		<path class="st3" d="M347,524c3,0,5.4-2.4,5.4-5.4c0-3-2.4-5.4-5.4-5.4c-3,0-5.4,2.4-5.4,5.4C341.5,521.5,344,524,347,524z"/>
		<path class="st3" d="M339.9,524l3-5l2.1,1.3l-3,5c-0.2,0.3-0.4,0.5-0.7,0.5c-0.3,0.1-0.6,0-0.9-0.1l-0.1-0.1
			c-0.1-0.1-0.2-0.2-0.3-0.3c-0.1-0.1-0.2-0.3-0.2-0.4c0-0.1,0-0.3,0-0.5C339.7,524.3,339.8,524.1,339.9,524z"/>
		<path class="st3" d="M347.4,528.7l-1.8-5.4c0,0,0-0.1,0-0.1c0,0,0.1-0.1,0.1-0.1l2.1-0.7c0,0,0.1,0,0.1,0c0,0,0.1,0.1,0.1,0.1
			l1.8,5.4c0,0.1,0.1,0.3,0.1,0.5c0,0.2-0.1,0.3-0.1,0.4c-0.1,0.1-0.2,0.3-0.3,0.4c-0.1,0.1-0.3,0.2-0.4,0.2l-0.2,0.1
			c-0.3,0.1-0.6,0.1-0.9-0.1C347.7,529.3,347.5,529,347.4,528.7z"/>
		<path class="st3" d="M351.3,527.5l-2.9-4.9c0,0,0,0,0-0.1c0,0,0,0,0-0.1c0,0,0,0,0-0.1c0,0,0,0,0,0l1.9-1.1c0,0,0,0,0.1,0
			c0,0,0,0,0.1,0c0,0,0,0,0.1,0c0,0,0,0,0,0l2.9,4.9c0.2,0.3,0.2,0.6,0.1,0.9c-0.1,0.3-0.3,0.6-0.5,0.7l-0.1,0.1
			c-0.3,0.2-0.6,0.2-0.9,0.1C351.7,527.9,351.4,527.7,351.3,527.5z"/>
		<path class="st3" d="M354.9,524.8l-4.3-3.8c0,0-0.1-0.1-0.1-0.1c0,0,0-0.1,0-0.1l1.4-1.6c0,0,0.1-0.1,0.1-0.1c0,0,0.1,0,0.1,0
			l4.3,3.8c0.2,0.2,0.4,0.5,0.4,0.8c0,0.3-0.1,0.6-0.3,0.8l-0.1,0.1c-0.2,0.2-0.5,0.4-0.8,0.4S355.2,525,354.9,524.8z"/>
		<path class="st10" d="M257.1,463.1c0,0,0.6,62.1,35.6,63.3c34.9,1.2,36.4-62.9,36.4-63.3c0,0-4.1-9.3-36-8.9
			C261.2,454.5,257.1,463.1,257.1,463.1z"/>
		<path class="st3" d="M276.7,452.1h29.5c1.9,0,3.5-1.6,3.5-3.5v-0.5c0-1.9-1.6-3.5-3.5-3.5h-29.5c-1.9,0-3.5,1.6-3.5,3.5v0.5
			C273.2,450.6,274.8,452.1,276.7,452.1z"/>
		<path class="st3" d="M290.2,396.9h2.5V384h-2.5V396.9z"/>
		<path class="st10" d="M330.4,435.2c4-1,6.5-5,5.6-9c-1-4-5-6.5-9-5.5c-4,1-6.5,5-5.6,9C322.4,433.7,326.4,436.1,330.4,435.2z"/>
		<path class="st10" d="M254.8,434.7c4-0.9,6.6-4.9,5.6-8.9c-0.9-4-4.9-6.6-9-5.6c-4,0.9-6.6,4.9-5.6,8.9
			C246.7,433.1,250.8,435.6,254.8,434.7z"/>
		<path class="st10" d="M290,394.1c0,0-30.4-0.4-35.2,26c-4.8,26.3,20.9,26.8,28.3,27.3c3.4,0.2,10.5,0.3,16.9,0.1
			c14-0.2,23.9-3,27.3-16c0.4-1.5,0.7-3.1,0.8-4.7C328.9,412.7,319.3,393.4,290,394.1z"/>
		<path class="st3" d="M312.1,434.2l-44.2,0.7c-1.1,0-2.2-0.2-3.2-0.6c-1-0.4-2-1-2.8-1.8c-0.8-0.8-1.4-1.7-1.9-2.7
			c-0.4-1-0.7-2.1-0.7-3.2c0-1.1,0.2-2.2,0.6-3.2c0.4-1,1-2,1.8-2.8c0.8-0.8,1.7-1.4,2.7-1.9c1-0.4,2.1-0.7,3.2-0.7l44.2-0.7
			c1.1,0,2.2,0.2,3.2,0.6c1,0.4,2,1,2.8,1.8c0.8,0.8,1.4,1.7,1.9,2.7c0.4,1,0.7,2.1,0.7,3.2c0,1.1-0.2,2.2-0.6,3.2
			c-0.4,1-1,2-1.8,2.8c-0.8,0.8-1.7,1.4-2.7,1.9C314.3,433.9,313.2,434.2,312.1,434.2z"/>
		<path class="st5" d="M277,425.7c-0.1,0.5-0.4,1-0.7,1.4c-0.4,0.4-0.9,0.6-1.4,0.7c-0.5,0.1-1.1,0.1-1.6-0.1
			c-0.5-0.2-0.9-0.5-1.2-1c-0.3-0.4-0.5-1-0.5-1.5c0-0.5,0.2-1.1,0.5-1.5c0.3-0.4,0.7-0.8,1.2-1c0.5-0.2,1-0.3,1.6-0.2
			c0.3,0.1,0.7,0.2,1,0.4c0.3,0.2,0.5,0.4,0.7,0.7c0.2,0.3,0.3,0.6,0.4,1C277.1,425,277.1,425.4,277,425.7z"/>
		<path class="st5" d="M307.9,425.2c-0.1,0.5-0.4,1-0.7,1.4c-0.4,0.4-0.9,0.6-1.4,0.7c-0.5,0.1-1.1,0.1-1.6-0.1
			c-0.5-0.2-0.9-0.5-1.2-1c-0.3-0.4-0.5-1-0.5-1.5c0-0.5,0.2-1.1,0.5-1.5c0.3-0.4,0.7-0.8,1.2-1c0.5-0.2,1-0.3,1.6-0.2
			c0.7,0.1,1.3,0.5,1.7,1.1C307.9,423.8,308.1,424.5,307.9,425.2z"/>
		<path class="st3" d="M303.5,487.7c-0.2,2.4-1,4.6-2.5,6.5c-1.5,1.9-3.4,3.3-5.7,4c-2.3,0.7-4.7,0.8-7,0.2
			c-2.3-0.6-4.4-1.9-5.9-3.7c-1.6-1.8-2.5-4-2.8-6.4c-0.3-2.4,0.1-4.8,1.2-6.9c1.1-2.1,2.7-3.9,4.8-5.1c2.1-1.2,4.4-1.7,6.8-1.5
			c3.2,0.2,6.1,1.7,8.2,4.1C302.7,481.4,303.7,484.6,303.5,487.7z"/>
		<path class="st5" d="M300.2,487.5c-0.1,1.7-0.8,3.4-1.8,4.7c-1.1,1.4-2.5,2.4-4.2,2.9c-1.6,0.5-3.4,0.6-5.1,0.1s-3.2-1.4-4.3-2.7
			c-1.1-1.3-1.9-2.9-2.1-4.6s0.1-3.5,0.9-5c0.8-1.5,2-2.8,3.5-3.7c1.5-0.9,3.2-1.2,5-1.1c1.1,0.1,2.3,0.4,3.3,0.9
			c1,0.5,1.9,1.2,2.7,2.1c0.8,0.9,1.3,1.9,1.7,3C300.2,485.2,300.3,486.4,300.2,487.5z"/>
		<path class="st10" d="M294.4,386.7c1.6-1.6,1.6-4.3,0-5.9s-4.3-1.6-5.9,0s-1.6,4.3,0,5.9S292.8,388.4,294.4,386.7z"/>
		<path class="st5" d="M284.8,424.5c0.2,0,0.1,0.9,0.7,2.2c0.3,0.7,0.8,1.4,1.4,1.9c0.7,0.6,1.6,1,2.5,1.1c0.9,0.1,1.9-0.2,2.7-0.6
			c0.7-0.4,1.3-0.9,1.7-1.6c0.8-1.1,0.9-2.1,1.1-2.1c0.1,0,0.2,0.2,0.2,0.7c0,0.6-0.2,1.3-0.5,1.8c-0.4,0.9-1.1,1.6-1.9,2.1
			c-1,0.7-2.2,1-3.4,0.9c-1.2-0.1-2.3-0.6-3.2-1.5c-0.7-0.7-1.2-1.5-1.5-2.4c-0.2-0.6-0.2-1.3-0.2-1.9
			C284.6,424.7,284.7,424.5,284.8,424.5z"/>
		<path class="st3" d="M325.3,436.8c0,0,0.5-0.9,1-2.3c0.7-2,1.1-4,1.2-6c0.2-2,0.2-4.1,0.1-6.2c0-0.8-0.1-1.4-0.1-1.9
			c0-0.2,0-0.5,0-0.7c0.1,0.2,0.1,0.5,0.1,0.7c0.1,0.4,0.1,1.1,0.2,1.9c0.1,2.1,0.1,4.1-0.1,6.2c-0.2,2.1-0.6,4.1-1.3,6.1
			c-0.2,0.6-0.5,1.2-0.8,1.7C325.6,436.4,325.4,436.6,325.3,436.8z"/>
		<path class="st3" d="M254.8,419.2c0,0.2-0.1,0.5-0.1,0.7c-0.1,0.2-0.1,0.5-0.2,0.8c-0.1,0.3-0.2,0.7-0.2,1
			c-0.2,0.9-0.3,1.8-0.3,2.8c-0.1,1.1,0,2.3,0,3.4c0.1,1.1,0.3,2.3,0.6,3.4c0.2,0.9,0.5,1.8,0.8,2.7c0.1,0.4,0.3,0.7,0.4,1
			c0.1,0.3,0.2,0.5,0.3,0.7c0.1,0.2,0.2,0.4,0.3,0.6c-0.1-0.2-0.3-0.4-0.4-0.6c-0.1-0.2-0.3-0.5-0.4-0.7c-0.1-0.3-0.3-0.6-0.4-1
			c-0.4-0.9-0.6-1.8-0.9-2.7c-0.3-1.1-0.5-2.2-0.6-3.4c-0.1-1.1-0.1-2.3,0-3.4c0.1-0.9,0.2-1.9,0.4-2.8c0.1-0.4,0.2-0.7,0.3-1
			c0.1-0.3,0.2-0.6,0.2-0.8C254.6,419.6,254.7,419.4,254.8,419.2z"/>
		<path class="st3" d="M257,463l0.2,0.1l0.5,0.2l2,0.7l1.5,0.5c0.5,0.2,1.1,0.4,1.8,0.5c1.3,0.4,2.7,0.9,4.3,1.2l2.5,0.6
			c0.9,0.2,1.8,0.4,2.8,0.6c1.9,0.4,4,0.7,6.2,1.1c4.7,0.6,9.5,1,14.3,1c4.8,0,9.5-0.4,14.3-1c2.2-0.4,4.2-0.6,6.2-1.1
			c0.9-0.2,1.9-0.4,2.8-0.6l2.5-0.6c1.6-0.4,3-0.9,4.3-1.2c0.6-0.2,1.2-0.4,1.8-0.5l1.5-0.5l2-0.7l0.5-0.2c0.1,0,0.1,0,0.2-0.1
			l-0.2,0.1l-0.5,0.2l-2,0.8l-1.5,0.6c-0.5,0.2-1.1,0.4-1.8,0.6c-1.3,0.4-2.7,0.9-4.3,1.3l-2.5,0.7c-0.9,0.2-1.8,0.4-2.8,0.6
			c-1.9,0.4-4,0.7-6.2,1.1c-4.7,0.7-9.5,1-14.3,1c-4.8,0-9.6-0.4-14.3-1c-2.2-0.4-4.3-0.7-6.2-1.1c-0.9-0.2-1.9-0.4-2.8-0.6
			l-2.5-0.7c-1.6-0.4-3-0.9-4.3-1.3c-0.6-0.2-1.2-0.4-1.8-0.6l-1.5-0.5l-2-0.8l-0.5-0.2C257.1,463.1,257,463,257,463z"/>
		<g class="st16">
			<path class="st17" d="M257.1,463.1c0,0,4.1-8.5,36-8.9c31.8-0.4,36,8.9,36,8.9S296.9,478.9,257.1,463.1z"/>
		</g>
		<path class="st5" d="M286.1,396.1c0,0-0.1,0-0.1,0l-0.3,0c-0.3,0-0.7,0-1.2,0.1c-1.5,0.1-3,0.4-4.5,0.7c-7.6,1.7-14.4,6.2-19,12.6
			c-2.2,3.1-3.9,6.5-5,10.1c-0.2,0.5-0.3,0.9-0.3,1.2l-0.1,0.3c0,0,0,0.1,0,0.1c0,0,0-0.1,0-0.1c0-0.1,0-0.2,0.1-0.3
			c0.1-0.3,0.1-0.7,0.3-1.2c0.4-1.5,0.9-2.9,1.5-4.3c2-4.6,5.1-8.7,9-12c3.9-3.2,8.5-5.5,13.5-6.6c1.5-0.3,3-0.6,4.5-0.7
			c0.5,0,0.9,0,1.2-0.1h0.3C286.1,396.1,286.1,396.1,286.1,396.1z"/>
		<path class="st5" d="M256.4,432.5c-0.2-0.3-0.3-0.6-0.4-0.9c-0.6-1.6-0.8-3.3-0.8-4.9c0-0.3,0-0.7,0.1-1c0.1,0,0,1.6,0.3,3.5
			C255.8,431,256.4,432.5,256.4,432.5z"/>
		<path class="st5" d="M248.4,430.1c0,0-0.1-0.1-0.3-0.3c-0.2-0.3-0.4-0.5-0.5-0.8c-0.5-1-0.7-2.1-0.6-3.2c0.1-1.1,0.6-2.1,1.4-2.9
			c0.2-0.2,0.5-0.5,0.7-0.7c0.1-0.1,0.2-0.1,0.3-0.2c0,0-0.4,0.3-0.9,0.9c-0.7,0.8-1.1,1.8-1.3,2.8c-0.1,1,0,2.1,0.5,3.1
			C248.1,429.7,248.4,430.1,248.4,430.1z"/>
		<path class="st5" d="M291.7,380.8c-0.4,0-0.7,0-1.1,0c-0.4,0-0.9,0.2-1.3,0.4c-0.4,0.2-0.7,0.5-0.9,0.9c-0.2,0.4-0.4,0.8-0.4,1.2
			c-0.1,0.4,0,0.9,0.1,1.3c0.1,0.3,0.3,0.7,0.5,1c0,0-0.1-0.1-0.2-0.2c-0.2-0.2-0.3-0.5-0.4-0.7c-0.2-0.4-0.3-0.9-0.2-1.4
			c0-0.5,0.2-0.9,0.5-1.3c0.3-0.4,0.6-0.7,1-1c0.4-0.2,0.9-0.4,1.4-0.4c0.3,0,0.6,0,0.8,0.1C291.7,380.8,291.7,380.8,291.7,380.8z"
			/>
		<path class="st5" d="M333.1,424.3c-0.1,0.1-0.8-0.6-1.9-1.2c-1.1-0.5-2.1-0.7-2.1-0.8c0.8,0,1.5,0.2,2.2,0.5
			C332,423.2,332.6,423.7,333.1,424.3z"/>
		<path class="st5" d="M268,507.3C268,507.3,268,507.2,268,507.3l-0.2-0.4c-0.1-0.3-0.3-0.6-0.6-1.1c-0.1-0.2-0.3-0.5-0.4-0.8
			l-0.4-0.9c-0.3-0.7-0.7-1.5-1-2.4c-0.2-0.4-0.4-0.9-0.6-1.4c-0.2-0.5-0.4-1-0.6-1.5c-0.4-1-0.8-2.2-1.2-3.4
			c-0.7-2.4-1.5-5.1-2.1-7.9c-0.6-2.8-1.1-5.6-1.5-8.1c-0.4-2.5-0.6-4.7-0.8-6.7c-0.1-0.9-0.1-1.8-0.2-2.6c0-0.8-0.1-1.4-0.1-1.9
			c0-0.5,0-0.9,0-1.2v-0.3c0,0,0-0.1,0-0.1c0,0,0,0.1,0,0.1l0,0.3c0,0.3,0.1,0.7,0.1,1.2c0,0.5,0.1,1.2,0.1,1.9
			c0.1,0.8,0.1,1.6,0.2,2.6c0.2,1.9,0.5,4.1,0.8,6.6c0.4,2.5,0.9,5.2,1.5,8.1c0.6,2.8,1.4,5.5,2.1,7.9c0.4,1.2,0.7,2.3,1.1,3.4
			c0.2,0.5,0.4,1,0.6,1.5l0.6,1.4c0.3,0.9,0.7,1.7,1,2.4l0.4,0.9c0.1,0.3,0.3,0.6,0.4,0.8l0.5,1.1l0.1,0.3
			C268,507.2,268,507.2,268,507.3z"/>
		<path class="st5" d="M284.9,522.2c-0.2,0-0.4,0-0.6-0.1c-0.5-0.1-1-0.2-1.5-0.4c-0.7-0.2-1.4-0.5-2.1-0.8
			c-0.8-0.4-1.6-0.9-2.4-1.4c-0.8-0.5-1.5-1.1-2.1-1.8c-0.5-0.5-1-1.1-1.5-1.7c-0.3-0.4-0.6-0.8-0.8-1.3c-0.1-0.2-0.2-0.3-0.3-0.5
			c0,0,0.4,0.7,1.2,1.7c0.5,0.6,1,1.1,1.5,1.7c1.3,1.3,2.8,2.3,4.5,3.1c0.7,0.3,1.4,0.6,2.1,0.8C284.1,522,284.9,522.2,284.9,522.2z
			"/>
		<path class="st5" d="M292.1,500.3c-0.1,0-0.2,0-0.3,0c-0.3,0-0.6,0-0.9,0c-1.2,0-2.4-0.2-3.5-0.6c-0.8-0.2-1.5-0.5-2.3-0.9
			c-0.8-0.4-1.6-0.9-2.4-1.5c-1.7-1.3-3.1-3-3.9-5c-0.9-2-1.2-4.1-1-6.3c0.1-0.9,0.2-1.9,0.5-2.8c0.2-0.8,0.5-1.5,0.9-2.3
			c0.5-1.1,1.2-2,2-2.9c0.2-0.2,0.4-0.5,0.7-0.7c0.1-0.1,0.2-0.2,0.3-0.2c0,0-0.3,0.3-0.9,0.9c-0.8,0.9-1.4,1.9-1.9,2.9
			c-0.7,1.6-1.2,3.2-1.3,5c-0.2,2.1,0.2,4.2,1,6.2c0.8,1.9,2.2,3.6,3.8,4.9c0.7,0.6,1.5,1.1,2.3,1.5c0.7,0.4,1.5,0.7,2.2,0.9
			c1.1,0.4,2.3,0.6,3.4,0.6C291.7,500.3,292.1,500.3,292.1,500.3z"/>
		<path class="st5" d="M304.8,415.9c0,0.1-5.8,0.1-13,0.1c-7.2,0-13-0.1-13-0.1c0-0.1,5.8-0.1,13-0.1
			C298.9,415.8,304.8,415.8,304.8,415.9z"/>
		<path class="st5" d="M282.6,445.5c-0.1,0-0.1,0-0.2,0l-0.6,0.1c-0.3,0-0.6,0-1,0.1c-0.4,0-0.8,0-1.3,0c-1,0-2.2-0.1-3.5-0.2
			c-1.4-0.2-2.8-0.4-4.2-0.7c-1.4-0.3-2.7-0.7-4.1-1.2c-1.1-0.4-2.2-0.9-3.2-1.4c-0.5-0.2-0.8-0.4-1.2-0.6c-0.3-0.2-0.6-0.4-0.9-0.5
			l-0.5-0.3c-0.1,0-0.1-0.1-0.2-0.1c0,0,0.1,0,0.2,0.1l0.6,0.3c0.2,0.1,0.5,0.3,0.9,0.5c0.4,0.2,0.7,0.4,1.2,0.6
			c0.9,0.4,2,0.9,3.2,1.3c2.7,1,5.4,1.6,8.2,1.9c1.3,0.2,2.5,0.2,3.4,0.3c0.5,0,0.9,0,1.3,0c0.4,0,0.7,0,1,0h0.6
			C282.4,445.5,282.5,445.5,282.6,445.5z"/>
		<path class="st5" d="M320.4,466.9c0,0-0.1,0-0.1,0.1L320,467l-1.3,0.5c-0.6,0.2-1.3,0.4-2.1,0.7c-0.8,0.2-1.8,0.6-2.8,0.8
			l-1.7,0.4c-0.6,0.1-1.2,0.3-1.8,0.4c-1.2,0.3-2.6,0.5-4,0.8c-6.2,1.1-12.4,1.5-18.7,1.1c-1.4-0.1-2.8-0.2-4.1-0.3
			c-0.6-0.1-1.3-0.1-1.8-0.2l-1.7-0.2c-1.1-0.1-2-0.3-2.9-0.5c-0.8-0.2-1.6-0.3-2.2-0.4l-1.4-0.3l-0.4-0.1c0,0-0.1,0-0.1,0
			c0,0,0.1,0,0.1,0l0.4,0.1l1.4,0.3c0.6,0.1,1.3,0.3,2.2,0.4c0.9,0.1,1.8,0.3,2.9,0.4l1.7,0.2c0.6,0.1,1.2,0.1,1.8,0.2
			c1.3,0.1,2.6,0.2,4.1,0.3c2.9,0.1,6,0.1,9.3-0.1c3.3-0.2,6.4-0.6,9.3-1.1c1.4-0.3,2.8-0.5,4-0.8c0.6-0.1,1.2-0.3,1.8-0.4l1.7-0.4
			c1.1-0.3,2-0.5,2.8-0.8c0.8-0.2,1.5-0.5,2.1-0.6l1.3-0.4l0.4-0.1L320.4,466.9z"/>
	</g>
	<g>
		<path class="st18" d="M80.2,94.5c0-6.1,4.9-11,11-11h407.2c6.1,0,11,4.9,11,11v202.9c0,6.1-4.9,11-11,11H91.2c-6.1,0-11-4.9-11-11
			V94.5z"/>
		<path class="st19" d="M104.1,126.3v-16.1h2.4v7h8v-7h2.4v16.1h-2.4v-7h-8v7H104.1z M120.3,126.3v-12h2.3v12H120.3z M121.4,112.4
			c-0.4,0-0.8-0.1-1.1-0.4c-0.3-0.3-0.4-0.6-0.4-1c0-0.4,0.1-0.7,0.4-1c0.3-0.3,0.6-0.4,1.1-0.4c0.4,0,0.8,0.1,1,0.4
			c0.3,0.3,0.4,0.6,0.4,1c0,0.4-0.1,0.7-0.4,1C122.2,112.3,121.8,112.4,121.4,112.4z M134.6,124.1l-0.1,0.9c-0.1,0.6-0.2,1.3-0.4,2
			c-0.2,0.7-0.4,1.3-0.6,1.9c-0.2,0.6-0.4,1.1-0.5,1.4h-1.7c0.1-0.3,0.2-0.8,0.3-1.3c0.1-0.5,0.2-1.2,0.4-1.8
			c0.1-0.7,0.2-1.4,0.3-2.1l0.1-0.9H134.6z"/>
		<path class="st19" d="M104,173.2v-14.1h1.7v12.5h6.5v1.5H104z M118.9,173.4c-1,0-1.8-0.2-2.5-0.7c-0.7-0.5-1.3-1.1-1.7-1.9
			c-0.4-0.8-0.6-1.8-0.6-2.9c0-1.1,0.2-2.1,0.6-2.9c0.4-0.8,1-1.5,1.7-1.9c0.7-0.5,1.6-0.7,2.5-0.7c1,0,1.8,0.2,2.5,0.7
			c0.7,0.5,1.3,1.1,1.7,1.9c0.4,0.8,0.6,1.8,0.6,2.9c0,1.1-0.2,2-0.6,2.9c-0.4,0.8-1,1.4-1.7,1.9
			C120.7,173.2,119.9,173.4,118.9,173.4z M118.9,172c0.7,0,1.3-0.2,1.8-0.6c0.5-0.4,0.8-0.9,1-1.5c0.2-0.6,0.3-1.3,0.3-2
			s-0.1-1.4-0.3-2c-0.2-0.6-0.6-1.1-1-1.5c-0.5-0.4-1.1-0.6-1.8-0.6c-0.7,0-1.3,0.2-1.8,0.6c-0.5,0.4-0.8,0.9-1,1.5
			c-0.2,0.6-0.3,1.3-0.3,2s0.1,1.4,0.3,2s0.6,1.1,1,1.5C117.6,171.8,118.2,172,118.9,172z M130.5,173.4c-1,0-1.8-0.2-2.5-0.7
			c-0.7-0.5-1.3-1.1-1.7-1.9c-0.4-0.8-0.6-1.8-0.6-2.9c0-1.1,0.2-2.1,0.6-2.9c0.4-0.8,1-1.5,1.7-1.9c0.7-0.5,1.6-0.7,2.5-0.7
			c1,0,1.8,0.2,2.5,0.7c0.7,0.5,1.3,1.1,1.7,1.9c0.4,0.8,0.6,1.8,0.6,2.9c0,1.1-0.2,2-0.6,2.9c-0.4,0.8-1,1.4-1.7,1.9
			C132.2,173.2,131.4,173.4,130.5,173.4z M130.5,172c0.7,0,1.3-0.2,1.8-0.6c0.5-0.4,0.8-0.9,1-1.5c0.2-0.6,0.3-1.3,0.3-2
			s-0.1-1.4-0.3-2c-0.2-0.6-0.6-1.1-1-1.5c-0.5-0.4-1.1-0.6-1.8-0.6c-0.7,0-1.3,0.2-1.8,0.6c-0.5,0.4-0.8,0.9-1,1.5
			c-0.2,0.6-0.3,1.3-0.3,2s0.1,1.4,0.3,2c0.2,0.6,0.6,1.1,1,1.5C129.1,171.8,129.7,172,130.5,172z M139.2,169.4l0-2h0.3l4.6-4.7h2
			l-4.9,5h-0.1L139.2,169.4z M137.7,173.2v-14.1h1.6v14.1H137.7z M144.4,173.2l-4.1-5.2l1.2-1.1l5,6.3H144.4z M155.7,165l-1.5,0.4
			c-0.1-0.2-0.2-0.5-0.4-0.7c-0.2-0.2-0.4-0.4-0.7-0.6c-0.3-0.2-0.7-0.2-1.2-0.2c-0.6,0-1.2,0.1-1.6,0.4c-0.4,0.3-0.6,0.7-0.6,1.1
			c0,0.4,0.1,0.7,0.4,1c0.3,0.2,0.8,0.4,1.4,0.6l1.6,0.4c0.9,0.2,1.6,0.6,2.1,1c0.5,0.5,0.7,1.1,0.7,1.8c0,0.6-0.2,1.1-0.5,1.6
			c-0.3,0.5-0.8,0.9-1.4,1.1c-0.6,0.3-1.3,0.4-2.2,0.4c-1.1,0-2-0.2-2.7-0.7c-0.7-0.5-1.2-1.1-1.3-2l1.5-0.4c0.1,0.6,0.4,1,0.8,1.3
			c0.4,0.3,0.9,0.4,1.6,0.4c0.8,0,1.4-0.2,1.8-0.5c0.4-0.3,0.7-0.7,0.7-1.2c0-0.4-0.1-0.7-0.4-0.9c-0.3-0.3-0.6-0.4-1.2-0.6
			l-1.8-0.4c-1-0.2-1.7-0.6-2.1-1.1c-0.4-0.5-0.7-1.1-0.7-1.8c0-0.6,0.2-1.1,0.5-1.6c0.3-0.5,0.8-0.8,1.4-1.1c0.6-0.3,1.2-0.4,2-0.4
			c1,0,1.9,0.2,2.5,0.7C155,163.7,155.4,164.3,155.7,165z M165.4,159.2v14.1h-1.6v-14.1H165.4z M168.3,173.2v-10.5h1.6v10.5H168.3z
			 M169.1,160.9c-0.3,0-0.6-0.1-0.8-0.3c-0.2-0.2-0.3-0.5-0.3-0.8c0-0.3,0.1-0.6,0.3-0.8c0.2-0.2,0.5-0.3,0.8-0.3
			c0.3,0,0.6,0.1,0.8,0.3c0.2,0.2,0.3,0.5,0.3,0.8c0,0.3-0.1,0.6-0.3,0.8C169.7,160.8,169.5,160.9,169.1,160.9z M174.4,169.4l0-2
			h0.3l4.6-4.7h2l-4.9,5h-0.1L174.4,169.4z M172.9,173.2v-14.1h1.6v14.1H172.9z M179.6,173.2l-4.1-5.2l1.2-1.1l5,6.3H179.6z
			 M187.4,173.4c-1,0-1.9-0.2-2.6-0.7c-0.7-0.5-1.3-1.1-1.7-1.9c-0.4-0.8-0.6-1.8-0.6-2.8s0.2-2,0.6-2.9c0.4-0.8,1-1.5,1.7-1.9
			c0.7-0.5,1.5-0.7,2.5-0.7c0.5,0,1.1,0.1,1.6,0.3c0.5,0.2,1,0.5,1.5,0.9c0.4,0.4,0.8,0.9,1,1.6c0.3,0.7,0.4,1.5,0.4,2.5v0.7h-8.1
			v-1.4h6.5c0-0.6-0.1-1.1-0.4-1.6c-0.2-0.5-0.6-0.8-1-1.1c-0.4-0.3-0.9-0.4-1.5-0.4c-0.6,0-1.2,0.2-1.7,0.5
			c-0.5,0.3-0.8,0.7-1.1,1.2c-0.3,0.5-0.4,1.1-0.4,1.6v0.9c0,0.8,0.1,1.5,0.4,2c0.3,0.5,0.7,1,1.2,1.3c0.5,0.3,1.1,0.4,1.7,0.4
			c0.4,0,0.8-0.1,1.2-0.2c0.3-0.1,0.6-0.3,0.9-0.5c0.3-0.2,0.4-0.6,0.6-0.9l1.6,0.4c-0.2,0.5-0.4,1-0.8,1.4
			c-0.4,0.4-0.9,0.7-1.4,0.9C188.8,173.3,188.1,173.4,187.4,173.4z M200.7,177.2c-0.3,0-0.5,0-0.7-0.1c-0.2,0-0.4-0.1-0.4-0.1
			l0.4-1.4c0.4,0.1,0.7,0.1,1,0.1c0.3,0,0.6-0.2,0.8-0.4c0.2-0.2,0.5-0.6,0.7-1.2l0.3-0.8l-3.9-10.6h1.8l2.9,8.4h0.1l2.9-8.4h1.8
			l-4.5,12.1c-0.2,0.5-0.5,1-0.7,1.4c-0.3,0.4-0.6,0.6-1,0.8C201.6,177.1,201.2,177.2,200.7,177.2z M214.3,173.4
			c-1,0-1.8-0.2-2.5-0.7c-0.7-0.5-1.3-1.1-1.7-1.9c-0.4-0.8-0.6-1.8-0.6-2.9c0-1.1,0.2-2.1,0.6-2.9c0.4-0.8,1-1.5,1.7-1.9
			c0.7-0.5,1.6-0.7,2.5-0.7c1,0,1.8,0.2,2.5,0.7c0.7,0.5,1.3,1.1,1.7,1.9c0.4,0.8,0.6,1.8,0.6,2.9c0,1.1-0.2,2-0.6,2.9
			c-0.4,0.8-1,1.4-1.7,1.9C216.1,173.2,215.3,173.4,214.3,173.4z M214.3,172c0.7,0,1.3-0.2,1.8-0.6c0.5-0.4,0.8-0.9,1-1.5
			c0.2-0.6,0.3-1.3,0.3-2s-0.1-1.4-0.3-2c-0.2-0.6-0.6-1.1-1-1.5c-0.5-0.4-1.1-0.6-1.8-0.6s-1.3,0.2-1.8,0.6c-0.5,0.4-0.8,0.9-1,1.5
			c-0.2,0.6-0.3,1.3-0.3,2s0.1,1.4,0.3,2c0.2,0.6,0.6,1.1,1,1.5C213,171.8,213.6,172,214.3,172z M228.2,168.9v-6.2h1.6v10.5h-1.6
			v-1.8h-0.1c-0.2,0.5-0.6,1-1.2,1.4c-0.5,0.4-1.2,0.6-2,0.6c-0.7,0-1.2-0.1-1.8-0.4c-0.5-0.3-0.9-0.7-1.2-1.3
			c-0.3-0.6-0.4-1.3-0.4-2.2v-6.7h1.6v6.6c0,0.8,0.2,1.4,0.6,1.8c0.4,0.5,1,0.7,1.7,0.7c0.4,0,0.8-0.1,1.2-0.3
			c0.4-0.2,0.8-0.5,1.1-0.9C228.1,170.1,228.2,169.6,228.2,168.9z M239.9,166.9v6.3h-1.6v-14.1h1.6v5.2h0.1c0.2-0.5,0.6-1,1.1-1.3
			c0.5-0.3,1.2-0.5,2-0.5c0.7,0,1.3,0.1,1.9,0.4c0.5,0.3,1,0.7,1.3,1.3c0.3,0.6,0.5,1.3,0.5,2.2v6.7h-1.6v-6.6
			c0-0.8-0.2-1.5-0.7-1.9c-0.4-0.5-1-0.7-1.8-0.7c-0.5,0-1,0.1-1.4,0.3c-0.4,0.2-0.7,0.6-1,1C240,165.7,239.9,166.3,239.9,166.9z
			 M252.8,173.5c-0.7,0-1.3-0.1-1.8-0.4c-0.5-0.3-1-0.6-1.3-1.1c-0.3-0.5-0.5-1.1-0.5-1.8c0-0.6,0.1-1.1,0.4-1.5
			c0.2-0.4,0.6-0.7,1-0.9c0.4-0.2,0.8-0.4,1.3-0.5c0.5-0.1,1-0.2,1.5-0.3c0.6-0.1,1.2-0.1,1.6-0.2c0.4,0,0.7-0.1,0.9-0.2
			c0.2-0.1,0.3-0.3,0.3-0.5v-0.1c0-0.7-0.2-1.2-0.6-1.6c-0.4-0.4-0.9-0.6-1.7-0.6c-0.8,0-1.4,0.2-1.8,0.5c-0.4,0.3-0.7,0.7-0.9,1.1
			l-1.5-0.5c0.3-0.6,0.6-1.1,1.1-1.5c0.5-0.4,1-0.6,1.5-0.8c0.5-0.1,1.1-0.2,1.6-0.2c0.3,0,0.7,0,1.2,0.1c0.4,0.1,0.9,0.2,1.3,0.5
			c0.4,0.2,0.8,0.6,1,1.1c0.3,0.5,0.4,1.2,0.4,2v6.9H256v-1.4h-0.1c-0.1,0.2-0.3,0.5-0.5,0.7c-0.3,0.3-0.6,0.5-1,0.7
			S253.4,173.5,252.8,173.5z M253,172c0.6,0,1.2-0.1,1.6-0.4c0.4-0.3,0.8-0.6,1-1c0.2-0.4,0.3-0.8,0.3-1.3v-1.5
			c-0.1,0.1-0.2,0.2-0.5,0.2c-0.2,0.1-0.5,0.1-0.8,0.2c-0.3,0-0.6,0.1-0.9,0.1c-0.3,0-0.5,0.1-0.7,0.1c-0.4,0.1-0.8,0.1-1.2,0.3
			c-0.4,0.1-0.7,0.3-0.9,0.5c-0.2,0.2-0.3,0.6-0.3,1c0,0.6,0.2,1,0.6,1.3C251.8,171.9,252.4,172,253,172z M268.8,162.7l-3.9,10.5
			h-1.6l-3.9-10.5h1.8l2.9,8.4h0.1l2.9-8.4H268.8z M275,173.4c-1,0-1.9-0.2-2.6-0.7c-0.7-0.5-1.3-1.1-1.7-1.9
			c-0.4-0.8-0.6-1.8-0.6-2.8s0.2-2,0.6-2.9c0.4-0.8,1-1.5,1.7-1.9c0.7-0.5,1.5-0.7,2.5-0.7c0.5,0,1.1,0.1,1.6,0.3
			c0.5,0.2,1,0.5,1.5,0.9c0.4,0.4,0.8,0.9,1.1,1.6c0.3,0.7,0.4,1.5,0.4,2.5v0.7h-8.1v-1.4h6.5c0-0.6-0.1-1.1-0.4-1.6
			c-0.2-0.5-0.6-0.8-1-1.1c-0.4-0.3-0.9-0.4-1.5-0.4c-0.6,0-1.2,0.2-1.7,0.5c-0.5,0.3-0.8,0.7-1.1,1.2c-0.3,0.5-0.4,1.1-0.4,1.6v0.9
			c0,0.8,0.1,1.5,0.4,2c0.3,0.5,0.7,1,1.2,1.3c0.5,0.3,1.1,0.4,1.7,0.4c0.4,0,0.8-0.1,1.2-0.2c0.3-0.1,0.6-0.3,0.9-0.5
			c0.3-0.2,0.4-0.6,0.6-0.9l1.6,0.4c-0.2,0.5-0.4,1-0.8,1.4c-0.4,0.4-0.9,0.7-1.4,0.9C276.3,173.3,275.7,173.4,275,173.4z
			 M288.8,166.9v6.3h-1.6v-10.5h1.6v1.6h0.1c0.2-0.5,0.6-1,1.1-1.3c0.5-0.3,1.2-0.5,1.9-0.5c0.7,0,1.3,0.1,1.9,0.4
			c0.5,0.3,1,0.7,1.2,1.3c0.3,0.6,0.4,1.3,0.4,2.2v6.7h-1.6v-6.6c0-0.8-0.2-1.5-0.6-1.9c-0.4-0.5-1-0.7-1.8-0.7
			c-0.5,0-1,0.1-1.4,0.3c-0.4,0.2-0.7,0.6-1,1C289,165.7,288.8,166.3,288.8,166.9z M302.8,173.4c-1,0-1.8-0.2-2.5-0.7
			c-0.7-0.5-1.3-1.1-1.7-1.9c-0.4-0.8-0.6-1.8-0.6-2.9c0-1.1,0.2-2.1,0.6-2.9c0.4-0.8,1-1.5,1.7-1.9c0.7-0.5,1.6-0.7,2.5-0.7
			c1,0,1.8,0.2,2.5,0.7c0.7,0.5,1.3,1.1,1.7,1.9c0.4,0.8,0.6,1.8,0.6,2.9c0,1.1-0.2,2-0.6,2.9c-0.4,0.8-1,1.4-1.7,1.9
			C304.6,173.2,303.8,173.4,302.8,173.4z M302.8,172c0.7,0,1.3-0.2,1.8-0.6c0.5-0.4,0.8-0.9,1-1.5c0.2-0.6,0.3-1.3,0.3-2
			s-0.1-1.4-0.3-2c-0.2-0.6-0.6-1.1-1-1.5c-0.5-0.4-1.1-0.6-1.8-0.6c-0.7,0-1.3,0.2-1.8,0.6c-0.5,0.4-0.8,0.9-1,1.5
			c-0.2,0.6-0.3,1.3-0.3,2s0.1,1.4,0.3,2c0.2,0.6,0.6,1.1,1,1.5C301.5,171.8,302.1,172,302.8,172z M314.6,162.7v1.4h-5.5v-1.4H314.6
			z M310.8,160.2h1.6v10c0,0.5,0.1,0.8,0.2,1c0.1,0.2,0.3,0.4,0.5,0.5c0.2,0.1,0.4,0.1,0.7,0.1c0.2,0,0.3,0,0.4,0
			c0.1,0,0.2,0,0.3-0.1l0.3,1.5c-0.1,0-0.3,0.1-0.5,0.1c-0.2,0-0.4,0.1-0.7,0.1c-0.5,0-0.9-0.1-1.3-0.3c-0.4-0.2-0.8-0.5-1.1-0.9
			c-0.3-0.4-0.4-0.9-0.4-1.5V160.2z M330,165l-1.5,0.4c-0.1-0.2-0.2-0.5-0.4-0.7c-0.2-0.2-0.4-0.4-0.7-0.6c-0.3-0.2-0.7-0.2-1.2-0.2
			c-0.6,0-1.2,0.1-1.6,0.4c-0.4,0.3-0.6,0.7-0.6,1.1c0,0.4,0.1,0.7,0.4,1c0.3,0.2,0.8,0.4,1.4,0.6l1.6,0.4c0.9,0.2,1.6,0.6,2.1,1
			c0.5,0.5,0.7,1.1,0.7,1.8c0,0.6-0.2,1.1-0.5,1.6c-0.3,0.5-0.8,0.9-1.4,1.1c-0.6,0.3-1.3,0.4-2.2,0.4c-1.1,0-2-0.2-2.7-0.7
			c-0.7-0.5-1.2-1.1-1.3-2l1.5-0.4c0.1,0.6,0.4,1,0.8,1.3c0.4,0.3,0.9,0.4,1.6,0.4c0.8,0,1.4-0.2,1.8-0.5c0.4-0.3,0.7-0.7,0.7-1.2
			c0-0.4-0.1-0.7-0.4-0.9c-0.3-0.3-0.7-0.4-1.2-0.6l-1.8-0.4c-1-0.2-1.7-0.6-2.1-1.1c-0.4-0.5-0.7-1.1-0.7-1.8
			c0-0.6,0.2-1.1,0.5-1.6c0.3-0.5,0.8-0.8,1.4-1.1c0.6-0.3,1.2-0.4,2-0.4c1,0,1.9,0.2,2.5,0.7C329.3,163.7,329.7,164.3,330,165z
			 M337.2,162.7v1.4h-5.5v-1.4H337.2z M333.3,160.2h1.6v10c0,0.5,0.1,0.8,0.2,1c0.1,0.2,0.3,0.4,0.5,0.5c0.2,0.1,0.4,0.1,0.7,0.1
			c0.2,0,0.3,0,0.4,0c0.1,0,0.2,0,0.3-0.1l0.3,1.5c-0.1,0-0.3,0.1-0.5,0.1c-0.2,0-0.4,0.1-0.7,0.1c-0.5,0-0.9-0.1-1.3-0.3
			c-0.4-0.2-0.8-0.5-1.1-0.9c-0.3-0.4-0.4-0.9-0.4-1.5V160.2z M342.7,173.5c-0.7,0-1.3-0.1-1.8-0.4c-0.5-0.3-1-0.6-1.3-1.1
			c-0.3-0.5-0.5-1.1-0.5-1.8c0-0.6,0.1-1.1,0.4-1.5c0.2-0.4,0.6-0.7,1-0.9c0.4-0.2,0.8-0.4,1.3-0.5c0.5-0.1,1-0.2,1.5-0.3
			c0.6-0.1,1.2-0.1,1.6-0.2c0.4,0,0.7-0.1,0.9-0.2c0.2-0.1,0.3-0.3,0.3-0.5v-0.1c0-0.7-0.2-1.2-0.6-1.6c-0.4-0.4-0.9-0.6-1.7-0.6
			c-0.8,0-1.4,0.2-1.8,0.5s-0.7,0.7-0.9,1.1l-1.5-0.5c0.3-0.6,0.6-1.1,1.1-1.5c0.5-0.4,1-0.6,1.5-0.8c0.5-0.1,1.1-0.2,1.6-0.2
			c0.3,0,0.7,0,1.2,0.1c0.4,0.1,0.9,0.2,1.3,0.5c0.4,0.2,0.8,0.6,1,1.1c0.3,0.5,0.4,1.2,0.4,2v6.9h-1.6v-1.4h-0.1
			c-0.1,0.2-0.3,0.5-0.5,0.7c-0.3,0.3-0.6,0.5-1,0.7C343.9,173.4,343.3,173.5,342.7,173.5z M343,172c0.6,0,1.2-0.1,1.6-0.4
			c0.4-0.3,0.8-0.6,1-1c0.2-0.4,0.3-0.8,0.3-1.3v-1.5c-0.1,0.1-0.2,0.2-0.5,0.2c-0.2,0.1-0.5,0.1-0.8,0.2c-0.3,0-0.6,0.1-0.9,0.1
			c-0.3,0-0.5,0.1-0.7,0.1c-0.4,0.1-0.8,0.1-1.2,0.3c-0.4,0.1-0.7,0.3-0.9,0.5c-0.2,0.2-0.3,0.6-0.3,1c0,0.6,0.2,1,0.6,1.3
			C341.8,171.9,342.3,172,343,172z M350.5,173.2v-10.5h1.6v1.6h0.1c0.2-0.5,0.5-0.9,1-1.3c0.5-0.3,1.1-0.5,1.7-0.5
			c0.1,0,0.3,0,0.4,0c0.2,0,0.3,0,0.4,0v1.6c-0.1,0-0.2,0-0.4-0.1c-0.2,0-0.4,0-0.6,0c-0.5,0-1,0.1-1.4,0.3
			c-0.4,0.2-0.7,0.5-0.9,0.9c-0.2,0.4-0.3,0.8-0.3,1.3v6.7H350.5z M362.9,162.7v1.4h-5.5v-1.4H362.9z M359.1,160.2h1.6v10
			c0,0.5,0.1,0.8,0.2,1c0.1,0.2,0.3,0.4,0.5,0.5c0.2,0.1,0.4,0.1,0.7,0.1c0.2,0,0.3,0,0.4,0c0.1,0,0.2,0,0.3-0.1l0.3,1.5
			c-0.1,0-0.3,0.1-0.5,0.1c-0.2,0-0.4,0.1-0.7,0.1c-0.5,0-0.9-0.1-1.3-0.3c-0.4-0.2-0.8-0.5-1.1-0.9c-0.3-0.4-0.4-0.9-0.4-1.5V160.2
			z M369.7,173.4c-1,0-1.9-0.2-2.6-0.7c-0.7-0.5-1.3-1.1-1.7-1.9c-0.4-0.8-0.6-1.8-0.6-2.8s0.2-2,0.6-2.9c0.4-0.8,1-1.5,1.7-1.9
			c0.7-0.5,1.5-0.7,2.5-0.7c0.5,0,1.1,0.1,1.6,0.3c0.5,0.2,1,0.5,1.5,0.9c0.4,0.4,0.8,0.9,1.1,1.6c0.3,0.7,0.4,1.5,0.4,2.5v0.7h-8.1
			v-1.4h6.5c0-0.6-0.1-1.1-0.4-1.6c-0.2-0.5-0.6-0.8-1-1.1c-0.4-0.3-0.9-0.4-1.5-0.4c-0.6,0-1.2,0.2-1.7,0.5
			c-0.5,0.3-0.8,0.7-1.1,1.2c-0.3,0.5-0.4,1.1-0.4,1.6v0.9c0,0.8,0.1,1.5,0.4,2c0.3,0.5,0.7,1,1.2,1.3c0.5,0.3,1.1,0.4,1.7,0.4
			c0.4,0,0.8-0.1,1.2-0.2c0.3-0.1,0.6-0.3,0.9-0.5c0.3-0.2,0.4-0.6,0.6-0.9l1.6,0.4c-0.2,0.5-0.4,1-0.8,1.4
			c-0.4,0.4-0.9,0.7-1.4,0.9C371,173.3,370.4,173.4,369.7,173.4z M380.5,173.4c-0.9,0-1.7-0.2-2.3-0.7c-0.7-0.4-1.2-1.1-1.6-1.9
			c-0.4-0.8-0.6-1.8-0.6-2.9c0-1.1,0.2-2.1,0.6-2.9c0.4-0.8,0.9-1.4,1.6-1.9c0.7-0.4,1.5-0.7,2.3-0.7c0.7,0,1.2,0.1,1.6,0.3
			c0.4,0.2,0.7,0.5,0.9,0.8c0.2,0.3,0.4,0.5,0.5,0.7h0.1v-5.2h1.6v14.1h-1.6v-1.6h-0.2c-0.1,0.2-0.3,0.4-0.5,0.7
			c-0.2,0.3-0.5,0.5-0.9,0.8C381.7,173.3,381.2,173.4,380.5,173.4z M380.7,172c0.6,0,1.2-0.2,1.6-0.5c0.4-0.3,0.8-0.8,1-1.4
			c0.2-0.6,0.3-1.3,0.3-2.1c0-0.8-0.1-1.5-0.3-2.1c-0.2-0.6-0.6-1.1-1-1.4c-0.4-0.3-1-0.5-1.7-0.5c-0.7,0-1.3,0.2-1.7,0.5
			c-0.5,0.3-0.8,0.8-1,1.4c-0.2,0.6-0.3,1.3-0.3,2c0,0.8,0.1,1.4,0.3,2c0.2,0.6,0.6,1.1,1,1.5C379.5,171.8,380,172,380.7,172z
			 M395,177.2c-0.3,0-0.5,0-0.7-0.1c-0.2,0-0.4-0.1-0.4-0.1l0.4-1.4c0.4,0.1,0.7,0.1,1,0.1c0.3,0,0.6-0.2,0.8-0.4
			c0.2-0.2,0.5-0.6,0.7-1.2l0.3-0.8l-3.9-10.6h1.8l2.9,8.4h0.1l2.9-8.4h1.8l-4.5,12.1c-0.2,0.5-0.5,1-0.7,1.4
			c-0.3,0.4-0.6,0.6-1,0.8C395.9,177.1,395.5,177.2,395,177.2z M408.6,173.4c-1,0-1.8-0.2-2.5-0.7c-0.7-0.5-1.3-1.1-1.7-1.9
			c-0.4-0.8-0.6-1.8-0.6-2.9c0-1.1,0.2-2.1,0.6-2.9c0.4-0.8,1-1.5,1.7-1.9c0.7-0.5,1.6-0.7,2.5-0.7c1,0,1.8,0.2,2.5,0.7
			c0.7,0.5,1.3,1.1,1.7,1.9c0.4,0.8,0.6,1.8,0.6,2.9c0,1.1-0.2,2-0.6,2.9c-0.4,0.8-1,1.4-1.7,1.9
			C410.4,173.2,409.6,173.4,408.6,173.4z M408.6,172c0.7,0,1.3-0.2,1.8-0.6c0.5-0.4,0.8-0.9,1-1.5s0.3-1.3,0.3-2s-0.1-1.4-0.3-2
			c-0.2-0.6-0.6-1.1-1-1.5c-0.5-0.4-1.1-0.6-1.8-0.6c-0.7,0-1.3,0.2-1.8,0.6c-0.5,0.4-0.8,0.9-1,1.5c-0.2,0.6-0.3,1.3-0.3,2
			s0.1,1.4,0.3,2c0.2,0.6,0.6,1.1,1,1.5S407.9,172,408.6,172z M422.5,168.9v-6.2h1.6v10.5h-1.6v-1.8h-0.1c-0.2,0.5-0.6,1-1.2,1.4
			c-0.5,0.4-1.2,0.6-2,0.6c-0.7,0-1.2-0.1-1.8-0.4c-0.5-0.3-0.9-0.7-1.2-1.3c-0.3-0.6-0.4-1.3-0.4-2.2v-6.7h1.6v6.6
			c0,0.8,0.2,1.4,0.6,1.8c0.4,0.5,1,0.7,1.7,0.7c0.4,0,0.8-0.1,1.2-0.3c0.4-0.2,0.8-0.5,1.1-0.9
			C422.4,170.1,422.5,169.6,422.5,168.9z M427.1,173.2v-10.5h1.6v1.6h0.1c0.2-0.5,0.5-0.9,1-1.3c0.5-0.3,1.1-0.5,1.7-0.5
			c0.1,0,0.3,0,0.4,0c0.2,0,0.3,0,0.4,0v1.6c-0.1,0-0.2,0-0.4-0.1c-0.2,0-0.4,0-0.6,0c-0.5,0-1,0.1-1.4,0.3
			c-0.4,0.2-0.7,0.5-0.9,0.9c-0.2,0.4-0.3,0.8-0.3,1.3v6.7H427.1z M444.4,162.7v1.4h-5.7v-1.4H444.4z M440.4,173.2v-12
			c0-0.6,0.1-1.1,0.4-1.5c0.3-0.4,0.7-0.7,1.1-0.9c0.5-0.2,0.9-0.3,1.4-0.3c0.4,0,0.7,0,1,0.1c0.3,0.1,0.4,0.1,0.6,0.2l-0.5,1.4
			c-0.1,0-0.2-0.1-0.3-0.1c-0.1,0-0.3-0.1-0.6-0.1c-0.5,0-0.9,0.1-1.2,0.4c-0.2,0.3-0.3,0.7-0.3,1.2v11.6H440.4z M446.7,173.2v-10.5
			h1.6v10.5H446.7z M447.5,160.9c-0.3,0-0.6-0.1-0.8-0.3c-0.2-0.2-0.3-0.5-0.3-0.8c0-0.3,0.1-0.6,0.3-0.8c0.2-0.2,0.5-0.3,0.8-0.3
			c0.3,0,0.6,0.1,0.8,0.3c0.2,0.2,0.3,0.5,0.3,0.8c0,0.3-0.1,0.6-0.3,0.8C448.1,160.8,447.8,160.9,447.5,160.9z M451.3,173.2v-10.5
			h1.6v1.6h0.1c0.2-0.5,0.5-0.9,1-1.3c0.5-0.3,1.1-0.5,1.7-0.5c0.1,0,0.3,0,0.4,0c0.2,0,0.3,0,0.4,0v1.6c-0.1,0-0.2,0-0.4-0.1
			c-0.2,0-0.4,0-0.6,0c-0.5,0-1,0.1-1.4,0.3c-0.4,0.2-0.7,0.5-0.9,0.9c-0.2,0.4-0.3,0.8-0.3,1.3v6.7H451.3z M465.9,165l-1.5,0.4
			c-0.1-0.2-0.2-0.5-0.4-0.7c-0.2-0.2-0.4-0.4-0.7-0.6c-0.3-0.2-0.7-0.2-1.2-0.2c-0.6,0-1.2,0.1-1.6,0.4c-0.4,0.3-0.6,0.7-0.6,1.1
			c0,0.4,0.1,0.7,0.4,1c0.3,0.2,0.8,0.4,1.4,0.6l1.6,0.4c0.9,0.2,1.6,0.6,2.1,1c0.5,0.5,0.7,1.1,0.7,1.8c0,0.6-0.2,1.1-0.5,1.6
			c-0.3,0.5-0.8,0.9-1.4,1.1c-0.6,0.3-1.3,0.4-2.2,0.4c-1.1,0-2-0.2-2.7-0.7c-0.7-0.5-1.2-1.1-1.3-2l1.5-0.4c0.1,0.6,0.4,1,0.8,1.3
			c0.4,0.3,0.9,0.4,1.6,0.4c0.8,0,1.4-0.2,1.8-0.5c0.4-0.3,0.7-0.7,0.7-1.2c0-0.4-0.1-0.7-0.4-0.9c-0.3-0.3-0.6-0.4-1.2-0.6
			l-1.8-0.4c-1-0.2-1.7-0.6-2.1-1.1c-0.4-0.5-0.7-1.1-0.7-1.8c0-0.6,0.2-1.1,0.5-1.6c0.3-0.5,0.8-0.8,1.4-1.1c0.6-0.3,1.2-0.4,2-0.4
			c1,0,1.9,0.2,2.5,0.7C465.2,163.7,465.7,164.3,465.9,165z M473.1,162.7v1.4h-5.5v-1.4H473.1z M469.3,160.2h1.6v10
			c0,0.5,0.1,0.8,0.2,1c0.1,0.2,0.3,0.4,0.5,0.5c0.2,0.1,0.4,0.1,0.7,0.1c0.2,0,0.3,0,0.4,0c0.1,0,0.2,0,0.3-0.1l0.3,1.5
			c-0.1,0-0.3,0.1-0.5,0.1c-0.2,0-0.4,0.1-0.7,0.1c-0.5,0-0.9-0.1-1.3-0.3c-0.4-0.2-0.8-0.5-1.1-0.9c-0.3-0.4-0.4-0.9-0.4-1.5V160.2
			z M108.1,196.9c-1,0-1.8-0.2-2.6-0.7c-0.7-0.5-1.3-1.1-1.6-1.9c-0.4-0.8-0.6-1.8-0.6-2.8c0-1.1,0.2-2,0.6-2.8
			c0.4-0.8,1-1.5,1.7-1.9c0.7-0.5,1.5-0.7,2.5-0.7c0.7,0,1.4,0.1,2,0.4c0.6,0.3,1.1,0.7,1.5,1.2c0.4,0.5,0.6,1.1,0.7,1.7h-1.6
			c-0.1-0.5-0.4-0.9-0.8-1.3c-0.4-0.4-1-0.6-1.7-0.6c-0.6,0-1.2,0.2-1.7,0.5c-0.5,0.3-0.8,0.8-1.1,1.4c-0.3,0.6-0.4,1.3-0.4,2.1
			c0,0.8,0.1,1.5,0.4,2.1c0.3,0.6,0.6,1.1,1.1,1.4c0.5,0.3,1,0.5,1.7,0.5c0.4,0,0.8-0.1,1.1-0.2c0.3-0.1,0.6-0.4,0.9-0.6
			c0.2-0.3,0.4-0.6,0.5-1h1.6c-0.1,0.6-0.3,1.2-0.7,1.7c-0.4,0.5-0.8,0.9-1.4,1.2C109.5,196.8,108.8,196.9,108.1,196.9z
			 M118.8,196.9c-1,0-1.8-0.2-2.5-0.7c-0.7-0.5-1.3-1.1-1.7-1.9c-0.4-0.8-0.6-1.8-0.6-2.9c0-1.1,0.2-2.1,0.6-2.9
			c0.4-0.8,1-1.5,1.7-1.9c0.7-0.5,1.6-0.7,2.5-0.7c1,0,1.8,0.2,2.5,0.7c0.7,0.5,1.3,1.1,1.7,1.9c0.4,0.8,0.6,1.8,0.6,2.9
			c0,1.1-0.2,2-0.6,2.9c-0.4,0.8-1,1.4-1.7,1.9C120.6,196.7,119.8,196.9,118.8,196.9z M118.8,195.4c0.7,0,1.3-0.2,1.8-0.6
			c0.5-0.4,0.8-0.9,1-1.5c0.2-0.6,0.3-1.3,0.3-2c0-0.7-0.1-1.4-0.3-2c-0.2-0.6-0.6-1.1-1-1.5c-0.5-0.4-1.1-0.6-1.8-0.6
			c-0.7,0-1.3,0.2-1.8,0.6c-0.5,0.4-0.8,0.9-1,1.5c-0.2,0.6-0.3,1.3-0.3,2c0,0.7,0.1,1.4,0.3,2c0.2,0.6,0.6,1.1,1,1.5
			C117.5,195.3,118.1,195.4,118.8,195.4z M127.7,190.3v6.3h-1.6v-10.5h1.6v1.6h0.1c0.2-0.5,0.6-1,1.1-1.3c0.5-0.3,1.2-0.5,1.9-0.5
			c0.7,0,1.3,0.1,1.9,0.4c0.5,0.3,1,0.7,1.2,1.3c0.3,0.6,0.4,1.3,0.4,2.2v6.7h-1.6v-6.6c0-0.8-0.2-1.5-0.6-1.9
			c-0.4-0.5-1-0.7-1.8-0.7c-0.5,0-1,0.1-1.4,0.3c-0.4,0.2-0.7,0.6-1,1C127.8,189.2,127.7,189.7,127.7,190.3z M145.6,186.1l-3.9,10.5
			h-1.6l-3.9-10.5h1.8l2.9,8.4h0.1l2.9-8.4H145.6z M151.8,196.9c-1,0-1.9-0.2-2.6-0.7c-0.7-0.5-1.3-1.1-1.7-1.9
			c-0.4-0.8-0.6-1.8-0.6-2.8s0.2-2,0.6-2.9c0.4-0.8,1-1.5,1.7-1.9c0.7-0.5,1.5-0.7,2.5-0.7c0.5,0,1.1,0.1,1.6,0.3
			c0.5,0.2,1,0.5,1.5,0.9c0.4,0.4,0.8,0.9,1,1.6c0.3,0.7,0.4,1.5,0.4,2.5v0.7h-8.1v-1.4h6.5c0-0.6-0.1-1.1-0.4-1.6
			c-0.2-0.5-0.6-0.8-1-1.1c-0.4-0.3-0.9-0.4-1.5-0.4c-0.6,0-1.2,0.2-1.7,0.5c-0.5,0.3-0.8,0.7-1.1,1.2c-0.3,0.5-0.4,1.1-0.4,1.6v0.9
			c0,0.8,0.1,1.5,0.4,2c0.3,0.5,0.7,1,1.2,1.3c0.5,0.3,1.1,0.4,1.7,0.4c0.4,0,0.8-0.1,1.2-0.2c0.3-0.1,0.6-0.3,0.9-0.5
			c0.3-0.2,0.4-0.6,0.6-0.9l1.6,0.4c-0.2,0.5-0.4,1-0.8,1.4c-0.4,0.4-0.9,0.7-1.4,0.9C153.2,196.8,152.5,196.9,151.8,196.9z
			 M158.6,196.7v-10.5h1.6v1.6h0.1c0.2-0.5,0.5-0.9,1-1.3c0.5-0.3,1.1-0.5,1.7-0.5c0.1,0,0.3,0,0.4,0c0.2,0,0.3,0,0.4,0v1.6
			c-0.1,0-0.2,0-0.4-0.1c-0.2,0-0.4,0-0.6,0c-0.5,0-1,0.1-1.4,0.3c-0.4,0.2-0.7,0.5-0.9,0.9c-0.2,0.4-0.3,0.8-0.3,1.3v6.7H158.6z
			 M173.3,188.5l-1.5,0.4c-0.1-0.2-0.2-0.5-0.4-0.7c-0.2-0.2-0.4-0.4-0.7-0.6c-0.3-0.2-0.7-0.2-1.2-0.2c-0.6,0-1.2,0.1-1.6,0.4
			c-0.4,0.3-0.6,0.7-0.6,1.1c0,0.4,0.1,0.7,0.4,1c0.3,0.2,0.8,0.4,1.4,0.6l1.6,0.4c0.9,0.2,1.6,0.6,2.1,1c0.5,0.5,0.7,1.1,0.7,1.8
			c0,0.6-0.2,1.1-0.5,1.6c-0.3,0.5-0.8,0.9-1.4,1.1c-0.6,0.3-1.3,0.4-2.2,0.4c-1.1,0-2-0.2-2.7-0.7c-0.7-0.5-1.2-1.1-1.3-2l1.5-0.4
			c0.1,0.6,0.4,1,0.8,1.3c0.4,0.3,0.9,0.4,1.6,0.4c0.8,0,1.4-0.2,1.8-0.5c0.4-0.3,0.7-0.7,0.7-1.2c0-0.4-0.1-0.7-0.4-0.9
			c-0.3-0.3-0.6-0.4-1.2-0.6l-1.8-0.4c-1-0.2-1.7-0.6-2.1-1.1c-0.4-0.5-0.7-1.1-0.7-1.8c0-0.6,0.2-1.1,0.5-1.6
			c0.3-0.5,0.8-0.8,1.4-1.1c0.6-0.3,1.2-0.4,2-0.4c1,0,1.9,0.2,2.5,0.7C172.6,187.2,173,187.8,173.3,188.5z M179,196.9
			c-0.7,0-1.3-0.1-1.8-0.4c-0.5-0.3-1-0.6-1.3-1.1c-0.3-0.5-0.5-1.1-0.5-1.8c0-0.6,0.1-1.1,0.4-1.5c0.2-0.4,0.6-0.7,1-0.9
			c0.4-0.2,0.8-0.4,1.3-0.5c0.5-0.1,1-0.2,1.5-0.3c0.6-0.1,1.2-0.1,1.6-0.2c0.4,0,0.7-0.1,0.9-0.2c0.2-0.1,0.3-0.3,0.3-0.5v-0.1
			c0-0.7-0.2-1.2-0.6-1.6c-0.4-0.4-0.9-0.6-1.7-0.6c-0.8,0-1.4,0.2-1.8,0.5c-0.4,0.3-0.7,0.7-0.9,1.1l-1.5-0.5
			c0.3-0.6,0.6-1.1,1.1-1.5c0.5-0.4,1-0.6,1.5-0.8c0.5-0.1,1.1-0.2,1.6-0.2c0.3,0,0.7,0,1.2,0.1c0.4,0.1,0.9,0.2,1.3,0.5
			c0.4,0.2,0.8,0.6,1,1.1c0.3,0.5,0.4,1.2,0.4,2v6.9h-1.6v-1.4h-0.1c-0.1,0.2-0.3,0.5-0.5,0.7c-0.3,0.3-0.6,0.5-1,0.7
			C180.2,196.8,179.6,196.9,179,196.9z M179.3,195.5c0.6,0,1.2-0.1,1.6-0.4c0.4-0.3,0.8-0.6,1-1c0.2-0.4,0.3-0.8,0.3-1.3v-1.5
			c-0.1,0.1-0.2,0.2-0.5,0.2c-0.2,0.1-0.5,0.1-0.8,0.2c-0.3,0-0.6,0.1-0.9,0.1c-0.3,0-0.5,0.1-0.7,0.1c-0.4,0.1-0.8,0.1-1.2,0.3
			c-0.4,0.1-0.7,0.3-0.9,0.5c-0.2,0.2-0.3,0.6-0.3,1c0,0.6,0.2,1,0.6,1.3C178.1,195.3,178.6,195.5,179.3,195.5z M191.4,186.1v1.4
			h-5.5v-1.4H191.4z M187.5,183.6h1.6v10c0,0.5,0.1,0.8,0.2,1c0.1,0.2,0.3,0.4,0.5,0.5c0.2,0.1,0.4,0.1,0.7,0.1c0.2,0,0.3,0,0.4,0
			c0.1,0,0.2,0,0.3-0.1l0.3,1.5c-0.1,0-0.3,0.1-0.5,0.1c-0.2,0-0.4,0.1-0.7,0.1c-0.5,0-0.9-0.1-1.3-0.3c-0.4-0.2-0.8-0.5-1.1-0.9
			c-0.3-0.4-0.4-0.9-0.4-1.5V183.6z M193.8,196.7v-10.5h1.6v10.5H193.8z M194.7,184.4c-0.3,0-0.6-0.1-0.8-0.3
			c-0.2-0.2-0.3-0.5-0.3-0.8c0-0.3,0.1-0.6,0.3-0.8c0.2-0.2,0.5-0.3,0.8-0.3c0.3,0,0.6,0.1,0.8,0.3c0.2,0.2,0.3,0.5,0.3,0.8
			c0,0.3-0.1,0.6-0.3,0.8C195.2,184.3,195,184.4,194.7,184.4z M202.7,196.9c-1,0-1.8-0.2-2.5-0.7c-0.7-0.5-1.3-1.1-1.7-1.9
			c-0.4-0.8-0.6-1.8-0.6-2.9c0-1.1,0.2-2.1,0.6-2.9c0.4-0.8,1-1.5,1.7-1.9c0.7-0.5,1.6-0.7,2.5-0.7c1,0,1.8,0.2,2.5,0.7
			c0.7,0.5,1.3,1.1,1.7,1.9c0.4,0.8,0.6,1.8,0.6,2.9c0,1.1-0.2,2-0.6,2.9c-0.4,0.8-1,1.4-1.7,1.9
			C204.5,196.7,203.7,196.9,202.7,196.9z M202.7,195.4c0.7,0,1.3-0.2,1.8-0.6c0.5-0.4,0.8-0.9,1-1.5c0.2-0.6,0.3-1.3,0.3-2
			c0-0.7-0.1-1.4-0.3-2c-0.2-0.6-0.6-1.1-1-1.5c-0.5-0.4-1.1-0.6-1.8-0.6c-0.7,0-1.3,0.2-1.8,0.6c-0.5,0.4-0.8,0.9-1,1.5
			c-0.2,0.6-0.3,1.3-0.3,2c0,0.7,0.1,1.4,0.3,2c0.2,0.6,0.6,1.1,1,1.5C201.4,195.3,202,195.4,202.7,195.4z M211.6,190.3v6.3H210
			v-10.5h1.6v1.6h0.1c0.2-0.5,0.6-1,1.1-1.3c0.5-0.3,1.2-0.5,1.9-0.5c0.7,0,1.3,0.1,1.9,0.4c0.5,0.3,1,0.7,1.2,1.3
			c0.3,0.6,0.4,1.3,0.4,2.2v6.7h-1.6v-6.6c0-0.8-0.2-1.5-0.6-1.9c-0.4-0.5-1-0.7-1.8-0.7c-0.5,0-1,0.1-1.4,0.3c-0.4,0.2-0.7,0.6-1,1
			C211.7,189.2,211.6,189.7,211.6,190.3z M227.7,200.6c-0.3,0-0.5,0-0.7-0.1c-0.2,0-0.4-0.1-0.4-0.1l0.4-1.4c0.4,0.1,0.7,0.1,1,0.1
			c0.3,0,0.6-0.2,0.8-0.4c0.2-0.2,0.5-0.6,0.7-1.2l0.3-0.8l-3.9-10.6h1.8l2.9,8.4h0.1l2.9-8.4h1.8l-4.5,12.1c-0.2,0.5-0.4,1-0.7,1.4
			c-0.3,0.4-0.6,0.6-1,0.8C228.7,200.5,228.2,200.6,227.7,200.6z M241.5,196.9c-1,0-1.9-0.2-2.6-0.7c-0.7-0.5-1.3-1.1-1.7-1.9
			c-0.4-0.8-0.6-1.8-0.6-2.8s0.2-2,0.6-2.9c0.4-0.8,1-1.5,1.7-1.9c0.7-0.5,1.5-0.7,2.5-0.7c0.5,0,1.1,0.1,1.6,0.3
			c0.5,0.2,1,0.5,1.5,0.9c0.4,0.4,0.8,0.9,1,1.6c0.3,0.7,0.4,1.5,0.4,2.5v0.7h-8.1v-1.4h6.5c0-0.6-0.1-1.1-0.4-1.6
			c-0.2-0.5-0.6-0.8-1-1.1c-0.4-0.3-0.9-0.4-1.5-0.4c-0.6,0-1.2,0.2-1.7,0.5c-0.5,0.3-0.8,0.7-1.1,1.2c-0.3,0.5-0.4,1.1-0.4,1.6v0.9
			c0,0.8,0.1,1.5,0.4,2c0.3,0.5,0.7,1,1.2,1.3c0.5,0.3,1.1,0.4,1.7,0.4c0.4,0,0.8-0.1,1.2-0.2c0.3-0.1,0.6-0.3,0.9-0.5
			c0.3-0.2,0.4-0.6,0.6-0.9l1.6,0.4c-0.2,0.5-0.4,1-0.8,1.4c-0.4,0.4-0.9,0.7-1.4,0.9C242.8,196.8,242.2,196.9,241.5,196.9z
			 M252.9,186.1v1.4h-5.5v-1.4H252.9z M249,183.6h1.6v10c0,0.5,0.1,0.8,0.2,1c0.1,0.2,0.3,0.4,0.5,0.5c0.2,0.1,0.4,0.1,0.7,0.1
			c0.2,0,0.3,0,0.4,0c0.1,0,0.2,0,0.3-0.1l0.3,1.5c-0.1,0-0.3,0.1-0.5,0.1c-0.2,0-0.4,0.1-0.7,0.1c-0.5,0-0.9-0.1-1.3-0.3
			c-0.4-0.2-0.8-0.5-1.1-0.9c-0.3-0.4-0.4-0.9-0.4-1.5V183.6z M262.9,182.6l-0.1,10.1h-1.6l-0.1-10.1H262.9z M262,196.8
			c-0.3,0-0.6-0.1-0.9-0.4c-0.2-0.2-0.4-0.5-0.4-0.9c0-0.3,0.1-0.6,0.4-0.9c0.2-0.2,0.5-0.4,0.9-0.4c0.3,0,0.6,0.1,0.9,0.4
			c0.2,0.2,0.4,0.5,0.4,0.9c0,0.2-0.1,0.4-0.2,0.6c-0.1,0.2-0.3,0.3-0.4,0.5C262.4,196.7,262.2,196.8,262,196.8z"/>
		<line class="st20" x1="102.3" y1="222.2" x2="487.4" y2="222.2"/>
		<defs>
			<filter id="Adobe_OpacityMaskFilter" filterUnits="userSpaceOnUse" x="78.8" y="82.1" width="432" height="226.4">
				<feColorMatrix  type="matrix" values="1 0 0 0 0  0 1 0 0 0  0 0 1 0 0  0 0 0 1 0"/>
			</filter>
		</defs>
		
			<mask maskUnits="userSpaceOnUse" x="78.8" y="82.1" width="432" height="226.4" id="path-1-inside-1_5982_25202_00000095325700385410963650000011175230102277288595_">
			<path class="st21" d="M80.2,94.5c0-6.1,4.9-11,11-11h407.2c6.1,0,11,4.9,11,11v202.9c0,6.1-4.9,11-11,11H91.2
				c-6.1,0-11-4.9-11-11V94.5z"/>
		</mask>
		<path class="st22" d="M78.8,94.5c0-6.9,5.6-12.4,12.4-12.4h407.2c6.9,0,12.4,5.6,12.4,12.4h-2.8c0-5.3-4.3-9.7-9.7-9.7H91.2
			c-5.3,0-9.7,4.3-9.7,9.7H78.8z M509.4,308.5H80.2H509.4z M91.2,308.5c-6.9,0-12.4-5.6-12.4-12.4V94.5c0-6.9,5.6-12.4,12.4-12.4
			v2.8c-5.3,0-9.7,4.3-9.7,9.7v202.9C81.6,303.5,85.9,308.5,91.2,308.5z M498.4,82.1c6.9,0,12.4,5.6,12.4,12.4v201.5
			c0,6.9-5.6,12.4-12.4,12.4c5.3,0,9.7-4.9,9.7-11V94.5c0-5.3-4.3-9.7-9.7-9.7V82.1z"/>
		<path class="st18" d="M218.2,308.5l13.8,19.3l15.1-19.3H218.2z"/>
	</g>
</g>
</svg>
