<svg width="20" height="18" viewBox="0 0 20 18" fill="none" xmlns="http://www.w3.org/2000/svg">
<path d="M17.5 2.4375H14.8005L13.4674 0.438C13.4161 0.36095 13.3465 0.297772 13.2648 0.254073C13.1832 0.210374 13.092 0.187507 12.9994 0.1875H6.99944C6.90684 0.187507 6.81567 0.210374 6.73403 0.254073C6.65239 0.297772 6.5828 0.36095 6.53144 0.438L5.19841 2.4375H2.5C1.95318 2.43812 1.42894 2.65562 1.04228 3.04228C0.655618 3.42894 0.43812 3.95318 0.4375 4.5V15C0.43812 15.5468 0.655618 16.0711 1.04228 16.4577C1.42894 16.8444 1.95318 17.0619 2.5 17.0625H17.5C18.0468 17.0619 18.5711 16.8444 18.9577 16.4577C19.3444 16.0711 19.5619 15.5468 19.5625 15V4.5C19.5619 3.95318 19.3444 3.42894 18.9577 3.04228C18.5711 2.65562 18.0468 2.43812 17.5 2.4375ZM18.4375 15C18.4372 15.2485 18.3383 15.4868 18.1626 15.6626C17.9868 15.8383 17.7485 15.9372 17.5 15.9375H2.5C2.25145 15.9372 2.01317 15.8383 1.83742 15.6626C1.66167 15.4868 1.5628 15.2485 1.5625 15V4.5C1.5628 4.25145 1.66167 4.01317 1.83742 3.83742C2.01317 3.66167 2.25145 3.5628 2.5 3.5625H5.49944C5.59204 3.56249 5.6832 3.53963 5.76484 3.49593C5.84649 3.45223 5.91608 3.38905 5.96744 3.312L7.30056 1.3125H12.6984L14.0314 3.312C14.0828 3.38905 14.1524 3.45223 14.234 3.49593C14.3157 3.53963 14.4068 3.56249 14.4994 3.5625H17.5C17.7485 3.5628 17.9868 3.66167 18.1626 3.83742C18.3383 4.01317 18.4372 4.25145 18.4375 4.5V15ZM10 5.4375C9.22124 5.4375 8.45996 5.66843 7.81244 6.10109C7.16492 6.53375 6.66024 7.1487 6.36222 7.86818C6.0642 8.58767 5.98623 9.37937 6.13816 10.1432C6.29009 10.907 6.6651 11.6086 7.21577 12.1592C7.76644 12.7099 8.46803 13.0849 9.23183 13.2368C9.99563 13.3888 10.7873 13.3108 11.5068 13.0128C12.2263 12.7148 12.8413 12.2101 13.2739 11.5626C13.7066 10.915 13.9375 10.1538 13.9375 9.375C13.9363 8.33107 13.5211 7.33023 12.7829 6.59206C12.0448 5.85388 11.0439 5.43867 10 5.4375ZM10 12.1875C9.44374 12.1875 8.89997 12.0225 8.43746 11.7135C7.97495 11.4045 7.61446 10.9652 7.40159 10.4513C7.18872 9.93738 7.13302 9.37188 7.24154 8.82631C7.35006 8.28074 7.61793 7.7796 8.01126 7.38626C8.4046 6.99293 8.90574 6.72506 9.45131 6.61654C9.99688 6.50802 10.5624 6.56372 11.0763 6.77659C11.5902 6.98946 12.0295 7.34995 12.3385 7.81246C12.6475 8.27497 12.8125 8.81874 12.8125 9.375C12.8117 10.1207 12.5151 10.8355 11.9878 11.3628C11.4605 11.8901 10.7457 12.1867 10 12.1875Z" fill="black"/>
</svg>
