<svg width="12" height="9" viewBox="0 0 12 9" fill="none" xmlns="http://www.w3.org/2000/svg">
<path d="M0.463371 6.0203C0.212694 6.26199 0.205426 6.66271 0.44717 6.91345L1.47027 7.97462C1.71202 8.22536 2.11274 8.23273 2.36342 7.99104C2.71807 7.64912 3.12043 7.36882 3.55997 7.15741C3.66395 7.10575 3.75193 7.02682 3.81455 6.92905C3.87717 6.83128 3.91206 6.71833 3.91551 6.60227L3.93106 5.74484C5.08045 5.42715 6.29736 5.44932 7.43459 5.80866L7.4218 6.66167C7.40858 6.89789 7.53355 7.1173 7.7503 7.23535C8.18215 7.46351 8.57474 7.75928 8.91316 8.11146C9.15491 8.3622 9.55563 8.36957 9.80631 8.12788L10.8672 7.10503C11.1179 6.86335 11.1252 6.46262 10.8834 6.21188C8.06257 3.28609 3.38844 3.20016 0.463371 6.0203Z" fill="#EC6969"/>
<path d="M5.29057 0H2.65522V2.63534H3.0317V0.642647L5.72201 3.33333L5.98856 3.06679L3.29787 0.376478H5.29057V0Z" fill="#EC6969"/>
<path d="M5.72637 3.33333L8.588 0.599503L8.32183 0.333333L5.45982 3.06679L5.72637 3.33333Z" fill="#EC6969"/>
</svg>
