<svg width="19" height="18" viewBox="0 0 19 18" fill="none" xmlns="http://www.w3.org/2000/svg">
<path fill-rule="evenodd" clip-rule="evenodd" d="M2.02543 8.86493C3.62593 4.73618 8.26993 2.68718 12.3979 4.28768C14.4987 5.10232 16.1598 6.76337 16.9744 8.86418C17.0083 8.9515 17.0083 9.04836 16.9744 9.13568C15.3739 13.2637 10.7299 15.3127 6.60193 13.7122C4.50112 12.8975 2.84007 11.2365 2.02543 9.13568C1.99152 9.04836 1.99152 8.9515 2.02543 8.86418V8.86493ZM6.87268 13.0124C10.5694 14.4457 14.7222 12.6509 16.2214 8.99993C15.464 7.15779 13.9836 5.70726 12.1264 4.98743C8.43118 3.55418 4.27843 5.34893 2.77918 8.99993C3.53666 10.8421 5.017 12.2926 6.87418 13.0124H6.87268ZM9.49993 11.9999C7.84308 11.9999 6.49993 10.6568 6.49993 8.99993C6.49993 7.34308 7.84308 5.99993 9.49993 5.99993C11.1568 5.99993 12.4999 7.34308 12.4999 8.99993C12.4999 10.6568 11.1568 11.9999 9.49993 11.9999ZM9.49993 11.2499C10.7426 11.2499 11.7499 10.2426 11.7499 8.99993C11.7499 7.75729 10.7426 6.74993 9.49993 6.74993C8.25729 6.74993 7.24993 7.75729 7.24993 8.99993C7.24993 10.2426 8.25729 11.2499 9.49993 11.2499Z" fill="#121924"/>
</svg>
