<svg width="30" height="30" viewBox="0 0 30 30" fill="none" xmlns="http://www.w3.org/2000/svg">
<path d="M4.6875 14.7656C4.6875 11.0119 7.73062 7.96875 11.4844 7.96875C12.9389 7.96875 14.287 8.42578 15.3923 9.20391C15.8573 9.53109 15.8311 10.1991 15.3942 10.5633C15.0305 10.8675 14.5031 10.8492 14.1014 10.5961C13.3177 10.103 12.4103 9.84218 11.4844 9.84375C8.76609 9.84375 6.5625 12.0473 6.5625 14.7656C6.5625 17.4839 8.76609 19.6875 11.4844 19.6875C14.2027 19.6875 16.4062 17.4839 16.4062 14.7656C16.4062 14.5538 16.3927 14.3447 16.3669 14.1398C16.3181 13.7545 16.4367 13.357 16.7344 13.1086C17.2566 12.6727 18.0511 12.8775 18.172 13.5464C18.2437 13.942 18.2812 14.3494 18.2812 14.7656C18.2812 18.5194 15.2381 21.5625 11.4844 21.5625C7.73062 21.5625 4.6875 18.5194 4.6875 14.7656Z" fill="#B7B7B7"/>
<path fill-rule="evenodd" clip-rule="evenodd" d="M0.9375 15C0.9375 9.04547 5.76422 4.21875 11.7188 4.21875H18.2812C24.2358 4.21875 29.0625 9.04547 29.0625 15C29.0625 20.9545 24.2358 25.7812 18.2812 25.7812H11.7188C5.76422 25.7812 0.9375 20.9545 0.9375 15ZM11.7188 6.09375C6.80016 6.09375 2.8125 10.0814 2.8125 15C2.8125 19.9186 6.80016 23.9062 11.7188 23.9062H18.2812C23.1998 23.9062 27.1875 19.9186 27.1875 15C27.1875 10.0814 23.1998 6.09375 18.2812 6.09375H11.7188Z" fill="#B7B7B7"/>
</svg>
