<svg width="36" height="36" viewBox="0 0 36 36" fill="none" xmlns="http://www.w3.org/2000/svg">
<path d="M9 14.8541C9 13.8301 9.83011 13 10.8541 13V13C11.5564 13 12.1984 12.6032 12.5125 11.9751L13.3333 10.3333C13.4433 10.1134 13.4983 10.0035 13.5606 9.90782C13.8859 9.40882 14.4167 9.08078 15.0085 9.01299C15.1219 9 15.2448 9 15.4907 9H20.5093C20.7552 9 20.8781 9 20.9915 9.01299C21.5833 9.08078 22.1141 9.40882 22.4394 9.90782C22.5017 10.0035 22.5567 10.1134 22.6667 10.3333L23.4875 11.9751C23.8016 12.6032 24.4436 13 25.1459 13V13C26.1699 13 27 13.8301 27 14.8541V19.8571C27 21.8619 27 22.8643 26.5402 23.5961C26.3004 23.9777 25.9777 24.3004 25.5961 24.5402C24.8643 25 23.8619 25 21.8571 25H14.1429C12.1381 25 11.1357 25 10.4039 24.5402C10.0223 24.3004 9.69961 23.9777 9.45983 23.5961C9 22.8643 9 21.8619 9 19.8571V14.8541Z" stroke="#ADD134"/>
<path d="M14 16L13.6464 15.6464L13.2929 16L13.6464 16.3536L14 16ZM21.5 17C21.5 17.2761 21.7239 17.5 22 17.5C22.2761 17.5 22.5 17.2761 22.5 17H21.5ZM22 20L22.3536 20.3536L22.7071 20L22.3536 19.6464L22 20ZM14 19C14 18.7239 13.7761 18.5 13.5 18.5C13.2239 18.5 13 18.7239 13 19H14ZM15.6464 13.6464L13.6464 15.6464L14.3536 16.3536L16.3536 14.3536L15.6464 13.6464ZM13.6464 16.3536L15.6464 18.3536L16.3536 17.6464L14.3536 15.6464L13.6464 16.3536ZM14 16.5H21V15.5H14V16.5ZM21 16.5C21.2761 16.5 21.5 16.7239 21.5 17H22.5C22.5 16.1716 21.8284 15.5 21 15.5V16.5ZM19.6464 18.3536L21.6464 20.3536L22.3536 19.6464L20.3536 17.6464L19.6464 18.3536ZM21.6464 19.6464L19.6464 21.6464L20.3536 22.3536L22.3536 20.3536L21.6464 19.6464ZM22 19.5H14.5V20.5H22V19.5ZM14.5 19.5C14.2239 19.5 14 19.2761 14 19H13C13 19.8284 13.6716 20.5 14.5 20.5V19.5Z" fill="#ADD134"/>
<rect x="1" y="1" width="34" height="34" rx="17" stroke="#ADD134" stroke-width="2"/>
</svg>
