<svg width="33" height="34" viewBox="0 0 33 34" fill="none" xmlns="http://www.w3.org/2000/svg">
<path d="M9.625 20.2083C9.625 18.4949 9.625 17.6381 9.99343 17C10.2348 16.582 10.5819 16.2348 11 15.9934C11.6381 15.625 12.4949 15.625 14.2083 15.625H18.7917C20.5051 15.625 21.3619 15.625 22 15.9934C22.418 16.2348 22.7652 16.582 23.0066 17C23.375 17.6381 23.375 18.4949 23.375 20.2083V22.5C23.375 23.7778 23.375 24.4167 23.2693 24.948C22.8353 27.1298 21.1298 28.8353 18.948 29.2693C18.4167 29.375 17.7778 29.375 16.5 29.375C15.2222 29.375 14.5832 29.375 14.0519 29.2693C11.8702 28.8353 10.1647 27.1298 9.73068 24.948C9.625 24.4167 9.625 23.7778 9.625 22.5V20.2083Z" stroke="#222222" stroke-width="1.33" stroke-linecap="round"/>
<path d="M12.375 12.875C12.375 11.5937 12.375 10.953 12.5843 10.4476C12.8634 9.7738 13.3988 9.23844 14.0726 8.95933C14.578 8.75 15.2186 8.75 16.5 8.75C17.7814 8.75 18.422 8.75 18.9274 8.95933C19.6012 9.23844 20.1366 9.7738 20.4157 10.4476C20.625 10.953 20.625 11.5937 20.625 12.875V15.625H12.375V12.875Z" stroke="#222222" stroke-width="1.33" stroke-linecap="round"/>
<path d="M16.5 15.625V21.125" stroke="#222222" stroke-width="1.33" stroke-linecap="round"/>
<path d="M20.625 4.625L17.875 8.75" stroke="#222222" stroke-width="1.33" stroke-linecap="round"/>
<path d="M12.375 4.625L15.125 8.75" stroke="#222222" stroke-width="1.33" stroke-linecap="round"/>
<path d="M9.625 22.5H2.75" stroke="#222222" stroke-width="1.33" stroke-linecap="round"/>
<path d="M30.25 22.5H23.375" stroke="#222222" stroke-width="1.33" stroke-linecap="round"/>
<path d="M27.5 12.875V14.25C27.5 16.5282 25.6532 18.375 23.375 18.375" stroke="#222222" stroke-width="1.33" stroke-linecap="round"/>
<path d="M27.5 30.75C27.5 28.4718 25.6532 26.625 23.375 26.625" stroke="#222222" stroke-width="1.33" stroke-linecap="round"/>
<path d="M5.5 12.875V14.25C5.5 16.5282 7.34683 18.375 9.625 18.375" stroke="#222222" stroke-width="1.33" stroke-linecap="round"/>
<path d="M5.5 30.75C5.5 28.4718 7.34683 26.625 9.625 26.625" stroke="#222222" stroke-width="1.33" stroke-linecap="round"/>
</svg>
