<svg width="24" height="25" viewBox="0 0 24 25" fill="none" xmlns="http://www.w3.org/2000/svg">
<path d="M16.8198 2.5H7.17982C5.04982 2.5 3.31982 4.24 3.31982 6.36V20.45C3.31982 22.25 4.60982 23.01 6.18982 22.14L11.0698 19.43C11.5898 19.14 12.4298 19.14 12.9398 19.43L17.8198 22.14C19.3998 23.02 20.6898 22.26 20.6898 20.45V6.36C20.6798 4.24 18.9498 2.5 16.8198 2.5ZM14.4998 11.9H9.49982C9.08982 11.9 8.74982 11.56 8.74982 11.15C8.74982 10.74 9.08982 10.4 9.49982 10.4H14.4998C14.9098 10.4 15.2498 10.74 15.2498 11.15C15.2498 11.56 14.9098 11.9 14.4998 11.9Z" fill="#ACD037"/>
</svg>
