<svg width="16" height="20" viewBox="0 0 16 20" fill="none" xmlns="http://www.w3.org/2000/svg">
<path fill-rule="evenodd" clip-rule="evenodd" d="M15.5 7.00007C15.2239 7.00007 15 6.77622 15 6.50007V5.00007H11.5C11.2239 5.00007 11 4.77622 11 4.50007V1.00007H2.5C1.67157 1.00007 1 1.67165 1 2.50007V17.5001C1 18.3285 1.67157 19.0001 2.5 19.0001H13.5C14.3284 19.0001 15 18.3285 15 17.5001V15.5001C15 15.2239 15.2239 15.0001 15.5 15.0001C15.7761 15.0001 16 15.2239 16 15.5001V17.5001C16 18.8808 14.8807 20.0001 13.5 20.0001H2.5C1.11929 20.0001 0 18.8808 0 17.5001V2.50007C0 1.11936 1.11929 7.23423e-05 2.5 7.23423e-05H11.472C11.6145 -0.00926227 11.754 0.0440564 11.854 0.146072L15.854 4.14607C15.956 4.24604 16.0093 4.38555 16 4.52807V6.50007C16 6.77622 15.7761 7.00007 15.5 7.00007ZM14.2933 11.0001H6.48633C6.21019 11.0001 5.98633 10.7763 5.98633 10.5001C5.98633 10.224 6.21019 10.0001 6.48633 10.0001H14.2933L12.1463 7.85414C11.9508 7.65863 11.9508 7.34165 12.1463 7.14614C12.3418 6.95063 12.6588 6.95063 12.8543 7.14614L15.8543 10.1461C15.9484 10.2399 16.0012 10.3673 16.0012 10.5001C16.0012 10.633 15.9484 10.7603 15.8543 10.8541L12.8543 13.8541C12.6588 14.0497 12.3418 14.0497 12.1463 13.8541C11.9508 13.6586 11.9508 13.3417 12.1463 13.1461L14.2933 11.0001ZM12 1.70707V4.00007H14.293L12 1.70707Z" fill="#121924"/>
</svg>
