<svg width="18" height="18" viewBox="0 0 18 18" fill="none" xmlns="http://www.w3.org/2000/svg">
<path fill-rule="evenodd" clip-rule="evenodd" d="M14.554 13.445C14.603 13.2732 14.7399 13.1405 14.9132 13.0969C15.0865 13.0534 15.2698 13.1056 15.3942 13.2339C15.5185 13.3623 15.565 13.5472 15.516 13.719C15.2712 14.5801 14.5846 15.2445 13.716 15.461L5.58902 17.493C4.21602 17.811 2.86802 16.98 2.55602 15.628L0.456015 6.526C0.149869 5.19797 0.963812 3.86942 2.28602 3.539L4.17402 3.066C4.441 3.00114 4.7103 3.16385 4.77706 3.43036C4.84383 3.69688 4.68305 3.96733 4.41702 4.036L2.52702 4.509C1.73508 4.70815 1.24794 5.50419 1.43102 6.3L3.53102 15.402C3.71802 16.213 4.52702 16.712 5.35702 16.52L13.475 14.49C13.9964 14.3599 14.4084 13.9609 14.555 13.444L14.554 13.445ZM17.001 10.293V2.5C17.001 1.67157 16.3294 1 15.501 1H6.50102C5.67259 1 5.00102 1.67157 5.00102 2.5V8.293L7.14702 6.146C7.24082 6.05196 7.36819 5.99911 7.50102 5.99911C7.63384 5.99911 7.76121 6.05196 7.85502 6.146L11.565 9.856L14.224 8.084C14.422 7.95217 14.6855 7.9781 14.854 8.146L17.001 10.293ZM16.988 11.695L14.438 9.143L11.778 10.916C11.58 11.0478 11.3165 11.0219 11.148 10.854L7.50102 7.207L5.00102 9.707V11.5C5.00102 12.3284 5.67259 13 6.50102 13H15.501C16.254 12.9999 16.8901 12.4416 16.988 11.695V11.695ZM6.50102 0H15.501C16.8817 0 18.001 1.11929 18.001 2.5V11.5C18.001 12.8807 16.8817 14 15.501 14H6.50102C5.1203 14 4.00102 12.8807 4.00102 11.5V2.5C4.00102 1.11929 5.1203 0 6.50102 0ZM13.001 2H15.001C15.5533 2 16.001 2.44772 16.001 3V5C16.001 5.55228 15.5533 6 15.001 6H13.001C12.4487 6 12.001 5.55228 12.001 5V3C12.001 2.44772 12.4487 2 13.001 2ZM13.001 3V5H15.001V3H13.001Z" fill="#121924"/>
</svg>
