<svg width="83" height="62" viewBox="0 0 83 62" fill="none" xmlns="http://www.w3.org/2000/svg">
<path fill-rule="evenodd" clip-rule="evenodd" d="M63.6385 34.7655C63.6385 35.3613 63.6385 35.957 63.3406 36.2549C62.447 35.3613 61.5534 34.7655 60.3619 34.1698C60.064 28.2124 55.596 23.7443 49.6386 23.7443C45.1705 23.7443 41.2982 26.4252 39.511 30.2975C38.0216 30.8932 36.8301 31.489 35.9365 32.6804C36.8301 26.1273 42.7875 20.7656 49.6386 20.7656C57.3832 20.7656 63.6385 27.0209 63.6385 34.7655Z" fill="#272A3D"/>
<path fill-rule="evenodd" clip-rule="evenodd" d="M74.362 15.7011C72.5748 15.7011 70.7876 14.5096 69.894 13.0202L66.9153 7.36071V7.06284C66.3195 5.87136 66.0216 4.97775 65.4259 4.382C64.5323 3.48839 63.0429 2.59478 61.5536 1.99904C60.66 1.70117 59.7664 1.70117 58.5749 1.70117H58.277H40.7027C39.5112 1.70117 38.6176 1.70117 37.724 1.99904C36.2346 2.29691 34.7453 3.19052 33.5538 4.382C33.2559 4.97775 32.6602 5.57349 32.3623 6.4671L33.2559 11.5309L34.7453 8.55219C35.341 7.06284 35.6389 6.76497 35.9367 6.4671C36.5325 5.57349 37.4261 5.27561 38.3197 4.97774C38.9155 4.97774 39.2133 4.97774 40.7027 4.97774H58.277C59.7664 4.97774 60.3621 4.97774 60.66 4.97774C61.5536 5.27561 62.4472 5.87136 63.0429 6.4671C63.6387 6.76497 63.9366 7.36071 64.5323 8.55219L67.511 14.2117C69.0003 16.8926 71.6812 18.6798 74.6599 18.6798C77.3407 18.6798 79.7237 20.7649 79.7237 23.7436V41.02C79.7237 45.1902 79.7237 48.1689 79.4258 50.5519C79.1279 52.9349 78.5322 54.1263 77.6386 55.02C76.745 55.9136 75.2556 56.5093 73.1705 56.8072C71.6812 57.105 69.5961 57.105 67.511 57.105C67.2131 58.2965 66.6174 59.1901 66.3195 60.0837C69.2982 60.0837 71.6812 60.0837 73.7663 59.7859C76.4471 59.488 78.5322 58.5944 80.0215 57.105C81.5109 55.6157 82.4045 53.5306 82.7024 50.8498C83.0003 48.1689 83.0003 45.1902 83.0003 41.02V23.7436C82.4045 19.2755 78.8301 15.7011 74.362 15.7011Z" fill="#272A3D"/>
<path d="M56.4888 38.936L46.9569 35.6594C43.6804 34.4679 40.4038 35.6594 38.3187 38.6381L36.2336 41.9147C35.9357 42.5104 35.0421 42.8083 34.4464 42.5104L29.9783 41.021C26.4039 39.8296 23.4252 36.8509 22.2337 32.9785L20.4465 26.1275C20.1486 25.2339 20.7443 24.6382 21.3401 24.3403L23.1273 23.7446C26.4039 22.5531 28.489 19.2765 27.8932 15.9999L26.7017 7.65957C26.106 4.08513 22.8294 1.4043 19.255 1.4043H9.42527C5.25509 1.4043 1.97852 4.68087 1.97852 8.85105V14.8085C1.97852 40.4253 22.5316 60.9784 48.1484 60.9784H54.1058C56.1909 60.9784 57.9781 60.0847 59.4675 58.8933C60.9568 57.4039 61.5526 55.6167 61.5526 53.5316V45.787C61.5526 42.8083 59.4675 39.8296 56.4888 38.936Z" stroke="#272A3D" stroke-width="2"/>
</svg>
