<svg width="17" height="19" viewBox="0 0 17 19" fill="none" xmlns="http://www.w3.org/2000/svg">
<path fill-rule="evenodd" clip-rule="evenodd" d="M15.9857 3.58952V16.2631C15.9857 17.663 14.8508 18.7979 13.451 18.7979H4.32596C2.92607 18.7979 1.79123 17.663 1.79123 16.2631V3.58952H1.28429C1.00431 3.58952 0.777344 3.36255 0.777344 3.08257C0.777344 2.8026 1.00431 2.57563 1.28429 2.57563H5.84679V2.06868C5.84679 1.22875 6.52769 0.547852 7.36762 0.547852H10.4093C11.2492 0.547852 11.9301 1.22875 11.9301 2.06868V2.57563H16.4926C16.7726 2.57563 16.9996 2.8026 16.9996 3.08257C16.9996 3.36255 16.7726 3.58952 16.4926 3.58952H15.9857ZM2.80495 3.58926V16.2629C2.80495 17.1028 3.48585 17.7837 4.32578 17.7837H13.4508C14.2907 17.7837 14.9716 17.1028 14.9716 16.2629V3.58926H2.80495ZM10.9165 2.57554V2.0686C10.9165 1.78862 10.6895 1.56165 10.4095 1.56165H7.36788C7.0879 1.56165 6.86094 1.78862 6.86094 2.0686V2.57554H10.9165ZM10.9161 7.13839C10.9161 6.85841 11.1431 6.63144 11.4231 6.63144C11.7031 6.63144 11.93 6.85841 11.93 7.13839V14.2356C11.93 14.5156 11.7031 14.7426 11.4231 14.7426C11.1431 14.7426 10.9161 14.5156 10.9161 14.2356V7.13839ZM5.84713 7.13839C5.84713 6.85841 6.0741 6.63144 6.35408 6.63144C6.63406 6.63144 6.86102 6.85841 6.86102 7.13839V14.2356C6.86102 14.5156 6.63406 14.7426 6.35408 14.7426C6.0741 14.7426 5.84713 14.5156 5.84713 14.2356V7.13839Z" fill="#FF0000"/>
</svg>
