<svg width="34" height="16" viewBox="0 0 34 16" fill="none" xmlns="http://www.w3.org/2000/svg">
<path fill-rule="evenodd" clip-rule="evenodd" d="M32.2621 7.82066C33.4657 9.02428 33.4653 10.9761 32.2612 12.1802L29.3781 15.0633C28.3123 16.1291 26.6325 16.2685 25.4065 15.3928L22.5897 13.3801C21.4302 12.5514 21.0459 11.0022 21.6837 9.72703L22.0335 9.02681C22.1804 8.73408 22.0729 8.37762 21.7886 8.21511L19.2368 6.75692C17.8296 5.9533 16.1135 5.9062 14.6637 6.63141L12.89 7.51936C12.6414 7.64378 12.5068 7.91913 12.5612 8.19167L12.8783 9.78023C13.1504 11.143 12.477 12.5197 11.234 13.1418L7.53328 14.9944C6.34546 15.5883 4.91116 15.3549 3.97339 14.4153L1.73739 12.1793C1.15939 11.6013 0.834768 10.8173 0.834933 9.99974C0.835095 9.18217 1.16003 8.39802 1.73826 7.81979L3.48243 6.07562C10.9475 -1.38942 23.0496 -1.39184 30.5116 6.07022L32.2621 7.82066Z" fill="#EA0000"/>
</svg>
