<svg width="12" height="12" viewBox="0 0 12 12" fill="none" xmlns="http://www.w3.org/2000/svg">
<path d="M6.33366 0C7.83655 0 9.27789 0.597022 10.3406 1.65973C11.4033 2.72243 12.0003 4.16377 12.0003 5.66667C12.0003 7.16956 11.4033 8.6109 10.3406 9.6736C9.27789 10.7363 7.83655 11.3333 6.33366 11.3333C4.83077 11.3333 3.38943 10.7363 2.32672 9.6736C1.26401 8.6109 0.666992 7.16956 0.666992 5.66667C0.666992 4.16377 1.26401 2.72243 2.32672 1.65973C3.38943 0.597022 4.83077 0 6.33366 0ZM6.33366 0.596491C4.98896 0.596491 3.69935 1.13067 2.7485 2.08151C1.79766 3.03235 1.26348 4.32197 1.26348 5.66667C1.26348 7.01136 1.79766 8.30098 2.7485 9.25182C3.69935 10.2027 4.98896 10.7368 6.33366 10.7368C7.67835 10.7368 8.96797 10.2027 9.91881 9.25182C10.8697 8.30098 11.4038 7.01136 11.4038 5.66667C11.4038 4.32197 10.8697 3.03235 9.91881 2.08151C8.96797 1.13067 7.67835 0.596491 6.33366 0.596491ZM6.03541 2.38596H6.6319V5.62074L9.43303 7.23782L9.13478 7.75439L6.03541 5.96491V2.38596Z" fill="#828282"/>
</svg>
