<svg width="25" height="25" viewBox="0 0 25 25" fill="none" xmlns="http://www.w3.org/2000/svg">
<mask id="path-1-inside-1_1384_38588" fill="white">
<path d="M22.5408 11.3438H12.1152C11.5019 11.3438 10.9137 11.5874 10.48 12.0211C10.0464 12.4547 9.80273 13.0429 9.80273 13.6562V19.0906C9.80273 19.7039 10.0464 20.2921 10.48 20.7258C10.9137 21.1595 11.5019 21.4031 12.1152 21.4031H21.45L24.5064 24.4286C24.5236 24.4472 24.5445 24.4619 24.5677 24.4718C24.5909 24.4818 24.616 24.4868 24.6413 24.4865C24.6654 24.4919 24.6904 24.4919 24.7145 24.4865C24.7597 24.4698 24.7971 24.4369 24.8192 24.3941C24.8413 24.3512 24.8466 24.3017 24.834 24.2552V13.6562C24.834 13.0463 24.593 12.461 24.1635 12.0278C23.734 11.5947 23.1507 11.3488 22.5408 11.3438ZM24.4678 23.7927L21.6851 21.037C21.6679 21.0185 21.647 21.0038 21.6238 20.9938C21.6006 20.9838 21.5755 20.9789 21.5502 20.9792H12.1152C11.6041 20.9792 11.114 20.7761 10.7526 20.4147C10.3912 20.0533 10.1882 19.5632 10.1882 19.0521V13.6562C10.1882 13.1452 10.3912 12.655 10.7526 12.2936C11.114 11.9322 11.6041 11.7292 12.1152 11.7292H22.56C23.0711 11.7292 23.5613 11.9322 23.9227 12.2936C24.2841 12.655 24.4871 13.1452 24.4871 13.6562L24.4678 23.7927Z"/>
</mask>
<path d="M22.5408 11.3438H12.1152C11.5019 11.3438 10.9137 11.5874 10.48 12.0211C10.0464 12.4547 9.80273 13.0429 9.80273 13.6562V19.0906C9.80273 19.7039 10.0464 20.2921 10.48 20.7258C10.9137 21.1595 11.5019 21.4031 12.1152 21.4031H21.45L24.5064 24.4286C24.5236 24.4472 24.5445 24.4619 24.5677 24.4718C24.5909 24.4818 24.616 24.4868 24.6413 24.4865C24.6654 24.4919 24.6904 24.4919 24.7145 24.4865C24.7597 24.4698 24.7971 24.4369 24.8192 24.3941C24.8413 24.3512 24.8466 24.3017 24.834 24.2552V13.6562C24.834 13.0463 24.593 12.461 24.1635 12.0278C23.734 11.5947 23.1507 11.3488 22.5408 11.3438ZM24.4678 23.7927L21.6851 21.037C21.6679 21.0185 21.647 21.0038 21.6238 20.9938C21.6006 20.9838 21.5755 20.9789 21.5502 20.9792H12.1152C11.6041 20.9792 11.114 20.7761 10.7526 20.4147C10.3912 20.0533 10.1882 19.5632 10.1882 19.0521V13.6562C10.1882 13.1452 10.3912 12.655 10.7526 12.2936C11.114 11.9322 11.6041 11.7292 12.1152 11.7292H22.56C23.0711 11.7292 23.5613 11.9322 23.9227 12.2936C24.2841 12.655 24.4871 13.1452 24.4871 13.6562L24.4678 23.7927Z" fill="black"/>
<path d="M22.5408 11.3438L22.5824 6.34392L22.5616 6.34375H22.5408V11.3438ZM12.1152 11.3438V6.34375V11.3438ZM9.80273 13.6562H4.80273H9.80273ZM9.80273 19.0906H4.80273H9.80273ZM21.45 21.4031L24.9676 17.8497L23.5063 16.4031H21.45V21.4031ZM24.5064 24.4286L28.1688 21.0248L28.0979 20.9485L28.0239 20.8752L24.5064 24.4286ZM24.6413 24.4865L25.7459 19.61L25.1704 19.4796L24.5803 19.4868L24.6413 24.4865ZM24.7145 24.4865L25.8192 29.3629L26.1358 29.2912L26.4406 29.1791L24.7145 24.4865ZM24.834 24.2552H19.834V24.9205L20.0079 25.5626L24.834 24.2552ZM24.834 13.6562L19.834 13.6561V13.6562H24.834ZM24.4678 23.7927L20.9496 27.3454L29.4451 35.7586L29.4678 23.8022L24.4678 23.7927ZM21.6851 21.037L18.0227 24.4409L18.0932 24.5168L18.1669 24.5897L21.6851 21.037ZM21.5502 20.9792V25.9792H21.5807L21.6112 25.9788L21.5502 20.9792ZM12.1152 11.7292V6.72917V11.7292ZM22.56 11.7292V6.72917V11.7292ZM24.4871 13.6562L29.4871 13.6658V13.6562H24.4871ZM22.5408 6.34375H12.1152V16.3438H22.5408V6.34375ZM12.1152 6.34375C10.1758 6.34375 8.31588 7.11417 6.94452 8.48553L14.0156 15.5566C13.5116 16.0606 12.828 16.3438 12.1152 16.3438V6.34375ZM6.94452 8.48553C5.57315 9.85689 4.80273 11.7169 4.80273 13.6562L14.8027 13.6563C14.8027 14.369 14.5196 15.0526 14.0156 15.5566L6.94452 8.48553ZM4.80273 13.6562V19.0906H14.8027V13.6562H4.80273ZM4.80273 19.0906C4.80273 21.03 5.57315 22.89 6.94452 24.2613L14.0156 17.1903C14.5196 17.6943 14.8027 18.3779 14.8027 19.0906H4.80273ZM6.94452 24.2613C8.31588 25.6327 10.1758 26.4031 12.1152 26.4031V16.4031C12.828 16.4031 13.5116 16.6863 14.0156 17.1903L6.94452 24.2613ZM12.1152 26.4031H21.45V16.4031H12.1152V26.4031ZM17.9325 24.9565L20.9888 27.9821L28.0239 20.8752L24.9676 17.8497L17.9325 24.9565ZM20.8439 27.8325C21.3359 28.3619 21.9334 28.7827 22.5981 29.0676L26.5373 19.8761C27.1556 20.1411 27.7113 20.5324 28.1688 21.0248L20.8439 27.8325ZM22.5981 29.0676C23.2628 29.3524 23.9795 29.4949 24.7022 29.4861L24.5803 19.4868C25.2525 19.4786 25.9191 19.6112 26.5373 19.8761L22.5981 29.0676ZM23.5366 29.3629C24.288 29.5331 25.0678 29.5331 25.8192 29.3629L23.6099 19.61C24.313 19.4507 25.0428 19.4507 25.7459 19.61L23.5366 29.3629ZM26.4406 29.1791C27.6591 28.7309 28.6654 27.8425 29.2613 26.6892L20.3771 22.099C20.9287 21.0312 21.8604 20.2088 22.9885 19.7938L26.4406 29.1791ZM29.2613 26.6892C29.8573 25.5357 29.9995 24.2009 29.66 22.9478L20.0079 25.5626C19.6937 24.4025 19.8253 23.1668 20.3771 22.099L29.2613 26.6892ZM29.834 24.2552V13.6562H19.834V24.2552H29.834ZM29.834 13.6564C29.8341 11.7275 29.072 9.87675 27.7138 8.50713L20.6132 15.5486C20.114 15.0452 19.834 14.365 19.834 13.6561L29.834 13.6564ZM27.7138 8.50713C26.3556 7.13751 24.5112 6.36 22.5824 6.34392L22.4991 16.3436C21.7902 16.3377 21.1124 16.0519 20.6132 15.5486L27.7138 8.50713ZM27.9861 20.24L25.2034 17.4843L18.1669 24.5897L20.9496 27.3454L27.9861 20.24ZM25.3476 17.6331C24.8554 17.1036 24.2579 16.6829 23.5934 16.3981L19.6542 25.5895C19.0361 25.3246 18.4804 24.9334 18.0227 24.4409L25.3476 17.6331ZM23.5934 16.3981C22.9288 16.1133 22.2121 15.9707 21.4893 15.9795L21.6112 25.9788C20.9389 25.987 20.2723 25.8544 19.6542 25.5895L23.5934 16.3981ZM21.5502 15.9792H12.1152V25.9792H21.5502V15.9792ZM12.1152 15.9792C12.9302 15.9792 13.7118 16.3029 14.2881 16.8792L7.21705 23.9503C8.51613 25.2494 10.2781 25.9792 12.1152 25.9792V15.9792ZM14.2881 16.8792C14.8644 17.4555 15.1882 18.2371 15.1882 19.0521H5.18815C5.18815 20.8893 5.91796 22.6512 7.21705 23.9503L14.2881 16.8792ZM15.1882 19.0521V13.6562H5.18815V19.0521H15.1882ZM15.1882 13.6562C15.1882 14.4712 14.8644 15.2528 14.2881 15.8291L7.21705 8.75806C5.91797 10.0571 5.18815 11.8191 5.18815 13.6562H15.1882ZM14.2881 15.8291C13.7118 16.4054 12.9302 16.7292 12.1152 16.7292V6.72917C10.2781 6.72917 8.51613 7.45898 7.21705 8.75806L14.2881 15.8291ZM12.1152 16.7292H22.56V6.72917H12.1152V16.7292ZM22.56 16.7292C21.745 16.7292 20.9634 16.4054 20.3871 15.8291L27.4582 8.75806C26.1591 7.45898 24.3972 6.72917 22.56 6.72917V16.7292ZM20.3871 15.8291C19.8109 15.2528 19.4871 14.4712 19.4871 13.6562H29.4871C29.4871 11.8191 28.7573 10.0571 27.4582 8.75806L20.3871 15.8291ZM19.4871 13.6467L19.4678 23.7832L29.4678 23.8022L29.4871 13.6658L19.4871 13.6467Z" fill="black" mask="url(#path-1-inside-1_1384_38588)"/>
<mask id="path-3-inside-2_1384_38588" fill="white">
<path d="M15.1982 7.89388V2.47878C15.1932 1.86881 14.9473 1.28555 14.5142 0.856035C14.081 0.426516 13.4957 0.185526 12.8857 0.185547H2.47949C1.8695 0.185526 1.28421 0.426516 0.851084 0.856035C0.417956 1.28555 0.172075 1.86881 0.166992 2.47878V13.0777C0.167182 13.1158 0.17863 13.1529 0.199892 13.1845C0.221154 13.216 0.251279 13.2406 0.286471 13.255C0.310576 13.2605 0.335596 13.2605 0.359701 13.255C0.384975 13.2553 0.410034 13.2503 0.433266 13.2404C0.456498 13.2304 0.477389 13.2157 0.494596 13.1972L3.55095 10.1871H12.905C13.5117 10.1821 14.092 9.93885 14.521 9.50987C14.95 9.0809 15.1932 8.50052 15.1982 7.89388ZM3.47001 9.80169C3.44474 9.80138 3.41968 9.80637 3.39645 9.81633C3.37322 9.82628 3.35232 9.84099 3.33512 9.85951L0.552409 12.6152V2.47878C0.552409 1.96768 0.75544 1.47752 1.11684 1.11612C1.47824 0.754724 1.9684 0.551693 2.47949 0.551693H12.9243C13.4287 0.561783 13.909 0.76926 14.2621 1.12957C14.6152 1.48988 14.8129 1.97429 14.8128 2.47878V7.91315C14.8128 8.42424 14.6098 8.91441 14.2484 9.2758C13.887 9.6372 13.3968 9.84023 12.8857 9.84023L3.47001 9.80169Z"/>
</mask>
<path d="M15.1982 7.89388V2.47878C15.1932 1.86881 14.9473 1.28555 14.5142 0.856035C14.081 0.426516 13.4957 0.185526 12.8857 0.185547H2.47949C1.8695 0.185526 1.28421 0.426516 0.851084 0.856035C0.417956 1.28555 0.172075 1.86881 0.166992 2.47878V13.0777C0.167182 13.1158 0.17863 13.1529 0.199892 13.1845C0.221154 13.216 0.251279 13.2406 0.286471 13.255C0.310576 13.2605 0.335596 13.2605 0.359701 13.255C0.384975 13.2553 0.410034 13.2503 0.433266 13.2404C0.456498 13.2304 0.477389 13.2157 0.494596 13.1972L3.55095 10.1871H12.905C13.5117 10.1821 14.092 9.93885 14.521 9.50987C14.95 9.0809 15.1932 8.50052 15.1982 7.89388ZM3.47001 9.80169C3.44474 9.80138 3.41968 9.80637 3.39645 9.81633C3.37322 9.82628 3.35232 9.84099 3.33512 9.85951L0.552409 12.6152V2.47878C0.552409 1.96768 0.75544 1.47752 1.11684 1.11612C1.47824 0.754724 1.9684 0.551693 2.47949 0.551693H12.9243C13.4287 0.561783 13.909 0.76926 14.2621 1.12957C14.6152 1.48988 14.8129 1.97429 14.8128 2.47878V7.91315C14.8128 8.42424 14.6098 8.91441 14.2484 9.2758C13.887 9.6372 13.3968 9.84023 12.8857 9.84023L3.47001 9.80169Z" fill="black"/>
<path d="M15.1982 7.89388L20.1981 7.93537L20.1982 7.91463V7.89388H15.1982ZM15.1982 2.47878H20.1982V2.45794L20.1981 2.43711L15.1982 2.47878ZM12.8857 0.185547V5.18555H12.8859L12.8857 0.185547ZM2.47949 0.185547L2.47932 5.18555H2.47949V0.185547ZM0.166992 2.47878L-4.83283 2.43711L-4.83301 2.45794V2.47878H0.166992ZM0.166992 13.0777H-4.83301V13.0902L-4.83295 13.1027L0.166992 13.0777ZM0.286471 13.255L-1.61347 17.88L-1.22635 18.039L-0.81818 18.1315L0.286471 13.255ZM0.359701 13.255L0.42065 8.2554L-0.169419 8.2482L-0.744951 8.37858L0.359701 13.255ZM0.494596 13.1972L-3.01388 9.63483L-3.09262 9.71238L-3.16786 9.79333L0.494596 13.1972ZM3.55095 10.1871V5.18711H1.50218L0.042473 6.62472L3.55095 10.1871ZM12.905 10.1871V15.1871H12.9258L12.9465 15.1869L12.905 10.1871ZM3.47001 9.80169L3.40906 14.8013L3.4293 14.8016L3.44955 14.8017L3.47001 9.80169ZM3.33512 9.85951L6.85339 13.4122L6.92702 13.3393L6.99757 13.2634L3.33512 9.85951ZM0.552409 12.6152H-4.44759V24.6036L4.07068 16.1679L0.552409 12.6152ZM12.9243 0.551693L13.0243 -4.44731L12.9743 -4.44831H12.9243V0.551693ZM14.8128 2.47878L9.81283 2.47778V2.47878H14.8128ZM12.8857 9.84023L12.8653 14.8402L12.8755 14.8402H12.8857V9.84023ZM20.1982 7.89388V2.47878H10.1982V7.89388H20.1982ZM20.1981 2.43711C20.182 0.508292 19.4045 -1.33605 18.0349 -2.69426L10.9934 4.40633C10.4901 3.90716 10.2043 3.22933 10.1984 2.52044L20.1981 2.43711ZM18.0349 -2.69426C16.6652 -4.05247 14.8145 -4.81452 12.8856 -4.81445L12.8859 5.18555C12.177 5.18557 11.4968 4.9055 10.9934 4.40633L18.0349 -2.69426ZM12.8857 -4.81445H2.47949V5.18555H12.8857V-4.81445ZM2.47967 -4.81445C0.550781 -4.81452 -1.30001 -4.05247 -2.66963 -2.69426L4.37179 4.40633C3.86843 4.9055 3.18823 5.18557 2.47932 5.18555L2.47967 -4.81445ZM-2.66963 -2.69426C-4.03925 -1.33605 -4.81676 0.508292 -4.83283 2.43711L5.16682 2.52044C5.16091 3.22933 4.87516 3.90716 4.37179 4.40633L-2.66963 -2.69426ZM-4.83301 2.47878V13.0777H5.16699V2.47878H-4.83301ZM-4.83295 13.1027C-4.82783 14.1279 -4.51936 15.1286 -3.94644 15.9787L4.34622 10.3902C4.87662 11.1772 5.16219 12.1037 5.16693 13.0528L-4.83295 13.1027ZM-3.94644 15.9787C-3.3735 16.8289 -2.56174 17.4904 -1.61347 17.88L2.18641 8.63007C3.0643 8.99071 3.81581 9.60314 4.34622 10.3902L-3.94644 15.9787ZM-0.81818 18.1315C-0.0668542 18.3017 0.713026 18.3017 1.46435 18.1315L-0.744951 8.37858C-0.0418335 8.2193 0.688005 8.2193 1.39112 8.37858L-0.81818 18.1315ZM0.298751 18.2547C1.02167 18.2635 1.7384 18.1209 2.40286 17.8361L-1.53633 8.64467C-0.918334 8.37981 -0.251721 8.2472 0.42065 8.2554L0.298751 18.2547ZM2.40286 17.8361C3.06725 17.5514 3.66481 17.1307 4.15705 16.6011L-3.16786 9.79333C-2.71003 9.30072 -2.15425 8.90949 -1.53633 8.64467L2.40286 17.8361ZM4.00307 16.7596L7.05943 13.7495L0.042473 6.62472L-3.01388 9.63483L4.00307 16.7596ZM3.55095 15.1871H12.905V5.18711H3.55095V15.1871ZM12.9465 15.1869C14.8648 15.171 16.7 14.4019 18.0565 13.0454L10.9855 5.97434C11.484 5.4758 12.1585 5.19313 12.8635 5.18728L12.9465 15.1869ZM18.0565 13.0454C19.413 11.6889 20.1821 9.85368 20.1981 7.93537L10.1984 7.85239C10.2043 7.14737 10.4869 6.47288 10.9855 5.97434L18.0565 13.0454ZM3.53096 4.80206C2.80802 4.79325 2.0913 4.93584 1.42685 5.2206L5.36604 14.4121C4.74807 14.6769 4.08145 14.8095 3.40906 14.8013L3.53096 4.80206ZM1.42685 5.2206C0.762372 5.50538 0.164832 5.92607 -0.327338 6.45562L6.99757 13.2634C6.53982 13.7559 5.98406 14.1472 5.36604 14.4121L1.42685 5.2206ZM-0.183152 6.30679L-2.96586 9.06252L4.07068 16.1679L6.85339 13.4122L-0.183152 6.30679ZM5.55241 12.6152V2.47878H-4.44759V12.6152H5.55241ZM5.55241 2.47878C5.55241 3.29376 5.22866 4.07537 4.65237 4.65166L-2.4187 -2.41941C-3.71778 -1.12033 -4.44759 0.6416 -4.44759 2.47878H5.55241ZM4.65237 4.65166C4.07609 5.22794 3.29448 5.55169 2.47949 5.55169V-4.44831C0.642315 -4.44831 -1.11962 -3.71849 -2.4187 -2.41941L4.65237 4.65166ZM2.47949 5.55169H12.9243V-4.44831H2.47949V5.55169ZM12.8243 5.55069C12.02 5.5346 11.2541 5.20376 10.691 4.62921L17.8332 -2.37007C16.5639 -3.66524 14.8373 -4.41104 13.0243 -4.44731L12.8243 5.55069ZM10.691 4.62921C10.128 4.05466 9.81266 3.28223 9.81283 2.47778L19.8128 2.47978C19.8132 0.666353 19.1024 -1.0749 17.8332 -2.37007L10.691 4.62921ZM9.81283 2.47878V7.91315H19.8128V2.47878H9.81283ZM9.81283 7.91315C9.81283 7.09816 10.1366 6.31655 10.7129 5.74027L17.7839 12.8113C19.083 11.5123 19.8128 9.75033 19.8128 7.91315H9.81283ZM10.7129 5.74027C11.2891 5.16399 12.0708 4.84023 12.8857 4.84023V14.8402C14.7229 14.8402 16.4848 14.1104 17.7839 12.8113L10.7129 5.74027ZM12.9062 4.84028L3.49048 4.80173L3.44955 14.8017L12.8653 14.8402L12.9062 4.84028Z" fill="black" mask="url(#path-3-inside-2_1384_38588)"/>
<mask id="path-5-inside-3_1384_38588" fill="white">
<path d="M7.68294 7.29688C7.53049 7.29688 7.38145 7.34208 7.25469 7.42678C7.12793 7.51148 7.02913 7.63187 6.97079 7.77272C6.91244 7.91357 6.89718 8.06856 6.92692 8.21809C6.95666 8.36762 7.03008 8.50497 7.13788 8.61277C7.24568 8.72057 7.38303 8.79399 7.53256 8.82373C7.68209 8.85347 7.83708 8.83821 7.97793 8.77987C8.11878 8.72152 8.23917 8.62272 8.32387 8.49596C8.40857 8.3692 8.45378 8.22016 8.45378 8.06771C8.45378 7.86327 8.37256 7.66721 8.22801 7.52265C8.08345 7.37809 7.88738 7.29688 7.68294 7.29688ZM7.68294 8.45312C7.60671 8.45312 7.5322 8.43052 7.46882 8.38817C7.40544 8.34582 7.35604 8.28563 7.32687 8.2152C7.29769 8.14477 7.29006 8.06728 7.30493 7.99252C7.3198 7.91775 7.35651 7.84908 7.41041 7.79518C7.46431 7.74128 7.53299 7.70457 7.60775 7.6897C7.68252 7.67483 7.76001 7.68246 7.83044 7.71163C7.90086 7.7408 7.96106 7.7902 8.00341 7.85358C8.04576 7.91696 8.06836 7.99148 8.06836 8.06771C8.06836 8.16993 8.02775 8.26796 7.95547 8.34024C7.88319 8.41252 7.78516 8.45312 7.68294 8.45312Z"/>
</mask>
<path d="M7.68294 7.29688C7.53049 7.29688 7.38145 7.34208 7.25469 7.42678C7.12793 7.51148 7.02913 7.63187 6.97079 7.77272C6.91244 7.91357 6.89718 8.06856 6.92692 8.21809C6.95666 8.36762 7.03008 8.50497 7.13788 8.61277C7.24568 8.72057 7.38303 8.79399 7.53256 8.82373C7.68209 8.85347 7.83708 8.83821 7.97793 8.77987C8.11878 8.72152 8.23917 8.62272 8.32387 8.49596C8.40857 8.3692 8.45378 8.22016 8.45378 8.06771C8.45378 7.86327 8.37256 7.66721 8.22801 7.52265C8.08345 7.37809 7.88738 7.29688 7.68294 7.29688ZM7.68294 8.45312C7.60671 8.45312 7.5322 8.43052 7.46882 8.38817C7.40544 8.34582 7.35604 8.28563 7.32687 8.2152C7.29769 8.14477 7.29006 8.06728 7.30493 7.99252C7.3198 7.91775 7.35651 7.84908 7.41041 7.79518C7.46431 7.74128 7.53299 7.70457 7.60775 7.6897C7.68252 7.67483 7.76001 7.68246 7.83044 7.71163C7.90086 7.7408 7.96106 7.7902 8.00341 7.85358C8.04576 7.91696 8.06836 7.99148 8.06836 8.06771C8.06836 8.16993 8.02775 8.26796 7.95547 8.34024C7.88319 8.41252 7.78516 8.45312 7.68294 8.45312Z" fill="black"/>
<path d="M7.68294 2.29688C6.5416 2.29688 5.42586 2.63532 4.47684 3.26943L10.0325 11.5841C9.33704 12.0488 8.51938 12.2969 7.68294 12.2969V2.29688ZM4.47684 3.26943C3.52781 3.90355 2.78816 4.80484 2.35139 5.85931L11.5902 9.68614C11.2701 10.4589 10.728 11.1194 10.0325 11.5841L4.47684 3.26943ZM2.35139 5.85931C1.91461 6.91379 1.80033 8.07411 2.02299 9.19354L11.8308 7.24264C11.994 8.06302 11.9103 8.91336 11.5902 9.68614L2.35139 5.85931ZM2.02299 9.19354C2.24566 10.313 2.79528 11.3412 3.60235 12.1483L10.6734 5.07724C11.2649 5.6687 11.6677 6.42227 11.8308 7.24264L2.02299 9.19354ZM3.60235 12.1483C4.40942 12.9554 5.43769 13.505 6.55711 13.7277L8.50801 3.9198C9.32838 4.08299 10.0819 4.48577 10.6734 5.07724L3.60235 12.1483ZM6.55711 13.7277C7.67654 13.9503 8.83686 13.836 9.89134 13.3993L6.06451 4.16047C6.83729 3.84037 7.68763 3.75662 8.50801 3.9198L6.55711 13.7277ZM9.89134 13.3993C10.9458 12.9625 11.8471 12.2228 12.4812 11.2738L4.16652 5.71811C4.63124 5.02261 5.29175 4.48056 6.06451 4.16047L9.89134 13.3993ZM12.4812 11.2738C13.1153 10.3248 13.4538 9.20905 13.4538 8.06771H3.45378C3.45378 7.23128 3.7018 6.41361 4.16652 5.71811L12.4812 11.2738ZM13.4538 8.06771C13.4538 6.5372 12.8458 5.06936 11.7635 3.98711L4.69247 11.0582C3.89934 10.265 3.45378 9.18934 3.45378 8.06771H13.4538ZM11.7635 3.98711C10.6813 2.90486 9.21345 2.29688 7.68294 2.29688V12.2969C6.56131 12.2969 5.4856 11.8513 4.69247 11.0582L11.7635 3.98711ZM7.68294 3.45312C8.59561 3.45312 9.4878 3.72376 10.2467 4.23082L4.69097 12.5455C5.5766 13.1373 6.61782 13.4531 7.68294 13.4531V3.45312ZM10.2467 4.23082C11.0056 4.73789 11.597 5.4586 11.9463 6.30178L2.70747 10.1286C3.11507 11.1127 3.80532 11.9538 4.69097 12.5455L10.2467 4.23082ZM11.9463 6.30178C12.2955 7.14496 12.3869 8.07279 12.2089 8.96797L2.40101 7.01707C2.1932 8.06177 2.29987 9.14459 2.70747 10.1286L11.9463 6.30178ZM12.2089 8.96797C12.0308 9.8631 11.5913 10.6853 10.9459 11.3307L3.87488 4.25964C3.12171 5.01281 2.6088 5.97241 2.40101 7.01707L12.2089 8.96797ZM10.9459 11.3307C10.3006 11.9761 9.47834 12.4156 8.5832 12.5936L6.6323 2.78577C5.58764 2.99357 4.62805 3.50647 3.87488 4.25964L10.9459 11.3307ZM8.5832 12.5936C7.68803 12.7717 6.76019 12.6803 5.91702 12.331L9.74385 3.09223C8.75983 2.68464 7.677 2.57797 6.6323 2.78577L8.5832 12.5936ZM5.91702 12.331C5.07383 11.9818 4.35313 11.3903 3.84606 10.6314L12.1608 5.07573C11.569 4.19009 10.7279 3.49983 9.74385 3.09223L5.91702 12.331ZM3.84606 10.6314C3.339 9.87256 3.06836 8.98038 3.06836 8.06771H13.0684C13.0684 7.00258 12.7525 5.96136 12.1608 5.07573L3.84606 10.6314ZM3.06836 8.06771C3.06836 6.84386 3.55453 5.67012 4.41994 4.80471L11.491 11.8758C12.501 10.8658 13.0684 9.496 13.0684 8.06771H3.06836ZM4.41994 4.80471C5.28535 3.93929 6.45909 3.45312 7.68294 3.45312V13.4531C9.11123 13.4531 10.481 12.8857 11.491 11.8758L4.41994 4.80471Z" fill="black" mask="url(#path-5-inside-3_1384_38588)"/>
<mask id="path-7-inside-4_1384_38588" fill="white">
<path d="M14.0423 15.0049C13.7755 15.0049 13.5147 15.084 13.2929 15.2322C13.071 15.3804 12.8981 15.5911 12.796 15.8376C12.6939 16.0841 12.6672 16.3553 12.7193 16.617C12.7713 16.8787 12.8998 17.119 13.0885 17.3077C13.2771 17.4964 13.5175 17.6248 13.7791 17.6769C14.0408 17.7289 14.3121 17.7022 14.5585 17.6001C14.805 17.498 15.0157 17.3251 15.1639 17.1033C15.3122 16.8814 15.3913 16.6206 15.3913 16.3538C15.3913 15.9961 15.2492 15.653 14.9962 15.4C14.7432 15.147 14.4001 15.0049 14.0423 15.0049ZM14.0423 17.3174C13.8517 17.3174 13.6655 17.2609 13.507 17.155C13.3485 17.0491 13.225 16.8986 13.1521 16.7226C13.0792 16.5465 13.0601 16.3528 13.0973 16.1659C13.1345 15.979 13.2262 15.8073 13.361 15.6725C13.4957 15.5378 13.6674 15.446 13.8543 15.4088C14.0412 15.3716 14.235 15.3907 14.411 15.4636C14.5871 15.5366 14.7376 15.6601 14.8435 15.8185C14.9493 15.977 15.0059 16.1633 15.0059 16.3538C15.0059 16.6094 14.9043 16.8545 14.7236 17.0352C14.5429 17.2159 14.2979 17.3174 14.0423 17.3174Z"/>
</mask>
<path d="M14.0423 15.0049C13.7755 15.0049 13.5147 15.084 13.2929 15.2322C13.071 15.3804 12.8981 15.5911 12.796 15.8376C12.6939 16.0841 12.6672 16.3553 12.7193 16.617C12.7713 16.8787 12.8998 17.119 13.0885 17.3077C13.2771 17.4964 13.5175 17.6248 13.7791 17.6769C14.0408 17.7289 14.3121 17.7022 14.5585 17.6001C14.805 17.498 15.0157 17.3251 15.1639 17.1033C15.3122 16.8814 15.3913 16.6206 15.3913 16.3538C15.3913 15.9961 15.2492 15.653 14.9962 15.4C14.7432 15.147 14.4001 15.0049 14.0423 15.0049ZM14.0423 17.3174C13.8517 17.3174 13.6655 17.2609 13.507 17.155C13.3485 17.0491 13.225 16.8986 13.1521 16.7226C13.0792 16.5465 13.0601 16.3528 13.0973 16.1659C13.1345 15.979 13.2262 15.8073 13.361 15.6725C13.4957 15.5378 13.6674 15.446 13.8543 15.4088C14.0412 15.3716 14.235 15.3907 14.411 15.4636C14.5871 15.5366 14.7376 15.6601 14.8435 15.8185C14.9493 15.977 15.0059 16.1633 15.0059 16.3538C15.0059 16.6094 14.9043 16.8545 14.7236 17.0352C14.5429 17.2159 14.2979 17.3174 14.0423 17.3174Z" fill="black"/>
<path d="M15.3913 16.3538H20.3913H15.3913ZM14.0423 17.3174V12.3174V17.3174ZM14.0423 10.0049C12.7866 10.0049 11.5591 10.3772 10.515 11.0749L16.0707 19.3896C15.4703 19.7908 14.7644 20.0049 14.0423 20.0049V10.0049ZM10.515 11.0749C9.47094 11.7725 8.65718 12.7641 8.17665 13.9242L17.4154 17.751C17.1391 18.4182 16.6711 18.9884 16.0707 19.3896L10.515 11.0749ZM8.17665 13.9242C7.69611 15.0843 7.57038 16.3609 7.81535 17.5925L17.6232 15.6416C17.7641 16.3498 17.6918 17.0839 17.4154 17.751L8.17665 13.9242ZM7.81535 17.5925C8.06033 18.824 8.66501 19.9553 9.55293 20.8432L16.624 13.7722C17.1346 14.2828 17.4823 14.9333 17.6232 15.6416L7.81535 17.5925ZM9.55293 20.8432C10.4408 21.7312 11.5721 22.3358 12.8037 22.5808L14.7546 12.773C15.4628 12.9138 16.1134 13.2616 16.624 13.7722L9.55293 20.8432ZM12.8037 22.5808C14.0353 22.8258 15.3118 22.7001 16.472 22.2195L12.6451 12.9807C13.3123 12.7044 14.0464 12.6321 14.7546 12.773L12.8037 22.5808ZM16.472 22.2195C17.6321 21.739 18.6237 20.9252 19.3213 19.8811L11.0066 14.3254C11.4078 13.725 11.978 13.2571 12.6451 12.9807L16.472 22.2195ZM19.3213 19.8811C20.0189 18.837 20.3913 17.6095 20.3913 16.3538H10.3913C10.3913 15.6317 10.6054 14.9258 11.0066 14.3254L19.3213 19.8811ZM20.3913 16.3538C20.3913 14.67 19.7224 13.0551 18.5317 11.8645L11.4606 18.9355C10.7759 18.2508 10.3913 17.3222 10.3913 16.3538H20.3913ZM18.5317 11.8645C17.3411 10.6738 15.7262 10.0049 14.0423 10.0049V20.0049C13.074 20.0049 12.1453 19.6202 11.4606 18.9355L18.5317 11.8645ZM14.0423 12.3174C14.8406 12.3174 15.6211 12.5541 16.2849 12.9976L10.7292 21.3123C11.7099 21.9676 12.8628 22.3174 14.0423 22.3174V12.3174ZM16.2849 12.9976C16.9487 13.4412 17.466 14.0716 17.7715 14.8092L8.53272 18.636C8.98408 19.7257 9.74844 20.6571 10.7292 21.3123L16.2849 12.9976ZM17.7715 14.8092C18.077 15.5467 18.157 16.3583 18.0012 17.1413L8.19336 15.1904C7.96326 16.3472 8.08135 17.5463 8.53272 18.636L17.7715 14.8092ZM18.0012 17.1413C17.8455 17.9243 17.4611 18.6435 16.8965 19.208L9.82546 12.137C8.99142 12.971 8.42346 14.0336 8.19336 15.1904L18.0012 17.1413ZM16.8965 19.208C16.332 19.7726 15.6128 20.157 14.8298 20.3127L12.8789 10.5049C11.7221 10.735 10.6595 11.3029 9.82546 12.137L16.8965 19.208ZM14.8298 20.3127C14.0468 20.4685 13.2352 20.3886 12.4976 20.083L16.3245 10.8442C15.2348 10.3929 14.0357 10.2748 12.8789 10.5049L14.8298 20.3127ZM12.4976 20.083C11.7601 19.7775 11.1297 19.2602 10.6861 18.5964L19.0008 13.0407C18.3455 12.06 17.4141 11.2956 16.3245 10.8442L12.4976 20.083ZM10.6861 18.5964C10.2426 17.9326 10.0059 17.1522 10.0059 16.3538H20.0059C20.0059 15.1744 19.6561 14.0214 19.0008 13.0407L10.6861 18.5964ZM10.0059 16.3538C10.0059 15.2833 10.4311 14.2566 11.1881 13.4996L18.2592 20.5707C19.3776 19.4523 20.0059 17.9355 20.0059 16.3538H10.0059ZM11.1881 13.4996C11.9451 12.7426 12.9718 12.3174 14.0423 12.3174V22.3174C15.6239 22.3174 17.1408 21.6891 18.2592 20.5707L11.1881 13.4996Z" fill="black" mask="url(#path-7-inside-4_1384_38588)"/>
<mask id="path-9-inside-5_1384_38588" fill="white">
<path d="M20.9798 15.0049C20.713 15.0049 20.4522 15.084 20.2304 15.2322C20.0085 15.3804 19.8356 15.5911 19.7335 15.8376C19.6314 16.0841 19.6047 16.3553 19.6568 16.617C19.7088 16.8787 19.8373 17.119 20.026 17.3077C20.2146 17.4964 20.455 17.6248 20.7166 17.6769C20.9783 17.7289 21.2496 17.7022 21.496 17.6001C21.7425 17.498 21.9532 17.3251 22.1014 17.1033C22.2497 16.8814 22.3288 16.6206 22.3288 16.3538C22.3288 15.9961 22.1867 15.653 21.9337 15.4C21.6807 15.147 21.3376 15.0049 20.9798 15.0049ZM20.9798 17.3174C20.7892 17.3174 20.603 17.2609 20.4445 17.155C20.2861 17.0491 20.1625 16.8986 20.0896 16.7226C20.0167 16.5465 19.9976 16.3528 20.0348 16.1659C20.072 15.979 20.1637 15.8073 20.2985 15.6725C20.4332 15.5378 20.6049 15.446 20.7918 15.4088C20.9787 15.3716 21.1725 15.3907 21.3486 15.4636C21.5246 15.5366 21.6751 15.6601 21.781 15.8185C21.8868 15.977 21.9434 16.1633 21.9434 16.3538C21.9434 16.6094 21.8418 16.8545 21.6611 17.0352C21.4804 17.2159 21.2354 17.3174 20.9798 17.3174Z"/>
</mask>
<path d="M20.9798 15.0049C20.713 15.0049 20.4522 15.084 20.2304 15.2322C20.0085 15.3804 19.8356 15.5911 19.7335 15.8376C19.6314 16.0841 19.6047 16.3553 19.6568 16.617C19.7088 16.8787 19.8373 17.119 20.026 17.3077C20.2146 17.4964 20.455 17.6248 20.7166 17.6769C20.9783 17.7289 21.2496 17.7022 21.496 17.6001C21.7425 17.498 21.9532 17.3251 22.1014 17.1033C22.2497 16.8814 22.3288 16.6206 22.3288 16.3538C22.3288 15.9961 22.1867 15.653 21.9337 15.4C21.6807 15.147 21.3376 15.0049 20.9798 15.0049ZM20.9798 17.3174C20.7892 17.3174 20.603 17.2609 20.4445 17.155C20.2861 17.0491 20.1625 16.8986 20.0896 16.7226C20.0167 16.5465 19.9976 16.3528 20.0348 16.1659C20.072 15.979 20.1637 15.8073 20.2985 15.6725C20.4332 15.5378 20.6049 15.446 20.7918 15.4088C20.9787 15.3716 21.1725 15.3907 21.3486 15.4636C21.5246 15.5366 21.6751 15.6601 21.781 15.8185C21.8868 15.977 21.9434 16.1633 21.9434 16.3538C21.9434 16.6094 21.8418 16.8545 21.6611 17.0352C21.4804 17.2159 21.2354 17.3174 20.9798 17.3174Z" fill="black"/>
<path d="M20.9798 17.3174V12.3174V17.3174ZM20.9798 10.0049C19.7241 10.0049 18.4966 10.3772 17.4525 11.0749L23.0082 19.3896C22.4078 19.7908 21.7019 20.0049 20.9798 20.0049V10.0049ZM17.4525 11.0749C16.4085 11.7725 15.5947 12.7641 15.1141 13.9242L24.3529 17.751C24.0766 18.4182 23.6086 18.9884 23.0082 19.3896L17.4525 11.0749ZM15.1141 13.9242C14.6336 15.0843 14.5079 16.3609 14.7529 17.5925L24.5607 15.6416C24.7016 16.3498 24.6293 17.0839 24.3529 17.751L15.1141 13.9242ZM14.7529 17.5925C14.9978 18.824 15.6025 19.9553 16.4904 20.8432L23.5615 13.7722C24.0721 14.2828 24.4198 14.9333 24.5607 15.6416L14.7529 17.5925ZM16.4904 20.8432C17.3784 21.7312 18.5096 22.3358 19.7412 22.5808L21.6921 12.773C22.4003 12.9138 23.0509 13.2616 23.5615 13.7722L16.4904 20.8432ZM19.7412 22.5808C20.9728 22.8258 22.2493 22.7001 23.4095 22.2195L19.5826 12.9807C20.2498 12.7044 20.9839 12.6321 21.6921 12.773L19.7412 22.5808ZM23.4095 22.2195C24.5696 21.739 25.5612 20.9252 26.2588 19.8811L17.9441 14.3254C18.3453 13.725 18.9155 13.2571 19.5826 12.9807L23.4095 22.2195ZM26.2588 19.8811C26.9564 18.8371 27.3288 17.6096 27.3288 16.3538H17.3288C17.3288 15.6317 17.5429 14.9258 17.9441 14.3254L26.2588 19.8811ZM27.3288 16.3538C27.3288 14.67 26.6599 13.0551 25.4692 11.8645L18.3981 18.9355C17.7134 18.2508 17.3288 17.3221 17.3288 16.3538H27.3288ZM25.4692 11.8645C24.2786 10.6738 22.6637 10.0049 20.9798 10.0049V20.0049C20.0115 20.0049 19.0828 19.6202 18.3981 18.9355L25.4692 11.8645ZM20.9798 12.3174C21.7782 12.3174 22.5586 12.5541 23.2224 12.9976L17.6667 21.3123C18.6474 21.9676 19.8003 22.3174 20.9798 22.3174V12.3174ZM23.2224 12.9976C23.8861 13.4412 24.4035 14.0716 24.709 14.8092L15.4702 18.636C15.9216 19.7257 16.686 20.6571 17.6667 21.3123L23.2224 12.9976ZM24.709 14.8092C25.0145 15.5467 25.0945 16.3583 24.9387 17.1413L15.1309 15.1904C14.9008 16.3472 15.0189 17.5463 15.4702 18.636L24.709 14.8092ZM24.9387 17.1413C24.783 17.9243 24.3985 18.6435 23.834 19.208L16.763 12.137C15.9289 12.971 15.361 14.0336 15.1309 15.1904L24.9387 17.1413ZM23.834 19.208C23.2695 19.7726 22.5503 20.157 21.7673 20.3127L19.8164 10.5049C18.6596 10.735 17.597 11.3029 16.763 12.137L23.834 19.208ZM21.7673 20.3127C20.9843 20.4685 20.1727 20.3886 19.4351 20.083L23.262 10.8442C22.1723 10.3929 20.9732 10.2748 19.8164 10.5049L21.7673 20.3127ZM19.4351 20.083C18.6976 19.7775 18.0672 19.2602 17.6236 18.5964L25.9383 13.0407C25.283 12.06 24.3517 11.2956 23.262 10.8442L19.4351 20.083ZM17.6236 18.5964C17.1801 17.9326 16.9434 17.1522 16.9434 16.3538H26.9434C26.9434 15.1744 26.5936 14.0214 25.9383 13.0407L17.6236 18.5964ZM16.9434 16.3538C16.9434 15.2833 17.3686 14.2566 18.1256 13.4996L25.1967 20.5707C26.3151 19.4523 26.9434 17.9355 26.9434 16.3538H16.9434ZM18.1256 13.4996C18.8826 12.7426 19.9093 12.3174 20.9798 12.3174V22.3174C22.5614 22.3174 24.0783 21.6891 25.1967 20.5707L18.1256 13.4996Z" fill="black" mask="url(#path-9-inside-5_1384_38588)"/>
<mask id="path-11-inside-6_1384_38588" fill="white">
<path d="M17.5111 15.0049C17.2443 15.0049 16.9835 15.084 16.7616 15.2322C16.5398 15.3804 16.3669 15.5911 16.2648 15.8376C16.1627 16.0841 16.136 16.3553 16.188 16.617C16.2401 16.8787 16.3686 17.119 16.5572 17.3077C16.7459 17.4964 16.9862 17.6248 17.2479 17.6769C17.5096 17.7289 17.7808 17.7022 18.0273 17.6001C18.2738 17.498 18.4845 17.3251 18.6327 17.1033C18.7809 16.8814 18.86 16.6206 18.86 16.3538C18.86 15.9961 18.7179 15.653 18.4649 15.4C18.2119 15.147 17.8688 15.0049 17.5111 15.0049ZM17.5111 17.3174C17.3205 17.3174 17.1342 17.2609 16.9758 17.155C16.8173 17.0491 16.6938 16.8986 16.6209 16.7226C16.5479 16.5465 16.5289 16.3528 16.566 16.1659C16.6032 15.979 16.695 15.8073 16.8297 15.6725C16.9645 15.5378 17.1362 15.446 17.3231 15.4088C17.51 15.3716 17.7037 15.3907 17.8798 15.4636C18.0559 15.5366 18.2063 15.6601 18.3122 15.8185C18.4181 15.977 18.4746 16.1633 18.4746 16.3538C18.4746 16.6094 18.3731 16.8545 18.1924 17.0352C18.0117 17.2159 17.7666 17.3174 17.5111 17.3174Z"/>
</mask>
<path d="M17.5111 15.0049C17.2443 15.0049 16.9835 15.084 16.7616 15.2322C16.5398 15.3804 16.3669 15.5911 16.2648 15.8376C16.1627 16.0841 16.136 16.3553 16.188 16.617C16.2401 16.8787 16.3686 17.119 16.5572 17.3077C16.7459 17.4964 16.9862 17.6248 17.2479 17.6769C17.5096 17.7289 17.7808 17.7022 18.0273 17.6001C18.2738 17.498 18.4845 17.3251 18.6327 17.1033C18.7809 16.8814 18.86 16.6206 18.86 16.3538C18.86 15.9961 18.7179 15.653 18.4649 15.4C18.2119 15.147 17.8688 15.0049 17.5111 15.0049ZM17.5111 17.3174C17.3205 17.3174 17.1342 17.2609 16.9758 17.155C16.8173 17.0491 16.6938 16.8986 16.6209 16.7226C16.5479 16.5465 16.5289 16.3528 16.566 16.1659C16.6032 15.979 16.695 15.8073 16.8297 15.6725C16.9645 15.5378 17.1362 15.446 17.3231 15.4088C17.51 15.3716 17.7037 15.3907 17.8798 15.4636C18.0559 15.5366 18.2063 15.6601 18.3122 15.8185C18.4181 15.977 18.4746 16.1633 18.4746 16.3538C18.4746 16.6094 18.3731 16.8545 18.1924 17.0352C18.0117 17.2159 17.7666 17.3174 17.5111 17.3174Z" fill="black"/>
<path d="M17.5111 17.3174V12.3174V17.3174ZM17.5111 10.0049C16.2554 10.0049 15.0279 10.3772 13.9838 11.0749L19.5395 19.3896C18.9391 19.7908 18.2332 20.0049 17.5111 20.0049V10.0049ZM13.9838 11.0749C12.9397 11.7725 12.1259 12.7641 11.6454 13.9242L20.8842 17.751C20.6079 18.4182 20.1399 18.9884 19.5395 19.3896L13.9838 11.0749ZM11.6454 13.9242C11.1649 15.0843 11.0391 16.3609 11.2841 17.5925L21.092 15.6416C21.2328 16.3498 21.1605 17.0839 20.8842 17.751L11.6454 13.9242ZM11.2841 17.5925C11.5291 18.824 12.1338 19.9553 13.0217 20.8432L20.0927 13.7722C20.6034 14.2828 20.9511 14.9333 21.092 15.6416L11.2841 17.5925ZM13.0217 20.8432C13.9096 21.7312 15.0409 22.3358 16.2724 22.5808L18.2234 12.773C18.9316 12.9138 19.5821 13.2616 20.0927 13.7722L13.0217 20.8432ZM16.2724 22.5808C17.504 22.8258 18.7806 22.7001 19.9407 22.2195L16.1139 12.9807C16.781 12.7044 17.5151 12.6321 18.2234 12.773L16.2724 22.5808ZM19.9407 22.2195C21.1008 21.739 22.0924 20.9252 22.79 19.8811L14.4753 14.3254C14.8765 13.725 15.4467 13.2571 16.1139 12.9807L19.9407 22.2195ZM22.79 19.8811C23.4877 18.837 23.86 17.6095 23.86 16.3538H13.86C13.86 15.6317 14.0742 14.9258 14.4753 14.3254L22.79 19.8811ZM23.86 16.3538C23.86 14.67 23.1911 13.0551 22.0005 11.8645L14.9294 18.9355C14.2447 18.2508 13.86 17.3222 13.86 16.3538H23.86ZM22.0005 11.8645C20.8098 10.6738 19.1949 10.0049 17.5111 10.0049V20.0049C16.5427 20.0049 15.6141 19.6202 14.9294 18.9355L22.0005 11.8645ZM17.5111 12.3174C18.3094 12.3174 19.0898 12.5541 19.7536 12.9976L14.1979 21.3123C15.1786 21.9676 16.3316 22.3174 17.5111 22.3174V12.3174ZM19.7536 12.9976C20.4174 13.4412 20.9348 14.0716 21.2403 14.8092L12.0015 18.636C12.4528 19.7257 13.2172 20.6571 14.1979 21.3123L19.7536 12.9976ZM21.2403 14.8092C21.5458 15.5467 21.6257 16.3583 21.47 17.1413L11.6621 15.1904C11.432 16.3472 11.5501 17.5463 12.0015 18.636L21.2403 14.8092ZM21.47 17.1413C21.3142 17.9243 20.9298 18.6435 20.3653 19.208L13.2942 12.137C12.4602 12.971 11.8922 14.0336 11.6621 15.1904L21.47 17.1413ZM20.3653 19.208C19.8007 19.7726 19.0815 20.157 18.2985 20.3127L16.3476 10.5049C15.1909 10.735 14.1282 11.3029 13.2942 12.137L20.3653 19.208ZM18.2985 20.3127C17.5156 20.4685 16.704 20.3886 15.9664 20.083L19.7932 10.8442C18.7035 10.3929 17.5044 10.2748 16.3476 10.5049L18.2985 20.3127ZM15.9664 20.083C15.2288 19.7775 14.5984 19.2602 14.1549 18.5964L22.4696 13.0407C21.8143 12.06 20.8829 11.2956 19.7932 10.8442L15.9664 20.083ZM14.1549 18.5964C13.7113 17.9326 13.4746 17.1522 13.4746 16.3538H23.4746C23.4746 15.1744 23.1249 14.0214 22.4696 13.0407L14.1549 18.5964ZM13.4746 16.3538C13.4746 15.2833 13.8999 14.2566 14.6569 13.4996L21.7279 20.5707C22.8463 19.4523 23.4746 17.9355 23.4746 16.3538H13.4746ZM14.6569 13.4996C15.4139 12.7426 16.4405 12.3174 17.5111 12.3174V22.3174C19.0927 22.3174 20.6095 21.6891 21.7279 20.5707L14.6569 13.4996Z" fill="black" mask="url(#path-11-inside-6_1384_38588)"/>
<mask id="path-13-inside-7_1384_38588" fill="white">
<path d="M8.17978 1.37281C7.64033 1.25475 7.07643 1.33363 6.59008 1.59518C6.10373 1.85674 5.72703 2.2837 5.52811 2.79885C5.48274 2.91142 5.46638 3.03359 5.48052 3.15413C5.49466 3.27467 5.53886 3.38973 5.60905 3.48875C5.68744 3.60721 5.79704 3.70171 5.92575 3.76181C6.05446 3.82191 6.19728 3.84527 6.33843 3.82932C6.47958 3.81337 6.61358 3.75873 6.72564 3.67142C6.83769 3.58412 6.92344 3.46755 6.97342 3.33458C7.04801 3.15809 7.18566 3.01571 7.35952 2.93519C7.53338 2.85467 7.731 2.84179 7.91384 2.89906C8.03493 2.93719 8.14473 3.00463 8.23348 3.0954C8.32223 3.18617 8.38719 3.29746 8.42259 3.41937C8.4667 3.57442 8.46109 3.73939 8.40655 3.89108C8.35202 4.04277 8.2513 4.17355 8.11857 4.26502C7.98583 4.35648 7.82776 4.40404 7.6666 4.40099C7.50543 4.39794 7.34927 4.34444 7.22009 4.24802C7.1919 4.22623 7.15813 4.21286 7.12267 4.20945C7.0872 4.20604 7.0515 4.21273 7.01967 4.22875C6.98752 4.24499 6.96045 4.26976 6.94142 4.30035C6.92239 4.33093 6.91213 4.36616 6.91176 4.40218V6.32927C6.91176 6.53371 6.99297 6.72977 7.13753 6.87433C7.28209 7.01889 7.47815 7.1001 7.68259 7.1001C7.88703 7.1001 8.08309 7.01889 8.22765 6.87433C8.37221 6.72977 8.45342 6.53371 8.45342 6.32927V5.81281C8.9278 5.64566 9.33475 5.32842 9.61258 4.90916C9.89041 4.4899 10.024 3.99149 9.99304 3.48949C9.9621 2.98748 9.76834 2.50925 9.44113 2.12728C9.11391 1.74531 8.67109 1.48044 8.17978 1.37281ZM8.20676 5.48906C8.16673 5.50073 8.13157 5.52508 8.10655 5.55843C8.08153 5.59179 8.06801 5.63236 8.06801 5.67406V6.33312C8.06801 6.43534 8.0274 6.53337 7.95512 6.60565C7.88284 6.67793 7.78481 6.71854 7.68259 6.71854C7.58037 6.71854 7.48234 6.67793 7.41006 6.60565C7.33778 6.53337 7.29717 6.43534 7.29717 6.33312V4.72208C7.49691 4.79286 7.71226 4.80739 7.91969 4.76408C8.12713 4.72078 8.31867 4.6213 8.4734 4.47651C8.62813 4.33172 8.7401 4.1472 8.79707 3.9431C8.85404 3.73899 8.85382 3.52315 8.79645 3.31916C8.73119 3.08873 8.59598 2.88424 8.4095 2.73395C8.22302 2.58367 7.99448 2.49499 7.75544 2.48019C7.5164 2.46538 7.27865 2.52517 7.07505 2.65129C6.87145 2.77741 6.71204 2.96365 6.61884 3.18427C6.58883 3.26163 6.53575 3.3279 6.46681 3.37409C6.39787 3.42028 6.31639 3.44416 6.23342 3.4425C6.16929 3.44281 6.10609 3.42711 6.04956 3.39682C5.99303 3.36654 5.94495 3.32262 5.90967 3.26906C5.87559 3.2217 5.85387 3.16658 5.84647 3.1087C5.83906 3.05083 5.84622 2.99202 5.86728 2.9376C6.03334 2.50802 6.34776 2.15211 6.75358 1.93435C7.15941 1.71659 7.62981 1.65138 8.07957 1.75052C8.49979 1.8423 8.87722 2.07203 9.15178 2.40313C9.42633 2.73423 9.58223 3.14767 9.59464 3.57761C9.60705 4.00756 9.47526 4.4293 9.22026 4.77568C8.96527 5.12207 8.60171 5.37319 8.18749 5.48906H8.20676Z"/>
</mask>
<path d="M8.17978 1.37281C7.64033 1.25475 7.07643 1.33363 6.59008 1.59518C6.10373 1.85674 5.72703 2.2837 5.52811 2.79885C5.48274 2.91142 5.46638 3.03359 5.48052 3.15413C5.49466 3.27467 5.53886 3.38973 5.60905 3.48875C5.68744 3.60721 5.79704 3.70171 5.92575 3.76181C6.05446 3.82191 6.19728 3.84527 6.33843 3.82932C6.47958 3.81337 6.61358 3.75873 6.72564 3.67142C6.83769 3.58412 6.92344 3.46755 6.97342 3.33458C7.04801 3.15809 7.18566 3.01571 7.35952 2.93519C7.53338 2.85467 7.731 2.84179 7.91384 2.89906C8.03493 2.93719 8.14473 3.00463 8.23348 3.0954C8.32223 3.18617 8.38719 3.29746 8.42259 3.41937C8.4667 3.57442 8.46109 3.73939 8.40655 3.89108C8.35202 4.04277 8.2513 4.17355 8.11857 4.26502C7.98583 4.35648 7.82776 4.40404 7.6666 4.40099C7.50543 4.39794 7.34927 4.34444 7.22009 4.24802C7.1919 4.22623 7.15813 4.21286 7.12267 4.20945C7.0872 4.20604 7.0515 4.21273 7.01967 4.22875C6.98752 4.24499 6.96045 4.26976 6.94142 4.30035C6.92239 4.33093 6.91213 4.36616 6.91176 4.40218V6.32927C6.91176 6.53371 6.99297 6.72977 7.13753 6.87433C7.28209 7.01889 7.47815 7.1001 7.68259 7.1001C7.88703 7.1001 8.08309 7.01889 8.22765 6.87433C8.37221 6.72977 8.45342 6.53371 8.45342 6.32927V5.81281C8.9278 5.64566 9.33475 5.32842 9.61258 4.90916C9.89041 4.4899 10.024 3.99149 9.99304 3.48949C9.9621 2.98748 9.76834 2.50925 9.44113 2.12728C9.11391 1.74531 8.67109 1.48044 8.17978 1.37281ZM8.20676 5.48906C8.16673 5.50073 8.13157 5.52508 8.10655 5.55843C8.08153 5.59179 8.06801 5.63236 8.06801 5.67406V6.33312C8.06801 6.43534 8.0274 6.53337 7.95512 6.60565C7.88284 6.67793 7.78481 6.71854 7.68259 6.71854C7.58037 6.71854 7.48234 6.67793 7.41006 6.60565C7.33778 6.53337 7.29717 6.43534 7.29717 6.33312V4.72208C7.49691 4.79286 7.71226 4.80739 7.91969 4.76408C8.12713 4.72078 8.31867 4.6213 8.4734 4.47651C8.62813 4.33172 8.7401 4.1472 8.79707 3.9431C8.85404 3.73899 8.85382 3.52315 8.79645 3.31916C8.73119 3.08873 8.59598 2.88424 8.4095 2.73395C8.22302 2.58367 7.99448 2.49499 7.75544 2.48019C7.5164 2.46538 7.27865 2.52517 7.07505 2.65129C6.87145 2.77741 6.71204 2.96365 6.61884 3.18427C6.58883 3.26163 6.53575 3.3279 6.46681 3.37409C6.39787 3.42028 6.31639 3.44416 6.23342 3.4425C6.16929 3.44281 6.10609 3.42711 6.04956 3.39682C5.99303 3.36654 5.94495 3.32262 5.90967 3.26906C5.87559 3.2217 5.85387 3.16658 5.84647 3.1087C5.83906 3.05083 5.84622 2.99202 5.86728 2.9376C6.03334 2.50802 6.34776 2.15211 6.75358 1.93435C7.15941 1.71659 7.62981 1.65138 8.07957 1.75052C8.49979 1.8423 8.87722 2.07203 9.15178 2.40313C9.42633 2.73423 9.58223 3.14767 9.59464 3.57761C9.60705 4.00756 9.47526 4.4293 9.22026 4.77568C8.96527 5.12207 8.60171 5.37319 8.18749 5.48906H8.20676Z" fill="black"/>
<path d="M8.17978 1.37281L9.24974 -3.51137L9.24876 -3.51158L8.17978 1.37281ZM5.52811 2.79885L10.1657 4.66786L10.1793 4.63398L10.1925 4.59991L5.52811 2.79885ZM5.60905 3.48875L9.77877 0.729498L9.73449 0.662581L9.68808 0.59712L5.60905 3.48875ZM6.97342 3.33458L2.36785 1.38813L2.32861 1.48098L2.29314 1.57533L6.97342 3.33458ZM7.91384 2.89906L9.41554 -1.87011L9.40826 -1.87239L7.91384 2.89906ZM8.42259 3.41937L13.2318 2.05124L13.2281 2.03822L13.2243 2.02521L8.42259 3.41937ZM7.22009 4.24802L4.16213 8.20388L4.19549 8.22967L4.22927 8.25489L7.22009 4.24802ZM7.01967 4.22875L4.77151 -0.237327L4.76503 -0.234054L7.01967 4.22875ZM6.91176 4.40218L1.91202 4.35115L1.91176 4.37667V4.40218H6.91176ZM7.68259 7.1001V12.1001V7.1001ZM8.45342 5.81281L6.7918 1.09699L3.45342 2.27327V5.81281H8.45342ZM8.20676 5.48906L9.60676 10.2891L8.20676 0.489059V5.48906ZM7.29717 4.72208L8.96728 0.0092535L2.29717 -2.35447V4.72208H7.29717ZM8.79645 3.31916L13.6097 1.96532L13.6072 1.95674L8.79645 3.31916ZM6.61884 3.18427L2.01297 1.23851L1.98416 1.30672L1.95738 1.37575L6.61884 3.18427ZM6.23342 3.4425L6.33386 -1.55649L6.27158 -1.55775L6.20929 -1.55745L6.23342 3.4425ZM5.90967 3.26906L10.0855 0.519117L10.0286 0.432673L9.96816 0.34866L5.90967 3.26906ZM5.86728 2.9376L10.5302 4.74248L10.531 4.74038L5.86728 2.9376ZM8.07957 1.75052L7.00326 6.63331L7.01264 6.63536L8.07957 1.75052ZM8.18749 5.48906L6.84056 0.673898L8.18749 10.4891V5.48906ZM9.24876 -3.51158C7.54292 -3.88492 5.75979 -3.63549 4.22187 -2.80841L8.95829 5.99877C8.39307 6.30274 7.73773 6.39441 7.1108 6.2572L9.24876 -3.51158ZM4.22187 -2.80841C2.68395 -1.98133 1.49277 -0.631205 0.863759 0.997792L10.1925 4.59991C9.96129 5.1986 9.5235 5.6948 8.95829 5.99877L4.22187 -2.80841ZM0.89057 0.929839C0.532135 1.81922 0.402852 2.78438 0.51458 3.73673L10.4465 2.57153C10.5299 3.28279 10.4334 4.00363 10.1657 4.66786L0.89057 0.929839ZM0.51458 3.73673C0.626308 4.68908 0.975472 5.59811 1.53002 6.38037L9.68808 0.59712C10.1022 1.18136 10.363 1.86027 10.4465 2.57153L0.51458 3.73673ZM1.43933 6.248C2.0262 7.13486 2.84672 7.84231 3.81032 8.29225L8.04119 -0.76864C8.74736 -0.4389 9.34868 0.0795614 9.77877 0.729498L1.43933 6.248ZM3.81032 8.29225C4.77391 8.74219 5.84309 8.91711 6.89983 8.7977L5.77703 -1.13906C6.55146 -1.22657 7.33501 -1.09838 8.04119 -0.76864L3.81032 8.29225ZM6.89983 8.7977C7.95657 8.6783 8.95976 8.26921 9.79866 7.6156L3.65262 -0.272757C4.2674 -0.751751 5.00259 -1.05155 5.77703 -1.13906L6.89983 8.7977ZM9.79866 7.6156C10.6376 6.96199 11.2795 6.08929 11.6537 5.09383L2.29314 1.57533C2.56736 0.845808 3.03783 0.206243 3.65262 -0.272757L9.79866 7.6156ZM11.579 5.28103C11.1698 6.24933 10.4146 7.03051 9.4607 7.47226L5.25833 -1.60188C3.95673 -0.999088 2.92626 0.066852 2.36785 1.38813L11.579 5.28103ZM9.4607 7.47226C8.50681 7.91402 7.42259 7.9847 6.41942 7.67051L9.40826 -1.87239C8.03941 -2.30111 6.55995 -2.20468 5.25833 -1.60188L9.4607 7.47226ZM6.41214 7.66822C5.74779 7.45903 5.14539 7.089 4.65845 6.59099L11.8085 -0.400186C11.1441 -1.07973 10.3221 -1.58466 9.41554 -1.8701L6.41214 7.66822ZM4.65845 6.59099C4.1715 6.09298 3.8151 5.48241 3.62089 4.81353L13.2243 2.02521C12.9593 1.1125 12.473 0.279366 11.8085 -0.400186L4.65845 6.59099ZM3.61341 4.7875C3.37142 3.93687 3.40218 3.03176 3.7014 2.19948L13.1117 5.58268C13.52 4.44702 13.562 3.21196 13.2318 2.05124L3.61341 4.7875ZM3.7014 2.19948C4.00061 1.36722 4.55321 0.649717 5.28144 0.147888L10.9557 8.38214C11.9494 7.69738 12.7034 6.71832 13.1117 5.58268L3.7014 2.19948ZM5.28144 0.147888C6.00969 -0.353947 6.87693 -0.614847 7.76117 -0.598118L7.57202 9.40009C8.7786 9.42292 9.96198 9.06691 10.9557 8.38214L5.28144 0.147888ZM7.76117 -0.598118C8.64542 -0.581389 9.50217 -0.287871 10.2109 0.241148L4.22927 8.25489C5.19637 8.97675 6.36544 9.37726 7.57202 9.40009L7.76117 -0.598118ZM10.2781 0.292152C9.50363 -0.306491 8.57564 -0.673905 7.60123 -0.767599L6.6441 9.18649C5.74062 9.09962 4.88018 8.75895 4.16213 8.20388L10.2781 0.292152ZM7.60123 -0.767599C6.62679 -0.861295 5.6458 -0.677425 4.77151 -0.237322L9.26783 8.69482C8.4572 9.10288 7.54761 9.27337 6.6441 9.18649L7.60123 -0.767599ZM4.76503 -0.234054C3.915 0.195388 3.1993 0.85018 2.69613 1.65884L11.1867 6.94186C10.7216 7.68934 10.06 8.29459 9.27432 8.69155L4.76503 -0.234054ZM2.69613 1.65884C2.19297 2.46749 1.92174 3.39884 1.91202 4.35115L11.9115 4.45322C11.9025 5.33348 11.6518 6.19438 11.1867 6.94186L2.69613 1.65884ZM1.91176 4.40218V6.32927H11.9118V4.40218H1.91176ZM1.91176 6.32927C1.91176 7.85978 2.51975 9.32762 3.602 10.4099L10.6731 3.33879C11.4662 4.13192 11.9118 5.20763 11.9118 6.32927H1.91176ZM3.602 10.4099C4.68423 11.4921 6.15206 12.1001 7.68259 12.1001V2.1001C8.80425 2.1001 9.87995 2.54568 10.6731 3.33879L3.602 10.4099ZM7.68259 12.1001C9.21312 12.1001 10.681 11.4921 11.7632 10.4099L4.69212 3.33879C5.48523 2.54568 6.56094 2.1001 7.68259 2.1001V12.1001ZM11.7632 10.4099C12.8454 9.32762 13.4534 7.85978 13.4534 6.32927H3.45342C3.45342 5.20763 3.89899 4.13192 4.69212 3.33879L11.7632 10.4099ZM13.4534 6.32927V5.81281H3.45342V6.32927H13.4534ZM10.1151 10.5286C11.6151 10.0001 12.9019 8.9969 13.7805 7.67114L5.44467 2.14717C5.76756 1.65993 6.2405 1.29124 6.7918 1.09699L10.1151 10.5286ZM13.7805 7.67114C14.659 6.34538 15.0814 4.76933 14.9836 3.18191L5.00251 3.79706C4.96655 3.21365 5.12178 2.63442 5.44467 2.14717L13.7805 7.67114ZM14.9836 3.18191C14.8857 1.59449 14.273 0.082233 13.2383 -1.12561L5.64393 5.38017C5.26365 4.93626 5.03847 4.38048 5.00251 3.79706L14.9836 3.18191ZM13.2383 -1.12561C12.2036 -2.33345 10.8033 -3.17103 9.24974 -3.51137L7.10982 6.25699C6.53883 6.1319 6.0242 5.82407 5.64393 5.38017L13.2383 -1.12561ZM6.80676 0.689059C5.72818 1.00364 4.7807 1.65957 4.10655 2.55843L12.1065 8.55843C11.4824 9.39058 10.6053 9.99782 9.60676 10.2891L6.80676 0.689059ZM4.10655 2.55843C3.43239 3.45732 3.06801 4.55057 3.06801 5.67406H13.068C13.068 6.71415 12.7307 7.72626 12.1065 8.55843L4.10655 2.55843ZM3.06801 5.67406V6.33312H13.068V5.67406H3.06801ZM3.06801 6.33312C3.06801 5.10927 3.55418 3.93553 4.41959 3.07012L11.4907 10.1412C12.5006 9.13122 13.068 7.76141 13.068 6.33312H3.06801ZM4.41959 3.07012C5.285 2.20471 6.45874 1.71854 7.68259 1.71854V11.7185C9.11088 11.7185 10.4807 11.1512 11.4907 10.1412L4.41959 3.07012ZM7.68259 1.71854C8.90644 1.71854 10.0802 2.20471 10.9456 3.07012L3.87453 10.1412C4.8845 11.1512 6.2543 11.7185 7.68259 11.7185V1.71854ZM10.9456 3.07012C11.811 3.93553 12.2972 5.10927 12.2972 6.33312H2.29717C2.29717 7.76141 2.86456 9.13122 3.87453 10.1412L10.9456 3.07012ZM12.2972 6.33312V4.72208H2.29717V6.33312H12.2972ZM5.62706 9.43491C6.69052 9.81177 7.83709 9.88914 8.94155 9.65855L6.89784 -0.130383C7.58742 -0.274353 8.3033 -0.226045 8.96728 0.0092535L5.62706 9.43491ZM8.94155 9.65855C10.046 9.42797 11.0658 8.89829 11.8897 8.12741L5.05713 0.825606C5.57149 0.344302 6.20824 0.0135895 6.89784 -0.130383L8.94155 9.65855ZM11.8897 8.12741C12.7135 7.35653 13.3096 6.37407 13.613 5.28734L3.98116 2.59885C4.17055 1.92033 4.54276 1.30692 5.05713 0.825606L11.8897 8.12741ZM13.613 5.28734C13.9163 4.20062 13.9152 3.05143 13.6097 1.96532L3.98322 4.673C3.79248 3.99487 3.79176 3.27736 3.98116 2.59885L13.613 5.28734ZM13.6072 1.95674C13.2598 0.729824 12.5399 -0.358926 11.547 -1.15911L5.27198 6.62702C4.65206 6.12741 4.20259 5.44763 3.98565 4.68159L13.6072 1.95674ZM11.547 -1.15911C10.5542 -1.95929 9.33731 -2.43141 8.06458 -2.51025L7.4463 7.47062C6.65164 7.42139 5.89189 7.12662 5.27198 6.62702L11.547 -1.15911ZM8.06458 -2.51025C6.79185 -2.58909 5.52604 -2.27076 4.442 -1.59924L9.70811 6.90182C9.03127 7.3211 8.24095 7.51985 7.4463 7.47062L8.06458 -2.51025ZM4.442 -1.59924C3.35796 -0.927719 2.50921 0.0638587 2.01297 1.23851L11.2247 5.13003C10.9149 5.86343 10.3849 6.48254 9.70811 6.90182L4.442 -1.59924ZM1.95738 1.37575C2.29821 0.497235 2.90089 -0.255254 3.68373 -0.779757L9.24989 7.52794C10.1706 6.91106 10.8794 6.02603 11.2803 4.99278L1.95738 1.37575ZM3.68373 -0.779757C4.46659 -1.30427 5.39176 -1.57542 6.33386 -1.55649L6.13299 8.44149C7.24103 8.46375 8.32915 8.14484 9.24989 7.52794L3.68373 -0.779757ZM6.20929 -1.55745C6.97717 -1.56115 7.73382 -1.37318 8.41067 -1.01058L3.68846 7.80422C4.47837 8.22739 5.36141 8.44676 6.25756 8.44244L6.20929 -1.55745ZM8.41067 -1.01058C9.08753 -0.647976 9.66321 -0.122196 10.0855 0.519117L1.73381 6.019C2.22668 6.76744 2.89853 7.38105 3.68846 7.80422L8.41067 -1.01058ZM9.96816 0.34866C10.4199 0.976505 10.7079 1.70713 10.8061 2.47434L0.886871 3.74307C0.999808 4.62603 1.33125 5.46689 1.85119 6.18946L9.96816 0.34866ZM10.8061 2.47434C10.9042 3.24157 10.8094 4.02116 10.5302 4.74248L1.2044 1.13272C0.883074 1.96287 0.773931 2.86008 0.886871 3.74307L10.8061 2.47434ZM10.531 4.74038C10.2662 5.42539 9.7648 5.99291 9.11767 6.34015L4.38949 -2.47145C2.93071 -1.68868 1.8005 -0.40935 1.20359 1.13482L10.531 4.74038ZM9.11767 6.34015C8.47054 6.6874 7.72044 6.79139 7.00326 6.6333L9.15588 -3.13226C7.53917 -3.48864 5.84828 -3.25421 4.38949 -2.47145L9.11767 6.34015ZM7.01264 6.63536C6.34256 6.489 5.74071 6.12268 5.3029 5.5947L13.0007 -0.788445C12.0137 -1.97862 10.657 -2.8044 9.1465 -3.13432L7.01264 6.63536ZM5.3029 5.5947C4.8651 5.06674 4.61651 4.40748 4.59672 3.72188L14.5926 3.43334C14.5479 1.88785 13.9876 0.401719 13.0007 -0.788445L5.3029 5.5947ZM4.59672 3.72188C4.57693 3.03629 4.78707 2.36379 5.19369 1.81144L13.2468 7.73993C14.1635 6.49481 14.6372 4.97882 14.5926 3.43334L4.59672 3.72188ZM5.19369 1.81144C5.60032 1.2591 6.18004 0.858663 6.84056 0.673898L9.53442 10.3042C11.0234 9.88771 12.3302 8.98505 13.2468 7.73993L5.19369 1.81144ZM8.18749 10.4891H8.20676V0.489059H8.18749V10.4891Z" fill="black" mask="url(#path-13-inside-7_1384_38588)"/>
</svg>
