<svg width="10" height="7" viewBox="0 0 10 7" fill="none" xmlns="http://www.w3.org/2000/svg">
<path fill-rule="evenodd" clip-rule="evenodd" d="M0.847137 3.23103C1.7363 0.937283 4.3163 -0.20105 6.60964 0.688116C7.77676 1.14069 8.69956 2.0635 9.15214 3.23062C9.17098 3.27913 9.17098 3.33294 9.15214 3.38145C8.26297 5.67478 5.68297 6.81312 3.38964 5.92395C2.22252 5.47137 1.29971 4.54857 0.847137 3.38145C0.828298 3.33294 0.828298 3.27913 0.847137 3.23062V3.23103ZM3.53979 5.53521C5.59354 6.33146 7.90063 5.33438 8.73354 3.30605C8.31272 2.28263 7.49031 1.47679 6.45854 1.07688C4.40563 0.28063 2.09854 1.27771 1.26562 3.30605C1.68644 4.32946 2.50886 5.13531 3.54063 5.53521H3.53979Z" fill="white"/>
<path fill-rule="evenodd" clip-rule="evenodd" d="M4.99967 4.97274C4.0792 4.97274 3.33301 4.22655 3.33301 3.30607C3.33301 2.3856 4.0792 1.6394 4.99967 1.6394C5.92015 1.6394 6.66634 2.3856 6.66634 3.30607C6.66634 4.22655 5.92015 4.97274 4.99967 4.97274ZM5 4.55615C5.69036 4.55615 6.25 3.99651 6.25 3.30615C6.25 2.6158 5.69036 2.05615 5 2.05615C4.30964 2.05615 3.75 2.6158 3.75 3.30615C3.75 3.99651 4.30964 4.55615 5 4.55615Z" fill="white"/>
</svg>
