<svg width="10" height="10" viewBox="0 0 10 10" fill="none" xmlns="http://www.w3.org/2000/svg">
<path fill-rule="evenodd" clip-rule="evenodd" d="M2.9345 4.64877L0.9065 5.69227C0.656779 5.82093 0.499893 6.07835 0.5 6.35927V6.74927C0.5 7.16348 0.835786 7.49927 1.25 7.49927C1.38807 7.49927 1.5 7.6112 1.5 7.74927C1.5 7.88734 1.38807 7.99927 1.25 7.99927C0.559644 7.99927 1.09979e-09 7.43962 1.09979e-09 6.74927V6.35927C-1.95883e-05 5.89102 0.261657 5.46203 0.678 5.24777L2.357 4.38377C1.62606 3.74596 1.33008 2.74287 1.59769 1.81042C1.86531 0.877973 2.64818 0.184518 3.60612 0.03141C4.56405 -0.121698 5.52408 0.293186 6.069 1.09577C6.12082 1.16961 6.12884 1.26565 6.08999 1.34706C6.05113 1.42848 5.97142 1.48265 5.88142 1.4888C5.79141 1.49495 5.70508 1.45214 5.6555 1.37677C5.19642 0.700522 4.37205 0.371671 3.57357 0.54626C2.77508 0.720849 2.16318 1.36374 2.02822 2.16987C1.89327 2.976 2.26242 3.78313 2.9605 4.20827C3.03904 4.2565 3.08468 4.34404 3.07924 4.43605C3.0738 4.52806 3.01818 4.60962 2.9345 4.64827V4.64877ZM4.9805 6.78271L2.94 7.71021C2.67204 7.83185 2.49997 8.09894 2.5 8.39321V8.74921C2.5 8.94813 2.57902 9.13889 2.71967 9.27954C2.86032 9.4202 3.05109 9.49921 3.25 9.49921H8.75C9.16421 9.49921 9.5 9.16343 9.5 8.74921V8.39321C9.50002 8.09894 9.32796 7.83185 9.06 7.71021L7.0195 6.78271C6.69873 6.92596 6.3513 6.99974 6 6.99921C5.6487 6.99974 5.30126 6.92596 4.9805 6.78271ZM4.461 6.46978C3.62011 5.81291 3.28882 4.69473 3.63617 3.68581C3.98353 2.67688 4.93296 1.99963 6 1.99963C7.06704 1.99963 8.01647 2.67688 8.36383 3.68581C8.71118 4.69473 8.37989 5.81291 7.539 6.46978L9.2675 7.25478C9.71399 7.45785 10.0005 7.90328 10 8.39378V8.74978C10 9.0813 9.8683 9.39924 9.63388 9.63366C9.39946 9.86808 9.08152 9.99978 8.75 9.99978H3.25C2.91839 9.99978 2.60037 9.86802 2.36594 9.63349C2.1315 9.39896 1.99987 9.08089 2 8.74928V8.39328C1.99994 7.90314 2.28634 7.4582 2.7325 7.25528L4.461 6.46978ZM6 6.49927C7.10457 6.49927 8 5.60384 8 4.49927C8 3.3947 7.10457 2.49927 6 2.49927C4.89543 2.49927 4 3.3947 4 4.49927C4 5.60384 4.89543 6.49927 6 6.49927Z" fill="#ACD037"/>
</svg>
