<svg width="20" height="20" viewBox="0 0 20 20" fill="none" xmlns="http://www.w3.org/2000/svg">
<path d="M19 10.0012C19 12.1043 18.2785 14.0389 17.068 15.5723C15.4209 17.6612 12.8671 19 10 19C7.13291 19 4.57911 17.6588 2.93196 15.5723C1.72152 14.0389 1 12.1043 1 10.0012C1 5.0306 5.02769 1 10 1C14.9723 1 19 5.0306 19 10.0012Z" stroke="black" stroke-miterlimit="10"/>
<path d="M10.3253 12.1546C12.2217 11.9909 13.7098 10.4005 13.7098 8.46112C13.7098 6.41259 12.0484 4.75098 10.0002 4.75098C7.95191 4.75098 6.29052 6.41259 6.29052 8.46112C6.29052 10.4005 7.77865 11.9885 9.67501 12.1546C6.94083 12.252 4.51757 13.5646 2.93213 15.5728C4.57928 17.6617 7.13308 19.0005 10.0002 19.0005C12.8673 19.0005 15.4211 17.6593 17.0682 15.5728C15.4828 13.5646 13.0595 12.252 10.3253 12.1546Z" stroke="black" stroke-miterlimit="10"/>
</svg>
