<svg width="16" height="17" viewBox="0 0 16 17" fill="none" xmlns="http://www.w3.org/2000/svg">
<path fill-rule="evenodd" clip-rule="evenodd" d="M11.078 9.22225L14.535 10.7943C15.4273 11.2001 16.0001 12.09 16 13.0703V13.7823C16 15.163 14.8807 16.2823 13.5 16.2823H2.5C1.11929 16.2823 1.90676e-08 15.163 1.90676e-08 13.7823V13.0703C-0.000120668 12.09 0.572679 11.2001 1.465 10.7943L4.922 9.22325C3.24021 7.90951 2.57763 5.67315 3.27234 3.6553C3.96706 1.63745 5.86591 0.282959 8 0.282959C10.1341 0.282959 12.0329 1.63745 12.7277 3.6553C13.4224 5.67315 12.7598 7.90951 11.078 9.22325V9.22225ZM5.961 9.84925L1.88 11.7043C1.34408 11.9475 0.999949 12.4817 1 13.0703V13.7823C1 14.6107 1.67157 15.2823 2.5 15.2823H13.5C14.3284 15.2823 15 14.6107 15 13.7823V13.0703C15.0001 12.4817 14.6559 11.9475 14.12 11.7043L10.039 9.84925C9.39747 10.1357 8.7026 10.2833 8 10.2823C7.2974 10.2833 6.60253 10.1357 5.961 9.84925ZM8 9.28225C10.2091 9.28225 12 7.49139 12 5.28225C12 3.07311 10.2091 1.28225 8 1.28225C5.79086 1.28225 4 3.07311 4 5.28225C4 7.49139 5.79086 9.28225 8 9.28225Z" fill="#121924"/>
</svg>
