<svg width="56" height="56" viewBox="0 0 56 56" fill="none" xmlns="http://www.w3.org/2000/svg">
<rect x="1" y="1" width="53.2857" height="53.2857" rx="26.6429" stroke="#ADD134" stroke-width="2"/>
<path fill-rule="evenodd" clip-rule="evenodd" d="M33.4284 16.0713H31.1315L30.1286 18.077C28.3797 21.5756 24.8041 23.7856 20.8927 23.7856H19.9284C17.7982 23.7856 16.0713 25.5125 16.0713 27.6427C16.0713 29.773 17.7982 31.4999 19.9284 31.4999H20.8927C24.8041 31.4998 28.3797 33.7099 30.1286 37.2084L31.1315 39.2141H33.4284V16.0713Z" fill="#ADD134"/>
<path fill-rule="evenodd" clip-rule="evenodd" d="M35.3569 15.1069V40.1783C35.3569 40.7109 34.9251 41.1426 34.3926 41.1426H30.5354C30.1705 41.1426 29.8369 40.9366 29.6734 40.6103L28.4024 38.0704C26.9802 35.2257 24.073 33.4286 20.8926 33.4283H19.9283C16.7329 33.4283 14.1426 30.8379 14.1426 27.6426C14.1426 24.4472 16.7329 21.8569 19.9283 21.8569H20.8926C24.0747 21.8569 26.9811 20.0594 28.4024 17.2148L29.6734 14.6749C29.8369 14.3486 30.1705 14.1426 30.5354 14.1426H34.3926C34.9251 14.1426 35.3569 14.5743 35.3569 15.1069Z" fill="#ADD134"/>
<path fill-rule="evenodd" clip-rule="evenodd" d="M37.5611 23.4966C37.1974 23.115 37.2077 22.512 37.5841 22.1429C37.9606 21.7738 38.5637 21.7755 38.9381 22.1466C41.9323 25.1993 41.9323 30.0869 38.9381 33.1395C38.5637 33.5106 37.9606 33.5123 37.5841 33.1432C37.2077 32.7742 37.1974 32.1712 37.5611 31.7895C39.8202 29.4868 39.8202 25.7993 37.5611 23.4966Z" fill="#ADD134"/>
</svg>
