<svg width="24" height="24" viewBox="0 0 24 24" fill="none" xmlns="http://www.w3.org/2000/svg">
<path fill-rule="evenodd" clip-rule="evenodd" d="M7.293 18.0009L18.793 6.50089L16.5 4.20789L5 15.7079V18.0009H7.293ZM4 18.5009V15.5009C3.99976 15.3682 4.05229 15.2408 4.146 15.1469L16.146 3.14689C16.2398 3.05285 16.3672 3 16.5 3C16.6328 3 16.7602 3.05285 16.854 3.14689L19.854 6.14689C19.948 6.2407 20.0009 6.36807 20.0009 6.50089C20.0009 6.63372 19.948 6.76109 19.854 6.85489L7.854 18.8549C7.76005 18.9486 7.6327 19.0011 7.5 19.0009H4.5C4.22386 19.0009 4 18.777 4 18.5009ZM4.5 21.0009C4.22386 21.0009 4 20.777 4 20.5009C4 20.2248 4.22386 20.0009 4.5 20.0009H14.507C14.7831 20.0009 15.007 20.2248 15.007 20.5009C15.007 20.777 14.7831 21.0009 14.507 21.0009H4.5Z" fill="#ADD314"/>
</svg>
