<svg width="42" height="41" viewBox="0 0 42 41" fill="none" xmlns="http://www.w3.org/2000/svg">
<path d="M38.875 39.25V6.24997H40.25C40.4323 6.24997 40.6072 6.17754 40.7361 6.04861C40.8651 5.91968 40.9375 5.74481 40.9375 5.56247V0.749973C40.9375 0.654621 40.9177 0.560311 40.8792 0.473039C40.8408 0.385766 40.7847 0.307438 40.7144 0.243033C40.6441 0.178627 40.5611 0.129552 40.4708 0.0989261C40.3805 0.0683004 40.2848 0.0567936 40.1898 0.065137L16.8148 2.12764C16.6436 2.14268 16.4842 2.22134 16.3681 2.34811C16.2519 2.47488 16.1875 2.64056 16.1875 2.81247V5.56247C16.1875 5.74481 16.2599 5.91968 16.3889 6.04861C16.5178 6.17754 16.6927 6.24997 16.875 6.24997H18.25V17.25H19.625V6.24997H37.5V39.25H32.9946C33.2452 38.8425 33.3769 38.3732 33.375 37.8948C33.375 36.9116 32.8601 36.3931 32.4843 36.0144C32.1483 35.6762 32 35.5104 32 35.125C32 33.4167 31.0554 31.6875 29.25 31.6875C27.4446 31.6875 26.5 33.4167 26.5 35.125C26.5 35.5104 26.3516 35.6762 26.0158 36.0144C25.6399 36.3931 25.125 36.9116 25.125 37.8948C25.123 38.3731 25.2547 38.8425 25.5051 39.25H18.25V30.3125C18.25 30.1301 18.1776 29.9553 18.0486 29.8263C17.9197 29.6974 17.7448 29.625 17.5625 29.625H13.4375C13.2552 29.625 13.0803 29.6974 12.9514 29.8263C12.8224 29.9553 12.75 30.1301 12.75 30.3125V39.25H10.6875V27.1098L18.9375 23.5004L27.1875 27.1098V31H28.5625V27.7113L29.6619 28.1926C29.7666 28.2384 29.881 28.2574 29.9948 28.2478C30.1086 28.2383 30.2183 28.2006 30.3139 28.138C30.4095 28.0755 30.488 27.9901 30.5423 27.8896C30.5966 27.7892 30.625 27.6767 30.625 27.5625V24.125C30.625 23.9913 30.586 23.8606 30.5129 23.7487C30.4397 23.6368 30.3356 23.5487 30.2131 23.4951L19.2131 18.6826C19.1262 18.6446 19.0324 18.625 18.9375 18.625C18.8426 18.625 18.7488 18.6446 18.6619 18.6826L7.6619 23.4951C7.53945 23.5487 7.43527 23.6368 7.36212 23.7487C7.28896 23.8606 7.25 23.9913 7.25 24.125V27.5625C7.25 27.6767 7.27845 27.7891 7.33279 27.8896C7.38713 27.99 7.46563 28.0753 7.56122 28.1379C7.6568 28.2004 7.76645 28.2381 7.88027 28.2476C7.99408 28.2571 8.10847 28.2381 8.2131 28.1923L9.3125 27.7111V39.25H4.5V27.5625H5.875V26.1875H1.75V11.0625H16.875V9.68747H12.3473L9.79865 7.13883C9.73481 7.07499 9.65901 7.02435 9.5756 6.9898C9.49219 6.95525 9.40279 6.93747 9.3125 6.93747H3.8125C3.63016 6.93747 3.4553 7.00991 3.32636 7.13884C3.19743 7.26777 3.125 7.44264 3.125 7.62497V9.68747H1.0625C0.880164 9.68747 0.705295 9.75991 0.576364 9.88884C0.447433 10.0178 0.375 10.1926 0.375 10.375V26.875C0.375 27.0573 0.447433 27.2322 0.576364 27.3611C0.705295 27.49 0.880164 27.5625 1.0625 27.5625H3.125V39.25H0.375V40.625H41.625V39.25H38.875ZM17.5625 3.44197L39.5625 1.50081V4.87497H17.5625V3.44197ZM8.625 26.5113V24.5746L18.9375 20.0629L29.25 24.5746V26.5113L28.5625 26.2105V26.1875H28.5099L19.2131 22.1201C19.1262 22.0821 19.0324 22.0625 18.9375 22.0625C18.8426 22.0625 18.7488 22.0821 18.6619 22.1201L9.36509 26.1875H9.3125V26.2105L8.625 26.5113ZM4.5 8.31247H9.02779L10.4028 9.68747H4.5V8.31247ZM14.125 31H16.875V39.25H14.125V31ZM27.875 39.25C27.4964 39.25 26.5 38.8333 26.5 37.8948C26.5 37.495 26.6506 37.3264 26.9916 36.9831C27.3644 36.6076 27.875 36.0933 27.875 35.125C27.875 33.4935 28.7744 33.0625 29.25 33.0625C30.3376 33.0625 30.625 34.4117 30.625 35.125C30.625 36.0933 31.1356 36.6076 31.5084 36.9831C31.8492 37.3269 31.9999 37.495 31.9999 37.8948C32 38.8333 31.0036 39.25 30.625 39.25H27.875Z" fill="#272A3D"/>
<path d="M20.3125 31C20.1302 31 19.9553 31.0724 19.8264 31.2014C19.6974 31.3303 19.625 31.5052 19.625 31.6875V35.125C19.625 35.3073 19.6974 35.4822 19.8264 35.6111C19.9553 35.7401 20.1302 35.8125 20.3125 35.8125H24.4375C24.6198 35.8125 24.7947 35.7401 24.9236 35.6111C25.0526 35.4822 25.125 35.3073 25.125 35.125V31.6875C25.125 31.5052 25.0526 31.3303 24.9236 31.2014C24.7947 31.0724 24.6198 31 24.4375 31H20.3125ZM23.75 34.4375H21V32.375H23.75V34.4375ZM14.8125 26.875H16.1875V28.25H14.8125V26.875ZM10.6875 20.6875V13.8125H16.875V12.4375H3.8125C3.63016 12.4375 3.4553 12.5099 3.32636 12.6389C3.19743 12.7678 3.125 12.9427 3.125 13.125V24.125C3.125 24.3073 3.19743 24.4822 3.32636 24.6111C3.4553 24.7401 3.63016 24.8125 3.8125 24.8125H5.875V23.4375H4.5V13.8125H9.3125V20.6875H10.6875ZM22.375 13.8125H26.5C26.6823 13.8125 26.8572 13.7401 26.9861 13.6111C27.1151 13.4822 27.1875 13.3073 27.1875 13.125V9C27.1875 8.81766 27.1151 8.6428 26.9861 8.51386C26.8572 8.38493 26.6823 8.3125 26.5 8.3125H22.375C22.1927 8.3125 22.0178 8.38493 21.8889 8.51386C21.7599 8.6428 21.6875 8.81766 21.6875 9V13.125C21.6875 13.3073 21.7599 13.4822 21.8889 13.6111C22.0178 13.7401 22.1927 13.8125 22.375 13.8125ZM23.0625 9.6875H25.8125V12.4375H23.0625V9.6875ZM30.625 13.8125H34.75C34.9323 13.8125 35.1072 13.7401 35.2361 13.6111C35.3651 13.4822 35.4375 13.3073 35.4375 13.125V9C35.4375 8.81766 35.3651 8.6428 35.2361 8.51386C35.1072 8.38493 34.9323 8.3125 34.75 8.3125H30.625C30.4427 8.3125 30.2678 8.38493 30.1389 8.51386C30.0099 8.6428 29.9375 8.81766 29.9375 9V13.125C29.9375 13.3073 30.0099 13.4822 30.1389 13.6111C30.2678 13.7401 30.4427 13.8125 30.625 13.8125ZM31.3125 9.6875H34.0625V12.4375H31.3125V9.6875ZM21.6875 18.625H23.0625V17.25H25.8125V20.6875H27.1875V16.5625C27.1875 16.3802 27.1151 16.2053 26.9861 16.0764C26.8572 15.9474 26.6823 15.875 26.5 15.875H22.375C22.1927 15.875 22.0178 15.9474 21.8889 16.0764C21.7599 16.2053 21.6875 16.3802 21.6875 16.5625V18.625ZM29.9375 20.6875C29.9375 20.8698 30.0099 21.0447 30.1389 21.1736C30.2678 21.3026 30.4427 21.375 30.625 21.375H34.75C34.9323 21.375 35.1072 21.3026 35.2361 21.1736C35.3651 21.0447 35.4375 20.8698 35.4375 20.6875V16.5625C35.4375 16.3802 35.3651 16.2053 35.2361 16.0764C35.1072 15.9474 34.9323 15.875 34.75 15.875H30.625C30.4427 15.875 30.2678 15.9474 30.1389 16.0764C30.0099 16.2053 29.9375 16.3802 29.9375 16.5625V20.6875ZM31.3125 17.25H34.0625V20H31.3125V17.25ZM32 27.5625V28.9375H34.75C34.9323 28.9375 35.1072 28.8651 35.2361 28.7361C35.3651 28.6072 35.4375 28.4323 35.4375 28.25V24.125C35.4375 23.9427 35.3651 23.7678 35.2361 23.6389C35.1072 23.5099 34.9323 23.4375 34.75 23.4375H32V24.8125H34.0625V27.5625H32ZM5.875 29.625H7.25V31H5.875V29.625Z" fill="#272A3D"/>
</svg>
