<svg width="110" height="105" viewBox="0 0 110 105" fill="none" xmlns="http://www.w3.org/2000/svg">
<path d="M54.5245 8.46352C54.6741 8.00287 55.3259 8.00287 55.4755 8.46353L66.1134 41.2037C66.1804 41.4097 66.3724 41.5491 66.589 41.5491H101.014C101.498 41.5491 101.7 42.169 101.308 42.4537L73.4575 62.6882C73.2822 62.8155 73.2089 63.0412 73.2758 63.2472L83.9137 95.9873C84.0634 96.448 83.5362 96.831 83.1443 96.5463L55.2939 76.3118C55.1186 76.1845 54.8814 76.1845 54.7061 76.3118L26.8557 96.5463C26.4638 96.831 25.9366 96.448 26.0863 95.9873L36.7242 63.2472C36.7911 63.0412 36.7178 62.8155 36.5425 62.6882L8.69212 42.4537C8.30027 42.169 8.50165 41.5491 8.98602 41.5491H43.411C43.6276 41.5491 43.8196 41.4097 43.8866 41.2037L54.5245 8.46352Z" fill="#F19036" stroke="#F19036" stroke-width="16"/>
</svg>
