<svg width="22" height="20" viewBox="0 0 22 20" fill="none" xmlns="http://www.w3.org/2000/svg">
<path fill-rule="evenodd" clip-rule="evenodd" d="M0.000976562 17.5V5.5C0.000976563 4.11929 1.12026 3 2.50098 3H4.43098C4.93249 2.99996 5.4008 2.74929 5.67898 2.332L6.49098 1.113C6.95467 0.417635 7.73519 -1.35817e-05 8.57098 0H13.431C14.2668 -1.35817e-05 15.0473 0.417635 15.511 1.113L16.323 2.333C16.6014 2.74991 17.0697 3.00019 17.571 3H19.501C20.8817 3 22.001 4.11929 22.001 5.5V17.5C22.001 18.8807 20.8817 20 19.501 20H2.50098C1.83794 20 1.20205 19.7366 0.73321 19.2678C0.264369 18.7989 0.000976563 18.163 0.000976562 17.5ZM1.00098 17.5C1.00098 18.3284 1.67255 19 2.50098 19H19.501C20.3294 19 21.001 18.3284 21.001 17.5V5.5C21.001 4.67157 20.3294 4 19.501 4H17.571C16.7352 4.00001 15.9547 3.58236 15.491 2.887L14.679 1.667C14.4006 1.25009 13.9323 0.999813 13.431 1H8.57098C8.06946 1.00004 7.60115 1.25071 7.32298 1.668L6.51098 2.887C6.04728 3.58236 5.26677 4.00001 4.43098 4H2.50098C1.67255 4 1.00098 4.67157 1.00098 5.5V17.5ZM11.001 17C7.68727 17 5.00098 14.3137 5.00098 11C5.00098 7.68629 7.68727 5 11.001 5C14.3147 5 17.001 7.68629 17.001 11C17.001 14.3137 14.3147 17 11.001 17V17ZM11.001 16C13.7624 16 16.001 13.7614 16.001 11C16.001 8.23858 13.7624 6 11.001 6C8.23955 6 6.00098 8.23858 6.00098 11C6.00098 13.7614 8.23955 16 11.001 16V16ZM18.001 5H19.001C19.5533 5 20.001 5.44772 20.001 6V7C20.001 7.55228 19.5533 8 19.001 8H18.001C17.4487 8 17.001 7.55228 17.001 7V6C17.001 5.44772 17.4487 5 18.001 5ZM18.001 6V7H19.001V6H18.001ZM1.50098 2C1.22483 2 1.00098 1.77614 1.00098 1.5C1.00098 1.22386 1.22483 1 1.50098 1H3.50098C3.77712 1 4.00098 1.22386 4.00098 1.5C4.00098 1.77614 3.77712 2 3.50098 2H1.50098Z" fill="#121924"/>
</svg>
