<svg width="244" height="244" viewBox="0 0 244 244" fill="none" xmlns="http://www.w3.org/2000/svg">
<path d="M121.665 5.98045C185.533 5.98045 237.35 57.7531 237.35 121.665C237.35 148.712 228.066 173.571 212.535 193.254C191.379 220.077 158.531 237.305 121.71 237.305C84.8443 237.305 52.0402 220.077 30.885 193.254C15.3533 173.571 6.06994 148.667 6.06994 121.665C6.02531 57.7531 57.7977 5.98045 121.665 5.98045ZM121.665 0C54.5842 0 0 54.5842 0 121.665C0 149.292 9.01557 175.357 26.1094 197.003C49.3623 226.46 84.1748 243.33 121.665 243.33C159.156 243.33 193.968 226.46 217.221 197.003C234.315 175.357 243.33 149.337 243.33 121.665C243.33 54.5396 188.791 0 121.665 0Z" fill="#272A3D"/>
</svg>
