<svg width="25" height="25" viewBox="0 0 25 25" fill="none" xmlns="http://www.w3.org/2000/svg">
<path fill-rule="evenodd" clip-rule="evenodd" d="M4.64803 17.6972L3.95503 19.0832C3.85099 19.2916 3.79689 19.5213 3.79703 19.7542V20.7822C3.79703 21.3345 4.24475 21.7822 4.79703 21.7822H5.79703C6.34932 21.7822 6.79703 21.3345 6.79703 20.7822V19.7542C6.79702 19.5217 6.74293 19.2923 6.63903 19.0842L5.94603 17.6972C5.52089 17.8114 5.07317 17.8114 4.64803 17.6972ZM3.75403 17.2492C2.91495 16.5914 2.58544 15.4737 2.93343 14.4659C3.28142 13.458 4.23031 12.7818 5.29653 12.7818C6.36276 12.7818 7.31165 13.458 7.65964 14.4659C8.00762 15.4737 7.67812 16.5914 6.83903 17.2492L7.53303 18.6362C7.70662 18.9833 7.79701 19.3661 7.79703 19.7542V20.7822C7.79703 21.8868 6.9016 22.7822 5.79703 22.7822H4.79703C3.69246 22.7822 2.79703 21.8868 2.79703 20.7822V19.7542C2.79703 19.3662 2.88703 18.9842 3.06103 18.6362L3.75403 17.2492ZM19.648 17.6972L18.955 19.0832C18.851 19.2916 18.7969 19.5213 18.797 19.7542V20.7822C18.797 21.3345 19.2447 21.7822 19.797 21.7822H20.797C21.3493 21.7822 21.797 21.3345 21.797 20.7822V19.7542C21.797 19.5217 21.7429 19.2923 21.639 19.0842L20.946 17.6972C20.5209 17.8114 20.0732 17.8114 19.648 17.6972ZM18.754 17.2492C17.915 16.5914 17.5854 15.4737 17.9334 14.4659C18.2814 13.458 19.2303 12.7818 20.2965 12.7818C21.3628 12.7818 22.3117 13.458 22.6596 14.4659C23.0076 15.4737 22.6781 16.5914 21.839 17.2492L22.533 18.6362C22.7066 18.9833 22.797 19.3661 22.797 19.7542V20.7822C22.797 21.8868 21.9016 22.7822 20.797 22.7822H19.797C18.6925 22.7822 17.797 21.8868 17.797 20.7822V19.7542C17.797 19.3662 17.887 18.9842 18.061 18.6362L18.754 17.2492ZM11.702 17.5762C11.6866 17.5975 11.6696 17.6176 11.651 17.6362L10.236 19.0502C9.95502 19.3314 9.79712 19.7127 9.79703 20.1102V20.7822C9.79703 21.3345 10.2447 21.7822 10.797 21.7822H14.797C15.3493 21.7822 15.797 21.3345 15.797 20.7822V20.1102C15.7967 19.7125 15.6384 19.3313 15.357 19.0502L13.943 17.6362C13.9248 17.6175 13.9081 17.5975 13.893 17.5762C13.553 17.7092 13.183 17.7822 12.797 17.7822C12.41 17.7822 12.041 17.7092 11.702 17.5762ZM10.827 17.0452C9.88343 16.2236 9.5488 14.9027 9.98744 13.7309C10.4261 12.5592 11.5459 11.7827 12.797 11.7827C14.0482 11.7827 15.168 12.5592 15.6066 13.7309C16.0453 14.9027 15.7106 16.2236 14.767 17.0452L16.065 18.3432C16.5336 18.8119 16.7969 19.4475 16.797 20.1102V20.7822C16.797 21.8868 15.9016 22.7822 14.797 22.7822H10.797C9.69246 22.7822 8.79703 21.8868 8.79703 20.7822V20.1102C8.79718 19.4475 9.06047 18.8119 9.52903 18.3432L10.827 17.0452ZM12.797 16.7822C13.9016 16.7822 14.797 15.8868 14.797 14.7822C14.797 13.6777 13.9016 12.7822 12.797 12.7822C11.6925 12.7822 10.797 13.6777 10.797 14.7822C10.797 15.8868 11.6925 16.7822 12.797 16.7822ZM20.297 16.7822C21.1255 16.7822 21.797 16.1107 21.797 15.2822C21.797 14.4538 21.1255 13.7822 20.297 13.7822C19.4686 13.7822 18.797 14.4538 18.797 15.2822C18.797 16.1107 19.4686 16.7822 20.297 16.7822ZM5.29703 16.7822C6.12546 16.7822 6.79703 16.1107 6.79703 15.2822C6.79703 14.4538 6.12546 13.7822 5.29703 13.7822C4.46861 13.7822 3.79703 14.4538 3.79703 15.2822C3.79703 16.1107 4.46861 16.7822 5.29703 16.7822ZM13.151 10.6362C13.0572 10.7303 12.9299 10.7831 12.797 10.7831C12.6642 10.7831 12.5368 10.7303 12.443 10.6362L11.59 9.78223H10.297C8.91632 9.78223 7.79703 8.66294 7.79703 7.28223V5.28223C7.79703 3.90151 8.91632 2.78223 10.297 2.78223H15.297C16.6777 2.78223 17.797 3.90151 17.797 5.28223V7.28223C17.797 8.66294 16.6777 9.78223 15.297 9.78223H14.004L13.151 10.6362ZM12.797 9.57523L13.443 8.92823C13.537 8.83451 13.6643 8.78199 13.797 8.78223H15.297C16.1255 8.78223 16.797 8.11065 16.797 7.28223V5.28223C16.797 4.4538 16.1255 3.78223 15.297 3.78223H10.297C9.46861 3.78223 8.79703 4.4538 8.79703 5.28223V7.28223C8.79703 8.11065 9.46861 8.78223 10.297 8.78223H11.797C11.9297 8.78199 12.0571 8.83451 12.151 8.92823L12.797 9.57523Z" fill="#121924"/>
</svg>
