<svg width="17" height="25" viewBox="0 0 17 25" fill="none" xmlns="http://www.w3.org/2000/svg">
<path fill-rule="evenodd" clip-rule="evenodd" d="M16.845 18.3262L15.8041 14.9179L15.794 9.92781C15.7889 6.78989 13.8036 3.99894 10.8486 2.98358V2.42742C10.8638 1.56513 10.412 0.76407 9.67575 0.325272C8.93445 -0.108424 8.02055 -0.108424 7.27925 0.325272C6.53796 0.758968 6.09115 1.56513 6.10638 2.42742V2.98869C3.15644 4.00915 1.17626 6.8001 1.17626 9.93292V14.9026L0.145571 18.3517C-0.169225 19.3977 0.0338679 20.5304 0.68377 21.408C1.33367 22.2856 2.3593 22.8009 3.44585 22.8009H6.21299C6.26884 24.0306 7.27416 25 8.50288 25C9.72145 25 10.7217 24.0255 10.7572 22.8009H13.565C14.6567 22.8009 15.6823 22.2805 16.3322 21.3978C16.977 20.5151 17.1699 19.3773 16.845 18.3262ZM7.28938 2.42231C7.29954 1.76922 7.8276 1.24879 8.4775 1.24879C9.1274 1.24879 9.65038 1.76922 9.66562 2.42231V2.68253C8.87862 2.55498 8.07638 2.55498 7.29447 2.68253L7.28938 2.42231ZM8.4978 23.8112C7.92913 23.8112 7.45187 23.3724 7.39602 22.8009H9.55898C9.52852 23.3673 9.06646 23.8112 8.4978 23.8112ZM15.3726 20.6937C14.9461 21.2702 14.2758 21.6121 13.5599 21.6121H3.44077C2.72994 21.6121 2.05973 21.2753 1.63323 20.6988C1.20673 20.1222 1.0798 19.3824 1.28289 18.6936L2.33896 15.1577L2.36437 14.9893V9.93292C2.36437 8.30018 3.00918 6.73886 4.15666 5.58574C5.30415 4.43262 6.86291 3.78465 8.48258 3.78465C11.8641 3.78465 14.6059 6.53478 14.616 9.93292L14.6262 15.0148L14.6516 15.1883L15.7229 18.6833C15.926 19.3671 15.7991 20.112 15.3726 20.6937Z" fill="#131A25"/>
</svg>
