<svg width="122" height="207" viewBox="0 0 122 207" fill="none" xmlns="http://www.w3.org/2000/svg">
<path fill-rule="evenodd" clip-rule="evenodd" d="M68.2397 191.954L64.7637 196.046L59.6167 200.571C59.0897 200.943 58.8537 203.455 59.7677 203.351L64.8817 203.959C66.5097 204.152 68.2857 203.557 69.7907 202.825C70.8867 202.291 71.9717 201.37 73.3457 200.525L73.8837 201.698L78.7797 200.088L79.0307 196.574C79.7807 192.816 78.3987 192.143 78.0117 189.494L69.5607 189.372L68.2397 191.954ZM93.6137 190.406L93.4427 200.319C93.4427 200.319 96.3857 205.296 98.0777 205.997C99.9207 206.765 104.63 206.632 106.03 205.204C107.333 203.881 106.632 197.802 106.632 197.802L102.685 189.528L93.6137 190.406Z" fill="#0B4870"/>
<path d="M66.6652 85.906C66.6652 85.906 89.4232 81.95 99.8252 85.687C100.258 85.842 100.675 86.01 101.074 86.197L101.143 86.704C101.248 87.472 101.468 89.075 101.757 91.255C101.803 91.623 101.854 92.008 101.91 92.402C103.389 103.61 102.45 119.897 102.875 127.847C103.428 138.275 103.556 139.759 103.556 141.717C103.561 147.005 104.012 191.511 104.012 191.511C104.012 191.511 97.3782 193.199 92.5202 191.511C92.5202 191.511 90.7852 147.365 89.7892 144.096C88.7942 140.831 85.4532 106.341 84.2102 106.198C82.9662 106.057 78.9662 142.376 78.7022 146.673C78.4412 150.967 79.9842 190.824 78.5612 191.533C77.1432 192.241 68.7842 192.315 68.3592 190.896C68.3592 190.896 67.9672 150.381 67.9672 146.12C67.9672 141.861 65.2412 108.675 65.3622 107.251C65.3632 107.251 64.9742 96.828 66.6652 85.906Z" fill="#0E538C"/>
<path d="M36.0192 56.7573L34.5342 53.0163L33.6442 47.9863H31.5602L31.0412 53.0163L27.6962 50.9593L25.5412 47.9863H23.2372L24.7962 50.7373L20.6342 47.9863H18.0342L28.3642 56.7573L35.5762 60.6223L36.0192 56.7573Z" fill="#EBBAA0"/>
<path d="M34.476 62.7263L58.378 71.6103C58.9742 71.8317 59.6316 71.8225 60.2214 71.5847C60.8113 71.3468 61.2911 70.8974 61.567 70.3243L67.331 58.2583L67.415 58.0773L67.73 57.4203C67.6877 56.2328 67.6423 55.0455 67.594 53.8583C67.458 50.6823 67.33 48.5773 67.33 48.5773C67.051 44.7973 66.851 41.2623 66.734 37.9463C66.657 38.0003 66.588 38.0493 66.519 38.1003L66.509 38.1033C66.056 38.4193 65.708 38.6973 65.575 38.9003C65.076 39.6473 57.377 57.6563 55.744 61.4803C55.6634 61.6708 55.5115 61.8223 55.3207 61.9023C55.1299 61.9823 54.9153 61.9844 54.723 61.9083L37.39 55.0973C37.2019 55.023 37.001 54.9868 36.7988 54.9908C36.5967 54.9948 36.3973 55.0388 36.2123 55.1204C36.0273 55.202 35.8603 55.3194 35.7211 55.466C35.5818 55.6126 35.473 55.7854 35.401 55.9743L33.579 60.7473C33.5065 60.936 33.4722 61.1372 33.4782 61.3393C33.4842 61.5414 33.5302 61.7402 33.6136 61.9244C33.6971 62.1085 33.8163 62.2742 33.9643 62.4119C34.1124 62.5495 34.2863 62.6564 34.476 62.7263Z" fill="#F2F2F2"/>
<path d="M54.726 61.2924V89.3804C54.7259 89.473 54.7075 89.5647 54.6719 89.6501C54.6364 89.7356 54.5843 89.8133 54.5188 89.8786C54.4532 89.944 54.3754 89.9958 54.2899 90.0311C54.2043 90.0664 54.1126 90.0845 54.02 90.0844H44.371C44.2785 90.0844 44.187 90.0662 44.1016 90.0308C44.0162 89.9954 43.9386 89.9436 43.8732 89.8782C43.8078 89.8129 43.756 89.7352 43.7206 89.6498C43.6852 89.5644 43.667 89.4729 43.667 89.3804V57.8984C43.667 56.9244 44.655 56.2614 45.556 56.6294L53.874 60.0254C54.388 60.2334 54.726 60.7364 54.726 61.2924Z" fill="#D3D3D3"/>
<path opacity="0.5" d="M24.7754 30.1954C24.7754 30.7926 25.0127 31.3654 25.435 31.7878C25.8573 32.2101 26.4301 32.4474 27.0274 32.4474C27.6247 32.4474 28.1975 32.2101 28.6198 31.7878C29.0421 31.3654 29.2794 30.7926 29.2794 30.1954C29.2789 29.5983 29.0414 29.0258 28.6192 28.6035C28.197 28.1813 27.6245 27.9439 27.0274 27.9434C26.7316 27.9431 26.4386 28.0012 26.1653 28.1142C25.8919 28.2273 25.6436 28.3932 25.4344 28.6024C25.2252 28.8115 25.0594 29.0599 24.9463 29.3332C24.8332 29.6066 24.7751 29.8995 24.7754 30.1954Z" fill="#FFBE55"/>
<path d="M27.0278 31.1191C35.8268 31.1191 42.9628 38.2531 42.9628 47.0541H11.0898C11.0898 38.2541 18.2258 31.1191 27.0278 31.1191Z" fill="#ACD037"/>
<path d="M30.8569 45.5771H53.4259L51.6419 47.9861H2.41087L0.629883 45.5771H30.8569Z" fill="#0E538C"/>
<path d="M95.2132 30.7116L96.6261 31.2476C96.1583 31.0606 95.6872 30.882 95.2132 30.7116ZM77.0361 32.7316L78.0091 38.5936L81.8561 71.7706L88.0651 47.3986L94.9961 30.6306C94.9041 30.5946 94.8121 30.5636 94.7321 30.5316C94.6731 30.5126 94.6191 30.4916 94.5681 30.4726C94.4171 30.4136 94.2941 30.3686 94.2101 30.3376C93.3401 30.0226 92.7331 29.8286 92.5621 29.8206C92.4471 29.8106 92.1401 29.8246 91.7001 29.8566C91.6758 30.1966 91.6571 30.5369 91.6441 30.8776C90.0191 32.0386 84.7311 32.6906 84.7311 32.6906C84.7311 32.6906 81.9541 33.3616 81.8691 31.8816C81.8671 31.8766 81.8671 31.8766 81.8691 31.8716C81.8589 31.8439 81.8545 31.8145 81.8562 31.785C81.8579 31.7556 81.8657 31.7268 81.8791 31.7006C81.9461 31.5436 82.1041 31.0796 82.1941 30.6846L81.7771 30.7246C81.7771 30.7246 81.0831 30.9636 80.1671 31.3316L80.1591 31.3366C79.7601 31.4936 79.3251 31.6826 78.8771 31.8856C78.3241 32.1386 77.6991 32.4256 77.0361 32.7316ZM102.943 89.0876C103.13 89.8526 103.26 90.3216 103.301 90.3886L102.943 89.0876ZM101.187 80.2616C107.427 77.0676 121.401 69.6856 121.197 67.6606C121.01 65.7666 110.135 37.1096 108.543 35.9666C108.09 35.6426 106.206 34.8906 104.013 34.0546L102.777 54.6186C102.777 54.6186 100.561 47.9746 104.013 55.2396C105.055 57.4326 107.617 60.6016 108.896 63.4126C109.848 65.4866 105.016 68.4466 100.504 70.8576C100.253 73.1626 100.634 76.7706 101.187 80.2616Z" fill="#F2F2F2"/>
<path d="M81.8676 31.873C81.8656 31.878 81.8656 31.878 81.8676 31.883C81.9526 33.363 84.7296 35.23 84.7296 35.23C84.7296 35.23 90.0176 32.04 91.6426 30.879C91.6426 30.879 91.6526 30.542 91.6986 29.858C91.8106 28.373 92.1306 25.268 93.0346 20.519C93.3876 18.665 82.2596 25.404 82.2596 25.404C82.2596 25.404 82.2906 26.052 82.3136 26.934C82.3286 27.397 82.3366 27.924 82.3286 28.449C82.3286 28.634 82.3286 28.818 82.3236 29.002C82.3136 29.493 82.2906 29.965 82.2516 30.361C82.2416 30.455 82.2186 30.568 82.1926 30.685C82.1026 31.081 81.9446 31.544 81.8776 31.701C81.8629 31.7571 81.8595 31.8156 81.8676 31.873Z" fill="#F1B99E"/>
<path d="M81.8679 31.8735C81.8593 31.8164 81.8627 31.7581 81.8779 31.7025C81.8645 31.7287 81.8567 31.7575 81.855 31.7869C81.8532 31.8163 81.8576 31.8458 81.8679 31.8735ZM76.4019 8.34446C76.4019 8.34446 73.9549 12.8775 75.1659 13.5825C76.1689 14.1655 73.9939 18.6115 73.7099 19.3385C73.4259 20.0665 75.5239 20.5935 75.9699 21.0625C76.4149 21.5285 77.7359 27.2845 79.4639 27.4585C81.1919 27.6335 88.9749 24.9255 91.0969 22.7205C93.2159 20.5155 94.9569 10.5605 93.5409 6.36146C92.1239 2.16046 80.7139 0.428458 76.4019 8.34446Z" fill="#F1B99E"/>
<path d="M75.483 10.3234C75.483 10.3234 72.849 2.80842 77.167 1.34842C82.67 -0.51058 90.839 3.54442 91.781 3.78642C92.723 4.03042 98.067 4.39642 95.369 13.7804C93.053 21.8384 92.728 22.1774 92.728 22.1774C92.728 22.1774 90.998 17.5114 90.02 16.7974C88.487 15.6874 85.132 15.9544 85.132 15.9544C85.132 15.9544 86.732 11.7094 84.234 11.1074C81.735 10.5074 81.428 14.1054 75.483 10.3234Z" fill="#FCD2B1"/>
<path d="M87.7941 13.5237C88.0141 12.9407 88.7261 10.4367 90.8761 11.9077C93.0231 13.3767 89.5371 18.0957 89.1641 18.1547C88.7871 18.2177 85.9411 18.4227 87.7941 13.5237Z" fill="#EEA886"/>
<path d="M82.3294 28.4503C82.3294 28.6363 82.3264 28.8213 82.3244 29.0053C88.6894 26.8683 89.9234 23.6523 89.9234 23.6523C87.9394 25.0573 82.3164 26.9333 82.3164 26.9333C82.3274 27.3973 82.3344 27.9223 82.3294 28.4503Z" fill="#A77860"/>
<path d="M97.374 31.5361C97.405 31.5501 97.433 31.5591 97.453 31.5721C97.612 31.6361 97.778 31.6971 97.947 31.7661L98.479 31.9731C98.507 31.9821 98.538 31.9911 98.564 32.0041C99.536 32.3731 100.663 32.7971 101.799 33.2181L97.374 31.5361Z" fill="#F2F2F2"/>
<path d="M65.4502 91.8688C65.7442 91.9498 66.5842 92.8318 68.4552 93.7368C68.8012 93.9028 69.1842 94.0688 69.6072 94.2338C72.5402 95.3688 77.3492 96.2958 85.1042 95.3058C86.8998 95.0751 88.6857 94.7752 90.4582 94.4068C90.4582 94.4068 100.022 92.4578 102.927 90.6638C103.073 90.5728 103.198 90.4828 103.306 90.3988C103.306 90.3988 103.301 90.3938 103.301 90.3898C103.26 90.3218 103.13 89.8538 102.943 89.0888L102.928 89.0218C102.242 86.124 101.661 83.2021 101.188 80.2618C100.635 76.7708 100.254 73.1628 100.505 70.8588C100.556 70.4228 100.607 69.9588 100.664 69.4688C101.202 64.7228 102.056 57.6818 102.655 55.0908C102.69 54.9321 102.731 54.7746 102.778 54.6188L104.014 34.0548L102.975 33.6588C102.745 33.5778 102.517 33.4878 102.292 33.4018C102.131 33.3398 101.962 33.2818 101.801 33.2178C100.721 32.8169 99.6431 32.4122 98.5662 32.0038C98.5402 31.9898 98.5102 31.9818 98.4812 31.9728L97.9492 31.7658C97.7802 31.6978 97.6142 31.6358 97.4552 31.5718C97.4352 31.5588 97.4062 31.5498 97.3762 31.5358C97.3432 31.5268 97.3172 31.5138 97.2812 31.4998L96.6282 31.2488L95.2152 30.7128L94.9982 30.6318L88.0672 47.3998L83.8702 63.1798L78.0112 38.5948L77.0382 32.7328C74.9242 33.7088 72.3882 34.8838 70.3092 35.8648C70.2992 35.8688 70.2962 35.8738 70.2862 35.8738C70.2773 35.8781 70.2686 35.8828 70.2602 35.8878C70.2452 35.8918 70.2372 35.9008 70.2242 35.9058C70.1962 35.9188 70.1652 35.9378 70.1292 35.9548C69.3273 36.3901 68.5345 36.8419 67.7512 37.3098L67.2312 37.6288C67.0602 37.7378 66.8912 37.8458 66.7352 37.9488C66.8665 41.496 67.0652 45.0403 67.3312 48.5798C67.3312 48.5798 67.4592 50.6848 67.5952 53.8608C67.6392 54.9358 67.6852 56.1368 67.7312 57.4228L67.4162 58.0798L67.3322 58.2608C67.5012 65.3058 67.5602 72.9858 67.2862 79.2888C66.772 83.4324 66.1705 87.5646 65.4822 91.6828C65.4822 91.6868 65.4772 91.6868 65.4772 91.6868C65.4732 91.7468 65.4572 91.8058 65.4502 91.8688Z" fill="#ACD037"/>
<path d="M85.7201 34.6736C85.7201 34.6736 87.3711 32.3476 88.9831 32.4886C91.2921 32.6916 90.8491 37.7626 89.4311 37.9576C87.7751 38.1846 85.7201 36.2056 85.7201 36.2056C85.7201 36.2056 86.1251 35.2126 85.7201 34.6736ZM84.2101 34.6736C84.2101 34.6736 82.5591 32.3476 80.9441 32.4886C78.6351 32.6916 79.0781 37.7626 80.4941 37.9576C82.1521 38.1846 84.2101 36.2056 84.2101 36.2056C84.2101 36.2056 83.8031 35.2126 84.2101 34.6736Z" fill="#0B4870"/>
<path d="M83.5635 35.3717C83.581 35.7706 83.7519 36.1474 84.0403 36.4234C84.3288 36.6995 84.7127 36.8536 85.112 36.8536C85.5113 36.8536 85.8951 36.6995 86.1836 36.4234C86.4721 36.1474 86.6429 35.7706 86.6605 35.3717C86.6605 34.9611 86.4973 34.5672 86.2069 34.2768C85.9165 33.9864 85.5227 33.8232 85.112 33.8232C84.7013 33.8232 84.3074 33.9864 84.017 34.2768C83.7266 34.5672 83.5635 34.9611 83.5635 35.3717Z" fill="#0B4870"/>
</svg>
