<svg width="403" height="402" viewBox="0 0 403 402" fill="none" xmlns="http://www.w3.org/2000/svg">
<path d="M201.554 248.167C227.476 248.167 248.49 227.153 248.49 201.23C248.49 175.308 227.476 154.294 201.554 154.294C175.631 154.294 154.617 175.308 154.617 201.23C154.617 227.153 175.631 248.167 201.554 248.167Z" stroke="black" stroke-width="26" stroke-linecap="round" stroke-linejoin="round"/>
<path d="M201.556 342.04C279.322 342.04 342.365 278.997 342.365 201.23C342.365 123.463 279.322 60.4209 201.556 60.4209C123.789 60.4209 60.7461 123.463 60.7461 201.23C60.7461 278.997 123.789 342.04 201.556 342.04Z" stroke="black" stroke-width="26" stroke-linecap="round" stroke-linejoin="round"/>
<path d="M201.555 60.4208V13.4844" stroke="black" stroke-width="26" stroke-linecap="round" stroke-linejoin="round"/>
<path d="M342.363 201.23H389.3" stroke="black" stroke-width="26" stroke-linecap="round" stroke-linejoin="round"/>
<path d="M201.555 342.04V388.976" stroke="black" stroke-width="26" stroke-linecap="round" stroke-linejoin="round"/>
<path d="M60.7451 201.23H13.8086" stroke="black" stroke-width="26" stroke-linecap="round" stroke-linejoin="round"/>
</svg>
