<svg width="19" height="19" viewBox="0 0 19 19" fill="none" xmlns="http://www.w3.org/2000/svg">
<path d="M9.5 0C4.26149 0 0 4.26149 0 9.5C0 14.7385 4.26149 19 9.5 19C14.7385 19 19 14.7385 19 9.5C19 4.26149 14.7385 0 9.5 0Z" fill="#F44336"/>
<path d="M12.9985 11.879C13.308 12.1886 13.308 12.6889 12.9985 12.9985C12.9251 13.0721 12.8378 13.1305 12.7417 13.1703C12.6457 13.2101 12.5427 13.2306 12.4387 13.2304C12.2361 13.2304 12.0334 13.1529 11.879 12.9985L9.5001 10.6195L7.1212 12.9985C7.04778 13.0722 6.96053 13.1305 6.86448 13.1704C6.76843 13.2102 6.66546 13.2306 6.56148 13.2305C6.4575 13.2306 6.35451 13.2102 6.25845 13.1704C6.16238 13.1306 6.07513 13.0722 6.00169 12.9985C5.6922 12.6889 5.6922 12.1886 6.00169 11.879L8.38073 9.5001L6.00165 7.1212C5.69216 6.81156 5.69216 6.31129 6.00165 6.00169C6.31129 5.6922 6.81156 5.6922 7.1212 6.00169L9.5001 8.38073L11.879 6.00165C12.1886 5.69216 12.6889 5.69216 12.9985 6.00165C13.308 6.31129 13.308 6.81156 12.9985 7.1212L10.6195 9.5001L12.9985 11.879Z" fill="#FAFAFA"/>
</svg>
