<svg width="14" height="18" viewBox="0 0 14 18" fill="none" xmlns="http://www.w3.org/2000/svg">
<path d="M6.41406 18V14.981C4.78152 14.855 3.25665 14.1176 2.14428 12.916C1.03191 11.7145 0.413997 10.1374 0.414063 8.5V8H1.41406V8.5C1.41406 9.95869 1.99353 11.3576 3.02498 12.3891C4.05643 13.4205 5.45537 14 6.91406 14C8.37275 14 9.7717 13.4205 10.8032 12.3891C11.8346 11.3576 12.4141 9.95869 12.4141 8.5V8H13.4141V8.5C13.4141 10.1374 12.7962 11.7145 11.6838 12.916C10.5715 14.1176 9.04661 14.855 7.41406 14.981V18H6.41406ZM6.91406 0C7.5771 0 8.21299 0.263392 8.68183 0.732233C9.15067 1.20107 9.41406 1.83696 9.41406 2.5V8.5C9.41406 9.16304 9.15067 9.79893 8.68183 10.2678C8.21299 10.7366 7.5771 11 6.91406 11C6.25102 11 5.61514 10.7366 5.1463 10.2678C4.67745 9.79893 4.41406 9.16304 4.41406 8.5V2.5C4.41406 1.83696 4.67745 1.20107 5.1463 0.732233C5.61514 0.263392 6.25102 0 6.91406 0ZM6.91406 1C6.51624 1 6.13471 1.15804 5.8534 1.43934C5.5721 1.72064 5.41406 2.10218 5.41406 2.5V8.5C5.41406 8.89782 5.5721 9.27936 5.8534 9.56066C6.13471 9.84196 6.51624 10 6.91406 10C7.31189 10 7.69342 9.84196 7.97472 9.56066C8.25603 9.27936 8.41406 8.89782 8.41406 8.5V2.5C8.41406 2.10218 8.25603 1.72064 7.97472 1.43934C7.69342 1.15804 7.31189 1 6.91406 1Z" fill="black"/>
</svg>
