<svg width="21" height="21" viewBox="0 0 21 21" fill="none" xmlns="http://www.w3.org/2000/svg">
<path d="M19.3822 13.1125C19.0933 13.1125 18.8592 13.3466 18.8592 13.6355V18.2793C18.8581 19.1455 18.1563 19.8475 17.2901 19.8483H2.61504C1.74878 19.8475 1.04706 19.1455 1.04602 18.2793V4.6502C1.04706 3.78415 1.74883 3.08222 2.61504 3.08117H7.25883C7.54769 3.08117 7.78184 2.84702 7.78184 2.55816C7.78184 2.26946 7.54769 2.03516 7.25883 2.03516H2.61504C1.17143 2.03678 0.00162133 3.20659 0 4.6502V18.2795C0.00162133 19.723 1.17143 20.8928 2.61504 20.8945H17.2901C18.7337 20.8928 19.9035 19.723 19.9052 18.2795V13.6355C19.9052 13.3466 19.671 13.1125 19.3822 13.1125Z" fill="#272A3D"/>
<path d="M19.698 0.689351C18.7789 -0.229784 17.2887 -0.229784 16.3696 0.689351L7.03874 10.0202C6.97487 10.084 6.92863 10.1634 6.90454 10.2504L5.67751 14.6803C5.65274 14.7695 5.6521 14.8637 5.67565 14.9532C5.69919 15.0427 5.74608 15.1244 5.81153 15.1898C5.87697 15.2553 5.95862 15.3022 6.04813 15.3258C6.13765 15.3494 6.23182 15.3487 6.32102 15.324L10.7509 14.0968C10.8379 14.0727 10.9173 14.0264 10.9811 13.9626L20.3117 4.63158C21.2294 3.71176 21.2294 2.22286 20.3117 1.3031L19.698 0.689351ZM8.17832 10.3601L15.8149 2.72338L18.2778 5.18623L10.641 12.823L8.17832 10.3601ZM7.68638 11.3473L9.65394 13.3151L6.93231 14.0692L7.68638 11.3473ZM19.5722 3.89199L19.0175 4.44659L16.5545 1.98353L17.1094 1.42888C17.6199 0.918324 18.4477 0.918324 18.9583 1.42888L19.5722 2.04258C20.0819 2.55377 20.0819 3.38101 19.5722 3.89199Z" fill="#272A3D"/>
</svg>
