<svg width="24" height="24" viewBox="0 0 24 24" fill="none" xmlns="http://www.w3.org/2000/svg">
<path fill-rule="evenodd" clip-rule="evenodd" d="M12.5 22C7.25329 22 3 17.7467 3 12.5C3 7.25329 7.25329 3 12.5 3C17.7467 3 22 7.25329 22 12.5C22 17.7467 17.7467 22 12.5 22ZM12.5 21C17.1944 21 21 17.1944 21 12.5C21 7.80558 17.1944 4 12.5 4C7.80558 4 4 7.80558 4 12.5C4 17.1944 7.80558 21 12.5 21ZM8.707 12H17.5C17.7761 12 18 12.2239 18 12.5C18 12.7761 17.7761 13 17.5 13H8.707L11.854 16.146C12.0495 16.3415 12.0495 16.6585 11.854 16.854C11.6585 17.0495 11.3415 17.0495 11.146 16.854L7.146 12.854C7.05196 12.7602 6.99911 12.6328 6.99911 12.5C6.99911 12.3672 7.05196 12.2398 7.146 12.146L11.146 8.146C11.2725 8.01953 11.4568 7.97014 11.6296 8.01643C11.8023 8.06272 11.9373 8.19766 11.9836 8.37043C12.0299 8.54319 11.9805 8.72753 11.854 8.854L8.707 12Z" fill="#121924"/>
</svg>
