<svg width="14" height="15" viewBox="0 0 14 15" fill="none" xmlns="http://www.w3.org/2000/svg">
<path d="M8.10914 14.0023L11.8922 11.8181C12.2961 11.585 12.4976 11.4684 12.6444 11.3053C12.7744 11.161 12.8727 10.9909 12.9327 10.8063C13.0004 10.598 13.0004 10.3653 13.0004 9.90117V5.52645C13.0004 5.0623 13.0004 4.82962 12.9327 4.62138C12.8727 4.4367 12.7744 4.26657 12.6444 4.12227C12.4983 3.95987 12.2972 3.84378 11.8968 3.61263L8.10845 1.42542C7.70459 1.19226 7.50311 1.07591 7.28839 1.03028C7.09848 0.989905 6.90206 0.989905 6.71215 1.03028C6.49744 1.07592 6.29527 1.19226 5.89141 1.42542L2.10758 3.61002C1.7042 3.84291 1.50267 3.95926 1.3559 4.12227C1.22596 4.26657 1.12783 4.4367 1.06782 4.62138C1 4.83012 1 5.0634 1 5.52973V9.89812C1 10.3644 1 10.5975 1.06782 10.8063C1.12783 10.9909 1.22596 11.161 1.3559 11.3053C1.50276 11.4684 1.70444 11.585 2.10829 11.8181L5.89141 14.0023C6.29527 14.2355 6.49744 14.3519 6.71215 14.3975C6.90206 14.4379 7.09848 14.4379 7.28839 14.3975C7.50311 14.3519 7.70528 14.2355 8.10914 14.0023Z" stroke="black" stroke-linecap="round" stroke-linejoin="round"/>
<path d="M4.92188 7.71388C4.92188 8.86179 5.85244 9.79243 7.00042 9.79243C8.1484 9.79243 9.07896 8.86179 9.07896 7.71388C9.07896 6.56591 8.1484 5.63531 7.00042 5.63531C5.85244 5.63531 4.92188 6.56591 4.92188 7.71388Z" stroke="black" stroke-linecap="round" stroke-linejoin="round"/>
</svg>
