<svg width="56" height="56" viewBox="0 0 56 56" fill="none" xmlns="http://www.w3.org/2000/svg">
<rect x="1.28613" y="1" width="53.2857" height="53.2857" rx="26.6429" stroke="#ADD134" stroke-width="2"/>
<path fill-rule="evenodd" clip-rule="evenodd" d="M33.061 30.6416V24.3919V22.2996C33.061 20.5733 31.6615 19.1738 29.9351 19.1738H15.3476C13.6213 19.1738 12.2217 20.5733 12.2217 22.2996V32.7193C12.2217 34.4456 13.6213 35.8451 15.3476 35.8451H29.9351C31.6615 35.8451 33.061 34.4456 33.061 32.7193V30.6416V30.6416ZM35.1448 22.16L39.7878 18.2902C41.2165 17.1001 43.2047 16.8438 44.8885 17.6326C46.5724 18.4215 47.6481 20.113 47.6483 21.9725V33.0464C47.6481 34.9059 46.5724 36.5975 44.8885 37.3863C43.2047 38.1751 41.2165 37.9188 39.7878 36.7287L35.1427 32.8589C35.067 35.6807 32.7578 37.929 29.935 37.9291H15.3475C12.4702 37.9291 10.1377 35.5966 10.1377 32.7193V22.2997C10.1377 19.4224 12.4702 17.0898 15.3475 17.0898H29.935C32.7586 17.0888 35.0691 19.3374 35.1448 22.16ZM35.1445 24.8713V30.1478L41.1212 35.1283C41.9292 35.8013 43.0535 35.946 44.0055 35.4994C44.9574 35.0529 45.565 34.0959 45.5641 33.0444V21.9746C45.5642 20.9235 44.9563 19.9672 44.0045 19.5212C43.0527 19.0753 41.9289 19.2201 41.1212 19.8928L35.1445 24.8713Z" fill="#ADD134"/>
<path d="M13.5101 44.4538C13.6627 44.4946 13.8185 44.5079 13.9712 44.4956V44.9561L14.8248 44.1025L44.101 14.8254C44.633 14.2934 44.633 13.4309 44.101 12.899C43.5691 12.367 42.7066 12.367 42.1747 12.899L12.8984 42.1761L12.8981 42.1763C12.5544 42.5205 12.4204 43.022 12.5467 43.4917C12.6729 43.9615 13.0401 44.3283 13.5101 44.4538Z" fill="#ADD134" stroke="white"/>
</svg>
