<svg width="637" height="475" viewBox="0 0 637 475" fill="none" xmlns="http://www.w3.org/2000/svg">
<path d="M637 417.166H0V417.485H637V417.166Z" fill="#EBEBEB"/>
<path d="M573.175 437.673H530.978V437.991H573.175V437.673Z" fill="#EBEBEB"/>
<path d="M421.974 441.13H410.899V441.448H421.974V441.13Z" fill="#EBEBEB"/>
<path d="M529.701 425.843H505.25V426.161H529.701V425.843Z" fill="#EBEBEB"/>
<path d="M121.86 427.982H66.832V428.301H121.86V427.982Z" fill="#EBEBEB"/>
<path d="M141.271 427.982H133.203V428.301H141.271V427.982Z" fill="#EBEBEB"/>
<path d="M286.837 433.362H167.494V433.681H286.837V433.362Z" fill="#EBEBEB"/>
<path d="M301.955 360.348H55.9468C51.9375 360.348 48.6748 357.086 48.6748 353.076V7.27199C48.6748 3.26271 51.9375 0 55.9468 0H301.955C305.963 0 309.226 3.26271 309.226 7.27199V353.076C309.226 357.086 305.963 360.348 301.955 360.348ZM55.9468 0.319773C52.1121 0.319773 48.9933 3.43853 48.9933 7.27327V353.078C48.9933 356.912 52.1121 360.031 55.9468 360.031H301.955C305.788 360.031 308.907 356.912 308.907 353.078V7.27199C308.907 3.43853 305.788 0.3185 301.955 0.3185L55.9468 0.319773Z" fill="#EBEBEB"/>
<path d="M577.517 360.348H331.51C327.501 360.348 324.239 357.086 324.239 353.076V7.27199C324.239 3.26271 327.502 0 331.51 0H577.517C581.527 0 584.789 3.26271 584.789 7.27199V353.076C584.79 357.086 581.527 360.348 577.517 360.348ZM331.51 0.319773C327.677 0.319773 324.558 3.43853 324.558 7.27327V353.078C324.558 356.912 327.677 360.031 331.51 360.031H577.517C581.352 360.031 584.47 356.912 584.47 353.078V7.27199C584.47 3.43853 581.352 0.3185 577.517 0.3185L331.51 0.319773Z" fill="#EBEBEB"/>
<path d="M369.066 151.74L544.599 151.74V36.791L369.066 36.791V151.74Z" fill="#E6E6E6"/>
<path d="M363.71 151.74L542.096 151.74V36.791L363.71 36.791V151.74Z" fill="#F0F0F0"/>
<path d="M369.066 174.301L544.599 174.301V151.741L369.066 151.741V174.301Z" fill="#E6E6E6"/>
<path d="M354.787 174.301L533.173 174.301V151.741L354.787 151.741V174.301Z" fill="#F0F0F0"/>
<path d="M534.599 144.243V44.29L371.209 44.29V144.243L534.599 144.243Z" fill="#FAFAFA"/>
<path d="M497.754 144.244L476.886 44.291H444.321L465.189 144.244H497.754Z" fill="white"/>
<path d="M531.126 136.78C531.422 136.78 531.663 136.541 531.663 136.245V49.1698C531.663 48.8743 531.423 48.6348 531.126 48.6348C530.831 48.6348 530.59 48.8743 530.59 49.1698V136.245C530.59 136.541 530.831 136.78 531.126 136.78Z" fill="#F0F0F0"/>
<path d="M458.194 144.244L437.326 44.291H424.629L445.498 144.244H458.194Z" fill="white"/>
<path d="M372.161 144.243V44.29H371.209V144.243H372.161Z" fill="#E6E6E6"/>
<path opacity="0.6" d="M361.937 55.5956H537.47L538.159 47.2051H362.626L361.937 55.5956Z" fill="#EBEBEB"/>
<path opacity="0.6" d="M361.937 69.3574H537.47L538.159 60.9668H362.626L361.937 69.3574Z" fill="#EBEBEB"/>
<path opacity="0.6" d="M361.937 83.1181H537.47L538.159 74.7275H362.626L361.937 83.1181Z" fill="#EBEBEB"/>
<path opacity="0.6" d="M361.937 96.8818H537.47L538.159 88.4912H362.626L361.937 96.8818Z" fill="#EBEBEB"/>
<path opacity="0.6" d="M361.937 110.643H537.47L538.159 102.253H362.626L361.937 110.643Z" fill="#EBEBEB"/>
<path opacity="0.6" d="M361.937 124.404H537.47L538.159 116.014H362.626L361.937 124.404Z" fill="#EBEBEB"/>
<path d="M519.394 333.57H482.59V340.827H519.394V333.57Z" fill="#E6E6E6"/>
<path d="M413.169 417.168H419.963V250.191H413.169V417.168Z" fill="#E6E6E6"/>
<path d="M389.634 340.828H482.589V333.571H389.634V340.828Z" fill="#F5F5F5"/>
<path d="M519.394 373.277H482.59V380.534H519.394V373.277Z" fill="#E6E6E6"/>
<path d="M389.634 380.533H482.589V373.276H389.634V380.533Z" fill="#F5F5F5"/>
<path d="M519.394 254.158H482.59V261.415H519.394V254.158Z" fill="#E6E6E6"/>
<path d="M389.634 261.414H482.589V254.157H389.634V261.414Z" fill="#F5F5F5"/>
<path d="M519.394 293.865H482.59V301.122H519.394V293.865Z" fill="#E6E6E6"/>
<path d="M389.634 301.12H482.589V293.863H389.634V301.12Z" fill="#F5F5F5"/>
<path d="M506.124 417.168H512.918V250.191H506.124V417.168Z" fill="#E6E6E6"/>
<path d="M475.795 417.168H482.589V250.191H475.795V417.168Z" fill="#F5F5F5"/>
<path d="M389.634 417.168H396.429V250.191H389.634V417.168Z" fill="#F5F5F5"/>
<path d="M83.286 417.168H152.818L152.818 282.262H83.286L83.286 417.168Z" fill="#E6E6E6"/>
<path d="M101.854 417.168H83.2871V398.545H121.321L101.854 417.168Z" fill="#FAFAFA"/>
<path d="M272.869 417.168H342.401V282.262H272.869V417.168Z" fill="#E6E6E6"/>
<path d="M83.2863 410.759H289.074V282.262H83.2863L83.2863 410.759Z" fill="#FAFAFA"/>
<path d="M270.508 417.168H289.075V398.545H251.04L270.508 417.168Z" fill="#FAFAFA"/>
<path d="M97.6887 362.301H274.669V330.144H97.6887V362.301Z" fill="#F0F0F0"/>
<path d="M97.6887 401.33H274.669V369.173H97.6887V401.33Z" fill="#F0F0F0"/>
<path d="M131.329 333.583H241.03C244.25 333.583 246.86 330.972 246.86 327.752V327.359H125.499V327.752C125.499 330.972 128.109 333.583 131.329 333.583Z" fill="#FAFAFA"/>
<path d="M97.6887 323.271H274.669V291.114H97.6887V323.271Z" fill="#F0F0F0"/>
<path d="M131.329 294.553H241.03C244.25 294.553 246.86 291.942 246.86 288.721V288.329H125.499V288.721C125.499 291.942 128.109 294.553 131.329 294.553Z" fill="#FAFAFA"/>
<path d="M131.329 372.612H241.03C244.25 372.612 246.86 370.001 246.86 366.782V366.39H125.499V366.782C125.499 370.001 128.109 372.612 131.329 372.612Z" fill="#FAFAFA"/>
<path d="M94.3625 151.74L269.896 151.74V36.791L94.3625 36.791V151.74Z" fill="#E6E6E6"/>
<path d="M89.0071 151.74L267.393 151.74V36.791L89.0071 36.791V151.74Z" fill="#F0F0F0"/>
<path d="M94.3625 174.301L269.896 174.301V151.741L94.3625 151.741V174.301Z" fill="#E6E6E6"/>
<path d="M80.0833 174.301L258.469 174.301V151.741L80.0833 151.741V174.301Z" fill="#F0F0F0"/>
<path d="M259.895 144.245V44.292L96.5053 44.292L96.5053 144.245L259.895 144.245Z" fill="#FAFAFA"/>
<path d="M223.051 144.245L202.182 44.292H169.617L190.487 144.245H223.051Z" fill="white"/>
<path d="M256.421 136.78C256.717 136.78 256.956 136.541 256.956 136.245V49.1698C256.956 48.8743 256.717 48.6348 256.421 48.6348C256.126 48.6348 255.885 48.8743 255.885 49.1698V136.245C255.886 136.541 256.126 136.78 256.421 136.78Z" fill="#F0F0F0"/>
<path d="M183.491 144.245L162.621 44.292H149.926L170.795 144.245H183.491Z" fill="white"/>
<path d="M97.457 144.245L97.457 44.292H96.5054L96.5054 144.245H97.457Z" fill="#E6E6E6"/>
<path opacity="0.6" d="M87.2324 55.5966H262.765L263.456 47.2061H87.9229L87.2324 55.5966Z" fill="#EBEBEB"/>
<path opacity="0.6" d="M87.2324 60.3303H262.765L263.456 51.9385H87.9229L87.2324 60.3303Z" fill="#EBEBEB"/>
<path opacity="0.6" d="M87.2324 65.0624H262.765L263.456 56.6719H87.9229L87.2324 65.0624Z" fill="#EBEBEB"/>
<path opacity="0.6" d="M87.2324 69.7961H262.765L263.456 61.4043H87.9229L87.2324 69.7961Z" fill="#EBEBEB"/>
<path opacity="0.6" d="M87.2324 74.5302H262.765L263.456 66.1396H87.9229L87.2324 74.5302Z" fill="#EBEBEB"/>
<path opacity="0.6" d="M87.2324 79.2626H262.765L263.456 70.8721H87.9229L87.2324 79.2626Z" fill="#EBEBEB"/>
<path d="M122.323 278.137H128.391V210.498H122.323L122.323 278.137Z" fill="#F5F5F5"/>
<path d="M123.103 278.091H124.816L124.816 210.452H123.103L123.103 278.091Z" fill="#FAFAFA"/>
<path d="M125.535 278.091H126.206L126.206 210.452H125.535L125.535 278.091Z" fill="#FAFAFA"/>
<path d="M102.895 282.26H147.821C147.821 279.134 145.287 276.6 142.16 276.6H108.555C105.429 276.6 102.895 279.134 102.895 282.26Z" fill="#F0F0F0"/>
<path d="M114.45 252.488C115.411 252.488 116.196 251.702 116.196 250.743V206.395C116.196 205.435 115.41 204.649 114.45 204.649C113.49 204.649 112.705 205.435 112.705 206.395V250.743C112.705 251.703 113.49 252.488 114.45 252.488Z" fill="#F0F0F0"/>
<path d="M98.1934 226.576H152.519L146.27 188.612H104.442L98.1934 226.576Z" fill="#E0E0E0"/>
<path d="M318.501 474.704C454.923 474.704 565.516 468.245 565.516 460.278C565.516 452.311 454.923 445.853 318.501 445.853C182.079 445.853 71.4863 452.311 71.4863 460.278C71.4863 468.245 182.079 474.704 318.501 474.704Z" fill="#F5F5F5"/>
<path d="M132.634 187.797L131.363 187.889L133.055 211.382L134.325 211.291L132.634 187.797Z" fill="#92BD07"/>
<path d="M135.222 223.411L133.951 223.503L134.588 232.341L135.859 232.249L135.222 223.411Z" fill="#92BD07"/>
<path d="M430.245 331.504H157.408C151.236 331.504 145.824 326.456 145.38 320.284L131.974 134.115C131.529 127.943 136.215 122.895 142.386 122.895H415.223C421.395 122.895 426.806 127.943 427.251 134.115L440.657 320.284C441.101 326.456 436.416 331.504 430.245 331.504Z" fill="#92BD07"/>
<path d="M431.291 331.502H158.454C152.282 331.502 146.87 326.454 146.426 320.282L133.019 134.113C132.575 127.941 137.261 122.893 143.432 122.893H416.269C422.44 122.893 427.852 127.941 428.297 134.113L441.703 320.282C442.147 326.454 437.462 331.502 431.291 331.502Z" fill="#92BD07"/>
<path opacity="0.5" d="M431.291 331.502H158.454C152.282 331.502 146.87 326.454 146.426 320.282L133.019 134.113C132.575 127.941 137.261 122.893 143.432 122.893H416.269C422.44 122.893 427.852 127.941 428.297 134.113L441.703 320.282C442.147 326.454 437.462 331.502 431.291 331.502Z" fill="white"/>
<path d="M416.673 128.505H143.835C143.527 128.505 143.223 128.518 142.922 128.542C135.948 129.116 137.372 139.725 144.411 139.725H417.714C424.752 139.725 424.649 129.116 417.593 128.542C417.288 128.518 416.981 128.505 416.673 128.505Z" fill="#92BD07"/>
<path d="M150.942 134.114C151.044 135.535 149.976 136.686 148.555 136.686C147.134 136.686 145.9 135.535 145.798 134.114C145.696 132.694 146.763 131.542 148.185 131.542C149.607 131.542 150.84 132.692 150.942 134.114Z" fill="#FAFAFA"/>
<path d="M159.693 134.114C159.795 135.535 158.727 136.686 157.306 136.686C155.885 136.686 154.651 135.535 154.549 134.114C154.447 132.694 155.514 131.542 156.936 131.542C158.357 131.542 159.591 132.692 159.693 134.114Z" fill="#FAFAFA"/>
<path d="M168.44 134.114C168.542 135.535 167.474 136.686 166.053 136.686C164.633 136.686 163.398 135.535 163.295 134.114C163.193 132.694 164.262 131.542 165.682 131.542C167.103 131.542 168.337 132.692 168.44 134.114Z" fill="#FAFAFA"/>
<path d="M424.056 312.924H163.009C160.763 312.924 158.81 311.102 158.648 308.856L147.623 155.755C147.461 153.509 149.152 151.688 151.398 151.688H412.444C414.69 151.688 416.643 153.508 416.805 155.755L427.83 308.856C427.992 311.102 426.302 312.924 424.056 312.924Z" fill="white"/>
<path d="M314.08 254.601L309.831 195.591L296.954 187.84H261.531L266.339 254.601H314.08Z" fill="white"/>
<path d="M314.08 255.219H266.339C266.016 255.219 265.747 254.969 265.724 254.645L260.916 187.884C260.903 187.713 260.963 187.544 261.08 187.419C261.197 187.293 261.36 187.223 261.532 187.223H296.955C297.067 187.223 297.178 187.253 297.273 187.312L310.149 195.062C310.321 195.165 310.432 195.346 310.446 195.546L314.695 254.556C314.708 254.727 314.648 254.896 314.531 255.021C314.415 255.147 314.25 255.219 314.08 255.219ZM266.914 253.984H313.416L309.237 195.955L296.783 188.457H262.195L266.914 253.984Z" fill="#92BD07"/>
<path d="M309.831 195.591L296.953 187.84L301.681 198.108L309.831 195.591Z" fill="#EBEBEB"/>
<path d="M301.681 198.725C301.445 198.725 301.224 198.588 301.121 198.365L296.393 188.098C296.279 187.852 296.339 187.561 296.542 187.38C296.743 187.199 297.04 187.172 297.272 187.311L310.148 195.062C310.357 195.187 310.472 195.424 310.442 195.666C310.413 195.908 310.245 196.109 310.012 196.18L301.863 198.698C301.803 198.716 301.742 198.725 301.681 198.725ZM298.353 189.403L302.016 197.358L308.33 195.407L298.353 189.403Z" fill="#92BD07"/>
<path d="M281.515 217.919C281.622 219.408 280.503 220.616 279.012 220.616C277.521 220.616 276.228 219.408 276.121 217.919C276.014 216.429 277.134 215.222 278.623 215.222C280.113 215.222 281.408 216.429 281.515 217.919Z" fill="#92BD07"/>
<path d="M299.015 217.919C299.122 219.408 298.002 220.616 296.511 220.616C295.022 220.616 293.728 219.408 293.619 217.919C293.512 216.429 294.632 215.222 296.123 215.222C297.613 215.223 298.908 216.429 299.015 217.919Z" fill="#92BD07"/>
<path d="M303.863 226.768C303.54 226.768 303.267 227.03 303.243 227.372C302.928 231.941 296.07 235.658 287.955 235.658C282.579 235.658 277.752 233.988 275.357 231.3C274.292 230.104 273.8 228.815 273.893 227.466C273.917 227.108 273.659 226.796 273.316 226.771C272.972 226.748 272.675 227.015 272.651 227.373C272.534 229.073 273.154 230.737 274.445 232.187C277.067 235.132 282.243 236.96 287.955 236.96C296.857 236.96 304.118 232.789 304.485 227.467C304.51 227.109 304.251 226.797 303.908 226.772C303.893 226.768 303.877 226.768 303.863 226.768Z" fill="#92BD07"/>
<path d="M450.6 150.493C451.739 149.923 453.095 149.185 454.35 148.496C455.628 147.794 456.9 147.061 458.151 146.299C460.646 144.763 463.163 143.244 465.55 141.558C470.368 138.239 474.882 134.556 478.944 130.534C479.476 130.047 479.928 129.507 480.42 128.992L481.146 128.212L481.511 127.823L481.693 127.628C481.741 127.577 481.73 127.587 481.707 127.618L481.666 127.68C481.485 128.02 481.636 127.917 481.706 127.588C481.791 127.272 481.862 126.756 481.885 126.198C481.967 123.885 481.511 120.969 480.956 118.149C479.823 112.435 478.105 106.558 476.408 100.8L481.358 98.6289C484.459 104.166 487.042 109.821 489.146 115.953C490.147 119.059 491.067 122.178 491.336 126.008C491.385 126.984 491.407 128.01 491.23 129.206C491.043 130.383 490.746 131.792 489.672 133.39L489.459 133.684L489.295 133.898L489.099 134.138L488.706 134.614L487.92 135.57C487.389 136.199 486.884 136.863 486.32 137.453C481.927 142.331 477.04 146.64 471.823 150.386C469.227 152.283 466.574 154.085 463.819 155.725C462.447 156.555 461.057 157.353 459.644 158.126C458.213 158.921 456.852 159.613 455.227 160.376L450.6 150.493Z" fill="#FFB573"/>
<path d="M439.268 450.009C440.254 450.009 441.332 449.805 442.085 449.627C442.183 449.604 442.258 449.525 442.276 449.425C442.294 449.325 442.251 449.225 442.167 449.17C441.801 448.929 438.561 446.838 437.319 447.4C437.123 447.489 436.877 447.684 436.816 448.111C436.736 448.677 436.877 449.128 437.235 449.454C437.69 449.869 438.448 450.009 439.268 450.009ZM441.37 449.267C439.513 449.637 438.115 449.574 437.575 449.081C437.346 448.872 437.26 448.577 437.316 448.181C437.346 447.968 437.445 447.898 437.527 447.861C438.18 447.566 440.049 448.468 441.37 449.267Z" fill="#92BD07"/>
<path d="M442.027 449.634C442.07 449.634 442.115 449.623 442.154 449.6C442.232 449.554 442.28 449.471 442.28 449.381C442.28 449.251 442.266 446.178 441.106 445.151C440.797 444.879 440.438 444.765 440.036 444.814C439.402 444.89 439.232 445.289 439.185 445.518C438.944 446.721 440.884 449.023 441.902 449.6C441.94 449.623 441.984 449.634 442.027 449.634ZM440.211 445.308C440.419 445.308 440.603 445.381 440.771 445.53C441.464 446.142 441.701 447.867 441.759 448.89C440.744 448.08 439.535 446.35 439.681 445.617C439.706 445.498 439.774 445.355 440.097 445.316C440.135 445.31 440.173 445.308 440.211 445.308Z" fill="#92BD07"/>
<path d="M441.089 118.628C439.849 124.96 437.232 137.785 441.663 142.011C441.663 142.011 439.931 148.434 428.166 148.434C415.228 148.434 421.983 142.012 421.983 142.012C429.045 140.325 428.863 135.087 427.632 130.167L441.089 118.628Z" fill="#FFB573"/>
<path d="M419.508 144.562C417.477 144.837 419.205 139.577 420.03 139.032C421.936 137.772 446.594 135.988 446.434 138.981C446.332 140.269 445.727 142.782 444.649 143.636C443.57 144.489 437.236 141.91 419.508 144.562Z" fill="#071C3E"/>
<path d="M423.526 142.792C421.913 143.338 422.066 138.037 422.615 137.398C423.886 135.923 443.845 130.795 444.437 133.696C444.665 134.948 444.775 137.451 444.09 138.423C443.406 139.393 437.542 137.787 423.526 142.792Z" fill="#071C3E"/>
<path d="M416.102 107.214C415.946 107.223 415.788 107.16 415.681 107.029C414.254 105.284 412.399 105.462 412.381 105.465C412.1 105.494 411.854 105.294 411.824 105.016C411.794 104.739 411.995 104.489 412.273 104.46C412.371 104.449 414.693 104.224 416.464 106.388C416.641 106.605 416.61 106.923 416.393 107.099C416.308 107.171 416.206 107.208 416.102 107.214Z" fill="#071C3E"/>
<path d="M413.633 113.448C413.633 113.448 412.543 117.279 411.117 119.216C412.352 120.16 414.227 119.488 414.227 119.488L413.633 113.448Z" fill="#FF5652"/>
<path d="M414.255 111.9C414.339 112.756 413.953 113.495 413.393 113.551C412.833 113.606 412.312 112.956 412.226 112.1C412.142 111.244 412.528 110.505 413.088 110.449C413.648 110.394 414.17 111.043 414.255 111.9Z" fill="#071C3E"/>
<path d="M413.341 110.471L411.225 110.08C411.225 110.08 412.439 111.585 413.341 110.471Z" fill="#071C3E"/>
<path d="M454.437 449.381H443.766L444.603 424.669H455.274L454.437 449.381Z" fill="#FFB573"/>
<path d="M442.922 448.147H454.91C455.346 448.147 455.7 448.451 455.761 448.876L457.127 458.361C457.268 459.345 456.422 460.276 455.416 460.259C451.236 460.188 449.222 459.942 443.95 459.942C440.706 459.942 435.967 460.278 431.489 460.278C427.108 460.278 426.771 455.849 428.636 455.449C436.999 453.65 438.32 451.169 441.138 448.804C441.645 448.377 442.283 448.147 442.922 448.147Z" fill="#071C3E"/>
<g opacity="0.2">
<path d="M455.277 424.676H444.601L444.176 437.414H454.852L455.277 424.676Z" fill="black"/>
</g>
<path d="M411.98 156.818C405.376 154.233 399.078 151.422 392.806 148.214C386.544 145.009 380.379 141.596 374.455 137.037C372.98 135.876 371.521 134.607 370.096 133.126C369.74 132.743 369.385 132.389 369.036 131.951C368.669 131.49 368.392 131.218 367.916 130.51C367.054 129.272 366.388 127.609 366.211 125.912C366.044 124.214 366.349 122.592 366.837 121.299C367.323 119.983 367.962 118.909 368.629 117.978C369.968 116.113 371.452 114.734 372.947 113.493C375.932 111.023 379.089 109.227 382.251 107.548C383.831 106.709 385.441 105.954 387.072 105.258C388.71 104.551 390.309 103.894 392.048 103.295L394.309 108.204C388.752 111.706 382.996 115.556 378.764 119.872C377.736 120.941 376.836 122.06 376.271 123.044C375.664 124.047 375.672 124.798 375.775 124.74C375.827 124.74 375.807 124.717 375.955 124.865L376.462 125.409C376.653 125.637 376.922 125.87 377.162 126.105C378.163 127.038 379.336 127.976 380.601 128.868C383.13 130.668 385.916 132.352 388.798 133.926C391.669 135.521 394.624 137.047 397.633 138.496C403.636 141.371 409.861 144.138 415.968 146.666L411.98 156.818Z" fill="#FFB573"/>
<path d="M397.449 104.725L399.214 100.898L391.193 98.1133C391.193 98.1133 388.695 105.634 391.672 109.104C394.207 108.698 396.374 107.057 397.449 104.725Z" fill="#FFB573"/>
<path d="M399.214 92.624L392.802 90.7754L391.193 98.1111L399.214 100.897V92.624Z" fill="#FFB573"/>
<path d="M482.019 101.269L482.955 92.3252L474.689 94.268C474.689 94.268 474.568 102.651 478.94 103.987L482.019 101.269Z" fill="#FFB573"/>
<path d="M478.972 86.0645L473.587 88.5793L474.688 94.2677L482.953 92.3249L478.972 86.0645Z" fill="#FFB573"/>
<path d="M442.767 106.128C443.155 116.711 443.546 121.182 438.764 127.105C431.571 136.013 418.486 134.176 414.943 123.922C411.754 114.691 411.653 98.9346 421.539 93.7341C431.279 88.6126 442.378 95.5432 442.767 106.128Z" fill="#FFB573"/>
<path d="M438.155 127.085C448.545 122.595 455.379 113.128 452.494 98.3257C449.735 84.1639 440.173 82.7651 436.224 85.7029C432.275 88.6407 422.43 84.262 416.523 89.2332C406.286 97.8467 415.964 107.133 421.005 112.635C424.016 118.824 427.961 131.49 438.155 127.085Z" fill="#071C3E"/>
<path d="M433.84 95.7834C437.346 100.86 444.071 102.294 448.861 98.9849C453.651 95.6776 454.692 88.8809 451.186 83.804C447.68 78.7271 440.956 77.2938 436.165 80.6024C431.375 83.9097 430.334 90.7065 433.84 95.7834Z" fill="#92BD07"/>
<path d="M436.538 86.6944C435.038 78.1612 443.113 71.581 453.91 74.7609C464.707 77.9408 458.996 87.5123 456.782 95.1563C454.568 102.8 460.378 110.081 462.807 104.259C465.235 98.4382 461.153 96.6406 461.153 96.6406C461.153 96.6406 472.618 99.6128 461.967 112.536C451.316 125.461 441.675 111.19 444.283 102.767C446.39 95.9615 437.956 94.7601 436.538 86.6944Z" fill="#071C3E"/>
<path d="M425.748 89.9198C420.818 87.3489 412.471 85.2697 407.72 93.2615C405.474 97.0402 406.345 102.166 406.345 102.166L420.854 103.131L425.748 89.9198Z" fill="#071C3E"/>
<path d="M404.637 99.6584C404.631 99.6584 404.625 99.6584 404.617 99.6571C404.441 99.6469 404.309 99.4953 404.319 99.3195C404.332 99.1029 404.683 93.9776 407.777 90.762C415.254 82.9932 424.02 89.4371 426.529 91.5978C426.662 91.7124 426.678 91.9137 426.562 92.0475C426.446 92.1813 426.246 92.1953 426.112 92.0806C423.71 90.0129 415.325 83.8378 408.235 91.2041C405.306 94.2477 404.957 99.308 404.953 99.359C404.944 99.5271 404.804 99.6584 404.637 99.6584Z" fill="#071C3E"/>
<path d="M422.782 112.215C422.766 114.276 421.843 116.294 420.673 117.664C418.913 119.722 416.895 118.708 416.432 116.425C416.016 114.37 416.428 110.823 418.654 109.58C420.845 108.356 422.8 109.858 422.782 112.215Z" fill="#FFB573"/>
<path d="M420.49 209.151C420.49 209.151 421.171 283.227 427.597 324.506C432.787 357.846 442.392 434.947 442.392 434.947H456.943C456.943 434.947 458.365 360.515 455.73 327.539C449.063 244.095 466.268 228.495 452.385 209.151H420.49Z" fill="#071C3E"/>
<path opacity="0.1" d="M420.49 209.151C420.49 209.151 421.171 283.227 427.597 324.506C432.787 357.846 442.392 434.947 442.392 434.947H456.943C456.943 434.947 458.365 360.515 455.73 327.539C449.063 244.095 466.268 228.495 452.385 209.151H420.49Z" fill="white"/>
<path opacity="0.3" d="M428.139 242.757C433.247 265.116 429.171 300.33 426.381 315.834C423.425 292.291 421.934 261.778 421.195 239.42C423.832 235.139 426.33 234.859 428.139 242.757Z" fill="black"/>
<path d="M440.4 435.236H458.935L459.908 428.733L440.294 428.069L440.4 435.236Z" fill="#92BD07"/>
<path d="M445.689 146.623C447.432 143.157 456.804 140.976 461.927 140.983L465.762 158.01C465.762 158.01 455.555 173.158 451.311 171.552C446.297 169.657 441.953 154.051 445.689 146.623Z" fill="#92BD07"/>
<path opacity="0.4" d="M445.689 146.623C447.432 143.157 456.804 140.976 461.927 140.983L465.762 158.01C465.762 158.01 455.555 173.158 451.311 171.552C446.297 169.657 441.953 154.051 445.689 146.623Z" fill="black"/>
<path d="M434.885 431.07C434.931 430.995 434.935 430.9 434.893 430.821C434.843 430.726 434.739 430.673 434.632 430.69C434.097 430.77 429.38 431.519 428.743 432.865C428.62 433.127 428.638 433.402 428.793 433.662C429.053 434.096 429.421 434.341 429.886 434.388C431.432 434.547 433.664 432.403 434.856 431.111C434.866 431.097 434.876 431.084 434.885 431.07ZM429.228 433.029C429.663 432.314 432.102 431.655 433.963 431.312C432.283 433.021 430.802 433.973 429.936 433.883C429.633 433.852 429.401 433.694 429.225 433.401C429.156 433.286 429.149 433.188 429.2 433.081C429.208 433.063 429.217 433.045 429.228 433.029Z" fill="#92BD07"/>
<path d="M434.885 431.072C434.895 431.057 434.902 431.039 434.908 431.021C434.937 430.937 434.918 430.842 434.86 430.775C434.78 430.682 432.891 428.505 431.149 428.391C430.615 428.357 430.149 428.515 429.761 428.863C429.237 429.332 429.282 429.739 429.413 429.998C429.964 431.091 433.353 431.472 434.72 431.188C434.789 431.172 434.848 431.13 434.885 431.072ZM429.897 429.468C429.936 429.403 430 429.326 430.098 429.239C430.385 428.981 430.719 428.869 431.116 428.896C432.26 428.971 433.561 430.155 434.152 430.757C432.642 430.885 430.195 430.426 429.864 429.77C429.845 429.73 429.795 429.633 429.897 429.468Z" fill="#92BD07"/>
<path d="M446.008 426.551L436.248 430.886L431.898 421.834L426.215 409.981L425.549 408.603L435.297 404.261L436.052 405.812L441.562 417.291L446.008 426.551Z" fill="#FFB573"/>
<path opacity="0.2" d="M441.559 417.291L431.896 421.834L426.213 409.981L436.049 405.812L441.559 417.291Z" fill="black"/>
<path d="M409.044 209.151C409.044 209.151 377.865 286.655 386.316 323.151C393.954 356.135 427.726 418.601 427.726 418.601L440.785 412.046C440.785 412.046 419.906 336.641 417.641 320.259C413.235 288.387 441.562 243.395 441.562 209.151H409.044Z" fill="#071C3E"/>
<path opacity="0.1" d="M409.044 209.151C409.044 209.151 377.865 286.655 386.316 323.151C393.954 356.135 427.726 418.601 427.726 418.601L440.785 412.046C440.785 412.046 419.906 336.641 417.641 320.259C413.235 288.387 441.562 243.395 441.562 209.151H409.044Z" fill="white"/>
<path d="M434.505 429.53L444.198 422.474C444.551 422.217 445.016 422.254 445.315 422.562L452.001 429.428C452.694 430.14 452.558 431.391 451.735 431.97C448.313 434.371 446.54 435.358 442.278 438.461C439.655 440.369 434.429 444.59 430.808 447.226C427.267 449.803 424.387 446.421 425.66 444.999C431.364 438.624 432.565 434.681 433.451 431.11C433.61 430.466 433.989 429.906 434.505 429.53Z" fill="#071C3E"/>
<path d="M426.884 421.365L443.741 413.655L441.577 406.787L423.527 415.02L426.884 421.365Z" fill="#92BD07"/>
<path d="M417.317 145.754C415.919 142.134 403.74 138.164 397.632 136.778L394.947 156.867C394.947 156.867 404.924 171.206 409.305 170.02C414.478 168.619 420.314 153.508 417.317 145.754Z" fill="#92BD07"/>
<path opacity="0.4" d="M417.317 145.754C415.919 142.134 403.74 138.164 397.632 136.778L394.947 156.867C394.947 156.867 404.924 171.206 409.305 170.02C414.478 168.619 420.314 153.508 417.317 145.754Z" fill="black"/>
<path d="M403.944 144.745C403.944 144.745 398.86 146.534 409.043 209.152C426.241 209.152 444.016 209.152 452.384 209.152C451.656 191.512 451.636 180.636 460.066 144.435C460.066 144.435 450.985 142.459 441.662 142.011C434.368 141.659 428.393 141.426 421.981 142.012C413.53 142.783 403.944 144.745 403.944 144.745Z" fill="#92BD07"/>
<path opacity="0.4" d="M403.944 144.745C403.944 144.745 398.86 146.534 409.043 209.152C426.241 209.152 444.016 209.152 452.384 209.152C451.656 191.512 451.636 180.636 460.066 144.435C460.066 144.435 450.985 142.459 441.662 142.011C434.368 141.659 428.393 141.426 421.981 142.012C413.53 142.783 403.944 144.745 403.944 144.745Z" fill="black"/>
<path d="M453.033 206.607L454.987 210.487C455.139 210.787 454.782 211.094 454.281 211.094H408.829C408.438 211.094 408.114 210.903 408.09 210.657L407.699 206.778C407.672 206.509 408.011 206.281 408.438 206.281H452.327C452.649 206.283 452.935 206.414 453.033 206.607Z" fill="#92BD07"/>
<path opacity="0.3" d="M453.033 206.607L454.987 210.487C455.139 210.787 454.782 211.094 454.281 211.094H408.829C408.438 211.094 408.114 210.903 408.09 210.657L407.699 206.778C407.672 206.509 408.011 206.281 408.438 206.281H452.327C452.649 206.283 452.935 206.414 453.033 206.607Z" fill="white"/>
<path d="M447.137 211.515H448.313C448.548 211.515 448.726 211.394 448.71 211.248L448.158 206.208C448.141 206.06 447.937 205.94 447.703 205.94H446.527C446.293 205.94 446.114 206.061 446.131 206.208L446.683 211.248C446.699 211.396 446.904 211.515 447.137 211.515Z" fill="#071C3E"/>
<path d="M418.647 211.515H419.823C420.058 211.515 420.236 211.394 420.219 211.248L419.668 206.208C419.651 206.06 419.447 205.94 419.213 205.94H418.037C417.803 205.94 417.624 206.061 417.641 206.208L418.192 211.248C418.208 211.396 418.413 211.515 418.647 211.515Z" fill="#071C3E"/>
<path d="M229.857 271.46C229.857 272.337 230.029 273.014 230.375 273.49C230.729 273.957 231.271 274.19 231.999 274.19C232.316 274.19 232.629 274.153 232.937 274.078C233.245 274.003 233.613 273.873 234.043 273.686L234.449 274.722C233.991 274.927 233.557 275.077 233.147 275.17C232.736 275.263 232.339 275.31 231.957 275.31C230.855 275.31 230.02 274.965 229.451 274.274C228.881 273.583 228.597 272.645 228.597 271.46V269.36C228.597 268.175 228.881 267.237 229.451 266.546C230.02 265.855 230.855 265.51 231.957 265.51C232.339 265.51 232.736 265.557 233.147 265.65C233.567 265.743 233.991 265.893 234.421 266.098L234.029 267.148C233.273 266.812 232.596 266.644 231.999 266.644C231.271 266.644 230.729 266.877 230.375 267.344C230.029 267.811 229.857 268.483 229.857 269.36V271.46ZM243.519 271.278V272.118C243.519 273.107 243.262 273.887 242.749 274.456C242.245 275.025 241.521 275.31 240.579 275.31C239.645 275.31 238.922 275.025 238.409 274.456C237.895 273.887 237.639 273.107 237.639 272.118V271.278C237.639 270.307 237.891 269.537 238.395 268.968C238.908 268.389 239.636 268.1 240.579 268.1C241.521 268.1 242.245 268.389 242.749 268.968C243.262 269.537 243.519 270.307 243.519 271.278ZM242.329 271.278C242.329 270.615 242.179 270.097 241.881 269.724C241.582 269.341 241.148 269.15 240.579 269.15C240.019 269.15 239.585 269.341 239.277 269.724C238.978 270.097 238.829 270.615 238.829 271.278V272.118C238.829 272.809 238.978 273.341 239.277 273.714C239.585 274.087 240.019 274.274 240.579 274.274C241.148 274.274 241.582 274.087 241.881 273.714C242.179 273.341 242.329 272.809 242.329 272.118V271.278ZM251.107 269.178C250.845 269.178 250.537 269.243 250.183 269.374C249.837 269.505 249.417 269.771 248.923 270.172V275.17H247.775V268.24H248.867V269.206C249.361 268.786 249.809 268.497 250.211 268.338C250.621 268.179 251.013 268.1 251.387 268.1C252.031 268.1 252.521 268.305 252.857 268.716C253.202 269.117 253.375 269.691 253.375 270.438V275.17H252.227V270.606C252.227 269.654 251.853 269.178 251.107 269.178ZM261.751 274.918C261.228 275.179 260.673 275.31 260.085 275.31C259.581 275.31 259.184 275.207 258.895 275.002C258.615 274.797 258.414 274.521 258.293 274.176C258.181 273.831 258.125 273.448 258.125 273.028V269.248H256.921V268.24H258.125V266.308H259.273V268.24H261.541V269.248H259.273V272.986C259.273 273.471 259.352 273.807 259.511 273.994C259.679 274.171 259.936 274.26 260.281 274.26C260.449 274.26 260.622 274.241 260.799 274.204C260.986 274.157 261.186 274.083 261.401 273.98L261.751 274.918ZM270.499 275.24C270.07 275.24 269.725 275.142 269.463 274.946C269.211 274.75 269.034 274.507 268.931 274.218C268.474 274.619 268.059 274.904 267.685 275.072C267.312 275.231 266.939 275.31 266.565 275.31C265.959 275.31 265.511 275.114 265.221 274.722C264.932 274.33 264.787 273.849 264.787 273.28C264.787 272.897 264.857 272.557 264.997 272.258C265.137 271.959 265.375 271.726 265.711 271.558C266.047 271.381 266.5 271.292 267.069 271.292C267.321 271.292 267.597 271.311 267.895 271.348C268.194 271.376 268.497 271.413 268.805 271.46V270.522C268.805 269.999 268.689 269.645 268.455 269.458C268.231 269.262 267.9 269.164 267.461 269.164C266.864 269.164 266.197 269.327 265.459 269.654L265.095 268.702C265.525 268.506 265.935 268.357 266.327 268.254C266.719 268.151 267.116 268.1 267.517 268.1C268.171 268.1 268.67 268.207 269.015 268.422C269.361 268.637 269.599 268.921 269.729 269.276C269.86 269.631 269.925 270.018 269.925 270.438V273.434C269.925 273.649 269.967 273.831 270.051 273.98C270.135 274.12 270.303 274.19 270.555 274.19H270.709V275.24H270.499ZM265.921 273.266C265.921 273.583 265.996 273.84 266.145 274.036C266.295 274.232 266.509 274.33 266.789 274.33C267.032 274.33 267.312 274.26 267.629 274.12C267.947 273.971 268.339 273.677 268.805 273.238V272.356C268.171 272.253 267.611 272.202 267.125 272.202C266.696 272.202 266.388 272.291 266.201 272.468C266.015 272.645 265.921 272.911 265.921 273.266ZM275.317 271.292V272.118C275.317 272.827 275.448 273.364 275.709 273.728C275.971 274.083 276.386 274.26 276.955 274.26C277.515 274.26 278.117 274.115 278.761 273.826L279.111 274.792C278.346 275.137 277.604 275.31 276.885 275.31C275.989 275.31 275.308 275.025 274.841 274.456C274.375 273.887 274.141 273.107 274.141 272.118V271.292C274.141 270.303 274.375 269.523 274.841 268.954C275.308 268.385 275.989 268.1 276.885 268.1C277.221 268.1 277.567 268.147 277.921 268.24C278.285 268.324 278.649 268.445 279.013 268.604L278.663 269.584C278.355 269.453 278.057 269.351 277.767 269.276C277.487 269.201 277.217 269.164 276.955 269.164C276.386 269.164 275.971 269.346 275.709 269.71C275.448 270.065 275.317 270.592 275.317 271.292ZM286.773 274.918C286.25 275.179 285.695 275.31 285.107 275.31C284.603 275.31 284.206 275.207 283.917 275.002C283.637 274.797 283.436 274.521 283.315 274.176C283.203 273.831 283.147 273.448 283.147 273.028V269.248H281.943V268.24H283.147V266.308H284.295V268.24H286.563V269.248H284.295V272.986C284.295 273.471 284.374 273.807 284.533 273.994C284.701 274.171 284.957 274.26 285.303 274.26C285.471 274.26 285.643 274.241 285.821 274.204C286.007 274.157 286.208 274.083 286.423 273.98L286.773 274.918ZM292.147 274.288C293.08 274.288 293.547 273.971 293.547 273.336C293.547 273.065 293.463 272.851 293.295 272.692C293.127 272.533 292.819 272.398 292.371 272.286L291.601 272.09C291.032 271.95 290.607 271.707 290.327 271.362C290.047 271.007 289.907 270.587 289.907 270.102C289.907 269.747 289.986 269.421 290.145 269.122C290.304 268.814 290.556 268.567 290.901 268.38C291.246 268.193 291.694 268.1 292.245 268.1C292.6 268.1 292.959 268.142 293.323 268.226C293.696 268.301 294.074 268.431 294.457 268.618L294.093 269.584C293.412 269.276 292.796 269.122 292.245 269.122C291.433 269.122 291.027 269.425 291.027 270.032C291.027 270.265 291.102 270.466 291.251 270.634C291.4 270.802 291.68 270.937 292.091 271.04L292.861 271.236C293.477 271.385 293.93 271.628 294.219 271.964C294.508 272.3 294.653 272.734 294.653 273.266C294.653 273.649 294.569 273.999 294.401 274.316C294.242 274.624 293.981 274.867 293.617 275.044C293.262 275.221 292.782 275.31 292.175 275.31C291.774 275.31 291.372 275.268 290.971 275.184C290.579 275.1 290.173 274.965 289.753 274.778L290.061 273.826C290.462 273.985 290.826 274.101 291.153 274.176C291.48 274.251 291.811 274.288 292.147 274.288ZM309.163 275.17L308.449 272.958H304.837L304.123 275.17H302.933L306.097 265.65H307.245L310.423 275.17H309.163ZM305.719 270.214L305.187 271.852H308.085L307.553 270.214L306.643 267.274L305.719 270.214ZM314.107 273.49V264.81H315.255V273.434C315.255 273.686 315.292 273.877 315.367 274.008C315.451 274.129 315.614 274.19 315.857 274.19H316.081V275.24H315.759C315.143 275.24 314.714 275.077 314.471 274.75C314.228 274.423 314.107 274.003 314.107 273.49ZM323.623 269.248C323.203 269.248 322.792 269.323 322.391 269.472C321.999 269.621 321.579 269.906 321.131 270.326V275.17H319.983V268.24H321.075V269.36C321.551 268.893 321.985 268.567 322.377 268.38C322.778 268.193 323.193 268.1 323.623 268.1V269.248ZM332.319 274.764C331.899 274.969 331.479 275.109 331.059 275.184C330.639 275.268 330.252 275.31 329.897 275.31C328.898 275.31 328.152 275.025 327.657 274.456C327.172 273.887 326.929 273.107 326.929 272.118V271.278C326.929 270.317 327.172 269.547 327.657 268.968C328.152 268.389 328.847 268.1 329.743 268.1C330.219 268.1 330.653 268.198 331.045 268.394C331.446 268.581 331.764 268.87 331.997 269.262C332.24 269.645 332.361 270.139 332.361 270.746C332.361 271.138 332.305 271.586 332.193 272.09H328.063V272.118C328.063 272.827 328.208 273.364 328.497 273.728C328.796 274.092 329.272 274.274 329.925 274.274C330.224 274.274 330.55 274.237 330.905 274.162C331.269 274.087 331.624 273.971 331.969 273.812L332.319 274.764ZM329.743 269.108C329.202 269.108 328.791 269.285 328.511 269.64C328.24 269.985 328.091 270.475 328.063 271.11H331.199C331.227 270.942 331.241 270.783 331.241 270.634C331.241 270.111 331.092 269.729 330.793 269.486C330.504 269.234 330.154 269.108 329.743 269.108ZM341.586 275.24C341.157 275.24 340.811 275.142 340.55 274.946C340.298 274.75 340.121 274.507 340.018 274.218C339.561 274.619 339.145 274.904 338.772 275.072C338.399 275.231 338.025 275.31 337.652 275.31C337.045 275.31 336.597 275.114 336.308 274.722C336.019 274.33 335.874 273.849 335.874 273.28C335.874 272.897 335.944 272.557 336.084 272.258C336.224 271.959 336.462 271.726 336.798 271.558C337.134 271.381 337.587 271.292 338.156 271.292C338.408 271.292 338.683 271.311 338.982 271.348C339.281 271.376 339.584 271.413 339.892 271.46V270.522C339.892 269.999 339.775 269.645 339.542 269.458C339.318 269.262 338.987 269.164 338.548 269.164C337.951 269.164 337.283 269.327 336.546 269.654L336.182 268.702C336.611 268.506 337.022 268.357 337.414 268.254C337.806 268.151 338.203 268.1 338.604 268.1C339.257 268.1 339.757 268.207 340.102 268.422C340.447 268.637 340.685 268.921 340.816 269.276C340.947 269.631 341.012 270.018 341.012 270.438V273.434C341.012 273.649 341.054 273.831 341.138 273.98C341.222 274.12 341.39 274.19 341.642 274.19H341.796V275.24H341.586ZM337.008 273.266C337.008 273.583 337.083 273.84 337.232 274.036C337.381 274.232 337.596 274.33 337.876 274.33C338.119 274.33 338.399 274.26 338.716 274.12C339.033 273.971 339.425 273.677 339.892 273.238V272.356C339.257 272.253 338.697 272.202 338.212 272.202C337.783 272.202 337.475 272.291 337.288 272.468C337.101 272.645 337.008 272.911 337.008 273.266ZM349.806 275.17V274.204C349.377 274.615 348.985 274.904 348.63 275.072C348.285 275.231 347.925 275.31 347.552 275.31C346.815 275.31 346.245 275.03 345.844 274.47C345.452 273.91 345.256 273.126 345.256 272.118V271.306C345.256 270.326 345.499 269.547 345.984 268.968C346.479 268.389 347.193 268.1 348.126 268.1C348.397 268.1 348.667 268.128 348.938 268.184C349.209 268.24 349.479 268.319 349.75 268.422V264.81H350.898V275.17H349.806ZM346.446 272.118C346.446 272.846 346.558 273.383 346.782 273.728C347.015 274.064 347.361 274.232 347.818 274.232C348.089 274.232 348.369 274.167 348.658 274.036C348.947 273.896 349.311 273.611 349.75 273.182V269.486C349.479 269.365 349.218 269.281 348.966 269.234C348.714 269.178 348.467 269.15 348.224 269.15C347.589 269.15 347.132 269.341 346.852 269.724C346.581 270.107 346.446 270.634 346.446 271.306V272.118ZM357.907 275.87C357.609 276.71 357.24 277.321 356.801 277.704C356.372 278.096 355.77 278.292 354.995 278.292V277.158C355.313 277.149 355.583 277.107 355.807 277.032C356.041 276.957 356.246 276.803 356.423 276.57C356.61 276.346 356.787 276.01 356.955 275.562L357.095 275.212L354.603 268.24H355.779L356.941 271.614L357.655 273.77L358.341 271.614L359.475 268.24H360.609L357.907 275.87ZM260.187 282.65H261.447V288.754C261.447 289.519 261.606 290.117 261.923 290.546C262.25 290.975 262.754 291.19 263.435 291.19C264.126 291.19 264.63 290.975 264.947 290.546C265.265 290.117 265.423 289.519 265.423 288.754V282.65H266.683V288.754C266.683 289.865 266.413 290.737 265.871 291.372C265.33 291.997 264.518 292.31 263.435 292.31C262.343 292.31 261.527 291.997 260.985 291.372C260.453 290.737 260.187 289.865 260.187 288.754V282.65ZM274.152 292.31C273.629 292.31 273.088 292.203 272.528 291.988V295.152H271.38V285.24H272.472V286.22C272.901 285.809 273.293 285.52 273.648 285.352C274.002 285.184 274.366 285.1 274.74 285.1C275.477 285.1 276.042 285.38 276.434 285.94C276.835 286.5 277.036 287.289 277.036 288.306V289.118C277.036 290.089 276.788 290.863 276.294 291.442C275.808 292.021 275.094 292.31 274.152 292.31ZM274.46 286.178C274.189 286.178 273.909 286.248 273.62 286.388C273.33 286.528 272.966 286.813 272.528 287.242V290.938C272.798 291.059 273.06 291.148 273.312 291.204C273.564 291.251 273.811 291.274 274.054 291.274C274.688 291.274 275.146 291.083 275.426 290.7C275.706 290.308 275.846 289.781 275.846 289.118V288.306C275.846 287.578 275.729 287.041 275.496 286.696C275.272 286.351 274.926 286.178 274.46 286.178ZM281.315 290.49V281.81H282.463V290.434C282.463 290.686 282.5 290.877 282.575 291.008C282.659 291.129 282.822 291.19 283.065 291.19H283.289V292.24H282.967C282.351 292.24 281.922 292.077 281.679 291.75C281.436 291.423 281.315 291.003 281.315 290.49ZM292.678 288.278V289.118C292.678 290.107 292.422 290.887 291.908 291.456C291.404 292.025 290.681 292.31 289.738 292.31C288.805 292.31 288.082 292.025 287.568 291.456C287.055 290.887 286.798 290.107 286.798 289.118V288.278C286.798 287.307 287.05 286.537 287.554 285.968C288.068 285.389 288.796 285.1 289.738 285.1C290.681 285.1 291.404 285.389 291.908 285.968C292.422 286.537 292.678 287.307 292.678 288.278ZM291.488 288.278C291.488 287.615 291.339 287.097 291.04 286.724C290.742 286.341 290.308 286.15 289.738 286.15C289.178 286.15 288.744 286.341 288.436 286.724C288.138 287.097 287.988 287.615 287.988 288.278V289.118C287.988 289.809 288.138 290.341 288.436 290.714C288.744 291.087 289.178 291.274 289.738 291.274C290.308 291.274 290.742 291.087 291.04 290.714C291.339 290.341 291.488 289.809 291.488 289.118V288.278ZM302.002 292.24C301.573 292.24 301.228 292.142 300.966 291.946C300.714 291.75 300.537 291.507 300.434 291.218C299.977 291.619 299.562 291.904 299.188 292.072C298.815 292.231 298.442 292.31 298.068 292.31C297.462 292.31 297.014 292.114 296.724 291.722C296.435 291.33 296.29 290.849 296.29 290.28C296.29 289.897 296.36 289.557 296.5 289.258C296.64 288.959 296.878 288.726 297.214 288.558C297.55 288.381 298.003 288.292 298.572 288.292C298.824 288.292 299.1 288.311 299.398 288.348C299.697 288.376 300 288.413 300.308 288.46V287.522C300.308 286.999 300.192 286.645 299.958 286.458C299.734 286.262 299.403 286.164 298.964 286.164C298.367 286.164 297.7 286.327 296.962 286.654L296.598 285.702C297.028 285.506 297.438 285.357 297.83 285.254C298.222 285.151 298.619 285.1 299.02 285.1C299.674 285.1 300.173 285.207 300.518 285.422C300.864 285.637 301.102 285.921 301.232 286.276C301.363 286.631 301.428 287.018 301.428 287.438V290.434C301.428 290.649 301.47 290.831 301.554 290.98C301.638 291.12 301.806 291.19 302.058 291.19H302.212V292.24H302.002ZM297.424 290.266C297.424 290.583 297.499 290.84 297.648 291.036C297.798 291.232 298.012 291.33 298.292 291.33C298.535 291.33 298.815 291.26 299.132 291.12C299.45 290.971 299.842 290.677 300.308 290.238V289.356C299.674 289.253 299.114 289.202 298.628 289.202C298.199 289.202 297.891 289.291 297.704 289.468C297.518 289.645 297.424 289.911 297.424 290.266ZM310.223 292.17V291.204C309.793 291.615 309.401 291.904 309.047 292.072C308.701 292.231 308.342 292.31 307.969 292.31C307.231 292.31 306.662 292.03 306.261 291.47C305.869 290.91 305.673 290.126 305.673 289.118V288.306C305.673 287.326 305.915 286.547 306.401 285.968C306.895 285.389 307.609 285.1 308.543 285.1C308.813 285.1 309.084 285.128 309.355 285.184C309.625 285.24 309.896 285.319 310.167 285.422V281.81H311.315V292.17H310.223ZM306.863 289.118C306.863 289.846 306.975 290.383 307.199 290.728C307.432 291.064 307.777 291.232 308.235 291.232C308.505 291.232 308.785 291.167 309.075 291.036C309.364 290.896 309.728 290.611 310.167 290.182V286.486C309.896 286.365 309.635 286.281 309.383 286.234C309.131 286.178 308.883 286.15 308.641 286.15C308.006 286.15 307.549 286.341 307.269 286.724C306.998 287.107 306.863 287.634 306.863 288.306V289.118ZM320.984 291.764C320.564 291.969 320.144 292.109 319.724 292.184C319.304 292.268 318.917 292.31 318.562 292.31C317.563 292.31 316.817 292.025 316.322 291.456C315.837 290.887 315.594 290.107 315.594 289.118V288.278C315.594 287.317 315.837 286.547 316.322 285.968C316.817 285.389 317.512 285.1 318.408 285.1C318.884 285.1 319.318 285.198 319.71 285.394C320.111 285.581 320.429 285.87 320.662 286.262C320.905 286.645 321.026 287.139 321.026 287.746C321.026 288.138 320.97 288.586 320.858 289.09H316.728V289.118C316.728 289.827 316.873 290.364 317.162 290.728C317.461 291.092 317.937 291.274 318.59 291.274C318.889 291.274 319.215 291.237 319.57 291.162C319.934 291.087 320.289 290.971 320.634 290.812L320.984 291.764ZM318.408 286.108C317.867 286.108 317.456 286.285 317.176 286.64C316.905 286.985 316.756 287.475 316.728 288.11H319.864C319.892 287.942 319.906 287.783 319.906 287.634C319.906 287.111 319.757 286.729 319.458 286.486C319.169 286.234 318.819 286.108 318.408 286.108ZM329.397 292.17V291.204C328.967 291.615 328.575 291.904 328.221 292.072C327.875 292.231 327.516 292.31 327.143 292.31C326.405 292.31 325.836 292.03 325.435 291.47C325.043 290.91 324.847 290.126 324.847 289.118V288.306C324.847 287.326 325.089 286.547 325.575 285.968C326.069 285.389 326.783 285.1 327.717 285.1C327.987 285.1 328.258 285.128 328.529 285.184C328.799 285.24 329.07 285.319 329.341 285.422V281.81H330.489V292.17H329.397ZM326.037 289.118C326.037 289.846 326.149 290.383 326.373 290.728C326.606 291.064 326.951 291.232 327.409 291.232C327.679 291.232 327.959 291.167 328.249 291.036C328.538 290.896 328.902 290.611 329.341 290.182V286.486C329.07 286.365 328.809 286.281 328.557 286.234C328.305 286.178 328.057 286.15 327.815 286.15C327.18 286.15 326.723 286.341 326.443 286.724C326.172 287.107 326.037 287.634 326.037 288.306V289.118Z" fill="#ACD037"/>
</svg>
