<svg width="24" height="24" viewBox="0 0 24 24" fill="none" xmlns="http://www.w3.org/2000/svg">
<path fill-rule="evenodd" clip-rule="evenodd" d="M20.0003 11.4999C20.0003 11.2238 20.2242 10.9999 20.5003 10.9999C20.7765 10.9999 21.0003 11.2238 21.0003 11.4999V18.4999C21.0003 19.8806 19.881 20.9999 18.5003 20.9999H5.48633C4.10562 20.9999 2.98633 19.8806 2.98633 18.4999V5.49992C2.98633 4.11921 4.10562 2.99992 5.48633 2.99992H12.5003C12.679 2.99992 12.844 3.09522 12.9333 3.24992C13.0227 3.40462 13.0227 3.59522 12.9333 3.74992C12.844 3.90462 12.679 3.99992 12.5003 3.99992H5.48633C4.6579 3.99992 3.98633 4.67149 3.98633 5.49992V18.4999C3.98633 19.3283 4.6579 19.9999 5.48633 19.9999H18.5003C19.3288 19.9999 20.0003 19.3283 20.0003 18.4999V11.4999ZM18.8543 3.14592L20.8543 5.14592C20.9484 5.23972 21.0012 5.36709 21.0012 5.49992C21.0012 5.63274 20.9484 5.76011 20.8543 5.85392L12.8543 13.8539C12.7604 13.9476 12.633 14.0002 12.5003 13.9999H10.5003C10.2242 13.9999 10.0003 13.7761 10.0003 13.4999V11.4999C10.0001 11.3672 10.0526 11.2399 10.1463 11.1459L18.1463 3.14592C18.2401 3.05188 18.3675 2.99902 18.5003 2.99902C18.6332 2.99902 18.7605 3.05188 18.8543 3.14592ZM18.5003 4.20692L11.0003 11.7069V12.9999H12.2933L19.7933 5.49992L18.5003 4.20692Z" fill="#121924"/>
</svg>
