<svg width="500" height="500" viewBox="0 0 500 500" fill="none" xmlns="http://www.w3.org/2000/svg">
<path d="M156.213 37.5156H34.2783V239.354H156.213V37.5156Z" fill="#E0E0E0"/>
<path d="M152.159 37.5156H30.2236V239.354H152.159V37.5156Z" fill="#EBEBEB"/>
<path d="M146.967 41.6084H35.416V235.26H146.967V41.6084Z" fill="#FAFAFA"/>
<path d="M125.247 66.7725H56.6533V210.096H125.247V66.7725Z" fill="#EBEBEB"/>
<path d="M56.6529 159.379C56.4939 145.991 68.5319 132.92 81.7909 131.051C88.1129 130.16 94.8299 131.414 100.737 128.992C111.281 124.668 114.636 110.659 125.247 106.504L125.731 210.097H56.6529V159.379Z" fill="#E0E0E0"/>
<path d="M424.107 93.6862L414.099 93.7402L414.368 143.539L424.376 143.485L424.107 93.6862Z" fill="#E0E0E0"/>
<path d="M353.305 93.8529L327.388 93.9902L327.533 121.482L353.45 121.345L353.305 93.8529Z" fill="#EBEBEB"/>
<path d="M379.107 93.6804L353.19 93.8203L353.339 121.312L379.256 121.172L379.107 93.6804Z" fill="#F5F5F5"/>
<path d="M327.428 101.565C344.651 101.707 361.917 101.607 379.138 101.327C379.492 101.322 379.49 100.778 379.135 100.776C361.912 100.681 344.646 100.765 327.426 101.092C327.122 101.099 327.124 101.562 327.428 101.565Z" fill="#E0E0E0"/>
<path d="M358.325 120.853L311.239 121.107L311.36 143.511L358.446 143.257L358.325 120.853Z" fill="#EBEBEB"/>
<path d="M405.188 120.6L358.102 120.854L358.223 143.258L405.309 143.004L405.188 120.6Z" fill="#F5F5F5"/>
<path d="M311.262 127.35C342.542 127.704 373.932 127.387 405.211 126.886C405.565 126.88 405.563 126.337 405.208 126.335C373.926 126.17 342.534 126.188 311.26 126.877C310.956 126.885 310.958 127.347 311.262 127.35Z" fill="#E0E0E0"/>
<path d="M476.078 143.523H293.653V151.549H476.078V143.523Z" fill="#E0E0E0"/>
<path d="M330.927 147.383H323.521V174.771H330.927V147.383Z" fill="#E0E0E0"/>
<path d="M441.476 147.383H434.07V174.771H441.476V147.383Z" fill="#E0E0E0"/>
<path d="M433.871 75.1169L423.863 75.1709L424.233 143.661L434.241 143.607L433.871 75.1169Z" fill="#EBEBEB"/>
<path d="M449.509 87.8721L433.958 87.9561L434.258 143.46L449.809 143.376L449.509 87.8721Z" fill="#F5F5F5"/>
<path d="M449.395 98.5776C449.395 98.7266 445.914 98.8466 441.62 98.8466C437.325 98.8466 433.844 98.7256 433.844 98.5776C433.844 98.4286 437.325 98.3086 441.62 98.3086C445.914 98.3076 449.395 98.4286 449.395 98.5776Z" fill="#E0E0E0"/>
<path d="M449.395 96.2456C449.395 96.3946 445.914 96.5146 441.62 96.5146C437.325 96.5146 433.844 96.3936 433.844 96.2456C433.844 96.0966 437.325 95.9766 441.62 95.9766C445.914 95.9766 449.395 96.0966 449.395 96.2456Z" fill="#E0E0E0"/>
<path d="M449.395 135.037C449.395 135.186 445.914 135.306 441.62 135.306C437.325 135.306 433.844 135.185 433.844 135.037C433.844 134.889 437.325 134.767 441.62 134.767C445.914 134.768 449.395 134.888 449.395 135.037Z" fill="#E0E0E0"/>
<path d="M449.395 132.705C449.395 132.854 445.914 132.974 441.62 132.974C437.325 132.974 433.844 132.854 433.844 132.705C433.844 132.556 437.325 132.436 441.62 132.436C445.914 132.436 449.395 132.557 449.395 132.705Z" fill="#E0E0E0"/>
<path d="M441.87 127.617C441.721 127.617 441.6 122.017 441.6 115.111C441.6 108.203 441.721 102.604 441.87 102.604C442.019 102.604 442.139 108.203 442.139 115.111C442.14 122.017 442.019 127.617 441.87 127.617Z" fill="#E0E0E0"/>
<path d="M466.49 101.514H449.563V143.408H466.49V101.514Z" fill="#EBEBEB"/>
<path d="M431.587 86.8291C431.587 88.4181 430.299 89.7051 428.711 89.7051C427.122 89.7051 425.835 88.4171 425.835 86.8291C425.835 85.2411 427.123 83.9531 428.711 83.9531C430.299 83.9521 431.587 85.2401 431.587 86.8291Z" fill="#E0E0E0"/>
<path d="M429.599 94.7393H427.821V135.483H429.599V94.7393Z" fill="#E0E0E0"/>
<path d="M173.788 412.596C173.788 412.596 164.62 419.581 173.404 428.81C173.554 428.968 173.767 429.057 173.985 429.056L254.089 428.589C254.089 428.589 260.93 420.916 255.254 412.076L173.788 412.596Z" fill="#EBEBEB"/>
<path d="M236.384 419.888C236.384 419.977 226.409 420.05 214.107 420.05C201.801 420.05 191.828 419.978 191.828 419.888C191.828 419.799 201.801 419.726 214.107 419.726C226.409 419.726 236.384 419.799 236.384 419.888Z" fill="#E0E0E0"/>
<path d="M223.925 422.786C223.925 422.875 219.235 422.948 213.452 422.948C207.666 422.948 202.978 422.876 202.978 422.786C202.978 422.697 207.667 422.624 213.452 422.624C219.235 422.624 223.925 422.696 223.925 422.786Z" fill="#E0E0E0"/>
<path d="M244.574 428.333C244.522 428.319 244.75 427.413 244.998 425.929C245.248 424.447 245.48 422.377 245.46 420.085C245.436 417.792 245.165 415.727 244.887 414.25C244.611 412.771 244.365 411.87 244.417 411.855C244.438 411.849 244.52 412.068 244.65 412.471C244.783 412.873 244.943 413.465 245.111 414.204C245.449 415.68 245.759 417.764 245.783 420.082C245.802 422.399 245.532 424.488 245.222 425.971C245.068 426.713 244.92 427.308 244.794 427.712C244.673 428.118 244.595 428.339 244.574 428.333Z" fill="#E0E0E0"/>
<path d="M250.552 411.976C250.572 411.966 250.697 412.173 250.909 412.558C251.018 412.749 251.143 412.988 251.265 413.275C251.39 413.561 251.548 413.882 251.674 414.255C251.96 414.989 252.223 415.893 252.436 416.913C252.632 417.937 252.769 419.079 252.785 420.284C252.788 421.489 252.67 422.634 252.491 423.66C252.294 424.684 252.046 425.592 251.772 426.33C251.652 426.705 251.499 427.028 251.379 427.316C251.262 427.606 251.14 427.846 251.035 428.039C250.83 428.428 250.708 428.637 250.688 428.627C250.632 428.6 251.079 427.737 251.556 426.257C251.8 425.519 252.021 424.619 252.199 423.609C252.36 422.596 252.467 421.471 252.463 420.286C252.447 419.102 252.322 417.979 252.145 416.969C251.951 415.962 251.715 415.066 251.46 414.331C250.958 412.86 250.497 412.004 250.552 411.976Z" fill="#E0E0E0"/>
<path d="M186.427 428.44C186.408 428.452 186.276 428.261 186.054 427.904C185.939 427.727 185.808 427.506 185.68 427.236C185.549 426.968 185.383 426.669 185.252 426.315C184.953 425.623 184.684 424.763 184.471 423.788C184.278 422.81 184.152 421.715 184.16 420.561C184.183 419.408 184.337 418.316 184.557 417.343C184.796 416.374 185.088 415.521 185.406 414.837C185.546 414.487 185.72 414.193 185.858 413.928C185.993 413.661 186.131 413.444 186.25 413.27C186.482 412.919 186.619 412.732 186.637 412.745C186.692 412.779 186.176 413.553 185.616 414.927C185.33 415.611 185.066 416.456 184.847 417.409C184.648 418.367 184.505 419.436 184.483 420.565C184.475 421.694 184.589 422.767 184.762 423.729C184.955 424.688 185.196 425.539 185.464 426.23C185.988 427.62 186.482 428.408 186.427 428.44Z" fill="#E0E0E0"/>
<path d="M177.777 430.394C177.758 430.406 177.613 430.19 177.365 429.787C177.238 429.587 177.091 429.338 176.946 429.035C176.798 428.734 176.612 428.397 176.462 428.002C176.122 427.227 175.806 426.265 175.545 425.175C175.304 424.081 175.13 422.856 175.094 421.561C175.073 420.265 175.193 419.034 175.385 417.93C175.597 416.829 175.87 415.854 176.176 415.064C176.309 414.662 176.48 414.318 176.614 414.01C176.745 413.7 176.881 413.445 176.999 413.24C177.228 412.827 177.364 412.605 177.383 412.615C177.441 412.645 176.928 413.556 176.391 415.14C176.116 415.929 175.871 416.895 175.678 417.981C175.505 419.07 175.397 420.281 175.417 421.554C175.453 422.826 175.615 424.031 175.836 425.111C176.077 426.187 176.365 427.141 176.674 427.917C177.281 429.473 177.833 430.361 177.777 430.394Z" fill="#E0E0E0"/>
<path d="M251.149 452.984C251.149 453.591 251.149 468.313 251.149 468.313H221.487V452.984H251.149Z" fill="#EBEBEB"/>
<path d="M155.352 460.791C155.357 460.926 155.363 461.062 155.37 461.197C155.611 465.835 159.549 469.422 164.194 469.422H252.533V468.313H231.562C227.329 468.313 223.897 464.881 223.897 460.649C223.897 456.416 227.329 452.985 231.562 452.985H252.533V451.356L164.168 451.655C159.18 451.671 155.17 455.806 155.352 460.791Z" fill="#E0E0E0"/>
<path d="M251.149 460.853C251.149 460.942 245.05 461.015 237.529 461.015C230.005 461.015 223.907 460.943 223.907 460.853C223.907 460.764 230.005 460.691 237.529 460.691C245.05 460.692 251.149 460.764 251.149 460.853Z" fill="#E0E0E0"/>
<path d="M250.72 464.308C250.72 464.397 244.949 464.47 237.832 464.47C230.712 464.47 224.943 464.398 224.943 464.308C224.943 464.219 230.713 464.146 237.832 464.146C244.949 464.146 250.72 464.218 250.72 464.308Z" fill="#E0E0E0"/>
<path d="M251.15 467.467C251.15 467.556 245.961 467.629 239.563 467.629C233.162 467.629 227.974 467.557 227.974 467.467C227.974 467.378 233.161 467.305 239.563 467.305C245.961 467.306 251.15 467.378 251.15 467.467Z" fill="#E0E0E0"/>
<path d="M251.15 457.751C251.15 457.84 245.176 457.913 237.808 457.913C230.438 457.913 224.465 457.841 224.465 457.751C224.465 457.662 230.438 457.589 237.808 457.589C245.176 457.589 251.15 457.662 251.15 457.751Z" fill="#E0E0E0"/>
<path d="M250.721 454.646C250.721 454.735 245.404 454.808 238.846 454.808C232.286 454.808 226.97 454.735 226.97 454.646C226.97 454.557 232.286 454.484 238.846 454.484C245.403 454.485 250.721 454.557 250.721 454.646Z" fill="#E0E0E0"/>
<path d="M166.054 451.911C166.103 451.961 165.191 452.652 164.177 454.143C163.165 455.608 162.133 457.987 162.161 460.735C162.197 463.484 163.286 465.838 164.332 467.279C165.381 468.746 166.309 469.415 166.261 469.466C166.25 469.48 166.013 469.325 165.624 468.996C165.233 468.668 164.705 468.143 164.148 467.415C163.034 465.981 161.875 463.575 161.838 460.74C161.808 457.905 162.91 455.473 163.989 454.013C164.528 453.272 165.044 452.735 165.427 452.397C165.81 452.057 166.043 451.897 166.054 451.911Z" fill="#F5F5F5"/>
<path d="M163.068 451.585C163.117 451.635 162.205 452.326 161.191 453.817C160.179 455.283 159.146 457.661 159.175 460.409C159.211 463.158 160.3 465.512 161.346 466.953C162.395 468.42 163.323 469.089 163.275 469.14C163.264 469.154 163.027 468.999 162.638 468.67C162.247 468.342 161.719 467.817 161.162 467.089C160.048 465.655 158.889 463.249 158.852 460.414C158.822 457.579 159.924 455.147 161.004 453.687C161.543 452.946 162.059 452.409 162.442 452.071C162.824 451.731 163.057 451.571 163.068 451.585Z" fill="#F5F5F5"/>
<path d="M223.093 451.911C223.142 451.961 222.23 452.652 221.216 454.143C220.204 455.608 219.171 457.987 219.2 460.735C219.236 463.484 220.325 465.838 221.371 467.279C222.42 468.746 223.348 469.415 223.3 469.466C223.289 469.48 223.052 469.325 222.662 468.996C222.271 468.668 221.743 468.143 221.186 467.415C220.072 465.981 218.913 463.575 218.876 460.74C218.846 457.905 219.947 455.473 221.027 454.013C221.566 453.272 222.082 452.735 222.465 452.397C222.848 452.057 223.081 451.897 223.093 451.911Z" fill="#F5F5F5"/>
<path d="M220.105 451.585C220.154 451.635 219.242 452.326 218.228 453.817C217.216 455.283 216.183 457.661 216.212 460.409C216.248 463.158 217.337 465.512 218.383 466.953C219.432 468.42 220.36 469.089 220.312 469.14C220.301 469.154 220.064 468.999 219.674 468.67C219.283 468.342 218.755 467.817 218.198 467.089C217.084 465.655 215.925 463.249 215.888 460.414C215.858 457.579 216.96 455.147 218.04 453.687C218.579 452.946 219.095 452.409 219.478 452.071C219.86 451.731 220.093 451.571 220.105 451.585Z" fill="#F5F5F5"/>
<path d="M176.109 462.947C176.081 460.869 176.053 458.792 176.025 456.714C176.018 456.171 176.008 455.613 175.806 455.109C175.604 454.605 175.164 454.158 174.623 454.11C173.842 453.765 172.626 454.415 172.08 455.314C171.535 456.214 171.475 457.317 171.467 458.368C171.455 460.012 171.535 461.657 171.706 463.292C171.787 464.069 171.897 464.868 172.286 465.546C172.675 466.224 173.409 466.761 174.188 466.689C174.96 466.618 175.581 465.969 175.853 465.243C176.126 464.518 176.119 463.722 176.109 462.947Z" fill="#F5F5F5"/>
<path d="M210.417 461.153C210.417 461.242 204.031 461.315 196.155 461.315C188.276 461.315 181.891 461.243 181.891 461.153C181.891 461.064 188.276 460.991 196.155 460.991C204.031 460.991 210.417 461.064 210.417 461.153Z" fill="#F5F5F5"/>
<path d="M170.19 451.299L170.027 436.769H177.936L178.209 451.299H170.19Z" fill="#F5F5F5"/>
<path d="M177.469 439.353C177.469 439.442 175.823 439.515 173.794 439.515C171.764 439.515 170.118 439.443 170.118 439.353C170.118 439.264 171.763 439.191 173.794 439.191C175.823 439.192 177.469 439.264 177.469 439.353Z" fill="#E0E0E0"/>
<path d="M177.469 441.597C177.469 441.686 175.823 441.759 173.794 441.759C171.764 441.759 170.118 441.687 170.118 441.597C170.118 441.508 171.763 441.435 173.794 441.435C175.823 441.435 177.469 441.508 177.469 441.597Z" fill="#E0E0E0"/>
<path d="M177.469 443.84C177.469 443.929 175.823 444.002 173.794 444.002C171.764 444.002 170.118 443.93 170.118 443.84C170.118 443.751 171.763 443.678 173.794 443.678C175.823 443.678 177.469 443.75 177.469 443.84Z" fill="#E0E0E0"/>
<path d="M177.469 446.082C177.469 446.171 175.823 446.244 173.794 446.244C171.764 446.244 170.118 446.171 170.118 446.082C170.118 445.993 171.763 445.92 173.794 445.92C175.823 445.92 177.469 445.993 177.469 446.082Z" fill="#E0E0E0"/>
<path d="M177.469 448.324C177.469 448.413 175.823 448.486 173.794 448.486C171.764 448.486 170.118 448.414 170.118 448.324C170.118 448.235 171.763 448.162 173.794 448.162C175.823 448.162 177.469 448.234 177.469 448.324Z" fill="#E0E0E0"/>
<path d="M169.607 436.384H257.268C258.35 441.196 258.198 446.49 257.268 452.089H169.981V451.021H175.315C176.706 451.021 177.834 449.893 177.834 448.502V439.811C177.834 438.42 176.706 437.292 175.315 437.292H169.607V436.384Z" fill="#EBEBEB"/>
<path d="M190.332 444.246H191.795C191.85 444.246 191.903 444.259 191.953 444.285C192.057 444.346 192.11 444.437 192.11 444.56C192.11 444.596 192.106 444.628 192.099 444.654C192.07 444.778 192.037 444.902 192 445.028C191.796 445.697 191.49 446.249 191.084 446.684C190.681 447.114 190.265 447.329 189.837 447.329C189.779 447.329 189.72 447.325 189.661 447.317C189.262 447.256 188.931 447.017 188.666 446.597C188.375 446.128 188.229 445.541 188.229 444.836C188.229 444.422 188.287 444.004 188.402 443.581C188.588 442.899 188.878 442.334 189.271 441.886C189.682 441.42 190.121 441.186 190.589 441.186C190.786 441.186 190.97 441.228 191.143 441.312C191.521 441.498 191.806 441.854 191.997 442.38C192.021 442.427 192.032 442.476 192.032 442.526C192.032 442.581 192.018 442.634 191.989 442.683C191.926 442.787 191.835 442.839 191.718 442.839C191.686 442.839 191.654 442.834 191.62 442.824C191.518 442.789 191.451 442.724 191.419 442.627L191.403 442.599C191.356 442.47 191.297 442.355 191.227 442.253C191.035 441.974 190.802 441.836 190.527 441.836C190.367 441.836 190.205 441.895 190.044 442.013C189.737 442.233 189.471 442.615 189.246 443.161C189.015 443.722 188.9 444.271 188.9 444.811C188.9 445.33 188.984 445.762 189.152 446.107C189.338 446.489 189.592 446.68 189.915 446.68C190.132 446.678 190.368 446.536 190.622 446.254C190.935 445.905 191.184 445.451 191.373 444.896C190.7 444.896 190.35 444.892 190.324 444.884C190.096 444.848 189.979 444.729 189.974 444.53C189.979 444.491 189.99 444.455 190.005 444.424C190.06 444.305 190.169 444.246 190.332 444.246Z" fill="#FAFAFA"/>
<path d="M195.309 441.39C195.322 441.419 195.335 441.454 195.348 441.496C195.41 441.711 195.754 443.522 196.38 446.928C196.39 446.954 196.395 446.98 196.395 447.006C196.395 447.061 196.381 447.115 196.352 447.167C196.289 447.274 196.203 447.328 196.09 447.328C196.075 447.328 196.058 447.327 196.04 447.324C195.915 447.303 195.834 447.231 195.798 447.107L195.449 445.302H193.648L192.782 447.113C192.775 447.133 192.765 447.153 192.753 447.173C192.67 447.276 192.58 447.327 192.482 447.327C192.421 447.327 192.364 447.31 192.311 447.276C192.215 447.211 192.167 447.122 192.167 447.012C192.167 446.981 192.174 446.949 192.187 446.918C192.241 446.792 192.331 446.594 192.455 446.323C193.715 443.571 194.469 441.948 194.715 441.452C194.786 441.308 194.887 441.235 195.019 441.232C195.147 441.236 195.243 441.288 195.309 441.39ZM194.916 442.605L193.942 444.654H195.317L194.916 442.605Z" fill="#FAFAFA"/>
<path d="M200.197 447.329H197.555C197.494 447.329 197.438 447.312 197.386 447.278C197.31 447.223 197.26 447.112 197.237 446.947V446.943C197.237 446.836 197.48 445.033 197.966 441.534C197.969 441.494 197.974 441.455 197.982 441.418C198.037 441.289 198.132 441.225 198.266 441.225C198.319 441.225 198.367 441.237 198.412 441.261C198.522 441.319 198.578 441.412 198.578 441.54C198.555 441.778 198.495 442.273 198.398 443.023C198.096 445.332 197.938 446.551 197.925 446.679H200.17C200.231 446.679 200.287 446.69 200.339 446.71C200.473 446.765 200.54 446.864 200.54 447.005C200.54 447.04 200.535 447.074 200.524 447.107C200.479 447.23 200.37 447.303 200.197 447.329Z" fill="#FAFAFA"/>
<path d="M203.811 441.39C203.824 441.419 203.837 441.454 203.85 441.496C203.912 441.711 204.256 443.522 204.882 446.928C204.892 446.954 204.897 446.98 204.897 447.006C204.897 447.061 204.883 447.115 204.854 447.167C204.791 447.274 204.705 447.328 204.592 447.328C204.577 447.328 204.56 447.327 204.542 447.324C204.417 447.303 204.336 447.231 204.3 447.107L203.951 445.302H202.15L201.284 447.113C201.277 447.133 201.267 447.153 201.255 447.173C201.172 447.276 201.082 447.327 200.984 447.327C200.923 447.327 200.866 447.31 200.813 447.276C200.717 447.211 200.669 447.122 200.669 447.012C200.669 446.981 200.676 446.949 200.689 446.918C200.743 446.792 200.833 446.594 200.957 446.323C202.217 443.571 202.97 441.948 203.217 441.452C203.288 441.308 203.389 441.235 203.521 441.232C203.649 441.236 203.745 441.288 203.811 441.39ZM203.418 442.605L202.444 444.654H203.819L203.418 442.605Z" fill="#FAFAFA"/>
<path d="M208.019 444.508C208.225 445.08 208.384 445.521 208.497 445.832C208.769 446.585 208.906 446.982 208.906 447.024C208.906 447.081 208.889 447.134 208.855 447.184C208.792 447.28 208.704 447.329 208.591 447.329C208.473 447.326 208.387 447.256 208.329 447.117C208.309 447.061 208.292 447.016 208.279 446.984C208.135 446.655 207.899 446.035 207.572 445.122L206.077 447.165C205.994 447.273 205.901 447.328 205.797 447.331C205.741 447.331 205.686 447.316 205.634 447.288C205.534 447.227 205.485 447.14 205.485 447.024C205.485 446.998 205.486 446.976 205.489 446.957C205.497 446.91 205.549 446.825 205.646 446.702C206.147 446.055 206.7 445.284 207.306 444.389C207.242 444.214 207.182 444.047 207.124 443.89C206.562 442.383 206.281 441.604 206.281 441.554C206.281 441.496 206.294 441.443 206.32 441.393C206.378 441.289 206.462 441.236 206.575 441.236C206.712 441.239 206.81 441.297 206.87 441.411L207.752 443.789L209.514 441.39C209.589 441.293 209.683 441.243 209.795 441.241C209.847 441.241 209.895 441.253 209.939 441.276C210.041 441.333 210.092 441.427 210.092 441.557C210.092 441.601 210.081 441.65 210.061 441.702L208.019 444.508Z" fill="#FAFAFA"/>
<path d="M214.558 441.254C214.608 441.254 214.656 441.266 214.704 441.289C214.809 441.347 214.865 441.437 214.873 441.56C214.44 444.976 214.202 446.822 214.157 447.097C214.057 447.679 213.869 448.16 213.591 448.54C213.169 449.114 212.584 449.401 211.837 449.401C211.595 449.401 211.314 449.326 210.991 449.177C210.54 448.968 210.23 448.695 210.059 448.359C210.035 448.312 210.024 448.261 210.024 448.205C210.024 448.15 210.039 448.098 210.067 448.048C210.13 447.943 210.221 447.891 210.338 447.891C210.433 447.893 210.513 447.936 210.578 448.021C210.969 448.532 211.42 448.789 211.931 448.792C212.337 448.79 212.687 448.612 212.98 448.259C213.313 447.854 213.507 447.301 213.562 446.598C213.46 446.757 213.33 446.895 213.173 447.011C212.887 447.218 212.571 447.321 212.225 447.321C212.167 447.321 212.108 447.317 212.048 447.309C211.645 447.251 211.31 447.011 211.045 446.589C210.751 446.12 210.605 445.533 210.605 444.828C210.605 444.508 210.619 444.178 210.649 443.837C210.699 443.303 210.818 442.544 211.006 441.56C211.011 441.529 211.02 441.499 211.034 441.47C211.089 441.326 211.183 441.254 211.317 441.254C211.37 441.254 211.421 441.268 211.47 441.297C211.575 441.357 211.627 441.441 211.627 441.548C211.627 441.711 211.578 442.112 211.482 442.753C211.343 443.696 211.273 444.309 211.273 444.595C211.273 445.181 211.352 445.659 211.509 446.028C211.69 446.458 211.951 446.672 212.292 446.672C212.326 446.672 212.361 446.668 212.398 446.66C212.655 446.608 212.918 446.397 213.188 446.028C213.497 445.604 213.715 445.119 213.841 444.571L214.242 441.559C214.247 441.512 214.26 441.467 214.281 441.426C214.34 441.312 214.432 441.254 214.558 441.254Z" fill="#FAFAFA"/>
<path d="M253.976 452.294C253.887 452.294 253.814 448.687 253.814 444.238C253.814 439.787 253.886 436.181 253.976 436.181C254.065 436.181 254.138 439.788 254.138 444.238C254.137 448.686 254.065 452.294 253.976 452.294Z" fill="#F5F5F5"/>
<path d="M182.242 452.294C182.153 452.294 182.08 448.687 182.08 444.238C182.08 439.787 182.152 436.181 182.242 436.181C182.331 436.181 182.404 439.788 182.404 444.238C182.404 448.686 182.331 452.294 182.242 452.294Z" fill="#E0E0E0"/>
<path d="M255.515 452.294C255.426 452.294 255.353 448.687 255.353 444.238C255.353 439.787 255.425 436.181 255.515 436.181C255.604 436.181 255.677 439.788 255.677 444.238C255.676 448.686 255.604 452.294 255.515 452.294Z" fill="#F5F5F5"/>
<path d="M180.805 452.294C180.716 452.294 180.643 448.687 180.643 444.238C180.643 439.787 180.715 436.181 180.805 436.181C180.895 436.181 180.967 439.788 180.967 444.238C180.967 448.686 180.895 452.294 180.805 452.294Z" fill="#E0E0E0"/>
<path d="M232.721 438.835L232.707 438.807C235.101 440.738 238.354 443.363 241.972 446.282L242.054 446.348L241.952 446.375C241.56 446.478 241.141 446.588 240.719 446.699C237.905 447.437 235.241 448.137 232.897 448.752L232.881 448.756L232.866 448.75C229.959 447.517 227.507 446.477 225.776 445.743C224.918 445.375 224.239 445.084 223.769 444.883C223.541 444.783 223.364 444.706 223.239 444.652C223.182 444.626 223.138 444.606 223.104 444.591C223.074 444.577 223.059 444.568 223.059 444.568C223.059 444.568 223.076 444.572 223.107 444.584C223.142 444.598 223.187 444.615 223.245 444.638C223.371 444.689 223.55 444.762 223.78 444.855C224.252 445.05 224.934 445.333 225.797 445.69C227.531 446.415 229.989 447.443 232.902 448.661L232.871 448.659C235.214 448.041 237.878 447.338 240.691 446.596C241.113 446.485 241.532 446.375 241.924 446.272L241.904 446.365C238.293 443.437 235.047 440.804 232.658 438.866L232.645 438.855L232.644 438.838" fill="#E0E0E0"/>
<path d="M241.135 445.118L241.64 445.593L242.318 445.447L242.022 446.074L242.371 446.673L241.683 446.586L241.22 447.103L241.091 446.421L240.457 446.141L241.065 445.808L241.135 445.118Z" fill="#E0E0E0"/>
<path d="M232.247 448.063L232.592 448.35L233.025 448.229L232.858 448.646L233.107 449.019L232.659 448.989L232.381 449.342L232.271 448.907L231.85 448.751L232.229 448.511L232.247 448.063Z" fill="#E0E0E0"/>
<path d="M222.431 444.036L222.981 444.07L223.321 443.637L223.458 444.171L223.976 444.36L223.511 444.655L223.49 445.206L223.065 444.855L222.536 445.006L222.738 444.493L222.431 444.036Z" fill="#E0E0E0"/>
<path d="M245.289 438.952L245.839 438.987L246.179 438.553L246.316 439.087L246.833 439.276L246.368 439.572L246.348 440.122L245.923 439.771L245.393 439.922L245.596 439.41L245.289 438.952Z" fill="#E0E0E0"/>
<path d="M232.271 438.591L232.622 438.613L232.839 438.336L232.927 438.677L233.257 438.798L232.96 438.986L232.947 439.338L232.676 439.114L232.338 439.21L232.467 438.883L232.271 438.591Z" fill="#E0E0E0"/>
<path d="M246.061 439.338C246.059 439.374 243.062 439.275 239.368 439.116C235.672 438.958 232.678 438.801 232.679 438.765C232.68 438.729 235.677 438.829 239.373 438.987C243.068 439.145 246.063 439.302 246.061 439.338Z" fill="#E0E0E0"/>
<path d="M249.427 436.248H160.521C159.356 433.606 159.071 431.096 160.521 428.847H249.427C250.593 431.54 250.495 433.988 249.427 436.248Z" fill="#E0E0E0"/>
<path d="M227.097 430.962H178.93V433.655H227.097V430.962Z" fill="#EBEBEB"/>
<path d="M163.933 436.288C163.906 436.311 163.588 436.005 163.231 435.393C162.874 434.785 162.517 433.849 162.419 432.767C162.326 431.684 162.514 430.7 162.76 430.039C163.004 429.374 163.265 429.018 163.295 429.035C163.343 429.06 163.158 429.449 162.978 430.107C162.796 430.764 162.653 431.704 162.741 432.738C162.834 433.772 163.139 434.672 163.433 435.287C163.727 435.904 163.976 436.255 163.933 436.288Z" fill="#E0E0E0"/>
<path d="M165.857 436.288C165.83 436.311 165.512 436.005 165.155 435.393C164.798 434.785 164.441 433.849 164.343 432.767C164.25 431.684 164.438 430.7 164.684 430.039C164.928 429.374 165.189 429.018 165.219 429.035C165.267 429.06 165.082 429.449 164.902 430.107C164.719 430.764 164.577 431.704 164.665 432.738C164.759 433.772 165.063 434.672 165.357 435.287C165.65 435.904 165.9 436.255 165.857 436.288Z" fill="#E0E0E0"/>
<path d="M245.829 436.114C245.731 436.079 246.457 434.538 246.455 432.496C246.481 430.453 245.773 428.904 245.871 428.871C245.929 428.819 246.802 430.369 246.778 432.498C246.778 434.627 245.887 436.167 245.829 436.114Z" fill="#F5F5F5"/>
<path d="M244.175 436.097C244.078 436.074 244.452 434.512 244.442 432.553C244.447 430.593 244.069 429.033 244.166 429.01C244.24 428.981 244.77 430.542 244.766 432.553C244.774 434.564 244.249 436.126 244.175 436.097Z" fill="#F5F5F5"/>
<path d="M300.247 401.756L175.324 401.682C160.299 401.674 148.125 389.49 148.128 374.465L148.189 61.2802C148.192 46.2472 160.384 34.0642 175.417 34.0732L300.34 34.1462C315.365 34.1552 327.538 46.3392 327.536 61.3632L327.475 374.548C327.472 389.583 315.28 401.766 300.247 401.756Z" fill="#000021"/>
<path d="M299.929 45.3181L275.709 45.3041C272.461 45.3031 269.827 48.0541 269.827 51.4491L269.825 55.8421C269.825 59.2381 267.191 61.9891 263.943 61.9871L216.732 61.9591C213.484 61.9571 210.851 59.2031 210.852 55.8071L210.853 51.4141C210.853 48.0181 208.22 45.2641 204.972 45.2621L196.454 45.2571L175.255 45.2451C164.727 45.2391 156.188 53.7711 156.186 64.2991L156.126 369.99C156.124 380.514 164.65 389.046 175.173 389.053L299.847 389.126C310.374 389.132 318.913 380.601 318.916 370.072L318.976 64.3801C318.977 53.8561 310.451 45.3241 299.929 45.3181Z" fill="white"/>
<path d="M320.374 93.8879C320.374 94.0319 283.563 94.1479 238.165 94.1479C192.751 94.1479 155.948 94.0309 155.948 93.8879C155.948 93.7439 192.751 93.6279 238.165 93.6279C283.563 93.6279 320.374 93.7439 320.374 93.8879Z" fill="#000021"/>
<path d="M173.145 82.5629C173.028 82.5629 172.91 82.5219 172.815 82.4389L168.065 78.2729C167.955 78.1759 167.893 78.0369 167.895 77.8899C167.897 77.7439 167.963 77.6059 168.075 77.5119L172.825 73.5629C173.038 73.3859 173.353 73.4159 173.529 73.6269C173.706 73.8389 173.677 74.1549 173.465 74.3309L169.165 77.9059L173.475 81.6859C173.683 81.8679 173.704 82.1839 173.521 82.3919C173.422 82.5049 173.284 82.5629 173.145 82.5629Z" fill="#000021"/>
<path d="M276.801 77.6213C276.801 77.7653 261.327 77.8813 242.244 77.8813C223.154 77.8813 207.684 77.7643 207.684 77.6213C207.684 77.4783 223.154 77.3613 242.244 77.3613C261.327 77.3613 276.801 77.4773 276.801 77.6213Z" fill="#000021"/>
<path d="M296.818 77.588C296.818 78.579 296.015 79.383 295.023 79.383C294.032 79.383 293.228 78.58 293.228 77.588C293.228 76.597 294.031 75.793 295.023 75.793C296.015 75.793 296.818 76.597 296.818 77.588Z" fill="#000021"/>
<path d="M302.003 77.588C302.003 78.579 301.2 79.383 300.208 79.383C299.217 79.383 298.413 78.58 298.413 77.588C298.413 76.597 299.216 75.793 300.208 75.793C301.199 75.793 302.003 76.597 302.003 77.588Z" fill="#000021"/>
<path d="M307.187 77.588C307.187 78.579 306.384 79.383 305.392 79.383C304.401 79.383 303.597 78.58 303.597 77.588C303.597 76.597 304.4 75.793 305.392 75.793C306.384 75.793 307.187 76.597 307.187 77.588Z" fill="#000021"/>
<path d="M222.572 161.051C222.572 162.21 222.09 162.906 221.286 162.906C220.857 162.906 220.549 162.705 220.435 162.323C220.174 162.705 219.765 162.906 219.229 162.906C218.304 162.906 217.621 162.203 217.621 161.198C217.621 160.207 218.304 159.503 219.229 159.503C219.698 159.503 220.086 159.664 220.348 159.979V159.543H221.091V161.821C221.091 162.163 221.252 162.277 221.44 162.277C221.802 162.277 222.003 161.855 222.003 161.065C222.003 159.631 220.958 158.667 219.431 158.667C217.877 158.667 216.846 159.706 216.846 161.166C216.846 162.646 217.864 163.678 219.405 163.678C219.814 163.678 220.296 163.591 220.705 163.383L220.886 163.919C220.477 164.127 219.902 164.234 219.406 164.234C217.504 164.234 216.231 162.941 216.231 161.166C216.231 159.411 217.517 158.118 219.433 158.118C221.279 158.117 222.572 159.343 222.572 161.051ZM220.361 161.198C220.361 160.535 219.932 160.153 219.37 160.153C218.787 160.153 218.378 160.555 218.378 161.198C218.378 161.848 218.787 162.257 219.37 162.257C219.933 162.257 220.361 161.868 220.361 161.198Z" fill="#000021"/>
<path d="M260.358 162.865C260.358 163.009 253.124 163.125 244.203 163.125C235.279 163.125 228.047 163.008 228.047 162.865C228.047 162.721 235.279 162.605 244.203 162.605C253.124 162.605 260.358 162.722 260.358 162.865Z" fill="#000021"/>
<path d="M196.469 208.574C196.469 208.718 195.466 208.834 194.23 208.834C192.993 208.834 191.991 208.717 191.991 208.574C191.991 208.43 192.993 208.314 194.23 208.314C195.467 208.313 196.469 208.43 196.469 208.574Z" fill="#000021"/>
<path d="M207.017 219.409C207.017 219.553 201.616 219.669 194.954 219.669C188.29 219.669 182.89 219.552 182.89 219.409C182.89 219.266 188.29 219.149 194.954 219.149C201.615 219.148 207.017 219.265 207.017 219.409Z" fill="#000021"/>
<path d="M245.011 208.574C245.011 208.718 241.938 208.834 238.149 208.834C234.358 208.834 231.286 208.717 231.286 208.574C231.286 208.43 234.358 208.314 238.149 208.314C241.938 208.313 245.011 208.43 245.011 208.574Z" fill="#000021"/>
<path d="M249.057 218.831C249.057 218.975 243.526 219.091 236.705 219.091C229.882 219.091 224.352 218.974 224.352 218.831C224.352 218.687 229.881 218.571 236.705 218.571C243.526 218.571 249.057 218.687 249.057 218.831Z" fill="#000021"/>
<path d="M289.797 208.718C289.797 208.862 285.657 208.978 280.551 208.978C275.444 208.978 271.305 208.861 271.305 208.718C271.305 208.574 275.444 208.458 280.551 208.458C285.657 208.458 289.797 208.574 289.797 208.718Z" fill="#000021"/>
<path d="M293.264 219.264C293.264 219.408 287.927 219.524 281.346 219.524C274.762 219.524 269.427 219.407 269.427 219.264C269.427 219.121 274.763 219.004 281.346 219.004C287.928 219.004 293.264 219.121 293.264 219.264Z" fill="#000021"/>
<path d="M258.711 250.47H190.926C189.52 250.47 188.38 249.33 188.38 247.924V232.069C188.38 230.663 189.52 229.523 190.926 229.523H258.711C260.117 229.523 261.257 230.663 261.257 232.069V247.924C261.258 249.33 260.118 250.47 258.711 250.47Z" fill="#ACD037"/>
<path d="M247.477 240.347C247.477 240.491 238.095 240.607 226.525 240.607C214.951 240.607 205.571 240.49 205.571 240.347C205.571 240.203 214.951 240.087 226.525 240.087C238.095 240.086 247.477 240.203 247.477 240.347Z" fill="white"/>
<path d="M285.743 250.603H269.655C268.348 250.603 267.288 249.543 267.288 248.236V231.502C267.288 230.195 268.348 229.135 269.655 229.135H285.743C287.05 229.135 288.11 230.195 288.11 231.502V248.236C288.11 249.543 287.05 250.603 285.743 250.603Z" fill="#EBEBEB"/>
<path d="M275.455 238.77H279.943L277.889 241.924L275.455 238.77Z" fill="#000021"/>
<path d="M261.258 266.052C261.258 266.196 249.671 266.312 235.381 266.312C221.086 266.312 209.502 266.195 209.502 266.052C209.502 265.908 221.086 265.792 235.381 265.792C249.671 265.792 261.258 265.908 261.258 266.052Z" fill="#E0E0E0"/>
<path d="M276.323 275.801C276.323 275.945 259.3 276.061 238.306 276.061C217.304 276.061 200.285 275.944 200.285 275.801C200.285 275.658 217.305 275.541 238.306 275.541C259.3 275.54 276.323 275.657 276.323 275.801Z" fill="#E0E0E0"/>
<path d="M320.024 292.705C320.024 292.849 283.566 292.965 238.604 292.965C193.626 292.965 157.176 292.848 157.176 292.705C157.176 292.562 193.626 292.445 238.604 292.445C283.567 292.445 320.024 292.561 320.024 292.705Z" fill="#000021"/>
<path d="M240.204 311.67C240.06 311.67 239.943 307.543 239.943 302.454C239.943 297.363 240.06 293.237 240.204 293.237C240.348 293.237 240.464 297.363 240.464 302.454C240.465 307.543 240.348 311.67 240.204 311.67Z" fill="#000021"/>
<path d="M203.414 189.828C208.061 189.828 211.828 186.061 211.828 181.414C211.828 176.767 208.061 173 203.414 173C198.767 173 195 176.767 195 181.414C195 186.061 198.767 189.828 203.414 189.828Z" fill="#ACD037"/>
<path d="M199.615 181.568L200.695 180.488L202.779 182.34L206.868 178.405L207.871 179.485L202.624 184.423L199.615 181.568Z" fill="white"/>
<path d="M239.761 389.091L173.772 389.064C163.927 389.064 155.947 381.083 155.947 371.238V311.67H239.762L239.761 389.091Z" fill="#EBEBEB"/>
<path d="M300.628 389.25L238.963 389.089V311.67H319.141V370.736C319.142 380.66 310.553 389.25 300.628 389.25Z" fill="#455A64"/>
<path d="M320.024 311.67C320.024 311.814 283.569 311.93 238.609 311.93C193.634 311.93 157.186 311.813 157.186 311.67C157.186 311.527 193.634 311.41 238.609 311.41C283.569 311.41 320.024 311.526 320.024 311.67Z" fill="#000021"/>
<path d="M237.365 356.959C237.359 356.966 237.283 356.918 237.14 356.818C236.974 356.698 236.768 356.549 236.512 356.364C235.935 355.932 235.139 355.335 234.13 354.579C232.041 352.985 229.077 350.722 225.427 347.936C223.595 346.548 221.583 344.945 219.436 343.371C218.34 342.707 216.812 342.717 215.688 343.499C215.151 343.884 214.661 344.476 214.13 344.988C213.607 345.518 213.078 346.056 212.541 346.599C208.242 350.949 203.521 355.725 198.565 360.74C198.269 361.038 197.975 361.336 197.702 361.611L197.543 361.772L197.362 361.637C194.589 359.57 191.885 357.554 189.275 355.609C187.971 354.635 186.691 353.68 185.437 352.744C184.302 351.703 182.7 351.441 181.421 352.074C180.787 352.354 180.308 352.908 179.758 353.401C179.226 353.896 178.701 354.385 178.184 354.867C177.149 355.829 176.145 356.763 175.174 357.666C173.233 359.467 171.424 361.145 169.771 362.68C166.483 365.711 163.815 368.169 161.936 369.901C161.028 370.723 160.311 371.372 159.791 371.842C159.561 372.043 159.375 372.206 159.225 372.337C159.095 372.446 159.026 372.499 159.02 372.493C159.014 372.486 159.071 372.421 159.189 372.299C159.33 372.158 159.505 371.983 159.72 371.767C160.224 371.279 160.918 370.607 161.799 369.755C163.651 367.995 166.28 365.495 169.522 362.414C171.162 360.866 172.956 359.172 174.882 357.354C175.847 356.445 176.846 355.504 177.874 354.535C178.389 354.051 178.911 353.559 179.44 353.061C179.705 352.812 179.972 352.561 180.241 352.308C180.528 352.041 180.858 351.818 181.215 351.644C181.928 351.293 182.761 351.167 183.565 351.299C183.967 351.363 184.362 351.49 184.73 351.675C185.108 351.859 185.423 352.124 185.732 352.347C186.988 353.279 188.271 354.232 189.578 355.201C192.19 357.143 194.897 359.156 197.672 361.219L197.332 361.244C197.604 360.969 197.899 360.672 198.194 360.373C203.161 355.368 207.891 350.602 212.199 346.261C212.738 345.72 213.27 345.185 213.795 344.657C214.338 344.142 214.788 343.582 215.429 343.12C216.708 342.242 218.428 342.244 219.656 342.999C221.88 344.649 223.815 346.225 225.652 347.645C229.259 350.485 232.189 352.793 234.254 354.418C235.238 355.207 236.014 355.829 236.577 356.281C236.82 356.482 237.015 356.645 237.173 356.776C237.306 356.89 237.371 356.952 237.365 356.959Z" fill="#000021"/>
<path d="M204.655 330.973C204.596 330.976 204.625 330.325 204.329 329.224C204.037 328.143 203.302 326.561 201.673 325.344C200.866 324.75 199.854 324.247 198.69 324.048C197.534 323.857 196.232 323.899 194.996 324.374C193.76 324.821 192.581 325.664 191.744 326.829C190.883 327.978 190.399 329.452 190.384 330.971C190.398 332.491 190.882 333.966 191.743 335.115C192.58 336.28 193.759 337.123 194.996 337.57C196.232 338.046 197.534 338.087 198.691 337.896C199.855 337.697 200.867 337.194 201.674 336.6C203.302 335.383 204.037 333.801 204.329 332.72C204.626 331.62 204.597 330.969 204.655 330.973C204.673 330.973 204.683 331.132 204.684 331.439C204.692 331.745 204.654 332.201 204.526 332.771C204.286 333.896 203.58 335.574 201.897 336.894C201.063 337.539 200.002 338.091 198.77 338.322C197.546 338.545 196.16 338.517 194.832 338.022C193.505 337.556 192.236 336.662 191.332 335.418C190.403 334.19 189.876 332.604 189.863 330.972C189.877 329.341 190.404 327.755 191.332 326.527C192.236 325.283 193.505 324.389 194.832 323.923C196.159 323.429 197.546 323.401 198.769 323.623C200.001 323.853 201.063 324.406 201.896 325.05C203.579 326.37 204.285 328.048 204.525 329.173C204.653 329.744 204.691 330.199 204.683 330.505C204.683 330.813 204.673 330.973 204.655 330.973Z" fill="#000021"/>
<path d="M316.698 354.526C316.692 354.533 316.619 354.485 316.481 354.385C316.32 354.264 316.121 354.114 315.876 353.929C315.319 353.495 314.551 352.898 313.58 352.141C311.566 350.543 308.71 348.279 305.196 345.49C303.431 344.102 301.494 342.491 299.425 340.923C298.365 340.264 296.861 340.291 295.8 341.108C295.295 341.505 294.817 342.097 294.311 342.605C293.81 343.133 293.303 343.668 292.789 344.21C288.67 348.543 284.147 353.3 279.398 358.296C279.112 358.597 278.826 358.898 278.562 359.175L278.4 359.344L278.214 359.201C275.543 357.131 272.937 355.111 270.423 353.162C269.167 352.187 267.933 351.228 266.726 350.291C265.641 349.247 264.062 349.009 262.839 349.667C262.239 349.968 261.777 350.527 261.25 351.015C260.739 351.509 260.236 351.996 259.739 352.477C258.746 353.437 257.783 354.368 256.851 355.269C254.989 357.066 253.253 358.739 251.667 360.27C248.512 363.292 245.952 365.743 244.148 367.472C243.277 368.291 242.589 368.939 242.089 369.41C241.868 369.61 241.69 369.772 241.545 369.904C241.42 370.013 241.354 370.065 241.347 370.059C241.341 370.053 241.396 369.988 241.508 369.867C241.643 369.726 241.811 369.551 242.017 369.337C242.501 368.85 243.166 368.179 244.009 367.33C245.786 365.573 248.307 363.082 251.414 360.01C252.987 358.466 254.707 356.777 256.554 354.964C257.48 354.057 258.437 353.119 259.424 352.153C259.918 351.67 260.419 351.18 260.926 350.683C261.18 350.434 261.436 350.184 261.693 349.933C261.962 349.671 262.275 349.429 262.618 349.248C263.304 348.877 264.123 348.739 264.914 348.86C265.309 348.92 265.697 349.046 266.057 349.231C266.422 349.417 266.734 349.679 267.03 349.904C268.24 350.838 269.477 351.792 270.736 352.764C273.253 354.71 275.861 356.724 278.535 358.791L278.187 358.817C278.451 358.54 278.737 358.241 279.023 357.94C283.782 352.954 288.315 348.206 292.443 343.881C292.959 343.342 293.469 342.809 293.972 342.283C294.496 341.765 294.92 341.222 295.528 340.742C296.74 339.818 298.457 339.798 299.65 340.554C301.802 342.203 303.657 343.784 305.429 345.205C308.9 348.047 311.721 350.356 313.709 351.985C314.655 352.774 315.401 353.398 315.944 353.85C316.176 354.051 316.365 354.214 316.517 354.345C316.641 354.457 316.704 354.519 316.698 354.526Z" fill="#000021"/>
<path d="M282.705 328.775C282.646 328.779 282.675 328.127 282.379 327.026C282.087 325.945 281.352 324.363 279.723 323.147C278.916 322.553 277.904 322.05 276.74 321.851C275.584 321.66 274.282 321.702 273.046 322.177C271.81 322.624 270.631 323.467 269.794 324.632C268.933 325.781 268.449 327.255 268.434 328.775C268.448 330.295 268.932 331.77 269.793 332.919C270.63 334.084 271.809 334.927 273.046 335.375C274.282 335.851 275.585 335.892 276.741 335.701C277.905 335.502 278.917 334.999 279.724 334.405C281.352 333.188 282.087 331.606 282.379 330.526C282.675 329.422 282.646 328.771 282.705 328.775C282.723 328.775 282.732 328.934 282.734 329.241C282.742 329.547 282.704 330.003 282.576 330.573C282.336 331.698 281.63 333.376 279.947 334.696C279.113 335.341 278.052 335.893 276.82 336.124C275.596 336.347 274.21 336.319 272.882 335.825C271.555 335.359 270.286 334.465 269.382 333.221C268.453 331.993 267.926 330.407 267.913 328.775C267.927 327.144 268.454 325.558 269.383 324.33C270.287 323.086 271.556 322.192 272.883 321.726C274.21 321.232 275.597 321.204 276.82 321.426C278.052 321.656 279.113 322.209 279.947 322.853C281.63 324.173 282.336 325.851 282.576 326.976C282.704 327.547 282.741 328.002 282.734 328.308C282.732 328.615 282.723 328.775 282.705 328.775Z" fill="#000021"/>
<path d="M240.225 154.49C253.017 154.49 263.386 144.12 263.386 131.329C263.386 118.537 253.017 108.168 240.225 108.168C227.434 108.168 217.064 118.537 217.064 131.329C217.064 144.12 227.434 154.49 240.225 154.49Z" fill="#F5F5F5"/>
<path d="M255.204 148.901C254.518 141.784 248.459 135.749 240.233 135.749C232.008 135.749 226.382 141.972 225.26 148.951C225.26 148.951 230.343 154.572 240.233 154.49C250.124 154.408 255.204 148.901 255.204 148.901Z" fill="#E0E0E0"/>
<path d="M249.196 129.694C249.997 124.742 246.633 120.079 241.682 119.279C236.731 118.478 232.068 121.842 231.267 126.793C230.466 131.744 233.83 136.407 238.781 137.208C243.732 138.009 248.395 134.645 249.196 129.694Z" fill="#E0E0E0"/>
<path d="M255.095 148.107C254.984 148.138 254.965 146.425 253.678 143.828C252.994 142.562 251.944 141.123 250.404 139.803C248.869 138.497 246.857 137.273 244.486 136.485L244.016 136.329L244.447 136.098C245.885 135.328 247.198 134.087 248.066 132.486C248.938 130.894 249.326 128.928 249.025 126.975C248.76 125.02 247.754 123.099 246.186 121.701C244.63 120.293 242.504 119.438 240.299 119.437C238.1 119.437 235.977 120.285 234.42 121.687C232.849 123.077 231.843 124.993 231.57 126.942C231.253 128.893 231.649 130.851 232.5 132.45C232.934 133.247 233.472 133.963 234.083 134.573C234.695 135.188 235.391 135.653 236.099 136.107L236.498 136.363L236.039 136.486C233.601 137.14 231.588 138.368 230.12 139.757C228.641 141.148 227.675 142.656 227.021 143.944C226.368 145.239 226.015 146.325 225.8 147.066C225.689 147.436 225.624 147.725 225.575 147.918C225.528 148.112 225.503 148.212 225.493 148.21C225.482 148.209 225.486 148.105 225.513 147.906C225.542 147.708 225.587 147.412 225.68 147.034C225.858 146.277 226.178 145.168 226.808 143.838C227.439 142.516 228.393 140.959 229.888 139.511C231.371 138.064 233.431 136.774 235.93 136.08L235.871 136.459C235.169 136.02 234.419 135.528 233.774 134.888C233.127 134.253 232.555 133.505 232.094 132.668C231.186 130.991 230.757 128.927 231.083 126.867C231.364 124.806 232.42 122.775 234.079 121.302C235.722 119.816 237.973 118.914 240.301 118.915C242.634 118.915 244.889 119.825 246.531 121.318C248.187 122.8 249.244 124.836 249.516 126.903C249.825 128.965 249.403 131.037 248.474 132.707C247.549 134.386 246.16 135.676 244.646 136.468L244.607 136.081C247.062 136.923 249.071 138.187 250.628 139.547C252.182 140.918 253.228 142.411 253.893 143.718C254.182 144.394 254.478 144.98 254.606 145.536C254.767 146.08 254.914 146.538 254.949 146.929C255 147.283 255.042 147.571 255.075 147.805C255.098 148.004 255.105 148.106 255.095 148.107Z" fill="#000021"/>
<path d="M263.387 131.329C263.378 131.329 263.363 131.202 263.341 130.954C263.321 130.681 263.294 130.317 263.26 129.855C263.244 129.611 263.226 129.341 263.207 129.046C263.174 128.75 263.109 128.429 263.055 128.08C262.941 127.382 262.834 126.573 262.564 125.694C262.15 123.909 261.308 121.8 259.986 119.566C258.653 117.342 256.732 115.019 254.12 113.05C251.517 111.099 248.233 109.44 244.445 108.772C240.682 108.127 236.436 108.246 232.392 109.784C231.363 110.114 230.396 110.623 229.401 111.101C228.459 111.671 227.467 112.196 226.59 112.909C225.658 113.549 224.843 114.35 223.99 115.121C223.219 115.975 222.409 116.81 221.744 117.779C220.38 119.674 219.189 121.78 218.468 124.095C217.721 126.396 217.319 128.84 217.285 131.327C217.318 133.815 217.719 136.26 218.466 138.561C219.186 140.877 220.378 142.983 221.742 144.879C222.407 145.848 223.217 146.684 223.988 147.538C224.842 148.309 225.656 149.11 226.589 149.751C227.466 150.464 228.458 150.99 229.4 151.56C230.395 152.037 231.362 152.547 232.391 152.877C236.435 154.415 240.682 154.533 244.445 153.888C248.234 153.219 251.517 151.56 254.12 149.609C256.732 147.639 258.652 145.317 259.985 143.092C261.307 140.858 262.149 138.75 262.563 136.965C262.833 136.086 262.941 135.277 263.054 134.579C263.108 134.23 263.173 133.909 263.206 133.613C263.226 133.318 263.243 133.048 263.259 132.804C263.293 132.342 263.32 131.978 263.34 131.705C263.363 131.457 263.378 131.329 263.387 131.329C263.396 131.329 263.398 131.456 263.395 131.705C263.388 131.98 263.378 132.345 263.365 132.81C263.356 133.056 263.347 133.327 263.336 133.625C263.311 133.924 263.254 134.247 263.208 134.6C263.11 135.305 263.017 136.123 262.76 137.013C262.373 138.821 261.551 140.964 260.236 143.24C258.91 145.506 256.983 147.88 254.344 149.9C251.714 151.902 248.382 153.61 244.525 154.311C240.695 154.987 236.363 154.883 232.228 153.326C231.176 152.991 230.186 152.475 229.17 151.989C228.206 151.41 227.191 150.875 226.294 150.149C225.341 149.496 224.505 148.681 223.633 147.893C222.843 147.023 222.014 146.169 221.333 145.179C219.935 143.243 218.716 141.09 217.977 138.722C217.211 136.368 216.8 133.867 216.767 131.324C216.8 128.781 217.213 126.281 217.979 123.929C218.719 121.562 219.938 119.409 221.335 117.474C222.016 116.485 222.845 115.632 223.635 114.761C224.508 113.974 225.343 113.158 226.296 112.506C227.194 111.78 228.208 111.245 229.172 110.666C230.189 110.18 231.178 109.664 232.23 109.33C236.365 107.774 240.696 107.669 244.526 108.345C248.383 109.045 251.715 110.754 254.345 112.755C256.984 114.775 258.911 117.149 260.237 119.415C261.553 121.691 262.375 123.834 262.762 125.643C263.019 126.534 263.112 127.352 263.21 128.057C263.256 128.41 263.313 128.733 263.338 129.032C263.348 129.329 263.358 129.601 263.367 129.847C263.38 130.311 263.39 130.677 263.397 130.952C263.398 131.202 263.396 131.329 263.387 131.329Z" fill="#000021"/>
<path d="M144.439 236.529C132.277 242.829 122.95 253.676 116.244 265.62C109.538 277.563 105.216 290.669 100.935 303.68L97.1895 370.783C111.341 346.707 122.7 318.405 125.769 290.647C122.63 290.367 119.491 290.088 116.351 289.808C122.665 288.844 127.965 284.269 131.338 278.844C134.71 273.419 136.446 267.163 138.14 261.005C134.31 261.574 130.48 262.144 126.65 262.713C135.648 256.708 142.171 247.106 144.439 236.529Z" fill="#272A3D"/>
<path d="M144.439 236.529C132.277 242.829 122.95 253.676 116.244 265.62C109.538 277.563 105.216 290.669 100.935 303.68L97.1895 370.783C111.341 346.707 122.7 318.405 125.769 290.647C122.63 290.367 119.491 290.088 116.351 289.808C122.665 288.844 127.965 284.269 131.338 278.844C134.71 273.419 136.446 267.163 138.14 261.005C134.31 261.574 130.48 262.144 126.65 262.713C135.648 256.708 142.171 247.106 144.439 236.529Z" fill="#272A3D"/>
<path d="M95.0951 386.506C95.0951 386.506 64.3781 349.74 64.7331 314.643H77.1411C77.1411 314.643 63.6631 305.78 64.7301 300.817C65.7961 295.854 66.1511 277.064 66.1511 277.064L77.4961 279.9C77.4961 279.9 68.9881 275.646 67.9241 268.91C66.8611 262.174 70.4061 230.976 70.4061 230.976C70.4061 230.976 84.2321 245.511 88.4871 260.401C92.7411 275.291 103.908 292.663 100.629 338.041C97.3491 383.42 95.0951 386.506 95.0951 386.506Z" fill="#272A3D"/>
<path d="M110.667 389.977C110.667 389.977 143.946 367.808 151.34 339.512L141.364 336.797C141.364 336.797 154.139 332.62 154.367 328.396C154.595 324.172 158.421 308.988 158.421 308.988L148.68 308.786C148.68 308.786 156.451 307.227 158.78 302.044C161.109 296.861 165.084 271.003 165.084 271.003C165.084 271.003 150.788 279.664 144.11 290.704C137.432 301.744 124.653 313.267 117.361 350.468C110.069 387.669 110.667 389.977 110.667 389.977Z" fill="#272A3D"/>
<path d="M78.7961 263.03C78.8051 263.028 78.8411 263.157 78.9041 263.412C78.9701 263.692 79.0571 264.066 79.1691 264.544C79.3971 265.57 79.7221 267.035 80.1391 268.908C80.5631 270.802 81.0571 273.125 81.5931 275.83C82.1381 278.533 82.7741 281.608 83.3961 285.023C84.7091 291.84 86.0951 299.99 87.5231 309.057C88.9071 318.131 90.2891 328.128 91.5181 338.649C92.7221 349.177 93.6581 359.228 94.3811 368.38C95.0601 377.535 95.5701 385.787 95.8471 392.724C96.0211 396.191 96.1031 399.33 96.1891 402.086C96.2851 404.842 96.3341 407.216 96.3531 409.157C96.3751 411.075 96.3921 412.576 96.4051 413.626C96.4051 414.117 96.4051 414.501 96.4051 414.788C96.4021 415.05 96.3961 415.184 96.3871 415.184C96.3781 415.184 96.3661 415.05 96.3511 414.789C96.3381 414.502 96.3211 414.118 96.2991 413.628C96.2641 412.578 96.2141 411.079 96.1501 409.162C96.1001 407.222 96.0211 404.85 95.8981 402.096C95.7841 399.342 95.6761 396.206 95.4791 392.742C95.1551 385.811 94.6071 377.566 93.9031 368.419C93.1541 359.275 92.2051 349.231 91.0011 338.711C89.7731 328.197 88.4061 318.204 87.0491 309.132C85.6481 300.067 84.3011 291.915 83.0351 285.093C82.4371 281.675 81.8261 278.597 81.3091 275.89C80.8011 273.181 80.3361 270.852 79.9431 268.952C79.5681 267.071 79.2751 265.599 79.0691 264.569C78.9791 264.087 78.9081 263.708 78.8551 263.426C78.8061 263.165 78.7871 263.032 78.7961 263.03Z" fill="#000021"/>
<path d="M90.8339 409.019C90.8339 409.019 62.7239 377.124 53.9959 357.844L60.5849 355.029C55.8089 355.817 50.9159 353.764 47.2119 350.647C43.5089 347.53 40.7889 343.43 38.1219 339.39L46.8019 337.923C38.9089 335.708 31.9549 330.321 27.8369 323.232C38.0799 324.916 47.3459 330.543 54.9819 337.574C61.1659 343.269 66.4019 349.879 71.4309 356.633C73.8839 359.928 76.0309 363.438 77.8189 367.136C82.5439 376.903 90.8499 397.306 90.8339 409.019Z" fill="#272A3D"/>
<path d="M151.782 289.568C151.79 289.572 151.745 289.682 151.65 289.892C151.541 290.125 151.397 290.431 151.216 290.818C150.81 291.656 150.234 292.841 149.5 294.354C148.745 295.885 147.827 297.76 146.791 299.951C145.751 302.14 144.537 304.62 143.267 307.394C140.673 312.917 137.689 319.542 134.484 326.944C131.305 334.358 127.92 342.556 124.553 351.234C121.205 359.923 118.194 368.268 115.558 375.893C112.95 383.528 110.7 390.437 108.904 396.268C107.978 399.175 107.208 401.826 106.505 404.145C105.797 406.463 105.215 408.468 104.744 410.108C104.269 411.721 103.897 412.985 103.634 413.878C103.508 414.286 103.409 414.609 103.333 414.855C103.262 415.074 103.222 415.186 103.213 415.183C103.204 415.181 103.228 415.065 103.281 414.841C103.344 414.592 103.427 414.264 103.532 413.85C103.773 412.951 104.113 411.677 104.548 410.053C104.989 408.404 105.543 406.39 106.225 404.063C106.902 401.735 107.648 399.075 108.551 396.16C110.303 390.312 112.518 383.386 115.103 375.737C117.716 368.098 120.716 359.742 124.067 351.046C127.437 342.361 130.838 334.162 134.043 326.753C137.275 319.356 140.295 312.742 142.934 307.236C144.227 304.471 145.464 302.001 146.53 299.823C147.591 297.642 148.536 295.78 149.319 294.263C150.091 292.768 150.695 291.597 151.122 290.77C151.323 290.393 151.482 290.095 151.603 289.868C151.714 289.666 151.774 289.564 151.782 289.568Z" fill="#000021"/>
<path d="M93.2193 422.687C93.2013 422.689 93.1573 422.488 93.0903 422.101C93.0193 421.658 92.9303 421.097 92.8203 420.407C92.7143 419.67 92.5783 418.769 92.3853 417.73C92.1973 416.69 92.0163 415.5 91.7343 414.2C91.2323 411.589 90.5113 408.505 89.5913 405.114C88.6423 401.731 87.4773 398.045 86.0553 394.247C84.6113 390.456 83.0503 386.919 81.5263 383.752C79.9743 380.599 78.4763 377.807 77.1283 375.515C76.4813 374.353 75.8303 373.34 75.2843 372.435C74.7423 371.527 74.2493 370.763 73.8423 370.14C73.4693 369.55 73.1653 369.07 72.9253 368.691C72.7203 368.356 72.6193 368.176 72.6343 368.165C72.6493 368.155 72.7783 368.316 73.0113 368.631C73.2723 368.996 73.6033 369.458 74.0103 370.027C74.4443 370.634 74.9633 371.383 75.5293 372.278C76.1003 373.17 76.7743 374.172 77.4443 375.325C78.8373 377.6 80.3743 380.383 81.9563 383.538C83.5103 386.706 85.0923 390.254 86.5423 394.062C87.9703 397.877 89.1263 401.582 90.0543 404.986C90.9513 408.398 91.6383 411.503 92.0953 414.131C92.3553 415.439 92.5113 416.637 92.6723 417.684C92.8393 418.73 92.9453 419.636 93.0213 420.378C93.0913 421.074 93.1493 421.639 93.1943 422.086C93.2283 422.478 93.2373 422.684 93.2193 422.687Z" fill="#000021"/>
<path d="M130.311 415.185H68.7881V427.735H130.311V415.185Z" fill="#C3DF53"/>
<path d="M74.6504 427.734L81.3054 469.946H118.481L124.683 427.734H74.6504Z" fill="#C3DF53"/>
<path d="M126.536 427.735C126.536 427.879 114.898 427.995 100.545 427.995C86.1868 427.995 74.5508 427.879 74.5508 427.735C74.5508 427.591 86.1868 427.475 100.545 427.475C114.898 427.475 126.536 427.591 126.536 427.735Z" fill="#000021"/>
<g opacity="0.3">
<path d="M144.439 236.529C132.277 242.829 122.95 253.676 116.244 265.62C109.538 277.563 105.216 290.669 100.935 303.68L97.1895 370.783C111.341 346.707 122.7 318.405 125.769 290.647C122.63 290.367 119.491 290.088 116.351 289.808C122.665 288.844 127.965 284.269 131.338 278.844C134.71 273.419 136.446 267.163 138.14 261.005C134.31 261.574 130.48 262.144 126.65 262.713C135.648 256.708 142.171 247.106 144.439 236.529Z" fill="black"/>
</g>
<path d="M430.87 290.686C430.87 290.686 441.076 307.622 442.589 323.745C444.102 339.868 433.34 470.116 433.34 470.116H306.438C306.438 470.116 340.432 309.275 351.56 298.953L352.322 288.252L430.87 290.686Z" fill="#263238"/>
<path d="M436.289 303.599C436.289 303.599 436.344 304.382 436.243 305.869C436.147 307.352 435.875 309.555 435.028 312.264C434.2 314.969 432.737 318.179 430.292 321.395C429.062 322.993 427.575 324.577 425.796 326.02C424.018 327.464 421.975 328.766 419.788 330.036C417.601 331.309 415.263 332.55 412.924 333.994C410.605 335.452 408.239 337.106 406.288 339.314C404.373 341.543 402.806 344.195 401.768 347.165C400.745 350.14 400.155 353.342 399.705 356.64C399.254 359.942 398.966 363.353 398.511 366.828C398.043 370.296 397.402 373.854 396.108 377.289C394.84 380.724 392.766 383.962 389.964 386.521C387.178 389.104 383.805 391.032 380.298 392.646C373.266 395.862 365.943 397.912 359.734 401.667C356.636 403.528 353.949 405.916 351.88 408.691C349.826 411.488 348.469 414.653 347.431 417.802C345.39 424.139 344.534 430.472 342.867 436.197C342.649 436.91 342.433 437.616 342.219 438.317C341.975 439.008 341.733 439.693 341.494 440.372C340.927 441.697 340.419 443.019 339.751 444.235C339.159 445.49 338.411 446.627 337.737 447.771C337.359 448.317 336.985 448.857 336.615 449.391L336.06 450.184L335.461 450.93C332.317 454.917 328.813 457.967 325.451 460.177C322.091 462.398 318.925 463.874 316.255 464.815C313.579 465.744 311.429 466.233 309.963 466.489C309.241 466.597 308.685 466.681 308.288 466.74C307.91 466.794 307.715 466.808 307.715 466.808C307.715 466.808 307.905 466.758 308.28 466.687C308.674 466.615 309.226 466.516 309.943 466.386C311.399 466.098 313.532 465.578 316.185 464.625C318.831 463.66 321.965 462.165 325.288 459.936C328.612 457.718 332.072 454.671 335.171 450.704L335.762 449.962L336.309 449.173C336.673 448.642 337.041 448.106 337.413 447.564C338.076 446.428 338.812 445.299 339.393 444.054C340.051 442.848 340.548 441.537 341.105 440.225C341.34 439.551 341.577 438.872 341.816 438.186C342.026 437.49 342.239 436.788 342.453 436.08C344.094 430.387 344.93 424.056 346.976 417.654C348.018 414.473 349.388 411.256 351.48 408.399C353.587 405.562 356.333 403.121 359.47 401.233C365.76 397.425 373.104 395.37 380.082 392.175C383.562 390.574 386.885 388.671 389.614 386.143C392.359 383.636 394.381 380.487 395.633 377.111C396.909 373.737 397.55 370.215 398.02 366.765C398.478 363.307 398.772 359.894 399.231 356.578C399.69 353.265 400.291 350.033 401.337 347.016C402.398 344.002 404.005 341.295 405.968 339.027C407.969 336.779 410.373 335.113 412.714 333.653C415.074 332.209 417.42 330.976 419.605 329.718C421.79 328.463 423.823 327.181 425.589 325.764C427.355 324.349 428.836 322.791 430.064 321.218C432.506 318.052 433.985 314.881 434.837 312.204C435.708 309.523 436.01 307.338 436.14 305.862C436.226 305.124 436.225 304.556 436.249 304.176C436.266 303.794 436.289 303.599 436.289 303.599Z" fill="#455A64"/>
<path d="M439.853 315.441C439.853 315.441 439.926 315.608 440.045 315.945C440.179 316.277 440.313 316.792 440.474 317.471C440.738 318.83 440.936 320.937 440.364 323.539C439.809 326.128 438.534 329.207 436.211 332.188C433.918 335.193 430.675 338.044 427.013 341.014C423.386 344.004 419.251 347.223 416.078 351.757C414.504 354.016 413.299 356.639 412.706 359.515C412.081 362.384 411.929 365.425 411.735 368.538C411.56 371.651 411.238 374.877 410.399 378.06C409.583 381.244 408.361 384.395 406.749 387.407C403.532 393.426 398.735 398.912 392.671 402.902C386.562 406.89 379.67 408.815 373.626 411.832C370.607 413.335 367.75 415.094 365.439 417.363C363.132 419.632 361.37 422.319 360.084 425.135C357.512 430.797 356.456 436.69 355.018 442.048C354.31 444.736 353.53 447.314 352.586 449.725C351.608 452.122 350.454 454.342 349.089 456.288C347.738 458.244 346.173 459.902 344.572 461.314C343.792 462.047 342.94 462.646 342.149 463.267C341.305 463.814 340.52 464.397 339.687 464.84C336.427 466.736 333.315 467.789 330.727 468.335C328.133 468.9 326.063 468.933 324.675 468.969C323.996 468.936 323.47 468.91 323.093 468.892C322.737 468.871 322.556 468.847 322.556 468.847C322.556 468.847 322.74 468.835 323.096 468.839C323.472 468.845 323.997 468.853 324.674 468.864C326.057 468.794 328.113 468.728 330.683 468.137C333.247 467.565 336.324 466.491 339.539 464.589C340.361 464.144 341.134 463.561 341.966 463.014C342.745 462.394 343.584 461.796 344.351 461.066C345.926 459.66 347.463 458.014 348.787 456.076C350.123 454.15 351.253 451.953 352.212 449.576C353.137 447.183 353.904 444.62 354.6 441.938C356.017 436.594 357.054 430.681 359.648 424.934C360.945 422.076 362.738 419.327 365.092 417.006C367.45 414.684 370.353 412.894 373.399 411.374C379.498 408.326 386.369 406.399 392.386 402.465C398.371 398.528 403.114 393.11 406.299 387.165C407.895 384.191 409.106 381.079 409.917 377.935C410.751 374.79 411.074 371.618 411.256 368.506C411.457 365.398 411.616 362.333 412.259 359.415C412.869 356.49 414.116 353.797 415.723 351.51C418.965 346.913 423.142 343.698 426.781 340.727C430.456 337.776 433.69 334.965 435.982 332.007C438.3 329.077 439.588 326.046 440.167 323.493C440.763 320.927 440.601 318.844 440.372 317.488C440.106 316.131 439.813 315.454 439.853 315.441Z" fill="#455A64"/>
<path d="M311.049 224.859C311.049 224.859 319.282 281.616 331.936 287.134C338.319 289.917 343.445 287.523 346.945 281.092C350.445 274.661 359.345 228.268 359.345 228.268L334.715 227.693L333.794 236.923L324.303 219.25L311.049 224.859Z" fill="#936760"/>
<path d="M347.361 261.92C347.375 261.912 347.303 261.757 347.152 261.471C346.972 261.141 346.748 260.731 346.475 260.23C345.849 259.097 344.998 257.557 343.961 255.682C341.841 251.84 338.929 246.523 335.75 240.631C332.61 234.75 329.77 229.429 327.674 225.503C326.672 223.609 325.849 222.054 325.244 220.909C324.971 220.408 324.748 219.998 324.568 219.667C324.409 219.385 324.318 219.241 324.304 219.248C324.289 219.255 324.352 219.414 324.483 219.709C324.642 220.05 324.839 220.474 325.08 220.991C325.605 222.101 326.392 223.694 327.378 225.655C329.353 229.576 332.152 234.958 335.335 240.854C338.515 246.749 341.474 252.043 343.67 255.845C344.767 257.747 345.676 259.273 346.316 260.322C346.62 260.805 346.869 261.2 347.07 261.519C347.248 261.79 347.347 261.929 347.361 261.92Z" fill="#6F4C47"/>
<path d="M433.193 238.134L426.163 269.581L429.489 290.686H352.226L357.278 192.16L376.541 190.521L423.603 198.465L433.193 238.134Z" fill="#9CBF2A"/>
<path d="M413.537 197.899C413.537 197.899 433.663 196.054 443.249 209.745C449.115 218.124 457.351 237.368 457.351 237.368L430.562 241.987L413.537 197.899Z" fill="#9CBF2A"/>
<g opacity="0.3">
<path d="M425.735 238.503C423.116 232.916 417.008 229.158 410.84 229.341C409.498 229.381 407.992 229.695 407.276 230.831C406.524 232.022 406.963 233.58 407.478 234.892C408.15 236.605 409.036 238.406 410.683 239.228C411.883 239.827 413.294 239.8 414.576 240.191C416.152 240.672 417.461 241.756 418.723 242.815C419.744 243.671 420.786 244.551 421.454 245.704C421.986 246.621 422.253 247.664 422.514 248.692C423.82 253.834 424.857 264.439 426.164 269.582L427.603 265.15C427.638 260.922 427.673 256.695 427.708 252.468C427.747 247.724 427.748 242.797 425.735 238.503Z" fill="black"/>
</g>
<path d="M401.715 264.72C401.73 264.644 402.77 264.824 404.459 264.955C406.147 265.088 408.494 265.118 411.054 264.788C413.614 264.451 415.875 263.819 417.473 263.258C419.072 262.699 420.031 262.257 420.065 262.327C420.079 262.356 419.854 262.495 419.432 262.722C419.013 262.954 418.384 263.247 417.59 263.57C416.005 264.218 413.718 264.913 411.116 265.256C408.513 265.592 406.125 265.508 404.427 265.287C403.577 265.179 402.894 265.057 402.429 264.94C401.962 264.829 401.709 264.752 401.715 264.72Z" fill="#263238"/>
<path d="M368.008 266.101C368.045 265.976 378.978 269.091 392.424 273.058C405.875 277.026 416.746 280.343 416.709 280.468C416.672 280.593 405.742 277.478 392.29 273.51C378.845 269.544 367.971 266.226 368.008 266.101Z" fill="#263238"/>
<g opacity="0.3">
<path d="M402.274 264.85C404.197 267.788 407.856 269.489 411.342 269.065C414.828 268.641 417.533 266.406 418.694 263.092C413.407 265.237 407.936 265.555 402.274 264.85Z" fill="black"/>
</g>
<g opacity="0.3">
<path d="M413.769 279.509L413.486 279.618C406.589 280.852 400.125 279.577 393.511 277.265C386.897 274.953 380.739 271.525 374.631 268.092C387.677 271.898 400.723 275.704 413.769 279.509Z" fill="black"/>
</g>
<path d="M357.278 192.161C357.278 192.161 344.545 193.722 339.599 204.601C334.654 215.48 331.042 228.481 331.042 228.481L357.014 234.328C357.014 234.328 361.1 212.355 361.412 204.601C361.753 196.107 362.085 191.916 357.278 192.161Z" fill="#9CBF2A"/>
<path d="M354.828 237.806C354.698 237.806 354.599 234.544 354.608 230.521C354.617 226.497 354.729 223.236 354.86 223.236C354.99 223.236 355.089 226.498 355.08 230.522C355.071 234.545 354.958 237.806 354.828 237.806Z" fill="#263238"/>
<path d="M368.935 122.453C375.812 114.047 385.048 109.208 395.906 109.029C402.032 108.928 404.568 110.201 408.98 111.391C413.392 112.581 417.373 114.948 420.004 118.684C423.13 123.121 425.756 128.09 426.347 133.485C426.954 139.027 427.562 144.607 427.144 150.167C426.726 155.727 425.216 161.326 421.942 165.838L407.796 168.296C399.983 168.562 392.063 168.818 384.451 167.036C376.839 165.254 369.445 161.159 365.368 154.488C359.706 145.221 362.058 130.858 368.935 122.453Z" fill="#263238"/>
<path d="M417.662 173.802C417.634 173.835 417.892 174.151 418.507 174.544C419.116 174.937 420.109 175.374 421.421 175.528C422.72 175.664 424.365 175.496 425.918 174.616C427.481 173.757 428.763 172.096 429.298 170.129C429.828 168.159 429.558 166.079 428.64 164.549C427.742 163.006 426.406 162.032 425.215 161.495C424.004 160.967 422.926 160.844 422.202 160.877C421.474 160.907 421.091 161.05 421.099 161.092C421.089 161.261 422.747 160.91 424.956 162.033C426.026 162.596 427.2 163.539 427.962 164.93C428.738 166.302 428.955 168.14 428.483 169.909C427.999 171.673 426.886 173.152 425.524 173.945C424.165 174.763 422.676 174.986 421.468 174.933C418.994 174.791 417.738 173.651 417.662 173.802Z" fill="#E0E0E0"/>
<path d="M355.225 163.52C355.576 160.328 357.249 157.192 360.014 155.559C362.779 153.926 366.641 154.095 368.944 156.333L371.166 158.982C374.65 160.466 376.84 164.427 376.419 168.19C375.998 171.953 373.103 175.271 369.481 176.376C365.859 177.481 361.705 176.411 358.936 173.828C356.166 171.246 354.811 167.285 355.225 163.52Z" fill="#263238"/>
<path d="M358.029 173.061C358.133 173.013 357.151 172.108 357.268 170.246C357.387 168.436 358.702 166.062 360.506 163.887C362.346 161.701 364.514 160.206 366.174 159.342C367.831 158.452 368.971 158.127 368.935 158.011C368.921 157.942 367.721 158.101 365.957 158.901C364.195 159.674 361.89 161.163 359.975 163.438C359.017 164.567 358.248 165.763 357.688 166.916C357.119 168.063 356.767 169.223 356.776 170.23C356.773 171.238 357.098 172.019 357.41 172.473C357.731 172.932 358.003 173.091 358.029 173.061Z" fill="#455A64"/>
<path d="M364.873 177.237C365.104 177.223 364.142 172.946 365.504 167.895C366.792 162.822 369.725 159.566 369.53 159.44C369.473 159.387 368.667 160.113 367.661 161.54C366.654 162.96 365.514 165.13 364.832 167.719C364.159 170.309 364.089 172.759 364.272 174.49C364.45 176.228 364.798 177.256 364.873 177.237Z" fill="#455A64"/>
<path d="M407.802 191.248C407.707 186.284 407.591 182.219 407.591 182.242C407.591 182.242 419.126 180.971 422.313 166.188C423.898 158.836 424.193 146.655 424.112 136.68C424.039 127.702 416.394 115.476 405.309 115.437L400.382 114.864L381.523 122.36C378.799 122.498 376.633 124.697 376.538 127.423L375.972 190.57L394.201 234.828L407.28 217.1L407.802 191.248Z" fill="#936760"/>
<path d="M400.138 162.727C400.241 161.948 400.674 161.259 401.226 160.786C402.331 159.839 403.945 159.748 405.128 160.564C406.31 161.38 406.988 163.053 406.765 164.608C406.101 165.52 405.086 166.136 403.962 166.234C403.787 166.249 403.612 166.255 403.436 166.251C402.584 166.229 401.717 165.941 401.066 165.313C400.414 164.684 400.011 163.689 400.138 162.727Z" fill="#6F4C47"/>
<path d="M416.78 146.894C416.76 147.907 415.887 148.724 414.83 148.723C413.775 148.722 412.933 147.903 412.953 146.89C412.973 145.878 413.846 145.059 414.901 145.06C415.959 145.062 416.8 145.883 416.78 146.894Z" fill="#263238"/>
<path d="M420.44 142.216C420.189 142.453 418.799 141.301 416.74 141.193C414.685 141.056 413.117 142.032 412.907 141.768C412.803 141.65 413.07 141.214 413.753 140.771C414.427 140.33 415.557 139.927 416.838 140.002C418.12 140.08 419.172 140.611 419.766 141.128C420.373 141.647 420.563 142.11 420.44 142.216Z" fill="#263238"/>
<path d="M407.505 157.808C407.502 157.691 408.793 157.54 410.881 157.388C411.409 157.362 411.913 157.285 412.021 156.932C412.166 156.559 411.977 155.98 411.756 155.355C411.332 154.056 410.888 152.694 410.421 151.267C408.576 145.451 407.27 140.679 407.505 140.608C407.74 140.535 409.427 145.191 411.272 151.008C411.714 152.442 412.138 153.808 412.54 155.115C412.706 155.723 413.011 156.42 412.699 157.193C412.536 157.578 412.134 157.842 411.793 157.914C411.45 157.998 411.155 157.988 410.894 157.989C408.802 157.987 407.507 157.925 407.505 157.808Z" fill="#263238"/>
<path d="M407.59 182.242C407.59 182.242 397.521 182.338 387.909 175.818C387.909 175.818 392.663 186.448 407.666 185.871L407.59 182.242Z" fill="#6F4C47"/>
<path d="M401.37 158.899C401.706 158.898 401.587 161.132 403.413 162.823C405.234 164.519 407.629 164.399 407.63 164.712C407.654 164.854 407.076 165.117 406.069 165.089C405.081 165.069 403.659 164.673 402.542 163.639C401.428 162.603 400.998 161.277 400.972 160.357C400.939 159.418 401.218 158.878 401.37 158.899Z" fill="#263238"/>
<path d="M420.031 134.458C419.657 134.942 418.1 134.519 416.25 134.571C414.399 134.564 412.848 135.024 412.468 134.549C412.3 134.318 412.528 133.839 413.194 133.369C413.85 132.9 414.963 132.494 416.235 132.478C417.507 132.464 418.625 132.842 419.287 133.296C419.961 133.75 420.195 134.223 420.031 134.458Z" fill="#263238"/>
<path d="M392.83 146.349C392.777 147.36 393.589 148.238 394.643 148.313C395.695 148.388 396.594 147.632 396.647 146.621C396.7 145.61 395.888 144.73 394.836 144.656C393.782 144.581 392.884 145.339 392.83 146.349Z" fill="#263238"/>
<path d="M392.235 141.478C392.468 141.732 393.938 140.684 395.999 140.725C398.058 140.737 399.552 141.824 399.78 141.575C399.892 141.465 399.657 141.01 399.008 140.519C398.368 140.03 397.27 139.547 395.986 139.529C394.702 139.514 393.614 139.968 392.985 140.44C392.343 140.916 392.12 141.364 392.235 141.478Z" fill="#263238"/>
<path d="M391.052 137.054C391.45 137.529 393.049 137.071 394.961 137.081C396.873 137.032 398.487 137.457 398.868 136.974C399.036 136.739 398.789 136.266 398.089 135.81C397.4 135.357 396.24 134.975 394.925 134.988C393.611 135.003 392.465 135.407 391.792 135.875C391.107 136.344 390.877 136.822 391.052 137.054Z" fill="#263238"/>
<path d="M379.099 152.485C379.157 151.374 378.017 148.685 376.93 148.454C374.026 147.837 368.734 147.782 368.276 155.218C367.651 165.383 377.985 163.914 378.021 163.623C378.049 163.396 378.898 156.321 379.099 152.485Z" fill="#936760"/>
<path d="M375.446 159.738C375.403 159.703 375.261 159.851 374.954 159.97C374.654 160.085 374.146 160.147 373.628 159.916C372.578 159.456 371.779 157.695 371.843 155.86C371.874 154.933 372.122 154.064 372.494 153.355C372.85 152.631 373.363 152.141 373.91 152.078C374.455 151.986 374.818 152.334 374.925 152.627C375.044 152.92 374.967 153.119 375.019 153.139C375.046 153.167 375.248 152.983 375.192 152.558C375.162 152.353 375.058 152.106 374.831 151.896C374.6 151.683 374.247 151.56 373.868 151.577C373.08 151.583 372.331 152.261 371.921 153.039C371.468 153.818 371.168 154.794 371.133 155.835C371.072 157.887 372.003 159.868 373.446 160.383C374.149 160.613 374.759 160.434 375.082 160.213C375.413 159.983 375.48 159.759 375.446 159.738Z" fill="#6F4C47"/>
<path d="M376.516 148.483L379.099 151.162C390.252 140.487 412.047 113.759 410.831 115.351C410.831 115.351 403.191 112.209 394.898 113.621C386.605 115.034 370.876 119.184 371.117 128.965C371.358 138.746 376.516 148.483 376.516 148.483Z" fill="#263238"/>
<path d="M376.754 173.802C376.782 173.835 376.524 174.151 375.909 174.544C375.3 174.937 374.307 175.374 372.995 175.528C371.696 175.664 370.051 175.496 368.498 174.616C366.935 173.757 365.653 172.096 365.118 170.129C364.588 168.159 364.859 166.079 365.776 164.549C366.674 163.006 368.01 162.032 369.201 161.495C370.412 160.967 371.49 160.844 372.214 160.877C372.942 160.907 373.325 161.05 373.317 161.092C373.327 161.261 371.669 160.91 369.46 162.033C368.39 162.596 367.216 163.539 366.455 164.93C365.679 166.302 365.462 168.14 365.934 169.909C366.418 171.673 367.531 173.152 368.893 173.945C370.252 174.763 371.741 174.986 372.949 174.933C375.422 174.791 376.678 173.651 376.754 173.802Z" fill="#E0E0E0"/>
<path d="M361.745 146.239C361.728 146.234 361.781 146.032 361.9 145.651C362.022 145.271 362.239 144.721 362.593 144.048C363.3 142.71 364.652 140.899 366.841 139.268C368.998 137.594 371.988 136.227 375.394 135.154C378.794 134.046 382.627 133.187 386.389 131.571C390.176 130.016 393.552 128.011 396.432 125.946C399.302 123.859 401.671 121.696 403.52 119.749C405.369 117.8 406.713 116.085 407.619 114.885C408.035 114.313 408.373 113.849 408.639 113.484C408.875 113.165 409.006 113.002 409.021 113.011C409.036 113.021 408.934 113.203 408.726 113.542C408.514 113.877 408.213 114.382 407.784 115.003C406.925 116.245 405.618 118.005 403.789 120.001C401.961 121.994 399.597 124.206 396.715 126.334C393.824 128.44 390.418 130.48 386.59 132.052C382.778 133.687 378.918 134.537 375.54 135.611C372.148 136.653 369.206 137.958 367.061 139.564C364.886 141.126 363.521 142.861 362.771 144.147C362.025 145.445 361.798 146.258 361.745 146.239Z" fill="#455A64"/>
<path d="M364.704 147.839C364.704 147.839 364.601 147.006 365.098 145.618C365.572 144.24 366.775 142.367 368.917 140.832C371.039 139.247 374.069 138.267 377.399 137.507C380.743 136.769 384.371 135.826 387.939 134.162C391.501 132.512 394.698 130.513 397.336 128.361C399.989 126.225 402.129 124.007 403.778 122.029C405.448 120.062 406.568 118.292 407.37 117.092C407.72 116.514 408.005 116.043 408.232 115.668C408.434 115.345 408.548 115.179 408.564 115.187C408.58 115.195 408.497 115.378 408.324 115.718C408.119 116.106 407.861 116.595 407.544 117.196C406.792 118.434 405.712 120.247 404.064 122.262C402.438 124.287 400.304 126.554 397.639 128.734C394.989 130.929 391.762 132.966 388.156 134.636C384.553 136.318 380.843 137.266 377.508 137.975C374.183 138.707 371.216 139.633 369.13 141.133C367.018 142.589 365.807 144.37 365.287 145.691C364.744 147.02 364.772 147.851 364.704 147.839Z" fill="#455A64"/>
<path d="M312.082 230.4C311.509 230.186 310.76 222.095 310.76 222.095C310.76 222.095 302.672 215.628 301.571 212.997C300.47 210.366 300.63 204.101 300.63 204.101L313.877 195.08C313.877 195.08 321.71 202.094 323.759 204.836C324.908 206.375 325.799 210.628 326.36 214.066C326.837 216.992 326.947 219.963 326.692 222.916L326.495 225.196C326.495 225.196 321.165 233.783 312.082 230.4Z" fill="#936760"/>
<path d="M302.178 214.589C302.178 214.589 301.148 213.72 299.47 211.902C297.754 210.044 295.843 208.303 297.46 206.334C298.411 205.175 299.535 205.193 299.535 205.193C299.535 205.193 298.553 203.462 299.405 202.371C300.257 201.28 301.502 201.401 301.502 201.401C301.502 201.401 300.214 198.924 301.403 197.247C302.894 195.144 305.405 195.672 305.405 195.672C305.405 195.672 300.035 184.732 299.708 184.167C298.508 182.096 298.62 179.84 301.022 179.591C301.902 179.5 302.658 180.189 304.945 183.557C307.232 186.925 311.04 192.708 311.04 192.708C311.04 192.708 315.213 196.238 317.296 198.218C319.38 200.198 323.76 204.836 324.486 206.221C326.363 209.804 325.957 215.591 325.957 215.591L310.762 222.095C310.76 222.096 303.159 215.457 302.178 214.589Z" fill="#936760"/>
<path d="M300.017 205.573C300.046 205.535 300.734 206.013 301.823 206.816C302.391 207.242 303.03 207.72 303.725 208.24C304.08 208.51 304.466 208.795 304.814 209.166C305.158 209.529 305.467 210.016 305.531 210.58C305.612 211.128 305.425 211.755 304.966 212.083C304.516 212.424 303.969 212.451 303.514 212.413C303.05 212.373 302.626 212.255 302.246 212.146C301.862 212.037 301.506 211.927 301.184 211.821C300.539 211.609 300.025 211.414 299.675 211.267C299.325 211.12 299.138 211.024 299.146 211.002C299.164 210.954 299.956 211.224 301.255 211.586C301.904 211.746 302.686 212.016 303.539 212.093C303.961 212.121 304.424 212.077 304.76 211.812C305.106 211.559 305.252 211.088 305.189 210.621C305.135 210.149 304.882 209.736 304.566 209.394C304.25 209.051 303.882 208.768 303.532 208.491C302.854 207.949 302.23 207.451 301.676 207.008C300.623 206.157 299.988 205.611 300.017 205.573Z" fill="#6F4C47"/>
<path d="M313.236 202.331C313.154 202.365 312.673 201.277 312.518 199.833C312.355 198.389 312.587 197.223 312.675 197.239C312.777 197.25 312.703 198.398 312.862 199.795C313.011 201.193 313.332 202.298 313.236 202.331Z" fill="#6F4C47"/>
<path d="M320.589 203.441C318.692 202.528 316.506 202.327 314.419 202.605C312.332 202.884 310.332 203.621 308.425 204.512C306.898 205.226 305.243 206.285 305.033 207.957C304.818 209.678 306.385 211.231 308.088 211.562C309.791 211.893 311.535 211.301 313.106 210.566C314.678 209.832 316.207 208.937 317.91 208.606" fill="#936760"/>
<path d="M317.91 208.608C317.916 208.637 317.457 208.725 316.674 209.018C315.886 209.303 314.808 209.855 313.462 210.535C312.785 210.867 312.027 211.215 311.168 211.474C310.313 211.728 309.337 211.904 308.316 211.761C307.293 211.628 306.265 211.09 305.558 210.203C305.201 209.765 304.951 209.216 304.865 208.627C304.797 208.036 304.909 207.413 305.203 206.883C305.793 205.805 306.814 205.159 307.768 204.648C308.747 204.155 309.71 203.75 310.653 203.406C312.534 202.719 314.337 202.383 315.857 202.372C317.379 202.353 318.597 202.624 319.395 202.901C319.796 203.037 320.097 203.172 320.296 203.27C320.494 203.372 320.595 203.431 320.59 203.442C320.577 203.472 320.158 203.261 319.355 203.03C318.556 202.796 317.354 202.568 315.863 202.617C314.374 202.659 312.613 203.012 310.763 203.706C309.841 204.052 308.878 204.465 307.926 204.949C306.998 205.448 306.032 206.08 305.509 207.046C305.245 207.52 305.151 208.068 305.207 208.584C305.283 209.1 305.5 209.592 305.825 209.994C306.467 210.808 307.416 211.316 308.361 211.446C309.317 211.589 310.252 211.435 311.087 211.199C311.926 210.959 312.678 210.631 313.356 210.314C314.708 209.666 315.819 209.14 316.629 208.891C317.032 208.761 317.354 208.689 317.572 208.646C317.792 208.609 317.908 208.596 317.91 208.608Z" fill="#6F4C47"/>
<path d="M300.194 205.711C302.722 207.601 305.148 209.807 307.474 211.941C308.151 212.562 308.866 213.218 309.765 213.406C310.485 213.556 311.708 212.371 312.281 211.91L304.114 203.326" fill="#936760"/>
<path d="M304.114 203.326C304.13 203.311 304.367 203.53 304.787 203.943C305.243 204.403 305.835 204.999 306.551 205.721C308.038 207.24 310.095 209.371 312.406 211.792L312.534 211.925L312.39 212.044C311.968 212.391 311.527 212.798 311.017 213.141C310.815 213.274 310.605 213.4 310.368 213.491C310.25 213.536 310.126 213.576 309.986 213.585C309.849 213.604 309.694 213.569 309.588 213.541C309.115 213.416 308.7 213.172 308.336 212.901C307.614 212.344 307.026 211.735 306.419 211.193C305.225 210.091 304.14 209.109 303.216 208.3C302.293 207.49 301.53 206.853 301.001 206.414C300.472 205.975 300.179 205.733 300.194 205.712C300.207 205.695 300.528 205.9 301.084 206.308C301.64 206.715 302.429 207.325 303.375 208.114C304.323 208.901 305.427 209.866 306.634 210.957C307.245 211.491 307.854 212.108 308.538 212.628C308.883 212.882 309.262 213.099 309.676 213.208C310.041 213.336 310.446 213.095 310.823 212.854C311.305 212.53 311.734 212.138 312.173 211.777L312.156 212.029C309.854 209.601 307.827 207.441 306.384 205.88C305.698 205.129 305.132 204.508 304.696 204.03C304.305 203.589 304.098 203.341 304.114 203.326Z" fill="#6F4C47"/>
<path d="M301.812 200.73C304.558 203.824 307.304 206.918 310.05 210.012C310.633 210.669 311.231 211.338 311.998 211.767C312.764 212.196 313.744 212.347 314.517 211.93C315.583 211.355 315.888 209.894 315.535 208.736C315.182 207.578 314.336 206.647 313.538 205.737C311.055 202.908 308.791 199.887 306.774 196.709" fill="#936760"/>
<path d="M306.773 196.709C306.783 196.703 306.861 196.803 307.001 197C307.161 197.23 307.36 197.516 307.603 197.866C308.127 198.617 308.886 199.702 309.874 201.006C310.861 202.31 312.076 203.833 313.504 205.456C314.205 206.268 315.035 207.102 315.529 208.231C315.777 208.787 315.898 209.436 315.824 210.071C315.754 210.702 315.501 211.359 314.984 211.813C314.468 212.272 313.748 212.415 313.115 212.322C312.474 212.238 311.886 211.949 311.405 211.58C310.439 210.825 309.768 209.899 309.033 209.106C307.613 207.485 306.33 206.02 305.24 204.777C304.194 203.564 303.336 202.569 302.706 201.838C302.433 201.511 302.209 201.243 302.03 201.028C301.878 200.84 301.803 200.738 301.812 200.73C301.821 200.722 301.914 200.809 302.082 200.982C302.274 201.186 302.514 201.439 302.807 201.749C303.458 202.462 304.344 203.432 305.424 204.615C306.53 205.845 307.832 207.293 309.272 208.895C310.011 209.682 310.705 210.613 311.608 211.309C312.061 211.653 312.589 211.906 313.16 211.981C313.725 212.062 314.326 211.935 314.756 211.553C315.189 211.176 315.418 210.602 315.482 210.034C315.548 209.457 315.446 208.887 315.217 208.365C314.764 207.314 313.965 206.488 313.263 205.666C311.842 204.024 310.642 202.479 309.677 201.152C308.711 199.825 307.98 198.715 307.49 197.94C307.247 197.551 307.061 197.247 306.941 197.037C306.821 196.829 306.763 196.716 306.773 196.709Z" fill="#6F4C47"/>
<path d="M319.34 218.011C319.349 218.049 318.986 218.186 318.364 218.225C317.746 218.267 316.869 218.171 315.986 217.804C315.104 217.434 314.419 216.878 314.014 216.408C313.605 215.938 313.447 215.584 313.48 215.563C313.56 215.49 314.419 216.794 316.119 217.484C317.805 218.208 319.336 217.902 319.34 218.011Z" fill="#6F4C47"/>
<path d="M424.128 191.837L421.25 228.176C421.148 229.469 420.025 230.441 418.731 230.356L398.476 229.041C397.144 228.954 396.145 227.787 396.267 226.458L399.577 190.145C399.694 188.864 400.81 187.909 402.094 187.993L421.917 189.281C423.238 189.368 424.233 190.518 424.128 191.837Z" fill="#455A64"/>
<path d="M453.115 238.099C453.115 238.099 459.167 278.982 458.928 284.476C458.689 289.969 452.48 302.15 444.12 303.344C435.761 304.538 427.879 296.895 427.64 286.864C427.401 276.833 426.163 245.107 426.163 245.107L432.402 241.67L453.115 238.099Z" fill="#936760"/>
<path d="M418.668 204.317C418.668 204.317 424.934 208.171 426.783 209.176C428.632 210.181 428.394 217.649 428.394 217.649L438.932 242.149L426.225 246.701C426.225 246.701 421.702 238.13 420.402 237.046C419.101 235.962 417.368 235.529 417.368 235.529C417.368 235.529 416.718 237.913 414.767 236.83C412.816 235.746 410.649 233.145 410.649 233.145C410.649 233.145 408.915 234.229 408.265 232.928C407.615 231.628 406.531 228.81 406.531 228.81C406.531 228.81 410.216 224.041 411.733 224.041C413.25 224.041 421.053 224.475 421.053 224.475C421.053 224.475 420.619 223.825 418.452 222.958C416.284 222.091 403.377 218.294 402.771 218.06C401.865 217.709 400.838 215.337 403.656 215.12C406.474 214.903 422.35 217.739 422.35 217.739C422.35 217.739 423.22 213.638 422.57 212.771C421.919 211.903 416.284 208.218 418.668 204.317Z" fill="#936760"/>
<path d="M410.632 232.95C410.589 232.946 410.487 232.274 410.684 231.167C410.801 230.623 411.045 229.944 411.64 229.413C412.248 228.858 413.156 228.748 413.968 228.706C415.64 228.599 417.158 228.707 418.24 228.863C419.323 229.019 419.976 229.204 419.965 229.264C419.944 229.409 417.282 228.963 413.998 229.177C413.179 229.218 412.416 229.316 411.921 229.744C411.416 230.163 411.154 230.752 411.007 231.248C410.741 232.266 410.716 232.96 410.632 232.95Z" fill="#6F4C47"/>
<path d="M413.145 233.733C413.229 233.624 414.231 234.298 415.581 234.88C416.927 235.473 418.103 235.748 418.08 235.884C418.068 236.006 416.804 235.933 415.392 235.312C413.978 234.702 413.064 233.826 413.145 233.733Z" fill="#6F4C47"/>
<path d="M421.625 217.65C421.642 217.529 422.834 217.754 423.865 218.761C424.906 219.759 425.17 220.943 425.049 220.963C424.919 221.013 424.487 220.003 423.537 219.1C422.603 218.181 421.579 217.782 421.625 217.65Z" fill="#6F4C47"/>
<path d="M313.421 436.421C313.281 436.387 318.742 413.426 325.617 385.143C332.494 356.85 338.18 333.949 338.32 333.983C338.46 334.017 333 356.973 326.123 385.266C319.248 413.549 313.561 436.455 313.421 436.421Z" fill="#455A64"/>
<path d="M463.073 469.797C463.073 469.941 367.668 470.057 250.008 470.057C132.307 470.057 36.9229 469.94 36.9229 469.797C36.9229 469.654 132.307 469.537 250.008 469.537C367.669 469.536 463.073 469.653 463.073 469.797Z" fill="#263238"/>
<path d="M413.396 109.179L416.335 98.5655C413.558 94.0575 411.953 88.7515 411.953 83.0685C411.953 66.7255 425.201 53.4775 441.544 53.4775C457.887 53.4775 471.135 66.7255 471.135 83.0685C471.135 99.4105 457.887 112.66 441.544 112.66C434.72 112.66 428.44 110.344 423.435 106.463L423.445 106.476L413.396 109.179Z" fill="white"/>
<path d="M413.396 109.178C413.396 109.178 413.629 109.105 414.066 108.981C414.52 108.853 415.161 108.672 415.996 108.436C417.698 107.961 420.185 107.267 423.416 106.365L423.355 106.546C423.355 106.546 423.348 106.538 423.345 106.533C423.306 106.483 423.315 106.411 423.365 106.372C423.407 106.339 423.466 106.342 423.506 106.372C426.594 108.727 431.134 111.246 437.016 112.132C439.937 112.592 443.168 112.603 446.502 112.011C449.833 111.433 453.276 110.24 456.509 108.309C459.74 106.386 462.754 103.729 465.177 100.428C467.598 97.1344 469.434 93.1954 470.302 88.9014C471.142 84.6084 471.045 79.9924 469.865 75.5364C469.323 73.2924 468.373 71.1474 467.312 69.0494C466.115 67.0274 464.821 65.0114 463.151 63.2834C461.585 61.4974 459.729 60.0274 457.834 58.6804C455.864 57.4464 453.84 56.3074 451.678 55.5714C447.401 53.9884 442.864 53.4594 438.552 53.8794C434.238 54.3264 430.172 55.7284 426.681 57.7884C423.183 59.8454 420.257 62.5484 418.021 65.5364C413.513 71.5424 411.884 78.5404 412.162 84.4114C412.41 90.3404 414.388 95.1494 416.435 98.5054C416.453 98.5334 416.456 98.5684 416.448 98.5984C415.469 102.01 414.715 104.637 414.2 106.434C413.944 107.316 413.748 107.994 413.609 108.472C413.475 108.932 413.396 109.178 413.396 109.178C413.396 109.178 413.445 108.962 413.563 108.513C413.688 108.039 413.865 107.369 414.095 106.496C414.583 104.67 415.296 102.001 416.222 98.5344L416.235 98.6274C414.137 95.2684 412.098 90.4234 411.812 84.4254C411.496 78.4884 413.113 71.3824 417.668 65.2704C419.927 62.2294 422.89 59.4764 426.44 57.3774C429.982 55.2764 434.114 53.8414 438.501 53.3804C442.885 52.9464 447.502 53.4784 451.856 55.0864C454.057 55.8354 456.118 56.9914 458.122 58.2474C460.051 59.6164 461.939 61.1134 463.534 62.9294C465.233 64.6884 466.551 66.7394 467.767 68.7984C468.847 70.9334 469.811 73.1184 470.362 75.4024C471.56 79.9384 471.652 84.6324 470.791 88.9984C469.901 93.3654 468.026 97.3664 465.558 100.707C463.088 104.055 460.019 106.745 456.733 108.686C453.445 110.635 449.946 111.831 446.568 112.402C443.186 112.986 439.915 112.958 436.962 112.475C431.014 111.542 426.45 108.96 423.364 106.553L423.526 106.392C423.529 106.397 423.536 106.405 423.536 106.405C423.575 106.455 423.566 106.527 423.516 106.565C423.504 106.574 423.488 106.582 423.474 106.586C420.19 107.436 417.663 108.09 415.933 108.538C415.108 108.749 414.473 108.911 414.024 109.025C413.601 109.134 413.396 109.178 413.396 109.178Z" fill="#263238"/>
<path d="M428.309 83.7876L431.772 80.3236L438.452 86.2616L451.565 73.6436L454.781 77.1076L437.957 92.9416L428.309 83.7876Z" fill="#ACD037"/>
<path d="M229.17 182.097C229.862 182.097 230.209 182.031 230.209 181.898V181.857C230.209 181.812 230.179 181.68 230.12 181.461C230.065 181.238 230.033 181.108 230.024 181.071C230.015 181.03 230.004 180.992 229.99 180.955C229.976 180.914 229.908 180.636 229.785 180.121C229.667 179.602 229.512 179.118 229.32 178.672C229.129 178.225 229.019 178.002 228.992 178.002C228.965 178.002 228.885 178.166 228.753 178.494C227.987 180.408 227.604 181.541 227.604 181.892V181.933C227.604 182.042 227.839 182.097 228.308 182.097H228.766L228.828 182.09L229.054 182.097H229.17ZM232.957 184.824V184.961C232.957 185.221 232.847 185.455 232.629 185.665C232.51 185.779 232.292 185.836 231.972 185.836C231.658 185.836 231.435 185.752 231.303 185.583C231.289 185.565 231.2 185.255 231.036 184.653C230.876 184.052 230.694 183.637 230.489 183.409C230.289 183.177 229.894 183.061 229.306 183.061C228.185 183.061 227.518 183.159 227.304 183.354C227.094 183.546 226.891 183.954 226.695 184.578C226.622 184.806 226.572 185.025 226.545 185.234C226.517 185.444 226.483 185.578 226.442 185.638C226.36 185.761 226.198 185.822 225.957 185.822C225.72 185.822 225.531 185.724 225.389 185.528C225.248 185.328 225.178 185.107 225.178 184.865C225.178 184.619 225.26 184.375 225.424 184.134C225.592 183.888 225.713 183.669 225.786 183.478C225.863 183.282 226.196 182.318 226.784 180.586C227.376 178.854 227.773 177.774 227.973 177.346C228.179 176.917 228.356 176.646 228.507 176.532C228.662 176.414 228.851 176.354 229.074 176.354C229.297 176.354 229.5 176.434 229.682 176.594C229.865 176.753 230.061 177.059 230.27 177.51C230.275 177.523 230.986 179.529 232.403 183.525C232.481 183.744 232.592 183.972 232.738 184.209C232.884 184.446 232.957 184.651 232.957 184.824ZM239.478 182.65V182.268C239.478 181.598 239.346 181.064 239.082 180.668C238.817 180.271 238.466 180.073 238.029 180.073H237.967L237.899 180.08C237.694 180.08 237.473 180.139 237.236 180.258C237.003 180.376 236.81 180.559 236.655 180.805C236.5 181.051 236.422 181.611 236.422 182.486V183.266C236.422 183.945 236.489 184.382 236.621 184.578C236.844 184.911 237.19 185.077 237.66 185.077H237.79C238.277 185.077 238.681 184.861 239 184.428C239.319 183.99 239.478 183.398 239.478 182.65ZM235.506 188.851C234.973 188.851 234.707 188.659 234.707 188.276C234.707 188.153 234.741 187.987 234.809 187.777C234.877 187.572 234.923 187.388 234.946 187.224C234.969 187.064 234.996 186.599 235.028 185.829C235.06 185.054 235.076 184.284 235.076 183.519V181.399C235.076 180.916 235.037 180.547 234.96 180.292C234.882 180.032 234.843 179.866 234.843 179.793C234.843 179.547 235.126 179.424 235.691 179.424C235.75 179.424 235.864 179.44 236.033 179.472L236.238 179.52C236.457 179.556 236.609 179.574 236.696 179.574C236.782 179.574 237.01 179.508 237.379 179.376C237.749 179.244 238.077 179.178 238.364 179.178H238.678C239.011 179.178 239.332 179.269 239.642 179.451C239.952 179.629 240.2 179.845 240.387 180.101C240.779 180.643 240.975 181.295 240.975 182.056V182.397C240.975 182.903 240.889 183.389 240.715 183.854C240.237 185.143 239.259 185.825 237.783 185.897C237.364 185.916 237.047 185.986 236.833 186.109C236.618 186.232 236.511 186.46 236.511 186.793C236.511 186.911 236.543 187.098 236.607 187.354C236.671 187.609 236.703 187.798 236.703 187.921C236.703 188.194 236.589 188.418 236.361 188.591C236.138 188.764 235.853 188.851 235.506 188.851ZM247.496 182.65V182.268C247.496 181.598 247.364 181.064 247.1 180.668C246.836 180.271 246.485 180.073 246.047 180.073H245.986L245.917 180.08C245.712 180.08 245.491 180.139 245.254 180.258C245.022 180.376 244.828 180.559 244.673 180.805C244.518 181.051 244.441 181.611 244.441 182.486V183.266C244.441 183.945 244.507 184.382 244.639 184.578C244.862 184.911 245.209 185.077 245.678 185.077H245.808C246.296 185.077 246.699 184.861 247.018 184.428C247.337 183.99 247.496 183.398 247.496 182.65ZM243.525 188.851C242.991 188.851 242.725 188.659 242.725 188.276C242.725 188.153 242.759 187.987 242.827 187.777C242.896 187.572 242.941 187.388 242.964 187.224C242.987 187.064 243.014 186.599 243.046 185.829C243.078 185.054 243.094 184.284 243.094 183.519V181.399C243.094 180.916 243.055 180.547 242.978 180.292C242.9 180.032 242.862 179.866 242.862 179.793C242.862 179.547 243.144 179.424 243.709 179.424C243.769 179.424 243.882 179.44 244.051 179.472L244.256 179.52C244.475 179.556 244.628 179.574 244.714 179.574C244.801 179.574 245.029 179.508 245.398 179.376C245.767 179.244 246.095 179.178 246.382 179.178H246.697C247.029 179.178 247.351 179.269 247.66 179.451C247.97 179.629 248.219 179.845 248.406 180.101C248.797 180.643 248.993 181.295 248.993 182.056V182.397C248.993 182.903 248.907 183.389 248.734 183.854C248.255 185.143 247.278 185.825 245.801 185.897C245.382 185.916 245.065 185.986 244.851 186.109C244.637 186.232 244.53 186.46 244.53 186.793C244.53 186.911 244.561 187.098 244.625 187.354C244.689 187.609 244.721 187.798 244.721 187.921C244.721 188.194 244.607 188.418 244.379 188.591C244.156 188.764 243.871 188.851 243.525 188.851ZM250.914 176.553C250.914 176.193 251.21 176.013 251.803 176.013H251.926C252.35 176.013 252.589 176.188 252.644 176.539V178.022L252.63 178.535V178.788L252.609 179.567V179.82L252.603 179.957C252.603 180.044 252.603 180.13 252.603 180.217L252.596 180.347C252.596 180.433 252.596 180.52 252.596 180.606L252.589 180.736V181.379L252.609 182.254C252.614 182.336 252.616 182.543 252.616 182.876C252.616 183.209 252.66 183.564 252.746 183.942C252.837 184.316 252.951 184.615 253.088 184.838C253.225 185.057 253.293 185.243 253.293 185.398C253.293 185.553 253.197 185.69 253.006 185.809C252.819 185.927 252.548 185.986 252.192 185.986H251.953C251.311 185.986 250.989 185.731 250.989 185.221C250.989 185.184 251.007 185.066 251.044 184.865C251.08 184.665 251.101 184.298 251.105 183.765L251.146 182.131L251.153 182.001C251.153 181.914 251.153 181.828 251.153 181.741L251.16 181.481C251.16 181.395 251.16 181.308 251.16 181.222L251.167 181.092C251.167 181.005 251.167 180.919 251.167 180.832L251.174 180.572C251.174 180.486 251.174 180.399 251.174 180.312L251.181 180.053V179.786L251.188 179.526V178.241C251.188 177.722 251.142 177.33 251.051 177.065C250.96 176.801 250.914 176.63 250.914 176.553ZM256.157 176.396H256.383C256.579 176.396 256.747 176.455 256.888 176.573C257.03 176.692 257.1 176.865 257.1 177.093V177.264C257.1 177.451 257.039 177.619 256.916 177.77C256.793 177.915 256.635 177.988 256.444 177.988L256.307 178.009H256.082C256.027 177.995 255.959 177.988 255.877 177.988C255.795 177.988 255.697 177.934 255.583 177.824C255.473 177.71 255.419 177.585 255.419 177.448C255.41 177.412 255.405 177.384 255.405 177.366L255.391 177.229V177.195L255.419 176.977C255.419 176.872 255.478 176.749 255.596 176.607C255.715 176.466 255.902 176.396 256.157 176.396ZM256.266 185.979H255.918C255.726 185.979 255.562 185.925 255.426 185.815C255.289 185.706 255.22 185.588 255.22 185.46C255.22 185.328 255.259 185.139 255.337 184.893C255.414 184.646 255.453 184.428 255.453 184.236L255.467 184.065L255.48 183.71V183.43L255.487 183.245V181.023C255.469 180.777 255.43 180.57 255.371 180.401L255.309 180.271C255.214 180.035 255.166 179.905 255.166 179.882V179.745C255.166 179.481 255.439 179.349 255.986 179.349H256.232C256.565 179.349 256.768 179.479 256.841 179.738C256.859 179.807 256.868 180.205 256.868 180.935V182.486L256.882 182.938L256.909 183.464C256.909 184.006 257.021 184.466 257.244 184.845C257.335 185 257.381 185.173 257.381 185.364C257.381 185.551 257.273 185.701 257.059 185.815C256.845 185.925 256.581 185.979 256.266 185.979ZM262.541 181.974C262.851 181.974 263.07 181.926 263.198 181.83C263.325 181.734 263.389 181.625 263.389 181.502V181.215C263.389 180.887 263.268 180.616 263.027 180.401C262.785 180.187 262.521 180.08 262.234 180.08H262.056C261.641 180.08 261.279 180.256 260.969 180.606C260.659 180.953 260.504 181.333 260.504 181.748V181.864C260.504 182.024 260.65 182.104 260.942 182.104H261.099L261.14 182.097L261.653 182.062L261.995 182.035L262.227 182.008C262.268 182.003 262.323 181.996 262.391 181.987C262.464 181.978 262.514 181.974 262.541 181.974ZM262.261 186.089H261.96C261.049 186.089 260.317 185.781 259.766 185.166C259.52 184.893 259.329 184.546 259.192 184.127C259.055 183.703 258.987 183.284 258.987 182.869V182.562C258.987 182.147 259.073 181.712 259.247 181.256C259.579 180.367 260.144 179.763 260.942 179.444C261.352 179.276 261.787 179.191 262.248 179.191H262.398C263.036 179.191 263.562 179.385 263.977 179.772C264.214 179.996 264.392 180.265 264.51 180.579C264.633 180.889 264.695 181.169 264.695 181.42C264.695 181.971 264.522 182.331 264.175 182.5C263.938 182.614 263.396 182.721 262.548 182.821C261.705 182.922 261.243 182.983 261.161 183.006C260.764 183.106 260.566 183.284 260.566 183.539C260.566 183.981 260.769 184.35 261.174 184.646C261.47 184.865 261.894 184.975 262.446 184.975C262.655 184.975 262.995 184.909 263.464 184.776C263.934 184.644 264.191 184.578 264.237 184.578C264.474 184.578 264.592 184.685 264.592 184.899C264.592 185.168 264.337 185.435 263.827 185.699C263.321 185.959 262.799 186.089 262.261 186.089ZM270.813 181.413C270.813 181.012 270.712 180.686 270.512 180.436C270.316 180.185 269.99 180.06 269.534 180.06H269.473L269.404 180.066C268.93 180.066 268.539 180.292 268.229 180.743C267.923 181.19 267.771 181.807 267.771 182.596V182.91C267.771 183.617 267.91 184.161 268.188 184.544C268.47 184.927 268.817 185.118 269.227 185.118H269.288C269.767 185.118 270.138 184.952 270.403 184.619C270.667 184.286 270.799 183.81 270.799 183.19C270.808 183.09 270.813 183.017 270.813 182.972L270.833 182.541V181.762L270.819 181.55C270.815 181.504 270.813 181.459 270.813 181.413ZM269.63 179.232C270.131 179.232 270.432 179.171 270.532 179.048C270.687 178.856 270.765 178.449 270.765 177.824C270.765 177.637 270.744 177.446 270.703 177.25C270.662 177.049 270.642 176.917 270.642 176.854C270.642 176.648 270.719 176.475 270.874 176.334C271.029 176.193 271.255 176.122 271.551 176.122H271.681C272.041 176.122 272.248 176.284 272.303 176.607C272.344 176.84 272.364 178.118 272.364 180.442L272.351 181.263V182.404L272.364 183.033C272.364 183.138 272.364 183.243 272.364 183.348L272.371 183.498C272.376 183.598 272.378 183.781 272.378 184.045C272.378 184.305 272.415 184.56 272.487 184.811C272.565 185.057 272.604 185.23 272.604 185.33C272.604 185.43 272.547 185.528 272.433 185.624C272.319 185.72 272.15 185.768 271.927 185.768C271.708 185.768 271.483 185.738 271.25 185.679C271.022 185.615 270.865 185.583 270.778 185.583C270.692 185.583 270.455 185.649 270.068 185.781C269.685 185.913 269.35 185.979 269.063 185.979H268.912C268.138 185.979 267.534 185.717 267.101 185.193C266.672 184.665 266.458 183.974 266.458 183.122V182.773C266.458 182.327 266.529 181.88 266.67 181.434C266.816 180.982 267.026 180.59 267.299 180.258C267.869 179.574 268.646 179.232 269.63 179.232Z" fill="#ACD037"/>
</svg>
