<svg width="20" height="20" viewBox="0 0 20 20" fill="none" xmlns="http://www.w3.org/2000/svg">
<path fill-rule="evenodd" clip-rule="evenodd" d="M11.034 16.9111C11.2349 18.1166 12.2779 19.0002 13.5 19.0001H14.5C16.433 19.0001 18 17.4331 18 15.5001V4.00015C17.4477 4.00015 17 3.55243 17 3.00015V2.00015C17 1.44786 17.4477 1.00015 18 1.00015H19C19.5523 1.00015 20 1.44786 20 2.00015V3.00015C20 3.55243 19.5523 4.00015 19 4.00015V15.5001C19 17.9854 16.9853 20.0001 14.5 20.0001H13.5C11.7598 20.0006 10.2836 18.7225 10.035 17.0001H10C6.88318 17.0032 4.28301 14.6194 4.01608 11.514C3.74915 8.40862 5.90437 5.61599 8.976 5.08715C8.75925 3.24572 7.14405 1.89284 5.29315 2.00242C3.44225 2.112 1.99796 3.64601 2 5.50015V17.0001C2.55228 17.0001 3 17.4479 3 18.0001V19.0001C3 19.5524 2.55228 20.0001 2 20.0001H1C0.447715 20.0001 0 19.5524 0 19.0001V18.0001C0 17.4479 0.447715 17.0001 1 17.0001V5.50015C0.995828 3.10911 2.86229 1.13229 5.24963 0.999266C7.63697 0.866236 9.7115 2.62345 9.973 5.00015H10C13.1143 4.99786 15.7126 7.37863 15.9819 10.4812C16.2513 13.5838 14.1021 16.3767 11.034 16.9111ZM13.909 14.1181C13.7913 13.7955 13.5665 13.523 13.272 13.3461L11.752 12.4351C11.2421 12.8033 10.6289 13.001 10 13.0001C9.346 13.0001 8.74 12.7901 8.247 12.4351L6.728 13.3461C6.43354 13.523 6.20869 13.7955 6.091 14.1181C7.03885 15.3087 8.47819 16.0017 10 16.0001C11.5218 16.0017 12.9611 15.3087 13.909 14.1181ZM14.515 13.1521C15.5153 11.0509 14.9338 8.53736 13.1121 7.08909C11.2905 5.64083 8.71051 5.64083 6.88888 7.08909C5.06725 8.53736 4.48565 11.0509 5.486 13.1521C5.68231 12.8851 5.92978 12.6597 6.214 12.4891L7.528 11.7001C6.66926 10.4513 6.8769 8.75803 8.01197 7.75366C9.14704 6.74928 10.853 6.74928 11.988 7.75366C13.1231 8.75803 13.3307 10.4513 12.472 11.7001L13.786 12.4891C14.0706 12.6596 14.3184 12.885 14.515 13.1521ZM10 12.0001C11.1046 12.0001 12 11.1047 12 10.0001C12 8.89558 11.1046 8.00015 10 8.00015C8.89543 8.00015 8 8.89558 8 10.0001C8 11.1047 8.89543 12.0001 10 12.0001ZM1 18.0001V19.0001H2V18.0001H1ZM18 2.00015V3.00015H19V2.00015H18Z" fill="#121924"/>
</svg>
