<svg width="20" height="20" viewBox="0 0 20 20" fill="none" xmlns="http://www.w3.org/2000/svg">
<path d="M17.2222 0C18.7161 0 20 1.20444 20 2.77778V17.2222C20 18.7161 18.7978 20 17.2222 20H2.77778C1.28389 20 0 18.7917 0 17.2222V2.77778C0 1.28389 1.19444 0 2.77778 0H17.2222ZM2.77778 1.11111C1.89 1.11111 1.11111 1.82444 1.11111 2.77778V17.2222C1.11111 18.11 1.81667 18.8889 2.77778 18.8889H17.2222C18.11 18.8889 18.8889 18.16 18.8889 17.2222V2.77778C18.8889 1.89 18.1572 1.11111 17.2222 1.11111H2.77778ZM15.2022 6.46444C15.3064 6.56863 15.3649 6.70991 15.3649 6.85722C15.3649 7.00454 15.3064 7.14582 15.2022 7.25L8.91667 13.5356C8.71111 13.7411 8.36 13.7817 8.11778 13.5217L5.705 10.9344C5.60455 10.8267 5.55099 10.6835 5.55609 10.5363C5.5612 10.3891 5.62455 10.25 5.73222 10.1494C5.93945 9.95611 6.28945 9.92611 6.51722 10.1767L8.53778 12.3428L14.4167 6.46444C14.5209 6.36029 14.6621 6.30179 14.8094 6.30179C14.9568 6.30179 15.098 6.36029 15.2022 6.46444Z" fill="#ACD037"/>
</svg>
