<svg width="16" height="18" viewBox="0 0 16 18" fill="none" xmlns="http://www.w3.org/2000/svg">
<path fill-rule="evenodd" clip-rule="evenodd" d="M3.29202 15.0009L14.792 3.50089L12.499 1.20789L0.999024 12.7079V15.0009H3.29202ZM-0.000975764 15.5009V12.5009C-0.00121276 12.3682 0.0513103 12.2408 0.145024 12.1469L12.145 0.146894C12.2388 0.0528521 12.3662 0 12.499 0C12.6319 0 12.7592 0.0528521 12.853 0.146894L15.853 3.14689C15.9471 3.2407 15.9999 3.36807 15.9999 3.50089C15.9999 3.63372 15.9471 3.76109 15.853 3.85489L3.85302 15.8549C3.75907 15.9486 3.63172 16.0011 3.49902 16.0009H0.499024C0.222882 16.0009 -0.000975764 15.777 -0.000975764 15.5009ZM0.499024 18.0009C0.222882 18.0009 -0.000975764 17.777 -0.000975764 17.5009C-0.000975764 17.2248 0.222882 17.0009 0.499024 17.0009H10.506C10.7822 17.0009 11.006 17.2248 11.006 17.5009C11.006 17.777 10.7822 18.0009 10.506 18.0009H0.499024Z" fill="#121924"/>
</svg>
