<svg width="17" height="16" viewBox="0 0 17 16" fill="none" xmlns="http://www.w3.org/2000/svg">
<path fill-rule="evenodd" clip-rule="evenodd" d="M7.99937 2.0738L4.85337 4.42218C4.7269 4.51656 4.54256 4.55342 4.3698 4.51888C4.19703 4.48433 4.06209 4.38363 4.0158 4.25471C3.9695 4.12579 4.0189 3.98823 4.14537 3.89385L8.14537 0.908933C8.23917 0.838756 8.36654 0.799316 8.49937 0.799316C8.6322 0.799316 8.75956 0.838756 8.85337 0.908933L12.8534 3.89385C13.0489 4.03975 13.0489 4.27629 12.8534 4.42218C12.6579 4.56808 12.3409 4.56808 12.1454 4.42218L8.99937 2.0738V10.1279C8.99937 10.3339 8.77551 10.501 8.49937 10.501C8.22323 10.501 7.99937 10.3339 7.99937 10.1279V2.0738ZM16 10C16 9.72386 16.2239 9.5 16.5 9.5C16.7761 9.5 17 9.72386 17 10V13C17 14.3807 15.8807 15.5 14.5 15.5H2.5C1.11929 15.5 0 14.3807 0 13V10C0 9.72386 0.223858 9.5 0.5 9.5C0.776142 9.5 1 9.72386 1 10V13C1 13.8284 1.67157 14.5 2.5 14.5H14.5C15.3284 14.5 16 13.8284 16 13V10Z" fill="#121924"/>
</svg>
