<svg width="24" height="24" viewBox="0 0 24 24" fill="none" xmlns="http://www.w3.org/2000/svg">
<path fill-rule="evenodd" clip-rule="evenodd" d="M16 4H8V4.5C8 4.77614 7.77614 5 7.5 5C7.22386 5 7 4.77614 7 4.5V4H5.5C4.67157 4 4 4.67157 4 5.5V8H20V5.5C20 4.67157 19.3284 4 18.5 4H17V4.5C17 4.77614 16.7761 5 16.5 5C16.2239 5 16 4.77614 16 4.5V4ZM17 3H18.5C19.8807 3 21 4.11929 21 5.5V18.507C21 19.8877 19.8807 21.007 18.5 21.007H5.5C4.11929 21.007 3 19.8877 3 18.507V5.5C3 4.11929 4.11929 3 5.5 3H7V2.5C7 2.22386 7.22386 2 7.5 2C7.77614 2 8 2.22386 8 2.5V3H16V2.5C16 2.22386 16.2239 2 16.5 2C16.7761 2 17 2.22386 17 2.5V3ZM20 9H4V18.507C4 19.3354 4.67157 20.007 5.5 20.007H18.5C19.3284 20.007 20 19.3354 20 18.507V9ZM5 10.5C5 10.2239 5.22386 10 5.5 10H18.5C18.7761 10 19 10.2239 19 10.5V12.5C19 12.7761 18.7761 13 18.5 13H5.5C5.22386 13 5 12.7761 5 12.5V10.5ZM6 11V12H18V11H6Z" fill="#121924"/>
</svg>
