<svg width="25" height="25" viewBox="0 0 25 25" fill="none" xmlns="http://www.w3.org/2000/svg">
<path fill-rule="evenodd" clip-rule="evenodd" d="M6.5873 15.8223C6.71971 15.7844 6.86187 15.8029 6.98023 15.8733C7.9757 16.4653 9.11279 16.7822 10.2975 16.7822C13.8873 16.7822 16.7975 13.8721 16.7975 10.2822C16.7975 6.69238 13.8873 3.78223 10.2975 3.78223C6.70764 3.78223 3.79749 6.69238 3.79749 10.2822C3.79749 11.4669 4.11443 12.604 4.70643 13.5995C4.77682 13.7178 4.79527 13.86 4.75744 13.9924L4.0255 16.5542L6.5873 15.8223ZM17.4762 8.10369C20.6063 9.0518 22.7975 11.9505 22.7975 15.2822C22.7975 16.5735 22.4703 17.818 21.8571 18.921L22.7782 22.1449C22.886 22.522 22.5373 22.8708 22.1601 22.763L18.9362 21.8419C17.8332 22.455 16.5888 22.7822 15.2975 22.7822C11.969 22.7822 9.06865 20.5949 8.11895 17.4608C7.61188 17.3072 7.1228 17.0998 6.65876 16.8419L3.43485 17.763C3.05767 17.8708 2.70896 17.522 2.81673 17.1449L3.73784 13.921C3.1247 12.818 2.79749 11.5735 2.79749 10.2822C2.79749 6.14009 6.15535 2.78223 10.2975 2.78223C13.682 2.78223 16.5428 5.02402 17.4762 8.10369ZM17.7272 9.25109C17.7735 9.58817 17.7975 9.9324 17.7975 10.2822C17.7975 14.4244 14.4396 17.7822 10.2975 17.7822C9.94978 17.7822 9.60546 17.7585 9.26639 17.7119C10.2417 20.1348 12.6085 21.7822 15.2975 21.7822C16.4822 21.7822 17.6193 21.4653 18.6147 20.8733C18.7331 20.8029 18.8753 20.7844 19.0077 20.8223L21.5695 21.5542L20.8375 18.9924C20.7997 18.86 20.8182 18.7178 20.8885 18.5995C21.4805 17.604 21.7975 16.4669 21.7975 15.2822C21.7975 12.5909 20.1474 10.2252 17.7272 9.25109Z" fill="#121924"/>
</svg>
