<svg width="31" height="32" viewBox="0 0 31 32" fill="none" xmlns="http://www.w3.org/2000/svg">
<g clip-path="url(#clip0_1384_38556)">
<path d="M29.0625 1.95312H24.614C24.4135 1.39077 23.8807 0.984375 23.25 0.984375H16.4688C15.8381 0.984375 15.3053 1.39077 15.1047 1.95312H10.6562C9.85509 1.95312 9.20312 2.60509 9.20312 3.40625V9.70312H7.55334C6.96386 9.70312 6.38212 9.85764 5.87063 10.1502L3.26178 11.6406H0.484375V20.3594H3.72823L5.78005 21.7273C6.33902 22.1002 6.98953 22.2969 7.66087 22.2969H9.20312V29.5625C9.20312 30.3637 9.85509 31.0156 10.6562 31.0156H29.0625C29.8637 31.0156 30.5156 30.3637 30.5156 29.5625V3.40625C30.5156 2.60509 29.8637 1.95312 29.0625 1.95312ZM12.1094 13.5781H13.0781C14.1467 13.5781 15.0156 12.7092 15.0156 11.6406C15.0156 10.5721 14.1467 9.70312 13.0781 9.70312H12.1094V4.85938H15.1047C15.3053 5.42173 15.8381 5.82812 16.4688 5.82812H23.25C23.8807 5.82812 24.4135 5.42173 24.614 4.85938H27.6094V28.1094H12.1094V13.5781ZM15.9844 2.4375C15.9844 2.17013 16.2014 1.95312 16.4688 1.95312H23.25C23.5174 1.95312 23.7344 2.17013 23.7344 2.4375V4.375C23.7344 4.64237 23.5174 4.85938 23.25 4.85938H16.4688C16.2014 4.85938 15.9844 4.64237 15.9844 4.375V2.4375ZM10.1719 3.40625C10.1719 3.13888 10.3889 2.92188 10.6562 2.92188H15.0156V3.89062H11.1406V9.70312H10.1719V3.40625ZM7.66087 21.3281C7.18134 21.3281 6.71683 21.1877 6.3177 20.9212L4.02177 19.3906H1.45312V12.6094H3.51947L6.35161 10.9911C6.71683 10.7823 7.13242 10.6719 7.55334 10.6719H13.0781C13.6124 10.6719 14.0469 11.1064 14.0469 11.6406C14.0469 12.1749 13.6124 12.6094 13.0781 12.6094H7.26562V13.0938C7.26562 14.4292 6.17917 15.5156 4.84375 15.5156V16.4844C6.54923 16.4844 7.96409 15.2192 8.19998 13.5781H9.20312V21.3281H7.66087ZM29.5469 29.5625C29.5469 29.8299 29.3299 30.0469 29.0625 30.0469H10.6562C10.3889 30.0469 10.1719 29.8299 10.1719 29.5625V13.5781H11.1406V29.0781H28.5781V3.89062H24.7031V2.92188H29.0625C29.3299 2.92188 29.5469 3.13888 29.5469 3.40625V29.5625Z" fill="black"/>
<path d="M17.9219 2.92188H16.9531V3.89062H17.9219V2.92188Z" fill="black"/>
<path d="M22.7656 2.92188H21.7969V3.89062H22.7656V2.92188Z" fill="black"/>
<path d="M23.4307 23.3669L21.7959 22.8999L21.7954 22.6543C22.6736 22.0411 23.25 21.0249 23.25 19.875V18.9062C23.25 17.037 21.7286 15.5156 19.8594 15.5156C17.9902 15.5156 16.4688 17.037 16.4688 18.9062V19.875C16.4688 21.0239 17.0447 22.0397 17.9219 22.6534V22.9004L16.2876 23.3669C15.2535 23.6628 14.5312 24.6204 14.5312 25.6962V27.1406H25.1875V25.6962C25.1875 24.6204 24.4653 23.6628 23.4307 23.3669ZM17.4375 19.875V18.9062C17.4375 17.5708 18.524 16.4844 19.8594 16.4844C21.1948 16.4844 22.2812 17.5708 22.2812 18.9062V19.875C22.2812 21.2104 21.1948 22.2969 19.8594 22.2969C18.524 22.2969 17.4375 21.2104 17.4375 19.875ZM20.8112 23.1271L19.8594 24.3957L18.9076 23.1271C19.2098 23.2157 19.529 23.2656 19.8594 23.2656C20.1897 23.2656 20.5089 23.2157 20.8112 23.1271ZM24.2188 26.1719H15.5V25.6962C15.5 25.051 15.9335 24.4761 16.554 24.2988L18.2188 23.8231L19.8594 26.0106L21.5 23.8231L23.1648 24.2988C23.7852 24.4761 24.2188 25.051 24.2188 25.6962V26.1719Z" fill="black"/>
<path d="M14.0469 6.79688H13.0781V7.76562H14.0469V6.79688Z" fill="black"/>
<path d="M26.6406 6.79688H15.0156V7.76562H26.6406V6.79688Z" fill="black"/>
<path d="M26.6406 8.73438H15.9844V9.70312H26.6406V8.73438Z" fill="black"/>
<path d="M26.6406 10.6719H15.9844V11.6406H26.6406V10.6719Z" fill="black"/>
<path d="M26.6406 12.6094H25.6719V13.5781H26.6406V12.6094Z" fill="black"/>
<path d="M24.7031 12.6094H15.9844V13.5781H24.7031V12.6094Z" fill="black"/>
</g>
<defs>
<clipPath id="clip0_1384_38556">
<rect width="31" height="31" fill="white" transform="translate(0 0.5)"/>
</clipPath>
</defs>
</svg>
