<svg width="18" height="20" viewBox="0 0 18 20" fill="none" xmlns="http://www.w3.org/2000/svg">
<path fill-rule="evenodd" clip-rule="evenodd" d="M3 17.744C1.20195 17.1077 2.31596e-05 15.4073 0 13.5V6.5C0 4.01472 2.01472 2 4.5 2H5V1.5C5 0.671573 5.67157 0 6.5 0H11.5C12.3284 0 13 0.671573 13 1.5V2H13.5C15.9853 2 18 4.01472 18 6.5V13.5C18 15.4073 16.798 17.1077 15 17.744V18.5C15 19.3284 14.3284 20 13.5 20H4.5C3.67157 20 3 19.3284 3 18.5V17.744ZM4 17.973V18.5C4 18.7761 4.22386 19 4.5 19H13.5C13.7761 19 14 18.7761 14 18.5V17.973C13.834 17.9912 13.667 18.0002 13.5 18H4.5C4.33296 18.0002 4.16604 17.9912 4 17.973ZM6 2H12V1.5C12 1.22386 11.7761 1 11.5 1H6.5C6.22386 1 6 1.22386 6 1.5V2ZM4.5 3C2.567 3 1 4.567 1 6.5V13.5C1 15.433 2.567 17 4.5 17H13.5C15.433 17 17 15.433 17 13.5V6.5C17 4.567 15.433 3 13.5 3H4.5ZM11.5 8H12.5C12.7761 8 13 8.22386 13 8.5V9.5C13 9.77614 12.7761 10 12.5 10H11.5C11.2239 10 11 9.77614 11 9.5V8.5C11 8.22386 11.2239 8 11.5 8ZM5.5 8H6.5C6.77614 8 7 8.22386 7 8.5V9.5C7 9.77614 6.77614 10 6.5 10H5.5C5.22386 10 5 9.77614 5 9.5V8.5C5 8.22386 5.22386 8 5.5 8ZM6.14566 12.8541C5.95015 12.6586 5.95015 12.3417 6.14566 12.1461C6.34116 11.9506 6.65815 11.9506 6.85365 12.1461C7.42366 12.7181 8.12965 13.0001 8.99965 13.0001C9.86965 13.0001 10.5747 12.7181 11.1457 12.1461C11.3412 11.9506 11.6581 11.9506 11.8537 12.1461C12.0492 12.3417 12.0492 12.6586 11.8537 12.8541C11.0917 13.6161 10.1297 14.0001 8.99965 14.0001C7.86966 14.0001 6.90766 13.6161 6.14566 12.8541Z" fill="#121924"/>
</svg>
