<svg width="24" height="24" viewBox="0 0 24 24" fill="none" xmlns="http://www.w3.org/2000/svg">
<path d="M11.9995 2.4375C10.6244 2.43869 9.26561 2.73647 8.01598 3.31054C6.76636 3.8846 5.65525 4.72144 4.75845 5.76396C3.86165 6.80649 3.20025 8.03018 2.81938 9.35157C2.43851 10.673 2.34713 12.0609 2.55146 13.4209C2.75579 14.7808 3.25104 16.0806 4.00341 17.2317C4.75578 18.3828 5.74758 19.3581 6.91115 20.0911C8.07473 20.824 9.3827 21.2974 10.7458 21.4789C12.109 21.6603 13.4953 21.5457 14.8101 21.1427C14.8979 21.1157 14.9777 21.0677 15.0427 21.0027L21.0023 15.0427C21.0673 14.9778 21.1153 14.8979 21.1423 14.8101C21.5805 13.3798 21.6772 11.8666 21.4248 10.3922C21.1723 8.91772 20.5777 7.52297 19.6887 6.31989C18.7997 5.11681 17.641 4.1389 16.3056 3.46466C14.9703 2.79042 13.4954 2.43862 11.9995 2.4375ZM20.1062 14.3479L14.3478 20.1066C12.552 20.6252 10.6347 20.5322 8.89752 19.8421C7.16037 19.1519 5.70195 17.9038 4.75168 16.2942C3.80141 14.6845 3.41323 12.8047 3.6482 10.9503C3.88317 9.09587 4.72795 7.37221 6.04966 6.05044C7.37137 4.72867 9.09498 3.8838 10.9494 3.64874C12.8037 3.41368 14.6837 3.80177 16.2934 4.75196C17.9031 5.70215 19.1512 7.16051 19.8414 8.89763C20.5316 10.6347 20.6248 12.552 20.1062 14.3479ZM7.68703 10.125C7.68703 9.93958 7.74202 9.75832 7.84503 9.60415C7.94804 9.44998 8.09446 9.32982 8.26577 9.25886C8.43707 9.18791 8.62557 9.16934 8.80743 9.20551C8.98929 9.24169 9.15633 9.33098 9.28745 9.46209C9.41856 9.5932 9.50785 9.76024 9.54402 9.9421C9.58019 10.124 9.56163 10.3125 9.49067 10.4838C9.41971 10.6551 9.29955 10.8015 9.14538 10.9045C8.99121 11.0075 8.80995 11.0625 8.62453 11.0625C8.37589 11.0625 8.13743 10.9637 7.96162 10.7879C7.7858 10.6121 7.68703 10.3736 7.68703 10.125ZM14.437 10.125C14.437 9.93958 14.492 9.75832 14.595 9.60415C14.698 9.44998 14.8445 9.32982 15.0158 9.25886C15.1871 9.18791 15.3756 9.16934 15.5574 9.20551C15.7393 9.24169 15.9063 9.33098 16.0374 9.46209C16.1686 9.5932 16.2578 9.76024 16.294 9.9421C16.3302 10.124 16.3116 10.3125 16.2407 10.4838C16.1697 10.6551 16.0496 10.8015 15.8954 10.9045C15.7412 11.0075 15.56 11.0625 15.3745 11.0625C15.1259 11.0625 14.8874 10.9637 14.7116 10.7879C14.5358 10.6121 14.437 10.3736 14.437 10.125ZM16.3846 14.5313C15.9401 15.3009 15.3008 15.9399 14.5311 16.3842C13.7614 16.8285 12.8883 17.0624 11.9996 17.0624C11.1108 17.0624 10.2378 16.8285 9.46804 16.3842C8.69833 15.9399 8.05909 15.3009 7.61456 14.5313C7.5764 14.4674 7.55132 14.3964 7.5408 14.3227C7.53027 14.2489 7.53451 14.1738 7.55325 14.1017C7.572 14.0296 7.60488 13.9619 7.65 13.9026C7.69511 13.8433 7.75156 13.7936 7.81605 13.7563C7.88055 13.719 7.95182 13.6948 8.02571 13.6853C8.09961 13.6758 8.17466 13.681 8.24651 13.7008C8.31836 13.7205 8.38558 13.7543 8.44426 13.8002C8.50294 13.8461 8.55192 13.9032 8.58835 13.9682C8.93408 14.5669 9.43132 15.0642 10.0301 15.4099C10.6289 15.7555 11.3081 15.9375 11.9995 15.9375C12.6909 15.9375 13.3702 15.7555 13.969 15.4099C14.5677 15.0642 15.065 14.5669 15.4107 13.9682C15.4863 13.8408 15.609 13.7483 15.7523 13.7109C15.8956 13.6734 16.0479 13.694 16.1761 13.7681C16.3043 13.8422 16.3981 13.964 16.4372 14.1068C16.4762 14.2497 16.4573 14.4022 16.3846 14.5312V14.5313Z" fill="black"/>
</svg>
