<svg width="28" height="15" viewBox="0 0 28 15" fill="none" xmlns="http://www.w3.org/2000/svg">
<path d="M0.37207 1.55169C0.37207 0.938497 0.871004 0.441406 1.48647 0.441406H19.9251C20.5406 0.441406 21.0395 0.938497 21.0395 1.55169V13.866C21.0395 14.4792 20.5406 14.9763 19.9251 14.9763H1.48647C0.871005 14.9763 0.37207 14.4792 0.37207 13.866V1.55169Z" fill="white"/>
<path d="M21.9048 9.25033C21.9048 9.65507 22.1258 10.0277 22.4817 10.2229L25.4644 11.8591C26.2071 12.2665 27.1163 11.7311 27.1163 10.8864V4.34904C27.1163 3.50434 26.2071 2.96902 25.4644 3.37642L22.4817 5.01253C22.1258 5.20773 21.9048 5.5804 21.9048 5.98514V9.25033Z" fill="white"/>
</svg>
