<?xml version="1.0" encoding="utf-8"?>
<!-- Generator: Adobe Illustrator 26.1.0, SVG Export Plug-In . SVG Version: 6.00 Build 0)  -->
<svg version="1.1" id="Layer_1" xmlns="http://www.w3.org/2000/svg" xmlns:xlink="http://www.w3.org/1999/xlink" x="0px" y="0px"
	 viewBox="0 0 1791.6 751.82" style="enable-background:new 0 0 1791.6 751.82;" xml:space="preserve">
<style type="text/css">
	.Round_x0020_Corners_x0020_2_x0020_pt{fill:#FFFFFF;stroke:#1E0E00;stroke-miterlimit:10;}
	.Live_x0020_Reflect_x0020_X{fill:none;}
	.Bevel_x0020_Soft{fill:url(#SVGID_1_);}
	.Dusk{fill:#FFFFFF;}
	.Pompadour_GS{fill-rule:evenodd;clip-rule:evenodd;fill:#54AEE1;}
	.st0{fill:#F9F9F9;}
	.st1{fill:#FFFFFF;}
	.st2{fill:none;stroke:#1E0E00;stroke-linecap:round;stroke-linejoin:round;stroke-miterlimit:10;}
	.st3{fill:none;stroke:#1E0E00;stroke-width:3;stroke-linecap:round;stroke-linejoin:round;stroke-miterlimit:10;}
	.st4{fill:#FFFCDC;}
	.st5{fill:none;stroke:#ADD314;stroke-linecap:round;stroke-linejoin:round;stroke-miterlimit:10;}
	.st6{fill:none;stroke:#ADD314;stroke-width:3;stroke-linecap:round;stroke-linejoin:round;stroke-miterlimit:10;}
</style>
<linearGradient id="SVGID_1_" gradientUnits="userSpaceOnUse" x1="583.7595" y1="499.1278" x2="584.4666" y2="499.8349">
	<stop  offset="0" style="stop-color:#DDDEE3"/>
	<stop  offset="0.1768" style="stop-color:#D9DADF"/>
	<stop  offset="0.3581" style="stop-color:#CDCED3"/>
	<stop  offset="0.5415" style="stop-color:#B8BABF"/>
	<stop  offset="0.7263" style="stop-color:#9B9EA2"/>
	<stop  offset="0.9105" style="stop-color:#777B7E"/>
	<stop  offset="1" style="stop-color:#62676A"/>
</linearGradient>
<path class="st0" d="M1402.71,179.57c-63.07-4.62-77.64,95.44-25.2,103.32C1420.39,289.33,1483.38,185.49,1402.71,179.57z"/>
<path class="st0" d="M532.67,226.32c-30.53,49.9,30.11,167.68,100.66,63.31C683.27,215.74,578.67,151.13,532.67,226.32z"/>
<path class="st0" d="M96.32,672.3c-18.17-79.75-34.8-260.26,90.1-325.17c183.42-95.31,314.63,92.81,426.82,64.58
	C725.42,383.49,865.91,147.6,1053,163.99c214.63,18.79,192.32,258.78,360.32,214.15c272.27-72.33,338.29,154.5,268.87,294.17
	C1350.78,672.3,96.32,672.3,96.32,672.3z"/>
<g>
	<g>
		<path class="st1" d="M1390.46,651.58c1.64,10.31,2.89,18.15,3.3,20.72c2.02,0,5.8,0,5.8,0s-0.8-8.94-1.99-21.66L1390.46,651.58z"
			/>
		<path class="st1" d="M1336.09,672.3c0,0,4.19,0,5.8,0c0.41-2.57,1.66-10.4,3.3-20.72l-7.11-0.94
			C1336.89,663.36,1336.09,672.3,1336.09,672.3z"/>
		<path class="st1" d="M1526.47,447.19c1.3,3.65,5.2,5.76,9.01,4.74c4.01-1.07,6.38-5.19,5.31-9.2s-5.19-6.38-9.2-5.31
			c-3.83,1.03-6.16,4.83-5.43,8.67c-3.7-13.65-9.1-26.6-15.99-38.6c2.18,3.25,6.54,4.3,9.98,2.31c3.59-2.07,4.82-6.67,2.75-10.26
			s-6.67-4.82-10.26-2.75c-3.48,2.01-4.74,6.39-2.92,9.93c-7.17-12.32-15.89-23.63-25.9-33.65c-10.02-10.01-21.32-18.73-33.65-25.9
			c3.54,1.82,7.92,0.56,9.93-2.92c2.07-3.59,0.84-8.19-2.75-10.26c-3.59-2.07-8.19-0.84-10.26,2.75c-1.99,3.44-0.93,7.79,2.31,9.98
			c-11.99-6.89-24.94-12.3-38.6-15.99c3.83,0.74,7.64-1.6,8.67-5.43c1.07-4.01-1.3-8.13-5.31-9.2c-4.01-1.07-8.13,1.3-9.2,5.31
			c-1.02,3.81,1.08,7.72,4.74,9.01c-13.37-3.52-27.41-5.41-41.89-5.41c-14.48,0-28.52,1.88-41.89,5.41c3.65-1.3,5.76-5.2,4.74-9.01
			c-1.07-4.01-5.19-6.38-9.2-5.31c-4.01,1.07-6.38,5.19-5.31,9.2c1.03,3.83,4.83,6.16,8.67,5.43c-13.65,3.7-26.6,9.1-38.6,15.99
			c3.25-2.18,4.3-6.54,2.31-9.98c-2.07-3.59-6.67-4.82-10.26-2.75c-3.59,2.07-4.82,6.67-2.75,10.26c2.01,3.48,6.39,4.74,9.93,2.92
			c-12.32,7.17-23.63,15.89-33.65,25.9c-10.02,10.02-18.73,21.32-25.9,33.65c1.82-3.54,0.56-7.92-2.92-9.93
			c-3.59-2.07-8.19-0.84-10.26,2.75s-0.84,8.19,2.75,10.26c3.44,1.99,7.79,0.93,9.98-2.31c-6.89,11.99-12.3,24.94-15.99,38.6
			c0.74-3.83-1.6-7.64-5.43-8.67c-4.01-1.07-8.13,1.3-9.2,5.31s1.3,8.13,5.31,9.2c3.81,1.02,7.72-1.08,9.01-4.74
			c-3.52,13.37-5.41,27.41-5.41,41.89c0,14.48,1.88,28.52,5.41,41.89c-1.3-3.65-5.2-5.76-9.01-4.74c-4.01,1.07-6.38,5.19-5.31,9.2
			c1.07,4.01,5.19,6.38,9.2,5.31c3.83-1.03,6.16-4.83,5.43-8.67c3.7,13.65,9.1,26.6,15.99,38.6c-2.18-3.25-6.54-4.3-9.98-2.31
			c-3.59,2.07-4.82,6.67-2.75,10.26c2.07,3.59,6.67,4.82,10.26,2.75c3.48-2.01,4.74-6.39,2.92-9.93
			c7.17,12.32,15.89,23.63,25.9,33.65c10.02,10.02,21.32,18.73,33.65,25.9c-3.54-1.82-7.92-0.57-9.93,2.92
			c-2.07,3.59-0.84,8.19,2.75,10.26c3.59,2.07,8.19,0.84,10.26-2.75c1.99-3.44,0.93-7.8-2.31-9.98c11.99,6.89,24.95,12.3,38.6,15.99
			c-3.83-0.74-7.64,1.6-8.67,5.43c-1.07,4.01,1.3,8.13,5.31,9.2c4.01,1.07,8.13-1.3,9.2-5.31c1.02-3.81-1.08-7.72-4.74-9.01
			c13.37,3.52,27.41,5.41,41.89,5.41c14.48,0,28.52-1.88,41.89-5.41c-3.65,1.3-5.76,5.2-4.74,9.01c1.07,4.01,5.19,6.38,9.2,5.31
			c4.01-1.07,6.38-5.19,5.31-9.2c-1.03-3.83-4.83-6.16-8.67-5.43c13.65-3.7,26.61-9.1,38.6-15.99c-3.25,2.18-4.3,6.54-2.31,9.98
			c2.07,3.59,6.67,4.82,10.26,2.75c3.59-2.07,4.82-6.67,2.75-10.26c-2.01-3.48-6.39-4.74-9.93-2.92
			c12.32-7.17,23.63-15.89,33.65-25.9c10.01-10.01,18.73-21.32,25.9-33.65c-1.82,3.54-0.56,7.92,2.92,9.93
			c3.59,2.07,8.19,0.84,10.26-2.75c2.07-3.59,0.84-8.19-2.75-10.26c-3.44-1.99-7.79-0.93-9.98,2.31
			c6.89-11.99,12.3-24.94,15.99-38.6c-0.74,3.83,1.6,7.64,5.43,8.67c4.01,1.07,8.13-1.3,9.2-5.31c1.07-4.01-1.3-8.13-5.31-9.2
			c-3.81-1.02-7.72,1.08-9.01,4.74c3.52-13.37,5.41-27.41,5.41-41.89C1531.88,474.59,1529.99,460.56,1526.47,447.19z"/>
		<path class="st1" d="M1375.33,317.51c0-4.15-3.36-7.51-7.51-7.51c-4.15,0-7.51,3.36-7.51,7.51c0,4.15,3.36,7.51,7.51,7.51
			C1371.97,325.02,1375.33,321.65,1375.33,317.51z"/>
		<path class="st1" d="M1251.81,362.45c-2.93-2.93-7.69-2.93-10.62,0c-2.93,2.93-2.93,7.69,0,10.62c2.93,2.93,7.69,2.93,10.62,0
			C1254.75,370.13,1254.75,365.38,1251.81,362.45z"/>
		<circle class="st1" cx="1196.25" cy="489.07" r="7.51"/>
		<path class="st1" d="M1241.19,605.08c-2.93,2.93-2.93,7.69,0,10.62c2.93,2.93,7.69,2.93,10.62,0c2.93-2.93,2.93-7.69,0-10.62
			C1248.88,602.14,1244.13,602.14,1241.19,605.08z"/>
		<path class="st1" d="M1360.31,660.64c0,4.15,3.36,7.51,7.51,7.51c4.15,0,7.51-3.36,7.51-7.51c0-4.15-3.36-7.51-7.51-7.51
			C1363.67,653.13,1360.31,656.49,1360.31,660.64z"/>
		<path class="st1" d="M1483.83,615.7c2.93,2.93,7.69,2.93,10.62,0c2.93-2.93,2.93-7.69,0-10.62c-2.93-2.93-7.69-2.93-10.62,0
			C1480.89,608.01,1480.89,612.77,1483.83,615.7z"/>
		
			<ellipse transform="matrix(0.3809 -0.9246 0.9246 0.3809 500.7823 1726.0872)" class="st1" cx="1539.39" cy="489.07" rx="7.51" ry="7.51"/>
		<path class="st1" d="M1494.45,373.07c2.93-2.93,2.93-7.69,0-10.62c-2.93-2.93-7.69-2.93-10.62,0c-2.93,2.93-2.93,7.69,0,10.62
			C1486.76,376,1491.51,376,1494.45,373.07z"/>
	</g>
	<g>
		
			<ellipse transform="matrix(0.7071 -0.7071 0.7071 0.7071 54.7985 1110.4408)" class="st2" cx="1367.82" cy="489.07" rx="145.05" ry="145.05"/>
		<path class="st2" d="M1395.74,631.44c-2.33-24.1-5.18-51.91-6.87-62.51c-2.92-18.27-12.95-69.19-14.89-78.99
			c0.04-0.29,0.07-0.58,0.07-0.88c0-3.44-2.79-6.23-6.23-6.23s-6.23,2.79-6.23,6.23c0,0.3,0.03,0.59,0.07,0.88
			c-1.94,9.8-11.96,60.72-14.89,78.99c-1.69,10.6-4.54,38.4-6.87,62.51"/>
		<g>
			<path class="st2" d="M1390.46,651.58c1.64,10.31,2.89,18.15,3.3,20.72c2.02,0,5.8,0,5.8,0s-0.8-8.94-1.99-21.66"/>
			<path class="st2" d="M1348.18,632.81c3.76-23.58,8.09-50.7,9.77-61.24c2.61-16.34,6.97-60.29,8.94-76.27l-0.06-0.09
				c0.32,0.05,0.65,0.09,0.99,0.09c0.31,0,0.62-0.03,0.92-0.08l0,0c1.96,15.91,6.33,59.97,8.95,76.34
				c1.69,10.55,6.01,37.67,9.77,61.25"/>
			<path class="st2" d="M1338.08,650.64c-1.19,12.73-1.99,21.66-1.99,21.66s4.19,0,5.8,0c0.41-2.57,1.66-10.4,3.3-20.72"/>
		</g>
		<g>
			<g>
				<line class="st2" x1="1377.41" y1="344.33" x2="1367.82" y2="325.02"/>
				<line class="st2" x1="1358.23" y1="344.33" x2="1367.82" y2="325.02"/>
			</g>
			<g>
				<line class="st2" x1="1352.13" y1="344.86" x2="1339.33" y2="327.51"/>
				<line class="st2" x1="1333.24" y1="348.2" x2="1339.33" y2="327.51"/>
			</g>
			<g>
				<line class="st2" x1="1327.33" y1="349.78" x2="1311.71" y2="334.91"/>
				<line class="st2" x1="1309.3" y1="356.34" x2="1311.71" y2="334.91"/>
			</g>
			<g>
				<line class="st2" x1="1303.76" y1="358.93" x2="1285.79" y2="347"/>
				<line class="st2" x1="1287.14" y1="368.52" x2="1285.79" y2="347"/>
			</g>
			<g>
				<line class="st2" x1="1282.13" y1="372.03" x2="1262.37" y2="363.4"/>
				<line class="st2" x1="1267.43" y1="384.36" x2="1262.37" y2="363.4"/>
			</g>
			<g>
				<line class="st2" x1="1263.11" y1="388.69" x2="1242.15" y2="383.62"/>
				<line class="st2" x1="1250.78" y1="403.38" x2="1242.15" y2="383.62"/>
			</g>
			<g>
				<line class="st2" x1="1247.27" y1="408.4" x2="1225.74" y2="407.04"/>
				<line class="st2" x1="1237.67" y1="425.01" x2="1225.74" y2="407.04"/>
			</g>
			<g>
				<line class="st2" x1="1235.09" y1="430.56" x2="1213.66" y2="432.96"/>
				<line class="st2" x1="1228.53" y1="448.58" x2="1213.66" y2="432.96"/>
			</g>
			<g>
				<line class="st2" x1="1226.94" y1="454.49" x2="1206.26" y2="460.58"/>
				<line class="st2" x1="1223.61" y1="473.38" x2="1206.26" y2="460.58"/>
			</g>
			<g>
				<line class="st2" x1="1223.08" y1="479.48" x2="1203.76" y2="489.07"/>
				<line class="st2" x1="1223.08" y1="498.66" x2="1203.76" y2="489.07"/>
			</g>
			<g>
				<line class="st2" x1="1223.61" y1="504.76" x2="1206.26" y2="517.56"/>
				<line class="st2" x1="1226.94" y1="523.65" x2="1206.26" y2="517.56"/>
			</g>
			<g>
				<line class="st2" x1="1228.53" y1="529.56" x2="1213.66" y2="545.18"/>
				<line class="st2" x1="1235.09" y1="547.59" x2="1213.66" y2="545.18"/>
			</g>
			<g>
				<line class="st2" x1="1237.67" y1="553.14" x2="1225.74" y2="571.1"/>
				<line class="st2" x1="1247.27" y1="569.75" x2="1225.74" y2="571.1"/>
			</g>
			<g>
				<line class="st2" x1="1250.78" y1="574.76" x2="1242.15" y2="594.53"/>
				<line class="st2" x1="1263.11" y1="589.46" x2="1242.15" y2="594.53"/>
			</g>
			<g>
				<line class="st2" x1="1267.43" y1="593.79" x2="1262.37" y2="614.75"/>
				<line class="st2" x1="1282.13" y1="606.12" x2="1262.37" y2="614.75"/>
			</g>
			<g>
				<line class="st2" x1="1287.14" y1="609.63" x2="1285.79" y2="631.15"/>
				<line class="st2" x1="1303.76" y1="619.22" x2="1285.79" y2="631.15"/>
			</g>
			<g>
				<line class="st2" x1="1309.3" y1="621.81" x2="1311.71" y2="643.23"/>
				<line class="st2" x1="1327.33" y1="628.37" x2="1311.71" y2="643.23"/>
			</g>
			<g>
				<line class="st2" x1="1333.24" y1="629.95" x2="1339.33" y2="650.64"/>
				<line class="st2" x1="1352.13" y1="633.28" x2="1339.33" y2="650.64"/>
			</g>
			<g>
				<line class="st2" x1="1358.23" y1="633.81" x2="1367.82" y2="653.13"/>
				<line class="st2" x1="1377.41" y1="633.81" x2="1367.82" y2="653.13"/>
			</g>
			<g>
				<line class="st2" x1="1383.51" y1="633.28" x2="1396.31" y2="650.64"/>
				<line class="st2" x1="1402.4" y1="629.95" x2="1396.31" y2="650.64"/>
			</g>
			<g>
				<line class="st2" x1="1408.31" y1="628.37" x2="1423.93" y2="643.23"/>
				<line class="st2" x1="1426.34" y1="621.81" x2="1423.93" y2="643.23"/>
			</g>
			<g>
				<line class="st2" x1="1431.88" y1="619.22" x2="1449.85" y2="631.15"/>
				<line class="st2" x1="1448.5" y1="609.63" x2="1449.85" y2="631.15"/>
			</g>
			<g>
				<line class="st2" x1="1453.51" y1="606.12" x2="1473.27" y2="614.75"/>
				<line class="st2" x1="1468.21" y1="593.79" x2="1473.27" y2="614.75"/>
			</g>
			<g>
				<line class="st2" x1="1472.53" y1="589.46" x2="1493.49" y2="594.53"/>
				<line class="st2" x1="1484.86" y1="574.76" x2="1493.49" y2="594.53"/>
			</g>
			<g>
				<line class="st2" x1="1488.37" y1="569.75" x2="1509.9" y2="571.1"/>
				<line class="st2" x1="1497.97" y1="553.14" x2="1509.9" y2="571.1"/>
			</g>
			<g>
				<line class="st2" x1="1500.55" y1="547.59" x2="1521.98" y2="545.18"/>
				<line class="st2" x1="1507.11" y1="529.56" x2="1521.98" y2="545.18"/>
			</g>
			<g>
				<line class="st2" x1="1508.7" y1="523.65" x2="1529.38" y2="517.56"/>
				<line class="st2" x1="1512.03" y1="504.76" x2="1529.38" y2="517.56"/>
			</g>
			<g>
				<line class="st2" x1="1512.56" y1="498.66" x2="1531.88" y2="489.07"/>
				<line class="st2" x1="1512.56" y1="479.48" x2="1531.88" y2="489.07"/>
			</g>
			<g>
				<line class="st2" x1="1512.03" y1="473.38" x2="1529.38" y2="460.58"/>
				<line class="st2" x1="1508.7" y1="454.49" x2="1529.38" y2="460.58"/>
			</g>
			<g>
				<line class="st2" x1="1507.11" y1="448.58" x2="1521.98" y2="432.96"/>
				<line class="st2" x1="1500.55" y1="430.56" x2="1521.98" y2="432.96"/>
			</g>
			<g>
				<line class="st2" x1="1497.97" y1="425.01" x2="1509.9" y2="407.04"/>
				<line class="st2" x1="1488.37" y1="408.4" x2="1509.9" y2="407.04"/>
			</g>
			<g>
				<line class="st2" x1="1484.86" y1="403.38" x2="1493.49" y2="383.62"/>
				<line class="st2" x1="1472.53" y1="388.69" x2="1493.49" y2="383.62"/>
			</g>
			<g>
				<line class="st2" x1="1468.21" y1="384.36" x2="1473.27" y2="363.4"/>
				<line class="st2" x1="1453.51" y1="372.03" x2="1473.27" y2="363.4"/>
			</g>
			<g>
				<line class="st2" x1="1448.5" y1="368.52" x2="1449.85" y2="347"/>
				<line class="st2" x1="1431.88" y1="358.93" x2="1449.85" y2="347"/>
			</g>
			<g>
				<line class="st2" x1="1426.34" y1="356.34" x2="1423.93" y2="334.91"/>
				<line class="st2" x1="1408.31" y1="349.78" x2="1423.93" y2="334.91"/>
			</g>
			<g>
				<line class="st2" x1="1402.4" y1="348.2" x2="1396.31" y2="327.51"/>
				<line class="st2" x1="1383.51" y1="344.86" x2="1396.31" y2="327.51"/>
			</g>
		</g>
	</g>
	<g>
		
			<ellipse transform="matrix(0.7071 -0.7071 0.7071 0.7071 54.7985 1110.4408)" class="st3" cx="1367.82" cy="489.07" rx="164.06" ry="164.06"/>
		<g>
			<circle class="st3" cx="1367.82" cy="317.51" r="7.51"/>
			<path class="st3" d="M1330.67,321.41c1.07,4.01-1.3,8.13-5.31,9.2c-4.01,1.07-8.13-1.3-9.2-5.31c-1.07-4.01,1.3-8.13,5.31-9.2
				C1325.48,315.02,1329.6,317.4,1330.67,321.41z"/>
			<path class="st3" d="M1288.54,336.74c2.07,3.59,0.84,8.19-2.75,10.26s-8.19,0.84-10.26-2.75c-2.07-3.59-0.84-8.19,2.75-10.26
				C1281.87,331.91,1286.47,333.14,1288.54,336.74z"/>
			<path class="st3" d="M1251.81,362.45c2.93,2.93,2.93,7.69,0,10.62c-2.93,2.93-7.69,2.93-10.62,0c-2.93-2.93-2.93-7.69,0-10.62
				C1244.13,359.51,1248.88,359.51,1251.81,362.45z"/>
			<path class="st3" d="M1222.99,396.78c3.59,2.07,4.82,6.67,2.75,10.26c-2.07,3.59-6.67,4.82-10.26,2.75s-4.82-6.67-2.75-10.26
				C1214.81,395.94,1219.4,394.71,1222.99,396.78z"/>
			<path class="st3" d="M1204.04,437.41c4.01,1.07,6.38,5.19,5.31,9.2c-1.07,4.01-5.19,6.38-9.2,5.31c-4.01-1.07-6.38-5.19-5.31-9.2
				S1200.04,436.34,1204.04,437.41z"/>
			<circle class="st3" cx="1196.25" cy="489.07" r="7.51"/>
			<path class="st3" d="M1200.15,526.22c4.01-1.07,8.13,1.3,9.2,5.31c1.07,4.01-1.3,8.13-5.31,9.2c-4.01,1.07-8.13-1.3-9.2-5.31
				C1193.77,531.41,1196.15,527.3,1200.15,526.22z"/>
			<path class="st3" d="M1215.48,568.35c3.59-2.07,8.19-0.84,10.26,2.75c2.07,3.59,0.84,8.19-2.75,10.26
				c-3.59,2.07-8.19,0.84-10.26-2.75C1210.66,575.02,1211.89,570.43,1215.48,568.35z"/>
			<path class="st3" d="M1241.19,605.08c2.93-2.93,7.69-2.93,10.62,0c2.93,2.93,2.93,7.69,0,10.62c-2.93,2.93-7.69,2.93-10.62,0
				C1238.26,612.77,1238.26,608.01,1241.19,605.08z"/>
			<path class="st3" d="M1275.53,633.9c2.07-3.59,6.67-4.82,10.26-2.75s4.82,6.67,2.75,10.26c-2.07,3.59-6.67,4.82-10.26,2.75
				C1274.69,642.08,1273.46,637.49,1275.53,633.9z"/>
			<path class="st3" d="M1316.16,652.85c1.07-4.01,5.19-6.38,9.2-5.31c4.01,1.07,6.38,5.19,5.31,9.2c-1.07,4.01-5.19,6.38-9.2,5.31
				C1317.46,660.98,1315.09,656.86,1316.16,652.85z"/>
			<circle class="st3" cx="1367.82" cy="660.64" r="7.51"/>
			<path class="st3" d="M1404.97,656.74c-1.07-4.01,1.3-8.13,5.31-9.2c4.01-1.07,8.13,1.3,9.2,5.31c1.07,4.01-1.3,8.13-5.31,9.2
				C1410.16,663.12,1406.04,660.74,1404.97,656.74z"/>
			<path class="st3" d="M1447.1,641.41c-2.07-3.59-0.84-8.19,2.75-10.26c3.59-2.07,8.19-0.84,10.26,2.75
				c2.07,3.59,0.84,8.19-2.75,10.26C1453.77,646.23,1449.17,645,1447.1,641.41z"/>
			<path class="st3" d="M1483.83,615.7c-2.93-2.93-2.93-7.69,0-10.62c2.93-2.93,7.69-2.93,10.62,0c2.93,2.93,2.93,7.69,0,10.62
				C1491.51,618.63,1486.76,618.63,1483.83,615.7z"/>
			<path class="st3" d="M1512.65,581.36c-3.59-2.07-4.82-6.67-2.75-10.26c2.07-3.59,6.67-4.82,10.26-2.75s4.82,6.67,2.75,10.26
				C1520.83,582.2,1516.24,583.44,1512.65,581.36z"/>
			<path class="st3" d="M1531.6,540.73c-4.01-1.07-6.38-5.19-5.31-9.2c1.07-4.01,5.19-6.38,9.2-5.31c4.01,1.07,6.38,5.19,5.31,9.2
				C1539.72,539.43,1535.6,541.81,1531.6,540.73z"/>
			<circle class="st3" cx="1539.39" cy="489.07" r="7.51"/>
			<path class="st3" d="M1535.48,451.92c-4.01,1.07-8.13-1.3-9.2-5.31c-1.07-4.01,1.3-8.13,5.31-9.2c4.01-1.07,8.13,1.3,9.2,5.31
				S1539.49,450.85,1535.48,451.92z"/>
			<path class="st3" d="M1520.16,409.79c-3.59,2.07-8.19,0.84-10.26-2.75c-2.07-3.59-0.84-8.19,2.75-10.26
				c3.59-2.07,8.19-0.84,10.26,2.75S1523.75,407.72,1520.16,409.79z"/>
			<path class="st3" d="M1494.45,373.07c-2.93,2.93-7.69,2.93-10.62,0c-2.93-2.93-2.93-7.69,0-10.62c2.93-2.93,7.69-2.93,10.62,0
				C1497.38,365.38,1497.38,370.13,1494.45,373.07z"/>
			<path class="st3" d="M1460.11,344.25c-2.07,3.59-6.67,4.82-10.26,2.75c-3.59-2.07-4.82-6.67-2.75-10.26s6.67-4.82,10.26-2.75
				C1460.95,336.06,1462.18,340.65,1460.11,344.25z"/>
			<path class="st3" d="M1419.48,325.3c-1.07,4.01-5.19,6.38-9.2,5.31c-4.01-1.07-6.38-5.19-5.31-9.2c1.07-4.01,5.19-6.38,9.2-5.31
				C1418.18,317.17,1420.55,321.29,1419.48,325.3z"/>
		</g>
		<path class="st3" d="M1374.05,489.07c0,3.44-2.79,6.23-6.23,6.23s-6.23-2.79-6.23-6.23c0-3.44,2.79-6.23,6.23-6.23
			S1374.05,485.63,1374.05,489.07z"/>
	</g>
</g>
<g>
	<g>
		<polyline class="st1" points="1614.94,650.97 1614.94,672.3 1464.61,672.3 1464.61,650.97 1443.61,650.97 1443.61,622.63 
			1434.94,622.63 1434.94,604.63 1429.28,604.63 1429.28,587.3 1424.28,587.3 1424.28,571.3 1420.61,571.3 1420.61,554.97 
			1417.61,554.97 1417.61,538.97 1415.61,538.97 1415.61,524.3 1413.94,524.3 1413.94,513.63 1416.94,513.63 1416.94,508.8 
			1413.94,508.8 1413.94,499.46 		"/>
		<path class="st1" d="M1413.94,499.46c105.25-39.37,216.67,69.75,213.08,151.5c-6,0-12.08,0-12.08,0"/>
	</g>
	<g>
		<polyline class="st3" points="1614.94,650.97 1614.94,672.3 1464.61,672.3 1464.61,650.97 1443.61,650.97 1443.61,622.63 
			1434.94,622.63 1434.94,604.63 1429.28,604.63 1429.28,587.3 1424.28,587.3 1424.28,571.3 1420.61,571.3 1420.61,554.97 
			1417.61,554.97 1417.61,538.97 1415.61,538.97 1415.61,524.3 1413.94,524.3 1413.94,513.63 1416.94,513.63 1416.94,508.8 
			1413.94,508.8 1413.94,499.46 		"/>
		<path class="st3" d="M1413.94,499.46c105.25-39.37,216.67,69.75,213.08,151.5c-6,0-12.08,0-12.08,0"/>
	</g>
	<g>
		<line class="st2" x1="1464.47" y1="650.97" x2="1614.94" y2="650.97"/>
		<line class="st2" x1="1443.61" y1="622.63" x2="1624.05" y2="622.63"/>
		<line class="st2" x1="1434.94" y1="604.63" x2="1618.27" y2="604.63"/>
		<line class="st2" x1="1429.28" y1="587.3" x2="1611.14" y2="587.3"/>
		<line class="st2" x1="1424.28" y1="571.3" x2="1600.13" y2="571.3"/>
		<line class="st2" x1="1420.61" y1="554.97" x2="1587.42" y2="554.97"/>
		<line class="st2" x1="1417.61" y1="538.97" x2="1571.93" y2="538.97"/>
		<line class="st2" x1="1415.61" y1="524.3" x2="1554.12" y2="524.3"/>
		<line class="st2" x1="1416.94" y1="513.63" x2="1537.86" y2="513.63"/>
		<line class="st2" x1="1416.94" y1="508.8" x2="1529.05" y2="508.8"/>
		<g>
			<line class="st2" x1="1479.86" y1="651.03" x2="1464.61" y2="668.75"/>
			<line class="st2" x1="1495.23" y1="651.03" x2="1476.92" y2="672.3"/>
			<line class="st2" x1="1510.6" y1="651.03" x2="1492.29" y2="672.3"/>
			<line class="st2" x1="1525.97" y1="651.03" x2="1507.66" y2="672.3"/>
			<line class="st2" x1="1541.34" y1="651.03" x2="1523.03" y2="672.3"/>
			<line class="st2" x1="1556.71" y1="651.03" x2="1538.39" y2="672.3"/>
			<line class="st2" x1="1572.07" y1="651.03" x2="1553.76" y2="672.3"/>
			<line class="st2" x1="1587.44" y1="651.03" x2="1569.13" y2="672.3"/>
			<line class="st2" x1="1602.81" y1="651.03" x2="1584.5" y2="672.3"/>
			<line class="st2" x1="1614.94" y1="654.79" x2="1599.87" y2="672.3"/>
		</g>
		<g>
			<line class="st2" x1="1425.62" y1="508.79" x2="1421.45" y2="513.63"/>
			<line class="st2" x1="1437.04" y1="508.8" x2="1432.88" y2="513.63"/>
			<line class="st2" x1="1448.49" y1="508.78" x2="1444.31" y2="513.63"/>
			<line class="st2" x1="1459.92" y1="508.78" x2="1455.74" y2="513.63"/>
			<line class="st2" x1="1471.33" y1="508.8" x2="1467.17" y2="513.63"/>
			<line class="st2" x1="1482.78" y1="508.78" x2="1478.6" y2="513.63"/>
			<line class="st2" x1="1494.21" y1="508.78" x2="1490.03" y2="513.63"/>
			<line class="st2" x1="1505.65" y1="508.78" x2="1501.47" y2="513.63"/>
			<line class="st2" x1="1517.08" y1="508.78" x2="1512.9" y2="513.63"/>
			<line class="st2" x1="1528.66" y1="508.6" x2="1524.33" y2="513.63"/>
		</g>
	</g>
</g>
<g>
	<g>
		<polygon class="st1" points="1304.64,421.36 1304.64,410.93 1259.32,410.93 1259.32,421.36 1253.21,421.36 1253.21,428.95 
			1253.21,463.45 1255.96,472.78 1255.96,672.3 1299.98,672.3 1307.46,672.3 1307.46,472.78 1310.21,463.45 1310.21,428.95 
			1310.21,421.36 		"/>
		<path class="st1" d="M1293.74,380.45v-5.47v-3.11v-9.55c-10.38-27-11.77-54.5-11.77-54.5s-1.39,27.5-11.77,54.5v9.55v3.11v5.47
			c0,0-1.97,13.69-10.89,25.19h45.32C1295.72,394.14,1293.74,380.45,1293.74,380.45z"/>
		<polygon class="st1" points="1283.41,355.7 1281.98,354.54 1280.54,355.7 		"/>
		<polygon class="st1" points="1281.98,344.95 1280.54,346.11 1283.41,346.11 		"/>
	</g>
	<g>
		<rect x="1255.96" y="472.78" class="st3" width="7.48" height="199.52"/>
		<rect x="1299.98" y="472.78" class="st3" width="7.48" height="199.52"/>
		<line class="st3" x1="1255.96" y1="672.3" x2="1307.46" y2="672.3"/>
		<line class="st3" x1="1310.21" y1="463.45" x2="1307.46" y2="472.78"/>
		<line class="st3" x1="1255.96" y1="472.78" x2="1253.21" y2="463.45"/>
		<line class="st3" x1="1310.21" y1="428.95" x2="1310.21" y2="463.45"/>
		<line class="st3" x1="1253.21" y1="463.45" x2="1253.21" y2="428.95"/>
		<polyline class="st3" points="1310.21,428.95 1310.21,421.36 1300.52,421.36 		"/>
		<polyline class="st3" points="1263.44,421.36 1253.21,421.36 1253.21,428.95 		"/>
		<polyline class="st3" points="1259.32,421.36 1259.32,410.93 1304.64,410.93 1304.64,421.36 		"/>
		<path class="st3" d="M1281.98,380.45h-11.77c0,0-1.97,13.69-10.89,25.19h45.32"/>
		<path class="st3" d="M1281.98,380.45h11.77c0,0,1.97,13.69,10.89,25.19"/>
		<line class="st3" x1="1270.21" y1="380.45" x2="1270.21" y2="362.32"/>
		<path class="st3" d="M1281.98,307.82c0,0-1.39,27.5-11.77,54.5"/>
		<line class="st3" x1="1293.74" y1="380.45" x2="1293.74" y2="362.32"/>
		<path class="st3" d="M1281.98,307.82c0,0,1.39,27.5,11.77,54.5"/>
		<line class="st3" x1="1281.98" y1="302.45" x2="1281.98" y2="291.57"/>
	</g>
	<g>
		<line class="st2" x1="1255.96" y1="509.95" x2="1307.46" y2="509.95"/>
		<line class="st2" x1="1270.79" y1="472.78" x2="1292.63" y2="472.78"/>
		<line class="st2" x1="1255.96" y1="517.12" x2="1307.46" y2="517.12"/>
		<line class="st2" x1="1270.79" y1="480.78" x2="1270.79" y2="501.95"/>
		<line class="st2" x1="1281.71" y1="480.78" x2="1281.71" y2="501.95"/>
		<line class="st2" x1="1292.63" y1="480.78" x2="1292.63" y2="501.95"/>
		<line class="st2" x1="1255.96" y1="554.28" x2="1307.46" y2="554.28"/>
		<line class="st2" x1="1255.96" y1="517.12" x2="1307.46" y2="517.12"/>
		<line class="st2" x1="1255.96" y1="561.45" x2="1307.46" y2="561.45"/>
		<line class="st2" x1="1270.79" y1="525.12" x2="1270.79" y2="546.28"/>
		<line class="st2" x1="1281.71" y1="525.12" x2="1281.71" y2="546.28"/>
		<line class="st2" x1="1292.63" y1="525.12" x2="1292.63" y2="546.28"/>
		<line class="st2" x1="1255.96" y1="598.62" x2="1307.46" y2="598.62"/>
		<line class="st2" x1="1255.96" y1="561.45" x2="1307.46" y2="561.45"/>
		<line class="st2" x1="1255.96" y1="605.78" x2="1307.46" y2="605.78"/>
		<line class="st2" x1="1270.79" y1="569.45" x2="1270.79" y2="590.62"/>
		<line class="st2" x1="1281.71" y1="569.45" x2="1281.71" y2="590.62"/>
		<line class="st2" x1="1292.63" y1="569.45" x2="1292.63" y2="590.62"/>
		<line class="st2" x1="1255.96" y1="642.95" x2="1307.46" y2="642.95"/>
		<line class="st2" x1="1255.96" y1="605.78" x2="1307.46" y2="605.78"/>
		<line class="st2" x1="1255.96" y1="650.12" x2="1307.46" y2="650.12"/>
		<line class="st2" x1="1270.79" y1="613.78" x2="1270.79" y2="634.95"/>
		<line class="st2" x1="1281.71" y1="613.78" x2="1281.71" y2="634.95"/>
		<line class="st2" x1="1292.63" y1="613.78" x2="1292.63" y2="634.95"/>
		<rect x="1270.79" y="661.95" class="st2" width="5.92" height="10.35"/>
		<rect x="1285.39" y="661.95" class="st2" width="5.92" height="10.35"/>
		<rect x="1264.73" y="428.95" class="st2" width="34.5" height="34.5"/>
		<circle class="st2" cx="1281.98" cy="446.2" r="12.24"/>
		<polyline class="st2" points="1277.55,389.61 1276.12,388.45 1274.68,389.61 		"/>
		<polyline class="st2" points="1288.74,389.61 1287.31,388.45 1285.87,389.61 		"/>
		<polyline class="st2" points="1272.22,399.54 1270.79,398.38 1269.35,399.54 		"/>
		<polyline class="st2" points="1283.41,399.54 1281.98,398.38 1280.54,399.54 		"/>
		<polyline class="st2" points="1283.41,355.7 1281.98,354.54 1280.54,355.7 		"/>
		<polyline class="st2" points="1283.41,346.11 1281.98,344.95 1280.54,346.11 		"/>
		<polyline class="st2" points="1294.6,399.54 1293.17,398.38 1291.73,399.54 		"/>
		<line class="st2" x1="1271.24" y1="421.36" x2="1292.18" y2="421.36"/>
		<path class="st2" d="M1274.92,380.45v-8.58c0-1.3-1.05-2.35-2.35-2.35c-1.3,0-2.35,1.05-2.35,2.35v8.58"/>
		<path class="st2" d="M1279.62,380.45v-8.58c0-1.3-1.05-2.35-2.35-2.35s-2.35,1.05-2.35,2.35v8.58"/>
		<path class="st2" d="M1284.33,380.45v-8.58c0-1.3-1.05-2.35-2.35-2.35s-2.35,1.05-2.35,2.35v8.58"/>
		<path class="st2" d="M1289.04,380.45v-8.58c0-1.3-1.05-2.35-2.35-2.35s-2.35,1.05-2.35,2.35v8.58"/>
		<path class="st2" d="M1293.74,380.45v-8.58c0-1.3-1.05-2.35-2.35-2.35c-1.3,0-2.35,1.05-2.35,2.35v8.58"/>
		<line class="st2" x1="1269.91" y1="362.32" x2="1293.74" y2="362.32"/>
		<line class="st2" x1="1253.21" y1="463.45" x2="1310.21" y2="463.45"/>
		<line class="st2" x1="1253.21" y1="428.95" x2="1310.21" y2="428.95"/>
	</g>
</g>
<g>
	<g>
		<path class="st1" d="M721.31,526.35c44.44,124.22-0.46,124.36,0,124.22h-0.01C721.76,650.71,676.86,650.57,721.31,526.35"/>
	</g>
	<line class="st2" x1="721.31" y1="672.3" x2="721.31" y2="593.1"/>
	<path class="st3" d="M721.3,650.57c0.46,0.14-44.44,0,0-124.22"/>
	<path class="st3" d="M721.31,650.57c-0.46,0.14,44.44,0,0-124.22"/>
</g>
<g>
	<g>
		<path class="st1" d="M233.98,672.3h-35.67c0,0-26.33-187,35.67-255"/>
		<path class="st1" d="M233.98,672.3h35.67c0,0,26.33-187-35.67-255"/>
	</g>
	<g>
		<path class="st3" d="M233.98,672.3h-35.67c0,0-26.33-187,35.67-255"/>
		<path class="st3" d="M233.98,672.3h35.67c0,0,26.33-187-35.67-255"/>
	</g>
	<g>
		<polygon class="st2" points="240.06,662.21 245.48,672.3 246.81,672.3 252.23,662.21 246.15,650.89 		"/>
		<polygon class="st2" points="221.81,605.6 215.73,616.92 221.81,628.24 227.9,616.92 		"/>
		<polygon class="st2" points="240.06,639.57 233.98,628.24 227.9,639.57 233.98,650.89 		"/>
		<polygon class="st2" points="258.31,560.31 264.4,548.99 258.31,537.67 252.23,548.99 		"/>
		<polygon class="st2" points="252.23,594.28 258.31,605.6 264.4,594.28 258.31,582.96 		"/>
		<polygon class="st2" points="240.06,526.35 246.15,537.67 252.23,526.35 246.15,515.02 		"/>
		<polygon class="st2" points="246.15,492.38 252.23,481.06 246.15,469.74 240.06,481.06 		"/>
		<polyline class="st2" points="231.04,452.57 227.9,458.41 233.98,469.74 240.06,458.41 236.93,452.58 		"/>
		<polygon class="st2" points="240.06,548.99 233.98,537.67 227.9,548.99 233.98,560.31 		"/>
		<polygon class="st2" points="240.06,594.28 233.98,582.96 227.9,594.28 233.98,605.6 		"/>
		<polygon class="st2" points="240.06,503.7 233.98,492.38 227.9,503.7 233.98,515.02 		"/>
		<polygon class="st2" points="227.9,571.63 221.81,560.31 215.73,571.63 221.81,582.96 		"/>
		<polygon class="st2" points="240.06,616.92 246.15,628.24 252.23,616.92 246.15,605.6 		"/>
		<polygon class="st2" points="240.06,571.63 246.15,582.96 252.23,571.63 246.15,560.31 		"/>
		<path class="st2" d="M203.56,571.63l-6.08-11.32l-4.55,8.46c-0.04,1.85-0.08,3.69-0.11,5.52l4.65,8.66L203.56,571.63z"/>
		<path class="st2" d="M197.48,605.6l-4.08,7.6c0.12,2.79,0.25,5.52,0.39,8.17l3.69,6.87l6.08-11.32L197.48,605.6z"/>
		<polygon class="st2" points="221.81,469.74 215.73,481.06 221.81,492.38 227.9,481.06 		"/>
		<polyline class="st2" points="212.59,452.57 215.73,458.41 218.87,452.57 		"/>
		<polygon class="st2" points="215.73,503.7 209.65,492.38 203.56,503.7 209.65,515.02 		"/>
		<path class="st2" d="M197.09,514.29c-0.09,0.65-0.18,1.3-0.26,1.95l0.66-1.22L197.09,514.29z"/>
		<path class="st2" d="M203.45,480.85c-0.06,0.26-0.13,0.52-0.19,0.77l0.3-0.56L203.45,480.85z"/>
		<path class="st2" d="M203.56,662.21l-6.08-11.32l-1.31,2.44c1.02,10.61,1.93,17.38,2.11,18.72L203.56,662.21z"/>
		<path class="st2" d="M209.65,469.74l-1.97-3.67c-1.55,4.8-2.96,9.74-4.22,14.79l0.11,0.21L209.65,469.74z"/>
		<path class="st2" d="M197.48,537.67l6.08-11.32l-6.08-11.32l-0.66,1.22c-0.74,5.55-1.36,11.13-1.87,16.71L197.48,537.67z"/>
		<path class="st2" d="M271.14,516.25c-0.09-0.65-0.17-1.3-0.26-1.95l-0.39,0.73L271.14,516.25z"/>
		<path class="st2" d="M264.4,662.21l5.28,9.84c0.18-1.34,1.09-8.11,2.11-18.72l-1.31-2.44L264.4,662.21z"/>
		<path class="st2" d="M264.4,526.35l6.08,11.32l2.53-4.71c-0.52-5.58-1.14-11.16-1.87-16.71l-0.66-1.22L264.4,526.35z"/>
		<path class="st2" d="M264.7,481.62c-0.06-0.26-0.13-0.52-0.19-0.77l-0.11,0.21L264.7,481.62z"/>
		<path class="st2" d="M258.31,469.74l6.08,11.32l0.11-0.21c-1.27-5.04-2.67-9.98-4.22-14.79L258.31,469.74z"/>
		<polygon class="st2" points="215.73,639.57 209.65,628.24 203.56,639.57 209.65,650.89 		"/>
		<polygon class="st2" points="215.73,594.28 209.65,582.96 203.56,594.28 209.65,605.6 		"/>
		<polygon class="st2" points="227.9,662.21 221.81,650.89 215.73,662.21 221.15,672.3 222.48,672.3 		"/>
		<polygon class="st2" points="252.23,639.57 258.31,650.89 264.4,639.57 258.31,628.24 		"/>
		<polygon class="st2" points="227.9,526.35 221.81,515.02 215.73,526.35 221.81,537.67 		"/>
		<polygon class="st2" points="215.73,548.99 209.65,537.67 203.56,548.99 209.65,560.31 		"/>
		<polygon class="st2" points="258.31,515.02 264.4,503.7 258.31,492.38 252.23,503.7 		"/>
		<polyline class="st2" points="249.1,452.58 252.23,458.41 255.37,452.57 		"/>
		<path class="st2" d="M264.4,616.92l6.08,11.32l3.69-6.87c0.14-2.65,0.27-5.38,0.39-8.17l-4.08-7.6L264.4,616.92z"/>
		<path class="st2" d="M264.4,571.63l6.08,11.32l4.65-8.66c-0.03-1.83-0.06-3.67-0.11-5.52l-4.55-8.46L264.4,571.63z"/>
		<line class="st2" x1="215.02" y1="446.96" x2="252.94" y2="446.96"/>
		<line class="st2" x1="212.63" y1="452.46" x2="255.33" y2="452.46"/>
	</g>
</g>
<g>
	<polygon class="st1" points="886.89,653.8 844.89,229.8 840.39,226.8 840.39,259.8 835.64,259.8 835.64,255.55 822.89,231.3 
		775.39,649.55 783.39,649.55 781.39,672.3 881.89,672.3 878.89,653.8 	"/>
	<g>
		<polyline class="st3" points="781.39,672.3 881.89,672.3 878.89,653.8 886.89,653.8 844.89,229.8 840.39,226.8 840.39,259.8 		"/>
		<polyline class="st3" points="781.39,672.3 783.39,649.55 775.39,649.55 822.89,231.3 835.64,255.55 835.64,259.8 840.39,259.8 		
			"/>
	</g>
	<polyline class="st2" points="840.39,259.8 840.39,516.47 861.89,653.8 873.06,653.8 	"/>
	<polyline class="st2" points="830.23,329.65 834.89,343.8 834.89,594.97 	"/>
	<polyline class="st2" points="835.64,259.8 805.23,651.96 837.8,651.96 	"/>
	<line class="st2" x1="783.39" y1="649.55" x2="801.23" y2="649.55"/>
	<g>
		<polygon class="st2" points="834.89,533.13 843,533.13 842.19,527.96 834.89,527.96 		"/>
		<polygon class="st2" points="834.89,527.96 842.19,527.96 841.38,522.8 834.89,522.8 		"/>
		<polygon class="st2" points="834.89,522.8 841.38,522.8 840.58,517.63 834.89,517.63 		"/>
		<polygon class="st2" points="834.89,517.63 840.58,517.63 840.39,516.46 840.39,512.46 834.89,512.46 		"/>
		<polygon class="st2" points="834.89,558.96 847.05,558.96 846.24,553.8 834.89,553.8 		"/>
		<polygon class="st2" points="834.89,538.3 843.81,538.3 843,533.13 834.89,533.13 		"/>
		<polygon class="st2" points="834.89,548.63 845.43,548.63 844.62,543.46 834.89,543.46 		"/>
		<polygon class="st2" points="834.89,553.8 846.24,553.8 845.43,548.63 834.89,548.63 		"/>
		<polygon class="st2" points="834.89,543.46 844.62,543.46 843.81,538.3 834.89,538.3 		"/>
		<rect x="834.89" y="481.46" class="st2" width="5.5" height="5.17"/>
		<rect x="834.89" y="476.3" class="st2" width="5.5" height="5.17"/>
		<rect x="834.89" y="507.3" class="st2" width="5.5" height="5.17"/>
		<rect x="834.89" y="465.96" class="st2" width="5.5" height="5.17"/>
		<polygon class="st2" points="834.89,564.13 847.85,564.13 847.05,558.96 834.89,558.96 		"/>
		<rect x="834.89" y="471.13" class="st2" width="5.5" height="5.17"/>
		<rect x="834.89" y="496.96" class="st2" width="5.5" height="5.17"/>
		<rect x="834.89" y="502.13" class="st2" width="5.5" height="5.17"/>
		<rect x="834.89" y="491.8" class="st2" width="5.5" height="5.17"/>
		<rect x="834.89" y="486.63" class="st2" width="5.5" height="5.17"/>
		<polygon class="st2" points="837.01,636.46 859.18,636.46 858.37,631.3 836.75,631.3 		"/>
		<polygon class="st2" points="836.48,626.13 857.56,626.13 856.75,620.96 836.22,620.96 		"/>
		<polygon class="st2" points="836.75,631.3 858.37,631.3 857.56,626.13 836.48,626.13 		"/>
		<polygon class="st2" points="836.22,620.96 856.75,620.96 855.94,615.8 835.95,615.8 		"/>
		<polygon class="st2" points="835.95,615.8 855.94,615.8 855.13,610.63 835.69,610.63 		"/>
		<rect x="834.89" y="460.8" class="st2" width="5.5" height="5.17"/>
		<polygon class="st2" points="837.8,651.96 861.61,651.96 860.8,646.8 837.54,646.8 		"/>
		<polygon class="st2" points="834.89,569.3 848.66,569.3 847.85,564.13 834.89,564.13 		"/>
		<polyline class="st2" points="861.89,653.8 861.61,651.96 837.8,651.96 		"/>
		<polygon class="st2" points="837.54,646.8 860.8,646.8 859.99,641.63 837.27,641.63 		"/>
		<polygon class="st2" points="837.27,641.63 859.99,641.63 859.18,636.46 837.01,636.46 		"/>
		<polygon class="st2" points="834.89,589.96 851.9,589.96 851.09,584.8 834.89,584.8 		"/>
		<polygon class="st2" points="834.89,584.8 851.09,584.8 850.28,579.63 834.89,579.63 		"/>
		<polygon class="st2" points="835.69,610.63 855.13,610.63 854.33,605.46 835.43,605.46 		"/>
		<polygon class="st2" points="834.89,574.46 849.47,574.46 848.66,569.3 834.89,569.3 		"/>
		<polygon class="st2" points="834.89,579.63 850.28,579.63 849.47,574.46 834.89,574.46 		"/>
		<polygon class="st2" points="835.43,605.46 854.33,605.46 853.52,600.3 835.16,600.3 		"/>
		<polygon class="st2" points="834.89,594.96 834.9,595.13 852.71,595.13 851.9,589.96 834.89,589.96 		"/>
		<polygon class="st2" points="835.16,600.3 853.52,600.3 852.71,595.13 834.9,595.13 		"/>
		<polygon class="st2" points="831.68,310.96 840.39,310.96 840.39,305.8 832.08,305.8 		"/>
		<path class="st2" d="M830.23,329.65c0,0,0.26,0.79,0.65,1.99h9.5v-5.17h-9.91L830.23,329.65z"/>
		<path class="st2" d="M832.59,336.8h7.8v-5.17h-9.5C831.34,333,831.96,334.9,832.59,336.8z"/>
		<polygon class="st2" points="830.48,326.46 840.39,326.46 840.39,321.3 830.88,321.3 		"/>
		<polygon class="st2" points="830.88,321.3 840.39,321.3 840.39,316.13 831.28,316.13 		"/>
		<rect x="834.89" y="347.13" class="st2" width="5.5" height="5.17"/>
		<rect x="834.89" y="352.3" class="st2" width="5.5" height="5.17"/>
		<polygon class="st2" points="831.28,316.13 840.39,316.13 840.39,310.96 831.68,310.96 		"/>
		<path class="st2" d="M834.89,343.8v3.33h5.5v-5.17h-6.1C834.66,343.08,834.89,343.8,834.89,343.8z"/>
		<path class="st2" d="M834.29,341.96h6.1v-5.17h-7.8C833.22,338.72,833.85,340.63,834.29,341.96z"/>
		<rect x="834.89" y="357.46" class="st2" width="5.5" height="5.17"/>
		<polygon class="st2" points="840.39,259.8 835.64,259.8 835.28,264.46 840.39,264.46 		"/>
		<polygon class="st2" points="834.08,279.96 840.39,279.96 840.39,274.8 834.48,274.8 		"/>
		<polygon class="st2" points="832.08,305.8 840.39,305.8 840.39,300.63 832.48,300.63 		"/>
		<polygon class="st2" points="834.88,269.63 834.48,274.8 840.39,274.8 840.39,269.63 		"/>
		<polygon class="st2" points="840.39,264.46 835.28,264.46 834.88,269.63 840.39,269.63 		"/>
		<polygon class="st2" points="832.88,295.46 840.39,295.46 840.39,290.3 833.28,290.3 		"/>
		<polygon class="st2" points="832.48,300.63 840.39,300.63 840.39,295.46 832.88,295.46 		"/>
		<polygon class="st2" points="833.68,285.13 840.39,285.13 840.39,279.96 834.08,279.96 		"/>
		<polygon class="st2" points="833.28,290.3 840.39,290.3 840.39,285.13 833.68,285.13 		"/>
		<rect x="834.89" y="398.8" class="st2" width="5.5" height="5.17"/>
		<rect x="834.89" y="419.46" class="st2" width="5.5" height="5.17"/>
		<rect x="834.89" y="424.63" class="st2" width="5.5" height="5.17"/>
		<rect x="834.89" y="429.8" class="st2" width="5.5" height="5.17"/>
		<rect x="834.89" y="414.3" class="st2" width="5.5" height="5.17"/>
		<rect x="834.89" y="440.13" class="st2" width="5.5" height="5.17"/>
		<rect x="834.89" y="450.46" class="st2" width="5.5" height="5.17"/>
		<rect x="834.89" y="445.3" class="st2" width="5.5" height="5.17"/>
		<rect x="834.89" y="409.13" class="st2" width="5.5" height="5.17"/>
		<rect x="834.89" y="434.96" class="st2" width="5.5" height="5.17"/>
		<rect x="834.89" y="455.63" class="st2" width="5.5" height="5.17"/>
		<rect x="834.89" y="403.96" class="st2" width="5.5" height="5.17"/>
		<rect x="834.89" y="378.13" class="st2" width="5.5" height="5.17"/>
		<rect x="834.89" y="383.3" class="st2" width="5.5" height="5.17"/>
		<rect x="834.89" y="367.8" class="st2" width="5.5" height="5.17"/>
		<rect x="834.89" y="372.96" class="st2" width="5.5" height="5.17"/>
		<rect x="834.89" y="388.46" class="st2" width="5.5" height="5.17"/>
		<rect x="834.89" y="362.63" class="st2" width="5.5" height="5.17"/>
		<rect x="834.89" y="393.63" class="st2" width="5.5" height="5.17"/>
	</g>
	<g>
		<polyline class="st2" points="861.61,651.96 861.89,653.8 886.89,653.8 886.71,651.96 		"/>
		<polyline class="st2" points="845.04,231.3 844.89,229.8 840.39,226.8 840.39,231.3 		"/>
		<polyline class="st2" points="840.39,231.3 840.39,241.56 846.06,241.56 845.04,231.3 		"/>
		<polyline class="st2" points="840.39,436.5 840.39,446.76 866.38,446.76 865.37,436.5 		"/>
		<polyline class="st2" points="840.39,498.06 840.39,508.32 872.48,508.32 871.47,498.06 		"/>
		<polyline class="st2" points="873.5,518.58 872.48,508.32 840.39,508.32 840.39,516.46 840.72,518.58 		"/>
		<polyline class="st2" points="840.72,518.58 842.33,528.84 874.51,528.84 873.5,518.58 		"/>
		<polyline class="st2" points="867.4,457.02 866.38,446.76 840.39,446.76 840.39,457.02 		"/>
		<polyline class="st2" points="840.39,477.54 840.39,487.8 870.45,487.8 869.43,477.54 		"/>
		<polyline class="st2" points="875.53,539.1 874.51,528.84 842.33,528.84 843.94,539.1 		"/>
		<polyline class="st2" points="869.43,477.54 868.42,467.28 840.39,467.28 840.39,477.54 		"/>
		<polyline class="st2" points="871.47,498.06 870.45,487.8 840.39,487.8 840.39,498.06 		"/>
		<polyline class="st2" points="883.66,621.18 882.65,610.92 855.18,610.92 856.79,621.18 		"/>
		<polyline class="st2" points="881.63,600.66 880.61,590.4 851.97,590.4 853.57,600.66 		"/>
		<polyline class="st2" points="843.94,539.1 845.54,549.36 876.55,549.36 875.53,539.1 		"/>
		<polyline class="st2" points="856.79,621.18 858.39,631.44 884.68,631.44 883.66,621.18 		"/>
		<polyline class="st2" points="853.57,600.66 855.18,610.92 882.65,610.92 881.63,600.66 		"/>
		<polyline class="st2" points="850.36,580.14 851.97,590.4 880.61,590.4 879.6,580.14 		"/>
		<polyline class="st2" points="877.56,559.62 876.55,549.36 845.54,549.36 847.15,559.62 		"/>
		<polyline class="st2" points="847.15,559.62 848.76,569.88 878.58,569.88 877.56,559.62 		"/>
		<polyline class="st2" points="879.6,580.14 878.58,569.88 848.76,569.88 850.36,580.14 		"/>
		<polyline class="st2" points="840.39,457.02 840.39,467.28 868.42,467.28 867.4,457.02 		"/>
		<polyline class="st2" points="840.39,292.86 840.39,303.12 852.16,303.12 851.14,292.86 		"/>
		<polyline class="st2" points="840.39,313.38 840.39,323.64 854.19,323.64 853.17,313.38 		"/>
		<polyline class="st2" points="853.17,313.38 852.16,303.12 840.39,303.12 840.39,313.38 		"/>
		<polyline class="st2" points="855.2,333.9 854.19,323.64 840.39,323.64 840.39,333.9 		"/>
		<polyline class="st2" points="840.39,333.9 840.39,344.16 856.22,344.16 855.2,333.9 		"/>
		<polyline class="st2" points="847.07,251.82 846.06,241.56 840.39,241.56 840.39,251.82 		"/>
		<polyline class="st2" points="851.14,292.86 850.12,282.6 840.39,282.6 840.39,292.86 		"/>
		<polyline class="st2" points="849.11,272.34 848.09,262.08 840.39,262.08 840.39,272.34 		"/>
		<polyline class="st2" points="865.37,436.5 864.35,426.24 840.39,426.24 840.39,436.5 		"/>
		<polyline class="st2" points="840.39,272.34 840.39,282.6 850.12,282.6 849.11,272.34 		"/>
		<polyline class="st2" points="863.34,415.98 862.32,405.72 840.39,405.72 840.39,415.98 		"/>
		<polyline class="st2" points="861.3,395.46 860.29,385.2 840.39,385.2 840.39,395.46 		"/>
		<polyline class="st2" points="840.39,395.46 840.39,405.72 862.32,405.72 861.3,395.46 		"/>
		<polyline class="st2" points="840.39,415.98 840.39,426.24 864.35,426.24 863.34,415.98 		"/>
		<polyline class="st2" points="857.24,354.42 856.22,344.16 840.39,344.16 840.39,354.42 		"/>
		<polyline class="st2" points="840.39,374.94 840.39,385.2 860.29,385.2 859.27,374.94 		"/>
		<polyline class="st2" points="840.39,354.42 840.39,364.68 858.25,364.68 857.24,354.42 		"/>
		<polyline class="st2" points="859.27,374.94 858.25,364.68 840.39,364.68 840.39,374.94 		"/>
		<polyline class="st2" points="840.39,251.82 840.39,259.8 840.39,262.08 848.09,262.08 847.07,251.82 		"/>
		<polygon class="st2" points="818.78,477.54 794.93,477.54 793.76,487.8 817.99,487.8 		"/>
		<polygon class="st2" points="819.58,467.28 796.09,467.28 794.93,477.54 818.78,477.54 		"/>
		<polygon class="st2" points="817.19,498.06 792.6,498.06 791.43,508.32 816.4,508.32 		"/>
		<polygon class="st2" points="817.99,487.8 793.76,487.8 792.6,498.06 817.19,498.06 		"/>
		<polygon class="st2" points="824.34,405.72 803.08,405.72 801.92,415.98 823.55,415.98 		"/>
		<polygon class="st2" points="820.37,457.02 797.26,457.02 796.09,467.28 819.58,467.28 		"/>
		<polygon class="st2" points="821.17,446.76 798.42,446.76 797.26,457.02 820.37,457.02 		"/>
		<polygon class="st2" points="822.76,426.24 800.75,426.24 799.59,436.5 821.96,436.5 		"/>
		<polygon class="st2" points="823.55,415.98 801.92,415.98 800.75,426.24 822.76,426.24 		"/>
		<polygon class="st2" points="821.96,436.5 799.59,436.5 798.42,446.76 821.17,446.76 		"/>
		<polygon class="st2" points="816.4,508.32 791.43,508.32 790.27,518.58 815.61,518.58 		"/>
		<polygon class="st2" points="810.04,590.4 782.11,590.4 780.94,600.66 809.25,600.66 		"/>
		<polygon class="st2" points="775.39,649.55 805.46,649.55 806.07,641.7 776.28,641.7 		"/>
		<polygon class="st2" points="811.63,569.88 784.44,569.88 783.27,580.14 810.84,580.14 		"/>
		<polygon class="st2" points="810.84,580.14 783.27,580.14 782.11,590.4 810.04,590.4 		"/>
		<polygon class="st2" points="777.45,631.44 776.28,641.7 806.07,641.7 806.87,631.44 		"/>
		<polygon class="st2" points="812.43,559.62 785.61,559.62 784.44,569.88 811.63,569.88 		"/>
		<polygon class="st2" points="814.02,539.1 787.94,539.1 786.77,549.36 813.22,549.36 		"/>
		<polygon class="st2" points="815.61,518.58 790.27,518.58 789.1,528.84 814.81,528.84 		"/>
		<polygon class="st2" points="813.22,549.36 786.77,549.36 785.61,559.62 812.43,559.62 		"/>
		<polygon class="st2" points="814.81,528.84 789.1,528.84 787.94,539.1 814.02,539.1 		"/>
		<polygon class="st2" points="835.64,259.8 835.64,255.55 833.68,251.82 820.56,251.82 819.4,262.08 835.47,262.08 		"/>
		<polygon class="st2" points="835.47,262.08 819.4,262.08 818.23,272.34 834.67,272.34 		"/>
		<polygon class="st2" points="833.88,282.6 817.07,282.6 815.9,292.86 833.08,292.86 		"/>
		<polygon class="st2" points="828.29,241.56 821.73,241.56 820.56,251.82 833.68,251.82 		"/>
		<polygon class="st2" points="834.67,272.34 818.23,272.34 817.07,282.6 833.88,282.6 		"/>
		<polygon class="st2" points="809.25,600.66 780.94,600.66 779.78,610.92 808.46,610.92 		"/>
		<polygon class="st2" points="807.66,621.18 778.61,621.18 777.45,631.44 806.87,631.44 		"/>
		<polygon class="st2" points="808.46,610.92 779.78,610.92 778.61,621.18 807.66,621.18 		"/>
		<polygon class="st2" points="833.08,292.86 815.9,292.86 814.74,303.12 832.29,303.12 		"/>
		<polygon class="st2" points="822.89,231.3 821.73,241.56 828.29,241.56 		"/>
		<polygon class="st2" points="826.73,374.94 806.58,374.94 805.41,385.2 825.93,385.2 		"/>
		<polygon class="st2" points="827.52,364.68 807.74,364.68 806.58,374.94 826.73,374.94 		"/>
		<polygon class="st2" points="825.14,395.46 804.25,395.46 803.08,405.72 824.34,405.72 		"/>
		<polygon class="st2" points="828.32,354.42 808.91,354.42 807.74,364.68 827.52,364.68 		"/>
		<polygon class="st2" points="825.93,385.2 805.41,385.2 804.25,395.46 825.14,395.46 		"/>
		<polygon class="st2" points="829.9,333.9 811.24,333.9 810.08,344.16 829.11,344.16 		"/>
		<polygon class="st2" points="830.7,323.64 812.41,323.64 811.24,333.9 829.9,333.9 		"/>
		<polygon class="st2" points="831.49,313.38 813.57,313.38 812.41,323.64 830.7,323.64 		"/>
		<polygon class="st2" points="832.29,303.12 814.74,303.12 813.57,313.38 831.49,313.38 		"/>
		<polygon class="st2" points="829.11,344.16 810.08,344.16 808.91,354.42 828.32,354.42 		"/>
	</g>
</g>
<g>
	<path class="st1" d="M709.73,625.88v-101.5l1.75-11.25v-68l-8.75-31.75l-6.22,22.57l-13.78-37.49h-2h-2l-13.78,37.49l-6.22-22.57
		l-8.75,31.75v33.17H521.63h-0.07c-0.35-2.28-2.05-3.24-4.36-3.54c-4.88-0.62-6.12-4.38-6.12-4.38s-1.25,3.75-6.12,4.38
		c-2.32,0.3-4.02,1.26-4.36,3.54h-0.07H372.15v-33.17l-8.75-31.75l-6.22,22.57l-13.78-37.49h-2h-2l-13.78,37.49l-6.22-22.57
		l-8.75,31.75v68l1.75,11.25v101.5h-15.58v46.42h89.17h250.17h89.17v-46.42H709.73z M651.73,615.72l-92.18-92.18l-3.54,3.54
		l-4.36,4.36c0,0,57.77,68.59,84.5,116.95l-17.87,14l-17.87-14l-17.87,14l-17.87-14l-17.86,14l-17.87-14l-17.87,14l-17.87-14
		l-17.86,14l-17.87-14l-17.86,14l-17.86-14l-17.86,14l-17.87-14l-0.02,0c26.73-48.36,84.5-116.95,84.5-116.95l-4.36-4.36l-3.54-3.54
		l-92.18,92.18l0-91.34l1.75-11.25v-5.17h277.83v5.17l1.75,11.25L651.73,615.72z"/>
	<g>
		<g>
			<polyline class="st3" points="357.18,435.95 343.4,398.46 341.4,398.46 339.4,398.46 325.62,435.95 			"/>
		</g>
		<path class="st3" d="M511.06,492.38H500.5c0,0,0-10.25,0-13.19s1.83-4.1,4.44-4.44c4.88-0.62,6.12-4.38,6.12-4.38
			s1.25,3.75,6.12,4.38c2.6,0.33,4.44,1.5,4.44,4.44s0,13.19,0,13.19H511.06z"/>
		<g>
			<polyline class="st3" points="664.95,435.95 678.73,398.46 680.73,398.46 682.73,398.46 696.51,435.95 			"/>
		</g>
		<path class="st3" d="M386,648.38l17.87,14l17.86-14l17.86,14l17.86-14l17.87,14l17.86-14l17.87,14l17.87-14l17.87,14l17.86-14
			l17.87,14l17.87-14l17.87,14l17.87-14c-26.72-48.36-84.5-116.95-84.5-116.95l4.36-4.36l3.54-3.54l92.18,92.18l0-91.34l-1.75-11.25
			v-5.17H372.15v5.17l-1.75,11.25l0,91.34l92.18-92.18l3.54,3.54l4.36,4.36c0,0-57.77,68.59-84.5,116.95L386,648.38z"/>
		<polyline class="st3" points="521.63,478.3 649.98,478.3 649.98,445.13 658.73,413.38 667.48,445.13 672.06,445.13 672.06,436.3 
			675.06,436.3 680.73,425.46 686.4,436.3 689.4,436.3 689.4,445.13 693.98,445.13 702.73,413.38 711.48,445.13 711.48,513.13 
			709.73,524.38 709.73,625.88 725.31,625.88 725.31,672.3 636.15,672.3 385.98,672.3 296.81,672.3 296.81,625.88 312.4,625.88 
			312.4,524.38 310.65,513.13 310.65,445.13 319.4,413.38 328.15,445.13 332.73,445.13 332.73,436.3 335.73,436.3 341.4,425.46 
			347.06,436.3 350.06,436.3 350.06,445.13 354.65,445.13 363.4,413.38 372.15,445.13 372.15,478.3 500.5,478.3 		"/>
	</g>
	<g>
		<line class="st2" x1="328.15" y1="466.46" x2="354.65" y2="466.46"/>
		<line class="st2" x1="328.15" y1="470.46" x2="354.65" y2="470.46"/>
		<line class="st2" x1="316.52" y1="466.46" x2="322.27" y2="466.46"/>
		<line class="st2" x1="310.65" y1="445.13" x2="328.15" y2="445.13"/>
		<line class="st2" x1="316.52" y1="470.46" x2="322.27" y2="470.46"/>
		<line class="st2" x1="360.52" y1="466.46" x2="366.27" y2="466.46"/>
		<line class="st2" x1="354.65" y1="445.13" x2="372.15" y2="445.13"/>
		<line class="st2" x1="360.52" y1="470.46" x2="366.27" y2="470.46"/>
		<line class="st2" x1="326.4" y1="534.32" x2="356.4" y2="534.32"/>
		<line class="st2" x1="326.4" y1="541.32" x2="356.4" y2="541.32"/>
		<line class="st2" x1="316.52" y1="534.32" x2="322.27" y2="534.32"/>
		<line class="st2" x1="316.52" y1="541.32" x2="322.27" y2="541.32"/>
		<line class="st2" x1="360.52" y1="534.32" x2="366.27" y2="534.32"/>
		<line class="st2" x1="360.52" y1="541.32" x2="366.27" y2="541.32"/>
		<line class="st2" x1="328.15" y1="500.63" x2="354.65" y2="500.63"/>
		<line class="st2" x1="328.15" y1="507.63" x2="354.65" y2="507.63"/>
		<line class="st2" x1="316.52" y1="500.63" x2="322.27" y2="500.63"/>
		<line class="st2" x1="316.52" y1="507.63" x2="322.27" y2="507.63"/>
		<line class="st2" x1="360.52" y1="500.63" x2="366.27" y2="500.63"/>
		<line class="st2" x1="360.52" y1="507.63" x2="366.27" y2="507.63"/>
		<line class="st2" x1="326.4" y1="570.88" x2="356.4" y2="570.88"/>
		<line class="st2" x1="326.4" y1="577.88" x2="356.4" y2="577.88"/>
		<line class="st2" x1="316.52" y1="570.88" x2="322.27" y2="570.88"/>
		<line class="st2" x1="316.52" y1="577.88" x2="322.27" y2="577.88"/>
		<line class="st2" x1="360.52" y1="570.88" x2="366.27" y2="570.88"/>
		<line class="st2" x1="360.52" y1="577.88" x2="366.27" y2="577.88"/>
		<path class="st2" d="M338.21,449.94c-0.88,0-1.59,0.71-1.59,1.59v9.19h3.19v-9.19C339.8,450.66,339.09,449.94,338.21,449.94z"/>
		<path class="st2" d="M341.4,449.94c-0.88,0-1.59,0.71-1.59,1.59v9.19h3.19v-9.19C342.99,450.66,342.28,449.94,341.4,449.94z"/>
		<path class="st2" d="M344.58,449.94c-0.88,0-1.59,0.71-1.59,1.59v9.19h3.19v-9.19C346.18,450.66,345.46,449.94,344.58,449.94z"/>
		<path class="st2" d="M338.21,477.37c-0.88,0-1.59,0.71-1.59,1.59v9.19h3.19v-9.19C339.8,478.08,339.09,477.37,338.21,477.37z"/>
		<path class="st2" d="M333.58,523.54c-0.88,0-1.59,0.71-1.59,1.59v9.19h3.19v-9.19C335.18,524.25,334.46,523.54,333.58,523.54z"/>
		<path class="st2" d="M332.3,560.1c-0.88,0-1.59,0.71-1.59,1.59v9.19h3.19v-9.19C333.9,560.81,333.18,560.1,332.3,560.1z"/>
		<path class="st2" d="M350.8,560.1c-0.88,0-1.59,0.71-1.59,1.59v9.19h3.19v-9.19C352.4,560.81,351.68,560.1,350.8,560.1z"/>
		<path class="st2" d="M341.4,523.54c-0.88,0-1.59,0.71-1.59,1.59v9.19h3.19v-9.19C342.99,524.25,342.28,523.54,341.4,523.54z"/>
		<path class="st2" d="M339.8,560.1c-0.88,0-1.59,0.71-1.59,1.59v9.19h3.19v-9.19C341.4,560.81,340.68,560.1,339.8,560.1z"/>
		<path class="st2" d="M342.99,560.1c-0.88,0-1.59,0.71-1.59,1.59v9.19h3.19v-9.19C344.58,560.81,343.87,560.1,342.99,560.1z"/>
		<path class="st2" d="M332.3,603.98c-0.88,0-1.59,0.71-1.59,1.59v6.19h3.19v-6.19C333.9,604.69,333.18,603.98,332.3,603.98z"/>
		<path class="st2" d="M350.8,603.98c-0.88,0-1.59,0.71-1.59,1.59v6.19h3.19v-6.19C352.4,604.69,351.68,603.98,350.8,603.98z"/>
		<path class="st2" d="M332.3,590.98c-0.88,0-1.59,0.71-1.59,1.59v6.19h3.19v-6.19C333.9,591.69,333.18,590.98,332.3,590.98z"/>
		<path class="st2" d="M350.8,590.98c-0.88,0-1.59,0.71-1.59,1.59v6.19h3.19v-6.19C352.4,591.69,351.68,590.98,350.8,590.98z"/>
		<path class="st2" d="M339.8,590.98c-0.88,0-1.59,0.71-1.59,1.59v19.19h3.19v-19.19C341.4,591.69,340.68,590.98,339.8,590.98z"/>
		<path class="st2" d="M342.99,590.98c-0.88,0-1.59,0.71-1.59,1.59v19.19h3.19v-19.19C344.58,591.69,343.87,590.98,342.99,590.98z"
			/>
		<path class="st2" d="M349.21,523.54c-0.88,0-1.59,0.71-1.59,1.59v9.19h3.19v-9.19C350.8,524.25,350.09,523.54,349.21,523.54z"/>
		<path class="st2" d="M341.4,477.37c-0.88,0-1.59,0.71-1.59,1.59v9.19h3.19v-9.19C342.99,478.08,342.28,477.37,341.4,477.37z"/>
		<path class="st2" d="M344.58,477.37c-0.88,0-1.59,0.71-1.59,1.59v9.19h3.19v-9.19C346.18,478.08,345.46,477.37,344.58,477.37z"/>
		<path class="st2" d="M336.62,445.13c0-2.64,2.14-4.78,4.78-4.78c2.64,0,4.78,2.14,4.78,4.78"/>
		<polyline class="st2" points="356.4,524.38 354.65,513.13 354.65,445.13 		"/>
		<polyline class="st2" points="328.15,445.13 328.15,513.13 326.4,524.38 		"/>
		<polyline class="st2" points="322.9,513.13 326.4,524.38 326.4,625.88 		"/>
		<line class="st2" x1="322.9" y1="513.13" x2="319.4" y2="524.38"/>
		<line class="st2" x1="319.4" y1="524.38" x2="315.9" y2="513.13"/>
		<line class="st2" x1="315.9" y1="513.13" x2="312.4" y2="524.38"/>
		<line class="st2" x1="370.4" y1="524.38" x2="366.9" y2="513.13"/>
		<line class="st2" x1="366.9" y1="513.13" x2="363.4" y2="524.38"/>
		<line class="st2" x1="363.4" y1="524.38" x2="359.9" y2="513.13"/>
		<polyline class="st2" points="359.9,513.13 356.4,524.38 356.4,625.88 		"/>
		<rect x="336.62" y="488.15" class="st2" width="9.56" height="4.86"/>
		<line class="st2" x1="318.08" y1="625.88" x2="364.71" y2="625.88"/>
		<line class="st2" x1="303.52" y1="631.63" x2="379.27" y2="631.63"/>
		<line class="st2" x1="303.52" y1="635.13" x2="379.27" y2="635.13"/>
		<line class="st2" x1="303.52" y1="638.63" x2="379.27" y2="638.63"/>
		<path class="st2" d="M316.95,672.03c0,0,0-4.3,0-5.58s5.47-7.52,24.44-13.33"/>
		<line class="st2" x1="341.4" y1="657.21" x2="341.4" y2="668.24"/>
		<path class="st2" d="M365.84,672.03c0,0,0-4.3,0-5.58s-5.47-7.52-24.44-13.33"/>
		<line class="st2" x1="319.4" y1="413.38" x2="319.4" y2="401.76"/>
		<line class="st2" x1="316.52" y1="405.57" x2="322.27" y2="405.57"/>
		<line class="st2" x1="363.4" y1="413.38" x2="363.4" y2="401.76"/>
		<line class="st2" x1="360.52" y1="405.57" x2="366.27" y2="405.57"/>
		<line class="st2" x1="341.4" y1="398.46" x2="341.4" y2="384.84"/>
		<line class="st2" x1="338.52" y1="388.65" x2="344.27" y2="388.65"/>
		<line class="st2" x1="372.15" y1="478.3" x2="372.15" y2="507.96"/>
		<line class="st2" x1="372.15" y1="488.15" x2="500.5" y2="488.15"/>
		<line class="st2" x1="500.5" y1="492.38" x2="372.15" y2="492.38"/>
		
			<rect x="373.59" y="479.74" transform="matrix(0.7071 0.7071 -0.7071 0.7071 452.1379 -125.0961)" class="st2" width="6.96" height="6.96"/>
		
			<rect x="383.44" y="479.74" transform="matrix(0.7071 0.7071 -0.7071 0.7071 455.0164 -132.0612)" class="st2" width="6.96" height="6.96"/>
		
			<rect x="393.29" y="479.74" transform="matrix(0.7071 0.7071 -0.7071 0.7071 457.9011 -139.0254)" class="st2" width="6.96" height="6.96"/>
		
			<rect x="403.14" y="479.74" transform="matrix(0.7071 0.7071 -0.7071 0.7071 460.7858 -145.9897)" class="st2" width="6.96" height="6.96"/>
		
			<rect x="412.98" y="479.74" transform="matrix(0.7071 0.7071 -0.7071 0.7071 463.6705 -152.954)" class="st2" width="6.96" height="6.96"/>
		
			<rect x="422.83" y="479.74" transform="matrix(0.7071 0.7071 -0.7071 0.7071 466.5617 -159.9178)" class="st2" width="6.96" height="6.96"/>
		
			<rect x="432.68" y="479.74" transform="matrix(0.7071 0.7071 -0.7071 0.7071 469.4398 -166.8825)" class="st2" width="6.96" height="6.96"/>
		
			<rect x="442.53" y="479.74" transform="matrix(0.7071 0.7071 -0.7071 0.7071 472.3246 -173.8468)" class="st2" width="6.96" height="6.96"/>
		
			<rect x="452.38" y="479.74" transform="matrix(0.7071 0.7071 -0.7071 0.7071 475.2093 -180.811)" class="st2" width="6.96" height="6.96"/>
		
			<rect x="462.23" y="479.74" transform="matrix(0.7071 0.7071 -0.7071 0.7071 478.0939 -187.7753)" class="st2" width="6.96" height="6.96"/>
		
			<rect x="472.08" y="479.74" transform="matrix(0.7071 0.7071 -0.7071 0.7071 480.9786 -194.7395)" class="st2" width="6.96" height="6.96"/>
		
			<rect x="481.93" y="479.74" transform="matrix(0.7071 0.7071 -0.7071 0.7071 483.8633 -201.7038)" class="st2" width="6.96" height="6.96"/>
		
			<rect x="491.78" y="479.74" transform="matrix(0.7071 0.7071 -0.7071 0.7071 486.755 -208.6681)" class="st2" width="6.96" height="6.96"/>
		<line class="st2" x1="377.07" y1="503.38" x2="386.92" y2="503.38"/>
		<line class="st2" x1="392.31" y1="503.38" x2="402.15" y2="503.38"/>
		<line class="st2" x1="407.54" y1="503.38" x2="417.39" y2="503.38"/>
		<line class="st2" x1="422.77" y1="503.38" x2="432.62" y2="503.38"/>
		<line class="st2" x1="438.01" y1="503.38" x2="447.86" y2="503.38"/>
		<line class="st2" x1="453.24" y1="503.38" x2="463.09" y2="503.38"/>
		<line class="st2" x1="468.48" y1="503.38" x2="478.33" y2="503.38"/>
		<line class="st2" x1="483.71" y1="503.38" x2="493.56" y2="503.38"/>
		<line class="st2" x1="498.95" y1="503.38" x2="508.8" y2="503.38"/>
		<line class="st2" x1="500.5" y1="479.19" x2="500.5" y2="470.38"/>
		<line class="st2" x1="521.63" y1="479.19" x2="521.63" y2="470.38"/>
		<line class="st2" x1="511.06" y1="470.38" x2="511.06" y2="461.57"/>
		<line class="st2" x1="508.6" y1="463.98" x2="513.52" y2="463.98"/>
		<line class="st2" x1="466.12" y1="527.07" x2="370.4" y2="622.79"/>
		<polyline class="st2" points="470.48,531.43 458.93,534.26 451.87,554.32 431.82,561.37 428.29,584.95 404.72,588.47 
			405.74,616.6 377.61,615.58 379.83,625.88 		"/>
		<polyline class="st2" points="385.98,672.03 385.98,625.88 370.4,625.88 370.4,615.72 		"/>
		<line class="st2" x1="693.98" y1="466.46" x2="667.48" y2="466.46"/>
		<line class="st2" x1="693.98" y1="470.46" x2="667.48" y2="470.46"/>
		<line class="st2" x1="705.6" y1="466.46" x2="699.85" y2="466.46"/>
		<line class="st2" x1="711.48" y1="445.13" x2="693.98" y2="445.13"/>
		<line class="st2" x1="705.6" y1="470.46" x2="699.85" y2="470.46"/>
		<line class="st2" x1="661.6" y1="466.46" x2="655.85" y2="466.46"/>
		<line class="st2" x1="667.48" y1="445.13" x2="649.98" y2="445.13"/>
		<line class="st2" x1="661.6" y1="470.46" x2="655.85" y2="470.46"/>
		<line class="st2" x1="695.73" y1="534.32" x2="665.73" y2="534.32"/>
		<line class="st2" x1="695.73" y1="541.32" x2="665.73" y2="541.32"/>
		<line class="st2" x1="705.6" y1="534.32" x2="699.85" y2="534.32"/>
		<line class="st2" x1="705.6" y1="541.32" x2="699.85" y2="541.32"/>
		<line class="st2" x1="661.6" y1="534.32" x2="655.85" y2="534.32"/>
		<line class="st2" x1="661.6" y1="541.32" x2="655.85" y2="541.32"/>
		<line class="st2" x1="693.98" y1="500.63" x2="667.48" y2="500.63"/>
		<line class="st2" x1="693.98" y1="507.63" x2="667.48" y2="507.63"/>
		<line class="st2" x1="705.6" y1="500.63" x2="699.85" y2="500.63"/>
		<line class="st2" x1="705.6" y1="507.63" x2="699.85" y2="507.63"/>
		<line class="st2" x1="661.6" y1="500.63" x2="655.85" y2="500.63"/>
		<line class="st2" x1="661.6" y1="507.63" x2="655.85" y2="507.63"/>
		<line class="st2" x1="695.73" y1="570.88" x2="665.73" y2="570.88"/>
		<line class="st2" x1="695.73" y1="577.88" x2="665.73" y2="577.88"/>
		<line class="st2" x1="705.6" y1="570.88" x2="699.85" y2="570.88"/>
		<line class="st2" x1="705.6" y1="577.88" x2="699.85" y2="577.88"/>
		<line class="st2" x1="661.6" y1="570.88" x2="655.85" y2="570.88"/>
		<line class="st2" x1="661.6" y1="577.88" x2="655.85" y2="577.88"/>
		<path class="st2" d="M683.92,449.94c0.88,0,1.59,0.71,1.59,1.59v9.19h-3.19v-9.19C682.32,450.66,683.04,449.94,683.92,449.94z"/>
		<path class="st2" d="M680.73,449.94c0.88,0,1.59,0.71,1.59,1.59v9.19h-3.19v-9.19C679.14,450.66,679.85,449.94,680.73,449.94z"/>
		<path class="st2" d="M677.54,449.94c0.88,0,1.59,0.71,1.59,1.59v9.19h-3.19v-9.19C675.95,450.66,676.66,449.94,677.54,449.94z"/>
		<path class="st2" d="M683.92,477.37c0.88,0,1.59,0.71,1.59,1.59v9.19h-3.19v-9.19C682.32,478.08,683.04,477.37,683.92,477.37z"/>
		<path class="st2" d="M688.54,523.54c0.88,0,1.59,0.71,1.59,1.59v9.19h-3.19v-9.19C686.95,524.25,687.66,523.54,688.54,523.54z"/>
		<path class="st2" d="M689.82,560.1c0.88,0,1.59,0.71,1.59,1.59v9.19h-3.19v-9.19C688.23,560.81,688.94,560.1,689.82,560.1z"/>
		<path class="st2" d="M671.32,560.1c0.88,0,1.59,0.71,1.59,1.59v9.19h-3.19v-9.19C669.73,560.81,670.44,560.1,671.32,560.1z"/>
		<path class="st2" d="M680.73,523.54c0.88,0,1.59,0.71,1.59,1.59v9.19h-3.19v-9.19C679.14,524.25,679.85,523.54,680.73,523.54z"/>
		<path class="st2" d="M682.32,560.1c0.88,0,1.59,0.71,1.59,1.59v9.19h-3.19v-9.19C680.73,560.81,681.44,560.1,682.32,560.1z"/>
		<path class="st2" d="M679.14,560.1c0.88,0,1.59,0.71,1.59,1.59v9.19h-3.19v-9.19C677.54,560.81,678.25,560.1,679.14,560.1z"/>
		<path class="st2" d="M689.82,603.98c0.88,0,1.59,0.71,1.59,1.59v6.19h-3.19v-6.19C688.23,604.69,688.94,603.98,689.82,603.98z"/>
		<path class="st2" d="M671.32,603.98c0.88,0,1.59,0.71,1.59,1.59v6.19h-3.19v-6.19C669.73,604.69,670.44,603.98,671.32,603.98z"/>
		<path class="st2" d="M689.82,590.98c0.88,0,1.59,0.71,1.59,1.59v6.19h-3.19v-6.19C688.23,591.69,688.94,590.98,689.82,590.98z"/>
		<path class="st2" d="M671.32,590.98c0.88,0,1.59,0.71,1.59,1.59v6.19h-3.19v-6.19C669.73,591.69,670.44,590.98,671.32,590.98z"/>
		<path class="st2" d="M682.32,590.98c0.88,0,1.59,0.71,1.59,1.59v19.19h-3.19v-19.19C680.73,591.69,681.44,590.98,682.32,590.98z"
			/>
		<path class="st2" d="M679.14,590.98c0.88,0,1.59,0.71,1.59,1.59v19.19h-3.19v-19.19C677.54,591.69,678.25,590.98,679.14,590.98z"
			/>
		<path class="st2" d="M672.92,523.54c0.88,0,1.59,0.71,1.59,1.59v9.19h-3.19v-9.19C671.32,524.25,672.04,523.54,672.92,523.54z"/>
		<path class="st2" d="M680.73,477.37c0.88,0,1.59,0.71,1.59,1.59v9.19h-3.19v-9.19C679.14,478.08,679.85,477.37,680.73,477.37z"/>
		<path class="st2" d="M677.54,477.37c0.88,0,1.59,0.71,1.59,1.59v9.19h-3.19v-9.19C675.95,478.08,676.66,477.37,677.54,477.37z"/>
		<path class="st2" d="M685.51,445.13c0-2.64-2.14-4.78-4.78-4.78c-2.64,0-4.78,2.14-4.78,4.78"/>
		<polyline class="st2" points="665.73,524.38 667.48,513.13 667.48,445.13 		"/>
		<polyline class="st2" points="693.98,445.13 693.98,513.13 695.73,524.38 		"/>
		<polyline class="st2" points="699.23,513.13 695.73,524.38 695.73,625.88 		"/>
		<line class="st2" x1="699.23" y1="513.13" x2="702.73" y2="524.38"/>
		<line class="st2" x1="702.73" y1="524.38" x2="706.23" y2="513.13"/>
		<line class="st2" x1="706.23" y1="513.13" x2="709.73" y2="524.38"/>
		<line class="st2" x1="651.73" y1="524.38" x2="655.23" y2="513.13"/>
		<line class="st2" x1="655.23" y1="513.13" x2="658.73" y2="524.38"/>
		<line class="st2" x1="658.73" y1="524.38" x2="662.23" y2="513.13"/>
		<polyline class="st2" points="662.23,513.13 665.73,524.38 665.73,625.88 		"/>
		
			<rect x="675.95" y="488.15" transform="matrix(-1 -1.224647e-16 1.224647e-16 -1 1361.4578 981.154)" class="st2" width="9.56" height="4.86"/>
		<line class="st2" x1="704.04" y1="625.88" x2="657.42" y2="625.88"/>
		<line class="st2" x1="718.6" y1="631.63" x2="642.85" y2="631.63"/>
		<line class="st2" x1="718.6" y1="635.13" x2="642.85" y2="635.13"/>
		<line class="st2" x1="718.6" y1="638.63" x2="642.85" y2="638.63"/>
		<path class="st2" d="M705.17,672.03c0,0,0-4.3,0-5.58s-5.47-7.52-24.44-13.33"/>
		<line class="st2" x1="680.73" y1="657.21" x2="680.73" y2="668.24"/>
		<path class="st2" d="M656.29,672.03c0,0,0-4.3,0-5.58s5.47-7.52,24.44-13.33"/>
		<line class="st2" x1="702.73" y1="413.38" x2="702.73" y2="401.76"/>
		<line class="st2" x1="705.6" y1="405.57" x2="699.85" y2="405.57"/>
		<line class="st2" x1="658.73" y1="413.38" x2="658.73" y2="401.76"/>
		<line class="st2" x1="661.6" y1="405.57" x2="655.85" y2="405.57"/>
		<line class="st2" x1="680.73" y1="398.46" x2="680.73" y2="384.84"/>
		<line class="st2" x1="683.6" y1="388.65" x2="677.85" y2="388.65"/>
		<line class="st2" x1="649.98" y1="478.3" x2="649.98" y2="507.96"/>
		<line class="st2" x1="649.98" y1="488.15" x2="521.63" y2="488.15"/>
		<line class="st2" x1="521.63" y1="492.38" x2="649.98" y2="492.38"/>
		
			<rect x="641.57" y="479.74" transform="matrix(-0.7071 0.7071 -0.7071 -0.7071 1442.8657 368.7825)" class="st2" width="6.96" height="6.96"/>
		
			<rect x="631.72" y="479.74" transform="matrix(-0.7071 0.7071 -0.7071 -0.7071 1426.0536 375.7549)" class="st2" width="6.96" height="6.96"/>
		
			<rect x="621.87" y="479.74" transform="matrix(-0.7071 0.7071 -0.7071 -0.7071 1409.2394 382.7112)" class="st2" width="6.96" height="6.96"/>
		
			<rect x="612.03" y="479.74" transform="matrix(-0.7071 0.7071 -0.7071 -0.7071 1392.4271 389.6834)" class="st2" width="6.96" height="6.96"/>
		
			<rect x="602.18" y="479.74" transform="matrix(-0.7071 0.7071 -0.7071 -0.7071 1375.6139 396.6477)" class="st2" width="6.96" height="6.96"/>
		
			<rect x="592.33" y="479.74" transform="matrix(-0.7071 0.7071 -0.7071 -0.7071 1358.8008 403.6119)" class="st2" width="6.96" height="6.96"/>
		
			<rect x="582.48" y="479.74" transform="matrix(-0.7071 0.7071 -0.7071 -0.7071 1341.9873 410.5746)" class="st2" width="6.96" height="6.96"/>
		
			<rect x="572.63" y="479.74" transform="matrix(-0.7071 0.7071 -0.7071 -0.7071 1325.1741 417.5389)" class="st2" width="6.96" height="6.96"/>
		
			<rect x="562.78" y="479.74" transform="matrix(-0.7071 0.7071 -0.7071 -0.7071 1308.3611 424.5047)" class="st2" width="6.96" height="6.96"/>
		
			<rect x="552.93" y="479.74" transform="matrix(-0.7071 0.7071 -0.7071 -0.7071 1291.5477 431.469)" class="st2" width="6.96" height="6.96"/>
		
			<rect x="543.08" y="479.74" transform="matrix(-0.7071 0.7071 -0.7071 -0.7071 1274.7346 438.4332)" class="st2" width="6.96" height="6.96"/>
		
			<rect x="533.23" y="479.74" transform="matrix(-0.7071 0.7071 -0.7071 -0.7071 1257.9213 445.3975)" class="st2" width="6.96" height="6.96"/>
		
			<rect x="523.38" y="479.74" transform="matrix(-0.7071 0.7071 -0.7071 -0.7071 1241.1078 452.3545)" class="st2" width="6.96" height="6.96"/>
		<line class="st2" x1="649.98" y1="499.38" x2="372.15" y2="499.38"/>
		<line class="st2" x1="645.05" y1="503.38" x2="635.21" y2="503.38"/>
		<line class="st2" x1="629.82" y1="503.38" x2="619.97" y2="503.38"/>
		<line class="st2" x1="614.59" y1="503.38" x2="604.74" y2="503.38"/>
		<line class="st2" x1="599.35" y1="503.38" x2="589.5" y2="503.38"/>
		<line class="st2" x1="584.12" y1="503.38" x2="574.27" y2="503.38"/>
		<line class="st2" x1="568.88" y1="503.38" x2="559.03" y2="503.38"/>
		<line class="st2" x1="553.65" y1="503.38" x2="543.8" y2="503.38"/>
		<line class="st2" x1="538.41" y1="503.38" x2="528.56" y2="503.38"/>
		<line class="st2" x1="523.18" y1="503.38" x2="513.33" y2="503.38"/>
		<line class="st2" x1="556.01" y1="527.07" x2="651.73" y2="622.79"/>
		<polyline class="st2" points="551.65,531.43 563.2,534.26 570.25,554.32 590.3,561.37 593.83,584.95 617.41,588.47 616.39,616.6 
			644.52,615.58 642.3,625.88 		"/>
		<polyline class="st2" points="636.15,672.03 636.15,625.88 651.73,625.88 651.73,615.72 		"/>
	</g>
</g>
<g>
	<g>
		<path class="st1" d="M895.63,452.63V672.3h40h200h40V452.63c0-9.83-1.67-13.17-10.67-20.17c-5.55-4.32-6.33-16.67-6.33-16.67
			s8.67-1.33-3-10.83c-11.67,9.5-3,10.83-3,10.83s-0.78,12.35-6.33,16.67c-9,7-10.67,10.33-10.67,20.17v44.17l-13.33,0v13.33h-13.33
			V496.8h-13.33v13.33h-13.33V496.8h-13.33v13.33h-13.33V496.8h-13.33v13.33h-13.33V496.8h-13.33v13.33h-13.33V496.8h-13.33v13.33
			h-13.33V496.8h-13.33v13.33h-13.33V496.8h-13.33v-44.17c0-9.83-1.67-13.17-10.67-20.17c-5.55-4.32-6.33-16.67-6.33-16.67
			s8.67-1.33-3-10.83c-11.67,9.5-3,10.83-3,10.83s-0.78,12.35-6.33,16.67C897.29,439.46,895.63,442.8,895.63,452.63z"/>
	</g>
	<polyline class="st3" points="935.63,452.63 935.63,672.3 895.63,672.3 895.63,452.63 	"/>
	<path class="st3" d="M935.63,452.63c0-9.83-1.67-13.17-10.67-20.17c-5.55-4.32-6.33-16.67-6.33-16.67s8.67-1.33-3-10.83
		c-11.67,9.5-3,10.83-3,10.83s-0.78,12.35-6.33,16.67c-9,7-10.67,10.33-10.67,20.17"/>
	<line class="st2" x1="895.63" y1="452.63" x2="935.63" y2="452.63"/>
	<path class="st2" d="M910.25,458.55c1.03,0,1.87,0.84,1.87,1.87v7.76h-3.73v-7.76C908.38,459.39,909.22,458.55,910.25,458.55z"/>
	<path class="st2" d="M921,458.55c1.03,0,1.87,0.84,1.87,1.87v7.76h-3.73v-7.76C919.13,459.39,919.97,458.55,921,458.55z"/>
	<path class="st2" d="M910.25,481.68c1.03,0,1.87,0.84,1.87,1.87v7.76h-3.73v-7.76C908.38,482.51,909.22,481.68,910.25,481.68z"/>
	<path class="st2" d="M921,481.68c1.03,0,1.87,0.84,1.87,1.87v7.76h-3.73v-7.76C919.13,482.51,919.97,481.68,921,481.68z"/>
	<path class="st2" d="M915.63,564.68c1.03,0,1.87,0.84,1.87,1.87v7.76h-3.73v-7.76C913.76,565.51,914.6,564.68,915.63,564.68z"/>
	<path class="st2" d="M955.63,590.68c3.24,0,5.87,2.63,5.87,5.87v12.42h-11.75v-12.42C949.75,593.31,952.38,590.68,955.63,590.68z"
		/>
	<path class="st2" d="M1008.96,590.68c3.24,0,5.87,2.63,5.87,5.87v12.42h-11.75v-12.42
		C1003.09,593.31,1005.72,590.68,1008.96,590.68z"/>
	<path class="st2" d="M1008.96,623.84c3.24,0,5.87,2.63,5.87,5.87v12.42h-11.75v-12.42
		C1003.09,626.47,1005.72,623.84,1008.96,623.84z"/>
	<path class="st2" d="M1062.29,623.84c3.24,0,5.87,2.63,5.87,5.87v12.42h-11.75v-12.42
		C1056.42,626.47,1059.05,623.84,1062.29,623.84z"/>
	<path class="st2" d="M1115.63,623.84c3.24,0,5.87,2.63,5.87,5.87v12.42h-11.75v-12.42
		C1109.75,626.47,1112.38,623.84,1115.63,623.84z"/>
	<path class="st2" d="M1062.29,590.68c3.24,0,5.87,2.63,5.87,5.87v12.42h-11.75v-12.42
		C1056.42,593.31,1059.05,590.68,1062.29,590.68z"/>
	<path class="st2" d="M1062.29,538.44c2.12,0,3.83,1.72,3.83,3.83v18.1h-7.67v-18.1C1058.46,540.15,1060.18,538.44,1062.29,538.44z"
		/>
	<path class="st2" d="M945.29,548.11c1.47,0,2.67,1.19,2.67,2.67v9.59h-5.33v-9.59C942.63,549.31,943.82,548.11,945.29,548.11z"/>
	<path class="st2" d="M950.63,548.11c1.47,0,2.67,1.19,2.67,2.67v9.59h-5.33v-9.59C947.96,549.31,949.15,548.11,950.63,548.11z"/>
	<path class="st2" d="M960.63,548.11c1.47,0,2.67,1.19,2.67,2.67v9.59h-5.33v-9.59C957.96,549.31,959.15,548.11,960.63,548.11z"/>
	<path class="st2" d="M965.96,548.11c1.47,0,2.67,1.19,2.67,2.67v9.59h-5.33v-9.59C963.29,549.31,964.49,548.11,965.96,548.11z"/>
	<path class="st2" d="M1115.63,538.44c2.12,0,3.83,1.72,3.83,3.83v18.1h-7.67v-18.1C1111.79,540.15,1113.51,538.44,1115.63,538.44z"
		/>
	<path class="st2" d="M1115.63,590.68c3.24,0,5.87,2.63,5.87,5.87v12.42h-11.75v-12.42
		C1109.75,593.31,1112.38,590.68,1115.63,590.68z"/>
	<path class="st2" d="M955.63,623.84c5.9,0,10.69,4.79,10.69,10.69v37.76h-21.38v-37.76C944.93,628.63,949.72,623.84,955.63,623.84z
		"/>
	<line class="st2" x1="912.63" y1="415.8" x2="918.63" y2="415.8"/>
	<path class="st2" d="M904.34,452.63c0,0-0.44-7.19,4.06-13.83c4.74-7,6.37-13.75,6.37-23"/>
	<line class="st2" x1="915.63" y1="404.96" x2="915.63" y2="383.63"/>
	<polyline class="st3" points="935.63,496.8 948.96,496.8 948.96,510.13 962.29,510.13 962.29,496.8 975.63,496.8 975.63,510.13 
		988.96,510.13 988.96,496.8 1002.29,496.8 1002.29,510.13 1015.63,510.13 1015.63,496.8 1028.96,496.8 1028.96,510.13 
		1042.29,510.13 1042.29,496.8 1055.63,496.8 1055.63,510.13 1068.96,510.13 1068.96,496.8 1082.29,496.8 1082.29,510.13 
		1095.63,510.13 1095.63,496.8 1108.96,496.8 1108.96,510.13 1122.29,510.13 1122.29,496.8 1135.63,496.8 	"/>
	<polyline class="st2" points="904.34,452.63 904.34,456.29 900.69,456.29 900.69,459.94 904.34,459.94 904.34,463.6 900.69,463.6 
		900.69,467.26 904.34,467.26 904.34,470.91 900.69,470.91 900.69,474.57 904.34,474.57 904.34,478.23 900.69,478.23 900.69,481.88 
		904.34,481.88 904.34,485.54 900.69,485.54 900.69,489.2 904.34,489.2 904.34,492.85 900.69,492.85 900.69,496.51 904.34,496.51 
		904.34,500.17 900.69,500.17 900.69,503.82 904.34,503.82 904.34,507.48 	"/>
	<rect x="975.63" y="581.63" class="st2" width="13.33" height="90.67"/>
	<rect x="978.04" y="530.51" class="st2" width="8.51" height="51.12"/>
	<rect x="979.96" y="516.85" class="st2" width="4.67" height="13.67"/>
	<rect x="1031.37" y="530.51" class="st2" width="8.51" height="51.12"/>
	<rect x="1033.29" y="516.85" class="st2" width="4.67" height="13.67"/>
	<rect x="1084.7" y="530.51" class="st2" width="8.51" height="51.12"/>
	<rect x="1086.63" y="516.85" class="st2" width="4.67" height="13.67"/>
	<rect x="1028.96" y="581.63" class="st2" width="13.33" height="90.67"/>
	<rect x="1082.29" y="581.63" class="st2" width="13.33" height="90.67"/>
	<path class="st2" d="M926.91,452.63c0,0,0.44-7.19-4.06-13.83c-4.74-7-6.37-13.75-6.37-23"/>
	<polyline class="st2" points="926.91,452.63 926.91,456.29 930.57,456.29 930.57,459.94 926.91,459.94 926.91,463.6 930.57,463.6 
		930.57,467.26 926.91,467.26 926.91,470.91 930.57,470.91 930.57,474.57 926.91,474.57 926.91,478.23 930.57,478.23 930.57,481.88 
		926.91,481.88 926.91,485.54 930.57,485.54 930.57,489.2 926.91,489.2 926.91,492.85 930.57,492.85 930.57,496.51 926.91,496.51 
		926.91,500.17 930.57,500.17 930.57,503.82 926.91,503.82 926.91,507.48 	"/>
	<polyline class="st2" points="904.34,507.48 900.69,507.48 900.69,511.14 904.34,511.14 904.34,514.79 900.69,514.79 
		900.69,518.45 904.34,518.45 904.34,522.1 900.69,522.1 900.69,525.76 904.34,525.76 904.34,529.42 900.69,529.42 900.69,533.07 
		904.34,533.07 904.34,536.73 900.69,536.73 900.69,540.39 904.34,540.39 904.34,544.04 900.69,544.04 900.69,547.7 904.34,547.7 
		904.34,551.36 900.69,551.36 900.69,555.01 904.34,555.01 904.34,558.67 	"/>
	<polyline class="st2" points="926.91,507.48 930.57,507.48 930.57,511.14 926.91,511.14 926.91,514.79 930.57,514.79 
		930.57,518.45 926.91,518.45 926.91,522.1 930.57,522.1 930.57,525.76 926.91,525.76 926.91,529.42 930.57,529.42 930.57,533.07 
		926.91,533.07 926.91,536.73 930.57,536.73 930.57,540.39 926.91,540.39 926.91,544.04 930.57,544.04 930.57,547.7 926.91,547.7 
		926.91,551.36 930.57,551.36 930.57,555.01 926.91,555.01 926.91,558.67 	"/>
	<polyline class="st2" points="904.34,558.67 900.69,558.67 900.69,562.33 904.34,562.33 904.34,565.98 900.69,565.98 
		900.69,569.64 904.34,569.64 904.34,573.29 900.69,573.29 900.69,576.95 904.34,576.95 904.34,580.61 900.69,580.61 900.69,584.26 
		904.34,584.26 904.34,587.92 900.69,587.92 900.69,591.58 904.34,591.58 904.34,595.23 900.69,595.23 900.69,598.89 904.34,598.89 
		904.34,602.55 900.69,602.55 900.69,606.2 904.34,606.2 904.34,609.86 	"/>
	<polyline class="st2" points="926.91,558.67 930.57,558.67 930.57,562.33 926.91,562.33 926.91,565.98 930.57,565.98 
		930.57,569.64 926.91,569.64 926.91,573.29 930.57,573.29 930.57,576.95 926.91,576.95 926.91,580.61 930.57,580.61 930.57,584.26 
		926.91,584.26 926.91,587.92 930.57,587.92 930.57,591.58 926.91,591.58 926.91,595.23 930.57,595.23 930.57,598.89 926.91,598.89 
		926.91,602.55 930.57,602.55 930.57,606.2 926.91,606.2 926.91,609.86 	"/>
	<polyline class="st2" points="984.12,581.8 984.12,585.45 980.46,585.45 980.46,589.11 984.12,589.11 984.12,592.77 980.46,592.77 
		980.46,596.42 984.12,596.42 984.12,600.08 980.46,600.08 980.46,603.74 984.12,603.74 984.12,607.39 980.46,607.39 980.46,611.05 
		984.12,611.05 984.12,614.71 980.46,614.71 980.46,618.36 984.12,618.36 984.12,622.02 980.46,622.02 980.46,625.67 984.12,625.67 
		984.12,629.33 980.46,629.33 980.46,632.99 984.12,632.99 984.12,636.64 980.46,636.64 980.46,640.3 984.12,640.3 984.12,643.96 
		980.46,643.96 980.46,647.61 984.12,647.61 984.12,651.27 980.46,651.27 980.46,654.93 984.12,654.93 984.12,658.58 980.46,658.58 
		980.46,662.24 984.12,662.24 984.12,665.9 980.46,665.9 980.46,669.55 984.12,669.55 984.12,672.3 	"/>
	<polyline class="st2" points="1037.45,581.8 1037.45,585.45 1033.8,585.45 1033.8,589.11 1037.45,589.11 1037.45,592.77 
		1033.8,592.77 1033.8,596.42 1037.45,596.42 1037.45,600.08 1033.8,600.08 1033.8,603.74 1037.45,603.74 1037.45,607.39 
		1033.8,607.39 1033.8,611.05 1037.45,611.05 1037.45,614.71 1033.8,614.71 1033.8,618.36 1037.45,618.36 1037.45,622.02 
		1033.8,622.02 1033.8,625.67 1037.45,625.67 1037.45,629.33 1033.8,629.33 1033.8,632.99 1037.45,632.99 1037.45,636.64 
		1033.8,636.64 1033.8,640.3 1037.45,640.3 1037.45,643.96 1033.8,643.96 1033.8,647.61 1037.45,647.61 1037.45,651.27 
		1033.8,651.27 1033.8,654.93 1037.45,654.93 1037.45,658.58 1033.8,658.58 1033.8,662.24 1037.45,662.24 1037.45,665.9 
		1033.8,665.9 1033.8,669.55 1037.45,669.55 1037.45,672.3 	"/>
	<polyline class="st2" points="1090.79,581.8 1090.79,585.45 1087.13,585.45 1087.13,589.11 1090.79,589.11 1090.79,592.77 
		1087.13,592.77 1087.13,596.42 1090.79,596.42 1090.79,600.08 1087.13,600.08 1087.13,603.74 1090.79,603.74 1090.79,607.39 
		1087.13,607.39 1087.13,611.05 1090.79,611.05 1090.79,614.71 1087.13,614.71 1087.13,618.36 1090.79,618.36 1090.79,622.02 
		1087.13,622.02 1087.13,625.67 1090.79,625.67 1090.79,629.33 1087.13,629.33 1087.13,632.99 1090.79,632.99 1090.79,636.64 
		1087.13,636.64 1087.13,640.3 1090.79,640.3 1090.79,643.96 1087.13,643.96 1087.13,647.61 1090.79,647.61 1090.79,651.27 
		1087.13,651.27 1087.13,654.93 1090.79,654.93 1090.79,658.58 1087.13,658.58 1087.13,662.24 1090.79,662.24 1090.79,665.9 
		1087.13,665.9 1087.13,669.55 1090.79,669.55 1090.79,672.3 	"/>
	<polyline class="st3" points="1175.63,452.63 1175.63,672.3 1135.63,672.3 1135.63,452.63 	"/>
	<path class="st3" d="M1175.63,452.63c0-9.83-1.67-13.17-10.67-20.17c-5.55-4.32-6.33-16.67-6.33-16.67s8.67-1.33-3-10.83
		c-11.67,9.5-3,10.83-3,10.83s-0.78,12.35-6.33,16.67c-9,7-10.67,10.33-10.67,20.17"/>
	<line class="st2" x1="1135.63" y1="452.63" x2="1175.63" y2="452.63"/>
	<path class="st2" d="M1150.25,458.55c1.03,0,1.87,0.84,1.87,1.87v7.76h-3.73v-7.76C1148.38,459.39,1149.22,458.55,1150.25,458.55z"
		/>
	<path class="st2" d="M1161,458.55c1.03,0,1.87,0.84,1.87,1.87v7.76h-3.73v-7.76C1159.13,459.39,1159.97,458.55,1161,458.55z"/>
	<path class="st2" d="M1150.25,481.68c1.03,0,1.87,0.84,1.87,1.87v7.76h-3.73v-7.76C1148.38,482.51,1149.22,481.68,1150.25,481.68z"
		/>
	<path class="st2" d="M1161,481.68c1.03,0,1.87,0.84,1.87,1.87v7.76h-3.73v-7.76C1159.13,482.51,1159.97,481.68,1161,481.68z"/>
	<path class="st2" d="M1155.63,564.68c1.03,0,1.87,0.84,1.87,1.87v7.76h-3.73v-7.76C1153.76,565.51,1154.6,564.68,1155.63,564.68z"
		/>
	<line class="st2" x1="1152.63" y1="415.8" x2="1158.63" y2="415.8"/>
	<path class="st2" d="M1144.34,452.63c0,0-0.44-7.19,4.06-13.83c4.74-7,6.37-13.75,6.37-23"/>
	<line class="st2" x1="1155.63" y1="404.96" x2="1155.63" y2="383.63"/>
	<polyline class="st2" points="1144.34,452.63 1144.34,456.29 1140.69,456.29 1140.69,459.94 1144.34,459.94 1144.34,463.6 
		1140.69,463.6 1140.69,467.26 1144.34,467.26 1144.34,470.91 1140.69,470.91 1140.69,474.57 1144.34,474.57 1144.34,478.23 
		1140.69,478.23 1140.69,481.88 1144.34,481.88 1144.34,485.54 1140.69,485.54 1140.69,489.2 1144.34,489.2 1144.34,492.85 
		1140.69,492.85 1140.69,496.51 1144.34,496.51 1144.34,500.17 1140.69,500.17 1140.69,503.82 1144.34,503.82 1144.34,507.48 	"/>
	<path class="st2" d="M1166.91,452.63c0,0,0.44-7.19-4.06-13.83c-4.74-7-6.37-13.75-6.37-23"/>
	<polyline class="st2" points="1166.91,452.63 1166.91,456.29 1170.57,456.29 1170.57,459.94 1166.91,459.94 1166.91,463.6 
		1170.57,463.6 1170.57,467.26 1166.91,467.26 1166.91,470.91 1170.57,470.91 1170.57,474.57 1166.91,474.57 1166.91,478.23 
		1170.57,478.23 1170.57,481.88 1166.91,481.88 1166.91,485.54 1170.57,485.54 1170.57,489.2 1166.91,489.2 1166.91,492.85 
		1170.57,492.85 1170.57,496.51 1166.91,496.51 1166.91,500.17 1170.57,500.17 1170.57,503.82 1166.91,503.82 1166.91,507.48 	"/>
	<polyline class="st2" points="1144.34,507.48 1140.69,507.48 1140.69,511.14 1144.34,511.14 1144.34,514.79 1140.69,514.79 
		1140.69,518.45 1144.34,518.45 1144.34,522.1 1140.69,522.1 1140.69,525.76 1144.34,525.76 1144.34,529.42 1140.69,529.42 
		1140.69,533.07 1144.34,533.07 1144.34,536.73 1140.69,536.73 1140.69,540.39 1144.34,540.39 1144.34,544.04 1140.69,544.04 
		1140.69,547.7 1144.34,547.7 1144.34,551.36 1140.69,551.36 1140.69,555.01 1144.34,555.01 1144.34,558.67 	"/>
	<polyline class="st2" points="1166.91,507.48 1170.57,507.48 1170.57,511.14 1166.91,511.14 1166.91,514.79 1170.57,514.79 
		1170.57,518.45 1166.91,518.45 1166.91,522.1 1170.57,522.1 1170.57,525.76 1166.91,525.76 1166.91,529.42 1170.57,529.42 
		1170.57,533.07 1166.91,533.07 1166.91,536.73 1170.57,536.73 1170.57,540.39 1166.91,540.39 1166.91,544.04 1170.57,544.04 
		1170.57,547.7 1166.91,547.7 1166.91,551.36 1170.57,551.36 1170.57,555.01 1166.91,555.01 1166.91,558.67 	"/>
	<polyline class="st2" points="1144.34,558.67 1140.69,558.67 1140.69,562.33 1144.34,562.33 1144.34,565.98 1140.69,565.98 
		1140.69,569.64 1144.34,569.64 1144.34,573.29 1140.69,573.29 1140.69,576.95 1144.34,576.95 1144.34,580.61 1140.69,580.61 
		1140.69,584.26 1144.34,584.26 1144.34,587.92 1140.69,587.92 1140.69,591.58 1144.34,591.58 1144.34,595.23 1140.69,595.23 
		1140.69,598.89 1144.34,598.89 1144.34,602.55 1140.69,602.55 1140.69,606.2 1144.34,606.2 1144.34,609.86 	"/>
	<polyline class="st2" points="1166.91,558.67 1170.57,558.67 1170.57,562.33 1166.91,562.33 1166.91,565.98 1170.57,565.98 
		1170.57,569.64 1166.91,569.64 1166.91,573.29 1170.57,573.29 1170.57,576.95 1166.91,576.95 1166.91,580.61 1170.57,580.61 
		1170.57,584.26 1166.91,584.26 1166.91,587.92 1170.57,587.92 1170.57,591.58 1166.91,591.58 1166.91,595.23 1170.57,595.23 
		1170.57,598.89 1166.91,598.89 1166.91,602.55 1170.57,602.55 1170.57,606.2 1166.91,606.2 1166.91,609.86 	"/>
	<polyline class="st2" points="904.34,609.86 900.69,609.86 900.69,613.52 904.34,613.52 904.34,617.17 900.69,617.17 
		900.69,620.83 904.34,620.83 904.34,624.49 900.69,624.49 900.69,628.14 904.34,628.14 904.34,631.8 900.69,631.8 900.69,635.46 
		904.34,635.46 904.34,639.11 900.69,639.11 900.69,642.77 904.34,642.77 904.34,646.42 900.69,646.42 900.69,650.08 904.34,650.08 
		904.34,653.74 900.69,653.74 900.69,657.39 904.34,657.39 904.34,661.05 	"/>
	<polyline class="st2" points="926.91,609.86 930.57,609.86 930.57,613.52 926.91,613.52 926.91,617.17 930.57,617.17 
		930.57,620.83 926.91,620.83 926.91,624.49 930.57,624.49 930.57,628.14 926.91,628.14 926.91,631.8 930.57,631.8 930.57,635.46 
		926.91,635.46 926.91,639.11 930.57,639.11 930.57,642.77 926.91,642.77 926.91,646.42 930.57,646.42 930.57,650.08 926.91,650.08 
		926.91,653.74 930.57,653.74 930.57,657.39 926.91,657.39 926.91,661.05 	"/>
	<polyline class="st2" points="904.34,661.05 900.69,661.05 900.69,664.71 904.34,664.71 904.34,668.36 900.69,668.36 
		900.69,672.02 	"/>
	<polyline class="st2" points="926.91,661.05 930.57,661.05 930.57,664.71 926.91,664.71 926.91,668.36 930.57,668.36 
		930.57,672.02 	"/>
	<polyline class="st2" points="1144.34,609.86 1140.69,609.86 1140.69,613.52 1144.34,613.52 1144.34,617.17 1140.69,617.17 
		1140.69,620.83 1144.34,620.83 1144.34,624.49 1140.69,624.49 1140.69,628.14 1144.34,628.14 1144.34,631.8 1140.69,631.8 
		1140.69,635.46 1144.34,635.46 1144.34,639.11 1140.69,639.11 1140.69,642.77 1144.34,642.77 1144.34,646.42 1140.69,646.42 
		1140.69,650.08 1144.34,650.08 1144.34,653.74 1140.69,653.74 1140.69,657.39 1144.34,657.39 1144.34,661.05 	"/>
	<polyline class="st2" points="1166.91,609.86 1170.57,609.86 1170.57,613.52 1166.91,613.52 1166.91,617.17 1170.57,617.17 
		1170.57,620.83 1166.91,620.83 1166.91,624.49 1170.57,624.49 1170.57,628.14 1166.91,628.14 1166.91,631.8 1170.57,631.8 
		1170.57,635.46 1166.91,635.46 1166.91,639.11 1170.57,639.11 1170.57,642.77 1166.91,642.77 1166.91,646.42 1170.57,646.42 
		1170.57,650.08 1166.91,650.08 1166.91,653.74 1170.57,653.74 1170.57,657.39 1166.91,657.39 1166.91,661.05 	"/>
	<polyline class="st2" points="1144.34,661.05 1140.69,661.05 1140.69,664.71 1144.34,664.71 1144.34,668.36 1140.69,668.36 
		1140.69,672.02 	"/>
	<polyline class="st2" points="1166.91,661.05 1170.57,661.05 1170.57,664.71 1166.91,664.71 1166.91,668.36 1170.57,668.36 
		1170.57,672.02 	"/>
	<line class="st3" x1="935.63" y1="672.3" x2="1135.63" y2="672.3"/>
	<path class="st2" d="M935.63,594.26c0-11.05,8.95-20,20-20c11.05,0,20,8.95,20,20"/>
	<path class="st2" d="M988.96,594.26c0-11.05,8.95-20,20-20s20,8.95,20,20"/>
	<path class="st2" d="M1042.29,594.26c0-11.05,8.95-20,20-20c11.05,0,20,8.95,20,20"/>
	<path class="st2" d="M1095.63,594.26c0-11.05,8.95-20,20-20c11.05,0,20,8.95,20,20"/>
	<line class="st2" x1="944.79" y1="615.3" x2="966.46" y2="615.3"/>
	<line class="st2" x1="998.13" y1="615.3" x2="1019.79" y2="615.3"/>
	<line class="st2" x1="1051.46" y1="615.3" x2="1073.13" y2="615.3"/>
	<line class="st2" x1="1104.79" y1="615.3" x2="1126.46" y2="615.3"/>
	<path class="st2" d="M942.63,550.78c0-2.95,2.39-5.33,5.33-5.33c2.95,0,5.33,2.39,5.33,5.33"/>
	<path class="st2" d="M957.96,550.78c0-2.95,2.39-5.33,5.33-5.33s5.33,2.39,5.33,5.33"/>
	<path class="st2" d="M998.63,548.11c1.47,0,2.67,1.19,2.67,2.67v9.59h-5.33v-9.59C995.96,549.31,997.15,548.11,998.63,548.11z"/>
	<path class="st2" d="M1003.96,548.11c1.47,0,2.67,1.19,2.67,2.67v9.59h-5.33v-9.59C1001.29,549.31,1002.49,548.11,1003.96,548.11z"
		/>
	<path class="st2" d="M1013.96,548.11c1.47,0,2.67,1.19,2.67,2.67v9.59h-5.33v-9.59C1011.29,549.31,1012.49,548.11,1013.96,548.11z"
		/>
	<path class="st2" d="M1019.29,548.11c1.47,0,2.67,1.19,2.67,2.67v9.59h-5.33v-9.59C1016.63,549.31,1017.82,548.11,1019.29,548.11z"
		/>
	<path class="st2" d="M995.96,550.78c0-2.95,2.39-5.33,5.33-5.33s5.33,2.39,5.33,5.33"/>
	<path class="st2" d="M1011.29,550.78c0-2.95,2.39-5.33,5.33-5.33s5.33,2.39,5.33,5.33"/>
	<line class="st2" x1="979.96" y1="532.63" x2="984.63" y2="532.63"/>
	<line class="st2" x1="1033.29" y1="532.63" x2="1037.96" y2="532.63"/>
	<line class="st2" x1="1086.63" y1="532.63" x2="1091.29" y2="532.63"/>
</g>
<g>
	<g>
		<path class="st1" d="M1627.84,510.04l4.85-2.94l2.94-16.45c0,0-0.35-2.77-3.9-5.89c-3.83-3.36-3.9-7.27-3.9-7.27
			s-0.06,3.91-3.9,7.27c-3.55,3.12-3.9,5.89-3.9,5.89l2.94,16.45L1627.84,510.04z"/>
	</g>
	<g>
		<path class="st1" d="M1655.42,510.04l4.85-2.94l2.94-16.45c0,0-0.35-2.77-3.9-5.89c-3.83-3.36-3.9-7.27-3.9-7.27
			s-0.06,3.91-3.9,7.27c-3.55,3.12-3.9,5.89-3.9,5.89l2.94,16.45L1655.42,510.04z"/>
	</g>
	<g>
		<polygon class="st1" points="1641.57,672.3 1650.88,672.3 1645.08,627.36 1641.57,627.36 1638.06,627.36 1632.26,672.3 		"/>
	</g>
	<path class="st3" d="M1627.84,477.48c0,0-0.06,3.91-3.9,7.27c-3.55,3.12-3.9,5.89-3.9,5.89l2.94,16.45l4.85,2.94"/>
	<line class="st3" x1="1623.43" y1="510.04" x2="1641.69" y2="510.04"/>
	<path class="st3" d="M1627.84,477.48c0,0,0.06,3.91,3.9,7.27c3.55,3.12,3.9,5.89,3.9,5.89l-2.94,16.45l-4.85,2.94"/>
	<path class="st3" d="M1655.42,477.48c0,0,0.06,3.91,3.9,7.27c3.55,3.12,3.9,5.89,3.9,5.89l-2.94,16.45l-4.85,2.94"/>
	<line class="st3" x1="1659.84" y1="510.04" x2="1641.57" y2="510.04"/>
	<path class="st3" d="M1655.42,477.48c0,0-0.06,3.91-3.9,7.27c-3.55,3.12-3.9,5.89-3.9,5.89l2.94,16.45l4.85,2.94"/>
	<line class="st3" x1="1641.57" y1="500.51" x2="1641.57" y2="627.36"/>
	<polyline class="st3" points="1641.57,627.36 1638.06,627.36 1632.26,672.3 1641.57,672.3 	"/>
	<line class="st3" x1="1639.02" y1="573.42" x2="1644.12" y2="573.42"/>
	<line class="st3" x1="1639.02" y1="577.84" x2="1644.12" y2="577.84"/>
	<line class="st3" x1="1639.02" y1="582.25" x2="1644.12" y2="582.25"/>
	<polyline class="st3" points="1641.57,627.36 1645.08,627.36 1650.88,672.3 1641.57,672.3 	"/>
	<line class="st2" x1="1633.23" y1="664.77" x2="1649.96" y2="664.77"/>
	<line class="st2" x1="1640.08" y1="644.16" x2="1638.95" y2="660.78"/>
	<line class="st2" x1="1643.12" y1="644.16" x2="1644.24" y2="660.78"/>
	<line class="st2" x1="1636.5" y1="639.49" x2="1646.64" y2="639.49"/>
	<line class="st2" x1="1620.05" y1="490.64" x2="1635.63" y2="490.64"/>
	<line class="st2" x1="1647.63" y1="490.64" x2="1663.22" y2="490.64"/>
	<line class="st2" x1="1624.9" y1="490.64" x2="1627.84" y2="510.04"/>
	<line class="st2" x1="1630.79" y1="490.64" x2="1627.84" y2="510.04"/>
	<line class="st2" x1="1652.48" y1="490.64" x2="1655.42" y2="510.04"/>
	<line class="st2" x1="1658.37" y1="490.64" x2="1655.42" y2="510.04"/>
	<path class="st2" d="M1624.81,515.49c0.61-1.99,2.73-3.9,6.93-3.9s9.83,5.2,9.83,13.16"/>
	<path class="st2" d="M1658.33,515.49c-0.61-1.99-2.73-3.9-6.93-3.9c-4.2,0-9.83,5.2-9.83,13.16"/>
</g>
<g>
	<g>
		<path class="st1" d="M739.23,510.04l4.85-2.94l2.94-16.45c0,0-0.35-2.77-3.9-5.89c-3.83-3.36-3.9-7.27-3.9-7.27
			s-0.06,3.91-3.9,7.27c-3.55,3.12-3.9,5.89-3.9,5.89l2.94,16.45L739.23,510.04z"/>
	</g>
	<g>
		<path class="st1" d="M766.81,510.04l4.85-2.94l2.94-16.45c0,0-0.35-2.77-3.9-5.89c-3.83-3.36-3.9-7.27-3.9-7.27
			s-0.06,3.91-3.9,7.27c-3.55,3.12-3.9,5.89-3.9,5.89l2.94,16.45L766.81,510.04z"/>
	</g>
	<g>
		<polygon class="st1" points="752.95,672.3 762.27,672.3 756.46,627.36 752.95,627.36 749.45,627.36 743.64,672.3 		"/>
	</g>
	<path class="st3" d="M739.23,477.48c0,0-0.06,3.91-3.9,7.27c-3.55,3.12-3.9,5.89-3.9,5.89l2.94,16.45l4.85,2.94"/>
	<line class="st3" x1="734.81" y1="510.04" x2="753.08" y2="510.04"/>
	<path class="st3" d="M739.23,477.48c0,0,0.06,3.91,3.9,7.27c3.55,3.12,3.9,5.89,3.9,5.89l-2.94,16.45l-4.85,2.94"/>
	<path class="st3" d="M766.81,477.48c0,0,0.06,3.91,3.9,7.27c3.55,3.12,3.9,5.89,3.9,5.89l-2.94,16.45l-4.85,2.94"/>
	<line class="st3" x1="771.22" y1="510.04" x2="752.95" y2="510.04"/>
	<path class="st3" d="M766.81,477.48c0,0-0.06,3.91-3.9,7.27c-3.55,3.12-3.9,5.89-3.9,5.89l2.94,16.45l4.85,2.94"/>
	<line class="st3" x1="752.95" y1="500.51" x2="752.95" y2="627.36"/>
	<polyline class="st3" points="752.95,627.36 749.45,627.36 743.64,672.3 752.95,672.3 	"/>
	<line class="st3" x1="750.4" y1="573.42" x2="755.5" y2="573.42"/>
	<line class="st3" x1="750.4" y1="577.84" x2="755.5" y2="577.84"/>
	<line class="st3" x1="750.4" y1="582.25" x2="755.5" y2="582.25"/>
	<polyline class="st3" points="752.95,627.36 756.46,627.36 762.27,672.3 752.95,672.3 	"/>
	<line class="st2" x1="744.61" y1="664.77" x2="761.35" y2="664.77"/>
	<line class="st2" x1="751.46" y1="644.16" x2="750.33" y2="660.78"/>
	<line class="st2" x1="754.5" y1="644.16" x2="755.63" y2="660.78"/>
	<line class="st2" x1="747.88" y1="639.49" x2="758.03" y2="639.49"/>
	<line class="st2" x1="731.43" y1="490.64" x2="747.02" y2="490.64"/>
	<line class="st2" x1="759.02" y1="490.64" x2="774.6" y2="490.64"/>
	<line class="st2" x1="736.28" y1="490.64" x2="739.23" y2="510.04"/>
	<line class="st2" x1="742.17" y1="490.64" x2="739.23" y2="510.04"/>
	<line class="st2" x1="763.86" y1="490.64" x2="766.81" y2="510.04"/>
	<line class="st2" x1="769.75" y1="490.64" x2="766.81" y2="510.04"/>
	<path class="st2" d="M736.2,515.49c0.61-1.99,2.73-3.9,6.93-3.9s9.83,5.2,9.83,13.16"/>
	<path class="st2" d="M769.71,515.49c-0.61-1.99-2.73-3.9-6.93-3.9c-4.2,0-9.83,5.2-9.83,13.16"/>
</g>
<g>
	<g>
		<path class="st1" d="M1669.3,559.62c34.31,95.9-0.36,96.01,0,95.9h-0.01C1669.65,655.63,1634.98,655.52,1669.3,559.62"/>
	</g>
	<line class="st2" x1="1669.3" y1="672.3" x2="1669.3" y2="611.16"/>
	<path class="st3" d="M1669.29,655.52c0.36,0.11-34.31,0,0-95.9"/>
	<path class="st3" d="M1669.3,655.52c-0.36,0.11,34.31,0,0-95.9"/>
</g>
<g>
	<g>
		<path class="st1" d="M302.7,560.31c34.1,95.31-0.35,95.42,0,95.31h-0.01C303.05,655.73,268.59,655.62,302.7,560.31"/>
	</g>
	<line class="st2" x1="302.7" y1="672.3" x2="302.7" y2="611.53"/>
	<path class="st3" d="M302.69,655.62c0.35,0.11-34.1,0,0-95.31"/>
	<path class="st3" d="M302.7,655.62c-0.35,0.11,34.1,0,0-95.31"/>
</g>
<g>
	<g>
		<path class="st1" d="M1188.61,649.37c0,0,39.09-27.15,16.29-38.01c9.77-27.15-4.57-51.04-16.29-51.04
			c-11.72,0-26.06,23.89-16.29,51.04C1149.52,622.21,1188.61,649.37,1188.61,649.37z"/>
	</g>
	<g>
		<path class="st3" d="M1188.61,649.37c0,0-39.09-27.15-16.29-38.01c-9.77-27.15,4.57-51.04,16.29-51.04"/>
		<path class="st3" d="M1188.61,649.37c0,0,39.09-27.15,16.29-38.01c9.77-27.15-4.57-51.04-16.29-51.04"/>
		<line class="st2" x1="1188.61" y1="578.57" x2="1188.61" y2="673.22"/>
		<line class="st2" x1="1200.33" y1="623.04" x2="1188.61" y2="634.83"/>
		<line class="st2" x1="1176.9" y1="623.04" x2="1188.61" y2="634.83"/>
	</g>
</g>
<g>
	<g>
		<path class="st1" d="M888.14,655.97c0,0,28.27-19.63,11.78-27.49c7.07-19.63-3.31-36.91-11.78-36.91
			c-8.47,0-18.85,17.28-11.78,36.91C859.87,636.34,888.14,655.97,888.14,655.97z"/>
	</g>
	<g>
		<path class="st3" d="M888.14,655.97c0,0-28.27-19.63-11.78-27.49c-7.07-19.63,3.31-36.91,11.78-36.91"/>
		<path class="st3" d="M888.14,655.97c0,0,28.27-19.63,11.78-27.49c7.07-19.63-3.31-36.91-11.78-36.91"/>
		<line class="st2" x1="888.14" y1="604.78" x2="888.14" y2="673.22"/>
		<line class="st2" x1="896.61" y1="636.93" x2="888.14" y2="645.46"/>
		<line class="st2" x1="879.66" y1="636.93" x2="888.14" y2="645.46"/>
	</g>
</g>
<g>
	<g>
		<path class="st1" d="M132.45,647.44c0,0,42.24-29.34,17.6-41.07c10.56-29.34-4.94-55.15-17.6-55.15
			c-12.66,0-28.16,25.82-17.6,55.15C90.21,618.1,132.45,647.44,132.45,647.44z"/>
	</g>
	<g>
		<path class="st3" d="M132.45,647.44c0,0-42.24-29.34-17.6-41.07c-10.56-29.34,4.94-55.15,17.6-55.15"/>
		<path class="st3" d="M132.45,647.44c0,0,42.24-29.34,17.6-41.07c10.56-29.34-4.94-55.15-17.6-55.15"/>
		<line class="st2" x1="132.45" y1="570.94" x2="132.45" y2="673.22"/>
		<line class="st2" x1="145.11" y1="618.99" x2="132.45" y2="631.73"/>
		<line class="st2" x1="119.79" y1="618.99" x2="132.45" y2="631.73"/>
	</g>
</g>
<g>
	<polygon class="st1" points="176.8,587.92 171.96,587.92 166.7,672.3 174.38,672.3 182.06,672.3 	"/>
	<circle class="st1" cx="174.38" cy="484.04" r="2.88"/>
	<circle class="st1" cx="174.38" cy="583.84" r="4.75"/>
	<g>
		<polyline class="st1" points="180.38,522.67 186.38,498.17 177.04,490.92 174.38,490.92 171.71,490.92 162.38,498.17 
			168.38,522.67 		"/>
	</g>
	<path class="st3" d="M166.71,530.93c-0.21-3.4,2.48-3.88,4.17-3.25c3.37,1.25,3.5,6.75,3.5,6.75v44.67"/>
	<polyline class="st3" points="174.38,490.92 171.71,490.92 162.38,498.17 168.38,522.67 174.38,522.67 	"/>
	<polyline class="st3" points="174.38,490.92 177.04,490.92 186.38,498.17 180.38,522.67 174.38,522.67 	"/>
	<path class="st3" d="M182.04,530.93c0.21-3.4-2.48-3.88-4.17-3.25c-3.37,1.25-3.5,6.75-3.5,6.75v44.67"/>
	<circle class="st3" cx="174.38" cy="484.04" r="2.88"/>
	<line class="st3" x1="174.38" y1="481.17" x2="174.38" y2="476.3"/>
	<circle class="st3" cx="174.38" cy="583.84" r="4.75"/>
	<polyline class="st3" points="171.96,587.92 166.7,672.3 174.38,672.3 	"/>
	<polyline class="st3" points="176.8,587.92 182.06,672.3 174.38,672.3 	"/>
	<line class="st2" x1="162.38" y1="498.17" x2="186.38" y2="498.17"/>
	<polyline class="st2" points="171.49,522.67 169.61,498.17 174.38,490.92 	"/>
	<polyline class="st2" points="177.27,522.67 179.14,498.17 174.38,490.92 	"/>
	<line class="st2" x1="179.5" y1="631.34" x2="169.25" y2="631.34"/>
	<line class="st2" x1="169.12" y1="633.43" x2="179.66" y2="633.43"/>
	<line class="st2" x1="174.38" y1="627.17" x2="174.38" y2="609.01"/>
	<line class="st2" x1="166.98" y1="667.76" x2="181.77" y2="667.76"/>
	<line class="st2" x1="172.47" y1="639.01" x2="171.3" y2="663.26"/>
	<line class="st2" x1="176.31" y1="639.01" x2="177.47" y2="663.26"/>
</g>
<g>
	<g>
		<line class="st3" x1="998.13" y1="378" x2="998.13" y2="388.6"/>
		<line class="st3" x1="1003.42" y1="383.3" x2="992.83" y2="383.3"/>
	</g>
	<g>
		<line class="st3" x1="1093.58" y1="211.02" x2="1093.58" y2="219.81"/>
		<line class="st3" x1="1097.97" y1="215.41" x2="1089.18" y2="215.41"/>
	</g>
	<g>
		<line class="st3" x1="1593.65" y1="427.08" x2="1593.65" y2="437.68"/>
		<line class="st3" x1="1598.95" y1="432.38" x2="1588.36" y2="432.38"/>
	</g>
	<g>
		<line class="st3" x1="418.26" y1="400.92" x2="418.26" y2="411.52"/>
		<line class="st3" x1="423.55" y1="406.22" x2="412.96" y2="406.22"/>
	</g>
	<g>
		<line class="st3" x1="489.61" y1="589.08" x2="489.61" y2="604.89"/>
		<line class="st3" x1="497.51" y1="596.99" x2="481.71" y2="596.99"/>
	</g>
	<g>
		<line class="st3" x1="1095.63" y1="425.06" x2="1095.63" y2="440.86"/>
		<line class="st3" x1="1103.53" y1="432.96" x2="1087.73" y2="432.96"/>
	</g>
</g>
<line class="st3" x1="103.37" y1="672.3" x2="1688.24" y2="672.3"/>
</svg>
