<svg width="48" height="49" viewBox="0 0 48 49" fill="none" xmlns="http://www.w3.org/2000/svg">
<circle cx="24" cy="24.3955" r="24" fill="#ADD134"/>
<path fill-rule="evenodd" clip-rule="evenodd" d="M24 37.3955C16.8203 37.3955 11 31.5752 11 24.3955C11 17.2158 16.8203 11.3955 24 11.3955C31.1797 11.3955 37 17.2158 37 24.3955C37 31.5752 31.1797 37.3955 24 37.3955Z" fill="white"/>
<path fill-rule="evenodd" clip-rule="evenodd" d="M24 34.1455C29.3848 34.1455 33.75 29.7803 33.75 24.3955C33.75 19.0107 29.3848 14.6455 24 14.6455C18.6152 14.6455 14.25 19.0107 14.25 24.3955C14.25 29.7803 18.6152 34.1455 24 34.1455Z" fill="#ADD134"/>
<path fill-rule="evenodd" clip-rule="evenodd" d="M29.3885 24.48C29.96 24.6466 30.3945 25.1124 30.5213 25.6941C30.648 26.2757 30.4465 26.8801 29.9962 27.2693C29.5458 27.6586 28.9187 27.7705 28.3615 27.561L23.4865 25.936C23.0017 25.7742 22.6213 25.3937 22.4595 24.909L20.8345 20.034C20.625 19.4768 20.7368 18.8496 21.1261 18.3993C21.5154 17.9489 22.1198 17.7475 22.7014 17.8742C23.283 18.0009 23.7488 18.4355 23.9155 19.007L25.2837 23.1117L29.3885 24.4767V24.48Z" fill="white"/>
</svg>
