<svg width="6" height="6" viewBox="0 0 6 6" fill="none" xmlns="http://www.w3.org/2000/svg">
<path fill-rule="evenodd" clip-rule="evenodd" d="M4.19783 1.13684L4.62931 1.04846C4.81328 1.01081 5.00069 1.09515 5.09452 1.2578L5.32101 1.65002C5.41483 1.8126 5.3941 2.01696 5.26955 2.15739L4.97763 2.48652C5.02858 2.76488 5.02858 3.05018 4.97763 3.32854L5.26955 3.65767C5.3941 3.7981 5.41483 4.00246 5.32101 4.16504L5.09423 4.55755C5.00039 4.72021 4.81299 4.80454 4.62902 4.7669L4.19783 4.67851C3.98254 4.86215 3.73552 5.00493 3.46892 5.09981L3.32994 5.51675C3.27064 5.69477 3.10413 5.81492 2.91649 5.81506H2.46349C2.27575 5.81504 2.10908 5.69488 2.04975 5.51675L1.91048 5.09981C1.64386 5.00484 1.39683 4.86197 1.18156 4.67822L0.750086 4.76661C0.56612 4.80425 0.378713 4.71992 0.284881 4.55726L0.0583841 4.16504C-0.0354276 4.00246 -0.0146986 3.7981 0.109847 3.65767L0.401763 3.32854C0.350817 3.05018 0.350817 2.76488 0.401763 2.48652L0.109847 2.15739C-0.0146986 2.01696 -0.0354276 1.8126 0.0583841 1.65002L0.285171 1.25751C0.379004 1.09485 0.566411 1.01052 0.750376 1.04816L1.18156 1.13655C1.39686 0.952908 1.64388 0.810131 1.91048 0.715252L2.04946 0.298313C2.10876 0.120287 2.27527 0.000142472 2.46291 0H2.9159C3.10365 1.73712e-05 3.27032 0.120186 3.32965 0.298313L3.46863 0.715252C3.73525 0.810219 3.98227 0.953095 4.19754 1.13684H4.19783ZM3.30992 0.968226C3.26564 0.954181 3.23074 0.919821 3.21601 0.875767L3.05435 0.390209C3.03455 0.330766 2.97889 0.290694 2.91624 0.290772H2.46325C2.40059 0.290694 2.34494 0.330766 2.32514 0.390209L2.16348 0.875767C2.14882 0.919932 2.11391 0.954412 2.06957 0.968517C1.79197 1.05741 1.53673 1.20496 1.32117 1.40116C1.28682 1.43242 1.2396 1.44538 1.19411 1.43605L0.69227 1.33312C0.630885 1.32048 0.56831 1.34861 0.537008 1.4029L0.310511 1.79542C0.279272 1.84969 0.286301 1.91788 0.327956 1.96464L0.667556 2.34785C0.698192 2.38252 0.7105 2.42969 0.700701 2.47491C0.638943 2.76003 0.638943 3.05507 0.700701 3.34019C0.7105 3.3854 0.698192 3.43258 0.667556 3.46725L0.327665 3.85046C0.286105 3.89729 0.279193 3.96546 0.310511 4.01968L0.537298 4.4122C0.568563 4.46637 0.63098 4.49448 0.69227 4.48198L1.1944 4.37905C1.23989 4.36972 1.28711 4.38268 1.32146 4.41394C1.53702 4.61014 1.79226 4.75769 2.06986 4.84658C2.1142 4.86069 2.14911 4.89517 2.16377 4.93933L2.32543 5.42489C2.34523 5.48433 2.40088 5.5244 2.46354 5.52433H2.91653C2.97918 5.5244 3.03484 5.48433 3.05464 5.42489L3.2163 4.93933C3.23095 4.89517 3.26587 4.86069 3.31021 4.84658C3.58781 4.75769 3.84304 4.61014 4.05861 4.41394C4.09296 4.38268 4.14017 4.36972 4.18567 4.37905L4.6878 4.48198C4.74918 4.49462 4.81176 4.46649 4.84306 4.4122L5.06956 4.01968C5.1008 3.9654 5.09377 3.89722 5.05211 3.85046L4.71251 3.46725C4.68188 3.43258 4.66957 3.3854 4.67937 3.34019C4.74112 3.05507 4.74112 2.76003 4.67937 2.47491C4.66957 2.42969 4.68188 2.38252 4.71251 2.34785L5.0524 1.96464C5.09396 1.91781 5.10087 1.84963 5.06956 1.79542L4.84277 1.4029C4.8115 1.34872 4.74909 1.32062 4.6878 1.33312L4.18567 1.43605C4.14017 1.44538 4.09296 1.43242 4.05861 1.40116C3.84304 1.20496 3.58781 1.05741 3.31021 0.968517L3.30992 0.968226ZM2.69036 4.07041C2.04804 4.07041 1.52734 3.54971 1.52734 2.9074C1.52734 2.26508 2.04804 1.74438 2.69036 1.74438C3.33267 1.74438 3.85337 2.26508 3.85337 2.9074C3.85337 3.54971 3.33267 4.07041 2.69036 4.07041ZM2.68867 3.77967C3.1704 3.77967 3.56092 3.38915 3.56092 2.90742C3.56092 2.42568 3.1704 2.03516 2.68867 2.03516C2.20693 2.03516 1.81641 2.42568 1.81641 2.90742C1.81641 3.38915 2.20693 3.77967 2.68867 3.77967Z" fill="black"/>
</svg>
