<svg width="24" height="24" viewBox="0 0 24 24" fill="none" xmlns="http://www.w3.org/2000/svg">
<path d="M13.7002 11.0181L18.2388 8.39775C18.6193 8.17808 19.1058 8.30844 19.3255 8.68892L19.4222 8.85641C20.0477 9.93988 20.071 11.2692 19.4837 12.3739C18.7683 13.7197 17.1339 14.283 15.7412 13.6637L13.7939 12.7979C13.0471 12.4658 12.9924 11.4268 13.7002 11.0181Z" stroke="#222222"/>
<path d="M12 13.9638V19.2045C12 19.6438 11.6438 20 11.2045 20H11.0111C9.76002 20 8.59719 19.3555 7.93412 18.2946C7.12631 17.0021 7.45569 15.305 8.68835 14.4085L10.4118 13.155C11.0728 12.6743 12 13.1465 12 13.9638Z" stroke="#222222"/>
<path d="M13.7012 12.9819L18.2398 15.6023C18.6203 15.8219 18.7506 16.3084 18.531 16.6889L18.4343 16.8564C17.8087 17.9399 16.6692 18.6247 15.4188 18.6685C13.8956 18.7218 12.5905 17.588 12.4305 16.0722L12.2067 13.9529C12.1209 13.1401 12.9934 12.5732 13.7012 12.9819Z" stroke="#222222"/>
<path d="M10.2998 12.9819L5.76118 15.6023C5.38071 15.8219 4.89419 15.6916 4.67452 15.3111L4.57782 15.1436C3.95228 14.0601 3.92901 12.7308 4.51626 11.6261C5.23169 10.2803 6.86614 9.71699 8.25884 10.3363L10.2061 11.2021C10.9529 11.5342 11.0076 12.5732 10.2998 12.9819Z" stroke="#222222"/>
<path d="M10.2988 11.0181L5.76021 8.39775C5.37973 8.17808 5.24937 7.69156 5.46904 7.31108L5.56574 7.14359C6.19128 6.06012 7.33085 5.37533 8.58116 5.33155C10.1044 5.27821 11.4095 6.41204 11.5695 7.92779L11.7933 10.0471C11.8791 10.8599 11.0066 11.4268 10.2988 11.0181Z" stroke="#222222"/>
<path d="M12 10.0362V4.79549C12 4.35616 12.3562 4 12.7955 4H12.9889C14.24 4 15.4028 4.6445 16.0659 5.70541C16.8737 6.99791 16.5443 8.69505 15.3117 9.59153L13.5882 10.845C12.9272 11.3257 12 10.8535 12 10.0362Z" stroke="#222222"/>
</svg>
