<?xml version="1.0" encoding="utf-8"?>
<!-- Generator: Adobe Illustrator 23.0.1, SVG Export Plug-In . SVG Version: 6.00 Build 0)  -->
<svg version="1.1" id="Layer_1" xmlns="http://www.w3.org/2000/svg" xmlns:xlink="http://www.w3.org/1999/xlink" x="0px" y="0px"
	 viewBox="0 0 950 547" style="enable-background:new 0 0 950 547;" xml:space="preserve">
<style type="text/css">
	.st0{fill:#CCCCCC;}
	.st1{fill:#333333;}
	.st2{fill:#999999;}
	.st3{fill:#D9D9D9;}
	.st4{fill:#636363;}
</style>
<g>
	<path d="M883.7,190.9l-5.6-13H853l-5.6,13h-14.3l26-60.1h13l26,60.1H883.7z M865.6,148.7l-7.6,17.5h15L865.6,148.7z"/>
	<path d="M792.5,138.6c5.7,5.2,8.6,12.5,8.6,21.9c0,9.3-2.8,16.7-8.4,22.2c-5.6,5.4-14.1,8.2-25.6,8.2h-20.6v-60.1h21.2
		C778.5,130.8,786.8,133.4,792.5,138.6z M782.7,174.4c3.3-3.1,4.9-7.6,4.9-13.5c0-5.9-1.6-10.4-4.9-13.6c-3.3-3.2-8.4-4.8-15.2-4.8
		H760V179h8.5C774.7,179,779.4,177.5,782.7,174.4z"/>
	<path d="M409.5,182.6c-6.1,5.9-13.6,8.9-22.4,8.9c-8.9,0-16.4-3-22.4-8.9c-6.1-5.9-9.1-13.3-9.1-22.1c0-8.8,3-16.2,9.1-22.1
		c6.1-5.9,13.6-8.9,22.4-8.9c8.9,0,16.4,3,22.4,8.9c6.1,5.9,9.1,13.3,9.1,22.1C418.6,169.3,415.5,176.6,409.5,182.6z M404.9,160.5
		c0-5.4-1.7-9.9-5.2-13.7c-3.4-3.8-7.7-5.7-12.7-5.7c-5,0-9.2,1.9-12.7,5.7c-3.4,3.8-5.2,8.4-5.2,13.7c0,5.4,1.7,9.9,5.2,13.7
		c3.4,3.8,7.7,5.6,12.7,5.6c5,0,9.2-1.9,12.7-5.6C403.2,170.4,404.9,165.8,404.9,160.5z"/>
	<g>
		<path class="st0" d="M199.3,298.3c10.5,0,187.2,1.2,198.3,0.8c0.8,0,1.2-1.2,0.4-1.6c-7-3.5-14.9-2.8-22.2-5.2
			c-4.3-1.4-6.9-4.2-9.9-7.5c-2.6-2.8-5.5-4.9-9.2-6c-3.2-1-6.7-1.1-10-0.3c-3.6,0.9-6.7,2.9-10.1,4.2c-8.5,3.2-16.7,0.2-22.8-6.1
			c-5-5.2-9.9-10.1-16.7-12.8c-5.7-2.3-12-2.8-17.7-0.2c-6.5,2.9-10.9,8.8-17,12.4c-7.2,4.2-15.8,3.2-23.8,4.5
			c-8,1.3-14.1,8-21.1,11.9c-2.4,1.3-4.8,2.4-7.6,2.4c-1.6,0-3.1-0.5-4.6-0.7c-2.4-0.3-4.7-0.2-6.3,1.8
			C198.5,296.2,198.6,298.3,199.3,298.3z"/>
	</g>
	<g>
		<path class="st0" d="M17.3,398c10.5,0,187.2,1.2,198.3,0.8c0.8,0,1.2-1.2,0.4-1.6c-7-3.5-14.9-2.8-22.2-5.2
			c-4.3-1.4-6.9-4.2-9.9-7.5c-2.6-2.8-5.5-4.9-9.2-6c-3.2-1-6.7-1.1-10-0.3c-3.6,0.9-6.7,2.9-10.1,4.2c-8.5,3.2-16.7,0.2-22.8-6.1
			c-5-5.2-9.9-10.1-16.7-12.8c-5.7-2.3-12-2.8-17.7-0.2c-6.5,2.9-10.9,8.8-17,12.4c-7.2,4.2-15.8,3.2-23.8,4.5
			c-8,1.3-14.1,8-21.1,11.9c-2.4,1.3-4.8,2.4-7.6,2.4c-1.6,0-3.1-0.5-4.6-0.7c-2.4-0.3-4.7-0.2-6.3,1.8C16.5,396,16.6,398,17.3,398z
			"/>
	</g>
	<g>
		<path class="st0" d="M365.8,156c6.8,0,121.8,0.8,129.1,0.5c0.5,0,0.8-0.8,0.3-1c-4.6-2.3-9.7-1.8-14.5-3.4
			c-2.8-0.9-4.5-2.8-6.4-4.8c-1.7-1.8-3.6-3.2-6-3.9c-2.1-0.6-4.4-0.7-6.5-0.2c-2.3,0.6-4.4,1.9-6.6,2.7c-5.5,2.1-10.9,0.1-14.8-4
			c-3.3-3.4-6.5-6.5-10.9-8.4c-3.7-1.5-7.8-1.8-11.5-0.2c-4.2,1.9-7.1,5.8-11.1,8.1c-4.7,2.7-10.3,2.1-15.5,2.9
			c-5.2,0.8-9.2,5.2-13.7,7.7c-1.6,0.9-3.1,1.6-5,1.5c-1,0-2-0.3-3-0.4c-1.6-0.2-3.1-0.1-4.1,1.2C365.3,154.7,365.4,156,365.8,156z"
			/>
	</g>
	<g>
		<path class="st0" d="M653.4,393.8c7.7,0,136.7,0.8,144.8,0.6c0.6,0,0.9-0.9,0.3-1.2c-5.1-2.5-10.9-2-16.2-3.8
			c-3.1-1.1-5-3.1-7.2-5.4c-1.9-2-4-3.6-6.7-4.4c-2.4-0.7-4.9-0.8-7.3-0.2c-2.6,0.6-4.9,2.1-7.4,3.1c-6.2,2.3-12.2,0.1-16.6-4.5
			c-3.6-3.8-7.2-7.3-12.2-9.4c-4.2-1.7-8.8-2.1-12.9-0.2c-4.7,2.1-8,6.5-12.4,9c-5.3,3.1-11.6,2.4-17.4,3.3
			c-5.8,0.9-10.3,5.8-15.4,8.7c-1.7,1-3.5,1.8-5.6,1.7c-1.1,0-2.3-0.3-3.4-0.5c-1.8-0.2-3.4-0.2-4.6,1.3
			C652.9,392.2,652.9,393.8,653.4,393.8z"/>
	</g>
	<g>
		<path class="st0" d="M182.8,351.8c7.7,0,136.7,0.8,144.8,0.6c0.6,0,0.9-0.9,0.3-1.2c-5.1-2.5-10.9-2-16.2-3.8
			c-3.1-1.1-5-3.1-7.2-5.4c-1.9-2-4-3.6-6.7-4.4c-2.4-0.7-4.9-0.8-7.3-0.2c-2.6,0.6-4.9,2.1-7.4,3.1c-6.2,2.3-12.2,0.1-16.6-4.5
			c-3.6-3.8-7.2-7.3-12.2-9.4c-4.2-1.7-8.8-2.1-12.9-0.2c-4.7,2.1-8,6.5-12.4,9c-5.3,3.1-11.6,2.4-17.4,3.3
			c-5.8,0.9-10.3,5.8-15.4,8.7c-1.7,1-3.5,1.8-5.6,1.7c-1.1,0-2.3-0.3-3.4-0.5c-1.8-0.2-3.4-0.2-4.6,1.3
			C182.2,350.3,182.3,351.8,182.8,351.8z"/>
	</g>
	<g>
		<path class="st0" d="M355.7,374.2c12.8,0,227.7,1.4,241.2,1c1,0,1.5-1.5,0.5-1.9c-8.5-4.2-18.2-3.4-27-6.4
			c-5.2-1.8-8.4-5.2-12-9.1c-3.1-3.4-6.7-6-11.2-7.3c-3.9-1.2-8.2-1.3-12.2-0.4c-4.4,1-8.1,3.5-12.3,5.1
			c-10.3,3.9-20.4,0.2-27.7-7.4c-6.1-6.3-12.1-12.2-20.3-15.6c-6.9-2.8-14.6-3.4-21.5-0.3c-7.9,3.6-13.3,10.8-20.7,15.1
			c-8.8,5.1-19.3,3.9-29,5.5c-9.7,1.6-17.1,9.7-25.6,14.4c-2.9,1.6-5.9,3-9.3,2.9c-1.9,0-3.8-0.6-5.6-0.8c-2.9-0.4-5.7-0.3-7.7,2.2
			C354.7,371.7,354.8,374.2,355.7,374.2z"/>
	</g>
	<g>
		<path class="st0" d="M523.4,309.4c12.8,0,227.7,1.4,241.2,1c1,0,1.5-1.5,0.5-1.9c-8.5-4.2-18.2-3.4-27-6.4
			c-5.2-1.8-8.4-5.2-12-9.1c-3.1-3.4-6.7-6-11.2-7.3c-3.9-1.2-8.2-1.3-12.2-0.4c-4.4,1-8.1,3.5-12.3,5.1
			c-10.3,3.9-20.4,0.2-27.7-7.4c-6.1-6.3-12.1-12.2-20.3-15.6c-6.9-2.8-14.6-3.4-21.5-0.3c-7.9,3.6-13.3,10.8-20.7,15.1
			c-8.8,5.1-19.3,3.9-29,5.5c-9.7,1.6-17.1,9.7-25.6,14.4c-2.9,1.6-5.9,3-9.3,2.9c-1.9,0-3.8-0.6-5.6-0.8c-2.9-0.4-5.7-0.3-7.7,2.2
			C522.4,306.9,522.5,309.4,523.4,309.4z"/>
	</g>
	<g>
		<path class="st0" d="M741.6,343.6c0.1,0.4,203.3,0,200.8,0c-1.2,0,1.8-1.7,0.6-2.3c-6.6-3.3-13.8-3.4-21.1-4
			c-4.2-0.4-8.5-1-12.3-3c-3.8-2-6.2-5.5-8.9-8.7c-8.4-10-21.8-15.2-34.7-13.1c-14.4,2.3-25.8,13.3-40.3,15.3
			c-8.7,1.2-16.9-2.1-25.4-3.3c-7-1-12.8,0.4-19.1,3.5c-4.6,2.3-8.8,4.2-14,4.5c-4,0.3-8-0.2-12-0.2c-6.4-0.1-12.7,2.7-17.6,7
			C737,339.8,734.9,343.6,741.6,343.6z"/>
	</g>
	<g>
		<path class="st0" d="M692.2,181.1c0.1,0.4,181.3,0,179,0c-1,0,1.6-1.6,0.6-2.1c-5.9-2.9-12.3-3-18.8-3.6c-3.7-0.3-7.6-0.9-11-2.7
			c-3.4-1.8-5.5-4.9-8-7.8c-7.5-8.9-19.4-13.5-30.9-11.7c-12.9,2-23,11.8-35.9,13.6c-7.8,1.1-15.1-1.9-22.7-3
			c-6.2-0.9-11.4,0.3-17,3.1c-4.1,2-7.9,3.7-12.5,4c-3.5,0.3-7.1-0.2-10.7-0.2c-5.7-0.1-11.3,2.4-15.7,6.3
			C688.1,177.7,686.3,181.1,692.2,181.1z"/>
	</g>
	<g>
		<polygon class="st1" points="927.6,513.9 886.4,513.9 886.4,545.5 927.6,546.4 		"/>
		<polygon class="st1" points="810.2,543.7 841.7,331.1 872.5,547 		"/>
		<rect x="571.9" y="468.3" class="st2" width="105" height="70.8"/>
		<rect x="462.1" y="459.2" class="st3" width="28.1" height="63.5"/>
		<rect x="724.2" y="474.9" class="st2" width="58.4" height="72.1"/>
		<rect x="704.7" y="393" class="st2" width="46.4" height="151.1"/>
		<rect x="708.3" y="379.4" class="st2" width="39.2" height="13.6"/>
		<rect x="715.9" y="368.5" class="st2" width="24.1" height="10.9"/>
		<path class="st2" d="M448,266.3h-9.8h-1h-9.8c0,0-32.5,146.1-16.2,280.7h26h1h26C480.5,412.4,448,266.3,448,266.3z"/>
		<rect x="372.7" y="462.4" class="st2" width="16.8" height="81.7"/>
		<rect x="379" y="476" class="st1" width="30.1" height="68.1"/>
		<rect x="356.3" y="427.3" class="st3" width="16.4" height="116.3"/>
		<polygon class="st3" points="347.9,368.7 347.9,351.5 372.7,427.3 347.9,427.3 347.9,370.6 		"/>
		<polygon class="st2" points="347.9,351.5 372.7,362.6 372.7,427.3 		"/>
		<rect x="331.5" y="368.7" class="st3" width="36.6" height="174.1"/>
		<rect x="344.6" y="368.7" class="st2" width="23.5" height="174.1"/>
		<rect x="272.4" y="381.1" class="st2" width="32.8" height="162.6"/>
		<rect x="282.9" y="381.1" class="st4" width="11.8" height="161.8"/>
		<rect x="212.1" y="466.1" class="st2" width="21.5" height="78"/>
		<rect x="231.5" y="420" class="st4" width="28.2" height="123.6"/>
		<rect x="40" y="374.3" class="st4" width="44.2" height="172.7"/>
		<rect x="133.6" y="405.1" class="st4" width="44.2" height="141.9"/>
		<rect x="180" y="430" class="st4" width="37" height="117"/>
		<rect x="223.4" y="443.9" class="st1" width="28.2" height="103.1"/>
		<rect x="84.2" y="374.3" class="st2" width="32.6" height="172.7"/>
		
			<rect x="116.8" y="395.8" transform="matrix(-1 -1.224647e-16 1.224647e-16 -1 237.4527 942.8474)" class="st2" width="3.8" height="151.2"/>
		<rect x="72.5" y="463" class="st1" width="28.1" height="84"/>
		<rect x="60.8" y="514.3" width="34.6" height="23.3"/>
		<polygon points="95.4,514.3 60.8,514.3 66,506.5 90.3,506.5 		"/>
		<polygon class="st1" points="100.7,463 72.4,463 76.6,449.5 96.5,449.5 		"/>
		<rect x="117.1" y="490.6" class="st1" width="41.8" height="56.4"/>
		<polygon class="st1" points="158.9,490.6 116.9,490.6 123.1,481.6 152.7,481.6 		"/>
		<rect x="125" y="475" class="st1" width="20.9" height="40.4"/>
		<polygon class="st1" points="145.9,475 124.9,475 128,468.5 142.7,468.5 		"/>
		<rect x="94.6" y="500.8" width="12.1" height="46.2"/>
		<polygon points="106.7,500.8 94.6,500.8 96.4,493 104.9,493 		"/>
		<rect x="192.5" y="481.2" class="st1" width="28" height="61.6"/>
		<rect x="111.9" y="515.8" width="40.3" height="31.2"/>
		<rect x="163.2" y="517.8" width="17.6" height="25.9"/>
		<rect x="198.5" y="517.8" width="17.6" height="25.9"/>
		<rect x="180.9" y="513.9" width="17.6" height="29.8"/>
		<polygon class="st1" points="192.5,481.2 206.5,468.5 220.5,481.2 		"/>
		<rect x="43.1" y="338.6" class="st4" width="41.1" height="35.7"/>
		<rect x="43.1" y="327" class="st2" width="33" height="11.7"/>
		<polygon class="st4" points="175.6,383.9 138.7,394.5 138.7,405.1 175.6,405.1 		"/>
		<polygon class="st4" points="180,430 198.5,417.4 198.5,431.9 		"/>
		<rect x="198.5" y="424.7" class="st4" width="11.8" height="5.4"/>
		<rect x="231.5" y="493" width="23.6" height="49.8"/>
		<rect x="241.2" y="476" width="10.4" height="17"/>
		<rect x="243.9" y="467" width="4.8" height="9.1"/>
		<rect x="259.7" y="456.2" class="st1" width="28.6" height="86.6"/>
		<rect x="300" y="460.7" class="st1" width="39.1" height="82.2"/>
		<rect x="259.7" y="449.5" class="st1" width="16" height="6.8"/>
		<polygon class="st3" points="372.7,362.6 372.7,344.1 356.3,355.3 		"/>
		<polygon class="st3" points="372.7,344.1 372.7,315.9 369.5,346.4 		"/>
		<rect x="345" y="505.2" width="11.3" height="38.8"/>
		<rect x="346.4" y="495.1" width="8.5" height="10.1"/>
		<polygon points="346.4,495.1 350.6,486.8 354.9,495.1 		"/>
		<polygon points="350.6,489.9 351.6,491 350.6,471.5 		"/>
		<rect x="354.9" y="505.2" width="14.6" height="38.8"/>
		<rect x="354.9" y="495.1" width="13.2" height="10.1"/>
		<polygon points="359.6,495.1 363.8,486.8 368.1,495.1 		"/>
		<polygon points="363.8,489.9 364.8,491 363.8,471.5 		"/>
		<polygon class="st1" points="363.8,486.8 350.6,486.8 354.9,495.1 368.1,495.1 		"/>
		<rect x="277.9" y="501.7" width="53.6" height="45.3"/>
		<rect x="395.9" y="467" width="41.3" height="77.1"/>
		<polygon points="402.2,467 431.2,467 416.5,446.3 		"/>
		<path class="st3" d="M427.4,266.3c0,0-3.6,16.5-7.9,43.5h36.4c-4.2-27-7.9-43.5-7.9-43.5h-9.8h-1H427.4z"/>
		<rect x="437.1" y="374.3" class="st1" width="35.2" height="169.8"/>
		<polygon points="437.1,374.3 472.3,383.9 472.3,374.3 		"/>
		<rect x="480.7" y="393" class="st2" width="27.7" height="150.7"/>
		<rect x="494.6" y="413.9" class="st1" width="31.1" height="130.2"/>
		<rect x="535.6" y="402.1" class="st2" width="39.8" height="140.7"/>
		<rect x="510.1" y="435.1" width="33.7" height="109"/>
		<rect x="501" y="467" width="9.1" height="77.1"/>
		<rect x="454.7" y="493" width="35.5" height="54"/>
		<rect x="543.8" y="395.8" class="st2" width="23.4" height="14.3"/>
		<rect x="563.9" y="446.3" class="st1" width="38.6" height="97.7"/>
		<rect x="610.3" y="435.1" class="st1" width="49.6" height="109"/>
		<rect x="667" y="424.7" class="st1" width="40.9" height="119.4"/>
		<rect x="553" y="524.4" width="138.7" height="19.7"/>
		<path class="st1" d="M565.3,529.7h-0.8c-1.3,0-2.4,1.1-2.4,2.4v5.7h5.6v-5.7C567.8,530.8,566.7,529.7,565.3,529.7z"/>
		<path class="st1" d="M574.4,529.7h-0.8c-1.3,0-2.4,1.1-2.4,2.4v5.7h5.6v-5.7C576.9,530.8,575.8,529.7,574.4,529.7z"/>
		<path class="st1" d="M583.5,529.7h-0.8c-1.3,0-2.4,1.1-2.4,2.4v5.7h5.6v-5.7C585.9,530.8,584.9,529.7,583.5,529.7z"/>
		<path class="st1" d="M592.6,529.7h-0.8c-1.3,0-2.4,1.1-2.4,2.4v5.7h5.6v-5.7C595,530.8,593.9,529.7,592.6,529.7z"/>
		<path class="st1" d="M601.7,529.7h-0.8c-1.3,0-2.4,1.1-2.4,2.4v5.7h5.6v-5.7C604.1,530.8,603,529.7,601.7,529.7z"/>
		<path class="st1" d="M610.8,529.7H610c-1.3,0-2.4,1.1-2.4,2.4v5.7h5.6v-5.7C613.2,530.8,612.1,529.7,610.8,529.7z"/>
		<path class="st1" d="M619.8,529.7H619c-1.3,0-2.4,1.1-2.4,2.4v5.7h5.6v-5.7C622.3,530.8,621.2,529.7,619.8,529.7z"/>
		<path class="st1" d="M628.9,529.7h-0.8c-1.3,0-2.4,1.1-2.4,2.4v5.7h5.6v-5.7C631.4,530.8,630.3,529.7,628.9,529.7z"/>
		<path class="st1" d="M638,529.7h-0.8c-1.3,0-2.4,1.1-2.4,2.4v5.7h5.6v-5.7C640.4,530.8,639.3,529.7,638,529.7z"/>
		<path class="st1" d="M647.1,529.7h-0.8c-1.3,0-2.4,1.1-2.4,2.4v5.7h5.6v-5.7C649.5,530.8,648.4,529.7,647.1,529.7z"/>
		<path class="st1" d="M656.2,529.7h-0.8c-1.3,0-2.4,1.1-2.4,2.4v5.7h5.6v-5.7C658.6,530.8,657.5,529.7,656.2,529.7z"/>
		<path class="st1" d="M665.3,529.7h-0.8c-1.3,0-2.4,1.1-2.4,2.4v5.7h5.6v-5.7C667.7,530.8,666.6,529.7,665.3,529.7z"/>
		<path class="st1" d="M674.3,529.7h-0.8c-1.3,0-2.4,1.1-2.4,2.4v5.7h5.6v-5.7C676.8,530.8,675.7,529.7,674.3,529.7z"/>
		<rect x="596" y="490.6" width="46.8" height="34.3"/>
		<rect x="670.2" y="413.9" class="st1" width="34.6" height="10.8"/>
		<rect x="674.3" y="395.8" class="st1" width="26.2" height="18"/>
		<rect x="678.3" y="386.1" class="st1" width="18.3" height="9.8"/>
		<rect x="683.2" y="386.1" width="2.5" height="138.6"/>
		<rect x="727.6" y="442.9" class="st1" width="34.7" height="101.2"/>
		<rect x="730.2" y="433.7" class="st1" width="29.3" height="9.1"/>
		<rect x="718.9" y="457.3" width="29.7" height="86.8"/>
		<rect x="721.2" y="449.5" width="25.1" height="7.8"/>
		<rect x="685.7" y="457.3" width="29.7" height="86.8"/>
		<rect x="688" y="449.5" width="25.1" height="7.8"/>
		<rect x="733.8" y="418.5" class="st1" width="22.2" height="15.3"/>
		<rect x="737.1" y="410.2" class="st1" width="15.5" height="8.3"/>
		<rect x="741.3" y="410.2" width="2.2" height="117.5"/>
		<rect x="22.4" y="522.7" width="30.1" height="24.3"/>
		<rect x="769.6" y="459.2" class="st1" width="40.5" height="84.5"/>
		<rect x="798.3" y="488.5" width="28.4" height="58.5"/>
		<polygon class="st2" points="841.6,331.1 848.5,379.1 834.5,379.1 		"/>
		<rect x="839.4" y="379.4" class="st2" width="4.2" height="58.9"/>
		<rect x="843.6" y="493" width="52.4" height="52.4"/>
		<rect x="60.8" y="535.6" width="34.6" height="11.1"/>
		<g>
			<path d="M-1.4,546.6l29.8-1.1l29.8-0.8l59.5-1.7l59.5-1.2c19.8-0.4,39.7-0.6,59.5-0.9l29.8-0.4l29.8-0.3l59.5-0.5l119.1-0.4
				l59.5,0.2l29.8,0.1c9.9,0,19.8,0,29.8,0.2l59.5,0.5l29.8,0.3l29.8,0.4l29.8,0.4c9.9,0.1,19.8,0.3,29.8,0.5l59.5,1.2l59.5,1.7
				l29.8,0.8l29.8,1.1v0.9L475,547.9l-476.4-0.4V546.6z"/>
		</g>
	</g>
	<path d="M117.2,190.9l-5.6-13H86.4l-5.6,13H66.5l26-60.1h13l26,60.1H117.2z M99,148.7l-7.6,17.5h15L99,148.7z"/>
	<path d="M184.3,138.6c5.7,5.2,8.6,12.5,8.6,21.9c0,9.3-2.8,16.7-8.4,22.2c-5.6,5.4-14.1,8.2-25.6,8.2h-20.6v-60.1h21.2
		C170.4,130.8,178.6,133.4,184.3,138.6z M174.5,174.4c3.3-3.1,4.9-7.6,4.9-13.5c0-5.9-1.6-10.4-4.9-13.6c-3.3-3.2-8.4-4.8-15.2-4.8
		h-7.5V179h8.5C166.5,179,171.2,177.5,174.5,174.4z"/>
	<path d="M250.5,138.6c5.7,5.2,8.6,12.5,8.6,21.9c0,9.3-2.8,16.7-8.4,22.2c-5.6,5.4-14.1,8.2-25.6,8.2h-20.6v-60.1h21.2
		C236.5,130.8,244.7,133.4,250.5,138.6z M240.6,174.4c3.3-3.1,4.9-7.6,4.9-13.5c0-5.9-1.6-10.4-4.9-13.6c-3.3-3.2-8.4-4.8-15.2-4.8
		H218V179h8.5C232.6,179,237.3,177.5,240.6,174.4z"/>
	<path d="M330.7,130.8h13.4v60.1h-13.4v-23.6h-23.9v23.6h-13.4v-60.1h13.4v25.1h23.9V130.8z"/>
	<path d="M453.7,142.4v48.5h-13.4v-48.5h-17v-11.6h47.5v11.6H453.7z"/>
	<path d="M523.9,130.8v12H494v12.4h26.9v11.4H494V179h30.9v11.9h-44.3v-60.1H523.9z"/>
	<path d="M536.8,190.9v-60.1h13.4v48.2h25.6v12H536.8z"/>
	<path d="M733.7,130.8v12h-29.9v12.4h26.9v11.4h-26.9V179h30.9v11.9h-44.3v-60.1H733.7z"/>
	<path d="M812.7,130.8h13.4v60.1h-13.4V130.8z"/>
	<g>
		<path class="st0" d="M104.8,208c6.8,0,121.8,0.8,129.1,0.5c0.5,0,0.8-0.8,0.3-1c-4.6-2.3-9.7-1.8-14.5-3.4
			c-2.8-0.9-4.5-2.8-6.4-4.8c-1.7-1.8-3.6-3.2-6-3.9c-2.1-0.6-4.4-0.7-6.5-0.2c-2.3,0.6-4.4,1.9-6.6,2.7c-5.5,2.1-10.9,0.1-14.8-4
			c-3.3-3.4-6.5-6.5-10.9-8.4c-3.7-1.5-7.8-1.8-11.5-0.2c-4.2,1.9-7.1,5.8-11.1,8.1c-4.7,2.7-10.3,2.1-15.5,2.9
			c-5.2,0.8-9.2,5.2-13.7,7.7c-1.6,0.9-3.1,1.6-5,1.5c-1,0-2-0.3-3-0.4c-1.6-0.2-3.1-0.1-4.1,1.2C104.3,206.7,104.3,208,104.8,208z"
			/>
	</g>
	<g>
		<path class="st0" d="M525.1,140.2c10.5,0,187.2,1.2,198.3,0.8c0.8,0,1.2-1.2,0.4-1.6c-7-3.5-14.9-2.8-22.2-5.2
			c-4.3-1.4-6.9-4.2-9.9-7.5c-2.6-2.8-5.5-4.9-9.2-6c-3.2-1-6.7-1.1-10-0.3c-3.6,0.9-6.7,2.9-10.1,4.2c-8.5,3.2-16.7,0.2-22.8-6.1
			c-5-5.2-9.9-10.1-16.7-12.8c-5.7-2.3-12-2.8-17.7-0.2c-6.5,2.9-10.9,8.8-17,12.4c-7.2,4.2-15.8,3.2-23.8,4.5
			c-8,1.3-14.1,8-21.1,11.9c-2.4,1.3-4.8,2.4-7.6,2.4c-1.6,0-3.1-0.5-4.6-0.7c-2.4-0.3-4.7-0.2-6.3,1.8
			C524.3,138.1,524.4,140.2,525.1,140.2z"/>
	</g>
	<path d="M662.2,153l-16.3,32.8h-8L621.7,153v37.8h-13.4v-60.1h18.1l15.5,33l15.6-33h18.1v60.1h-13.4V153z"/>
</g>
</svg>
