<svg width="26" height="23" viewBox="0 0 26 23" fill="none" xmlns="http://www.w3.org/2000/svg">
<path fill-rule="evenodd" clip-rule="evenodd" d="M10.6402 15.0215C9.76041 15.0215 8.92143 15.3967 8.3527 16.0495C7.78396 16.7024 7.53887 17.5657 7.68341 18.4076L8.18303 21.3239C8.21445 21.513 8.14847 21.7022 8.01021 21.8364C7.86881 21.9706 7.67085 22.0255 7.47604 21.9889C3.19952 21.1653 1 18.5998 1 14.4358C1 9.61599 5.02513 5.70828 9.98978 5.70828H12.9874V2.53572C12.9874 1.93782 13.3456 1.39179 13.905 1.14164C14.4643 0.8915 15.1241 0.976908 15.5954 1.36432L24.0291 8.32563C24.6449 8.83507 25 9.5794 25 10.3664C25 11.1504 24.6449 11.8978 24.0291 12.4072L15.5954 19.3685C15.1273 19.7559 14.4674 19.8444 13.9081 19.5943C13.3488 19.3441 12.9906 18.8011 12.9874 18.2002V15.0246H10.6402V15.0215Z" stroke="white" stroke-width="1.16" stroke-miterlimit="10"/>
</svg>
