<svg width="18" height="19" viewBox="0 0 18 19" fill="none" xmlns="http://www.w3.org/2000/svg">
<path fill-rule="evenodd" clip-rule="evenodd" d="M5.28824 16.1952C5.38878 16.1784 5.49206 16.1927 5.58424 16.2362C9.22777 17.9568 13.5823 16.6991 15.7474 13.3008C17.9125 9.90255 17.2123 5.42441 14.1132 2.84925C11.0141 0.27408 6.48346 0.405675 3.53907 3.15638C0.594681 5.90708 0.155578 10.4183 2.51424 13.6852C2.61953 13.8308 2.63862 14.0216 2.56424 14.1852L1.34624 16.8522L5.28824 16.1952ZM0.582242 17.9932C0.400108 18.0234 0.216164 17.9507 0.103793 17.8042C-0.00857844 17.6578 -0.0310889 17.4613 0.0452417 17.2932L1.53524 14.0302C-0.972848 10.3059 -0.352223 5.30271 2.98982 2.3041C6.33186 -0.694512 11.3728 -0.771114 14.8044 2.12456C18.236 5.02024 19.0084 10.0023 16.6146 13.801C14.2208 17.5998 9.39333 19.0531 5.30024 17.2072L0.582242 17.9932Z" fill="#121924"/>
</svg>
