<svg width="22" height="21" viewBox="0 0 22 21" fill="none" xmlns="http://www.w3.org/2000/svg">
<path fill-rule="evenodd" clip-rule="evenodd" d="M9.6721 1.14241C4.76838 1.84884 1.24222 6.22177 1.59124 11.1638C1.94026 16.1058 6.04602 19.9398 11.0004 19.95C13.8761 19.9507 16.5956 18.6418 18.3892 16.394C20.1828 14.1461 20.8553 11.2038 20.2162 8.40001H18.3504V8.92501C18.3504 9.21496 18.1153 9.45001 17.8254 9.45001H16.2504V9.75766L17.1471 10.6533C17.2458 10.7518 17.3013 10.8855 17.3013 11.025C17.3013 11.1645 17.2458 11.2982 17.1471 11.3967L15.2004 13.3424V15.225C15.2003 15.3067 15.1813 15.3872 15.1447 15.4602L14.0947 17.5602L13.9971 17.6967L12.9471 18.7467C12.8486 18.8455 12.7148 18.901 12.5754 18.901C12.4359 18.901 12.3021 18.8455 12.2037 18.7467L11.1537 17.6967C11.0553 17.5981 11.0001 17.4643 11.0004 17.325V14.3924L10.1037 13.4967C10.0053 13.3981 9.95011 13.2643 9.95035 13.125V12.2924L9.11455 11.4566L7.09015 10.4444L6.95365 10.3467L5.90365 9.29671C5.80491 9.19822 5.74942 9.06448 5.74942 8.92501C5.74942 8.78554 5.80491 8.65181 5.90365 8.55331L6.80035 7.65766V6.82501C6.80035 6.53506 7.0354 6.30001 7.32535 6.30001H9.208L10.1037 5.40331C10.2021 5.30457 10.3359 5.24907 10.4754 5.24907C10.6148 5.24907 10.7486 5.30457 10.8471 5.40331L11.8362 6.39346L13.7493 7.35001H14.458L15.2004 6.60766V5.99236L14.3037 5.09671C14.2053 4.99806 14.1501 4.86435 14.1504 4.72501V4.20001H13.1004V4.72501C13.1004 5.01496 12.8653 5.25001 12.5754 5.25001H11.5254C11.386 5.25026 11.2523 5.19511 11.1537 5.09671L10.258 4.20001H9.42535C9.21272 4.20039 9.02085 4.07248 8.93943 3.87605C8.85801 3.67962 8.90311 3.45348 9.05365 3.30331L9.95035 2.40766V1.69891L9.6721 1.14241ZM10.8005 1.05212L10.9444 1.33982C10.981 1.41282 11 1.49336 11 1.57502V2.62502C11.0003 2.76435 10.9451 2.89807 10.8467 2.99672L10.6588 3.18362C10.7293 3.20961 10.7934 3.25043 10.8467 3.30332L11.7424 4.20002H12.05V3.67502C12.05 3.38507 12.2851 3.15002 12.575 3.15002H14.675C14.965 3.15002 15.2 3.38507 15.2 3.67502V4.50767L16.0967 5.40332C16.1951 5.50197 16.2503 5.63569 16.25 5.77502V6.82502C16.2503 6.96435 16.1951 7.09807 16.0967 7.19672L15.0467 8.24672C14.9481 8.34512 14.8144 8.40027 14.675 8.40002H13.625C13.5434 8.40001 13.4628 8.38096 13.3898 8.34437L11.2898 7.29437L11.1533 7.19672L10.475 6.51737L9.79673 7.19672C9.69808 7.29512 9.56437 7.35027 9.42503 7.35002H7.85003V7.87502C7.85028 8.01435 7.79513 8.14807 7.69673 8.24672L7.01738 8.92502L7.63688 9.54452L9.66023 10.5557L9.79673 10.6533L10.8467 11.7033C10.9451 11.802 11.0003 11.9357 11 12.075V12.9077L11.8967 13.8033C11.9951 13.902 12.0503 14.0357 12.05 14.175V17.1077L12.575 17.6327L13.1945 17.0132L14.15 15.1011V13.125C14.1498 12.9857 14.2049 12.852 14.3033 12.7533L16.0327 11.025L15.3533 10.3467C15.2549 10.2481 15.1998 10.1144 15.2 9.97502V8.92502C15.2 8.63507 15.4351 8.40002 15.725 8.40002H17.3V7.87502C17.3 7.58507 17.5351 7.35002 17.825 7.35002H19.9124C18.5516 3.50497 14.8784 0.966101 10.8005 1.05212ZM11 21C5.20085 21 0.5 16.2991 0.5 10.5C0.5 4.70085 5.20085 0 11 0C16.7991 0 21.5 4.70085 21.5 10.5C21.5 16.2991 16.7991 21 11 21Z" fill="#121924"/>
</svg>
