<svg width="258" height="158" viewBox="0 0 258 158" fill="none" xmlns="http://www.w3.org/2000/svg">
<path fill-rule="evenodd" clip-rule="evenodd" d="M7.16667 13.9774C3.20863 13.9774 0 10.8485 0 6.98871C0 3.12895 3.20863 0 7.16667 0H250.833C254.791 0 258 3.12895 258 6.98871C258 10.8485 254.791 13.9774 250.833 13.9774H7.16667Z" fill="#272A3D"/>
<path fill-rule="evenodd" clip-rule="evenodd" d="M7.16667 86.1946C3.20863 86.1946 0 82.9353 0 78.9147C0 74.8941 3.20863 71.6348 7.16667 71.6348H250.833C254.791 71.6348 258 74.8941 258 78.9147C258 82.9353 254.791 86.1946 250.833 86.1946H7.16667Z" fill="#272A3D"/>
<path fill-rule="evenodd" clip-rule="evenodd" d="M7.16667 157.828C3.20863 157.828 0 154.699 0 150.839C0 146.98 3.20863 143.851 7.16667 143.851H250.833C254.791 143.851 258 146.98 258 150.839C258 154.699 254.791 157.828 250.833 157.828H7.16667Z" fill="#272A3D"/>
</svg>
