<svg width="21" height="18" viewBox="0 0 21 18" fill="none" xmlns="http://www.w3.org/2000/svg">
<path fill-rule="evenodd" clip-rule="evenodd" d="M4.3916 17V11.5C4.3916 10.6716 5.06317 10 5.8916 10H8.8916C9.72003 10 10.3916 10.6716 10.3916 11.5V17H16.8916C17.72 17 18.3916 16.3284 18.3916 15.5V7.5H19.3916V15.5C19.3916 16.8807 18.2723 18 16.8916 18H3.8916C2.51089 18 1.3916 16.8807 1.3916 15.5V7.5H2.3916V15.5C2.3916 16.3284 3.06317 17 3.8916 17H4.3916ZM5.3916 17H9.3916V11.5C9.3916 11.2239 9.16774 11 8.8916 11H5.8916C5.61546 11 5.3916 11.2239 5.3916 11.5V17ZM13.3916 11.5V13.5C13.3916 13.7761 13.6155 14 13.8916 14H14.8916C15.1677 14 15.3916 13.7761 15.3916 13.5V11.5C15.3916 11.2239 15.1677 11 14.8916 11H13.8916C13.6155 11 13.3916 11.2239 13.3916 11.5ZM12.3916 11.5C12.3916 10.6716 13.0632 10 13.8916 10H14.8916C15.72 10 16.3916 10.6716 16.3916 11.5V13.5C16.3916 14.3284 15.72 15 14.8916 15H13.8916C13.0632 15 12.3916 14.3284 12.3916 13.5V11.5ZM4.3916 8H1.8916C1.06317 8 0.391602 7.32843 0.391602 6.5V5.693C0.391602 5.502 0.427602 5.313 0.498602 5.135L2.4276 0.315C2.50328 0.124978 2.68706 0.000211076 2.8916 0H17.8916C18.0959 4.75466e-05 18.2796 0.124371 18.3556 0.314L20.2846 5.135C20.3555 5.31249 20.3918 5.50188 20.3916 5.693V6.5C20.3916 7.32843 19.72 8 18.8916 8H16.3916C16.0076 8 15.6566 7.856 15.3916 7.618C15.1169 7.86448 14.7607 8.00056 14.3916 8H11.3916C11.0076 8 10.6566 7.856 10.3916 7.618C10.1169 7.86448 9.76068 8.00056 9.3916 8H6.3916C6.0076 8 5.6566 7.856 5.3916 7.618C5.1169 7.86448 4.76068 8.00056 4.3916 8ZM3.2306 1L1.4276 5.507C1.40386 5.56614 1.39164 5.62927 1.3916 5.693V6.5C1.3916 6.77614 1.61546 7 1.8916 7H4.3916C4.66774 7 4.8916 6.77614 4.8916 6.5V5.5C4.8916 5.22386 5.11546 5 5.3916 5C5.66774 5 5.8916 5.22386 5.8916 5.5V6.5C5.8916 6.77614 6.11546 7 6.3916 7H9.3916C9.66774 7 9.8916 6.77614 9.8916 6.5V5.5C9.8916 5.22386 10.1155 5 10.3916 5C10.6677 5 10.8916 5.22386 10.8916 5.5V6.5C10.8916 6.77614 11.1155 7 11.3916 7H14.3916C14.6677 7 14.8916 6.77614 14.8916 6.5V5.5C14.8916 5.22386 15.1155 5 15.3916 5C15.6677 5 15.8916 5.22386 15.8916 5.5V6.5C15.8916 6.77614 16.1155 7 16.3916 7H18.8916C19.1677 7 19.3916 6.77614 19.3916 6.5V5.693C19.3916 5.62927 19.3793 5.56614 19.3556 5.507L17.5526 1H3.2316H3.2306Z" fill="#121924"/>
</svg>
