<svg width="23" height="24" viewBox="0 0 23 24" fill="none" xmlns="http://www.w3.org/2000/svg">
<path fill-rule="evenodd" clip-rule="evenodd" d="M4.61469 15.1489C4.75795 15.1051 4.91046 15.1294 5.03523 15.2074C6.10735 15.8797 7.32733 16.2354 8.60277 16.2354C12.4615 16.2354 15.59 12.937 15.59 8.8689C15.59 4.80075 12.4615 1.50239 8.60277 1.50239C4.74409 1.50239 1.61555 4.80075 1.61555 8.8689C1.61555 10.2136 1.95751 11.4998 2.59061 12.6301C2.66455 12.7665 2.68765 12.9273 2.64606 13.0735L1.86048 15.9772L4.61469 15.1489ZM16.3248 6.40365C19.689 7.48037 22.0458 10.7641 22.0458 14.5399C22.0458 16.0015 21.6946 17.4144 21.0338 18.6665L22.0227 22.3206C22.1382 22.7493 21.7639 23.1439 21.3573 23.0221L17.8914 21.9795C16.7037 22.6762 15.3682 23.0465 13.9772 23.0465C10.4004 23.0465 7.28111 20.5666 6.25983 17.0149C5.71453 16.8395 5.18773 16.6057 4.68865 16.3133L1.22276 17.356C0.816096 17.4778 0.441779 17.0831 0.557308 16.6544L1.54622 13.0004C0.885391 11.7483 0.53418 10.3402 0.53418 8.87374C0.53418 4.17711 4.14333 0.372077 8.59815 0.372077C12.2443 0.367205 15.322 2.91041 16.3248 6.40365ZM16.5928 7.70447C16.6436 8.08449 16.6667 8.47911 16.6667 8.87374C16.6667 13.5704 13.0576 17.3754 8.60277 17.3754C8.22846 17.3754 7.85878 17.3462 7.49371 17.2975C8.54272 20.0453 11.089 21.9113 13.9772 21.9113C15.2527 21.9113 16.4727 21.5508 17.5448 20.8833C17.6742 20.8054 17.8267 20.781 17.9653 20.8248L20.7195 21.6531L19.9339 18.7494C19.8923 18.5983 19.9108 18.4376 19.9894 18.306C20.6271 17.1757 20.9644 15.8895 20.9644 14.5448C20.9691 11.49 19.1945 8.80555 16.5928 7.70447Z" fill="white"/>
</svg>
