<svg width="47" height="47" viewBox="0 0 47 47" fill="none" xmlns="http://www.w3.org/2000/svg">
<path d="M23.5 41C33.165 41 41 33.165 41 23.5C41 13.835 33.165 6 23.5 6C13.835 6 6 13.835 6 23.5C6 33.165 13.835 41 23.5 41Z" fill="#272A3D" stroke="white" stroke-width="10.19" stroke-miterlimit="10"/>
<path fill-rule="evenodd" clip-rule="evenodd" d="M23.0004 19.7002C20.6254 19.7002 18.7004 21.6252 18.7004 24.0002C18.7004 26.3752 20.6254 28.3002 23.0004 28.3002C25.3754 28.3002 27.3004 26.3752 27.3004 24.0002C27.3004 21.6252 25.3754 19.7002 23.0004 19.7002ZM23.0004 27.5877C21.0254 27.5877 19.4129 25.9752 19.4129 24.0002C19.4129 22.0252 21.0254 20.4127 23.0004 20.4127C24.9754 20.4127 26.5879 22.0252 26.5879 24.0002C26.5879 25.9752 24.9754 27.5877 23.0004 27.5877Z" fill="white"/>
<path fill-rule="evenodd" clip-rule="evenodd" d="M29.1004 18.2633H27.7129C27.3504 18.2633 27.0129 18.0758 26.8129 17.7758L26.2379 16.9008C25.9004 16.4133 25.3504 16.1133 24.7379 16.1133H21.2629C20.6504 16.1133 20.1004 16.4133 19.7629 16.9008L19.4754 17.3383V17.8633H19.9879L20.3629 17.3008C20.5629 17.0008 20.9004 16.8258 21.2629 16.8258H24.7379C25.1004 16.8258 25.4379 17.0008 25.6379 17.3008L26.2254 18.1758C26.5504 18.6758 27.1129 18.9758 27.7129 18.9758H29.1004C29.7004 18.9758 30.1754 19.4633 30.1754 20.0508V28.6633C30.1754 29.2633 29.7004 29.7383 29.1004 29.7383H16.9004C16.3004 29.7383 15.8254 29.2633 15.8254 28.6633V20.0508C15.8254 19.7383 15.9629 19.4633 16.1754 19.2633C15.9879 19.1258 15.8629 18.9008 15.8629 18.6508V18.5883C15.4129 18.9258 15.1129 19.4508 15.1129 20.0508V28.6633C15.1129 29.1383 15.3004 29.6008 15.6379 29.9383C15.9629 30.2758 16.4254 30.4633 16.9004 30.4633H29.1004C30.0879 30.4633 30.8879 29.6508 30.8879 28.6633V20.0508C30.8879 19.0633 30.0879 18.2633 29.1004 18.2633Z" fill="white"/>
<path fill-rule="evenodd" clip-rule="evenodd" d="M23.0004 19.7002C20.6254 19.7002 18.7004 21.6252 18.7004 24.0002C18.7004 26.3752 20.6254 28.3002 23.0004 28.3002C25.3754 28.3002 27.3004 26.3752 27.3004 24.0002C27.3004 21.6252 25.3754 19.7002 23.0004 19.7002ZM23.0004 27.5877C21.0254 27.5877 19.4129 25.9752 19.4129 24.0002C19.4129 22.0252 21.0254 20.4127 23.0004 20.4127C24.9754 20.4127 26.5879 22.0252 26.5879 24.0002C26.5879 25.9752 24.9754 27.5877 23.0004 27.5877Z" fill="white"/>
<path fill-rule="evenodd" clip-rule="evenodd" d="M23.0004 19.7002C20.6254 19.7002 18.7004 21.6252 18.7004 24.0002C18.7004 26.3752 20.6254 28.3002 23.0004 28.3002C25.3754 28.3002 27.3004 26.3752 27.3004 24.0002C27.3004 21.6252 25.3754 19.7002 23.0004 19.7002ZM23.0004 27.5877C21.0254 27.5877 19.4129 25.9752 19.4129 24.0002C19.4129 22.0252 21.0254 20.4127 23.0004 20.4127C24.9754 20.4127 26.5879 22.0252 26.5879 24.0002C26.5879 25.9752 24.9754 27.5877 23.0004 27.5877Z" fill="white"/>
<path d="M20.7379 18.1752H19.1629V16.6002C19.1629 16.3377 18.9504 16.1377 18.7004 16.1377C18.4504 16.1377 18.2254 16.3377 18.2254 16.6002V18.1877H16.6504C16.3879 18.1877 16.1879 18.4002 16.1879 18.6502C16.1879 18.9002 16.4004 19.1127 16.6504 19.1127H18.2379V20.7002C18.2379 20.9627 18.4504 21.1627 18.7004 21.1627C18.9504 21.1627 19.1629 20.9502 19.1629 20.7002V19.1127H20.7504C21.0129 19.1127 21.2129 18.9002 21.2129 18.6502C21.2129 18.4002 21.0004 18.1752 20.7379 18.1752Z" fill="white"/>
</svg>
