<svg width="22" height="22" viewBox="0 0 22 22" fill="none" xmlns="http://www.w3.org/2000/svg">
<path d="M9.83341 10.4074L8.40341 5.94202C8.35574 5.79576 8.2213 5.69574 8.0677 5.6933H8.06302C7.91065 5.6933 7.77478 5.78965 7.72609 5.93367L5.49758 12.3573C5.43198 12.543 5.53078 12.7465 5.71778 12.8109C5.75587 12.8252 5.79519 12.8311 5.8345 12.8311C5.98198 12.8311 6.12009 12.7384 6.17122 12.5907L7.04857 10.0634H8.97235L9.35145 11.2469L9.74989 12.4905C9.83972 12.1077 9.97559 11.7423 10.1514 11.4007L9.83341 10.4074ZM7.29628 9.34917L8.04978 7.17891L8.7438 9.34917H7.29628Z" fill="#272A3D"/>
<path d="M17.7229 11.1524H14.7755V10.1882C14.7755 9.99043 14.616 9.83093 14.4184 9.83093C14.2208 9.83093 14.0611 9.99043 14.0611 10.1882V11.1524H11.1137C10.9161 11.1524 10.7566 11.3131 10.7566 11.5095C10.7566 11.707 10.9161 11.8667 11.1137 11.8667H12.1552C12.1589 12.1012 12.1827 12.3571 12.2375 12.6308C12.3921 13.4143 12.8219 14.4511 13.8981 15.5534C13.4659 15.926 12.947 16.3046 12.3255 16.6809C12.1564 16.7831 12.1029 17.0033 12.2053 17.1712C12.2719 17.282 12.3899 17.3439 12.5113 17.3439C12.5742 17.3439 12.6374 17.3272 12.6956 17.2914C13.3791 16.8772 13.9468 16.4595 14.4184 16.0463C14.8897 16.4595 15.4575 16.8772 16.1409 17.2914C16.1979 17.3272 16.2623 17.3439 16.3254 17.3439C16.4456 17.3439 16.5634 17.282 16.6314 17.1712C16.7337 17.0033 16.6789 16.7831 16.511 16.6809C15.8897 16.3046 15.3707 15.9272 14.9374 15.5546C16.0136 14.4524 16.4444 13.4143 16.5992 12.6308C16.654 12.3571 16.6776 12.1012 16.6813 11.8667H17.7229C17.9206 11.8667 18.0801 11.707 18.0801 11.5095C18.0801 11.3131 17.9206 11.1524 17.7229 11.1524ZM14.4147 15.069C13.1898 13.8274 12.878 12.6797 12.8613 11.8667H15.9647C15.9421 12.681 15.6302 13.8309 14.4147 15.069Z" fill="#272A3D"/>
<path d="M8.04385 14.8441C7.97174 14.8441 7.89963 14.8426 7.82752 14.84C6.82326 14.8013 5.84935 14.4937 5.0107 13.9502L2.94006 14.4548C2.80113 14.4884 2.65487 14.4446 2.55811 14.3399C2.46115 14.235 2.42856 14.0859 2.47276 13.9502L3.13541 11.9293C2.65752 11.0464 2.4255 10.0515 2.4642 9.04767C2.52165 7.55778 3.15537 6.17953 4.24967 5.16651C5.34355 4.15349 6.76846 3.62793 8.25652 3.68456C10.7904 3.78193 12.9435 5.57717 13.4919 8.04993C13.5388 8.26199 13.4051 8.47201 13.1931 8.51886C12.9806 8.56612 12.7706 8.43208 12.7237 8.22003C12.2528 6.09621 10.4031 4.55438 8.22617 4.47065C6.94283 4.42238 5.72367 4.87358 4.78398 5.7438C3.8443 6.61402 3.29939 7.79815 3.2503 9.07802C3.21709 9.94071 3.41611 10.795 3.82596 11.549C3.92985 11.74 3.95063 11.968 3.8828 12.1745L3.44096 13.5224L4.81922 13.1853C5.03067 13.1338 5.25617 13.1719 5.43848 13.2902C6.15837 13.7565 6.99498 14.0207 7.85767 14.0539C8.17137 14.0661 8.48793 14.0476 8.79694 13.9987C9.01002 13.9645 9.2127 14.1109 9.24672 14.3256C9.28074 14.5401 9.13428 14.7416 8.91978 14.7754C8.63174 14.8212 8.3378 14.8441 8.04385 14.8441Z" fill="#272A3D"/>
<path d="M19.219 16.4362C19.7297 15.5776 19.9998 14.5925 19.9998 13.5874C19.9998 10.5097 17.4959 8.00574 14.4182 8.00574C14.1044 8.00574 13.7969 8.03181 13.4972 8.08172C13.2371 8.12511 12.9831 8.18642 12.7364 8.26464C11.5482 8.64089 10.5307 9.40498 9.83339 10.4074C9.64965 10.6716 9.48811 10.9523 9.35143 11.2469C9.02123 11.959 8.83667 12.752 8.83667 13.5874C8.83667 13.7241 8.84156 13.8596 8.85134 13.9938C8.87028 14.2568 8.90756 14.5147 8.96195 14.7665C9.50441 17.28 11.7447 19.1691 14.4182 19.1691C15.4232 19.1691 16.4083 18.8992 17.2674 18.3883C17.2688 18.3875 17.2704 18.3873 17.2718 18.3877L19.3166 18.9721C19.4535 19.0106 19.6018 18.9727 19.7026 18.8719C19.8039 18.7709 19.842 18.6232 19.8029 18.4859L19.219 16.4362ZM18.4623 16.657L18.8522 18.0214L17.488 17.6316C17.279 17.5719 17.052 17.6016 16.8654 17.7124C16.128 18.151 15.2817 18.3828 14.4182 18.3828C11.7741 18.3828 9.62317 16.2317 9.62317 13.5874C9.62317 13.2102 9.66697 12.8429 9.74987 12.4905C9.83971 12.1077 9.97558 11.7423 10.1514 11.4007C10.9477 9.85313 12.5612 8.79224 14.4182 8.79224C17.0622 8.79224 19.2135 10.9433 19.2135 13.5874C19.2135 14.4509 18.9817 15.2971 18.5429 16.0347C18.4321 16.2215 18.4026 16.4482 18.4623 16.657Z" fill="#272A3D"/>
</svg>
