<svg width="14" height="15" viewBox="0 0 14 15" fill="none" xmlns="http://www.w3.org/2000/svg">
<path fill-rule="evenodd" clip-rule="evenodd" d="M9.91602 11.875V10.3125C9.91602 10.1399 10.0466 9.99999 10.2077 9.99999C10.3688 9.99999 10.4993 10.1399 10.4993 10.3125V11.875H11.9577C12.1188 11.875 12.2493 12.0149 12.2493 12.1875C12.2493 12.3601 12.1188 12.5 11.9577 12.5H10.4993V14.0625C10.4993 14.2351 10.3688 14.375 10.2077 14.375C10.0466 14.375 9.91602 14.2351 9.91602 14.0625V12.5H8.45768C8.2966 12.5 8.16602 12.3601 8.16602 12.1875C8.16602 12.0149 8.2966 11.875 8.45768 11.875H9.91602ZM8.19142 8.47807C7.81657 8.6579 7.41039 8.75056 6.99967 8.74994C6.58983 8.7506 6.18448 8.65838 5.81026 8.47932L3.42967 9.63869C3.11706 9.79073 2.91631 10.1246 2.91634 10.4924V10.9374C2.91634 11.4552 3.30809 11.8749 3.79134 11.8749H6.70801C6.86909 11.8749 6.99967 12.0149 6.99967 12.1874C6.99967 12.36 6.86909 12.4999 6.70801 12.4999H3.79134C2.98593 12.4999 2.33301 11.8004 2.33301 10.9374V10.4924C2.33294 9.87977 2.66707 9.32359 3.18759 9.06994L5.20417 8.08807C4.22394 7.26777 3.83706 5.8717 4.24068 4.61118C4.64429 3.35066 5.74957 2.50306 6.99336 2.50025C8.23716 2.49744 9.34576 3.34005 9.75433 4.59874C10.1629 5.85743 9.78151 7.25523 8.80451 8.07994L10.3229 8.77494C10.4711 8.84294 10.5398 9.02679 10.4763 9.18557C10.4129 9.34435 10.2413 9.41794 10.0931 9.34994L8.19142 8.47807ZM6.99935 8.12499C8.28801 8.12499 9.33268 7.0057 9.33268 5.62499C9.33268 4.24428 8.28801 3.12499 6.99935 3.12499C5.71068 3.12499 4.66602 4.24428 4.66602 5.62499C4.66602 7.0057 5.71068 8.12499 6.99935 8.12499Z" fill="#121924"/>
<path d="M9.91602 11.875V12.125H10.166V11.875H9.91602ZM10.4993 11.875H10.2493V12.125H10.4993V11.875ZM10.4993 12.5V12.25H10.2493V12.5H10.4993ZM9.91602 12.5H10.166V12.25H9.91602V12.5ZM6.99967 8.74994L7.00005 8.49994L6.99927 8.49994L6.99967 8.74994ZM5.81026 8.47932L5.91816 8.2538L5.8093 8.20171L5.7008 8.25456L5.81026 8.47932ZM3.42967 9.63869L3.53902 9.86351L3.53914 9.86345L3.42967 9.63869ZM2.91634 10.4924H3.16634V10.4924L2.91634 10.4924ZM2.33301 10.4924H2.58301V10.4924L2.33301 10.4924ZM3.18759 9.06994L3.07815 8.84517L3.07808 8.84521L3.18759 9.06994ZM5.20417 8.08807L5.31362 8.31284L5.6605 8.14394L5.36462 7.89634L5.20417 8.08807ZM8.80451 8.07994L8.64325 7.88891L8.342 8.14319L8.70046 8.30726L8.80451 8.07994ZM10.3229 8.77494L10.4272 8.54772L10.427 8.54762L10.3229 8.77494ZM10.0931 9.34994L10.1974 9.12272L10.1973 9.12269L10.0931 9.34994ZM10.166 11.875V10.3125H9.66602V11.875H10.166ZM10.166 10.3125C10.166 10.2897 10.1745 10.2725 10.1842 10.2621C10.1936 10.252 10.202 10.25 10.2077 10.25V9.74999C9.89256 9.74999 9.66602 10.0184 9.66602 10.3125H10.166ZM10.2077 10.25C10.2134 10.25 10.2217 10.252 10.2312 10.2621C10.2409 10.2725 10.2493 10.2897 10.2493 10.3125H10.7493C10.7493 10.0184 10.5228 9.74999 10.2077 9.74999V10.25ZM10.2493 10.3125V11.875H10.7493V10.3125H10.2493ZM10.4993 12.125H11.9577V11.625H10.4993V12.125ZM11.9577 12.125C11.9634 12.125 11.9717 12.127 11.9812 12.1371C11.9909 12.1475 11.9993 12.1647 11.9993 12.1875H12.4993C12.4993 11.8934 12.2728 11.625 11.9577 11.625V12.125ZM11.9993 12.1875C11.9993 12.2103 11.9909 12.2275 11.9812 12.2379C11.9717 12.248 11.9634 12.25 11.9577 12.25V12.75C12.2728 12.75 12.4993 12.4816 12.4993 12.1875H11.9993ZM11.9577 12.25H10.4993V12.75H11.9577V12.25ZM10.2493 12.5V14.0625H10.7493V12.5H10.2493ZM10.2493 14.0625C10.2493 14.0853 10.2409 14.1025 10.2312 14.1129C10.2217 14.123 10.2134 14.125 10.2077 14.125V14.625C10.5228 14.625 10.7493 14.3566 10.7493 14.0625H10.2493ZM10.2077 14.125C10.202 14.125 10.1936 14.123 10.1842 14.1129C10.1745 14.1025 10.166 14.0853 10.166 14.0625H9.66602C9.66602 14.3566 9.89256 14.625 10.2077 14.625V14.125ZM10.166 14.0625V12.5H9.66602V14.0625H10.166ZM9.91602 12.25H8.45768V12.75H9.91602V12.25ZM8.45768 12.25C8.45199 12.25 8.44363 12.248 8.43421 12.2379C8.4245 12.2275 8.41602 12.2103 8.41602 12.1875H7.91602C7.91602 12.4816 8.14256 12.75 8.45768 12.75V12.25ZM8.41602 12.1875C8.41602 12.1647 8.4245 12.1475 8.43421 12.1371C8.44363 12.127 8.45199 12.125 8.45768 12.125V11.625C8.14256 11.625 7.91602 11.8934 7.91602 12.1875H8.41602ZM8.45768 12.125H9.91602V11.625H8.45768V12.125ZM8.08329 8.25266C7.74187 8.41646 7.37274 8.50051 7.00005 8.49994L6.9993 8.99994C7.44805 9.00062 7.89127 8.89935 8.29956 8.70347L8.08329 8.25266ZM6.99927 8.49994C6.62738 8.50054 6.25901 8.41689 5.91816 8.2538L5.70235 8.70483C6.10996 8.89986 6.55228 9.00066 7.00008 8.99994L6.99927 8.49994ZM5.7008 8.25456L3.32021 9.41393L3.53914 9.86345L5.91972 8.70408L5.7008 8.25456ZM3.32033 9.41387C2.9155 9.61076 2.6663 10.036 2.66634 10.4925L3.16634 10.4924C3.16632 10.2132 3.31861 9.97071 3.53902 9.86351L3.32033 9.41387ZM2.66634 10.4924V10.9374H3.16634V10.4924H2.66634ZM2.66634 10.9374C2.66634 11.5768 3.15406 12.1249 3.79134 12.1249V11.6249C3.46213 11.6249 3.16634 11.3337 3.16634 10.9374H2.66634ZM3.79134 12.1249H6.70801V11.6249H3.79134V12.1249ZM6.70801 12.1249C6.7137 12.1249 6.72206 12.127 6.73148 12.1371C6.74119 12.1474 6.74967 12.1647 6.74967 12.1874H7.24967C7.24967 11.8933 7.02313 11.6249 6.70801 11.6249V12.1249ZM6.74967 12.1874C6.74967 12.2102 6.74119 12.2274 6.73148 12.2378C6.72206 12.2479 6.7137 12.2499 6.70801 12.2499V12.7499C7.02313 12.7499 7.24967 12.4816 7.24967 12.1874H6.74967ZM6.70801 12.2499H3.79134V12.7499H6.70801V12.2499ZM3.79134 12.2499C3.13996 12.2499 2.58301 11.6788 2.58301 10.9374H2.08301C2.08301 11.9219 2.83189 12.7499 3.79134 12.7499V12.2499ZM2.58301 10.9374V10.4924H2.08301V10.9374H2.58301ZM2.58301 10.4924C2.58295 9.96833 2.86869 9.50344 3.2971 9.29468L3.07808 8.84521C2.46545 9.14374 2.08293 9.79121 2.08301 10.4925L2.58301 10.4924ZM3.29703 9.29471L5.31362 8.31284L5.09473 7.8633L3.07815 8.84517L3.29703 9.29471ZM5.36462 7.89634C4.46591 7.14427 4.1047 5.85566 4.47877 4.68741L4.00258 4.53494C3.56942 5.88774 3.98196 7.39127 5.04373 8.27979L5.36462 7.89634ZM4.47877 4.68741C4.85218 3.5212 5.86781 2.75279 6.99393 2.75025L6.9928 2.25025C5.63133 2.25332 4.43639 3.18011 4.00258 4.53494L4.47877 4.68741ZM6.99393 2.75025C8.12002 2.74771 9.13857 3.51148 9.51654 4.67592L9.99212 4.52155C9.55296 3.16861 8.3543 2.24718 6.9928 2.25025L6.99393 2.75025ZM9.51654 4.67592C9.89518 5.84242 9.53908 7.13271 8.64325 7.88891L8.96577 8.27098C10.0239 7.37775 10.4306 5.87243 9.99212 4.52155L9.51654 4.67592ZM8.70046 8.30726L10.2189 9.00226L10.427 8.54762L8.90855 7.85262L8.70046 8.30726ZM10.2187 9.00216C10.2271 9.00603 10.2379 9.0153 10.2448 9.03371C10.2517 9.05218 10.2519 9.07349 10.2442 9.09278L10.7085 9.27836C10.8175 9.00565 10.7058 8.67557 10.4272 8.54772L10.2187 9.00216ZM10.2442 9.09278C10.2367 9.1115 10.2255 9.1198 10.2179 9.12304C10.2109 9.12606 10.2047 9.1261 10.1974 9.12272L9.98883 9.57716C10.2778 9.70977 10.5965 9.55854 10.7085 9.27836L10.2442 9.09278ZM10.1973 9.12269L8.29562 8.25081L8.08723 8.70532L9.9889 9.5772L10.1973 9.12269ZM6.99935 8.37499C8.44205 8.37499 9.58268 7.12725 9.58268 5.62499H9.08268C9.08268 6.88416 8.13398 7.87499 6.99935 7.87499V8.37499ZM9.58268 5.62499C9.58268 4.12273 8.44205 2.87499 6.99935 2.87499V3.37499C8.13398 3.37499 9.08268 4.36582 9.08268 5.62499H9.58268ZM6.99935 2.87499C5.55665 2.87499 4.41602 4.12273 4.41602 5.62499H4.91602C4.91602 4.36582 5.86472 3.37499 6.99935 3.37499V2.87499ZM4.41602 5.62499C4.41602 7.12725 5.55665 8.37499 6.99935 8.37499V7.87499C5.86472 7.87499 4.91602 6.88416 4.91602 5.62499H4.41602Z" fill="black"/>
</svg>
