<svg width="15" height="14" viewBox="0 0 15 14" fill="none" xmlns="http://www.w3.org/2000/svg">
<path fill-rule="evenodd" clip-rule="evenodd" d="M5.39518 8.96553L6.50488 12.2344L7.06315 10.2941L6.78971 9.9939C6.66667 9.81356 6.63932 9.65605 6.70768 9.52023C6.85579 9.2269 7.16227 9.28169 7.44824 9.28169C7.74788 9.28169 8.1193 9.22462 8.21273 9.60127C8.24463 9.72682 8.20475 9.85922 8.11703 9.9939L7.84359 10.2941L8.40186 12.2344L9.40674 8.96553C10.1313 9.61839 12.2767 9.74965 13.0754 10.1959C13.3283 10.3375 13.5562 10.5166 13.7396 10.7586C14.0176 11.1273 14.1885 11.6078 14.2352 12.2184L14.4015 13.2833C14.3605 13.7148 14.1167 13.9636 13.6348 14.0012H7.4528H1.16715C0.685221 13.9647 0.441406 13.7159 0.400391 13.2833L0.566732 12.2184C0.613444 11.6078 0.784342 11.1273 1.06234 10.7586C1.24577 10.5155 1.47363 10.3363 1.72656 10.1959C2.52523 9.74965 4.67057 9.61839 5.39518 8.96553ZM4.89274 4.28707C4.75488 4.29277 4.6512 4.32131 4.58057 4.36924C4.53955 4.39664 4.50993 4.43202 4.49056 4.47311C4.46891 4.51876 4.4598 4.57469 4.46094 4.63975C4.46663 4.82922 4.56576 5.07575 4.75602 5.35995L4.7583 5.36452L5.37809 6.35294C5.62646 6.74899 5.88737 7.15304 6.21094 7.44979C6.52197 7.73513 6.90023 7.92803 7.40039 7.92917C7.94157 7.93031 8.33805 7.72943 8.6582 7.42811C8.99203 7.11423 9.25635 6.68508 9.51611 6.25592L10.2145 5.10314C10.3444 4.80525 10.3923 4.60665 10.3626 4.48909C10.3444 4.41947 10.2681 4.38522 10.1382 4.37952C10.1108 4.37838 10.0824 4.37838 10.0527 4.37838C10.022 4.37952 9.98893 4.3818 9.95475 4.38408C9.93652 4.38522 9.91829 4.38408 9.90121 4.38066C9.83854 4.38408 9.77474 4.37952 9.7098 4.37039L9.94906 3.31006C8.67188 3.29408 7.79801 3.07151 6.76465 2.40952C6.42513 2.19266 6.32259 1.94384 5.98307 1.96781C5.72673 2.01689 5.51139 2.13217 5.33936 2.31707C5.17529 2.49398 5.05111 2.73595 4.97022 3.04526L5.10579 4.29506C5.0306 4.29962 4.95882 4.29734 4.89274 4.28707ZM10.3774 4.0645C10.5495 4.117 10.66 4.22657 10.7044 4.40349C10.7546 4.5998 10.6999 4.87487 10.5347 5.25152C10.5312 5.25837 10.5278 5.26522 10.5244 5.27207L9.81804 6.43854C9.54574 6.88824 9.26888 7.33794 8.89974 7.68491C8.51807 8.0433 8.04639 8.28185 7.40267 8.28071C6.80111 8.27957 6.3488 8.04901 5.97738 7.70888C5.61849 7.38017 5.34391 6.95558 5.08301 6.54012L4.46322 5.55284C4.23649 5.21386 4.11914 4.90455 4.11117 4.65002C4.10775 4.53018 4.12826 4.42175 4.17155 4.32701C4.21826 4.22657 4.2889 4.14325 4.3846 4.07934C4.42904 4.04966 4.47917 4.02341 4.53499 4.00287C4.49512 3.46757 4.47917 2.79188 4.50537 2.2269C4.51904 2.09336 4.54411 1.95868 4.58171 1.824C4.74007 1.25674 5.1377 0.800192 5.62988 0.486316C5.80306 0.375604 5.99333 0.284295 6.19385 0.211247C7.38444 -0.222472 8.96354 0.0137907 9.80892 0.929167C10.153 1.30239 10.3695 1.79775 10.4162 2.45175L10.3774 4.0645Z" fill="black"/>
</svg>
