<svg width="19" height="19" viewBox="0 0 19 19" fill="none" xmlns="http://www.w3.org/2000/svg">
<path fill-rule="evenodd" clip-rule="evenodd" d="M9.79102 18.7822C4.82045 18.7822 0.791016 14.7528 0.791016 9.78223C0.791016 4.81166 4.82045 0.782227 9.79102 0.782227C14.7616 0.782227 18.791 4.81166 18.791 9.78223C18.791 14.7528 14.7616 18.7822 9.79102 18.7822Z" fill="black"/>
<path fill-rule="evenodd" clip-rule="evenodd" d="M9.7915 17.7261C14.1788 17.7261 17.7354 14.1695 17.7354 9.78223C17.7354 5.39496 14.1788 1.83838 9.7915 1.83838C5.40424 1.83838 1.84766 5.39496 1.84766 9.78223C1.84766 14.1695 5.40424 17.7261 9.7915 17.7261Z" fill="white"/>
<path fill-rule="evenodd" clip-rule="evenodd" d="M13.6459 10.5717C14.1344 10.7142 14.5059 11.1124 14.6143 11.6096C14.7226 12.1069 14.5504 12.6235 14.1654 12.9563C13.7804 13.2891 13.2442 13.3848 12.7679 13.2057L8.60026 11.8164C8.18582 11.6781 7.8606 11.3529 7.72228 10.9385L6.33307 6.77083C6.15394 6.2945 6.24959 5.75835 6.58238 5.37335C6.91518 4.98835 7.43184 4.81613 7.92908 4.92445C8.42631 5.03278 8.82452 5.40431 8.96702 5.89285L10.1367 9.40199L13.6459 10.5689V10.5717Z" stroke="black"/>
</svg>
