<svg width="389" height="417" viewBox="0 0 389 417" fill="none" xmlns="http://www.w3.org/2000/svg">
<g opacity="0.8">
<path fill-rule="evenodd" clip-rule="evenodd" d="M323.123 48.2044H322.399C312.548 48.2044 304.546 40.2634 304.546 30.4869V19.9521H340.976V30.4869C340.976 40.2634 332.974 48.2044 323.123 48.2044Z" fill="#DCEC9A"/>
<path fill-rule="evenodd" clip-rule="evenodd" d="M191.356 334.558H183.113V314.766H195.618L191.356 334.558Z" fill="#ADD314"/>
<path fill-rule="evenodd" clip-rule="evenodd" d="M174.87 314.765H317.975V53.3916H174.87V314.765Z" fill="#EDF5CB"/>
<path fill-rule="evenodd" clip-rule="evenodd" d="M183.113 334.558H174.87V314.766H186.973L183.113 334.558Z" fill="#EDF5CB"/>
<path fill-rule="evenodd" clip-rule="evenodd" d="M324.57 334.558H317.976V314.766H327.706L324.57 334.558Z" fill="#C8E262"/>
<path fill-rule="evenodd" clip-rule="evenodd" d="M309.732 334.558H317.975V314.766H305.872L309.732 334.558Z" fill="#EDF5CB"/>
<path fill-rule="evenodd" clip-rule="evenodd" d="M241.498 334.558H233.295V314.766H244.594L241.498 334.558Z" fill="#ADD314"/>
<path fill-rule="evenodd" clip-rule="evenodd" d="M360.517 334.558H352.917L350.103 314.766H360.517V334.558Z" fill="#ADD314"/>
<path fill-rule="evenodd" clip-rule="evenodd" d="M368.116 334.558H360.516L358.023 314.766H368.116V334.558Z" fill="#C8E262"/>
<path fill-rule="evenodd" clip-rule="evenodd" d="M233.295 334.558H225.052L221.956 314.766H233.295V334.558Z" fill="#C1DE4C"/>
<path fill-rule="evenodd" clip-rule="evenodd" d="M180.942 203.592H311.904V157.383H180.942V203.592Z" fill="#ADD314"/>
<path fill-rule="evenodd" clip-rule="evenodd" d="M180.942 203.592H221.473V157.383H180.942V203.592Z" fill="#C8E262"/>
<path fill-rule="evenodd" clip-rule="evenodd" d="M180.942 254.231H311.904V208.021H180.942V254.231Z" fill="#ADD314"/>
<path fill-rule="evenodd" clip-rule="evenodd" d="M180.942 254.231H221.473V208.021H180.942V254.231Z" fill="#C8E262"/>
<path fill-rule="evenodd" clip-rule="evenodd" d="M180.942 304.869H311.904V258.66H180.942V304.869Z" fill="#ADD314"/>
<path fill-rule="evenodd" clip-rule="evenodd" d="M180.942 304.869H221.473V258.66H180.942V304.869Z" fill="#C8E262"/>
<path fill-rule="evenodd" clip-rule="evenodd" d="M180.942 104.111H311.904V57.9014H180.942V104.111Z" fill="#ADD314"/>
<path fill-rule="evenodd" clip-rule="evenodd" d="M180.942 104.111H221.473V57.9014H180.942V104.111Z" fill="#C8E262"/>
<path fill-rule="evenodd" clip-rule="evenodd" d="M180.942 152.914H311.904V108.859H180.942V152.914Z" fill="#ADD314"/>
<path fill-rule="evenodd" clip-rule="evenodd" d="M180.942 152.914H221.473V108.859H180.942V152.914Z" fill="#C8E262"/>
<path fill-rule="evenodd" clip-rule="evenodd" d="M317.976 314.765H368.117V53.3916H317.976V314.765Z" fill="#C8E262"/>
<path fill-rule="evenodd" clip-rule="evenodd" d="M171.533 53.3923H313.231V44.9326H171.533V53.3923Z" fill="#E7F2BB"/>
<path fill-rule="evenodd" clip-rule="evenodd" d="M313.23 53.3923H371.413V44.9326H313.23V53.3923Z" fill="#C8E262"/>
<path fill-rule="evenodd" clip-rule="evenodd" d="M294.05 241.979C294.05 244.214 292.201 246.05 289.949 246.05H256.978V237.909H289.949C292.201 237.909 294.05 239.745 294.05 241.979Z" fill="#C8E262"/>
<path fill-rule="evenodd" clip-rule="evenodd" d="M271.614 241.979C271.614 243.296 270.568 244.334 269.241 244.334H257.018C256.978 244.334 256.978 244.294 256.978 244.294V239.665C256.978 239.625 257.018 239.625 257.018 239.625H269.241C270.528 239.625 271.614 240.702 271.614 241.979Z" fill="#DCEC9A"/>
<path fill-rule="evenodd" clip-rule="evenodd" d="M298.715 246.05V254.19H262.687C260.436 254.19 258.586 252.355 258.586 250.12C258.586 247.885 260.436 246.05 262.687 246.05H298.715Z" fill="#C8E262"/>
<path fill-rule="evenodd" clip-rule="evenodd" d="M298.715 247.806V252.474H283.958C282.672 252.474 281.586 251.437 281.586 250.12C281.586 248.843 282.631 247.766 283.958 247.766H298.715V247.806Z" fill="#DCEC9A"/>
<path fill-rule="evenodd" clip-rule="evenodd" d="M298.554 229.769V237.909H264.899C262.647 237.909 260.798 236.073 260.798 233.839C260.798 231.604 262.647 229.769 264.899 229.769H298.554Z" fill="#C8E262"/>
<path fill-rule="evenodd" clip-rule="evenodd" d="M298.555 231.524V236.193H286.17C284.883 236.193 283.798 235.156 283.798 233.839C283.798 232.562 284.843 231.484 286.17 231.484H298.555V231.524Z" fill="#DCEC9A"/>
<path fill-rule="evenodd" clip-rule="evenodd" d="M212.064 203.672H234.622V172.347H212.064V203.672Z" fill="#DCEC9A"/>
<path fill-rule="evenodd" clip-rule="evenodd" d="M212.064 171.23H234.622V169.314H212.064V171.23Z" fill="#DCEC9A"/>
<path fill-rule="evenodd" clip-rule="evenodd" d="M235.507 176.657H211.22C209.893 176.657 208.808 175.579 208.808 174.262V173.664C208.808 172.347 209.893 171.27 211.22 171.27H235.507C236.833 171.27 237.919 172.347 237.919 173.664V174.262C237.919 175.579 236.833 176.657 235.507 176.657Z" fill="#E7F2BB"/>
<path fill-rule="evenodd" clip-rule="evenodd" d="M194.171 304.869H229.032V280.607H194.171V304.869Z" fill="#EDF5CB"/>
<path fill-rule="evenodd" clip-rule="evenodd" d="M229.032 304.869H254.766V280.607H229.032V304.869Z" fill="#C8E262"/>
<path fill-rule="evenodd" clip-rule="evenodd" d="M222.197 292.738H201.328C201.328 290.623 203.057 288.907 205.188 288.907H218.296C220.468 288.867 222.197 290.583 222.197 292.738Z" fill="#C8E262"/>
<path fill-rule="evenodd" clip-rule="evenodd" d="M243.749 304.869H278.651V280.607H243.749V304.869Z" fill="#EDF5CB"/>
<path fill-rule="evenodd" clip-rule="evenodd" d="M278.65 304.869H304.344V280.607H278.65V304.869Z" fill="#C8E262"/>
<path fill-rule="evenodd" clip-rule="evenodd" d="M271.775 292.738H250.906C250.906 290.623 252.635 288.907 254.766 288.907H267.875C270.046 288.867 271.775 290.583 271.775 292.738Z" fill="#C8E262"/>
<path fill-rule="evenodd" clip-rule="evenodd" d="M203.62 104.11H238.482V79.8486H203.62V104.11Z" fill="#EDF5CB"/>
<path fill-rule="evenodd" clip-rule="evenodd" d="M238.481 104.11H264.175V79.8486H238.481V104.11Z" fill="#C8E262"/>
<path fill-rule="evenodd" clip-rule="evenodd" d="M231.606 91.9793H210.737C210.737 89.8643 212.466 88.1484 214.597 88.1484H227.706C229.877 88.1484 231.606 89.8643 231.606 91.9793Z" fill="#C8E262"/>
<path fill-rule="evenodd" clip-rule="evenodd" d="M277.565 146.848L280.782 115.803H290.834L294.051 146.848C294.373 150.12 291.799 152.914 288.502 152.914H283.114C279.817 152.914 277.244 150.12 277.565 146.848Z" fill="#C8E262"/>
<path fill-rule="evenodd" clip-rule="evenodd" d="M199.68 254.23H207.802V223.544H199.68V254.23Z" fill="#DCEC9A"/>
<path fill-rule="evenodd" clip-rule="evenodd" d="M191.598 254.23H199.68V223.544H191.598V254.23Z" fill="#EDF5CB"/>
<path fill-rule="evenodd" clip-rule="evenodd" d="M207.802 254.23H215.884V223.544H207.802V254.23Z" fill="#EDF5CB"/>
<path fill-rule="evenodd" clip-rule="evenodd" d="M237.195 254.23H215.884V223.544H237.195C238.321 223.544 239.245 224.462 239.245 225.579V252.155C239.245 253.313 238.321 254.23 237.195 254.23Z" fill="#DCEC9A"/>
<path fill-rule="evenodd" clip-rule="evenodd" d="M219.342 231.046H235.787V228.014H219.342V231.046Z" fill="#C8E262"/>
<path fill-rule="evenodd" clip-rule="evenodd" d="M223.001 235.714H232.128V232.682H223.001V235.714Z" fill="#C8E262"/>
<path fill-rule="evenodd" clip-rule="evenodd" d="M263.693 206.106C253.841 206.106 245.84 198.165 245.84 188.388V183.32H281.546V188.388C281.546 198.165 273.544 206.106 263.693 206.106Z" fill="#EDF5CB"/>
<path fill-rule="evenodd" clip-rule="evenodd" d="M282.35 138.828C282.35 144.813 279.174 150.041 274.429 152.954H256.938C252.193 150.041 249.017 144.813 249.017 138.828C249.017 136.034 249.7 133.44 250.906 131.126H280.46C281.667 133.44 282.35 136.034 282.35 138.828Z" fill="#DCEC9A"/>
</g>
<g opacity="0.8">
<path fill-rule="evenodd" clip-rule="evenodd" d="M51.709 326.737L37.5955 359.658H31.2022L39.6864 325.101L51.709 326.737Z" fill="#ADD314"/>
<path fill-rule="evenodd" clip-rule="evenodd" d="M123.845 326.737L109.731 359.658H103.338L111.822 325.101L123.845 326.737Z" fill="#ADD314"/>
<path fill-rule="evenodd" clip-rule="evenodd" d="M231.605 359.658H225.212L211.099 326.737L223.121 325.101L231.605 359.658Z" fill="#ADD314"/>
<path fill-rule="evenodd" clip-rule="evenodd" d="M159.47 359.658H153.076L138.963 326.737L150.986 325.101L159.47 359.658Z" fill="#ADD314"/>
<path fill-rule="evenodd" clip-rule="evenodd" d="M223.725 249.642V329.37L140.21 329.53L126.458 250.639L223.725 249.642ZM217.372 256.026L134.018 256.904L145.558 323.265L217.372 323.105V256.026Z" fill="#ADD314"/>
<path fill-rule="evenodd" clip-rule="evenodd" d="M114.154 200.639L136.591 329.569H38.6812L16.2042 200.639H114.154Z" fill="#C8E262"/>
<path fill-rule="evenodd" clip-rule="evenodd" d="M140.491 200.639L162.928 329.569H66.1842L43.7474 200.639H140.491Z" fill="#DCEC9A"/>
<path fill-rule="evenodd" clip-rule="evenodd" d="M164.456 329.569H49.2965C43.4259 329.569 38.641 324.82 38.641 318.994V294.653C38.641 288.827 43.4259 284.078 49.2965 284.078H164.456C170.326 284.078 175.111 288.827 175.111 294.653V318.994C175.111 324.86 170.326 329.569 164.456 329.569Z" fill="#C8E262"/>
<path fill-rule="evenodd" clip-rule="evenodd" d="M224.167 329.569H122.156V284.078H224.167V329.569Z" fill="#DCEC9A"/>
<path fill-rule="evenodd" clip-rule="evenodd" d="M122.156 249.642V329.37L38.6416 329.53L24.9302 250.679L122.156 249.642ZM115.803 256.026L32.4494 256.904L43.9894 323.225L115.803 323.105V256.026Z" fill="#ADD314"/>
</g>
<path d="M37.6707 126.769H32.5407L23.9607 113.779V126.769H18.8307V105.709H23.9607L32.5407 118.759V105.709H37.6707V126.769ZM49.0093 127.009C47.3693 127.009 45.8893 126.659 44.5693 125.959C43.2693 125.259 42.2393 124.259 41.4793 122.959C40.7393 121.659 40.3693 120.139 40.3693 118.399C40.3693 116.679 40.7493 115.169 41.5093 113.869C42.2693 112.549 43.3093 111.539 44.6293 110.839C45.9493 110.139 47.4293 109.789 49.0693 109.789C50.7093 109.789 52.1893 110.139 53.5093 110.839C54.8293 111.539 55.8693 112.549 56.6293 113.869C57.3893 115.169 57.7693 116.679 57.7693 118.399C57.7693 120.119 57.3793 121.639 56.5993 122.959C55.8393 124.259 54.7893 125.259 53.4493 125.959C52.1293 126.659 50.6493 127.009 49.0093 127.009ZM49.0093 122.599C49.9893 122.599 50.8193 122.239 51.4993 121.519C52.1993 120.779 52.5493 119.739 52.5493 118.399C52.5493 117.059 52.2093 116.029 51.5293 115.309C50.8693 114.569 50.0493 114.199 49.0693 114.199C48.0693 114.199 47.2393 114.559 46.5793 115.279C45.9193 115.999 45.5893 117.039 45.5893 118.399C45.5893 119.739 45.9093 120.779 46.5493 121.519C47.2093 122.239 48.0293 122.599 49.0093 122.599ZM69.8209 122.419V126.769H67.2109C65.3509 126.769 63.9009 126.319 62.8609 125.419C61.8209 124.499 61.3009 123.009 61.3009 120.949V114.289H59.2609V110.029H61.3009V105.949H66.4309V110.029H69.7909V114.289H66.4309V121.009C66.4309 121.509 66.5509 121.869 66.7909 122.089C67.0309 122.309 67.4309 122.419 67.9909 122.419H69.8209ZM82.9684 109.849C84.8884 109.849 86.4284 110.489 87.5884 111.769C88.7484 113.029 89.3284 114.769 89.3284 116.989V126.769H84.2284V117.679C84.2284 116.559 83.9384 115.689 83.3584 115.069C82.7784 114.449 81.9984 114.139 81.0184 114.139C80.0384 114.139 79.2584 114.449 78.6784 115.069C78.0984 115.689 77.8084 116.559 77.8084 117.679V126.769H72.6784V104.569H77.8084V112.279C78.3284 111.539 79.0384 110.949 79.9384 110.509C80.8384 110.069 81.8484 109.849 82.9684 109.849ZM95.4732 108.289C94.5732 108.289 93.8332 108.029 93.2532 107.509C92.6932 106.969 92.4132 106.309 92.4132 105.529C92.4132 104.729 92.6932 104.069 93.2532 103.549C93.8332 103.009 94.5732 102.739 95.4732 102.739C96.3532 102.739 97.0732 103.009 97.6332 103.549C98.2132 104.069 98.5032 104.729 98.5032 105.529C98.5032 106.309 98.2132 106.969 97.6332 107.509C97.0732 108.029 96.3532 108.289 95.4732 108.289ZM98.0232 110.029V126.769H92.8932V110.029H98.0232ZM111.941 109.849C113.901 109.849 115.461 110.489 116.621 111.769C117.801 113.029 118.391 114.769 118.391 116.989V126.769H113.291V117.679C113.291 116.559 113.001 115.689 112.421 115.069C111.841 114.449 111.061 114.139 110.081 114.139C109.101 114.139 108.321 114.449 107.741 115.069C107.161 115.689 106.871 116.559 106.871 117.679V126.769H101.741V110.029H106.871V112.249C107.391 111.509 108.091 110.929 108.971 110.509C109.851 110.069 110.841 109.849 111.941 109.849ZM128.316 109.789C129.496 109.789 130.526 110.029 131.406 110.509C132.306 110.989 132.996 111.619 133.476 112.399V110.029H138.606V126.739C138.606 128.279 138.296 129.669 137.676 130.909C137.076 132.169 136.146 133.169 134.886 133.909C133.646 134.649 132.096 135.019 130.236 135.019C127.756 135.019 125.746 134.429 124.206 133.249C122.666 132.089 121.786 130.509 121.566 128.509H126.636C126.796 129.149 127.176 129.649 127.776 130.009C128.376 130.389 129.116 130.579 129.996 130.579C131.056 130.579 131.896 130.269 132.516 129.649C133.156 129.049 133.476 128.079 133.476 126.739V124.369C132.976 125.149 132.286 125.789 131.406 126.289C130.526 126.769 129.496 127.009 128.316 127.009C126.936 127.009 125.686 126.659 124.566 125.959C123.446 125.239 122.556 124.229 121.896 122.929C121.256 121.609 120.936 120.089 120.936 118.369C120.936 116.649 121.256 115.139 121.896 113.839C122.556 112.539 123.446 111.539 124.566 110.839C125.686 110.139 126.936 109.789 128.316 109.789ZM133.476 118.399C133.476 117.119 133.116 116.109 132.396 115.369C131.696 114.629 130.836 114.259 129.816 114.259C128.796 114.259 127.926 114.629 127.206 115.369C126.506 116.089 126.156 117.089 126.156 118.369C126.156 119.649 126.506 120.669 127.206 121.429C127.926 122.169 128.796 122.539 129.816 122.539C130.836 122.539 131.696 122.169 132.396 121.429C133.116 120.689 133.476 119.679 133.476 118.399Z" fill="#ADD314"/>
<path d="M25.1767 147.232V150.422H23.2627C21.8987 150.422 20.8354 150.092 20.0727 149.432C19.31 148.757 18.9287 147.665 18.9287 146.154V141.27H17.4327V138.146H18.9287V135.154H22.6907V138.146H25.1547V141.27H22.6907V146.198C22.6907 146.565 22.7787 146.829 22.9547 146.99C23.1307 147.151 23.424 147.232 23.8347 147.232H25.1767ZM32.8602 150.598C31.6575 150.598 30.5722 150.341 29.6042 149.828C28.6509 149.315 27.8955 148.581 27.3382 147.628C26.7955 146.675 26.5242 145.56 26.5242 144.284C26.5242 143.023 26.8029 141.915 27.3602 140.962C27.9175 139.994 28.6802 139.253 29.6482 138.74C30.6162 138.227 31.7015 137.97 32.9042 137.97C34.1069 137.97 35.1922 138.227 36.1602 138.74C37.1282 139.253 37.8909 139.994 38.4482 140.962C39.0055 141.915 39.2842 143.023 39.2842 144.284C39.2842 145.545 38.9982 146.66 38.4262 147.628C37.8689 148.581 37.0989 149.315 36.1162 149.828C35.1482 150.341 34.0629 150.598 32.8602 150.598ZM32.8602 147.364C33.5789 147.364 34.1875 147.1 34.6862 146.572C35.1995 146.029 35.4562 145.267 35.4562 144.284C35.4562 143.301 35.2069 142.546 34.7082 142.018C34.2242 141.475 33.6229 141.204 32.9042 141.204C32.1709 141.204 31.5622 141.468 31.0782 141.996C30.5942 142.524 30.3522 143.287 30.3522 144.284C30.3522 145.267 30.5869 146.029 31.0562 146.572C31.5402 147.1 32.1415 147.364 32.8602 147.364ZM51.3438 150.598C50.2878 150.598 49.3418 150.415 48.5058 150.048C47.6698 149.681 47.0098 149.183 46.5258 148.552C46.0418 147.907 45.7705 147.188 45.7118 146.396H49.4298C49.4738 146.851 49.6645 147.217 50.0018 147.496C50.3538 147.76 50.7938 147.892 51.3218 147.892C51.7911 147.892 52.1505 147.797 52.3998 147.606C52.6638 147.415 52.7958 147.159 52.7958 146.836C52.7958 146.484 52.6125 146.22 52.2458 146.044C51.8791 145.868 51.2778 145.685 50.4418 145.494C49.5618 145.289 48.8285 145.076 48.2418 144.856C47.6698 144.636 47.1711 144.284 46.7458 143.8C46.3351 143.301 46.1298 142.641 46.1298 141.82C46.1298 141.101 46.3205 140.456 46.7018 139.884C47.0978 139.297 47.6698 138.835 48.4178 138.498C49.1658 138.146 50.0605 137.97 51.1018 137.97C52.6418 137.97 53.8518 138.351 54.7318 139.114C55.6265 139.877 56.1398 140.889 56.2718 142.15H52.7958C52.7371 141.695 52.5465 141.343 52.2238 141.094C51.9158 140.83 51.5051 140.698 50.9918 140.698C50.5518 140.698 50.2145 140.786 49.9798 140.962C49.7451 141.138 49.6278 141.387 49.6278 141.71C49.6278 142.062 49.8111 142.326 50.1778 142.502C50.5591 142.678 51.1458 142.854 51.9378 143.03C52.8325 143.25 53.5731 143.477 54.1598 143.712C54.7465 143.932 55.2525 144.299 55.6778 144.812C56.1031 145.311 56.3158 145.985 56.3158 146.836C56.3158 147.555 56.1178 148.2 55.7218 148.772C55.3258 149.344 54.7465 149.791 53.9838 150.114C53.2358 150.437 52.3558 150.598 51.3438 150.598ZM70.2114 144.064C70.2114 144.401 70.1894 144.761 70.1454 145.142H61.6314C61.6901 145.919 61.9321 146.513 62.3574 146.924C62.7827 147.335 63.3181 147.54 63.9634 147.54C64.9021 147.54 65.5547 147.144 65.9214 146.352H69.9254C69.7201 147.159 69.3461 147.885 68.8034 148.53C68.2754 149.175 67.6081 149.681 66.8014 150.048C65.9947 150.415 65.0927 150.598 64.0954 150.598C62.8927 150.598 61.8221 150.341 60.8834 149.828C59.9447 149.315 59.2114 148.581 58.6834 147.628C58.1554 146.675 57.8914 145.56 57.8914 144.284C57.8914 143.008 58.1481 141.893 58.6614 140.94C59.1894 139.987 59.9227 139.253 60.8614 138.74C61.8001 138.227 62.8781 137.97 64.0954 137.97C65.2834 137.97 66.3394 138.219 67.2634 138.718C68.1874 139.217 68.9061 139.928 69.4194 140.852C69.9474 141.776 70.2114 142.847 70.2114 144.064ZM66.3614 143.228C66.3614 142.524 66.1414 141.974 65.7014 141.578C65.2614 141.182 64.7114 140.984 64.0514 140.984C63.4061 140.984 62.8634 141.182 62.4234 141.578C61.9981 141.959 61.7341 142.509 61.6314 143.228H66.3614ZM83.768 144.064C83.768 144.401 83.746 144.761 83.702 145.142H75.188C75.2467 145.919 75.4887 146.513 75.914 146.924C76.3394 147.335 76.8747 147.54 77.52 147.54C78.4587 147.54 79.1114 147.144 79.478 146.352H83.482C83.2767 147.159 82.9027 147.885 82.36 148.53C81.832 149.175 81.1647 149.681 80.358 150.048C79.5514 150.415 78.6494 150.598 77.652 150.598C76.4494 150.598 75.3787 150.341 74.44 149.828C73.5014 149.315 72.768 148.581 72.24 147.628C71.712 146.675 71.448 145.56 71.448 144.284C71.448 143.008 71.7047 141.893 72.218 140.94C72.746 139.987 73.4794 139.253 74.418 138.74C75.3567 138.227 76.4347 137.97 77.652 137.97C78.84 137.97 79.896 138.219 80.82 138.718C81.744 139.217 82.4627 139.928 82.976 140.852C83.504 141.776 83.768 142.847 83.768 144.064ZM79.918 143.228C79.918 142.524 79.698 141.974 79.258 141.578C78.818 141.182 78.268 140.984 77.608 140.984C76.9627 140.984 76.42 141.182 75.98 141.578C75.5547 141.959 75.2907 142.509 75.188 143.228H79.918ZM98.3905 138.014C99.7985 138.014 100.928 138.483 101.778 139.422C102.629 140.346 103.054 141.622 103.054 143.25V150.422H99.3145V143.756C99.3145 142.935 99.1018 142.297 98.6765 141.842C98.2511 141.387 97.6791 141.16 96.9605 141.16C96.2418 141.16 95.6698 141.387 95.2445 141.842C94.8191 142.297 94.6065 142.935 94.6065 143.756V150.422H90.8445V134.142H94.6065V139.796C94.9878 139.253 95.5085 138.821 96.1685 138.498C96.8285 138.175 97.5691 138.014 98.3905 138.014ZM117.241 144.064C117.241 144.401 117.219 144.761 117.175 145.142H108.661C108.719 145.919 108.961 146.513 109.387 146.924C109.812 147.335 110.347 147.54 110.993 147.54C111.931 147.54 112.584 147.144 112.951 146.352H116.955C116.749 147.159 116.375 147.885 115.833 148.53C115.305 149.175 114.637 149.681 113.831 150.048C113.024 150.415 112.122 150.598 111.125 150.598C109.922 150.598 108.851 150.341 107.913 149.828C106.974 149.315 106.241 148.581 105.713 147.628C105.185 146.675 104.921 145.56 104.921 144.284C104.921 143.008 105.177 141.893 105.691 140.94C106.219 139.987 106.952 139.253 107.891 138.74C108.829 138.227 109.907 137.97 111.125 137.97C112.313 137.97 113.369 138.219 114.293 138.718C115.217 139.217 115.935 139.928 116.449 140.852C116.977 141.776 117.241 142.847 117.241 144.064ZM113.391 143.228C113.391 142.524 113.171 141.974 112.731 141.578C112.291 141.182 111.741 140.984 111.081 140.984C110.435 140.984 109.893 141.182 109.453 141.578C109.027 141.959 108.763 142.509 108.661 143.228H113.391ZM122.987 140.346C123.427 139.627 123.977 139.063 124.637 138.652C125.312 138.227 126.045 138.014 126.837 138.014V141.996H125.803C124.865 141.996 124.161 142.201 123.691 142.612C123.222 143.008 122.987 143.712 122.987 144.724V150.422H119.225V138.146H122.987V140.346ZM140.207 144.064C140.207 144.401 140.185 144.761 140.141 145.142H131.627C131.686 145.919 131.928 146.513 132.353 146.924C132.779 147.335 133.314 147.54 133.959 147.54C134.898 147.54 135.551 147.144 135.917 146.352H139.921C139.716 147.159 139.342 147.885 138.799 148.53C138.271 149.175 137.604 149.681 136.797 150.048C135.991 150.415 135.089 150.598 134.091 150.598C132.889 150.598 131.818 150.341 130.879 149.828C129.941 149.315 129.207 148.581 128.679 147.628C128.151 146.675 127.887 145.56 127.887 144.284C127.887 143.008 128.144 141.893 128.657 140.94C129.185 139.987 129.919 139.253 130.857 138.74C131.796 138.227 132.874 137.97 134.091 137.97C135.279 137.97 136.335 138.219 137.259 138.718C138.183 139.217 138.902 139.928 139.415 140.852C139.943 141.776 140.207 142.847 140.207 144.064ZM136.357 143.228C136.357 142.524 136.137 141.974 135.697 141.578C135.257 141.182 134.707 140.984 134.047 140.984C133.402 140.984 132.859 141.182 132.419 141.578C131.994 141.959 131.73 142.509 131.627 143.228H136.357Z" fill="#ADD314"/>
</svg>
