<svg width="468" height="521" viewBox="0 0 468 521" fill="none" xmlns="http://www.w3.org/2000/svg">
<path d="M223.72 508.895C225.993 507.186 238.838 497.786 235.428 487.998C234.291 484.658 231.449 482.094 216.559 474.248C194.961 462.828 184.277 457.157 175.865 457.002C159.042 456.847 144.834 465.858 138.013 473.704C135.74 476.423 128.693 484.813 131.762 495.456C135.513 508.662 151.767 515.11 154.723 516.275C177.229 525.287 207.692 520.626 223.72 508.895Z" fill="#EDF0F5"/>
<path fill-rule="evenodd" clip-rule="evenodd" d="M31.7275 230.728H23.7275V232.728H31.7275V240.728H33.7275V232.728H41.7275V230.728H33.7275V222.728H31.7275V230.728Z" fill="#C4C4C4"/>
<path fill-rule="evenodd" clip-rule="evenodd" d="M382.728 293.314L377.071 287.657L375.657 289.071L381.314 294.728L375.657 300.385L377.071 301.799L382.728 296.142L388.385 301.799L389.799 300.385L384.142 294.728L389.799 289.071L388.385 287.657L382.728 293.314Z" fill="#C4C4C4"/>
<path d="M31.5 72C41.7173 72 50 63.7173 50 53.5C50 43.2827 41.7173 35 31.5 35C21.2827 35 13 43.2827 13 53.5C13 63.7173 21.2827 72 31.5 72Z" stroke="#CED2D7" stroke-width="2"/>
<path d="M343 81C357.912 81 370 68.912 370 54C370 39.088 357.912 27 343 27C328.088 27 316 39.088 316 54C316 68.912 328.088 81 343 81Z" stroke="#CED2D7" stroke-width="2"/>
<path d="M116 362C121.523 362 126 357.523 126 352C126 346.477 121.523 342 116 342C110.477 342 106 346.477 106 352C106 357.523 110.477 362 116 362Z" stroke="#EDF0F5" stroke-width="3"/>
<path d="M290.602 199.251L220.398 158.749C216.892 156.737 214 151.314 214 146.59V68.5603C214 63.9241 216.892 61.7371 220.398 63.7491L290.602 104.251C294.108 106.263 297 111.686 297 116.41V194.44C297 199.076 294.108 201.263 290.602 199.251Z" fill="#EDF0F5"/>
<g filter="url(#filter0_d_4795_22289)">
<path d="M275.582 213.869L204.399 172.722C200.844 170.678 197.912 165.169 197.912 160.37V81.098C197.912 76.388 200.844 74.1663 204.399 76.2102L275.582 117.357C279.137 119.401 282.07 124.911 282.07 129.71V208.981C281.981 213.691 279.137 215.913 275.582 213.869Z" fill="#8A9759"/>
</g>
<path d="M252.818 151.109C259.851 146.997 259.79 133.806 252.681 121.645C245.572 109.484 234.106 102.96 227.073 107.072C220.039 111.184 220.101 124.375 227.21 136.536C234.319 148.697 245.784 155.221 252.818 151.109Z" fill="white"/>
<path d="M322.149 428.576L230.615 375.788C225.994 373.122 222.35 366.012 222.35 359.969V257.948C222.35 251.816 226.083 249.061 230.615 251.638L322.149 304.426C326.77 307.092 330.413 314.202 330.413 320.245V422.177C330.413 428.398 326.681 431.242 322.149 428.576Z" fill="#F4FFCE"/>
<path d="M308.108 427.954L223.15 378.898C218.884 376.41 215.418 369.834 215.418 364.146V269.501C215.418 263.813 218.884 261.236 223.15 263.635L308.108 312.691C312.373 315.179 315.839 321.756 315.839 327.443V422.089C315.75 427.776 312.373 430.353 308.108 427.954Z" stroke="#85A224" stroke-width="2.497" stroke-miterlimit="10" stroke-dasharray="8 5"/>
<path d="M281.229 355.811C289.746 350.832 289.662 334.842 281.041 320.097C272.421 305.352 258.529 297.435 250.012 302.414C241.496 307.393 241.58 323.382 250.2 338.128C258.82 352.873 272.713 360.79 281.229 355.811Z" stroke="#85A224" stroke-width="2.497" stroke-miterlimit="10" stroke-dasharray="8 5"/>
<path d="M300.376 391.607L230.793 351.438C228.838 350.282 227.238 347.261 227.238 344.684C227.238 342.107 228.838 340.862 230.793 342.018L300.376 382.186C302.331 383.342 303.931 386.363 303.931 388.94C303.931 391.518 302.331 392.762 300.376 391.607Z" stroke="#85A224" stroke-width="1.6647" stroke-miterlimit="10"/>
<path d="M300.376 407.692L230.793 367.523C228.838 366.368 227.238 363.346 227.238 360.769C227.238 358.192 228.838 356.948 230.793 358.103L300.376 398.272C302.331 399.427 303.931 402.449 303.931 405.026C303.931 407.603 302.331 408.847 300.376 407.692Z" stroke="#85A224" stroke-width="1.6647" stroke-miterlimit="10"/>
<path d="M269.095 183.476L210.797 149.794C209.198 148.817 207.865 146.328 207.865 144.107C207.865 141.885 209.198 140.907 210.797 141.885L269.095 175.566C270.694 176.544 272.027 179.032 272.027 181.254C272.027 183.387 270.783 184.364 269.095 183.476Z" fill="white"/>
<path d="M269.095 199.472L210.797 165.791C209.198 164.813 207.865 162.325 207.865 160.103C207.865 157.881 209.198 156.904 210.797 157.881L269.095 191.563C270.694 192.54 272.027 195.029 272.027 197.25C272.027 199.383 270.783 200.361 269.095 199.472Z" fill="white"/>
<path d="M381.513 245.95L310.33 204.804C306.775 202.76 303.842 197.25 303.842 192.451V113.18C303.842 108.47 306.775 106.249 310.33 108.293L381.513 149.439C385.068 151.483 388 156.993 388 161.792V241.063C387.911 245.773 385.068 247.994 381.513 245.95Z" fill="#EDF0F5"/>
<path d="M179.694 138.33L108.511 97.1838C104.956 95.1398 102.023 89.63 102.023 84.831V5.64883C102.023 0.938776 104.956 -1.28295 108.511 0.761038L179.694 41.9073C183.248 43.9513 186.181 49.4612 186.181 54.2601V133.531C186.181 138.241 183.248 140.463 179.694 138.33Z" fill="#EDF0F5"/>
<path d="M273.542 457.782L249.878 471.468C248.707 472.185 248.707 473.88 249.878 474.532L273.542 488.218C275.362 489.261 277.638 489.261 279.458 488.218L303.122 474.532C304.293 473.815 304.293 472.12 303.122 471.468L279.393 457.782C277.573 456.739 275.362 456.739 273.542 457.782Z" fill="#E5F8FF"/>
<path d="M272.383 432.131L240.035 450.793C238.436 451.771 238.436 454.082 240.035 454.97L272.383 473.633C274.871 475.055 277.982 475.055 280.47 473.633L312.818 454.97C314.418 453.993 314.418 451.682 312.818 450.793L280.47 432.131C277.893 430.709 274.871 430.709 272.383 432.131Z" fill="#D9EB93"/>
<path d="M60.1506 304.06L29.1386 321.99C27.6205 322.859 27.6205 325.141 29.1386 326.01L60.1506 343.94C62.5361 345.353 65.4639 345.353 67.8494 343.94L98.8614 326.01C100.379 325.141 100.379 322.859 98.8614 321.99L67.8494 304.06C65.4639 302.647 62.5361 302.647 60.1506 304.06Z" fill="#EDF0F5"/>
<path d="M59.1883 265.337L20.4232 287.963C18.5256 289.06 18.5256 291.94 20.4232 293.037L59.1883 315.663C62.1702 317.446 65.8298 317.446 68.8117 315.663L107.577 293.037C109.474 291.94 109.474 289.06 107.577 287.963L68.8117 265.337C65.8298 263.554 62.1702 263.554 59.1883 265.337Z" fill="#D9EB93"/>
<path d="M107.634 480.452L52.1599 448.601C50.7957 447.81 50 446.455 50 444.987V391.225C50 387.949 53.524 385.916 56.3659 387.611L111.84 419.461C113.204 420.252 114 421.607 114 423.075V476.837C114 480 110.476 482.033 107.634 480.452Z" fill="#D9EB93"/>
<path d="M254.165 337.308C253.365 337.308 252.565 337.219 251.765 336.952C250.877 336.686 242.879 334.108 233.547 327.088C229.904 324.333 229.193 319.178 231.859 315.535C234.614 311.891 239.768 311.18 243.412 313.846C250.521 319.178 256.564 321.134 256.653 321.134C261.008 322.467 263.407 327.088 262.074 331.442C260.919 334.997 257.631 337.308 254.165 337.308Z" fill="#CDD1D7"/>
<path d="M228.305 154.949C224.039 154.949 220.395 151.661 220.04 147.395C219.062 135.22 223.506 125.355 224.039 124.289C225.994 120.201 230.882 118.424 235.059 120.379C239.146 122.334 240.924 127.222 238.969 131.31C238.88 131.487 235.858 138.241 236.48 146.062C236.836 150.594 233.459 154.593 228.927 154.949C228.749 154.949 228.571 154.949 228.305 154.949Z" fill="#CDD1D7"/>
<path d="M243.501 320.245C241.901 320.245 240.479 319.089 240.213 317.49C239.946 315.712 241.101 314.024 242.968 313.668L250.966 312.335C252.743 312.069 254.432 313.224 254.787 315.09C255.054 316.868 253.898 318.556 252.032 318.912L244.034 320.245C243.856 320.245 243.679 320.245 243.501 320.245Z" fill="#CDD1D7"/>
<path d="M232.926 151.75C232.215 151.75 231.504 151.483 230.882 151.039C229.46 149.883 229.193 147.839 230.348 146.417L236.303 138.864C237.458 137.442 239.502 137.175 240.924 138.33C242.346 139.486 242.612 141.53 241.457 142.952L235.503 150.505C234.881 151.305 233.903 151.75 232.926 151.75Z" fill="#CDD1D7"/>
<path d="M144.413 479.764V473.099H146.901V476.476C150.367 473.81 159.432 466.967 161.298 465.634C165.83 462.345 170.54 462.79 173.206 464.834L175.161 468.566C175.161 469.277 174.984 470.077 174.628 470.877L164.675 485.363C163.075 488.651 156.855 489.539 151.256 487.318C146.724 485.54 144.147 482.43 144.413 479.764Z" fill="#6F5FE8"/>
<path d="M144.413 477.099C144.591 467.056 144.858 466.434 147.524 463.768C150.278 461.013 160.943 459.591 165.386 459.147C166.008 459.058 166.63 458.969 167.252 458.969C167.341 458.969 167.341 458.969 167.341 458.969C172.673 459.058 176.672 464.035 174.628 468.212L164.675 482.697C163.075 485.985 156.855 486.874 151.256 484.652C146.724 482.964 144.058 479.765 144.413 477.099Z" fill="#A87E7E"/>
<path d="M180.849 491.494L183.782 490.161C185.381 488.562 187.425 487.584 189.914 487.318C189.914 487.318 207.328 487.979 212.664 488.74C218 489.5 221.5 489.5 221.551 496.915C221.106 499.048 219.151 501.003 215.33 502.07L193.468 506.602C188.047 508.202 182.36 504.825 181.116 499.226C180.938 498.515 180.938 497.893 180.849 497.182V491.494Z" fill="#6F5FE8"/>
<path d="M215.241 500.382L193.379 504.914C187.958 506.514 182.271 503.137 181.027 497.538C179.783 491.762 180.671 481.631 190.358 480.831C199.6 480.12 208.309 483.764 212.486 485.363C217.551 487.229 220.84 490.784 221.373 493.539C221.995 496.205 220.04 498.96 215.241 500.382Z" fill="#A87E7E"/>
<path d="M164.764 238.663C160.32 238.663 156.233 235.553 155.255 231.021C154.1 225.777 157.388 220.534 162.631 219.379C205.91 209.692 213.463 197.784 215.507 164.369C215.863 158.948 220.484 154.949 225.816 155.215C231.237 155.571 235.325 160.192 234.969 165.524C232.126 210.225 216.218 227.288 166.808 238.308C166.275 238.663 165.475 238.663 164.764 238.663Z" fill="#ACD037"/>
<path d="M174.628 352.682C174.717 348.416 171.34 344.95 167.074 344.862C162.898 344.773 159.343 348.15 159.254 352.415C158.454 393.117 150.901 447.505 150.456 450.616L147.879 464.835C147.168 469.011 149.923 473.011 154.1 473.81C154.544 473.899 154.988 473.899 155.433 473.899C159.076 473.899 162.364 471.233 162.987 467.501L165.564 453.104V453.015C165.564 452.926 165.564 452.926 165.564 452.837C165.919 450.616 173.74 395.339 174.628 352.682Z" fill="#CDD1D7"/>
<path d="M199.689 472.211C199.689 471.944 199.334 447.15 199.334 385.119C199.334 380.854 195.868 377.388 191.602 377.388C187.336 377.388 183.871 380.854 183.871 385.119C183.871 447.239 184.137 472.122 184.226 472.389V486.074C184.226 490.34 187.692 493.806 191.958 493.806C196.223 493.806 199.689 490.34 199.689 486.074V472.3C199.689 472.3 199.689 472.3 199.689 472.211Z" fill="#CDD1D7"/>
<path d="M235.947 324.777C234.436 324.777 232.926 324.244 231.681 323.178C231.593 323.089 227.682 319.712 219.684 313.669C216.841 311.536 216.307 307.537 218.44 304.693C220.573 301.849 224.572 301.316 227.416 303.449C236.036 309.847 240.124 313.491 240.302 313.669C242.968 315.979 243.234 320.067 240.835 322.733C239.502 324.066 237.724 324.777 235.947 324.777Z" fill="#99D8E8"/>
<path d="M225.372 170.501C225.105 170.501 224.75 170.501 224.483 170.412C221.017 169.879 218.529 166.679 219.062 163.125L221.017 149.35C221.551 145.884 224.75 143.396 228.305 143.929C231.77 144.462 234.259 147.661 233.725 151.216L231.77 164.991C231.237 168.19 228.482 170.501 225.372 170.501Z" fill="#99D8E8"/>
<path d="M206.621 421.289C206.621 409.469 210.886 310.558 201.289 294.029C201.289 289.585 201.289 285.231 201.289 280.787C206.887 276.699 207.687 249.505 207.687 239.374C207.687 200.183 158.188 205.515 154.366 227.821C153.122 235.109 151.078 266.035 157.832 275.277V288.074C139.881 312.424 147.079 348.505 148.501 414.268C148.501 417.556 155.788 420.845 162.009 423.6C162.364 423.777 163.075 424.044 163.875 424.31C164.586 424.577 168.852 425.999 170.007 426.354C171.696 426.888 173.117 427.332 173.828 427.51C189.114 431.331 206.621 430.976 206.621 421.289Z" fill="#ACD037"/>
<path d="M157.743 275.277C157.743 277.854 161.12 280.52 166.008 282.653C167.43 283.275 173.739 285.319 175.339 285.764C187.425 288.696 201.2 288.43 201.2 280.787C201.2 280.787 201.2 280.787 201.2 294.028C201.2 301.671 187.425 301.938 175.339 299.005C173.651 298.561 167.341 296.517 166.008 295.895C161.12 293.762 157.743 291.096 157.743 288.519C157.743 285.853 157.743 275.277 157.743 275.277Z" fill="#370A18"/>
<path d="M223.594 318.29C221.106 318.29 218.618 317.312 216.752 315.446C193.824 292.607 191.868 287.541 186.981 237.597C186.448 232.265 190.358 227.466 195.779 226.933C201.111 226.399 205.91 230.31 206.443 235.731C210.975 282.12 211.686 282.92 230.526 301.583C234.347 305.404 234.347 311.536 230.615 315.357C228.571 317.312 226.083 318.29 223.594 318.29Z" fill="#ACD037"/>
<path d="M207.687 195.029C207.687 188.985 206.176 174.322 205.643 173.256C203.866 169.879 201.644 167.746 199.422 165.702C197.823 164.28 196.045 163.036 194.09 162.147C191.869 161.081 189.38 160.37 186.803 160.103C186.181 160.014 185.47 160.014 184.759 160.014C179.161 160.014 174.006 162.147 170.185 165.613C163.164 171.834 159.432 177.166 157.388 181.076C157.121 181.254 156.855 181.343 156.588 181.52C155.077 182.409 149.568 185.875 146.191 192.54C142.458 199.916 145.835 201.783 142.547 208.27C138.548 216.179 132.594 215.113 130.461 222.045C128.595 227.91 132.594 229.599 130.994 236.619C129.306 244.084 123.44 244.884 123.263 250.838C123.174 254.837 125.484 259.37 129.039 261.591C136.504 266.213 143.969 257.592 152.589 261.769C159.165 264.879 157.566 271.1 164.142 274.033C171.162 277.143 181.827 273.944 185.47 267.546C189.025 261.147 182.626 256.526 186.27 248.261C189.647 240.352 196.667 240.796 198.178 233.687C199.689 226.577 193.646 222.222 196.49 217.779C198.711 214.313 203.066 216.002 206.087 211.647C207.954 209.07 207.954 206.315 208.043 201.96C208.22 200.094 208.131 197.783 207.687 195.029Z" fill="#2A3646"/>
<g filter="url(#filter1_d_4795_22289)">
<path d="M165.76 106.508C177.539 99.6216 177.409 77.4829 165.47 57.0598C153.53 36.6367 134.302 25.663 122.523 32.5494C110.743 39.4358 110.873 61.5745 122.813 81.9976C134.753 102.42 153.981 113.394 165.76 106.508Z" fill="white"/>
</g>
<g filter="url(#filter2_d_4795_22289)">
<path d="M345.877 211.647C362.495 221.245 375.914 213.602 375.914 194.495C375.914 175.389 362.495 152.194 345.877 142.596C329.258 132.998 315.839 140.641 315.839 159.748C315.839 178.854 329.347 202.049 345.877 211.647Z" fill="white"/>
</g>
<path d="M6.825 122.7H12.425V126H2.55V108.45H6.825V122.7ZM20.8141 126.2C19.4474 126.2 18.2141 125.908 17.1141 125.325C16.0307 124.742 15.1724 123.908 14.5391 122.825C13.9224 121.742 13.6141 120.475 13.6141 119.025C13.6141 117.592 13.9307 116.333 14.5641 115.25C15.1974 114.15 16.0641 113.308 17.1641 112.725C18.2641 112.142 19.4974 111.85 20.8641 111.85C22.2307 111.85 23.4641 112.142 24.5641 112.725C25.6641 113.308 26.5307 114.15 27.1641 115.25C27.7974 116.333 28.1141 117.592 28.1141 119.025C28.1141 120.458 27.7891 121.725 27.1391 122.825C26.5057 123.908 25.6307 124.742 24.5141 125.325C23.4141 125.908 22.1807 126.2 20.8141 126.2ZM20.8141 122.5C21.6307 122.5 22.3224 122.2 22.8891 121.6C23.4724 121 23.7641 120.142 23.7641 119.025C23.7641 117.908 23.4807 117.05 22.9141 116.45C22.3641 115.85 21.6807 115.55 20.8641 115.55C20.0307 115.55 19.3391 115.85 18.7891 116.45C18.2391 117.033 17.9641 117.892 17.9641 119.025C17.9641 120.142 18.2307 121 18.7641 121.6C19.3141 122.2 19.9974 122.5 20.8141 122.5ZM36.732 126.2C35.3654 126.2 34.132 125.908 33.032 125.325C31.9487 124.742 31.0904 123.908 30.457 122.825C29.8404 121.742 29.532 120.475 29.532 119.025C29.532 117.592 29.8487 116.333 30.482 115.25C31.1154 114.15 31.982 113.308 33.082 112.725C34.182 112.142 35.4154 111.85 36.782 111.85C38.1487 111.85 39.382 112.142 40.482 112.725C41.582 113.308 42.4487 114.15 43.082 115.25C43.7154 116.333 44.032 117.592 44.032 119.025C44.032 120.458 43.707 121.725 43.057 122.825C42.4237 123.908 41.5487 124.742 40.432 125.325C39.332 125.908 38.0987 126.2 36.732 126.2ZM36.732 122.5C37.5487 122.5 38.2404 122.2 38.807 121.6C39.3904 121 39.682 120.142 39.682 119.025C39.682 117.908 39.3987 117.05 38.832 116.45C38.282 115.85 37.5987 115.55 36.782 115.55C35.9487 115.55 35.257 115.85 34.707 116.45C34.157 117.033 33.882 117.892 33.882 119.025C33.882 120.142 34.1487 121 34.682 121.6C35.232 122.2 35.9154 122.5 36.732 122.5ZM54.825 126L50.575 120.15V126H46.3V107.5H50.575V117.725L54.8 112.05H60.075L54.275 119.05L60.125 126H54.825ZM67.4291 126.2C66.2124 126.2 65.1291 125.992 64.1791 125.575C63.2291 125.158 62.4791 124.592 61.9291 123.875C61.3791 123.142 61.0708 122.325 61.0041 121.425H65.2291C65.2791 121.908 65.5041 122.3 65.9041 122.6C66.3041 122.9 66.7958 123.05 67.3791 123.05C67.9124 123.05 68.3208 122.95 68.6041 122.75C68.9041 122.533 69.0541 122.258 69.0541 121.925C69.0541 121.525 68.8458 121.233 68.4291 121.05C68.0124 120.85 67.3374 120.633 66.4041 120.4C65.4041 120.167 64.5708 119.925 63.9041 119.675C63.2374 119.408 62.6624 119 62.1791 118.45C61.6958 117.883 61.4541 117.125 61.4541 116.175C61.4541 115.375 61.6708 114.65 62.1041 114C62.5541 113.333 63.2041 112.808 64.0541 112.425C64.9208 112.042 65.9458 111.85 67.1291 111.85C68.8791 111.85 70.2541 112.283 71.2541 113.15C72.2708 114.017 72.8541 115.167 73.0041 116.6H69.0541C68.9874 116.117 68.7708 115.733 68.4041 115.45C68.0541 115.167 67.5874 115.025 67.0041 115.025C66.5041 115.025 66.1208 115.125 65.8541 115.325C65.5874 115.508 65.4541 115.767 65.4541 116.1C65.4541 116.5 65.6624 116.8 66.0791 117C66.5124 117.2 67.1791 117.4 68.0791 117.6C69.1124 117.867 69.9541 118.133 70.6041 118.4C71.2541 118.65 71.8208 119.067 72.3041 119.65C72.8041 120.217 73.0624 120.983 73.0791 121.95C73.0791 122.767 72.8458 123.5 72.3791 124.15C71.9291 124.783 71.2708 125.283 70.4041 125.65C69.5541 126.017 68.5624 126.2 67.4291 126.2ZM85.2674 107.5V126H80.9924V107.5H85.2674ZM90.5154 110.6C89.7654 110.6 89.1488 110.383 88.6654 109.95C88.1988 109.5 87.9654 108.95 87.9654 108.3C87.9654 107.633 88.1988 107.083 88.6654 106.65C89.1488 106.2 89.7654 105.975 90.5154 105.975C91.2488 105.975 91.8488 106.2 92.3154 106.65C92.7988 107.083 93.0404 107.633 93.0404 108.3C93.0404 108.95 92.7988 109.5 92.3154 109.95C91.8488 110.383 91.2488 110.6 90.5154 110.6ZM92.6404 112.05V126H88.3654V112.05H92.6404ZM104.263 126L100.013 120.15V126H95.7385V107.5H100.013V117.725L104.238 112.05H109.513L103.713 119.05L109.563 126H104.263ZM124.343 118.8C124.343 119.2 124.318 119.617 124.268 120.05H114.593C114.659 120.917 114.934 121.583 115.418 122.05C115.918 122.5 116.526 122.725 117.243 122.725C118.309 122.725 119.051 122.275 119.468 121.375H124.018C123.784 122.292 123.359 123.117 122.743 123.85C122.143 124.583 121.384 125.158 120.468 125.575C119.551 125.992 118.526 126.2 117.393 126.2C116.026 126.2 114.809 125.908 113.743 125.325C112.676 124.742 111.843 123.908 111.243 122.825C110.643 121.742 110.343 120.475 110.343 119.025C110.343 117.575 110.634 116.308 111.218 115.225C111.818 114.142 112.651 113.308 113.718 112.725C114.784 112.142 116.009 111.85 117.393 111.85C118.743 111.85 119.943 112.133 120.993 112.7C122.043 113.267 122.859 114.075 123.443 115.125C124.043 116.175 124.343 117.4 124.343 118.8ZM119.968 117.675C119.968 116.942 119.718 116.358 119.218 115.925C118.718 115.492 118.093 115.275 117.343 115.275C116.626 115.275 116.018 115.483 115.518 115.9C115.034 116.317 114.734 116.908 114.618 117.675H119.968Z" fill="#ADD314"/>
<path d="M14.28 137.96L9.42 147.36V152H6V147.36L1.14 137.96H5.02L7.74 143.84L10.44 137.96H14.28ZM20.738 152.16C19.6446 152.16 18.658 151.927 17.778 151.46C16.9113 150.993 16.2246 150.327 15.718 149.46C15.2246 148.593 14.978 147.58 14.978 146.42C14.978 145.273 15.2313 144.267 15.738 143.4C16.2446 142.52 16.938 141.847 17.818 141.38C18.698 140.913 19.6846 140.68 20.778 140.68C21.8713 140.68 22.858 140.913 23.738 141.38C24.618 141.847 25.3113 142.52 25.818 143.4C26.3246 144.267 26.578 145.273 26.578 146.42C26.578 147.567 26.318 148.58 25.798 149.46C25.2913 150.327 24.5913 150.993 23.698 151.46C22.818 151.927 21.8313 152.16 20.738 152.16ZM20.738 149.2C21.3913 149.2 21.9446 148.96 22.398 148.48C22.8646 148 23.098 147.313 23.098 146.42C23.098 145.527 22.8713 144.84 22.418 144.36C21.978 143.88 21.4313 143.64 20.778 143.64C20.1113 143.64 19.558 143.88 19.118 144.36C18.678 144.827 18.458 145.513 18.458 146.42C18.458 147.313 18.6713 148 19.098 148.48C19.538 148.96 20.0846 149.2 20.738 149.2ZM39.4123 140.84V152H35.9923V150.48C35.6457 150.973 35.1723 151.373 34.5723 151.68C33.9857 151.973 33.3323 152.12 32.6123 152.12C31.759 152.12 31.0057 151.933 30.3523 151.56C29.699 151.173 29.1923 150.62 28.8323 149.9C28.4723 149.18 28.2923 148.333 28.2923 147.36V140.84H31.6923V146.9C31.6923 147.647 31.8857 148.227 32.2723 148.64C32.659 149.053 33.179 149.26 33.8323 149.26C34.499 149.26 35.0257 149.053 35.4123 148.64C35.799 148.227 35.9923 147.647 35.9923 146.9V140.84H39.4123ZM45.2889 142.7C45.6889 142.087 46.1889 141.607 46.7889 141.26C47.3889 140.9 48.0556 140.72 48.7889 140.72V144.34H47.8489C46.9956 144.34 46.3556 144.527 45.9289 144.9C45.5022 145.26 45.2889 145.9 45.2889 146.82V152H41.8689V140.84H45.2889V142.7ZM65.3619 142.48C65.3619 143.293 65.1752 144.04 64.8019 144.72C64.4285 145.387 63.8552 145.927 63.0819 146.34C62.3085 146.753 61.3485 146.96 60.2019 146.96H58.0819V152H54.6619V137.96H60.2019C61.3219 137.96 62.2685 138.153 63.0419 138.54C63.8152 138.927 64.3952 139.46 64.7819 140.14C65.1685 140.82 65.3619 141.6 65.3619 142.48ZM59.9419 144.24C60.5952 144.24 61.0819 144.087 61.4019 143.78C61.7219 143.473 61.8819 143.04 61.8819 142.48C61.8819 141.92 61.7219 141.487 61.4019 141.18C61.0819 140.873 60.5952 140.72 59.9419 140.72H58.0819V144.24H59.9419ZM70.5623 142.7C70.9623 142.087 71.4623 141.607 72.0623 141.26C72.6623 140.9 73.329 140.72 74.0623 140.72V144.34H73.1223C72.269 144.34 71.629 144.527 71.2023 144.9C70.7757 145.26 70.5623 145.9 70.5623 146.82V152H67.1423V140.84H70.5623V142.7ZM80.777 152.16C79.6837 152.16 78.697 151.927 77.817 151.46C76.9504 150.993 76.2637 150.327 75.757 149.46C75.2637 148.593 75.017 147.58 75.017 146.42C75.017 145.273 75.2704 144.267 75.777 143.4C76.2837 142.52 76.977 141.847 77.857 141.38C78.737 140.913 79.7237 140.68 80.817 140.68C81.9104 140.68 82.897 140.913 83.777 141.38C84.657 141.847 85.3504 142.52 85.857 143.4C86.3637 144.267 86.617 145.273 86.617 146.42C86.617 147.567 86.357 148.58 85.837 149.46C85.3304 150.327 84.6304 150.993 83.737 151.46C82.857 151.927 81.8704 152.16 80.777 152.16ZM80.777 149.2C81.4304 149.2 81.9837 148.96 82.437 148.48C82.9037 148 83.137 147.313 83.137 146.42C83.137 145.527 82.9104 144.84 82.457 144.36C82.017 143.88 81.4704 143.64 80.817 143.64C80.1504 143.64 79.597 143.88 79.157 144.36C78.717 144.827 78.497 145.513 78.497 146.42C78.497 147.313 78.7104 148 79.137 148.48C79.577 148.96 80.1237 149.2 80.777 149.2ZM94.0314 143.68H92.1914V152H88.7714V143.68H87.5314V140.84H88.7714V140.52C88.7714 139.147 89.1647 138.107 89.9514 137.4C90.7381 136.68 91.8914 136.32 93.4114 136.32C93.6647 136.32 93.8514 136.327 93.9714 136.34V139.24C93.3181 139.2 92.8581 139.293 92.5914 139.52C92.3247 139.747 92.1914 140.153 92.1914 140.74V140.84H94.0314V143.68ZM97.3584 139.68C96.7584 139.68 96.2651 139.507 95.8784 139.16C95.5051 138.8 95.3184 138.36 95.3184 137.84C95.3184 137.307 95.5051 136.867 95.8784 136.52C96.2651 136.16 96.7584 135.98 97.3584 135.98C97.9451 135.98 98.4251 136.16 98.7984 136.52C99.1851 136.867 99.3784 137.307 99.3784 137.84C99.3784 138.36 99.1851 138.8 98.7984 139.16C98.4251 139.507 97.9451 139.68 97.3584 139.68ZM99.0584 140.84V152H95.6384V140.84H99.0584ZM104.957 137.2V152H101.537V137.2H104.957ZM117.955 146.24C117.955 146.56 117.935 146.893 117.895 147.24H110.155C110.209 147.933 110.429 148.467 110.815 148.84C111.215 149.2 111.702 149.38 112.275 149.38C113.129 149.38 113.722 149.02 114.055 148.3H117.695C117.509 149.033 117.169 149.693 116.675 150.28C116.195 150.867 115.589 151.327 114.855 151.66C114.122 151.993 113.302 152.16 112.395 152.16C111.302 152.16 110.329 151.927 109.475 151.46C108.622 150.993 107.955 150.327 107.475 149.46C106.995 148.593 106.755 147.58 106.755 146.42C106.755 145.26 106.989 144.247 107.455 143.38C107.935 142.513 108.602 141.847 109.455 141.38C110.309 140.913 111.289 140.68 112.395 140.68C113.475 140.68 114.435 140.907 115.275 141.36C116.115 141.813 116.769 142.46 117.235 143.3C117.715 144.14 117.955 145.12 117.955 146.24ZM114.455 145.34C114.455 144.753 114.255 144.287 113.855 143.94C113.455 143.593 112.955 143.42 112.355 143.42C111.782 143.42 111.295 143.587 110.895 143.92C110.509 144.253 110.269 144.727 110.175 145.34H114.455ZM125.718 139.68C125.118 139.68 124.624 139.507 124.238 139.16C123.864 138.8 123.678 138.36 123.678 137.84C123.678 137.307 123.864 136.867 124.238 136.52C124.624 136.16 125.118 135.98 125.718 135.98C126.304 135.98 126.784 136.16 127.158 136.52C127.544 136.867 127.738 137.307 127.738 137.84C127.738 138.36 127.544 138.8 127.158 139.16C126.784 139.507 126.304 139.68 125.718 139.68ZM127.418 140.84V152H123.998V140.84H127.418ZM134.436 152.16C133.463 152.16 132.596 151.993 131.836 151.66C131.076 151.327 130.476 150.873 130.036 150.3C129.596 149.713 129.35 149.06 129.296 148.34H132.676C132.716 148.727 132.896 149.04 133.216 149.28C133.536 149.52 133.93 149.64 134.396 149.64C134.823 149.64 135.15 149.56 135.376 149.4C135.616 149.227 135.736 149.007 135.736 148.74C135.736 148.42 135.57 148.187 135.236 148.04C134.903 147.88 134.363 147.707 133.616 147.52C132.816 147.333 132.15 147.14 131.616 146.94C131.083 146.727 130.623 146.4 130.236 145.96C129.85 145.507 129.656 144.9 129.656 144.14C129.656 143.5 129.83 142.92 130.176 142.4C130.536 141.867 131.056 141.447 131.736 141.14C132.43 140.833 133.25 140.68 134.196 140.68C135.596 140.68 136.696 141.027 137.496 141.72C138.31 142.413 138.776 143.333 138.896 144.48H135.736C135.683 144.093 135.51 143.787 135.216 143.56C134.936 143.333 134.563 143.22 134.096 143.22C133.696 143.22 133.39 143.3 133.176 143.46C132.963 143.607 132.856 143.813 132.856 144.08C132.856 144.4 133.023 144.64 133.356 144.8C133.703 144.96 134.236 145.12 134.956 145.28C135.783 145.493 136.456 145.707 136.976 145.92C137.496 146.12 137.95 146.453 138.336 146.92C138.736 147.373 138.943 147.987 138.956 148.76C138.956 149.413 138.77 150 138.396 150.52C138.036 151.027 137.51 151.427 136.816 151.72C136.136 152.013 135.343 152.16 134.436 152.16ZM9.04 170.72C10.3467 170.72 11.3867 171.147 12.16 172C12.9467 172.84 13.34 174 13.34 175.48V182H9.94V175.94C9.94 175.193 9.74667 174.613 9.36 174.2C8.97333 173.787 8.45333 173.58 7.8 173.58C7.14667 173.58 6.62667 173.787 6.24 174.2C5.85333 174.613 5.66 175.193 5.66 175.94V182H2.24V170.84H5.66V172.32C6.00667 171.827 6.47333 171.44 7.06 171.16C7.64667 170.867 8.30667 170.72 9.04 170.72ZM20.7966 182.16C19.7032 182.16 18.7166 181.927 17.8366 181.46C16.9699 180.993 16.2832 180.327 15.7766 179.46C15.2832 178.593 15.0366 177.58 15.0366 176.42C15.0366 175.273 15.2899 174.267 15.7966 173.4C16.3032 172.52 16.9966 171.847 17.8766 171.38C18.7566 170.913 19.7432 170.68 20.8366 170.68C21.9299 170.68 22.9166 170.913 23.7966 171.38C24.6766 171.847 25.3699 172.52 25.8766 173.4C26.3832 174.267 26.6366 175.273 26.6366 176.42C26.6366 177.567 26.3766 178.58 25.8566 179.46C25.3499 180.327 24.6499 180.993 23.7566 181.46C22.8766 181.927 21.8899 182.16 20.7966 182.16ZM20.7966 179.2C21.4499 179.2 22.0032 178.96 22.4566 178.48C22.9232 178 23.1566 177.313 23.1566 176.42C23.1566 175.527 22.9299 174.84 22.4766 174.36C22.0366 173.88 21.4899 173.64 20.8366 173.64C20.1699 173.64 19.6166 173.88 19.1766 174.36C18.7366 174.827 18.5166 175.513 18.5166 176.42C18.5166 177.313 18.7299 178 19.1566 178.48C19.5966 178.96 20.1432 179.2 20.7966 179.2ZM34.6709 179.1V182H32.9309C31.6909 182 30.7243 181.7 30.0309 181.1C29.3376 180.487 28.9909 179.493 28.9909 178.12V173.68H27.6309V170.84H28.9909V168.12H32.4109V170.84H34.6509V173.68H32.4109V178.16C32.4109 178.493 32.4909 178.733 32.6509 178.88C32.8109 179.027 33.0776 179.1 33.4509 179.1H34.6709ZM40.1342 176.42C40.1342 175.26 40.3676 174.247 40.8342 173.38C41.3142 172.513 41.9742 171.847 42.8142 171.38C43.6676 170.913 44.6409 170.68 45.7342 170.68C47.1342 170.68 48.3009 171.047 49.2342 171.78C50.1809 172.513 50.8009 173.547 51.0942 174.88H47.4542C47.1476 174.027 46.5542 173.6 45.6742 173.6C45.0476 173.6 44.5476 173.847 44.1742 174.34C43.8009 174.82 43.6142 175.513 43.6142 176.42C43.6142 177.327 43.8009 178.027 44.1742 178.52C44.5476 179 45.0476 179.24 45.6742 179.24C46.5542 179.24 47.1476 178.813 47.4542 177.96H51.0942C50.8009 179.267 50.1809 180.293 49.2342 181.04C48.2876 181.787 47.1209 182.16 45.7342 182.16C44.6409 182.16 43.6676 181.927 42.8142 181.46C41.9742 180.993 41.3142 180.327 40.8342 179.46C40.3676 178.593 40.1342 177.58 40.1342 176.42ZM58.0036 182.16C56.9103 182.16 55.9236 181.927 55.0436 181.46C54.1769 180.993 53.4903 180.327 52.9836 179.46C52.4903 178.593 52.2436 177.58 52.2436 176.42C52.2436 175.273 52.4969 174.267 53.0036 173.4C53.5103 172.52 54.2036 171.847 55.0836 171.38C55.9636 170.913 56.9503 170.68 58.0436 170.68C59.1369 170.68 60.1236 170.913 61.0036 171.38C61.8836 171.847 62.5769 172.52 63.0836 173.4C63.5903 174.267 63.8436 175.273 63.8436 176.42C63.8436 177.567 63.5836 178.58 63.0636 179.46C62.5569 180.327 61.8569 180.993 60.9636 181.46C60.0836 181.927 59.0969 182.16 58.0036 182.16ZM58.0036 179.2C58.6569 179.2 59.2103 178.96 59.6636 178.48C60.1303 178 60.3636 177.313 60.3636 176.42C60.3636 175.527 60.1369 174.84 59.6836 174.36C59.2436 173.88 58.6969 173.64 58.0436 173.64C57.3769 173.64 56.8236 173.88 56.3836 174.36C55.9436 174.827 55.7236 175.513 55.7236 176.42C55.7236 177.313 55.9369 178 56.3636 178.48C56.8036 178.96 57.3503 179.2 58.0036 179.2ZM79.898 170.72C81.2846 170.72 82.3846 171.14 83.198 171.98C84.0246 172.82 84.438 173.987 84.438 175.48V182H81.038V175.94C81.038 175.22 80.8446 174.667 80.458 174.28C80.0846 173.88 79.5646 173.68 78.898 173.68C78.2313 173.68 77.7046 173.88 77.318 174.28C76.9446 174.667 76.758 175.22 76.758 175.94V182H73.358V175.94C73.358 175.22 73.1646 174.667 72.778 174.28C72.4046 173.88 71.8846 173.68 71.218 173.68C70.5513 173.68 70.0246 173.88 69.638 174.28C69.2646 174.667 69.078 175.22 69.078 175.94V182H65.658V170.84H69.078V172.24C69.4246 171.773 69.878 171.407 70.438 171.14C70.998 170.86 71.6313 170.72 72.338 170.72C73.178 170.72 73.9246 170.9 74.578 171.26C75.2446 171.62 75.7646 172.133 76.138 172.8C76.5246 172.187 77.0513 171.687 77.718 171.3C78.3846 170.913 79.1113 170.72 79.898 170.72ZM90.2498 172.42C90.5832 171.9 91.0432 171.48 91.6298 171.16C92.2165 170.84 92.9032 170.68 93.6898 170.68C94.6098 170.68 95.4432 170.913 96.1898 171.38C96.9365 171.847 97.5232 172.513 97.9498 173.38C98.3898 174.247 98.6098 175.253 98.6098 176.4C98.6098 177.547 98.3898 178.56 97.9498 179.44C97.5232 180.307 96.9365 180.98 96.1898 181.46C95.4432 181.927 94.6098 182.16 93.6898 182.16C92.9165 182.16 92.2298 182 91.6298 181.68C91.0432 181.36 90.5832 180.947 90.2498 180.44V187.32H86.8298V170.84H90.2498V172.42ZM95.1298 176.4C95.1298 175.547 94.8898 174.88 94.4098 174.4C93.9432 173.907 93.3632 173.66 92.6698 173.66C91.9898 173.66 91.4098 173.907 90.9298 174.4C90.4632 174.893 90.2298 175.567 90.2298 176.42C90.2298 177.273 90.4632 177.947 90.9298 178.44C91.4098 178.933 91.9898 179.18 92.6698 179.18C93.3498 179.18 93.9298 178.933 94.4098 178.44C94.8898 177.933 95.1298 177.253 95.1298 176.4ZM103.824 167.2V182H100.404V167.2H103.824ZM116.822 176.24C116.822 176.56 116.803 176.893 116.763 177.24H109.023C109.076 177.933 109.296 178.467 109.683 178.84C110.083 179.2 110.569 179.38 111.143 179.38C111.996 179.38 112.589 179.02 112.923 178.3H116.563C116.376 179.033 116.036 179.693 115.543 180.28C115.063 180.867 114.456 181.327 113.723 181.66C112.989 181.993 112.169 182.16 111.263 182.16C110.169 182.16 109.196 181.927 108.343 181.46C107.489 180.993 106.823 180.327 106.343 179.46C105.863 178.593 105.623 177.58 105.623 176.42C105.623 175.26 105.856 174.247 106.323 173.38C106.803 172.513 107.469 171.847 108.323 171.38C109.176 170.913 110.156 170.68 111.263 170.68C112.343 170.68 113.303 170.907 114.143 171.36C114.983 171.813 115.636 172.46 116.103 173.3C116.583 174.14 116.822 175.12 116.822 176.24ZM113.323 175.34C113.323 174.753 113.123 174.287 112.723 173.94C112.323 173.593 111.823 173.42 111.223 173.42C110.649 173.42 110.163 173.587 109.763 173.92C109.376 174.253 109.136 174.727 109.043 175.34H113.323ZM124.847 179.1V182H123.107C121.867 182 120.9 181.7 120.207 181.1C119.513 180.487 119.167 179.493 119.167 178.12V173.68H117.807V170.84H119.167V168.12H122.587V170.84H124.827V173.68H122.587V178.16C122.587 178.493 122.667 178.733 122.827 178.88C122.987 179.027 123.253 179.1 123.627 179.1H124.847ZM137.272 176.24C137.272 176.56 137.252 176.893 137.212 177.24H129.472C129.525 177.933 129.745 178.467 130.132 178.84C130.532 179.2 131.018 179.38 131.592 179.38C132.445 179.38 133.038 179.02 133.372 178.3H137.012C136.825 179.033 136.485 179.693 135.992 180.28C135.512 180.867 134.905 181.327 134.172 181.66C133.438 181.993 132.618 182.16 131.712 182.16C130.618 182.16 129.645 181.927 128.792 181.46C127.938 180.993 127.272 180.327 126.792 179.46C126.312 178.593 126.072 177.58 126.072 176.42C126.072 175.26 126.305 174.247 126.772 173.38C127.252 172.513 127.918 171.847 128.772 171.38C129.625 170.913 130.605 170.68 131.712 170.68C132.792 170.68 133.752 170.907 134.592 171.36C135.432 171.813 136.085 172.46 136.552 173.3C137.032 174.14 137.272 175.12 137.272 176.24ZM133.772 175.34C133.772 174.753 133.572 174.287 133.172 173.94C132.772 173.593 132.272 173.42 131.672 173.42C131.098 173.42 130.612 173.587 130.212 173.92C129.825 174.253 129.585 174.727 129.492 175.34H133.772ZM138.396 176.4C138.396 175.253 138.609 174.247 139.036 173.38C139.476 172.513 140.069 171.847 140.816 171.38C141.563 170.913 142.396 170.68 143.316 170.68C144.049 170.68 144.716 170.833 145.316 171.14C145.929 171.447 146.409 171.86 146.756 172.38V167.2H150.176V182H146.756V180.4C146.436 180.933 145.976 181.36 145.376 181.68C144.789 182 144.103 182.16 143.316 182.16C142.396 182.16 141.563 181.927 140.816 181.46C140.069 180.98 139.476 180.307 139.036 179.44C138.609 178.56 138.396 177.547 138.396 176.4ZM146.756 176.42C146.756 175.567 146.516 174.893 146.036 174.4C145.569 173.907 144.996 173.66 144.316 173.66C143.636 173.66 143.056 173.907 142.576 174.4C142.109 174.88 141.876 175.547 141.876 176.4C141.876 177.253 142.109 177.933 142.576 178.44C143.056 178.933 143.636 179.18 144.316 179.18C144.996 179.18 145.569 178.933 146.036 178.44C146.516 177.947 146.756 177.273 146.756 176.42ZM13.64 200.84L6.64 217.3H2.96L5.52 211.62L0.98 200.84H4.8L7.38 207.82L9.94 200.84H13.64ZM25.3967 206.24C25.3967 206.56 25.3767 206.893 25.3367 207.24H17.5967C17.6501 207.933 17.8701 208.467 18.2567 208.84C18.6567 209.2 19.1434 209.38 19.7167 209.38C20.5701 209.38 21.1634 209.02 21.4967 208.3H25.1367C24.9501 209.033 24.6101 209.693 24.1167 210.28C23.6367 210.867 23.0301 211.327 22.2967 211.66C21.5634 211.993 20.7434 212.16 19.8367 212.16C18.7434 212.16 17.7701 211.927 16.9167 211.46C16.0634 210.993 15.3967 210.327 14.9167 209.46C14.4367 208.593 14.1967 207.58 14.1967 206.42C14.1967 205.26 14.4301 204.247 14.8967 203.38C15.3767 202.513 16.0434 201.847 16.8967 201.38C17.7501 200.913 18.7301 200.68 19.8367 200.68C20.9167 200.68 21.8767 200.907 22.7167 201.36C23.5567 201.813 24.2101 202.46 24.6767 203.3C25.1567 204.14 25.3967 205.12 25.3967 206.24ZM21.8967 205.34C21.8967 204.753 21.6967 204.287 21.2967 203.94C20.8967 203.593 20.3967 203.42 19.7967 203.42C19.2234 203.42 18.7367 203.587 18.3367 203.92C17.9501 204.253 17.7101 204.727 17.6167 205.34H21.8967ZM33.4209 209.1V212H31.6809C30.4409 212 29.4743 211.7 28.7809 211.1C28.0876 210.487 27.7409 209.493 27.7409 208.12V203.68H26.3809V200.84H27.7409V198.12H31.1609V200.84H33.4009V203.68H31.1609V208.16C31.1609 208.493 31.2409 208.733 31.4009 208.88C31.5609 209.027 31.8276 209.1 32.2009 209.1H33.4209ZM39.8259 197.46L39.4259 207.04H36.5259L36.1259 197.46H39.8259ZM38.0259 212.16C37.4259 212.16 36.9326 211.987 36.5459 211.64C36.1726 211.28 35.9859 210.84 35.9859 210.32C35.9859 209.787 36.1726 209.34 36.5459 208.98C36.9326 208.62 37.4259 208.44 38.0259 208.44C38.6126 208.44 39.0926 208.62 39.4659 208.98C39.8526 209.34 40.0459 209.787 40.0459 210.32C40.0459 210.84 39.8526 211.28 39.4659 211.64C39.0926 211.987 38.6126 212.16 38.0259 212.16Z" fill="#ADD314"/>
<path d="M84.056 485.531L40.6885 460.47C39.6221 459.848 39 458.781 39 457.626V415.324C39 412.747 41.7549 411.148 43.9766 412.481L87.3441 437.542C88.4105 438.164 89.0324 439.23 89.0324 440.385V482.687C89.0324 485.175 86.2777 486.775 84.056 485.531Z" fill="#EBF0FF"/>
<defs>
<filter id="filter0_d_4795_22289" x="177.912" y="55.4492" width="124.158" height="179.181" filterUnits="userSpaceOnUse" color-interpolation-filters="sRGB">
<feFlood flood-opacity="0" result="BackgroundImageFix"/>
<feColorMatrix in="SourceAlpha" type="matrix" values="0 0 0 0 0 0 0 0 0 0 0 0 0 0 0 0 0 0 127 0" result="hardAlpha"/>
<feOffset/>
<feGaussianBlur stdDeviation="10"/>
<feColorMatrix type="matrix" values="0 0 0 0 0.780392 0 0 0 0 0.780392 0 0 0 0 0.780392 0 0 0 0.7 0"/>
<feBlend mode="normal" in2="BackgroundImageFix" result="effect1_dropShadow_4795_22289"/>
<feBlend mode="normal" in="SourceGraphic" in2="effect1_dropShadow_4795_22289" result="shape"/>
</filter>
<filter id="filter1_d_4795_22289" x="103.772" y="20.4932" width="80.7373" height="98.0713" filterUnits="userSpaceOnUse" color-interpolation-filters="sRGB">
<feFlood flood-opacity="0" result="BackgroundImageFix"/>
<feColorMatrix in="SourceAlpha" type="matrix" values="0 0 0 0 0 0 0 0 0 0 0 0 0 0 0 0 0 0 127 0" result="hardAlpha"/>
<feOffset/>
<feGaussianBlur stdDeviation="5"/>
<feColorMatrix type="matrix" values="0 0 0 0 0.780392 0 0 0 0 0.780392 0 0 0 0 0.780392 0 0 0 0.6 0"/>
<feBlend mode="normal" in2="BackgroundImageFix" result="effect1_dropShadow_4795_22289"/>
<feBlend mode="normal" in="SourceGraphic" in2="effect1_dropShadow_4795_22289" result="shape"/>
</filter>
<filter id="filter2_d_4795_22289" x="305.839" y="128.454" width="80.0752" height="97.334" filterUnits="userSpaceOnUse" color-interpolation-filters="sRGB">
<feFlood flood-opacity="0" result="BackgroundImageFix"/>
<feColorMatrix in="SourceAlpha" type="matrix" values="0 0 0 0 0 0 0 0 0 0 0 0 0 0 0 0 0 0 127 0" result="hardAlpha"/>
<feOffset/>
<feGaussianBlur stdDeviation="5"/>
<feColorMatrix type="matrix" values="0 0 0 0 0.780392 0 0 0 0 0.780392 0 0 0 0 0.780392 0 0 0 0.6 0"/>
<feBlend mode="normal" in2="BackgroundImageFix" result="effect1_dropShadow_4795_22289"/>
<feBlend mode="normal" in="SourceGraphic" in2="effect1_dropShadow_4795_22289" result="shape"/>
</filter>
</defs>
</svg>
