<svg width="19" height="19" viewBox="0 0 19 19" fill="none" xmlns="http://www.w3.org/2000/svg">
<path fill-rule="evenodd" clip-rule="evenodd" d="M4.779 16.4859L2.514 14.2209C1.61201 15.2782 1.08313 16.6031 1.009 17.9909C2.39682 17.9168 3.72166 17.3879 4.779 16.4859ZM3.207 13.4999L5.5 15.7929L16.798 4.49488C16.9293 4.36361 17.0031 4.18555 17.0031 3.99988C17.0031 3.81422 16.9293 3.63616 16.798 3.50488L15.495 2.20188C15.3637 2.07059 15.1857 1.99683 15 1.99683C14.8143 1.99683 14.6363 2.07059 14.505 2.20188L3.207 13.4999ZM11.792 3.49988C11.0428 2.80504 9.87828 2.82713 9.156 3.54988L5.854 6.85488C5.72753 6.98136 5.54319 7.03075 5.37043 6.98446C5.19766 6.93817 5.06272 6.80322 5.01643 6.63046C4.97014 6.45769 5.01953 6.27336 5.146 6.14688L8.449 2.84488C9.5618 1.73207 11.3591 1.70988 12.499 2.79488L13.798 1.49588C14.4619 0.832101 15.5381 0.832101 16.202 1.49588L17.505 2.79888C18.1688 3.46276 18.1688 4.53901 17.505 5.20288L5.854 16.8539C4.4796 18.2281 2.61557 19.0001 0.672 18.9999H0.5C0.223858 18.9999 0 18.776 0 18.4999V18.3279C0 16.3849 0.772 14.5209 2.146 13.1459L11.792 3.50088V3.49988Z" fill="#121924"/>
</svg>
