<svg width="16" height="16" viewBox="0 0 16 16" fill="none" xmlns="http://www.w3.org/2000/svg">
<path d="M8.66667 7.33333H7.33333V6H8.66667V7.33333ZM8.66667 4H7.33333V5.33333H8.66667V4ZM10.6667 10H9.33333V11.3333H10.6667V10ZM10.6667 4H9.33333V5.33333H10.6667V4ZM10.6667 8H9.33333V9.33333H10.6667V8ZM10.6667 2H9.33333V3.33333H10.6667V2ZM10.6667 6H9.33333V7.33333H10.6667V6ZM8.66667 2H7.33333V3.33333H8.66667V2ZM6.66667 6H5.33333V7.33333H6.66667V6ZM6.66667 10H5.33333V11.3333H6.66667V10ZM6.66667 8H5.33333V9.33333H6.66667V8ZM12.0667 1.33333V15.3333H13V16H12.0667H9.66667H6.33333H3.93333H3V15.3333H3.93333V1.33333H3V0.666667H3.93333H4.86667V0H11.1333V0.666667H12.0667H13V1.33333H12.0667ZM9 13.6667C9 13.1153 8.55133 12.6667 8 12.6667C7.44867 12.6667 7 13.1153 7 13.6667V15.3333H9V13.6667ZM11.4 1.33333H4.6V15.3333H6.33333V13.6667C6.33333 12.7473 7.081 12 8 12C8.919 12 9.66667 12.7473 9.66667 13.6667V15.3333H11.4V1.33333ZM8.66667 10H7.33333V11.3333H8.66667V10ZM8.66667 8H7.33333V9.33333H8.66667V8ZM6.66667 4H5.33333V5.33333H6.66667V4ZM6.66667 2H5.33333V3.33333H6.66667V2Z" fill="black"/>
</svg>
