<svg width="78" height="77" viewBox="0 0 78 77" fill="none" xmlns="http://www.w3.org/2000/svg">
<g clip-path="url(#clip0_1384_36759)">
<path d="M39.1284 73.4175C58.7612 73.4175 74.6768 57.7086 74.6768 38.3308C74.6768 18.953 58.7612 3.24414 39.1284 3.24414C19.4956 3.24414 3.58008 18.953 3.58008 38.3308C3.58008 57.7086 19.4956 73.4175 39.1284 73.4175Z" fill="#272A3D" stroke="white" stroke-width="10.19" stroke-miterlimit="10"/>
<path fill-rule="evenodd" clip-rule="evenodd" d="M39.1285 27.4375C33.0326 27.4375 28.0918 32.3142 28.0918 38.3308C28.0918 44.3475 33.0326 49.2242 39.1285 49.2242C45.2243 49.2242 50.1651 44.3475 50.1651 38.3308C50.1651 32.3142 45.2243 27.4375 39.1285 27.4375ZM39.1285 47.4192C34.0593 47.4192 29.9205 43.3342 29.9205 38.3308C29.9205 33.3275 34.0593 29.2425 39.1285 29.2425C44.1976 29.2425 48.3364 33.3275 48.3364 38.3308C48.3364 43.3342 44.1976 47.4192 39.1285 47.4192Z" fill="white"/>
<path fill-rule="evenodd" clip-rule="evenodd" d="M54.785 23.7963H51.2238C50.2934 23.7963 49.4271 23.3213 48.9138 22.5613L47.438 20.3446C46.5717 19.1096 45.16 18.3496 43.588 18.3496H34.6688C33.0967 18.3496 31.685 19.1096 30.8188 20.3446L30.0809 21.4529V22.7829H31.3963L32.3588 21.3579C32.8721 20.5979 33.7384 20.1546 34.6688 20.1546H43.588C44.5184 20.1546 45.3846 20.5979 45.898 21.3579L47.4059 23.5746C48.24 24.8413 49.6838 25.6013 51.2238 25.6013H54.785C56.325 25.6013 57.5442 26.8363 57.5442 28.3246V50.1429C57.5442 51.6629 56.325 52.8663 54.785 52.8663H23.4717C21.9317 52.8663 20.7125 51.6629 20.7125 50.1429V28.3246C20.7125 27.5329 21.0655 26.8363 21.6109 26.3296C21.1296 25.9813 20.8088 25.4113 20.8088 24.7779V24.6196C19.6538 25.4746 18.8838 26.8046 18.8838 28.3246V50.1429C18.8838 51.3463 19.365 52.5179 20.2313 53.3729C21.0655 54.2279 22.2525 54.7029 23.4717 54.7029H54.785C57.3196 54.7029 59.373 52.6446 59.373 50.1429V28.3246C59.373 25.8229 57.3196 23.7963 54.785 23.7963Z" fill="white"/>
<path fill-rule="evenodd" clip-rule="evenodd" d="M39.1285 27.4375C33.0326 27.4375 28.0918 32.3142 28.0918 38.3308C28.0918 44.3475 33.0326 49.2242 39.1285 49.2242C45.2243 49.2242 50.1651 44.3475 50.1651 38.3308C50.1651 32.3142 45.2243 27.4375 39.1285 27.4375ZM39.1285 47.4192C34.0593 47.4192 29.9205 43.3342 29.9205 38.3308C29.9205 33.3275 34.0593 29.2425 39.1285 29.2425C44.1976 29.2425 48.3364 33.3275 48.3364 38.3308C48.3364 43.3342 44.1976 47.4192 39.1285 47.4192Z" fill="white"/>
<path fill-rule="evenodd" clip-rule="evenodd" d="M39.1285 27.4375C33.0326 27.4375 28.0918 32.3142 28.0918 38.3308C28.0918 44.3475 33.0326 49.2242 39.1285 49.2242C45.2243 49.2242 50.1651 44.3475 50.1651 38.3308C50.1651 32.3142 45.2243 27.4375 39.1285 27.4375ZM39.1285 47.4192C34.0593 47.4192 29.9205 43.3342 29.9205 38.3308C29.9205 33.3275 34.0593 29.2425 39.1285 29.2425C44.1976 29.2425 48.3364 33.3275 48.3364 38.3308C48.3364 43.3342 44.1976 47.4192 39.1285 47.4192Z" fill="white"/>
<path d="M33.3209 23.5738H29.2784V19.5838C29.2784 18.9188 28.733 18.4121 28.0913 18.4121C27.4497 18.4121 26.8722 18.9188 26.8722 19.5838V23.6054H22.8297C22.1559 23.6054 21.6426 24.1438 21.6426 24.7771C21.6426 25.4104 22.188 25.9488 22.8297 25.9488H26.9042V29.9704C26.9042 30.6354 27.4497 31.1421 28.0913 31.1421C28.733 31.1421 29.2784 30.6038 29.2784 29.9704V25.9488H33.353C34.0267 25.9488 34.5401 25.4104 34.5401 24.7771C34.5401 24.1438 33.9947 23.5738 33.3209 23.5738Z" fill="white"/>
</g>
<defs>
<clipPath id="clip0_1384_36759">
<rect width="77" height="76" fill="white" transform="translate(0.62793 0.330078)"/>
</clipPath>
</defs>
</svg>
