<svg width="9" height="10" viewBox="0 0 9 10" fill="none" xmlns="http://www.w3.org/2000/svg">
<path fill-rule="evenodd" clip-rule="evenodd" d="M6.7108 2.73997L7.37508 2.60389C7.6583 2.54594 7.94682 2.67577 8.09128 2.92618L8.43998 3.53003C8.58441 3.78032 8.55249 4.09495 8.36075 4.31114L7.91133 4.81785C7.98977 5.2464 7.98977 5.68563 7.91133 6.11418L8.36075 6.62089C8.55249 6.83709 8.58441 7.15171 8.43998 7.402L8.09083 8.0063C7.94637 8.25671 7.65785 8.38654 7.37463 8.32859L6.7108 8.19251C6.37934 8.47524 5.99904 8.69505 5.5886 8.84112L5.37463 9.48302C5.28334 9.7571 5.02698 9.94207 4.7381 9.94229H4.0407C3.75166 9.94226 3.49507 9.75725 3.40373 9.48302L3.18932 8.84112C2.77884 8.69492 2.39853 8.47495 2.06711 8.19206L1.40284 8.32814C1.11961 8.3861 0.831092 8.25626 0.686633 8.00585L0.337932 7.402C0.193504 7.15171 0.225418 6.83709 0.417162 6.62089L0.866579 6.11418C0.788145 5.68563 0.788145 5.2464 0.866579 4.81785L0.417162 4.31114C0.225418 4.09495 0.193504 3.78032 0.337932 3.53003L0.687081 2.92573C0.83154 2.67532 1.12006 2.54549 1.40328 2.60344L2.06711 2.73952C2.39857 2.45679 2.77888 2.23698 3.18932 2.09091L3.40328 1.44901C3.49457 1.17493 3.75093 0.989965 4.03981 0.989746H4.73721C5.02625 0.989773 5.28284 1.17478 5.37418 1.44901L5.58815 2.09091C5.99862 2.23711 6.37893 2.45708 6.71035 2.73997H6.7108ZM5.34381 2.48032C5.27564 2.45869 5.22191 2.40579 5.19923 2.33797L4.95035 1.59043C4.91987 1.49892 4.83418 1.43723 4.73772 1.43735H4.04032C3.94386 1.43723 3.85818 1.49892 3.8277 1.59043L3.57882 2.33797C3.55625 2.40597 3.50251 2.45905 3.43423 2.48076C3.00686 2.61762 2.61392 2.84478 2.28204 3.14683C2.22916 3.19496 2.15647 3.21492 2.08643 3.20055L1.31383 3.04209C1.21932 3.02263 1.12298 3.06593 1.07479 3.14952L0.726092 3.75382C0.677998 3.83738 0.688819 3.94234 0.752949 4.01433L1.27578 4.60431C1.32294 4.65768 1.34189 4.73031 1.32681 4.79992C1.23173 5.23888 1.23173 5.6931 1.32681 6.13206C1.34189 6.20167 1.32294 6.2743 1.27578 6.32767L0.752502 6.91764C0.688517 6.98973 0.677877 7.0947 0.726092 7.17816L1.07524 7.78246C1.12337 7.86587 1.21947 7.90914 1.31383 7.88989L2.08688 7.73143C2.15692 7.71706 2.22961 7.73702 2.28249 7.78514C2.61436 8.0872 3.00731 8.31436 3.43468 8.45121C3.50295 8.47293 3.5567 8.52601 3.57927 8.59401L3.82815 9.34154C3.85863 9.43306 3.94431 9.49475 4.04077 9.49463H4.73817C4.83463 9.49475 4.92031 9.43306 4.95079 9.34154L5.19968 8.59401C5.22224 8.52601 5.27599 8.47293 5.34426 8.45121C5.77163 8.31436 6.16458 8.0872 6.49645 7.78514C6.54933 7.73702 6.62202 7.71706 6.69206 7.73143L7.46512 7.88989C7.55962 7.90935 7.65596 7.86605 7.70415 7.78246L8.05285 7.17816C8.10094 7.0946 8.09012 6.98963 8.02599 6.91764L7.50316 6.32767C7.456 6.2743 7.43705 6.20167 7.45213 6.13206C7.54721 5.6931 7.54721 5.23888 7.45213 4.79992C7.43705 4.73031 7.456 4.65768 7.50316 4.60431L8.02644 4.01433C8.09042 3.94224 8.10107 3.83728 8.05285 3.75382L7.7037 3.14952C7.65557 3.06611 7.55947 3.02284 7.46512 3.04209L6.69206 3.20055C6.62202 3.21492 6.54933 3.19496 6.49645 3.14683C6.16458 2.84478 5.77163 2.61762 5.34426 2.48076L5.34381 2.48032ZM4.3899 7.25625C3.40103 7.25625 2.59939 6.45461 2.59939 5.46574C2.59939 4.47687 3.40103 3.67523 4.3899 3.67523C5.37877 3.67523 6.18041 4.47687 6.18041 5.46574C6.18041 6.45461 5.37877 7.25625 4.3899 7.25625ZM4.38733 6.80868C5.12898 6.80868 5.73021 6.20745 5.73021 5.4658C5.73021 4.72414 5.12898 4.12291 4.38733 4.12291C3.64568 4.12291 3.04445 4.72414 3.04445 5.4658C3.04445 6.20745 3.64568 6.80868 4.38733 6.80868Z" fill="black"/>
</svg>
