<svg width="4" height="14" viewBox="0 0 4 14" fill="none" xmlns="http://www.w3.org/2000/svg">
<path fill-rule="evenodd" clip-rule="evenodd" d="M3.50008 2.15858C3.50008 3.15033 2.73449 3.95431 1.79008 3.95431C0.845671 3.95431 0.0800781 3.15033 0.0800781 2.15858C0.0800781 1.16683 0.845671 0.362854 1.79008 0.362854C2.73449 0.362854 3.50008 1.16683 3.50008 2.15858ZM3.50008 7.00001C3.50008 7.99176 2.73449 8.79574 1.79008 8.79574C0.845671 8.79574 0.0800781 7.99176 0.0800781 7.00001C0.0800781 6.00826 0.845671 5.20428 1.79008 5.20428C2.73449 5.20428 3.50008 6.00826 3.50008 7.00001ZM1.79008 13.6372C2.73449 13.6372 3.50008 12.8332 3.50008 11.8414C3.50008 10.8497 2.73449 10.0457 1.79008 10.0457C0.845671 10.0457 0.0800781 10.8497 0.0800781 11.8414C0.0800781 12.8332 0.845671 13.6372 1.79008 13.6372Z" fill="black"/>
</svg>
