<svg width="54" height="56" viewBox="0 0 54 56" fill="none" xmlns="http://www.w3.org/2000/svg">
<path d="M43.3305 25.3067V43.5865C43.3305 44.8952 42.2683 45.9574 40.9595 45.9574H33.9084C32.5997 45.9574 31.5375 44.8952 31.5375 43.5865V36.3694C31.5375 35.0607 30.4753 33.9985 29.1666 33.9985H24.2587C22.95 33.9985 21.8878 35.0607 21.8878 36.3694V43.5865C21.8878 44.8952 20.8256 45.9574 19.5169 45.9574H12.3709C11.0622 45.9574 10 44.8952 10 43.5865V25.3067C10 24.6381 10.2845 23.9979 10.7824 23.5475L25.0791 10.6117C25.98 9.7961 27.3599 9.7961 28.2608 10.6117L42.5575 23.5475C43.0459 23.9979 43.3305 24.6381 43.3305 25.3067Z" fill="#ADD134" stroke="black" stroke-miterlimit="10"/>
</svg>
