<svg width="393" height="393" viewBox="0 0 393 393" fill="none" xmlns="http://www.w3.org/2000/svg">
<path d="M81.875 49.125H294.75C307.779 49.125 320.274 54.3007 329.487 63.5134C338.699 72.7261 343.875 85.2212 343.875 98.25V311.125C343.875 324.154 338.699 336.649 329.487 345.862C320.274 355.074 307.779 360.25 294.75 360.25H81.875C68.8462 360.25 56.3511 355.074 47.1384 345.862C37.9257 336.649 32.75 324.154 32.75 311.125V98.25C32.75 85.2212 37.9257 72.7261 47.1384 63.5134C56.3511 54.3007 68.8462 49.125 81.875 49.125ZM81.875 65.5C73.1892 65.5 64.8591 68.9504 58.7173 75.0923C52.5754 81.2341 49.125 89.5642 49.125 98.25V287.971L119.423 217.673L160.36 258.61L242.235 176.735L327.5 262V98.25C327.5 89.5642 324.05 81.2341 317.908 75.0923C311.766 68.9504 303.436 65.5 294.75 65.5H81.875ZM160.36 281.765L119.423 240.827L49.125 311.125C49.125 319.811 52.5754 328.141 58.7173 334.283C64.8591 340.425 73.1892 343.875 81.875 343.875H294.75C303.436 343.875 311.766 340.425 317.908 334.283C324.05 328.141 327.5 319.811 327.5 311.125V285.154L242.235 199.89L160.36 281.765ZM122.812 98.25C133.67 98.25 144.082 102.563 151.76 110.24C159.437 117.918 163.75 128.33 163.75 139.188C163.75 150.045 159.437 160.457 151.76 168.135C144.082 175.812 133.67 180.125 122.812 180.125C111.955 180.125 101.543 175.812 93.8653 168.135C86.188 160.457 81.875 150.045 81.875 139.188C81.875 128.33 86.188 117.918 93.8653 110.24C101.543 102.563 111.955 98.25 122.812 98.25ZM122.812 114.625C116.298 114.625 110.051 117.213 105.444 121.819C100.838 126.426 98.25 132.673 98.25 139.188C98.25 145.702 100.838 151.949 105.444 156.556C110.051 161.162 116.298 163.75 122.812 163.75C129.327 163.75 135.574 161.162 140.181 156.556C144.787 151.949 147.375 145.702 147.375 139.188C147.375 132.673 144.787 126.426 140.181 121.819C135.574 117.213 129.327 114.625 122.812 114.625Z" fill="#272A3D"/>
</svg>
