<svg width="17" height="19" viewBox="0 0 17 19" fill="none" xmlns="http://www.w3.org/2000/svg">
<path fill-rule="evenodd" clip-rule="evenodd" d="M15.2083 3.04167V15.7153C15.2083 17.1152 14.0735 18.25 12.6736 18.25H3.54861C2.14872 18.25 1.01389 17.1152 1.01389 15.7153V3.04167H0.506945C0.226967 3.04167 0 2.8147 0 2.53472C0 2.25474 0.226967 2.02778 0.506945 2.02778H5.06945V1.52083C5.06945 0.6809 5.75035 0 6.59028 0H9.63195C10.4719 0 11.1528 0.6809 11.1528 1.52083V2.02778H15.7153C15.9953 2.02778 16.2222 2.25474 16.2222 2.53472C16.2222 2.8147 15.9953 3.04167 15.7153 3.04167H15.2083ZM2.02734 3.0415V15.7151C2.02734 16.555 2.70824 17.2359 3.54818 17.2359H12.6732C13.5131 17.2359 14.194 16.555 14.194 15.7151V3.0415H2.02734ZM10.1395 2.02756V1.52062C10.1395 1.24064 9.91257 1.01367 9.6326 1.01367H6.59093C6.31095 1.01367 6.08398 1.24064 6.08398 1.52062V2.02756H10.1395ZM10.1388 6.59054C10.1388 6.31056 10.3658 6.08359 10.6457 6.08359C10.9257 6.08359 11.1527 6.31056 11.1527 6.59054V13.6878C11.1527 13.9677 10.9257 14.1947 10.6457 14.1947C10.3658 14.1947 10.1388 13.9677 10.1388 13.6878V6.59054ZM5.07031 6.59044C5.07031 6.31046 5.29728 6.0835 5.57726 6.0835C5.85723 6.0835 6.0842 6.31046 6.0842 6.59044V13.6877C6.0842 13.9676 5.85723 14.1946 5.57726 14.1946C5.29728 14.1946 5.07031 13.9676 5.07031 13.6877V6.59044Z" fill="black"/>
</svg>
