<svg width="21" height="20" viewBox="0 0 21 20" fill="none" xmlns="http://www.w3.org/2000/svg">
<path fill-rule="evenodd" clip-rule="evenodd" d="M6.369 9.299L2.313 11.386C1.81356 11.6433 1.49979 12.1582 1.5 12.72V13.5C1.5 14.3284 2.17157 15 3 15C3.27614 15 3.5 15.2239 3.5 15.5C3.5 15.7761 3.27614 16 3 16C1.61929 16 0.5 14.8807 0.5 13.5V12.72C0.499961 11.7835 1.02331 10.9255 1.856 10.497L5.214 8.769C3.75212 7.49338 3.16017 5.48721 3.69539 3.62231C4.23061 1.75741 5.79637 0.3705 7.71223 0.0642849C9.6281 -0.241931 11.5482 0.587838 12.638 2.193C12.7416 2.34069 12.7577 2.53276 12.68 2.69559C12.6023 2.85843 12.4428 2.96676 12.2628 2.97907C12.0828 2.99137 11.9102 2.90574 11.811 2.755C10.8928 1.40251 9.2441 0.744807 7.64713 1.09398C6.05016 1.44316 4.82636 2.72895 4.55645 4.34121C4.28654 5.95347 5.02483 7.56773 6.421 8.418C6.57809 8.51447 6.66936 8.68954 6.65848 8.87357C6.64761 9.05759 6.53636 9.2207 6.369 9.298V9.299ZM10.461 13.567L6.38 15.422C5.84409 15.6653 5.49995 16.1995 5.5 16.788V17.5C5.5 17.8978 5.65804 18.2794 5.93934 18.5607C6.22064 18.842 6.60218 19 7 19H18C18.8284 19 19.5 18.3284 19.5 17.5V16.788C19.5001 16.1995 19.1559 15.6653 18.62 15.422L14.539 13.567C13.8975 13.8535 13.2026 14.0011 12.5 14C11.7974 14.0011 11.1025 13.8535 10.461 13.567ZM9.422 12.941C7.74021 11.6273 7.07763 9.3909 7.77234 7.37305C8.46706 5.3552 10.3659 4.00071 12.5 4.00071C14.6341 4.00071 16.5329 5.3552 17.2277 7.37305C17.9224 9.3909 17.2598 11.6273 15.578 12.941L19.035 14.511C19.928 14.9171 20.5009 15.808 20.5 16.789V17.501C20.5 18.164 20.2366 18.7999 19.7678 19.2688C19.2989 19.7376 18.663 20.001 18 20.001H7C6.33679 20.001 5.70075 19.7375 5.23188 19.2684C4.76301 18.7994 4.49973 18.1632 4.5 17.5V16.788C4.49988 15.8077 5.07268 14.9178 5.965 14.512L9.422 12.941ZM12.5 13C14.7091 13 16.5 11.2091 16.5 9C16.5 6.79086 14.7091 5 12.5 5C10.2909 5 8.5 6.79086 8.5 9C8.5 11.2091 10.2909 13 12.5 13Z" fill="#121924"/>
</svg>
