<svg width="16" height="16" viewBox="0 0 16 16" fill="none" xmlns="http://www.w3.org/2000/svg">
<path d="M2.45238 4H9.69048C10.1704 4 10.6307 4.19065 10.97 4.53C11.3094 4.86935 11.5 5.32961 11.5 5.80952V11.2381C11.5 11.3581 11.4523 11.4731 11.3675 11.558C11.2827 11.6428 11.1676 11.6905 11.0476 11.6905H3.80952C3.32961 11.6905 2.86935 11.4998 2.53 11.1605C2.19065 10.8211 2 10.3609 2 9.88095V4.45238C2 4.3324 2.04766 4.21734 2.1325 4.1325C2.21734 4.04766 2.3324 4 2.45238 4Z" fill="#EC6969"/>
<path d="M11.5 6.94048L14.6667 5.13095V10.5595L11.5 8.75" fill="#EC6969"/>
<path d="M6.63534 6.61667C6.66296 6.61667 6.68534 6.63905 6.68534 6.66667V7.04314C6.68534 7.07076 6.66296 7.09314 6.63534 7.09314H4.76337L7.36869 9.6981C7.37806 9.70747 7.38333 9.72019 7.38333 9.73345C7.38333 9.74671 7.37807 9.75943 7.36869 9.76881L7.10214 10.0354C7.09277 10.0447 7.08005 10.05 7.06679 10.05C7.05352 10.05 7.04081 10.0447 7.03143 10.0354L4.42648 7.43004V9.30201C4.42648 9.32962 4.40409 9.35201 4.37648 9.35201H4C3.97239 9.35201 3.95 9.32962 3.95 9.30201V6.66667C3.95 6.63905 3.97239 6.61667 4 6.61667H6.63534Z" fill="#E0E0E0" stroke="#E0E0E0" stroke-width="0.1" stroke-linejoin="round"/>
<path d="M9.96716 7.30232C9.97689 7.29303 9.98246 7.2802 9.98261 7.26674C9.98277 7.25328 9.97749 7.24033 9.96797 7.23081L9.7018 6.96464C9.68259 6.94543 9.65156 6.94508 9.63191 6.96384L6.76991 9.6973C6.76017 9.70659 6.7546 9.71942 6.75444 9.73288C6.75429 9.74634 6.75957 9.75929 6.76908 9.76881L7.03563 10.0354C7.05484 10.0546 7.08588 10.0549 7.10552 10.0362L9.96716 7.30232Z" fill="#E0E0E0" stroke="#E0E0E0" stroke-width="0.1" stroke-linejoin="round"/>
</svg>
