<svg width="25" height="25" viewBox="0 0 25 25" fill="none" xmlns="http://www.w3.org/2000/svg">
<path fill-rule="evenodd" clip-rule="evenodd" d="M5.79681 13.7822H19.7968V7.28223C19.7968 6.4538 19.1252 5.78223 18.2968 5.78223H7.29681C6.46838 5.78223 5.79681 6.4538 5.79681 7.28223V13.7822ZM20.7968 14.1822L22.6818 18.7052C22.8748 19.1682 22.8235 19.6971 22.5452 20.1144C22.2669 20.5318 21.7984 20.7824 21.2968 20.7822H4.29681C3.79519 20.7824 3.3267 20.5318 3.04841 20.1144C2.77012 19.6971 2.71885 19.1682 2.91181 18.7052L4.79681 14.1822V7.28223C4.79681 5.90151 5.9161 4.78223 7.29681 4.78223H18.2968C19.6775 4.78223 20.7968 5.90151 20.7968 7.28223V14.1822ZM5.62981 14.7822L3.83481 19.0902C3.77061 19.2446 3.78781 19.4208 3.88064 19.5599C3.97346 19.6989 4.12963 19.7823 4.29681 19.7822H21.2968C21.464 19.7823 21.6202 19.6989 21.713 19.5599C21.8058 19.4208 21.823 19.2446 21.7588 19.0902L19.9638 14.7822H5.62981ZM7.29681 16.7822C7.02067 16.7822 6.79681 16.5584 6.79681 16.2822C6.79681 16.0061 7.02067 15.7822 7.29681 15.7822H8.29681C8.57295 15.7822 8.79681 16.0061 8.79681 16.2822C8.79681 16.5584 8.57295 16.7822 8.29681 16.7822H7.29681ZM6.29681 18.7822C6.02067 18.7822 5.79681 18.5584 5.79681 18.2822C5.79681 18.0061 6.02067 17.7822 6.29681 17.7822H7.29681C7.57295 17.7822 7.79681 18.0061 7.79681 18.2822C7.79681 18.5584 7.57295 18.7822 7.29681 18.7822H6.29681ZM9.29681 18.7822C9.02067 18.7822 8.79681 18.5584 8.79681 18.2822C8.79681 18.0061 9.02067 17.7822 9.29681 17.7822H13.2968C13.573 17.7822 13.7968 18.0061 13.7968 18.2822C13.7968 18.5584 13.573 18.7822 13.2968 18.7822H9.29681ZM15.2968 18.7822C15.0207 18.7822 14.7968 18.5584 14.7968 18.2822C14.7968 18.0061 15.0207 17.7822 15.2968 17.7822H16.2968C16.573 17.7822 16.7968 18.0061 16.7968 18.2822C16.7968 18.5584 16.573 18.7822 16.2968 18.7822H15.2968ZM18.2968 18.7822C18.0207 18.7822 17.7968 18.5584 17.7968 18.2822C17.7968 18.0061 18.0207 17.7822 18.2968 17.7822H19.2968C19.573 17.7822 19.7968 18.0061 19.7968 18.2822C19.7968 18.5584 19.573 18.7822 19.2968 18.7822H18.2968ZM10.2968 16.7822C10.0207 16.7822 9.79681 16.5584 9.79681 16.2822C9.79681 16.0061 10.0207 15.7822 10.2968 15.7822H11.2968C11.573 15.7822 11.7968 16.0061 11.7968 16.2822C11.7968 16.5584 11.573 16.7822 11.2968 16.7822H10.2968ZM13.2968 16.7822C13.0207 16.7822 12.7968 16.5584 12.7968 16.2822C12.7968 16.0061 13.0207 15.7822 13.2968 15.7822H14.2968C14.573 15.7822 14.7968 16.0061 14.7968 16.2822C14.7968 16.5584 14.573 16.7822 14.2968 16.7822H13.2968ZM16.2968 16.7822C16.0207 16.7822 15.7968 16.5584 15.7968 16.2822C15.7968 16.0061 16.0207 15.7822 16.2968 15.7822H17.2968C17.573 15.7822 17.7968 16.0061 17.7968 16.2822C17.7968 16.5584 17.573 16.7822 17.2968 16.7822H16.2968Z" fill="#121924"/>
</svg>
