<svg width="21" height="20" viewBox="0 0 21 20" fill="none" xmlns="http://www.w3.org/2000/svg">
<rect x="1" y="8.5" width="5" height="11" fill="#27213D"/>
<path d="M8 4.5L7 7.5L6.5 8L6 12.5V18L7.5 19.5L10.5 20H16.5L19 18.5L20 14.5L20.5 11.5L20 8.5L19.5 7.5L15.5 7H13L12.5 5L12 1.5L10.5 0L9 1L8 4.5Z" fill="#ADD134"/>
<path fill-rule="evenodd" clip-rule="evenodd" d="M1.33485 9.37884V18.1302C1.33485 18.4736 1.63249 18.7534 1.99777 18.7534H4.65841C5.02369 18.7534 5.32133 18.4736 5.32133 18.1302V9.37884C5.32133 9.03541 5.02369 8.75555 4.65841 8.75555H1.99777C1.63249 8.75555 1.33485 9.03541 1.33485 9.37884ZM5.98874 7.97965L7.16122 5.77486C7.70237 4.75726 7.98197 3.63789 7.98197 2.50158V2.18782C7.98197 0.979425 9.0237 0 10.3089 0C11.5942 0 12.6719 0.915833 12.7982 2.11575L13.2356 6.24973H17.6731C18.6111 6.24973 19.5085 6.62284 20.1398 7.2758C20.7712 7.92876 21.0778 8.80643 20.9831 9.68411L20.1849 17.1846C20.0135 18.7831 18.584 20 16.8749 20H8.64489C7.78807 20 6.95829 19.6862 6.34048 19.1266C5.98873 19.6523 5.3619 20 4.65389 20H1.99326C0.892918 20 0 19.1605 0 18.1259V9.3746C0 8.34004 0.892918 7.50053 1.99326 7.50053H4.65389C5.16799 7.50477 5.63699 7.68286 5.98874 7.97965ZM6.65164 9.52723V16.8794C6.65164 17.9139 7.54456 18.7534 8.64489 18.7534H16.8749C17.8986 18.7534 18.7554 18.0242 18.8591 17.0659L19.6573 9.5654C19.7114 9.03965 19.531 8.51387 19.1522 8.11955C18.7734 7.72524 18.2368 7.50053 17.6731 7.50053H12.6359C12.2931 7.50053 12.009 7.25885 11.973 6.93661L11.4724 2.24294C11.4138 1.67902 10.9087 1.2508 10.3044 1.2508C9.75425 1.2508 9.30779 1.67054 9.30779 2.18782V2.50158C9.30779 3.83293 8.97859 5.1431 8.34725 6.33454L6.65164 9.52723Z" fill="#272A3D"/>
</svg>
