<svg width="16" height="22" viewBox="0 0 16 22" fill="none" xmlns="http://www.w3.org/2000/svg">
<path fill-rule="evenodd" clip-rule="evenodd" d="M11.5 11H13V2.5C13 1.67157 12.3284 1 11.5 1H2.5C1.67157 1 1 1.67157 1 2.5V11H2.5V10.632C2.50066 9.75441 2.96142 8.94143 3.714 8.49L4.684 7.908C3.67895 6.68666 3.7948 4.89481 4.94875 3.81306C6.10271 2.7313 7.89829 2.7313 9.05225 3.81306C10.2062 4.89481 10.3221 6.68666 9.317 7.908L10.287 8.49C11.0395 8.94186 11.4999 9.75526 11.5 10.633V11ZM10.5 11V10.632C10.5 10.1052 10.2236 9.6171 9.772 9.346L8.513 8.591C8.069 8.851 7.552 9 7 9C6.46825 9.00082 5.94592 8.85962 5.487 8.591L4.228 9.346C3.77636 9.6171 3.50003 10.1052 3.5 10.632V11H10.5ZM13 12H1V17.5C1 18.3284 1.67157 19 2.5 19H11.5C12.3284 19 13 18.3284 13 17.5V12ZM13.958 2.042C15.1418 2.26261 16.0002 3.2958 16 4.5V19.5C16 20.8807 14.8807 22 13.5 22H4.5C3.2958 22.0002 2.26261 21.1418 2.042 19.958C0.858182 19.7374 -0.000149705 18.7042 1.95849e-08 17.5V2.5C1.95849e-08 1.11929 1.11929 1.95849e-08 2.5 1.95849e-08H11.5C12.7042 -0.000149705 13.7374 0.858182 13.958 2.042ZM3.085 20C3.29699 20.5996 3.86404 21.0003 4.5 21H13.5C14.3284 21 15 20.3284 15 19.5V4.5C15.0003 3.86404 14.5996 3.29699 14 3.085V17.5C14 18.8807 12.8807 20 11.5 20H3.085ZM7 8C8.10457 8 9 7.10457 9 6C9 4.89543 8.10457 4 7 4C5.89543 4 5 4.89543 5 6C5 7.10457 5.89543 8 7 8ZM3.5 15C3.22386 15 3 14.7761 3 14.5C3 14.2239 3.22386 14 3.5 14H10.5C10.7761 14 11 14.2239 11 14.5C11 14.7761 10.7761 15 10.5 15H3.5ZM3.5 17C3.22386 17 3 16.7761 3 16.5C3 16.2239 3.22386 16 3.5 16H8.5C8.77614 16 9 16.2239 9 16.5C9 16.7761 8.77614 17 8.5 17H3.5Z" fill="#121924"/>
</svg>
