<svg width="11" height="21" viewBox="0 0 11 21" fill="none" xmlns="http://www.w3.org/2000/svg">
<path d="M11 5V15.5C11 18.54 8.54 21 5.5 21C2.46 21 0 18.54 0 15.5V4C0 1.79 1.79 0 4 0C6.21 0 8 1.79 8 4V14.5C8 15.163 7.73661 15.7989 7.26777 16.2678C6.79893 16.7366 6.16304 17 5.5 17C4.83696 17 4.20107 16.7366 3.73223 16.2678C3.26339 15.7989 3 15.163 3 14.5V5H4V14.5C4 14.8978 4.15804 15.2794 4.43934 15.5607C4.72064 15.842 5.10218 16 5.5 16C5.89782 16 6.27936 15.842 6.56066 15.5607C6.84196 15.2794 7 14.8978 7 14.5V4C7 3.20435 6.68393 2.44129 6.12132 1.87868C5.55871 1.31607 4.79565 1 4 1C3.20435 1 2.44129 1.31607 1.87868 1.87868C1.31607 2.44129 1 3.20435 1 4V15.5C1 16.6935 1.47411 17.8381 2.31802 18.682C3.16193 19.5259 4.30653 20 5.5 20C6.69347 20 7.83807 19.5259 8.68198 18.682C9.52589 17.8381 10 16.6935 10 15.5V5H11Z" fill="black"/>
</svg>
