<svg width="6" height="8" viewBox="0 0 6 8" fill="none" xmlns="http://www.w3.org/2000/svg">
<path d="M2.98701 0.845215C1.61189 0.845215 0.493164 1.96394 0.493164 3.33906C0.493164 3.90648 0.679112 4.44085 1.03091 4.88443C1.48643 5.45876 2.81109 6.82243 2.86724 6.88019L2.98699 7.00339L3.10676 6.88021C3.16295 6.82242 4.48801 5.45844 4.94359 4.88392C5.29508 4.4407 5.48086 3.90651 5.48086 3.33906C5.48086 1.96394 4.36213 0.845215 2.98701 0.845215ZM4.68183 4.67635C4.31507 5.13883 3.33014 6.16764 2.98701 6.52348C2.64391 6.16766 1.65933 5.13914 1.29266 4.67683C0.988185 4.29291 0.827243 3.83032 0.827243 3.33906C0.827243 2.14815 1.7961 1.17929 2.98701 1.17929C4.1779 1.17929 5.14678 2.14815 5.14676 3.33906C5.14676 3.83036 4.98599 4.29279 4.68183 4.67635Z" fill="black"/>
<path d="M2.98596 1.83496C2.17198 1.83496 1.50977 2.49717 1.50977 3.31115C1.50977 4.12514 2.17199 4.78735 2.98596 4.78735C3.79992 4.78735 4.46215 4.12512 4.46215 3.31115C4.46215 2.49719 3.79994 1.83496 2.98596 1.83496ZM2.98596 4.45327C2.35619 4.45327 1.84384 3.94091 1.84384 3.31115C1.84384 2.68138 2.3562 2.16904 2.98596 2.16904C3.61571 2.16904 4.12806 2.6814 4.12807 3.31115C4.12807 3.94093 3.61573 4.45327 2.98596 4.45327Z" fill="black"/>
</svg>
