<svg width="30" height="22" viewBox="0 0 30 22" fill="none" xmlns="http://www.w3.org/2000/svg">
<path d="M12.9729 9.59375C13.4196 9.59375 13.7998 9.28344 13.9718 8.87094C14.346 7.97428 14.9771 7.20838 15.7857 6.6697C16.5943 6.13102 17.5443 5.84364 18.5159 5.84375C21.2341 5.84375 23.4377 8.04734 23.4377 10.7656C23.4377 13.4839 21.2341 15.6875 18.5159 15.6875C17.6164 15.6879 16.734 15.4417 15.9646 14.9758C15.1952 14.5098 14.5683 13.8419 14.1518 13.0447C13.9587 12.6744 13.5949 12.4062 13.1773 12.4062C12.5374 12.4062 12.0663 13.0109 12.3335 13.5931C13.4065 15.9359 15.7709 17.5625 18.5159 17.5625C22.2696 17.5625 25.3127 14.5194 25.3127 10.7656C25.3127 7.01187 22.2696 3.96875 18.5159 3.96875C15.5641 3.96875 13.0516 5.85031 12.1127 8.48C11.9107 9.04719 12.3706 9.59375 12.9729 9.59375Z" fill="#ACD037"/>
<path fill-rule="evenodd" clip-rule="evenodd" d="M11.7188 0.21875C5.76422 0.21875 0.9375 5.04547 0.9375 11C0.9375 16.9545 5.76422 21.7812 11.7188 21.7812H18.2812C24.2358 21.7812 29.0625 16.9545 29.0625 11C29.0625 5.04547 24.2358 0.21875 18.2812 0.21875H11.7188ZM2.8125 11C2.8125 6.08141 6.80016 2.09375 11.7188 2.09375H18.2812C23.1998 2.09375 27.1875 6.08141 27.1875 11C27.1875 15.9186 23.1998 19.9062 18.2812 19.9062H11.7188C6.80016 19.9062 2.8125 15.9186 2.8125 11Z" fill="#ACD037"/>
</svg>
