<svg width="21" height="21" viewBox="0 0 21 21" fill="none" xmlns="http://www.w3.org/2000/svg">
<rect x="1" y="9" width="5" height="11" fill="#27213D"/>
<path d="M8 5L7 8L6.5 8.5L6 13V18.5L7.5 20L10.5 20.5H16.5L19 19L20 15L20.5 12L20 9L19.5 8L15.5 7.5H13L12.5 5.5L12 2L10.5 0.5L9 1.5L8 5Z" fill="#ADD134"/>
<path fill-rule="evenodd" clip-rule="evenodd" d="M1.33485 9.84779V19.0367C1.33485 19.3973 1.63249 19.6911 1.99777 19.6911H4.65841C5.02369 19.6911 5.32133 19.3973 5.32133 19.0367V9.84779C5.32133 9.48718 5.02369 9.19333 4.65841 9.19333H1.99777C1.63249 9.19333 1.33485 9.48718 1.33485 9.84779ZM5.98874 8.37864L7.16122 6.0636C7.70237 4.99512 7.98197 3.81979 7.98197 2.62665V2.29721C7.98197 1.0284 9.0237 0 10.3089 0C11.5942 0 12.6719 0.961624 12.7982 2.22154L13.2356 6.56222H17.6731C18.6111 6.56222 19.5085 6.95399 20.1398 7.63959C20.7712 8.3252 21.0778 9.24676 20.9831 10.1683L20.1849 18.0439C20.0135 19.7223 18.584 21 16.8749 21H8.64489C7.78807 21 6.95829 20.6706 6.34048 20.0829C5.98873 20.6349 5.3619 21 4.65389 21H1.99326C0.892918 21 0 20.1185 0 19.0322V9.84333C0 8.75705 0.892918 7.87556 1.99326 7.87556H4.65389C5.16799 7.88001 5.63699 8.067 5.98874 8.37864ZM6.65164 10.0036V17.7233C6.65164 18.8096 7.54456 19.6911 8.64489 19.6911H16.8749C17.8986 19.6911 18.7554 18.9254 18.8591 17.9192L19.6573 10.0437C19.7114 9.49163 19.531 8.93957 19.1522 8.52553C18.7734 8.1115 18.2368 7.87556 17.6731 7.87556H12.6359C12.2931 7.87556 12.009 7.62179 11.973 7.28344L11.4724 2.35509C11.4138 1.76298 10.9087 1.31334 10.3044 1.31334C9.75425 1.31334 9.30779 1.75407 9.30779 2.29721V2.62665C9.30779 4.02458 8.97859 5.40026 8.34725 6.65126L6.65164 10.0036Z" fill="white"/>
</svg>
