<svg width="16" height="16" viewBox="0 0 16 16" fill="none" xmlns="http://www.w3.org/2000/svg">
<path d="M11.4032 1.19551C11.3816 1.18467 11.3577 1.17953 11.3336 1.1806C11.3096 1.18167 11.2862 1.1889 11.2657 1.20161C11.2452 1.21431 11.2284 1.23206 11.2167 1.25316C11.2051 1.27425 11.1991 1.29798 11.1993 1.32207V2.45059C11.1993 2.54727 11.2502 2.63691 11.3311 2.68965C11.7275 2.93915 12.0943 3.23282 12.4244 3.56504C12.9993 4.1416 13.451 4.81133 13.7657 5.55664C14.0911 6.3282 14.2578 7.15736 14.2561 7.99473C14.2561 8.84023 14.0909 9.66113 13.7657 10.4328C13.4514 11.177 12.9959 11.8534 12.4244 12.4244C11.8549 12.9973 11.179 13.4535 10.4346 13.7674C9.66468 14.0943 8.84378 14.2596 8.00003 14.2596C7.15628 14.2596 6.33539 14.0943 5.56546 13.7674C4.8211 13.4535 4.14517 12.9973 3.57562 12.4244C3.00416 11.8534 2.5487 11.177 2.23441 10.4328C1.90901 9.66125 1.74222 8.83209 1.74398 7.99473C1.74398 7.14922 1.90921 6.32832 2.23441 5.55664C2.54906 4.81133 3.00082 4.1416 3.57562 3.56504C3.9096 3.23105 4.27523 2.93926 4.66898 2.68965C4.7516 2.63867 4.80082 2.54727 4.80082 2.45059V1.32031C4.80082 1.21484 4.69007 1.14805 4.59691 1.19375C2.13773 2.43125 0.441441 4.96426 0.406284 7.8998C0.357066 12.0975 3.79007 15.585 7.98597 15.5937C12.1871 15.6025 15.5938 12.1959 15.5938 7.99297C15.5938 5.01875 13.8887 2.44355 11.4032 1.19551ZM7.43753 8.84375H8.56253C8.63988 8.84375 8.70316 8.78047 8.70316 8.70312V0.546875C8.70316 0.469531 8.63988 0.40625 8.56253 0.40625H7.43753C7.36019 0.40625 7.29691 0.469531 7.29691 0.546875V8.70312C7.29691 8.78047 7.36019 8.84375 7.43753 8.84375Z" fill="black"/>
</svg>
