<svg width="274" height="220" viewBox="0 0 274 220" fill="none" xmlns="http://www.w3.org/2000/svg">
<path d="M19.5673 143.175C17.9173 143.175 16.4006 142.792 15.0173 142.025C13.6506 141.258 12.559 140.192 11.7423 138.825C10.9423 137.442 10.5423 135.892 10.5423 134.175C10.5423 132.458 10.9423 130.917 11.7423 129.55C12.559 128.183 13.6506 127.117 15.0173 126.35C16.4006 125.583 17.9173 125.2 19.5673 125.2C21.2173 125.2 22.7256 125.583 24.0923 126.35C25.4756 127.117 26.559 128.183 27.3423 129.55C28.1423 130.917 28.5423 132.458 28.5423 134.175C28.5423 135.892 28.1423 137.442 27.3423 138.825C26.5423 140.192 25.459 141.258 24.0923 142.025C22.7256 142.792 21.2173 143.175 19.5673 143.175ZM19.5673 139.275C20.9673 139.275 22.084 138.808 22.9173 137.875C23.7673 136.942 24.1923 135.708 24.1923 134.175C24.1923 132.625 23.7673 131.392 22.9173 130.475C22.084 129.542 20.9673 129.075 19.5673 129.075C18.1506 129.075 17.0173 129.533 16.1673 130.45C15.334 131.367 14.9173 132.608 14.9173 134.175C14.9173 135.725 15.334 136.967 16.1673 137.9C17.0173 138.817 18.1506 139.275 19.5673 139.275ZM44.6956 129.05V143H40.4206V141.1C39.9873 141.717 39.3956 142.217 38.6456 142.6C37.9123 142.967 37.0956 143.15 36.1956 143.15C35.1289 143.15 34.1873 142.917 33.3706 142.45C32.5539 141.967 31.9206 141.275 31.4706 140.375C31.0206 139.475 30.7956 138.417 30.7956 137.2V129.05H35.0456V136.625C35.0456 137.558 35.2873 138.283 35.7706 138.8C36.2539 139.317 36.9039 139.575 37.7206 139.575C38.5539 139.575 39.2123 139.317 39.6956 138.8C40.1789 138.283 40.4206 137.558 40.4206 136.625V129.05H44.6956ZM52.0413 131.375C52.5413 130.608 53.1663 130.008 53.9163 129.575C54.6663 129.125 55.4996 128.9 56.4163 128.9V133.425H55.2413C54.1746 133.425 53.3746 133.658 52.8413 134.125C52.308 134.575 52.0413 135.375 52.0413 136.525V143H47.7663V129.05H52.0413V131.375ZM69.4325 143.2C68.2159 143.2 67.1325 142.992 66.1825 142.575C65.2325 142.158 64.4825 141.592 63.9325 140.875C63.3825 140.142 63.0742 139.325 63.0075 138.425H67.2325C67.2825 138.908 67.5075 139.3 67.9075 139.6C68.3075 139.9 68.7992 140.05 69.3825 140.05C69.9159 140.05 70.3242 139.95 70.6075 139.75C70.9075 139.533 71.0575 139.258 71.0575 138.925C71.0575 138.525 70.8492 138.233 70.4325 138.05C70.0159 137.85 69.3409 137.633 68.4075 137.4C67.4075 137.167 66.5742 136.925 65.9075 136.675C65.2409 136.408 64.6659 136 64.1825 135.45C63.6992 134.883 63.4575 134.125 63.4575 133.175C63.4575 132.375 63.6742 131.65 64.1075 131C64.5575 130.333 65.2075 129.808 66.0575 129.425C66.9242 129.042 67.9492 128.85 69.1325 128.85C70.8825 128.85 72.2575 129.283 73.2575 130.15C74.2742 131.017 74.8575 132.167 75.0075 133.6H71.0575C70.9909 133.117 70.7742 132.733 70.4075 132.45C70.0575 132.167 69.5909 132.025 69.0075 132.025C68.5075 132.025 68.1242 132.125 67.8575 132.325C67.5909 132.508 67.4575 132.767 67.4575 133.1C67.4575 133.5 67.6659 133.8 68.0825 134C68.5159 134.2 69.1825 134.4 70.0825 134.6C71.1159 134.867 71.9575 135.133 72.6075 135.4C73.2575 135.65 73.8242 136.067 74.3075 136.65C74.8075 137.217 75.0659 137.983 75.0825 138.95C75.0825 139.767 74.8492 140.5 74.3825 141.15C73.9325 141.783 73.2742 142.283 72.4075 142.65C71.5575 143.017 70.5659 143.2 69.4325 143.2ZM90.8479 135.8C90.8479 136.2 90.8229 136.617 90.773 137.05H81.0979C81.1646 137.917 81.4396 138.583 81.9229 139.05C82.4229 139.5 83.0313 139.725 83.7479 139.725C84.8146 139.725 85.5563 139.275 85.9729 138.375H90.523C90.2896 139.292 89.8646 140.117 89.248 140.85C88.648 141.583 87.8896 142.158 86.9729 142.575C86.0563 142.992 85.0313 143.2 83.8979 143.2C82.5313 143.2 81.3146 142.908 80.2479 142.325C79.1813 141.742 78.3479 140.908 77.7479 139.825C77.1479 138.742 76.8479 137.475 76.8479 136.025C76.8479 134.575 77.1396 133.308 77.7229 132.225C78.3229 131.142 79.1563 130.308 80.2229 129.725C81.2896 129.142 82.5146 128.85 83.8979 128.85C85.2479 128.85 86.4479 129.133 87.4979 129.7C88.5479 130.267 89.3646 131.075 89.948 132.125C90.5479 133.175 90.8479 134.4 90.8479 135.8ZM86.4729 134.675C86.4729 133.942 86.2229 133.358 85.7229 132.925C85.2229 132.492 84.5979 132.275 83.8479 132.275C83.1313 132.275 82.5229 132.483 82.0229 132.9C81.5396 133.317 81.2396 133.908 81.1229 134.675H86.4729ZM97.3782 131.375C97.8782 130.608 98.5032 130.008 99.2532 129.575C100.003 129.125 100.837 128.9 101.753 128.9V133.425H100.578C99.5116 133.425 98.7116 133.658 98.1782 134.125C97.6449 134.575 97.3782 135.375 97.3782 136.525V143H93.1032V129.05H97.3782V131.375ZM110.072 139L113.097 129.05H117.647L112.697 143H107.422L102.472 129.05H107.047L110.072 139ZM132.596 135.8C132.596 136.2 132.571 136.617 132.521 137.05H122.846C122.913 137.917 123.188 138.583 123.671 139.05C124.171 139.5 124.779 139.725 125.496 139.725C126.563 139.725 127.304 139.275 127.721 138.375H132.271C132.038 139.292 131.613 140.117 130.996 140.85C130.396 141.583 129.638 142.158 128.721 142.575C127.804 142.992 126.779 143.2 125.646 143.2C124.279 143.2 123.063 142.908 121.996 142.325C120.929 141.742 120.096 140.908 119.496 139.825C118.896 138.742 118.596 137.475 118.596 136.025C118.596 134.575 118.888 133.308 119.471 132.225C120.071 131.142 120.904 130.308 121.971 129.725C123.038 129.142 124.263 128.85 125.646 128.85C126.996 128.85 128.196 129.133 129.246 129.7C130.296 130.267 131.113 131.075 131.696 132.125C132.296 133.175 132.596 134.4 132.596 135.8ZM128.221 134.675C128.221 133.942 127.971 133.358 127.471 132.925C126.971 132.492 126.346 132.275 125.596 132.275C124.879 132.275 124.271 132.483 123.771 132.9C123.288 133.317 122.988 133.908 122.871 134.675H128.221ZM139.126 131.375C139.626 130.608 140.251 130.008 141.001 129.575C141.751 129.125 142.585 128.9 143.501 128.9V133.425H142.326C141.26 133.425 140.46 133.658 139.926 134.125C139.393 134.575 139.126 135.375 139.126 136.525V143H134.851V129.05H139.126V131.375ZM152.992 127.6C152.242 127.6 151.626 127.383 151.142 126.95C150.676 126.5 150.442 125.95 150.442 125.3C150.442 124.633 150.676 124.083 151.142 123.65C151.626 123.2 152.242 122.975 152.992 122.975C153.726 122.975 154.326 123.2 154.792 123.65C155.276 124.083 155.517 124.633 155.517 125.3C155.517 125.95 155.276 126.5 154.792 126.95C154.326 127.383 153.726 127.6 152.992 127.6ZM155.117 129.05V143H150.842V129.05H155.117ZM163.891 143.2C162.674 143.2 161.591 142.992 160.641 142.575C159.691 142.158 158.941 141.592 158.391 140.875C157.841 140.142 157.532 139.325 157.466 138.425H161.691C161.741 138.908 161.966 139.3 162.366 139.6C162.766 139.9 163.257 140.05 163.841 140.05C164.374 140.05 164.782 139.95 165.066 139.75C165.366 139.533 165.516 139.258 165.516 138.925C165.516 138.525 165.307 138.233 164.891 138.05C164.474 137.85 163.799 137.633 162.866 137.4C161.866 137.167 161.032 136.925 160.366 136.675C159.699 136.408 159.124 136 158.641 135.45C158.157 134.883 157.916 134.125 157.916 133.175C157.916 132.375 158.132 131.65 158.566 131C159.016 130.333 159.666 129.808 160.516 129.425C161.382 129.042 162.407 128.85 163.591 128.85C165.341 128.85 166.716 129.283 167.716 130.15C168.732 131.017 169.316 132.167 169.466 133.6H165.516C165.449 133.117 165.232 132.733 164.866 132.45C164.516 132.167 164.049 132.025 163.466 132.025C162.966 132.025 162.582 132.125 162.316 132.325C162.049 132.508 161.916 132.767 161.916 133.1C161.916 133.5 162.124 133.8 162.541 134C162.974 134.2 163.641 134.4 164.541 134.6C165.574 134.867 166.416 135.133 167.066 135.4C167.716 135.65 168.282 136.067 168.766 136.65C169.266 137.217 169.524 137.983 169.541 138.95C169.541 139.767 169.307 140.5 168.841 141.15C168.391 141.783 167.732 142.283 166.866 142.65C166.016 143.017 165.024 143.2 163.891 143.2ZM184.454 132.6H182.154V143H177.879V132.6H176.329V129.05H177.879V128.65C177.879 126.933 178.37 125.633 179.354 124.75C180.337 123.85 181.779 123.4 183.679 123.4C183.995 123.4 184.229 123.408 184.379 123.425V127.05C183.562 127 182.987 127.117 182.654 127.4C182.32 127.683 182.154 128.192 182.154 128.925V129.05H184.454V132.6ZM199.613 135.8C199.613 136.2 199.588 136.617 199.538 137.05H189.863C189.929 137.917 190.204 138.583 190.688 139.05C191.188 139.5 191.796 139.725 192.513 139.725C193.579 139.725 194.321 139.275 194.738 138.375H199.288C199.054 139.292 198.629 140.117 198.013 140.85C197.413 141.583 196.654 142.158 195.738 142.575C194.821 142.992 193.796 143.2 192.663 143.2C191.296 143.2 190.079 142.908 189.013 142.325C187.946 141.742 187.113 140.908 186.513 139.825C185.913 138.742 185.613 137.475 185.613 136.025C185.613 134.575 185.904 133.308 186.488 132.225C187.088 131.142 187.921 130.308 188.988 129.725C190.054 129.142 191.279 128.85 192.663 128.85C194.013 128.85 195.213 129.133 196.263 129.7C197.313 130.267 198.129 131.075 198.713 132.125C199.313 133.175 199.613 134.4 199.613 135.8ZM195.238 134.675C195.238 133.942 194.988 133.358 194.488 132.925C193.988 132.492 193.363 132.275 192.613 132.275C191.896 132.275 191.288 132.483 190.788 132.9C190.304 133.317 190.004 133.908 189.888 134.675H195.238ZM215.018 135.8C215.018 136.2 214.993 136.617 214.943 137.05H205.268C205.335 137.917 205.61 138.583 206.093 139.05C206.593 139.5 207.201 139.725 207.918 139.725C208.985 139.725 209.726 139.275 210.143 138.375H214.693C214.46 139.292 214.035 140.117 213.418 140.85C212.818 141.583 212.06 142.158 211.143 142.575C210.226 142.992 209.201 143.2 208.068 143.2C206.701 143.2 205.485 142.908 204.418 142.325C203.351 141.742 202.518 140.908 201.918 139.825C201.318 138.742 201.018 137.475 201.018 136.025C201.018 134.575 201.31 133.308 201.893 132.225C202.493 131.142 203.326 130.308 204.393 129.725C205.46 129.142 206.685 128.85 208.068 128.85C209.418 128.85 210.618 129.133 211.668 129.7C212.718 130.267 213.535 131.075 214.118 132.125C214.718 133.175 215.018 134.4 215.018 135.8ZM210.643 134.675C210.643 133.942 210.393 133.358 209.893 132.925C209.393 132.492 208.768 132.275 208.018 132.275C207.301 132.275 206.693 132.483 206.193 132.9C205.71 133.317 205.41 133.908 205.293 134.675H210.643ZM221.548 124.5V143H217.273V124.5H221.548ZM226.796 127.6C226.046 127.6 225.43 127.383 224.946 126.95C224.48 126.5 224.246 125.95 224.246 125.3C224.246 124.633 224.48 124.083 224.946 123.65C225.43 123.2 226.046 122.975 226.796 122.975C227.53 122.975 228.13 123.2 228.596 123.65C229.08 124.083 229.321 124.633 229.321 125.3C229.321 125.95 229.08 126.5 228.596 126.95C228.13 127.383 227.53 127.6 226.796 127.6ZM228.921 129.05V143H224.646V129.05H228.921ZM240.519 128.9C242.153 128.9 243.453 129.433 244.419 130.5C245.403 131.55 245.894 133 245.894 134.85V143H241.644V135.425C241.644 134.492 241.403 133.767 240.919 133.25C240.436 132.733 239.786 132.475 238.969 132.475C238.153 132.475 237.503 132.733 237.019 133.25C236.536 133.767 236.294 134.492 236.294 135.425V143H232.019V129.05H236.294V130.9C236.728 130.283 237.311 129.8 238.044 129.45C238.778 129.083 239.603 128.9 240.519 128.9ZM254.165 128.85C255.148 128.85 256.007 129.05 256.74 129.45C257.49 129.85 258.065 130.375 258.465 131.025V129.05H262.74V142.975C262.74 144.258 262.482 145.417 261.965 146.45C261.465 147.5 260.69 148.333 259.64 148.95C258.607 149.567 257.315 149.875 255.765 149.875C253.698 149.875 252.023 149.383 250.74 148.4C249.457 147.433 248.723 146.117 248.54 144.45H252.765C252.898 144.983 253.215 145.4 253.715 145.7C254.215 146.017 254.832 146.175 255.565 146.175C256.448 146.175 257.148 145.917 257.665 145.4C258.198 144.9 258.465 144.092 258.465 142.975V141C258.048 141.65 257.473 142.183 256.74 142.6C256.007 143 255.148 143.2 254.165 143.2C253.015 143.2 251.973 142.908 251.04 142.325C250.107 141.725 249.365 140.883 248.815 139.8C248.282 138.7 248.015 137.433 248.015 136C248.015 134.567 248.282 133.308 248.815 132.225C249.365 131.142 250.107 130.308 251.04 129.725C251.973 129.142 253.015 128.85 254.165 128.85ZM258.465 136.025C258.465 134.958 258.165 134.117 257.565 133.5C256.982 132.883 256.265 132.575 255.415 132.575C254.565 132.575 253.84 132.883 253.24 133.5C252.657 134.1 252.365 134.933 252.365 136C252.365 137.067 252.657 137.917 253.24 138.55C253.84 139.167 254.565 139.475 255.415 139.475C256.265 139.475 256.982 139.167 257.565 138.55C258.165 137.933 258.465 137.092 258.465 136.025ZM59.3064 162C59.3064 160.567 59.5731 159.308 60.1064 158.225C60.6564 157.142 61.3981 156.308 62.3314 155.725C63.2648 155.142 64.3064 154.85 65.4564 154.85C66.4398 154.85 67.2981 155.05 68.0314 155.45C68.7814 155.85 69.3564 156.375 69.7564 157.025V155.05H74.0314V169H69.7564V167.025C69.3398 167.675 68.7564 168.2 68.0064 168.6C67.2731 169 66.4148 169.2 65.4314 169.2C64.2981 169.2 63.2648 168.908 62.3314 168.325C61.3981 167.725 60.6564 166.883 60.1064 165.8C59.5731 164.7 59.3064 163.433 59.3064 162ZM69.7564 162.025C69.7564 160.958 69.4564 160.117 68.8564 159.5C68.2731 158.883 67.5564 158.575 66.7064 158.575C65.8564 158.575 65.1314 158.883 64.5314 159.5C63.9481 160.1 63.6564 160.933 63.6564 162C63.6564 163.067 63.9481 163.917 64.5314 164.55C65.1314 165.167 65.8564 165.475 66.7064 165.475C67.5564 165.475 68.2731 165.167 68.8564 164.55C69.4564 163.933 69.7564 163.092 69.7564 162.025ZM86.6971 150.5V169H82.4221V150.5H86.6971ZM91.9451 153.6C91.1951 153.6 90.5785 153.383 90.0951 152.95C89.6285 152.5 89.3951 151.95 89.3951 151.3C89.3951 150.633 89.6285 150.083 90.0951 149.65C90.5785 149.2 91.1951 148.975 91.9451 148.975C92.6785 148.975 93.2785 149.2 93.7451 149.65C94.2285 150.083 94.4701 150.633 94.4701 151.3C94.4701 151.95 94.2285 152.5 93.7451 152.95C93.2785 153.383 92.6785 153.6 91.9451 153.6ZM94.0701 155.05V169H89.7951V155.05H94.0701ZM104.943 165.375V169H102.768C101.218 169 100.01 168.625 99.1432 167.875C98.2765 167.108 97.8432 165.867 97.8432 164.15V158.6H96.1432V155.05H97.8432V151.65H102.118V155.05H104.918V158.6H102.118V164.2C102.118 164.617 102.218 164.917 102.418 165.1C102.618 165.283 102.951 165.375 103.418 165.375H104.943ZM115.099 165.375V169H112.924C111.374 169 110.166 168.625 109.299 167.875C108.433 167.108 107.999 165.867 107.999 164.15V158.6H106.299V155.05H107.999V151.65H112.274V155.05H115.074V158.6H112.274V164.2C112.274 164.617 112.374 164.917 112.574 165.1C112.774 165.283 113.108 165.375 113.574 165.375H115.099ZM121.756 150.5V169H117.481V150.5H121.756ZM138.004 161.8C138.004 162.2 137.979 162.617 137.929 163.05H128.254C128.32 163.917 128.595 164.583 129.079 165.05C129.579 165.5 130.187 165.725 130.904 165.725C131.97 165.725 132.712 165.275 133.129 164.375H137.679C137.445 165.292 137.02 166.117 136.404 166.85C135.804 167.583 135.045 168.158 134.129 168.575C133.212 168.992 132.187 169.2 131.054 169.2C129.687 169.2 128.47 168.908 127.404 168.325C126.337 167.742 125.504 166.908 124.904 165.825C124.304 164.742 124.004 163.475 124.004 162.025C124.004 160.575 124.295 159.308 124.879 158.225C125.479 157.142 126.312 156.308 127.379 155.725C128.445 155.142 129.67 154.85 131.054 154.85C132.404 154.85 133.604 155.133 134.654 155.7C135.704 156.267 136.52 157.075 137.104 158.125C137.704 159.175 138.004 160.4 138.004 161.8ZM133.629 160.675C133.629 159.942 133.379 159.358 132.879 158.925C132.379 158.492 131.754 158.275 131.004 158.275C130.287 158.275 129.679 158.483 129.179 158.9C128.695 159.317 128.395 159.908 128.279 160.675H133.629ZM144.707 162C144.707 160.567 144.974 159.308 145.507 158.225C146.057 157.142 146.799 156.308 147.732 155.725C148.665 155.142 149.707 154.85 150.857 154.85C151.774 154.85 152.607 155.042 153.357 155.425C154.124 155.808 154.724 156.325 155.157 156.975V150.5H159.432V169H155.157V167C154.757 167.667 154.182 168.2 153.432 168.6C152.699 169 151.84 169.2 150.857 169.2C149.707 169.2 148.665 168.908 147.732 168.325C146.799 167.725 146.057 166.883 145.507 165.8C144.974 164.7 144.707 163.433 144.707 162ZM155.157 162.025C155.157 160.958 154.857 160.117 154.257 159.5C153.674 158.883 152.957 158.575 152.107 158.575C151.257 158.575 150.532 158.883 149.932 159.5C149.349 160.1 149.057 160.933 149.057 162C149.057 163.067 149.349 163.917 149.932 164.55C150.532 165.167 151.257 165.475 152.107 165.475C152.957 165.475 153.674 165.167 154.257 164.55C154.857 163.933 155.157 163.092 155.157 162.025ZM168.875 169.2C167.508 169.2 166.275 168.908 165.175 168.325C164.091 167.742 163.233 166.908 162.6 165.825C161.983 164.742 161.675 163.475 161.675 162.025C161.675 160.592 161.991 159.333 162.625 158.25C163.258 157.15 164.125 156.308 165.225 155.725C166.325 155.142 167.558 154.85 168.925 154.85C170.291 154.85 171.525 155.142 172.625 155.725C173.725 156.308 174.591 157.15 175.225 158.25C175.858 159.333 176.175 160.592 176.175 162.025C176.175 163.458 175.85 164.725 175.2 165.825C174.566 166.908 173.691 167.742 172.575 168.325C171.475 168.908 170.241 169.2 168.875 169.2ZM168.875 165.5C169.691 165.5 170.383 165.2 170.95 164.6C171.533 164 171.825 163.142 171.825 162.025C171.825 160.908 171.541 160.05 170.975 159.45C170.425 158.85 169.741 158.55 168.925 158.55C168.091 158.55 167.4 158.85 166.85 159.45C166.3 160.033 166.025 160.892 166.025 162.025C166.025 163.142 166.291 164 166.825 164.6C167.375 165.2 168.058 165.5 168.875 165.5ZM198.468 155.05L194.693 169H189.968L187.768 159.95L185.493 169H180.793L176.993 155.05H181.268L183.243 165.025L185.593 155.05H190.118L192.493 164.975L194.443 155.05H198.468ZM208.598 154.9C210.231 154.9 211.531 155.433 212.498 156.5C213.481 157.55 213.973 159 213.973 160.85V169H209.723V161.425C209.723 160.492 209.481 159.767 208.998 159.25C208.515 158.733 207.865 158.475 207.048 158.475C206.231 158.475 205.581 158.733 205.098 159.25C204.615 159.767 204.373 160.492 204.373 161.425V169H200.098V155.05H204.373V156.9C204.806 156.283 205.39 155.8 206.123 155.45C206.856 155.083 207.681 154.9 208.598 154.9Z" fill="#ADD314"/>
<path d="M51.1583 191.698C51.1583 192.109 51.0593 192.494 50.8613 192.853C50.6706 193.212 50.3663 193.502 49.9483 193.722C49.5376 193.942 49.017 194.052 48.3863 194.052H47.0993V197H45.5593V189.322H48.3863C48.9803 189.322 49.4863 189.425 49.9043 189.63C50.3223 189.835 50.634 190.118 50.8393 190.477C51.052 190.836 51.1583 191.243 51.1583 191.698ZM48.3203 192.809C48.7456 192.809 49.061 192.714 49.2663 192.523C49.4716 192.325 49.5743 192.05 49.5743 191.698C49.5743 190.95 49.1563 190.576 48.3203 190.576H47.0993V192.809H48.3203ZM53.7917 188.86V197H52.2517V188.86H53.7917ZM60.9782 193.821C60.9782 194.041 60.9635 194.239 60.9342 194.415H56.4792C56.5159 194.855 56.6699 195.2 56.9412 195.449C57.2125 195.698 57.5462 195.823 57.9422 195.823C58.5142 195.823 58.9212 195.577 59.1632 195.086H60.8242C60.6482 195.673 60.3109 196.157 59.8122 196.538C59.3135 196.912 58.7012 197.099 57.9752 197.099C57.3885 197.099 56.8605 196.971 56.3912 196.714C55.9292 196.45 55.5662 196.08 55.3022 195.603C55.0455 195.126 54.9172 194.576 54.9172 193.953C54.9172 193.322 55.0455 192.769 55.3022 192.292C55.5589 191.815 55.9182 191.449 56.3802 191.192C56.8422 190.935 57.3739 190.807 57.9752 190.807C58.5545 190.807 59.0715 190.932 59.5262 191.181C59.9882 191.43 60.3439 191.786 60.5932 192.248C60.8499 192.703 60.9782 193.227 60.9782 193.821ZM59.3832 193.381C59.3759 192.985 59.2329 192.67 58.9542 192.435C58.6755 192.193 58.3345 192.072 57.9312 192.072C57.5499 192.072 57.2272 192.189 56.9632 192.424C56.7065 192.651 56.5489 192.97 56.4902 193.381H59.3832ZM61.7063 193.931C61.7063 193.315 61.8273 192.769 62.0693 192.292C62.3186 191.815 62.6523 191.449 63.0703 191.192C63.4956 190.935 63.9686 190.807 64.4893 190.807C64.9439 190.807 65.3399 190.899 65.6773 191.082C66.0219 191.265 66.2969 191.496 66.5023 191.775V190.906H68.0533V197H66.5023V196.109C66.3043 196.395 66.0293 196.633 65.6773 196.824C65.3326 197.007 64.9329 197.099 64.4783 197.099C63.9649 197.099 63.4956 196.967 63.0703 196.703C62.6523 196.439 62.3186 196.069 62.0693 195.592C61.8273 195.108 61.7063 194.554 61.7063 193.931ZM66.5023 193.953C66.5023 193.579 66.4289 193.26 66.2823 192.996C66.1356 192.725 65.9376 192.519 65.6883 192.38C65.4389 192.233 65.1713 192.16 64.8853 192.16C64.5993 192.16 64.3353 192.23 64.0933 192.369C63.8513 192.508 63.6533 192.714 63.4993 192.985C63.3526 193.249 63.2793 193.564 63.2793 193.931C63.2793 194.298 63.3526 194.62 63.4993 194.899C63.6533 195.17 63.8513 195.379 64.0933 195.526C64.3426 195.673 64.6066 195.746 64.8853 195.746C65.1713 195.746 65.4389 195.676 65.6883 195.537C65.9376 195.39 66.1356 195.185 66.2823 194.921C66.4289 194.65 66.5023 194.327 66.5023 193.953ZM71.8893 197.099C71.3907 197.099 70.9433 197.011 70.5473 196.835C70.1513 196.652 69.836 196.406 69.6013 196.098C69.374 195.79 69.2493 195.449 69.2273 195.075H70.7783C70.8077 195.31 70.9213 195.504 71.1193 195.658C71.3247 195.812 71.5777 195.889 71.8783 195.889C72.1717 195.889 72.399 195.83 72.5603 195.713C72.729 195.596 72.8133 195.445 72.8133 195.262C72.8133 195.064 72.7107 194.917 72.5053 194.822C72.3073 194.719 71.9883 194.609 71.5483 194.492C71.0937 194.382 70.7197 194.268 70.4263 194.151C70.1403 194.034 69.891 193.854 69.6783 193.612C69.473 193.37 69.3703 193.044 69.3703 192.633C69.3703 192.296 69.4657 191.988 69.6563 191.709C69.8543 191.43 70.133 191.21 70.4923 191.049C70.859 190.888 71.288 190.807 71.7793 190.807C72.5053 190.807 73.0847 190.99 73.5173 191.357C73.95 191.716 74.1883 192.204 74.2323 192.82H72.7583C72.7363 192.578 72.6337 192.387 72.4503 192.248C72.2743 192.101 72.036 192.028 71.7353 192.028C71.4567 192.028 71.2403 192.079 71.0863 192.182C70.9397 192.285 70.8663 192.428 70.8663 192.611C70.8663 192.816 70.969 192.974 71.1743 193.084C71.3797 193.187 71.6987 193.293 72.1313 193.403C72.5713 193.513 72.9343 193.627 73.2203 193.744C73.5063 193.861 73.752 194.045 73.9573 194.294C74.17 194.536 74.28 194.859 74.2873 195.262C74.2873 195.614 74.1883 195.929 73.9903 196.208C73.7997 196.487 73.521 196.707 73.1543 196.868C72.795 197.022 72.3733 197.099 71.8893 197.099ZM81.2165 193.821C81.2165 194.041 81.2018 194.239 81.1725 194.415H76.7175C76.7541 194.855 76.9081 195.2 77.1795 195.449C77.4508 195.698 77.7845 195.823 78.1805 195.823C78.7525 195.823 79.1595 195.577 79.4015 195.086H81.0625C80.8865 195.673 80.5491 196.157 80.0505 196.538C79.5518 196.912 78.9395 197.099 78.2135 197.099C77.6268 197.099 77.0988 196.971 76.6295 196.714C76.1675 196.45 75.8045 196.08 75.5405 195.603C75.2838 195.126 75.1555 194.576 75.1555 193.953C75.1555 193.322 75.2838 192.769 75.5405 192.292C75.7971 191.815 76.1565 191.449 76.6185 191.192C77.0805 190.935 77.6121 190.807 78.2135 190.807C78.7928 190.807 79.3098 190.932 79.7645 191.181C80.2265 191.43 80.5821 191.786 80.8315 192.248C81.0881 192.703 81.2165 193.227 81.2165 193.821ZM79.6215 193.381C79.6141 192.985 79.4711 192.67 79.1925 192.435C78.9138 192.193 78.5728 192.072 78.1695 192.072C77.7881 192.072 77.4655 192.189 77.2015 192.424C76.9448 192.651 76.7871 192.97 76.7285 193.381H79.6215ZM86.7546 192.171V195.119C86.7546 195.324 86.8023 195.475 86.8976 195.57C87.0003 195.658 87.169 195.702 87.4036 195.702H88.1186V197H87.1506C85.8526 197 85.2036 196.369 85.2036 195.108V192.171H84.4776V190.906H85.2036V189.399H86.7546V190.906H88.1186V192.171H86.7546ZM90.7663 191.852C90.9643 191.529 91.221 191.276 91.5363 191.093C91.859 190.91 92.2256 190.818 92.6363 190.818V192.435H92.2293C91.7453 192.435 91.3786 192.549 91.1293 192.776C90.8873 193.003 90.7663 193.399 90.7663 193.964V197H89.2263V190.906H90.7663V191.852ZM99.5036 190.906L95.7306 199.882H94.0916L95.4116 196.846L92.9696 190.906H94.6966L96.2696 195.163L97.8646 190.906H99.5036ZM102.559 193.931C102.559 193.315 102.68 192.769 102.922 192.292C103.171 191.815 103.505 191.449 103.923 191.192C104.348 190.935 104.821 190.807 105.342 190.807C105.796 190.807 106.192 190.899 106.53 191.082C106.874 191.265 107.149 191.496 107.355 191.775V190.906H108.906V197H107.355V196.109C107.157 196.395 106.882 196.633 106.53 196.824C106.185 197.007 105.785 197.099 105.331 197.099C104.817 197.099 104.348 196.967 103.923 196.703C103.505 196.439 103.171 196.069 102.922 195.592C102.68 195.108 102.559 194.554 102.559 193.931ZM107.355 193.953C107.355 193.579 107.281 193.26 107.135 192.996C106.988 192.725 106.79 192.519 106.541 192.38C106.291 192.233 106.024 192.16 105.738 192.16C105.452 192.16 105.188 192.23 104.946 192.369C104.704 192.508 104.506 192.714 104.352 192.985C104.205 193.249 104.132 193.564 104.132 193.931C104.132 194.298 104.205 194.62 104.352 194.899C104.506 195.17 104.704 195.379 104.946 195.526C105.195 195.673 105.459 195.746 105.738 195.746C106.024 195.746 106.291 195.676 106.541 195.537C106.79 195.39 106.988 195.185 107.135 194.921C107.281 194.65 107.355 194.327 107.355 193.953ZM112.797 190.807C113.252 190.807 113.651 190.899 113.996 191.082C114.341 191.258 114.612 191.489 114.81 191.775V190.906H116.361V197.044C116.361 197.609 116.247 198.111 116.02 198.551C115.793 198.998 115.452 199.35 114.997 199.607C114.542 199.871 113.992 200.003 113.347 200.003C112.482 200.003 111.77 199.801 111.213 199.398C110.663 198.995 110.351 198.445 110.278 197.748H111.807C111.888 198.027 112.06 198.247 112.324 198.408C112.595 198.577 112.922 198.661 113.303 198.661C113.75 198.661 114.113 198.525 114.392 198.254C114.671 197.99 114.81 197.587 114.81 197.044V196.098C114.612 196.384 114.337 196.622 113.985 196.813C113.64 197.004 113.244 197.099 112.797 197.099C112.284 197.099 111.814 196.967 111.389 196.703C110.964 196.439 110.626 196.069 110.377 195.592C110.135 195.108 110.014 194.554 110.014 193.931C110.014 193.315 110.135 192.769 110.377 192.292C110.626 191.815 110.96 191.449 111.378 191.192C111.803 190.935 112.276 190.807 112.797 190.807ZM114.81 193.953C114.81 193.579 114.737 193.26 114.59 192.996C114.443 192.725 114.245 192.519 113.996 192.38C113.747 192.233 113.479 192.16 113.193 192.16C112.907 192.16 112.643 192.23 112.401 192.369C112.159 192.508 111.961 192.714 111.807 192.985C111.66 193.249 111.587 193.564 111.587 193.931C111.587 194.298 111.66 194.62 111.807 194.899C111.961 195.17 112.159 195.379 112.401 195.526C112.65 195.673 112.914 195.746 113.193 195.746C113.479 195.746 113.747 195.676 113.996 195.537C114.245 195.39 114.443 195.185 114.59 194.921C114.737 194.65 114.81 194.327 114.81 193.953ZM117.469 193.931C117.469 193.315 117.59 192.769 117.832 192.292C118.081 191.815 118.415 191.449 118.833 191.192C119.258 190.935 119.731 190.807 120.252 190.807C120.707 190.807 121.103 190.899 121.44 191.082C121.785 191.265 122.06 191.496 122.265 191.775V190.906H123.816V197H122.265V196.109C122.067 196.395 121.792 196.633 121.44 196.824C121.095 197.007 120.696 197.099 120.241 197.099C119.728 197.099 119.258 196.967 118.833 196.703C118.415 196.439 118.081 196.069 117.832 195.592C117.59 195.108 117.469 194.554 117.469 193.931ZM122.265 193.953C122.265 193.579 122.192 193.26 122.045 192.996C121.898 192.725 121.7 192.519 121.451 192.38C121.202 192.233 120.934 192.16 120.648 192.16C120.362 192.16 120.098 192.23 119.856 192.369C119.614 192.508 119.416 192.714 119.262 192.985C119.115 193.249 119.042 193.564 119.042 193.931C119.042 194.298 119.115 194.62 119.262 194.899C119.416 195.17 119.614 195.379 119.856 195.526C120.105 195.673 120.369 195.746 120.648 195.746C120.934 195.746 121.202 195.676 121.451 195.537C121.7 195.39 121.898 195.185 122.045 194.921C122.192 194.65 122.265 194.327 122.265 193.953ZM126.101 190.18C125.83 190.18 125.602 190.096 125.419 189.927C125.243 189.751 125.155 189.535 125.155 189.278C125.155 189.021 125.243 188.809 125.419 188.64C125.602 188.464 125.83 188.376 126.101 188.376C126.372 188.376 126.596 188.464 126.772 188.64C126.955 188.809 127.047 189.021 127.047 189.278C127.047 189.535 126.955 189.751 126.772 189.927C126.596 190.096 126.372 190.18 126.101 190.18ZM126.86 190.906V197H125.32V190.906H126.86ZM131.759 190.818C132.485 190.818 133.071 191.049 133.519 191.511C133.966 191.966 134.19 192.604 134.19 193.425V197H132.65V193.634C132.65 193.15 132.529 192.78 132.287 192.523C132.045 192.259 131.715 192.127 131.297 192.127C130.871 192.127 130.534 192.259 130.285 192.523C130.043 192.78 129.922 193.15 129.922 193.634V197H128.382V190.906H129.922V191.665C130.127 191.401 130.387 191.196 130.703 191.049C131.025 190.895 131.377 190.818 131.759 190.818ZM139.056 190.18C138.785 190.18 138.557 190.096 138.374 189.927C138.198 189.751 138.11 189.535 138.11 189.278C138.11 189.021 138.198 188.809 138.374 188.64C138.557 188.464 138.785 188.376 139.056 188.376C139.327 188.376 139.551 188.464 139.727 188.64C139.91 188.809 140.002 189.021 140.002 189.278C140.002 189.535 139.91 189.751 139.727 189.927C139.551 190.096 139.327 190.18 139.056 190.18ZM139.815 190.906V197H138.275V190.906H139.815ZM144.714 190.818C145.44 190.818 146.026 191.049 146.474 191.511C146.921 191.966 147.145 192.604 147.145 193.425V197H145.605V193.634C145.605 193.15 145.484 192.78 145.242 192.523C145 192.259 144.67 192.127 144.252 192.127C143.826 192.127 143.489 192.259 143.24 192.523C142.998 192.78 142.877 193.15 142.877 193.634V197H141.337V190.906H142.877V191.665C143.082 191.401 143.342 191.196 143.658 191.049C143.98 190.895 144.332 190.818 144.714 190.818ZM154.024 192.171H152.957V197H151.395V192.171H150.702V190.906H151.395V190.598C151.395 189.85 151.608 189.3 152.033 188.948C152.459 188.596 153.1 188.431 153.958 188.453V189.751C153.584 189.744 153.324 189.806 153.177 189.938C153.031 190.07 152.957 190.308 152.957 190.653V190.906H154.024V192.171ZM160.687 193.821C160.687 194.041 160.673 194.239 160.643 194.415H156.188C156.225 194.855 156.379 195.2 156.65 195.449C156.922 195.698 157.255 195.823 157.651 195.823C158.223 195.823 158.63 195.577 158.872 195.086H160.533C160.357 195.673 160.02 196.157 159.521 196.538C159.023 196.912 158.41 197.099 157.684 197.099C157.098 197.099 156.57 196.971 156.1 196.714C155.638 196.45 155.275 196.08 155.011 195.603C154.755 195.126 154.626 194.576 154.626 193.953C154.626 193.322 154.755 192.769 155.011 192.292C155.268 191.815 155.627 191.449 156.089 191.192C156.551 190.935 157.083 190.807 157.684 190.807C158.264 190.807 158.781 190.932 159.235 191.181C159.697 191.43 160.053 191.786 160.302 192.248C160.559 192.703 160.687 193.227 160.687 193.821ZM159.092 193.381C159.085 192.985 158.942 192.67 158.663 192.435C158.385 192.193 158.044 192.072 157.64 192.072C157.259 192.072 156.936 192.189 156.672 192.424C156.416 192.651 156.258 192.97 156.199 193.381H159.092ZM170.259 190.906L168.477 197H166.816L165.705 192.743L164.594 197H162.922L161.129 190.906H162.691L163.769 195.548L164.935 190.906H166.563L167.707 195.537L168.785 190.906H170.259ZM181.282 190.818C182.03 190.818 182.631 191.049 183.086 191.511C183.548 191.966 183.779 192.604 183.779 193.425V197H182.239V193.634C182.239 193.157 182.118 192.794 181.876 192.545C181.634 192.288 181.304 192.16 180.886 192.16C180.468 192.16 180.134 192.288 179.885 192.545C179.643 192.794 179.522 193.157 179.522 193.634V197H177.982V193.634C177.982 193.157 177.861 192.794 177.619 192.545C177.377 192.288 177.047 192.16 176.629 192.16C176.203 192.16 175.866 192.288 175.617 192.545C175.375 192.794 175.254 193.157 175.254 193.634V197H173.714V190.906H175.254V191.643C175.452 191.386 175.705 191.185 176.013 191.038C176.328 190.891 176.673 190.818 177.047 190.818C177.523 190.818 177.949 190.921 178.323 191.126C178.697 191.324 178.986 191.61 179.192 191.984C179.39 191.632 179.676 191.35 180.05 191.137C180.431 190.924 180.842 190.818 181.282 190.818ZM187.946 197.099C187.359 197.099 186.831 196.971 186.362 196.714C185.893 196.45 185.522 196.08 185.251 195.603C184.987 195.126 184.855 194.576 184.855 193.953C184.855 193.33 184.991 192.78 185.262 192.303C185.541 191.826 185.918 191.46 186.395 191.203C186.872 190.939 187.403 190.807 187.99 190.807C188.577 190.807 189.108 190.939 189.585 191.203C190.062 191.46 190.436 191.826 190.707 192.303C190.986 192.78 191.125 193.33 191.125 193.953C191.125 194.576 190.982 195.126 190.696 195.603C190.417 196.08 190.036 196.45 189.552 196.714C189.075 196.971 188.54 197.099 187.946 197.099ZM187.946 195.757C188.225 195.757 188.485 195.691 188.727 195.559C188.976 195.42 189.174 195.214 189.321 194.943C189.468 194.672 189.541 194.342 189.541 193.953C189.541 193.374 189.387 192.93 189.079 192.622C188.778 192.307 188.408 192.149 187.968 192.149C187.528 192.149 187.158 192.307 186.857 192.622C186.564 192.93 186.417 193.374 186.417 193.953C186.417 194.532 186.56 194.98 186.846 195.295C187.139 195.603 187.506 195.757 187.946 195.757ZM199.823 190.818C200.571 190.818 201.172 191.049 201.627 191.511C202.089 191.966 202.32 192.604 202.32 193.425V197H200.78V193.634C200.78 193.157 200.659 192.794 200.417 192.545C200.175 192.288 199.845 192.16 199.427 192.16C199.009 192.16 198.675 192.288 198.426 192.545C198.184 192.794 198.063 193.157 198.063 193.634V197H196.523V193.634C196.523 193.157 196.402 192.794 196.16 192.545C195.918 192.288 195.588 192.16 195.17 192.16C194.744 192.16 194.407 192.288 194.158 192.545C193.916 192.794 193.795 193.157 193.795 193.634V197H192.255V190.906H193.795V191.643C193.993 191.386 194.246 191.185 194.554 191.038C194.869 190.891 195.214 190.818 195.588 190.818C196.064 190.818 196.49 190.921 196.864 191.126C197.238 191.324 197.527 191.61 197.733 191.984C197.931 191.632 198.217 191.35 198.591 191.137C198.972 190.924 199.383 190.818 199.823 190.818ZM209.446 193.821C209.446 194.041 209.431 194.239 209.402 194.415H204.947C204.984 194.855 205.138 195.2 205.409 195.449C205.68 195.698 206.014 195.823 206.41 195.823C206.982 195.823 207.389 195.577 207.631 195.086H209.292C209.116 195.673 208.779 196.157 208.28 196.538C207.781 196.912 207.169 197.099 206.443 197.099C205.856 197.099 205.328 196.971 204.859 196.714C204.397 196.45 204.034 196.08 203.77 195.603C203.513 195.126 203.385 194.576 203.385 193.953C203.385 193.322 203.513 192.769 203.77 192.292C204.027 191.815 204.386 191.449 204.848 191.192C205.31 190.935 205.842 190.807 206.443 190.807C207.022 190.807 207.539 190.932 207.994 191.181C208.456 191.43 208.812 191.786 209.061 192.248C209.318 192.703 209.446 193.227 209.446 193.821ZM207.851 193.381C207.844 192.985 207.701 192.67 207.422 192.435C207.143 192.193 206.802 192.072 206.399 192.072C206.018 192.072 205.695 192.189 205.431 192.424C205.174 192.651 205.017 192.97 204.958 193.381H207.851ZM213.947 190.818C214.673 190.818 215.26 191.049 215.707 191.511C216.154 191.966 216.378 192.604 216.378 193.425V197H214.838V193.634C214.838 193.15 214.717 192.78 214.475 192.523C214.233 192.259 213.903 192.127 213.485 192.127C213.06 192.127 212.722 192.259 212.473 192.523C212.231 192.78 212.11 193.15 212.11 193.634V197H210.57V190.906H212.11V191.665C212.315 191.401 212.576 191.196 212.891 191.049C213.214 190.895 213.566 190.818 213.947 190.818ZM219.635 192.171V195.119C219.635 195.324 219.683 195.475 219.778 195.57C219.881 195.658 220.05 195.702 220.284 195.702H220.999V197H220.031C218.733 197 218.084 196.369 218.084 195.108V192.171H217.358V190.906H218.084V189.399H219.635V190.906H220.999V192.171H219.635ZM224.439 197.099C223.94 197.099 223.493 197.011 223.097 196.835C222.701 196.652 222.386 196.406 222.151 196.098C221.924 195.79 221.799 195.449 221.777 195.075H223.328C223.357 195.31 223.471 195.504 223.669 195.658C223.874 195.812 224.127 195.889 224.428 195.889C224.721 195.889 224.949 195.83 225.11 195.713C225.279 195.596 225.363 195.445 225.363 195.262C225.363 195.064 225.26 194.917 225.055 194.822C224.857 194.719 224.538 194.609 224.098 194.492C223.643 194.382 223.269 194.268 222.976 194.151C222.69 194.034 222.441 193.854 222.228 193.612C222.023 193.37 221.92 193.044 221.92 192.633C221.92 192.296 222.015 191.988 222.206 191.709C222.404 191.43 222.683 191.21 223.042 191.049C223.409 190.888 223.838 190.807 224.329 190.807C225.055 190.807 225.634 190.99 226.067 191.357C226.5 191.716 226.738 192.204 226.782 192.82H225.308C225.286 192.578 225.183 192.387 225 192.248C224.824 192.101 224.586 192.028 224.285 192.028C224.006 192.028 223.79 192.079 223.636 192.182C223.489 192.285 223.416 192.428 223.416 192.611C223.416 192.816 223.519 192.974 223.724 193.084C223.929 193.187 224.248 193.293 224.681 193.403C225.121 193.513 225.484 193.627 225.77 193.744C226.056 193.861 226.302 194.045 226.507 194.294C226.72 194.536 226.83 194.859 226.837 195.262C226.837 195.614 226.738 195.929 226.54 196.208C226.349 196.487 226.071 196.707 225.704 196.868C225.345 197.022 224.923 197.099 224.439 197.099ZM228.783 197.077C228.505 197.077 228.274 196.993 228.09 196.824C227.914 196.648 227.826 196.432 227.826 196.175C227.826 195.918 227.914 195.706 228.09 195.537C228.274 195.361 228.505 195.273 228.783 195.273C229.055 195.273 229.278 195.361 229.454 195.537C229.63 195.706 229.718 195.918 229.718 196.175C229.718 196.432 229.63 196.648 229.454 196.824C229.278 196.993 229.055 197.077 228.783 197.077ZM66.065 203.322L63.92 211H62.105L60.664 205.533L59.157 211L57.353 211.011L55.285 203.322H56.935L58.288 209.284L59.85 203.322H61.566L63.04 209.251L64.404 203.322H66.065ZM72.7355 207.821C72.7355 208.041 72.7209 208.239 72.6915 208.415H68.2365C68.2732 208.855 68.4272 209.2 68.6985 209.449C68.9699 209.698 69.3035 209.823 69.6995 209.823C70.2715 209.823 70.6785 209.577 70.9205 209.086H72.5815C72.4055 209.673 72.0682 210.157 71.5695 210.538C71.0709 210.912 70.4585 211.099 69.7325 211.099C69.1459 211.099 68.6179 210.971 68.1485 210.714C67.6865 210.45 67.3235 210.08 67.0595 209.603C66.8029 209.126 66.6745 208.576 66.6745 207.953C66.6745 207.322 66.8029 206.769 67.0595 206.292C67.3162 205.815 67.6755 205.449 68.1375 205.192C68.5995 204.935 69.1312 204.807 69.7325 204.807C70.3119 204.807 70.8289 204.932 71.2835 205.181C71.7455 205.43 72.1012 205.786 72.3505 206.248C72.6072 206.703 72.7355 207.227 72.7355 207.821ZM71.1405 207.381C71.1332 206.985 70.9902 206.67 70.7115 206.435C70.4329 206.193 70.0919 206.072 69.6885 206.072C69.3072 206.072 68.9845 206.189 68.7205 206.424C68.4639 206.651 68.3062 206.97 68.2475 207.381H71.1405ZM84.9287 204.906L83.1467 211H81.4857L80.3747 206.743L79.2637 211H77.5917L75.7987 204.906H77.3607L78.4387 209.548L79.6047 204.906H81.2327L82.3767 209.537L83.4547 204.906H84.9287ZM86.5429 204.18C86.2716 204.18 86.0443 204.096 85.8609 203.927C85.6849 203.751 85.5969 203.535 85.5969 203.278C85.5969 203.021 85.6849 202.809 85.8609 202.64C86.0443 202.464 86.2716 202.376 86.5429 202.376C86.8143 202.376 87.0379 202.464 87.2139 202.64C87.3973 202.809 87.4889 203.021 87.4889 203.278C87.4889 203.535 87.3973 203.751 87.2139 203.927C87.0379 204.096 86.8143 204.18 86.5429 204.18ZM87.3019 204.906V211H85.7619V204.906H87.3019ZM90.3635 202.86V211H88.8235V202.86H90.3635ZM93.425 202.86V211H91.885V202.86H93.425ZM99.1076 205.797C99.3056 205.504 99.5769 205.265 99.9216 205.082C100.274 204.899 100.673 204.807 101.121 204.807C101.641 204.807 102.111 204.935 102.529 205.192C102.954 205.449 103.288 205.815 103.53 206.292C103.779 206.761 103.904 207.308 103.904 207.931C103.904 208.554 103.779 209.108 103.53 209.592C103.288 210.069 102.954 210.439 102.529 210.703C102.111 210.967 101.641 211.099 101.121 211.099C100.666 211.099 100.266 211.011 99.9216 210.835C99.5843 210.652 99.3129 210.417 99.1076 210.131V211H97.5676V202.86H99.1076V205.797ZM102.331 207.931C102.331 207.564 102.254 207.249 102.1 206.985C101.953 206.714 101.755 206.508 101.506 206.369C101.264 206.23 101 206.16 100.714 206.16C100.435 206.16 100.171 206.233 99.9216 206.38C99.6796 206.519 99.4816 206.725 99.3276 206.996C99.1809 207.267 99.1076 207.586 99.1076 207.953C99.1076 208.32 99.1809 208.639 99.3276 208.91C99.4816 209.181 99.6796 209.39 99.9216 209.537C100.171 209.676 100.435 209.746 100.714 209.746C101 209.746 101.264 209.673 101.506 209.526C101.755 209.379 101.953 209.17 102.1 208.899C102.254 208.628 102.331 208.305 102.331 207.931ZM110.688 207.821C110.688 208.041 110.673 208.239 110.644 208.415H106.189C106.225 208.855 106.379 209.2 106.651 209.449C106.922 209.698 107.256 209.823 107.652 209.823C108.224 209.823 108.631 209.577 108.873 209.086H110.534C110.358 209.673 110.02 210.157 109.522 210.538C109.023 210.912 108.411 211.099 107.685 211.099C107.098 211.099 106.57 210.971 106.101 210.714C105.639 210.45 105.276 210.08 105.012 209.603C104.755 209.126 104.627 208.576 104.627 207.953C104.627 207.322 104.755 206.769 105.012 206.292C105.268 205.815 105.628 205.449 106.09 205.192C106.552 204.935 107.083 204.807 107.685 204.807C108.264 204.807 108.781 204.932 109.236 205.181C109.698 205.43 110.053 205.786 110.303 206.248C110.559 206.703 110.688 207.227 110.688 207.821ZM109.093 207.381C109.085 206.985 108.942 206.67 108.664 206.435C108.385 206.193 108.044 206.072 107.641 206.072C107.259 206.072 106.937 206.189 106.673 206.424C106.416 206.651 106.258 206.97 106.2 207.381H109.093ZM115.973 205.797C116.171 205.504 116.442 205.265 116.787 205.082C117.139 204.899 117.538 204.807 117.986 204.807C118.506 204.807 118.976 204.935 119.394 205.192C119.819 205.449 120.153 205.815 120.395 206.292C120.644 206.761 120.769 207.308 120.769 207.931C120.769 208.554 120.644 209.108 120.395 209.592C120.153 210.069 119.819 210.439 119.394 210.703C118.976 210.967 118.506 211.099 117.986 211.099C117.531 211.099 117.131 211.011 116.787 210.835C116.449 210.652 116.178 210.417 115.973 210.131V211H114.433V202.86H115.973V205.797ZM119.196 207.931C119.196 207.564 119.119 207.249 118.965 206.985C118.818 206.714 118.62 206.508 118.371 206.369C118.129 206.23 117.865 206.16 117.579 206.16C117.3 206.16 117.036 206.233 116.787 206.38C116.545 206.519 116.347 206.725 116.193 206.996C116.046 207.267 115.973 207.586 115.973 207.953C115.973 208.32 116.046 208.639 116.193 208.91C116.347 209.181 116.545 209.39 116.787 209.537C117.036 209.676 117.3 209.746 117.579 209.746C117.865 209.746 118.129 209.673 118.371 209.526C118.62 209.379 118.818 209.17 118.965 208.899C119.119 208.628 119.196 208.305 119.196 207.931ZM121.492 207.931C121.492 207.315 121.613 206.769 121.855 206.292C122.104 205.815 122.438 205.449 122.856 205.192C123.281 204.935 123.754 204.807 124.275 204.807C124.73 204.807 125.126 204.899 125.463 205.082C125.808 205.265 126.083 205.496 126.288 205.775V204.906H127.839V211H126.288V210.109C126.09 210.395 125.815 210.633 125.463 210.824C125.118 211.007 124.719 211.099 124.264 211.099C123.751 211.099 123.281 210.967 122.856 210.703C122.438 210.439 122.104 210.069 121.855 209.592C121.613 209.108 121.492 208.554 121.492 207.931ZM126.288 207.953C126.288 207.579 126.215 207.26 126.068 206.996C125.921 206.725 125.723 206.519 125.474 206.38C125.225 206.233 124.957 206.16 124.671 206.16C124.385 206.16 124.121 206.23 123.879 206.369C123.637 206.508 123.439 206.714 123.285 206.985C123.138 207.249 123.065 207.564 123.065 207.931C123.065 208.298 123.138 208.62 123.285 208.899C123.439 209.17 123.637 209.379 123.879 209.526C124.128 209.673 124.392 209.746 124.671 209.746C124.957 209.746 125.225 209.676 125.474 209.537C125.723 209.39 125.921 209.185 126.068 208.921C126.215 208.65 126.288 208.327 126.288 207.953ZM128.947 207.953C128.947 207.322 129.075 206.772 129.332 206.303C129.589 205.826 129.944 205.46 130.399 205.203C130.854 204.939 131.374 204.807 131.961 204.807C132.716 204.807 133.34 204.998 133.831 205.379C134.33 205.753 134.663 206.281 134.832 206.963H133.171C133.083 206.699 132.933 206.494 132.72 206.347C132.515 206.193 132.258 206.116 131.95 206.116C131.51 206.116 131.162 206.277 130.905 206.6C130.648 206.915 130.52 207.366 130.52 207.953C130.52 208.532 130.648 208.983 130.905 209.306C131.162 209.621 131.51 209.779 131.95 209.779C132.573 209.779 132.98 209.5 133.171 208.943H134.832C134.663 209.603 134.33 210.127 133.831 210.516C133.332 210.905 132.709 211.099 131.961 211.099C131.374 211.099 130.854 210.971 130.399 210.714C129.944 210.45 129.589 210.083 129.332 209.614C129.075 209.137 128.947 208.584 128.947 207.953ZM139.568 211L137.5 208.404V211H135.96V202.86H137.5V207.491L139.546 204.906H141.548L138.864 207.964L141.57 211H139.568ZM150.758 204.906V211H149.207V210.23C149.009 210.494 148.749 210.703 148.426 210.857C148.111 211.004 147.766 211.077 147.392 211.077C146.915 211.077 146.494 210.978 146.127 210.78C145.76 210.575 145.471 210.278 145.258 209.889C145.053 209.493 144.95 209.024 144.95 208.481V204.906H146.49V208.261C146.49 208.745 146.611 209.119 146.853 209.383C147.095 209.64 147.425 209.768 147.843 209.768C148.268 209.768 148.602 209.64 148.844 209.383C149.086 209.119 149.207 208.745 149.207 208.261V204.906H150.758ZM153.818 205.786C154.016 205.507 154.287 205.276 154.632 205.093C154.984 204.902 155.383 204.807 155.831 204.807C156.351 204.807 156.821 204.935 157.239 205.192C157.664 205.449 157.998 205.815 158.24 206.292C158.489 206.761 158.614 207.308 158.614 207.931C158.614 208.554 158.489 209.108 158.24 209.592C157.998 210.069 157.664 210.439 157.239 210.703C156.821 210.967 156.351 211.099 155.831 211.099C155.383 211.099 154.987 211.007 154.643 210.824C154.305 210.641 154.03 210.41 153.818 210.131V213.904H152.278V204.906H153.818V205.786ZM157.041 207.931C157.041 207.564 156.964 207.249 156.81 206.985C156.663 206.714 156.465 206.508 156.216 206.369C155.974 206.23 155.71 206.16 155.424 206.16C155.145 206.16 154.881 206.233 154.632 206.38C154.39 206.519 154.192 206.725 154.038 206.996C153.891 207.267 153.818 207.586 153.818 207.953C153.818 208.32 153.891 208.639 154.038 208.91C154.192 209.181 154.39 209.39 154.632 209.537C154.881 209.676 155.145 209.746 155.424 209.746C155.71 209.746 155.974 209.673 156.216 209.526C156.465 209.379 156.663 209.17 156.81 208.899C156.964 208.628 157.041 208.305 157.041 207.931ZM163.135 204.18C162.863 204.18 162.636 204.096 162.453 203.927C162.277 203.751 162.189 203.535 162.189 203.278C162.189 203.021 162.277 202.809 162.453 202.64C162.636 202.464 162.863 202.376 163.135 202.376C163.406 202.376 163.63 202.464 163.806 202.64C163.989 202.809 164.081 203.021 164.081 203.278C164.081 203.535 163.989 203.751 163.806 203.927C163.63 204.096 163.406 204.18 163.135 204.18ZM163.894 204.906V211H162.354V204.906H163.894ZM168.792 204.818C169.518 204.818 170.105 205.049 170.552 205.511C171 205.966 171.223 206.604 171.223 207.425V211H169.683V207.634C169.683 207.15 169.562 206.78 169.32 206.523C169.078 206.259 168.748 206.127 168.33 206.127C167.905 206.127 167.568 206.259 167.318 206.523C167.076 206.78 166.955 207.15 166.955 207.634V211H165.415V204.906H166.955V205.665C167.161 205.401 167.421 205.196 167.736 205.049C168.059 204.895 168.411 204.818 168.792 204.818ZM178.686 204.818C179.412 204.818 179.998 205.049 180.446 205.511C180.893 205.966 181.117 206.604 181.117 207.425V211H179.577V207.634C179.577 207.15 179.456 206.78 179.214 206.523C178.972 206.259 178.642 206.127 178.224 206.127C177.798 206.127 177.461 206.259 177.212 206.523C176.97 206.78 176.849 207.15 176.849 207.634V211H175.309V204.906H176.849V205.665C177.054 205.401 177.314 205.196 177.63 205.049C177.952 204.895 178.304 204.818 178.686 204.818ZM185.287 211.099C184.701 211.099 184.173 210.971 183.703 210.714C183.234 210.45 182.864 210.08 182.592 209.603C182.328 209.126 182.196 208.576 182.196 207.953C182.196 207.33 182.332 206.78 182.603 206.303C182.882 205.826 183.26 205.46 183.736 205.203C184.213 204.939 184.745 204.807 185.331 204.807C185.918 204.807 186.45 204.939 186.926 205.203C187.403 205.46 187.777 205.826 188.048 206.303C188.327 206.78 188.466 207.33 188.466 207.953C188.466 208.576 188.323 209.126 188.037 209.603C187.759 210.08 187.377 210.45 186.893 210.714C186.417 210.971 185.881 211.099 185.287 211.099ZM185.287 209.757C185.566 209.757 185.826 209.691 186.068 209.559C186.318 209.42 186.516 209.214 186.662 208.943C186.809 208.672 186.882 208.342 186.882 207.953C186.882 207.374 186.728 206.93 186.42 206.622C186.12 206.307 185.749 206.149 185.309 206.149C184.869 206.149 184.499 206.307 184.198 206.622C183.905 206.93 183.758 207.374 183.758 207.953C183.758 208.532 183.901 208.98 184.187 209.295C184.481 209.603 184.847 209.757 185.287 209.757ZM194.01 206.171V209.119C194.01 209.324 194.058 209.475 194.153 209.57C194.256 209.658 194.424 209.702 194.659 209.702H195.374V211H194.406C193.108 211 192.459 210.369 192.459 209.108V206.171H191.733V204.906H192.459V203.399H194.01V204.906H195.374V206.171H194.01ZM197.263 204.18C196.991 204.18 196.764 204.096 196.581 203.927C196.405 203.751 196.317 203.535 196.317 203.278C196.317 203.021 196.405 202.809 196.581 202.64C196.764 202.464 196.991 202.376 197.263 202.376C197.534 202.376 197.758 202.464 197.934 202.64C198.117 202.809 198.209 203.021 198.209 203.278C198.209 203.535 198.117 203.751 197.934 203.927C197.758 204.096 197.534 204.18 197.263 204.18ZM198.022 204.906V211H196.482V204.906H198.022ZM207.111 204.818C207.859 204.818 208.461 205.049 208.915 205.511C209.377 205.966 209.608 206.604 209.608 207.425V211H208.068V207.634C208.068 207.157 207.947 206.794 207.705 206.545C207.463 206.288 207.133 206.16 206.715 206.16C206.297 206.16 205.964 206.288 205.714 206.545C205.472 206.794 205.351 207.157 205.351 207.634V211H203.811V207.634C203.811 207.157 203.69 206.794 203.448 206.545C203.206 206.288 202.876 206.16 202.458 206.16C202.033 206.16 201.696 206.288 201.446 206.545C201.204 206.794 201.083 207.157 201.083 207.634V211H199.543V204.906H201.083V205.643C201.281 205.386 201.534 205.185 201.842 205.038C202.158 204.891 202.502 204.818 202.876 204.818C203.353 204.818 203.778 204.921 204.152 205.126C204.526 205.324 204.816 205.61 205.021 205.984C205.219 205.632 205.505 205.35 205.879 205.137C206.261 204.924 206.671 204.818 207.111 204.818ZM216.735 207.821C216.735 208.041 216.72 208.239 216.691 208.415H212.236C212.272 208.855 212.426 209.2 212.698 209.449C212.969 209.698 213.303 209.823 213.699 209.823C214.271 209.823 214.678 209.577 214.92 209.086H216.581C216.405 209.673 216.067 210.157 215.569 210.538C215.07 210.912 214.458 211.099 213.732 211.099C213.145 211.099 212.617 210.971 212.148 210.714C211.686 210.45 211.323 210.08 211.059 209.603C210.802 209.126 210.674 208.576 210.674 207.953C210.674 207.322 210.802 206.769 211.059 206.292C211.315 205.815 211.675 205.449 212.137 205.192C212.599 204.935 213.13 204.807 213.732 204.807C214.311 204.807 214.828 204.932 215.283 205.181C215.745 205.43 216.1 205.786 216.35 206.248C216.606 206.703 216.735 207.227 216.735 207.821ZM215.14 207.381C215.132 206.985 214.989 206.67 214.711 206.435C214.432 206.193 214.091 206.072 213.688 206.072C213.306 206.072 212.984 206.189 212.72 206.424C212.463 206.651 212.305 206.97 212.247 207.381H215.14ZM218.541 211.077C218.262 211.077 218.031 210.993 217.848 210.824C217.672 210.648 217.584 210.432 217.584 210.175C217.584 209.918 217.672 209.706 217.848 209.537C218.031 209.361 218.262 209.273 218.541 209.273C218.812 209.273 219.036 209.361 219.212 209.537C219.388 209.706 219.476 209.918 219.476 210.175C219.476 210.432 219.388 210.648 219.212 210.824C219.036 210.993 218.812 211.077 218.541 211.077Z" fill="#ADD314"/>
<path d="M45.3769 88.6228C42.6378 85.3477 36.6037 77.1501 37.0205 66.4714C37.7748 47.218 58.7948 36.5989 60.5812 35.7255C87.2382 22.9031 121.239 40.9855 136.404 49.0441C161.413 62.3429 161.969 71.4932 179.436 73.6369C198.551 75.979 214.172 66.9875 222.469 75.6813C226.081 79.4725 226.677 84.8912 226.577 88.9999C166.177 88.8808 105.777 88.7617 45.3769 88.6228Z" fill="#C7DB7B"/>
<path d="M165.474 56.2383H97.293V64.416H165.474V56.2383Z" fill="#A3BF37" stroke="#91AB2C" stroke-width="2" stroke-miterlimit="10" stroke-linecap="round"/>
<path d="M165.474 24.1055H97.293V32.2832H165.474V24.1055Z" fill="#A3BF37" stroke="#91AB2C" stroke-width="2" stroke-miterlimit="10" stroke-linecap="round"/>
<path d="M182.107 88.3946H94.0968C91.5959 88.3946 89.5713 86.37 89.5713 83.869V68.3869C89.5713 65.8859 91.5959 63.8613 94.0968 63.8613H182.087C184.588 63.8613 186.612 65.8859 186.612 68.3869V83.869C186.632 86.37 184.608 88.3946 182.107 88.3946Z" fill="#BED46E" stroke="#91AB2C" stroke-width="2" stroke-miterlimit="10" stroke-linecap="round"/>
<path d="M169.582 88.3946H94.0968C91.5959 88.3946 89.5713 86.37 89.5713 83.869V68.3869C89.5713 65.8859 91.5959 63.8613 94.0968 63.8613H169.582C172.083 63.8613 174.108 65.8859 174.108 68.3869V83.869C174.108 86.37 172.083 88.3946 169.582 88.3946Z" fill="#CBDE7F" stroke="#91AB2C" stroke-width="2" stroke-miterlimit="10" stroke-linecap="round"/>
<path d="M155.669 73.5869L153.009 78.6682" stroke="#91AB2C" stroke-width="2" stroke-miterlimit="10" stroke-linecap="round"/>
<path d="M162.774 72.04L158.407 80.2178" stroke="#91AB2C" stroke-width="2" stroke-miterlimit="10" stroke-linecap="round"/>
<path d="M168.173 73.5869L165.514 78.6682" stroke="#91AB2C" stroke-width="2" stroke-miterlimit="10" stroke-linecap="round"/>
<path d="M129.19 79.3246C128.018 75.8312 124.565 74.0249 121.806 74.8586C119.861 75.4541 118.372 77.3199 117.955 79.5826" stroke="#91AB2C" stroke-width="2" stroke-miterlimit="10" stroke-linecap="round"/>
<path d="M176.609 70.708H179.825" stroke="#91AB2C" stroke-width="2" stroke-miterlimit="10" stroke-linecap="round"/>
<path d="M182.226 70.708H183.02" stroke="#91AB2C" stroke-width="2" stroke-miterlimit="10" stroke-linecap="round"/>
<path d="M182.107 56.9736H94.0968C91.5959 56.9736 89.5713 54.9491 89.5713 52.4481V36.966C89.5713 34.465 91.5959 32.4404 94.0968 32.4404H182.087C184.588 32.4404 186.612 34.465 186.612 36.966V52.4481C186.632 54.9491 184.608 56.9736 182.107 56.9736Z" fill="#BED46E" stroke="#91AB2C" stroke-width="2" stroke-miterlimit="10" stroke-linecap="round"/>
<path d="M169.582 56.9736H94.0968C91.5959 56.9736 89.5713 54.9491 89.5713 52.4481V36.966C89.5713 34.465 91.5959 32.4404 94.0968 32.4404H169.582C172.083 32.4404 174.108 34.465 174.108 36.966V52.4481C174.108 54.9491 172.083 56.9736 169.582 56.9736Z" fill="#CBDE7F" stroke="#91AB2C" stroke-width="2" stroke-miterlimit="10" stroke-linecap="round"/>
<path d="M106.841 41.9677C108.746 45.1236 112.518 46.1161 115.019 44.687C116.805 43.6747 117.837 41.531 117.738 39.2285" stroke="#91AB2C" stroke-width="2" stroke-miterlimit="10" stroke-linecap="round"/>
<path d="M142.309 41.9677C140.403 45.1236 136.632 46.1161 134.131 44.687C132.345 43.6747 131.313 41.531 131.412 39.2285" stroke="#91AB2C" stroke-width="2" stroke-miterlimit="10" stroke-linecap="round"/>
<path d="M176.609 36.5498H179.825" stroke="#91AB2C" stroke-width="2" stroke-miterlimit="10" stroke-linecap="round"/>
<path d="M182.226 36.5498H183.02" stroke="#91AB2C" stroke-width="2" stroke-miterlimit="10" stroke-linecap="round"/>
<path d="M182.107 25.5332H94.0968C91.5959 25.5332 89.5713 23.5086 89.5713 21.0077V5.52554C89.5713 3.02458 91.5959 1 94.0968 1H182.087C184.588 1 186.612 3.02458 186.612 5.52554V21.0077C186.632 23.5086 184.608 25.5332 182.107 25.5332Z" fill="#BED46E" stroke="#91AB2C" stroke-width="2" stroke-miterlimit="10" stroke-linecap="round"/>
<path d="M169.582 25.5332H94.0968C91.5959 25.5332 89.5713 23.5086 89.5713 21.0077V5.52554C89.5713 3.02458 91.5959 1 94.0968 1H169.582C172.083 1 174.108 3.02458 174.108 5.52554V21.0077C174.108 23.5086 172.083 25.5332 169.582 25.5332Z" fill="#CBDE7F" stroke="#91AB2C" stroke-width="2" stroke-miterlimit="10" stroke-linecap="round"/>
<path d="M104.994 10.2705L102.751 16.9" stroke="#91AB2C" stroke-width="2" stroke-miterlimit="10" stroke-linecap="round"/>
<path d="M110.293 8.24512L106.621 18.9238" stroke="#91AB2C" stroke-width="2" stroke-miterlimit="10" stroke-linecap="round"/>
<path d="M116.03 8.24512L112.358 18.9238" stroke="#91AB2C" stroke-width="2" stroke-miterlimit="10" stroke-linecap="round"/>
<path d="M121.768 8.24512L118.096 18.9238" stroke="#91AB2C" stroke-width="2" stroke-miterlimit="10" stroke-linecap="round"/>
<path d="M127.501 8.24512L123.81 18.9238" stroke="#91AB2C" stroke-width="2" stroke-miterlimit="10" stroke-linecap="round"/>
<path d="M133.239 8.24512L129.547 18.9238" stroke="#91AB2C" stroke-width="2" stroke-miterlimit="10" stroke-linecap="round"/>
<path d="M138.955 8.24512L135.283 18.9238" stroke="#91AB2C" stroke-width="2" stroke-miterlimit="10" stroke-linecap="round"/>
<path d="M144.691 8.24512L141.019 18.9238" stroke="#91AB2C" stroke-width="2" stroke-miterlimit="10" stroke-linecap="round"/>
<path d="M150.429 8.24512L146.737 18.9238" stroke="#91AB2C" stroke-width="2" stroke-miterlimit="10" stroke-linecap="round"/>
<path d="M156.165 8.24512L152.473 18.9238" stroke="#91AB2C" stroke-width="2" stroke-miterlimit="10" stroke-linecap="round"/>
<path d="M160.014 10.2705L157.771 16.9" stroke="#91AB2C" stroke-width="2" stroke-miterlimit="10" stroke-linecap="round"/>
<path d="M176.609 9.21875H179.825" stroke="#91AB2C" stroke-width="2" stroke-miterlimit="10" stroke-linecap="round"/>
<path d="M182.226 9.21875H183.02" stroke="#91AB2C" stroke-width="2" stroke-miterlimit="10" stroke-linecap="round"/>
</svg>
