<svg width="30" height="14" viewBox="0 0 30 14" fill="none" xmlns="http://www.w3.org/2000/svg">
<path d="M15 4.56883L14.6964 4.33683C13.8079 3.65789 12.4598 3.05676 10.397 2.83941C8.09828 2.59739 5.87257 2.20473 4.13104 1.8063C3.26061 1.60716 2.50555 1.40531 1.91965 1.21829C1.627 1.12488 1.37115 1.03346 1.16166 0.946003C1.0052 0.880689 0.855427 0.809858 0.731615 0.732719C0.71265 0.820848 0.693846 0.931122 0.674189 1.06728C0.657635 1.18194 0.641601 1.30608 0.624028 1.44213L0.622861 1.45116C0.604999 1.58945 0.585698 1.73852 0.563557 1.89362L0.563549 1.89368C0.415936 2.92686 0.493351 4.97094 1.13986 7.02829C1.786 9.08444 2.97211 11.0673 4.97057 12.1065L4.74041 12.5491L4.97057 12.1065C7.17064 13.2504 9.0213 13.4891 10.4928 13.3529C11.9691 13.2164 13.095 12.6996 13.8396 12.2862L15 4.56883ZM15 4.56883L15.3036 4.33681M15 4.56883L15.3036 4.33681M15.3036 4.33681C16.192 3.65784 17.5403 3.05676 19.6029 2.83941L15.3036 4.33681ZM14.9999 11.5299L15.2898 11.7362C15.5488 11.9205 15.8348 12.1052 16.1599 12.286C16.9044 12.6995 18.0306 13.2164 19.5072 13.3529C20.9787 13.4891 22.8294 13.2504 25.0295 12.1065C27.0278 11.0673 28.2139 9.08444 28.86 7.02829C29.5065 4.97099 29.584 2.92694 29.4366 1.89371C29.4366 1.89368 29.4365 1.89366 29.4365 1.89363L29.9315 1.82296C29.9093 1.66744 29.8899 1.51763 29.8716 1.37571C29.747 0.41266 29.6695 -0.186458 29.0663 0.266009C28.3743 0.785149 24.1063 1.86251 19.5505 2.34216L14.9999 11.5299ZM14.9999 11.5299L14.71 11.7362M14.9999 11.5299L14.71 11.7362M29.3127 0.594438L29.0663 0.266067L29.3126 0.594406C29.2478 0.570728 29.2149 0.533623 29.2035 0.517483M29.3127 0.594438L29.2227 0.563923C29.2143 0.540288 29.2076 0.525557 29.2035 0.517483M29.3127 0.594438C29.3208 0.597422 29.3295 0.600193 29.3387 0.602681C29.4023 0.619867 29.4455 0.610689 29.4593 0.606421M29.3127 0.594438L29.4593 0.606421M29.2035 0.517483C29.2006 0.511634 29.1989 0.509279 29.1988 0.509564C29.1987 0.509848 29.2002 0.512773 29.2035 0.517483ZM29.4593 0.606421C29.4624 0.605469 29.464 0.604761 29.464 0.604645C29.464 0.60453 29.4625 0.605006 29.4593 0.606421ZM14.71 11.7362C14.451 11.9206 14.1648 12.1053 13.8397 12.2862L14.71 11.7362ZM9.83559 6.01106C9.14688 5.93453 8.04801 5.85895 7.13069 5.80282C6.67003 5.77464 6.25178 5.75115 5.94871 5.73472C5.79715 5.7265 5.67434 5.72004 5.58935 5.71564L5.49136 5.7106L5.46576 5.7093L5.45919 5.70897L5.4575 5.70889L5.45707 5.70887L5.45695 5.70886L5.43195 6.20823L5.4569 5.70886L4.93195 5.68263V6.20823C4.93195 7.21612 5.51511 8.2367 6.30134 9.00282C7.09413 9.77534 8.1733 10.3693 9.29204 10.4556L9.29228 10.4557C10.3799 10.539 11.2155 10.2468 11.7886 9.81123C12.3353 9.39577 12.6796 8.81376 12.6797 8.30752V8.30747C12.6797 8.02312 12.5608 7.74951 12.4146 7.52308C12.2628 7.28797 12.0527 7.05851 11.8045 6.85347C11.3094 6.44449 10.6203 6.09823 9.83559 6.01106ZM9.83559 6.01106L9.78037 6.508L9.83557 6.01106C9.83558 6.01106 9.83558 6.01106 9.83559 6.01106ZM20.7078 10.4556L20.7076 10.4557C19.62 10.539 18.7845 10.2468 18.2114 9.81122C17.6648 9.39576 17.3204 8.81374 17.3204 8.30747C17.3204 8.02315 17.4393 7.74956 17.5854 7.52312C17.7372 7.28799 17.9473 7.05852 18.1955 6.85347C18.6905 6.44447 19.3795 6.09819 20.1643 6.01106C20.1643 6.01106 20.1643 6.01105 20.1643 6.01105L20.2195 6.508L20.7078 10.4556ZM20.7078 10.4556C21.8267 10.3693 22.9058 9.77534 23.6986 9.00281C24.4848 8.23668 25.0679 7.2161 25.0679 6.20823V5.68262M20.7078 10.4556L25.0679 5.68262M25.0679 5.68262L24.543 5.70886M25.0679 5.68262L24.543 5.70886M24.543 5.70886L24.5679 6.20823L24.543 5.70886ZM0.80109 0.509534C0.801176 0.509819 0.799688 0.512745 0.796368 0.517456C0.799344 0.511605 0.801004 0.509249 0.80109 0.509534ZM0.535865 0.604645C0.535832 0.604529 0.537366 0.605005 0.540568 0.606421C0.5375 0.605468 0.535899 0.604761 0.535865 0.604645Z" stroke="black"/>
</svg>
