<svg width="19" height="20" viewBox="0 0 19 20" fill="none" xmlns="http://www.w3.org/2000/svg">
<path fill-rule="evenodd" clip-rule="evenodd" d="M13.3916 2H5.3916V2.5C5.3916 2.77614 5.16774 3 4.8916 3C4.61546 3 4.3916 2.77614 4.3916 2.5V2H2.8916C2.06317 2 1.3916 2.67157 1.3916 3.5V6H17.3916V3.5C17.3916 2.67157 16.72 2 15.8916 2H14.3916V2.5C14.3916 2.77614 14.1677 3 13.8916 3C13.6155 3 13.3916 2.77614 13.3916 2.5V2ZM14.3916 1H15.8916C17.2723 1 18.3916 2.11929 18.3916 3.5V16.507C18.3916 17.8877 17.2723 19.007 15.8916 19.007H2.8916C1.51089 19.007 0.391602 17.8877 0.391602 16.507V3.5C0.391602 2.11929 1.51089 1 2.8916 1H4.3916V0.5C4.3916 0.223858 4.61546 0 4.8916 0C5.16774 0 5.3916 0.223858 5.3916 0.5V1H13.3916V0.5C13.3916 0.223858 13.6155 0 13.8916 0C14.1677 0 14.3916 0.223858 14.3916 0.5V1ZM17.3916 7H1.3916V16.507C1.3916 17.3354 2.06317 18.007 2.8916 18.007H15.8916C16.72 18.007 17.3916 17.3354 17.3916 16.507V7ZM2.3916 8.5C2.3916 8.22386 2.61546 8 2.8916 8H4.8916C5.16774 8 5.3916 8.22386 5.3916 8.5V10.5C5.3916 10.7761 5.16774 11 4.8916 11H2.8916C2.61546 11 2.3916 10.7761 2.3916 10.5V8.5ZM3.3916 9V10H4.3916V9H3.3916Z" fill="#121924"/>
</svg>
