<svg width="198" height="196" viewBox="0 0 198 196" fill="none" xmlns="http://www.w3.org/2000/svg">
<path d="M98.6646 6.1836C124.997 6.1836 146.331 27.5174 146.331 53.8499C146.331 78.7542 127.184 99.1954 102.815 101.293C137.94 102.543 169.093 119.413 189.489 145.255C168.334 172.078 135.485 189.306 98.6646 189.306C61.8437 189.306 28.995 172.078 7.83969 145.255C28.1916 119.458 59.3444 102.587 94.5139 101.293C70.1452 99.1954 51.043 78.7542 51.043 53.8499C50.9983 27.5174 72.3767 6.1836 98.6646 6.1836ZM98.6646 0.158203C69.074 0.158203 44.973 24.2146 44.973 53.8499C44.973 72.6843 54.4795 89.2424 69.2078 98.8381C43.277 105.265 19.9794 120.172 3.10877 141.55L0.163086 145.255L3.10877 148.959C26.3617 178.416 61.1742 195.287 98.6646 195.287C136.155 195.287 170.968 178.416 194.221 148.959L197.166 145.255L194.221 141.55C177.35 120.172 154.052 105.265 128.121 98.8381C142.85 89.287 152.356 72.729 152.356 53.8499C152.356 24.2593 128.3 0.158203 98.6646 0.158203Z" fill="#272A3D"/>
</svg>
