<svg width="12" height="12" viewBox="0 0 12 12" fill="none" xmlns="http://www.w3.org/2000/svg">
<path d="M9.75743 6.01764L10.6618 10.0684L11.5285 9.88003C11.7169 9.84234 11.9053 9.95539 11.943 10.1438C11.9807 10.3322 11.8676 10.5206 11.6792 10.5583L9.1922 11.1235C9.0038 11.1612 8.81539 11.0482 8.7777 10.8598C8.74002 10.6713 8.85307 10.4829 9.04148 10.4453L9.90816 10.2568L8.98495 6.18721C7.68493 6.28141 6.46027 5.41473 6.15882 4.09587L11.4154 2.92773C11.7169 4.22776 10.9821 5.54662 9.75743 6.01764Z" fill="black"/>
<path d="M0.261742 10.1438C0.299424 9.95539 0.487832 9.84234 0.676241 9.88003L1.54292 10.0684L2.44729 6.01764C1.22263 5.54662 0.487833 4.2466 0.789288 2.92773L6.0459 4.09587C5.74444 5.41473 4.53863 6.28141 3.21976 6.18721L2.3154 10.238L3.18208 10.4264C3.37049 10.4641 3.48354 10.6525 3.44585 10.8409C3.40817 11.0293 3.21976 11.1424 3.03135 11.1047L0.544355 10.5395C0.337106 10.5206 0.22406 10.3322 0.261742 10.1438Z" fill="black"/>
<path d="M6.98786 3.4173C6.96901 3.49266 6.87481 3.54919 6.79945 3.5115C6.72408 3.49266 6.66756 3.39846 6.70524 3.32309L7.1009 1.96655C7.11974 1.89119 7.21395 1.83466 7.28931 1.87235C7.36467 1.89119 7.4212 1.98539 7.38351 2.06075L6.98786 3.4173Z" fill="black"/>
<path d="M5.53736 3.26652C5.46199 3.28536 5.36779 3.24768 5.34895 3.17231L4.95329 1.81577C4.93445 1.74041 4.97213 1.6462 5.04749 1.62736C5.12286 1.60852 5.21706 1.6462 5.2359 1.72156L5.63156 3.07811C5.66924 3.15347 5.61272 3.24768 5.53736 3.26652Z" fill="black"/>
<path d="M6.13943 0.874023C6.21479 0.874023 6.29016 0.930546 6.29016 1.02475L6.34668 2.43782C6.34668 2.51318 6.29016 2.58855 6.19595 2.58855C6.12059 2.58855 6.04523 2.53202 6.04523 2.43782L5.9887 1.02475C5.9887 0.949387 6.04523 0.874023 6.13943 0.874023Z" fill="black"/>
</svg>
