<svg width="14" height="14" viewBox="0 0 14 14" fill="none" xmlns="http://www.w3.org/2000/svg">
<path d="M13.0288 3.84717H11.5264V9.86661H13.0288V3.84717Z" fill="black"/>
<path d="M12.9538 10.248L12.2411 12.0098L11.5283 10.248H12.9538Z" fill="black"/>
<path d="M12.7543 2.77637H11.8006C11.6492 2.77637 11.5264 2.89916 11.5264 3.05063V3.46608H13.0286V3.05063C13.0286 2.89916 12.9058 2.77637 12.7543 2.77637Z" fill="black"/>
<path d="M9.09152 1.67554H7.41511V1.39098C7.41511 1.1141 7.19065 0.889648 6.91377 0.889648H3.62376C3.34687 0.889648 3.12241 1.1141 3.12241 1.39098V1.67554H1.44601C0.854382 1.67554 0.373047 2.15688 0.373047 2.7485V12.0371C0.373047 12.6287 0.854382 13.1101 1.44601 13.1101H9.09152C9.68314 13.1101 10.1645 12.6287 10.1645 12.0371V2.7485C10.1645 2.15688 9.68314 1.67554 9.09152 1.67554ZM9.35976 12.0371C9.35976 12.185 9.23939 12.3054 9.09152 12.3054H1.44601C1.29814 12.3054 1.17776 12.185 1.17776 12.0371V2.7485C1.17776 2.60062 1.29814 2.48026 1.44601 2.48026H9.09152C9.23939 2.48026 9.35976 2.60062 9.35976 2.7485V12.0371Z" fill="black"/>
<path d="M7.87771 3.72363H2.6592C2.43693 3.72363 2.25684 3.90373 2.25684 4.12599C2.25684 4.34826 2.43693 4.52836 2.6592 4.52836H7.87771C8.09998 4.52836 8.28007 4.34826 8.28007 4.12599C8.28007 3.90373 8.09998 3.72363 7.87771 3.72363Z" fill="black"/>
<path d="M7.87771 5.90137H2.6592C2.43693 5.90137 2.25684 6.08146 2.25684 6.30372C2.25684 6.52599 2.43693 6.70608 2.6592 6.70608H7.87771C8.09998 6.70608 8.28007 6.52599 8.28007 6.30372C8.28007 6.08146 8.09998 5.90137 7.87771 5.90137Z" fill="black"/>
<path d="M7.87771 8.0791H2.6592C2.43693 8.0791 2.25684 8.25919 2.25684 8.48147C2.25684 8.70373 2.43693 8.88383 2.6592 8.88383H7.87771C8.09998 8.88383 8.28007 8.70373 8.28007 8.48147C8.28007 8.25919 8.09998 8.0791 7.87771 8.0791Z" fill="black"/>
<path d="M7.87771 10.2568H2.6592C2.43693 10.2568 2.25684 10.4369 2.25684 10.6592C2.25684 10.8815 2.43693 11.0616 2.6592 11.0616H7.87771C8.09998 11.0616 8.28007 10.8815 8.28007 10.6592C8.28007 10.4369 8.09998 10.2568 7.87771 10.2568Z" fill="black"/>
</svg>
