<svg width="16" height="20" viewBox="0 0 16 20" fill="none" xmlns="http://www.w3.org/2000/svg">
<path fill-rule="evenodd" clip-rule="evenodd" d="M4 1V15H15V1.5C15 1.22386 14.7761 1 14.5 1H4ZM3 1H2.5C1.67157 1 1 1.67157 1 2.5V15.5C1.418 15.186 1.937 15 2.5 15H3V1ZM0.151 18.358C0.054367 18.264 -0.000100638 18.1348 1.39597e-07 18V2.5C1.39597e-07 1.11929 1.11929 0 2.5 0H14.5C15.3284 0 16 0.671573 16 1.5V18.5C16 19.3284 15.3284 20 14.5 20H2.5C1.44994 20.0001 0.511657 19.3442 0.151 18.358ZM15 16H2.5C1.67157 16 1 16.6716 1 17.5C1 18.3284 1.67157 19 2.5 19H14.5C14.7761 19 15 18.7761 15 18.5V16ZM6.5 8C6.22386 8 6 7.77614 6 7.5C6 7.22386 6.22386 7 6.5 7H12.5C12.7761 7 13 7.22386 13 7.5C13 7.77614 12.7761 8 12.5 8H6.5ZM6.5 6C6.22386 6 6 5.77614 6 5.5C6 5.22386 6.22386 5 6.5 5H10.5C10.7761 5 11 5.22386 11 5.5C11 5.77614 10.7761 6 10.5 6H6.5Z" fill="#121924"/>
</svg>
