<svg width="24" height="24" viewBox="0 0 24 24" fill="none" xmlns="http://www.w3.org/2000/svg">
<path fill-rule="evenodd" clip-rule="evenodd" d="M17 18.9995V16.4995C17 16.2234 17.2239 15.9995 17.5 15.9995C17.7761 15.9995 18 16.2234 18 16.4995V18.9995H20.5C20.7761 18.9995 21 19.2234 21 19.4995C21 19.7757 20.7761 19.9995 20.5 19.9995H18V22.4995C18 22.7757 17.7761 22.9995 17.5 22.9995C17.2239 22.9995 17 22.7757 17 22.4995V19.9995H14.5C14.2239 19.9995 14 19.7757 14 19.4995C14 19.2234 14.2239 18.9995 14.5 18.9995H17ZM14.043 13.5645C13.4004 13.8523 12.7041 14.0005 12 13.9995C11.2974 14.0006 10.6025 13.853 9.961 13.5665L5.88 15.4215C5.34408 15.6648 4.99995 16.199 5 16.7875V17.4995C5 18.3279 5.67157 18.9995 6.5 18.9995H11.5C11.7761 18.9995 12 19.2234 12 19.4995C12 19.7757 11.7761 19.9995 11.5 19.9995H6.5C5.11929 19.9995 4 18.8802 4 17.4995V16.7875C3.99988 15.8072 4.57268 14.9174 5.465 14.5115L8.922 12.9405C7.24159 11.628 6.57838 9.39433 7.27029 7.3775C7.96219 5.36066 9.85697 4.0045 11.9892 4.00001C14.1214 3.99552 16.0219 5.34368 16.7223 7.35759C17.4227 9.37149 16.7689 11.608 15.094 12.9275L17.697 14.0395C17.9511 14.1483 18.0688 14.4425 17.96 14.6965C17.8512 14.9506 17.5571 15.0683 17.303 14.9595L14.043 13.5645ZM12 12.9995C14.2091 12.9995 16 11.2087 16 8.99952C16 6.79038 14.2091 4.99952 12 4.99952C9.79086 4.99952 8 6.79038 8 8.99952C8 11.2087 9.79086 12.9995 12 12.9995Z" fill="#ADD314"/>
</svg>
