<svg width="50" height="50" viewBox="0 0 50 50" fill="none" xmlns="http://www.w3.org/2000/svg">
<rect width="50" height="50" rx="25" fill="black" fill-opacity="0.4"/>
<path fill-rule="evenodd" clip-rule="evenodd" d="M40.2621 22.8207C41.4657 24.0243 41.4653 25.9761 40.2612 27.1802L37.3781 30.0633C36.3123 31.1291 34.6325 31.2685 33.4065 30.3928L30.5897 28.3801C29.4302 27.5514 29.0459 26.0022 29.6837 24.727L30.0335 24.0268C30.1804 23.7341 30.0729 23.3776 29.7886 23.2151L27.2368 21.7569C25.8296 20.9533 24.1135 20.9062 22.6637 21.6314L20.89 22.5194C20.6414 22.6438 20.5068 22.9191 20.5612 23.1917L20.8783 24.7802C21.1504 26.143 20.477 27.5197 19.234 28.1418L15.5333 29.9944C14.3455 30.5883 12.9112 30.3549 11.9734 29.4153L9.73739 27.1793C9.15939 26.6013 8.83477 25.8173 8.83493 24.9997C8.83509 24.1822 9.16003 23.398 9.73826 22.8198L11.4824 21.0756C18.9475 13.6106 31.0496 13.6082 38.5116 21.0702L40.2621 22.8207Z" fill="#EA0000"/>
</svg>
