<svg width="20" height="21" viewBox="0 0 20 21" fill="none" xmlns="http://www.w3.org/2000/svg">
<path fill-rule="evenodd" clip-rule="evenodd" d="M5.869 9.29949L1.813 11.3865C1.31356 11.6438 0.999786 12.1587 1 12.7205V13.5005C1 14.3289 1.67157 15.0005 2.5 15.0005C2.77614 15.0005 3 15.2243 3 15.5005C3 15.7766 2.77614 16.0005 2.5 16.0005C1.11929 16.0005 2.19957e-09 14.8812 2.19957e-09 13.5005V12.7205C-3.91766e-05 11.784 0.523314 10.926 1.356 10.4975L4.714 8.76949C3.25212 7.49387 2.66017 5.4877 3.19539 3.6228C3.73061 1.7579 5.29637 0.370989 7.21223 0.0647732C9.1281 -0.241442 11.0482 0.588326 12.138 2.19349C12.2416 2.34117 12.2577 2.53325 12.18 2.69608C12.1023 2.85891 11.9428 2.96725 11.7628 2.97955C11.5828 2.99186 11.4102 2.90623 11.311 2.75549C10.3928 1.403 8.7441 0.745295 7.14713 1.09447C5.55016 1.44365 4.32636 2.72943 4.05645 4.3417C3.78654 5.95396 4.52483 7.56822 5.921 8.41849C6.07809 8.51495 6.16936 8.69003 6.15848 8.87406C6.14761 9.05808 6.03636 9.22119 5.869 9.29849V9.29949ZM9.961 13.5675L5.88 15.4225C5.34409 15.6658 4.99995 16.1999 5 16.7885V17.5005C5 17.8983 5.15804 18.2798 5.43934 18.5611C5.72064 18.8425 6.10218 19.0005 6.5 19.0005H17.5C18.3284 19.0005 19 18.3289 19 17.5005V16.7885C19.0001 16.1999 18.6559 15.6658 18.12 15.4225L14.039 13.5675C13.3975 13.854 12.7026 14.0015 12 14.0005C11.2974 14.0015 10.6025 13.854 9.961 13.5675ZM8.922 12.9415C7.24021 11.6277 6.57763 9.39138 7.27234 7.37354C7.96706 5.35569 9.86591 4.00119 12 4.00119C14.1341 4.00119 16.0329 5.35569 16.7277 7.37354C17.4224 9.39138 16.7598 11.6277 15.078 12.9415L18.535 14.5115C19.428 14.9176 20.0009 15.8085 20 16.7895V17.5015C20 18.1645 19.7366 18.8004 19.2678 19.2693C18.7989 19.7381 18.163 20.0015 17.5 20.0015H6.5C5.83679 20.0015 5.20075 19.738 4.73188 19.2689C4.26301 18.7998 3.99973 18.1637 4 17.5005V16.7885C3.99988 15.8082 4.57268 14.9183 5.465 14.5125L8.922 12.9415ZM12 13.0005C14.2091 13.0005 16 11.2096 16 9.00049C16 6.79135 14.2091 5.00049 12 5.00049C9.79086 5.00049 8 6.79135 8 9.00049C8 11.2096 9.79086 13.0005 12 13.0005Z" fill="#121924"/>
</svg>
