<svg width="17" height="19" viewBox="0 0 17 19" fill="none" xmlns="http://www.w3.org/2000/svg">
<path fill-rule="evenodd" clip-rule="evenodd" d="M13 14.9995V12.4995C13 12.2234 13.2239 11.9995 13.5 11.9995C13.7761 11.9995 14 12.2234 14 12.4995V14.9995H16.5C16.7761 14.9995 17 15.2234 17 15.4995C17 15.7757 16.7761 15.9995 16.5 15.9995H14V18.4995C14 18.7757 13.7761 18.9995 13.5 18.9995C13.2239 18.9995 13 18.7757 13 18.4995V15.9995H10.5C10.2239 15.9995 10 15.7757 10 15.4995C10 15.2234 10.2239 14.9995 10.5 14.9995H13ZM10.043 9.56452C9.40039 9.85225 8.70409 10.0005 8 9.99952C7.2974 10.0006 6.60253 9.85301 5.961 9.56652L1.88 11.4215C1.34408 11.6648 0.999949 12.199 1 12.7875V13.4995C1 14.3279 1.67157 14.9995 2.5 14.9995H7.5C7.77614 14.9995 8 15.2234 8 15.4995C8 15.7757 7.77614 15.9995 7.5 15.9995H2.5C1.11929 15.9995 1.90676e-08 14.8802 1.90676e-08 13.4995V12.7875C-0.000120668 11.8072 0.572679 10.9174 1.465 10.5115L4.922 8.94052C3.24159 7.62804 2.57838 5.39433 3.27029 3.3775C3.96219 1.36066 5.85697 0.00450224 7.98918 1.11865e-05C10.1214 -0.00447987 12.0219 1.34368 12.7223 3.35759C13.4227 5.37149 12.7689 7.60798 11.094 8.92752L13.697 10.0395C13.9511 10.1483 14.0688 10.4425 13.96 10.6965C13.8512 10.9506 13.5571 11.0683 13.303 10.9595L10.043 9.56452ZM8 8.99952C10.2091 8.99952 12 7.20866 12 4.99952C12 2.79038 10.2091 0.999518 8 0.999518C5.79086 0.999518 4 2.79038 4 4.99952C4 7.20866 5.79086 8.99952 8 8.99952Z" fill="#121924"/>
</svg>
