<svg width="57" height="56" viewBox="0 0 57 56" fill="none" xmlns="http://www.w3.org/2000/svg">
<path d="M40.4853 14.2441H39.7124V18.2984C39.7124 20.3326 38.1097 22.0444 36.0754 22.0871C33.9843 22.1345 32.2677 20.4417 32.2677 18.3647V14.2441H24.3204V18.2936C24.3204 20.3279 22.7224 22.0349 20.6881 22.0871C18.5922 22.1393 16.8709 20.4464 16.8709 18.3647V14.2441H15.657C12.5321 14.2441 10 16.7762 10 19.9011V38.9302C10 42.809 13.1486 45.9576 17.0274 45.9576H39.1102C42.989 45.9576 46.1376 42.809 46.1376 38.9302V19.9011C46.1424 16.781 43.6102 14.2441 40.4853 14.2441ZM44.4637 38.7737C44.4637 41.8654 41.9553 44.3738 38.8636 44.3738H17.2835C14.1918 44.3738 11.6834 41.8654 11.6834 38.7737V23.6377H44.4637V38.7737Z" fill="#ADD134"/>
<path d="M20.5981 20.6028C19.3652 20.6028 18.3599 19.6022 18.3599 18.3646V12.2382C18.3599 11.0053 19.3605 10 20.5981 10C21.831 10 22.8362 11.0005 22.8362 12.2382V18.3646C22.8315 19.6022 21.831 20.6028 20.5981 20.6028Z" fill="#ADD134"/>
<path d="M35.9901 20.6028C34.7572 20.6028 33.7519 19.6022 33.7519 18.3646V12.2382C33.7519 11.0053 34.7524 10 35.9901 10C37.2229 10 38.2282 11.0005 38.2282 12.2382V18.3646C38.2282 19.6022 37.2229 20.6028 35.9901 20.6028Z" fill="#ADD134"/>
<path d="M36.3408 27.3884C35.8903 26.938 35.2881 26.6866 34.648 26.6866C34.0078 26.6866 33.4056 26.938 32.9551 27.3884L24.8039 35.5397L23.1869 33.9227C22.7365 33.4722 22.1342 33.2209 21.4941 33.2209C20.854 33.2209 20.2517 33.4722 19.8013 33.9227C19.3508 34.3732 19.0995 34.9754 19.0995 35.6155C19.0995 36.2557 19.3508 36.8579 19.8013 37.3084L23.1111 40.6182C23.5615 41.0687 24.1638 41.32 24.8039 41.32C25.4441 41.32 26.0463 41.0687 26.4967 40.6182L36.3408 30.7741C37.275 29.84 37.275 28.3226 36.3408 27.3884Z" fill="#ADD134"/>
<path d="M40.4853 14.2441H39.7124V18.2984C39.7124 20.3326 38.1097 22.0444 36.0754 22.0871C33.9843 22.1345 32.2677 20.4417 32.2677 18.3647V14.2441H24.3204V18.2936C24.3204 20.3279 22.7224 22.0349 20.6881 22.0871C18.5922 22.1393 16.8709 20.4464 16.8709 18.3647V14.2441H15.657C12.5321 14.2441 10 16.7762 10 19.9011V38.9302C10 42.809 13.1486 45.9576 17.0274 45.9576H39.1102C42.989 45.9576 46.1376 42.809 46.1376 38.9302V19.9011C46.1424 16.781 43.6102 14.2441 40.4853 14.2441ZM44.4637 38.7737C44.4637 41.8654 41.9553 44.3738 38.8636 44.3738H17.2835C14.1918 44.3738 11.6834 41.8654 11.6834 38.7737V23.6377H44.4637V38.7737Z" stroke="black" stroke-miterlimit="10"/>
<path d="M20.5981 20.6028C19.3652 20.6028 18.3599 19.6022 18.3599 18.3646V12.2382C18.3599 11.0053 19.3605 10 20.5981 10C21.831 10 22.8362 11.0005 22.8362 12.2382V18.3646C22.8315 19.6022 21.831 20.6028 20.5981 20.6028Z" stroke="black" stroke-miterlimit="10"/>
<path d="M35.9901 20.6028C34.7572 20.6028 33.7519 19.6022 33.7519 18.3646V12.2382C33.7519 11.0053 34.7524 10 35.9901 10C37.2229 10 38.2282 11.0005 38.2282 12.2382V18.3646C38.2282 19.6022 37.2229 20.6028 35.9901 20.6028Z" stroke="black" stroke-miterlimit="10"/>
<path d="M36.3408 27.3884C35.8903 26.938 35.2881 26.6866 34.648 26.6866C34.0078 26.6866 33.4056 26.938 32.9551 27.3884L24.8039 35.5397L23.1869 33.9227C22.7365 33.4722 22.1342 33.2209 21.4941 33.2209C20.854 33.2209 20.2517 33.4722 19.8013 33.9227C19.3508 34.3732 19.0995 34.9754 19.0995 35.6155C19.0995 36.2557 19.3508 36.8579 19.8013 37.3084L23.1111 40.6182C23.5615 41.0687 24.1638 41.32 24.8039 41.32C25.4441 41.32 26.0463 41.0687 26.4967 40.6182L36.3408 30.7741C37.275 29.84 37.275 28.3226 36.3408 27.3884Z" stroke="black" stroke-miterlimit="10"/>
</svg>
