<svg width="22" height="21" viewBox="0 0 22 21" fill="none" xmlns="http://www.w3.org/2000/svg">
<path fill-rule="evenodd" clip-rule="evenodd" d="M1.96571 9.84779V19.0367C1.96571 19.3973 2.26335 19.6911 2.62863 19.6911H5.28927C5.65454 19.6911 5.95219 19.3973 5.95219 19.0367V9.84779C5.95219 9.48717 5.65454 9.19333 5.28927 9.19333H2.62863C2.26335 9.19333 1.96571 9.48717 1.96571 9.84779ZM6.6196 8.37864L7.79208 6.0636C8.33323 4.99512 8.61283 3.81979 8.61283 2.62665V2.29721C8.61283 1.0284 9.65456 0 10.9398 0C12.225 0 13.3028 0.961624 13.4291 2.22154L13.8665 6.56222H18.3039C19.2419 6.56222 20.1393 6.95399 20.7707 7.63959C21.402 8.3252 21.7087 9.24676 21.614 10.1683L20.8158 18.0439C20.6444 19.7223 19.2149 21 17.5057 21H9.27575C8.41893 21 7.58915 20.6706 6.97133 20.0829C6.61959 20.6349 5.99276 21 5.28475 21H2.62412C1.52378 21 0.630859 20.1185 0.630859 19.0322V9.84333C0.630859 8.75705 1.52378 7.87556 2.62412 7.87556H5.28475C5.79885 7.88001 6.26785 8.067 6.6196 8.37864ZM7.2825 10.0036V17.7233C7.2825 18.8096 8.17541 19.6911 9.27575 19.6911H17.5057C18.5294 19.6911 19.3862 18.9254 19.4899 17.9192L20.2882 10.0437C20.3423 9.49163 20.1619 8.93957 19.7831 8.52553C19.4043 8.1115 18.8676 7.87556 18.3039 7.87556H13.2667C12.924 7.87556 12.6399 7.62179 12.6038 7.28344L12.1032 2.35509C12.0446 1.76298 11.5396 1.31334 10.9353 1.31334C10.3851 1.31334 9.93865 1.75407 9.93865 2.29721V2.62665C9.93865 4.02458 9.60945 5.40026 8.97811 6.65127L7.2825 10.0036Z" fill="#272A3D"/>
</svg>
