<svg width="27" height="27" viewBox="0 0 27 27" fill="none" xmlns="http://www.w3.org/2000/svg">
<path d="M13.5 0C17.0804 0 20.5142 1.42232 23.0459 3.95406C25.5777 6.4858 27 9.91958 27 13.5C27 17.0804 25.5777 20.5142 23.0459 23.0459C20.5142 25.5777 17.0804 27 13.5 27C9.91958 27 6.4858 25.5777 3.95406 23.0459C1.42232 20.5142 0 17.0804 0 13.5C0 9.91958 1.42232 6.4858 3.95406 3.95406C6.4858 1.42232 9.91958 0 13.5 0V0ZM13.5 1.42105C10.2965 1.42105 7.22414 2.69365 4.95889 4.95889C2.69365 7.22414 1.42105 10.2965 1.42105 13.5C1.42105 16.7035 2.69365 19.7759 4.95889 22.0411C7.22414 24.3063 10.2965 25.5789 13.5 25.5789C16.7035 25.5789 19.7759 24.3063 22.0411 22.0411C24.3063 19.7759 25.5789 16.7035 25.5789 13.5C25.5789 10.2965 24.3063 7.22414 22.0411 4.95889C19.7759 2.69365 16.7035 1.42105 13.5 1.42105ZM12.7895 5.68421H14.2105V13.3906L20.8838 17.2431L20.1733 18.4737L12.7895 14.2105V5.68421Z" fill="#272A3D"/>
</svg>
