<svg width="12" height="13" viewBox="0 0 12 13" fill="none" xmlns="http://www.w3.org/2000/svg">
<path fill-rule="evenodd" clip-rule="evenodd" d="M3.68015 10.9969C3.74299 10.9864 3.80754 10.9953 3.86515 11.0225C6.14236 12.0979 8.86395 11.3118 10.2171 9.18789C11.5703 7.06397 11.1327 4.26514 9.19574 2.65566C7.25881 1.04618 4.42716 1.12842 2.58692 2.84761C0.746676 4.5668 0.472236 7.38632 1.9464 9.42812C2.01221 9.51911 2.02414 9.6384 1.97765 9.74062L1.2164 11.4075L3.68015 10.9969ZM0.738901 12.1206C0.625067 12.1395 0.510102 12.0941 0.43987 12.0025C0.369638 11.911 0.355569 11.7882 0.403276 11.6831L1.33453 9.64374C-0.23303 7.31606 0.154861 4.18907 2.24364 2.31494C4.33241 0.440808 7.483 0.392932 9.62776 2.20273C11.7725 4.01253 12.2552 7.12629 10.7591 9.50053C9.26303 11.8748 6.24583 12.7831 3.68765 11.6294L0.738901 12.1206Z" fill="#121924"/>
</svg>
