<svg width="14" height="19" viewBox="0 0 14 19" fill="none" xmlns="http://www.w3.org/2000/svg">
<path fill-rule="evenodd" clip-rule="evenodd" d="M9.83043 16C9.40703 17.2 8.27289 18.0025 7.00043 18.0025C5.72796 18.0025 4.59383 17.2 4.17043 16H2.57943C1.73317 16.0001 0.944304 15.5721 0.483068 14.8626C0.0218319 14.1531 -0.0491544 13.2584 0.294426 12.485L1.00043 10.894V8C1.00012 5.4567 2.60278 3.18933 5.00043 2.341V2C5.00043 0.89543 5.89586 0 7.00043 0C8.105 0 9.00043 0.89543 9.00043 2V2.341C11.3304 3.165 13.0004 5.388 13.0004 8V10.894L13.7074 12.484C14.0515 13.2575 13.9807 14.1525 13.5194 14.8623C13.0581 15.5721 12.269 16.0003 11.4224 16H9.83043ZM8.73343 16H5.26743C5.62525 16.6187 6.28574 16.9996 7.00043 16.9996C7.71511 16.9996 8.3756 16.6187 8.73343 16ZM8 2.083V2C8 1.44772 7.55228 1 7 1C6.44772 1 6 1.44772 6 2V2.083C6.66203 1.97186 7.33797 1.97186 8 2.083V2.083ZM7.00043 3C4.239 3 2.00043 5.23858 2.00043 8V11L1.95743 11.203L1.20743 12.891C1.00135 13.3549 1.04384 13.8915 1.32034 14.3171C1.59684 14.7428 2.06985 14.9997 2.57743 15H11.4224C11.9305 15.0002 12.4041 14.7433 12.6809 14.3173C12.9577 13.8913 13 13.3541 12.7934 12.89L12.0434 11.203L12.0004 11V8C12.0004 5.23858 9.76185 3 7.00043 3Z" fill="#121924"/>
</svg>
