<svg width="56" height="56" viewBox="0 0 56 56" fill="none" xmlns="http://www.w3.org/2000/svg">
<rect x="1" y="1" width="53.2857" height="53.2857" rx="26.6429" fill="#ACD037" stroke="#ADD134" stroke-width="2"/>
<path fill-rule="evenodd" clip-rule="evenodd" d="M32.4284 16.0713H30.1315L29.1286 18.077C27.3797 21.5756 23.8041 23.7856 19.8927 23.7856H18.9284C16.7982 23.7856 15.0713 25.5125 15.0713 27.6427C15.0713 29.773 16.7982 31.4999 18.9284 31.4999H19.8927C23.8041 31.4998 27.3797 33.7099 29.1286 37.2084L30.1315 39.2141H32.4284V16.0713Z" fill="white"/>
<path fill-rule="evenodd" clip-rule="evenodd" d="M34.3569 15.1069V40.1783C34.3569 40.7109 33.9251 41.1426 33.3926 41.1426H29.5354C29.1705 41.1426 28.8369 40.9366 28.6734 40.6103L27.4024 38.0704C25.9802 35.2257 23.073 33.4286 19.8926 33.4283H18.9283C15.7329 33.4283 13.1426 30.8379 13.1426 27.6426C13.1426 24.4472 15.7329 21.8569 18.9283 21.8569H19.8926C23.0747 21.8569 25.9811 20.0594 27.4024 17.2148L28.6734 14.6749C28.8369 14.3486 29.1705 14.1426 29.5354 14.1426H33.3926C33.9251 14.1426 34.3569 14.5743 34.3569 15.1069Z" fill="white"/>
<path fill-rule="evenodd" clip-rule="evenodd" d="M36.5611 23.4966C36.1974 23.115 36.2077 22.512 36.5841 22.1429C36.9606 21.7738 37.5637 21.7755 37.9381 22.1466C40.9323 25.1993 40.9323 30.0869 37.9381 33.1395C37.5637 33.5106 36.9606 33.5123 36.5841 33.1432C36.2077 32.7742 36.1974 32.1712 36.5611 31.7895C38.8202 29.4868 38.8202 25.7993 36.5611 23.4966V23.4966Z" fill="white"/>
</svg>
