<svg width="20" height="20" viewBox="0 0 20 20" fill="none" xmlns="http://www.w3.org/2000/svg">
<path d="M16.4706 0H3.52941C1.58329 0 0 1.58329 0 3.52941V16.4706C0 18.4167 1.58329 20 3.52941 20H16.4706C18.4167 20 20 18.4167 20 16.4706V3.52941C20 1.58329 18.4167 0 16.4706 0ZM18.8235 16.4706C18.8235 17.768 17.768 18.8235 16.4706 18.8235H3.52941C2.232 18.8235 1.17647 17.768 1.17647 16.4706V3.52941C1.17647 2.232 2.232 1.17647 3.52941 1.17647H16.4706C17.768 1.17647 18.8235 2.232 18.8235 3.52941V16.4706Z" fill="black"/>
</svg>
