<svg width="47" height="56" viewBox="0 0 47 56" fill="none" xmlns="http://www.w3.org/2000/svg">
<path d="M28.034 20.9274C26.982 19.5946 25.6289 18.5688 24.1076 17.9188C24.7322 17.0908 25.0983 16.0577 25.0983 14.9365C25.0983 12.2147 22.8836 10 20.1617 10C17.4399 10 15.2252 12.2147 15.2252 14.9365C15.2252 16.0577 15.5913 17.0908 16.2159 17.9188C14.6946 18.5688 13.3411 19.5946 12.2895 20.9274C11.8211 21.5212 11.9225 22.3823 12.5163 22.8507C13.1101 23.3196 13.9713 23.2177 14.4397 22.6239C15.7674 20.9412 17.7571 19.9325 19.898 19.8565C19.9884 19.8532 20.0769 19.8412 20.1617 19.8214C20.2466 19.8412 20.3351 19.8532 20.4254 19.8565C22.5664 19.9325 24.5561 20.9412 25.8838 22.6239C26.154 22.9665 26.5551 23.1449 26.9598 23.1449C27.2567 23.1449 27.5559 23.049 27.8072 22.8503C28.401 22.3819 28.5024 21.5212 28.034 20.9274ZM20.3554 17.1236C20.2894 17.1296 20.2244 17.1397 20.1617 17.1545C20.0986 17.1402 20.034 17.1296 19.9681 17.1236C18.8446 17.0258 17.9646 16.0651 17.9646 14.9365C17.9646 13.725 18.9502 12.7389 20.1622 12.7389C21.3742 12.7389 22.3599 13.7245 22.3599 14.9365C22.3599 16.0651 21.4789 17.0258 20.3554 17.1236Z" fill="#ADD134"/>
<path d="M35.7093 43.14L27.6881 34.0778C27.7458 34.0142 27.8052 33.9525 27.8615 33.8875C29.4501 32.0452 30.3242 29.6922 30.3242 27.2567C30.3242 25.7732 30.014 24.3486 29.3999 23.0158C29.2265 23.3607 28.9776 23.6732 28.6558 23.9268C28.2017 24.285 27.6379 24.4929 27.0602 24.5132C27.4097 25.3808 27.5853 26.3029 27.5853 27.2567C27.5853 29.0348 26.9464 30.7558 25.7865 32.1006C25.0765 32.9244 24.1794 33.5933 23.1887 34.0364C22.2344 34.4633 21.2164 34.6799 20.1621 34.6799C16.0692 34.6799 12.7389 31.3496 12.7389 27.2567C12.7389 26.3024 12.9145 25.3804 13.264 24.5132C12.684 24.4925 12.1202 24.285 11.6684 23.9268C11.3466 23.6709 11.0954 23.3607 10.9243 23.0158C10.3103 24.3491 10 25.7732 10 27.2567C10 32.8603 14.5585 37.4188 20.1621 37.4188C21.6046 37.4188 22.9992 37.1219 24.3075 36.5378C24.7515 36.3391 25.1802 36.104 25.5924 35.8421L33.6587 44.955C33.9293 45.2606 34.306 45.4169 34.6849 45.4169C35.0076 45.4169 35.3317 45.3035 35.5922 45.073C35.8979 44.8024 36.0541 44.4253 36.0541 44.0463C36.0541 43.7236 35.9407 43.4 35.7102 43.1395L35.7093 43.14Z" fill="#ADD134"/>
<path d="M28.034 20.9274C26.982 19.5946 25.6289 18.5688 24.1076 17.9188C24.7322 17.0908 25.0983 16.0577 25.0983 14.9365C25.0983 12.2147 22.8836 10 20.1617 10C17.4399 10 15.2252 12.2147 15.2252 14.9365C15.2252 16.0577 15.5913 17.0908 16.2159 17.9188C14.6946 18.5688 13.3411 19.5946 12.2895 20.9274C11.8211 21.5212 11.9225 22.3823 12.5163 22.8507C13.1101 23.3196 13.9713 23.2177 14.4397 22.6239C15.7674 20.9412 17.7571 19.9325 19.898 19.8565C19.9884 19.8532 20.0769 19.8412 20.1617 19.8214C20.2466 19.8412 20.3351 19.8532 20.4254 19.8565C22.5664 19.9325 24.5561 20.9412 25.8838 22.6239C26.154 22.9665 26.5551 23.1449 26.9598 23.1449C27.2567 23.1449 27.5559 23.049 27.8072 22.8503C28.401 22.3819 28.5024 21.5212 28.034 20.9274ZM20.3554 17.1236C20.2894 17.1296 20.2244 17.1397 20.1617 17.1545C20.0986 17.1402 20.034 17.1296 19.9681 17.1236C18.8446 17.0258 17.9646 16.0651 17.9646 14.9365C17.9646 13.725 18.9502 12.7389 20.1622 12.7389C21.3742 12.7389 22.3599 13.7245 22.3599 14.9365C22.3599 16.0651 21.4789 17.0258 20.3554 17.1236Z" stroke="#231F20" stroke-miterlimit="10"/>
<path d="M35.7093 43.14L27.6881 34.0778C27.7458 34.0142 27.8052 33.9525 27.8615 33.8875C29.4501 32.0452 30.3242 29.6922 30.3242 27.2567C30.3242 25.7732 30.014 24.3486 29.3999 23.0158C29.2265 23.3607 28.9776 23.6732 28.6558 23.9268C28.2017 24.285 27.6379 24.4929 27.0602 24.5132C27.4097 25.3808 27.5853 26.3029 27.5853 27.2567C27.5853 29.0348 26.9464 30.7558 25.7865 32.1006C25.0765 32.9244 24.1794 33.5933 23.1887 34.0364C22.2344 34.4633 21.2164 34.6799 20.1621 34.6799C16.0692 34.6799 12.7389 31.3496 12.7389 27.2567C12.7389 26.3024 12.9145 25.3804 13.264 24.5132C12.684 24.4925 12.1202 24.285 11.6684 23.9268C11.3466 23.6709 11.0954 23.3607 10.9243 23.0158C10.3103 24.3491 10 25.7732 10 27.2567C10 32.8603 14.5585 37.4188 20.1621 37.4188C21.6046 37.4188 22.9992 37.1219 24.3075 36.5378C24.7515 36.3391 25.1802 36.104 25.5924 35.8421L33.6587 44.955C33.9293 45.2606 34.306 45.4169 34.6849 45.4169C35.0076 45.4169 35.3317 45.3035 35.5922 45.073C35.8979 44.8024 36.0541 44.4253 36.0541 44.0463C36.0541 43.7236 35.9407 43.4 35.7102 43.1395L35.7093 43.14Z" stroke="#231F20" stroke-miterlimit="10"/>
</svg>
