<svg width="16" height="16" viewBox="0 0 16 16" fill="none" xmlns="http://www.w3.org/2000/svg">
<path d="M11 1H5C4.60218 1 4.22064 1.15804 3.93934 1.43934C3.65804 1.72064 3.5 2.10218 3.5 2.5V15.15L7.365 13.345C7.5638 13.2521 7.78057 13.204 8 13.204C8.21943 13.204 8.4362 13.2521 8.635 13.345L12.5 15.15V2.5C12.5 2.10218 12.342 1.72064 12.0607 1.43934C11.7794 1.15804 11.3978 1 11 1ZM11.5 13.58L9.055 12.44C8.72456 12.2862 8.36448 12.2065 8 12.2065C7.63552 12.2065 7.27544 12.2862 6.945 12.44L4.5 13.58V4H11.5V13.58ZM11.5 3H4.5V2.5C4.5 2.36739 4.55268 2.24022 4.64645 2.14645C4.74021 2.05268 4.86739 2 5 2H11C11.1326 2 11.2598 2.05268 11.3536 2.14645C11.4473 2.24022 11.5 2.36739 11.5 2.5V3Z" fill="black"/>
<path d="M7.49953 9.79002C7.7636 9.79023 8.01704 9.68598 8.20453 9.50002L10.3545 7.35502L9.64453 6.64502L7.49953 8.79502L6.35453 7.64502L5.64453 8.35502L6.79453 9.50002C6.98202 9.68598 7.23546 9.79023 7.49953 9.79002Z" fill="black"/>
</svg>
