<svg width="24" height="24" viewBox="0 0 24 24" fill="none" xmlns="http://www.w3.org/2000/svg">
<path d="M15.4027 5.59722C15.2892 5.47536 15.2273 5.31417 15.2303 5.14763C15.2332 4.98109 15.3007 4.82218 15.4185 4.7044C15.5363 4.58662 15.6952 4.51915 15.8617 4.51621C16.0282 4.51327 16.1894 4.57509 16.3113 4.68865L21.2399 9.61722C21.3602 9.73776 21.4279 9.90115 21.4279 10.0715C21.4279 10.2419 21.3602 10.4053 21.2399 10.5258L16.3113 15.4544C16.2524 15.5175 16.1815 15.5682 16.1026 15.6033C16.0238 15.6385 15.9386 15.6573 15.8523 15.6589C15.766 15.6604 15.6803 15.6445 15.6002 15.6122C15.5202 15.5799 15.4474 15.5317 15.3864 15.4707C15.3254 15.4096 15.2772 15.3369 15.2449 15.2569C15.2126 15.1768 15.1967 15.0911 15.1982 15.0048C15.1997 14.9185 15.2186 14.8333 15.2538 14.7545C15.2889 14.6756 15.3396 14.6046 15.4027 14.5458L19.2341 10.7144H11.7856C9.68279 10.7144 7.66612 11.5497 6.17923 13.0366C4.69233 14.5235 3.857 16.5401 3.857 18.6429C3.857 18.8134 3.78927 18.9769 3.66872 19.0975C3.54816 19.2181 3.38464 19.2858 3.21415 19.2858C3.04365 19.2858 2.88014 19.2181 2.75958 19.0975C2.63902 18.9769 2.57129 18.8134 2.57129 18.6429C2.57129 13.5541 6.69672 9.42865 11.7856 9.42865H19.2341L15.4027 5.59722Z" fill="#828282"/>
</svg>
