<svg width="25" height="25" viewBox="0 0 25 25" fill="none" xmlns="http://www.w3.org/2000/svg">
<path fill-rule="evenodd" clip-rule="evenodd" d="M18.7969 11.8172V17.7822C18.7969 18.8868 17.9014 19.7822 16.7969 19.7822C15.9039 19.7822 15.1149 19.5422 14.4449 19.0622C14.1899 18.8799 13.8843 18.782 13.5709 18.7822C13.3302 18.7747 13.1126 18.9246 13.0339 19.1522C12.9239 19.4842 12.9899 19.8092 13.1959 20.0412L16.6709 23.9502C16.8542 24.1568 16.8354 24.4729 16.6289 24.6562C16.4223 24.8396 16.1062 24.8208 15.9229 24.6142L12.7969 21.0972L9.67088 24.6142C9.55226 24.7478 9.37138 24.808 9.19635 24.7721C9.02133 24.7362 8.87876 24.6096 8.82235 24.4401C8.76594 24.2706 8.80426 24.0838 8.92287 23.9502L12.1719 20.2952C11.9377 19.8238 11.9134 19.2755 12.1049 18.7852C12.0856 18.7832 12.0662 18.7822 12.0469 18.7822H12.0219C11.7088 18.7822 11.4035 18.8801 11.1489 19.0622C10.4789 19.5422 9.68888 19.7822 8.79688 19.7822H7.29688C7.02073 19.7822 6.79688 19.5584 6.79688 19.2822V11.8172C5.07453 12.0658 3.79643 13.542 3.79688 15.2822V24.2822C3.79688 24.5584 3.57302 24.7822 3.29688 24.7822C3.02073 24.7822 2.79688 24.5584 2.79688 24.2822V15.2822C2.79643 12.9901 4.51894 11.0639 6.79688 10.8092V3.28223C6.79688 2.61919 7.06027 1.9833 7.52911 1.51446C7.99795 1.04562 8.63383 0.782227 9.29688 0.782227H16.2969C17.6776 0.782227 18.7969 1.90151 18.7969 3.28223V10.8092C21.0748 11.0639 22.7973 12.9901 22.7969 15.2822V24.2822C22.7969 24.5584 22.573 24.7822 22.2969 24.7822C22.0207 24.7822 21.7969 24.5584 21.7969 24.2822V15.2822C21.7973 13.542 20.5192 12.0658 18.7969 11.8172ZM17.7969 11.2772V3.28223C17.7969 2.4538 17.1253 1.78223 16.2969 1.78223H9.29688C8.46845 1.78223 7.79688 2.4538 7.79688 3.28223V18.7822H8.79688C9.48688 18.7822 10.0709 18.6042 10.5669 18.2502C10.9908 17.9464 11.4993 17.7827 12.0209 17.7822H12.0459C12.3119 17.7822 12.5699 17.8502 12.7979 17.9782C13.0219 17.8512 13.2779 17.7822 13.5459 17.7822C14.0762 17.7786 14.5941 17.9424 15.0259 18.2502C15.5219 18.6042 16.1059 18.7822 16.7959 18.7822C17.3482 18.7822 17.7959 18.3345 17.7959 17.7822V11.2762L17.7969 11.2772ZM11.2969 3.78223C11.0207 3.78223 10.7969 3.55837 10.7969 3.28223C10.7969 3.00608 11.0207 2.78223 11.2969 2.78223H14.2969C14.573 2.78223 14.7969 3.00608 14.7969 3.28223C14.7969 3.55837 14.573 3.78223 14.2969 3.78223H11.2969Z" fill="#121924"/>
</svg>
