<svg width="25" height="26" viewBox="0 0 25 26" fill="none" xmlns="http://www.w3.org/2000/svg">
<path fill-rule="evenodd" clip-rule="evenodd" d="M0.109375 3.74904C0.109375 2.04687 1.48981 0.666992 3.19266 0.666992L7.26999 0.666992C8.77722 0.666983 10.0635 1.75622 10.3113 3.24235L10.8799 6.65726C11.1138 8.06319 10.2901 9.43038 8.93743 9.88109L8.19497 10.1289C7.88407 10.232 7.70805 10.5601 7.79415 10.876L8.56743 13.7115C8.99428 15.2748 10.1744 16.5215 11.7124 17.0339L13.5944 17.6602C13.8582 17.748 14.1481 17.6485 14.3023 17.4173L15.2014 16.0698C15.9726 14.9138 17.4222 14.4165 18.741 14.8555L22.6679 16.1623C23.9277 16.5823 24.7769 17.7615 24.7756 19.089V22.2512C24.7756 23.0686 24.4508 23.8525 23.8726 24.4305C23.2943 25.0085 22.5101 25.3333 21.6924 25.3333H19.2257C8.66857 25.3333 0.109375 16.7775 0.109375 6.22454L0.109375 3.74904Z" fill="white"/>
</svg>
