<svg width="22" height="19" viewBox="0 0 22 19" fill="none" xmlns="http://www.w3.org/2000/svg">
<path d="M9.56045 0.282715C9.21259 0.282715 8.90257 0.504856 8.79255 0.83573L8.70723 1.0917H7.44003C5.33668 1.0917 3.58408 2.70476 3.40934 4.80164L3.16443 7.74211C2.07488 8.13624 1.29208 9.16945 1.29208 10.395V14.8444C0.845518 14.8444 0.483093 15.2068 0.483093 15.6534C0.483093 16.0999 0.845518 16.4624 1.29208 16.4624H2.10106V17.2714C2.10106 18.1653 2.8251 18.8893 3.71902 18.8893C4.61295 18.8893 5.33699 18.1653 5.33699 17.2714V16.4624H16.6628V17.2714C16.6628 18.1653 17.3868 18.8893 18.2807 18.8893C19.1746 18.8893 19.8987 18.1653 19.8987 17.2714V16.4624H20.7077C21.1542 16.4624 21.5166 16.0999 21.5166 15.6534C21.5166 15.2068 21.1542 14.8444 20.7077 14.8444V10.395C20.7077 9.16945 19.9249 8.13624 18.8353 7.74211L18.5904 4.80164C18.4157 2.70476 16.6623 1.0917 14.5581 1.0917H13.2925L13.2072 0.83573C13.0972 0.504856 12.788 0.282715 12.4393 0.282715H9.56045ZM7.44161 2.70966H14.5597C15.812 2.70966 16.8744 3.68769 16.9788 4.93595L17.2031 7.65362C17.1964 7.6553 17.1893 7.65665 17.1826 7.65836C15.7596 7.22475 13.6194 6.75458 10.9999 6.75458C8.38038 6.75458 6.24016 7.22475 4.81716 7.65836C4.8104 7.65665 4.80339 7.6553 4.79662 7.65362L5.02256 4.93595C5.12692 3.68769 6.1893 2.70966 7.44161 2.70966ZM4.12352 9.18153C4.79335 9.18153 5.33699 9.72516 5.33699 10.395C5.33699 11.0648 4.79335 11.6085 4.12352 11.6085C3.45368 11.6085 2.91004 11.0648 2.91004 10.395C2.91004 9.72516 3.45368 9.18153 4.12352 9.18153ZM10.9999 9.18153C12.3404 9.18153 13.4268 10.268 13.4268 11.6085V14.0354C13.4268 14.482 13.0644 14.8444 12.6178 14.8444H9.38191C8.93535 14.8444 8.57292 14.482 8.57292 14.0354V11.6085C8.57292 10.268 9.65939 9.18153 10.9999 9.18153ZM17.8762 9.18153C18.5461 9.18153 19.0897 9.72516 19.0897 10.395C19.0897 11.0648 18.5461 11.6085 17.8762 11.6085C17.2064 11.6085 16.6628 11.0648 16.6628 10.395C16.6628 9.72516 17.2064 9.18153 17.8762 9.18153Z" fill="white"/>
</svg>
