<svg width="22" height="15" viewBox="0 0 22 15" fill="none" xmlns="http://www.w3.org/2000/svg">
<path fill-rule="evenodd" clip-rule="evenodd" d="M13.4433 9.60264V5.40404V3.99844C13.4433 2.83864 12.6224 1.89844 11.6099 1.89844H3.05436C2.04184 1.89844 1.22103 2.83864 1.22103 3.99844V10.9984C1.22103 12.1582 2.04184 13.0984 3.05436 13.0984H11.6099C12.6224 13.0984 13.4433 12.1582 13.4433 10.9984V9.60264ZM14.6667 3.9062L17.3898 1.3064C18.2278 0.506905 19.3938 0.334725 20.3814 0.864655C21.369 1.39459 21.9999 2.53099 22 3.7802V11.2198C21.9999 12.469 21.369 13.6054 20.3814 14.1353C19.3938 14.6653 18.2278 14.4931 17.3898 13.6936L14.6654 11.0938C14.6211 12.9895 13.2667 14.4999 11.6111 14.5H3.05556C1.36802 14.5 0 12.933 0 11V4C0 2.067 1.36802 0.5 3.05556 0.5H11.6111C13.2672 0.499319 14.6223 2.00993 14.6667 3.9062ZM14.6667 5.72907V9.27387L18.172 12.6199C18.6459 13.072 19.3053 13.1691 19.8636 12.8692C20.4219 12.5692 20.7783 11.9263 20.7778 11.2199V3.78307C20.7778 3.07693 20.4213 2.43448 19.8631 2.13487C19.3048 1.83525 18.6457 1.93254 18.172 2.38447L14.6667 5.72907Z" fill="#272A3D"/>
</svg>
