<svg width="50" height="50" viewBox="0 0 50 50" fill="none" xmlns="http://www.w3.org/2000/svg">
<rect width="50" height="50" rx="25" fill="#31B303"/>
<path fill-rule="evenodd" clip-rule="evenodd" d="M12.1094 15.749C12.1094 14.0469 13.4898 12.667 15.1927 12.667H19.27C20.7772 12.667 22.0635 13.7562 22.3113 15.2424L22.8799 18.6573C23.1138 20.0632 22.2901 21.4304 20.9374 21.8811L20.195 22.1289C19.8841 22.232 19.708 22.5601 19.7941 22.876L20.5674 25.7115C20.9943 27.2748 22.1744 28.5215 23.7124 29.0339L25.5944 29.6602C25.8582 29.748 26.1481 29.6485 26.3023 29.4173L27.2014 28.0698C27.9726 26.9138 29.4222 26.4165 30.741 26.8555L34.6679 28.1623C35.9277 28.5823 36.7769 29.7615 36.7756 31.089V34.2512C36.7756 35.0686 36.4508 35.8525 35.8726 36.4305C35.2943 37.0085 34.5101 37.3333 33.6924 37.3333H31.2257C20.6686 37.3333 12.1094 28.7775 12.1094 18.2245V15.749Z" fill="white"/>
</svg>
