<svg width="14" height="14" viewBox="0 0 14 14" fill="none" xmlns="http://www.w3.org/2000/svg">
<g clip-path="url(#clip0_518_18466)">
<path d="M1.99604 4.83615L11.2548 1.63116C11.41 1.57744 11.5771 1.56846 11.7371 1.60527C11.8972 1.64207 12.0436 1.72317 12.1597 1.83928C12.2759 1.9554 12.357 2.10184 12.3938 2.26188C12.4306 2.42191 12.4216 2.58907 12.3679 2.74424L9.16293 12.003C9.10522 12.1759 8.9942 12.326 8.84583 12.4318C8.69747 12.5375 8.51938 12.5936 8.33717 12.5918C8.33178 12.5918 8.32628 12.5917 8.32088 12.5916C8.13587 12.5904 7.95615 12.5297 7.80829 12.4185C7.66042 12.3073 7.55225 12.1515 7.49977 11.9741L6.21157 7.78751L2.02487 6.49931C1.84852 6.44503 1.69384 6.33639 1.58294 6.18891C1.47204 6.04144 1.4106 5.86268 1.4074 5.67818C1.4042 5.49369 1.4594 5.31291 1.56512 5.16168C1.67085 5.01045 1.82167 4.89651 1.99604 4.83615H1.99604Z" fill="white"/>
</g>
<defs>
<clipPath id="clip0_518_18466">
<rect width="14" height="14" fill="white" transform="matrix(-1 0 0 1 14 0)"/>
</clipPath>
</defs>
</svg>
