<svg width="28" height="22" viewBox="0 0 28 22" fill="none" xmlns="http://www.w3.org/2000/svg">
<path fill-rule="evenodd" clip-rule="evenodd" d="M23.9093 12.25H1.875C1.25368 12.25 0.75 11.7463 0.75 11.125C0.75 10.5037 1.25368 10 1.875 10H23.9093L16.8285 2.9215C16.3886 2.48161 16.3886 1.7684 16.8285 1.3285C17.2684 0.888607 17.9816 0.888607 18.4215 1.3285L27.4215 10.3285C27.6331 10.5396 27.752 10.8261 27.752 11.125C27.752 11.4239 27.6331 11.7104 27.4215 11.9215L18.4215 20.9215C17.9816 21.3614 17.2684 21.3614 16.8285 20.9215C16.3886 20.4816 16.3886 19.7684 16.8285 19.3285L23.9093 12.25Z" fill="white"/>
</svg>
