<svg width="18" height="20" viewBox="0 0 18 20" fill="none" xmlns="http://www.w3.org/2000/svg">
<path fill-rule="evenodd" clip-rule="evenodd" d="M13 2H5V2.5C5 2.77614 4.77614 3 4.5 3C4.22386 3 4 2.77614 4 2.5V2H2.5C1.67157 2 1 2.67157 1 3.5V6H17V3.5C17 2.67157 16.3284 2 15.5 2H14V2.5C14 2.77614 13.7761 3 13.5 3C13.2239 3 13 2.77614 13 2.5V2ZM14 1H15.5C16.8807 1 18 2.11929 18 3.5V16.507C18 17.8877 16.8807 19.007 15.5 19.007H2.5C1.11929 19.007 0 17.8877 0 16.507V3.5C0 2.11929 1.11929 1 2.5 1H4V0.5C4 0.223858 4.22386 0 4.5 0C4.77614 0 5 0.223858 5 0.5V1H13V0.5C13 0.223858 13.2239 0 13.5 0C13.7761 0 14 0.223858 14 0.5V1ZM17 7H1V16.507C1 17.3354 1.67157 18.007 2.5 18.007H15.5C16.3284 18.007 17 17.3354 17 16.507V7Z" fill="#121924"/>
</svg>
