<svg width="213" height="293" viewBox="0 0 213 293" fill="none" xmlns="http://www.w3.org/2000/svg">
<path fill-rule="evenodd" clip-rule="evenodd" d="M213 103.992L212.999 104.558C212.997 104.796 212.995 105.034 212.992 105.273C212.997 105.551 213 105.832 213 106.114C213 150.528 178.397 189.842 155.242 216.151C148.524 223.784 142.769 230.324 139.102 235.574C126.061 254.25 119.179 274.482 117.367 282.264C117.367 288.124 112.503 292.875 106.5 292.875C100.497 292.875 95.633 288.124 95.633 282.264C93.8212 274.482 86.9386 254.25 73.8977 235.574C70.2314 230.324 64.4764 223.784 57.7576 216.151C34.6032 189.842 0 150.528 0 106.114C0 105.832 0.00266065 105.551 0.00798565 105.273C0.00266065 104.847 0 104.419 0 103.992C0 46.5586 47.6814 0 106.5 0C165.319 0 213 46.5586 213 103.992ZM106.5 142.193C129.307 142.193 147.795 124.139 147.795 101.87C147.795 79.5994 129.307 61.5462 106.5 61.5462C83.693 61.5462 65.2046 79.5994 65.2046 101.87C65.2046 124.139 83.693 142.193 106.5 142.193Z" fill="black"/>
</svg>
