<svg width="20" height="24" viewBox="0 0 20 24" fill="none" xmlns="http://www.w3.org/2000/svg">
<path fill-rule="evenodd" clip-rule="evenodd" d="M16 11.035V17C16 18.1046 15.1046 19 14 19C13.107 19 12.318 18.76 11.648 18.28C11.3931 18.0976 11.0874 17.9997 10.774 18C10.5333 17.9925 10.3157 18.1424 10.237 18.37C10.127 18.702 10.193 19.027 10.399 19.259L13.874 23.168C14.0574 23.3746 14.0386 23.6906 13.832 23.874C13.6254 24.0574 13.3094 24.0386 13.126 23.832L10 20.315L6.874 23.832C6.75539 23.9656 6.5745 24.0258 6.39948 23.9899C6.22446 23.954 6.08189 23.8274 6.02548 23.6579C5.96907 23.4884 6.00739 23.3016 6.126 23.168L9.375 19.513C9.14081 19.0416 9.11648 18.4933 9.308 18.003C9.28874 18.001 9.26937 18 9.25 18H9.225C8.91191 17.9999 8.60665 18.0978 8.352 18.28C7.682 18.76 6.892 19 6 19H4.5C4.22386 19 4 18.7761 4 18.5V11.035C2.27766 11.2836 0.999553 12.7598 1 14.5V23.5C1 23.7761 0.776142 24 0.5 24C0.223858 24 8.43174e-08 23.7761 8.43174e-08 23.5V14.5C-0.000440022 12.2079 1.72207 10.2817 4 10.027V2.5C4 1.83696 4.26339 1.20107 4.73223 0.732233C5.20107 0.263392 5.83696 0 6.5 0H13.5C14.8807 0 16 1.11929 16 2.5V10.027C18.2779 10.2817 20.0004 12.2079 20 14.5V23.5C20 23.7761 19.7761 24 19.5 24C19.2239 24 19 23.7761 19 23.5V14.5C19.0004 12.7598 17.7223 11.2836 16 11.035ZM15 10.495V2.5C15 1.67157 14.3284 1 13.5 1H6.5C5.67157 1 5 1.67157 5 2.5V18H6C6.69 18 7.274 17.822 7.77 17.468C8.19397 17.1641 8.70238 17.0005 9.224 17H9.249C9.515 17 9.773 17.068 10.001 17.196C10.225 17.069 10.481 17 10.749 17C11.2793 16.9964 11.7972 17.1602 12.229 17.468C12.725 17.822 13.309 18 13.999 18C14.5513 18 14.999 17.5523 14.999 17V10.494L15 10.495ZM8.5 3C8.22386 3 8 2.77614 8 2.5C8 2.22386 8.22386 2 8.5 2H11.5C11.7761 2 12 2.22386 12 2.5C12 2.77614 11.7761 3 11.5 3H8.5Z" fill="#121924"/>
</svg>
