<svg width="11" height="11" viewBox="0 0 11 11" fill="none" xmlns="http://www.w3.org/2000/svg">
<path fill-rule="evenodd" clip-rule="evenodd" d="M9.5 5.5C9.5 7.70914 7.70914 9.5 5.5 9.5C3.29086 9.5 1.5 7.70914 1.5 5.5C1.5 3.29086 3.29086 1.5 5.5 1.5C7.70914 1.5 9.5 3.29086 9.5 5.5ZM11 5.5C11 8.53757 8.53757 11 5.5 11C2.46243 11 0 8.53757 0 5.5C0 2.46243 2.46243 0 5.5 0C8.53757 0 11 2.46243 11 5.5ZM5.49953 7.48002C6.59305 7.48002 7.47953 6.59354 7.47953 5.50002C7.47953 4.4065 6.59305 3.52002 5.49953 3.52002C4.40601 3.52002 3.51953 4.4065 3.51953 5.50002C3.51953 6.59354 4.40601 7.48002 5.49953 7.48002Z" fill="#ADD314"/>
</svg>
