<svg width="19" height="16" viewBox="0 0 19 16" fill="none" xmlns="http://www.w3.org/2000/svg">
<path fill-rule="evenodd" clip-rule="evenodd" d="M6.59277 9.81666L7.87891 13.3955L8.52637 11.2715L8.2085 10.9431C8.06494 10.7463 8.03418 10.5732 8.11328 10.4249C8.28467 10.1035 8.64062 10.163 8.97314 10.163C9.32178 10.163 9.75098 10.1007 9.85938 10.5122C9.896 10.6494 9.85059 10.7948 9.74805 10.9431L9.43018 11.2715L10.0776 13.3955L11.2422 9.81666C11.4927 10.0286 11.8867 10.1907 12.3438 10.3265C12.4126 10.2489 12.4858 10.1727 12.562 10.1007C13.2227 9.47582 14.1367 9.08787 15.146 9.08787C16.1553 9.08787 17.0679 9.47443 17.73 10.1007C18.3906 10.7256 18.8008 11.5901 18.8008 12.5447C18.8008 13.4994 18.3921 14.3626 17.73 14.9888C17.0693 15.6137 16.1553 16.0016 15.146 16.0016C14.3813 16.0016 13.6709 15.7786 13.0835 15.3989H1.68994C1.13184 15.3587 0.847656 15.0858 0.800781 14.6133C0.942871 13.703 0.982422 12.5129 1.56836 11.7799C1.78076 11.5139 2.0459 11.3172 2.33887 11.1634C3.26465 10.6743 5.75195 10.5316 6.59277 9.81666ZM13.2681 12.8399L13.9331 12.1804L14.8926 13.0532L16.3867 11.1703L17.1294 11.737C16.7793 12.1471 15.5312 13.7668 15.2588 13.9774C15.0347 14.1506 14.7124 14.1506 14.5044 13.9608L13.2681 12.8399ZM17.3462 10.4637C16.7837 9.93165 16.0059 9.6019 15.146 9.6019C14.2861 9.6019 13.5083 9.93165 12.9458 10.4637C12.3833 10.9957 12.0347 11.7314 12.0347 12.5447C12.0347 13.358 12.3833 14.0938 12.9458 14.6258C13.5083 15.1578 14.2861 15.4876 15.146 15.4876C16.0059 15.4876 16.7837 15.1578 17.3462 14.6258C17.9087 14.0938 18.2573 13.358 18.2573 12.5447C18.2588 11.7314 17.9102 10.9957 17.3462 10.4637ZM5.97461 4.69854C6.07422 4.72487 6.17676 4.72764 6.28369 4.70685L6.10059 3.3338C6.19434 2.99435 6.33789 2.72971 6.52832 2.53574C6.72754 2.33346 6.97656 2.20737 7.27393 2.15334C7.66797 2.12701 7.78662 2.39858 8.18066 2.63689C9.37891 3.36151 10.3926 3.60536 11.8735 3.62338L11.6904 4.49903C11.6655 4.53505 11.6523 4.57939 11.6567 4.62511C11.6567 4.63204 11.6582 4.64035 11.6597 4.64728L11.6333 4.77197C11.6743 4.77474 11.7139 4.77613 11.7534 4.77474C11.79 4.79553 11.834 4.80661 11.8809 4.80245C12.1387 4.78029 12.2954 4.80245 12.3379 4.8842C12.3965 4.99504 12.3467 5.22088 12.1782 5.58389L11.3682 6.8461C11.0664 7.31579 10.7617 7.78548 10.3735 8.12771C10.0015 8.45746 9.54297 8.67637 8.91748 8.67499C8.33887 8.6736 7.90234 8.463 7.54053 8.15126C7.16553 7.82705 6.8623 7.38507 6.57519 6.9514L5.85596 5.86931L5.85303 5.86515C5.63184 5.55341 5.51758 5.28462 5.51172 5.07817C5.51025 5.0089 5.52051 4.94793 5.54541 4.89806C5.56738 4.85372 5.60107 4.81631 5.64795 4.78583C5.72559 4.73734 5.83398 4.70824 5.97461 4.69854ZM12.3701 4.44776L12.4155 2.68538C12.3613 1.96906 12.1108 1.42733 11.7109 1.0186C10.731 0.0154789 8.8999 -0.242228 7.51855 0.230235C7.28564 0.309209 7.06592 0.410352 6.86523 0.530893C6.29541 0.874502 5.83398 1.37468 5.65088 1.99539C5.60693 2.14225 5.57764 2.28912 5.56152 2.43598C5.53223 3.05393 5.54834 3.79102 5.59521 4.3771C5.53076 4.40065 5.47217 4.42836 5.41943 4.46162C5.30811 4.53228 5.22461 4.62511 5.17041 4.73456C5.11914 4.83986 5.0957 4.95902 5.1001 5.09064C5.10889 5.36913 5.24512 5.70997 5.50879 6.08129L6.22803 7.162C6.53125 7.61645 6.84912 8.08198 7.26514 8.44222C7.6958 8.81492 8.22168 9.06709 8.92041 9.06986C9.66895 9.07125 10.2153 8.80938 10.6592 8.41728C11.0869 8.03765 11.4092 7.5444 11.7241 7.05254L12.543 5.77648C12.5474 5.76955 12.5518 5.76124 12.5547 5.75431C12.7788 5.27353 12.8271 4.93824 12.71 4.71655C12.6426 4.57939 12.5283 4.49348 12.3701 4.44776Z" fill="black"/>
</svg>
