<svg width="21" height="21" viewBox="0 0 21 21" fill="none" xmlns="http://www.w3.org/2000/svg">
<path d="M12.1164 2.32534C11.3131 1.23954 9.68883 1.23954 8.88559 2.32534C8.60602 2.70325 8.10258 2.83815 7.67152 2.65065C6.43298 2.11194 5.02629 2.92409 4.87356 4.26605C4.82041 4.73312 4.45187 5.10166 3.9848 5.15481C2.64285 5.30754 1.83069 6.71423 2.3694 7.95277C2.5569 8.38383 2.422 8.88727 2.04409 9.16684C0.95829 9.97008 0.95829 11.5944 2.04409 12.3976C2.422 12.6772 2.5569 13.1806 2.3694 13.6117C1.83069 14.8502 2.64284 16.2569 3.9848 16.4097C4.45187 16.4628 4.82041 16.8314 4.87356 17.2984C5.02629 18.6404 6.43298 19.4525 7.67151 18.9138C8.10258 18.7263 8.60602 18.8612 8.88559 19.2391C9.68883 20.3249 11.3131 20.3249 12.1164 19.2391C12.396 18.8612 12.8994 18.7263 13.3305 18.9138C14.569 19.4525 15.9757 18.6404 16.1284 17.2984C16.1816 16.8314 16.5501 16.4628 17.0172 16.4097C18.3591 16.2569 19.1713 14.8502 18.6326 13.6117C18.4451 13.1806 18.58 12.6772 18.9579 12.3976C20.0437 11.5944 20.0437 9.97008 18.9579 9.16684C18.58 8.88727 18.4451 8.38383 18.6326 7.95277C19.1713 6.71423 18.3591 5.30754 17.0172 5.15481C16.5501 5.10166 16.1816 4.73312 16.1284 4.26605C15.9757 2.92409 14.569 2.11194 13.3305 2.65065C12.8994 2.83815 12.396 2.70325 12.1164 2.32534Z" stroke="black"/>
<path d="M13.5735 7.32168L13.5734 7.32171L8.86898 12.0267L7.43056 10.5876L7.43045 10.5875C7.02235 10.1794 6.36069 10.1794 5.95259 10.5875L6.30612 10.941L5.95259 10.5875C5.54445 10.9955 5.54445 11.6572 5.95258 12.0653L6.30612 11.7117L5.95259 12.0653L8.12953 14.2421C8.12963 14.2422 8.12973 14.2423 8.12983 14.2424C8.32574 14.4386 8.59163 14.5488 8.86891 14.5488C9.14612 14.5488 9.41196 14.4386 9.60785 14.2425C9.60787 14.2425 9.6079 14.2424 9.60792 14.2424C9.60804 14.2423 9.60817 14.2422 9.60829 14.2421L15.0513 8.79954C15.4595 8.39144 15.4595 7.72977 15.0513 7.32168C14.6432 6.91361 13.9816 6.91361 13.5735 7.32168Z" stroke="black"/>
</svg>
