<svg width="19" height="19" viewBox="0 0 19 19" fill="none" xmlns="http://www.w3.org/2000/svg">
<path d="M9.5 19C14.7467 19 19 14.7467 19 9.5C19 4.25329 14.7467 0 9.5 0C4.25329 0 0 4.25329 0 9.5C0 14.7467 4.25329 19 9.5 19Z" fill="#ACD037"/>
<path d="M7.07227 13.7848L11.9571 18.6697C16.0029 17.5908 18.9997 13.9047 18.9997 9.49935V9.22964L15.1637 5.69336L7.07227 13.7848Z" fill="#ACD037"/>
<path d="M9.73951 11.6272C10.1591 12.0468 10.1591 12.766 9.73951 13.1856L8.87043 14.0546C8.45087 14.4742 7.73163 14.4742 7.31207 14.0546L3.50608 10.2187C3.08652 9.79912 3.08652 9.07987 3.50608 8.66032L4.37516 7.79123C4.79472 7.37167 5.51396 7.37167 5.93352 7.79123L9.73951 11.6272Z" fill="white"/>
<path d="M13.0659 5.0051C13.4855 4.58554 14.2047 4.58554 14.6243 5.0051L15.4934 5.87418C15.9129 6.29374 15.9129 7.01298 15.4934 7.43254L8.90032 13.9956C8.48076 14.4152 7.76152 14.4152 7.34196 13.9956L6.47287 13.1265C6.05331 12.707 6.05331 11.9877 6.47287 11.5682L13.0659 5.0051Z" fill="white"/>
</svg>
