<svg width="25" height="25" viewBox="0 0 25 25" fill="none" xmlns="http://www.w3.org/2000/svg">
<path fill-rule="evenodd" clip-rule="evenodd" d="M8.72055 18.9871C7.9736 19.6931 6.80048 19.6767 6.07355 18.9501C5.34344 18.2195 5.31788 17.0436 6.01555 16.2821L4.36555 14.6321C3.71727 13.984 3.41359 13.0675 3.54656 12.1605C3.67954 11.2535 4.23351 10.4628 5.04055 10.0281L7.70055 8.59506L10.6475 5.64706C12.5068 3.7876 15.3415 3.3136 17.7045 4.46706L18.0365 4.13606C18.5387 3.61615 19.2823 3.40764 19.9816 3.59067C20.6808 3.7737 21.2269 4.31979 21.4099 5.01905C21.593 5.7183 21.3845 6.46191 20.8645 6.96406L20.5345 7.29506C21.6902 9.65924 21.2191 12.4962 19.3615 14.3601L16.4075 17.3241L15.0075 19.9671C14.577 20.7802 13.786 21.3408 12.8761 21.4777C11.9662 21.6146 11.0453 21.3115 10.3945 20.6611L8.72055 18.9871ZM8.01285 18.28L6.72285 16.99C6.41522 17.3598 6.44037 17.9032 6.78085 18.243C7.11885 18.582 7.65985 18.593 8.01285 18.28ZM20.0038 6.40997L20.1578 6.25697C20.5368 5.86459 20.5314 5.24088 20.1457 4.85515C19.7599 4.46942 19.1362 4.464 18.7438 4.84297L18.5898 4.99597C19.135 5.3879 19.6129 5.86579 20.0048 6.41097L20.0038 6.40997ZM11.3541 6.35406L8.35513 9.35406L8.23913 9.44006L5.51413 10.9081C4.98557 11.193 4.62279 11.711 4.53573 12.3051C4.44866 12.8992 4.64755 13.4995 5.07213 13.9241L11.1011 19.9541C11.5276 20.3805 12.1311 20.5792 12.7275 20.4894C13.3238 20.3997 13.8421 20.0321 14.1241 19.4991L15.5581 16.7901L15.6461 16.6711L18.6531 13.6541C20.6642 11.6351 20.6611 8.36914 18.6461 6.35406C17.6792 5.38703 16.3677 4.84375 15.0001 4.84375C13.6326 4.84375 12.3211 5.38703 11.3541 6.35406ZM8.44755 4.77606C8.56868 5.02253 8.46835 5.32057 8.22282 5.44361C7.97729 5.56665 7.67849 5.46863 7.55355 5.22406L6.55355 3.22406C6.43242 2.97759 6.53275 2.67955 6.77828 2.55651C7.0238 2.43347 7.32261 2.53149 7.44755 2.77606L8.44755 4.77606ZM6.22455 6.55306C6.46912 6.678 6.56714 6.9768 6.4441 7.22233C6.32106 7.46786 6.02302 7.56819 5.77655 7.44706L3.77655 6.44706C3.53198 6.32212 3.43396 6.02332 3.557 5.77779C3.68004 5.53226 3.97808 5.43193 4.22455 5.55306L6.22455 6.55306ZM18.7765 18.4471C18.532 18.3221 18.434 18.0233 18.557 17.7778C18.68 17.5323 18.9781 17.4319 19.2245 17.5531L21.2245 18.5531C21.4691 18.678 21.5671 18.9768 21.4441 19.2223C21.3211 19.4679 21.023 19.5682 20.7765 19.4471L18.7765 18.4471ZM16.5535 20.2241C16.4324 19.9776 16.5328 19.6795 16.7783 19.5565C17.0238 19.4335 17.3226 19.5315 17.4475 19.7761L18.4475 21.7761C18.5687 22.0225 18.4683 22.3206 18.2228 22.4436C17.9773 22.5667 17.6785 22.4686 17.5535 22.2241L16.5535 20.2241Z" fill="#121924"/>
</svg>
