<svg width="43" height="44" viewBox="0 0 43 44" fill="none" xmlns="http://www.w3.org/2000/svg">
<rect x="1" y="1" width="41" height="42" rx="20.5" fill="white"/>
<path d="M16.9566 12.4025C17.562 12.4209 18.1481 12.5266 18.7161 12.7198H18.7727C18.8112 12.738 18.84 12.7582 18.8592 12.7765C19.0716 12.8447 19.2724 12.9216 19.4646 13.0273L19.8298 13.1906C19.9739 13.2675 20.1469 13.4107 20.243 13.4693C20.3391 13.526 20.4448 13.5846 20.5313 13.6509C21.5989 12.8351 22.8952 12.393 24.2309 12.4025C24.8372 12.4025 25.4426 12.4882 26.0182 12.6813C29.565 13.8344 30.8431 17.7262 29.7755 21.128C29.1701 22.8663 28.1803 24.4528 26.884 25.7491C25.0285 27.5461 22.9922 29.1412 20.8003 30.5154L20.5601 30.6605L20.3102 30.5057C18.1107 29.1412 16.0629 27.5461 14.19 25.7395C12.9024 24.4432 11.9117 22.8663 11.2967 21.128C10.2108 17.7262 11.4888 13.8344 15.0741 12.6611C15.3528 12.565 15.6401 12.4978 15.9284 12.4603H16.0437C16.3137 12.4209 16.5818 12.4025 16.8509 12.4025H16.9566ZM25.5185 15.4392C25.1245 15.3037 24.6921 15.5161 24.548 15.9197C24.4135 16.3233 24.6249 16.7653 25.0285 16.9085C25.6444 17.1391 26.0567 17.7455 26.0567 18.4172V18.4469C26.0384 18.667 26.1047 18.8794 26.2392 19.0427C26.3738 19.2061 26.5756 19.3012 26.787 19.3214C27.181 19.3108 27.5173 18.9947 27.5461 18.5901V18.4758C27.5749 17.1295 26.7591 15.9101 25.5185 15.4392Z" fill="#FF7272"/>
<rect x="1" y="1" width="41" height="42" rx="20.5" stroke="#EFF0F9"/>
</svg>
