<svg width="62" height="62" viewBox="0 0 62 62" fill="none" xmlns="http://www.w3.org/2000/svg">
<path fill-rule="evenodd" clip-rule="evenodd" d="M1 8.497C1 4.35652 4.35786 1 8.5 1L18.418 1C22.0843 0.999977 25.2133 3.64952 25.816 7.26449L27.199 15.5712C27.7681 18.991 25.7643 22.3167 22.474 23.413L20.668 24.0158C19.9117 24.2666 19.4836 25.0646 19.693 25.8331L21.574 32.7303C22.6123 36.5331 25.4829 39.5657 29.224 40.8121L33.802 42.3355C34.4436 42.5491 35.1488 42.3071 35.524 41.7447L37.711 38.467C39.5868 35.6549 43.113 34.4452 46.321 35.5132L55.873 38.6919C58.9375 39.7136 61.0031 42.582 61 45.8111V53.503C61 55.4913 60.2098 57.3982 58.8033 58.8042C57.3968 60.2101 55.4891 61 53.5 61H47.5C21.82 61 1 40.1883 1 14.5186L1 8.497Z" stroke="#272A3D" stroke-width="2"/>
</svg>
