<svg width="5" height="6" viewBox="0 0 5 6" fill="none" xmlns="http://www.w3.org/2000/svg">
<path d="M2.24283 1.20083C2.39251 0.740174 3.04421 0.740175 3.19389 1.20083L3.36945 1.74116C3.43639 1.94717 3.62837 2.08665 3.84498 2.08665H4.41311C4.89747 2.08665 5.09886 2.70645 4.707 2.99116L4.24737 3.32509C4.07213 3.45242 3.9988 3.6781 4.06574 3.88411L4.2413 4.42444C4.39098 4.88509 3.86374 5.26815 3.47188 4.98345L3.01225 4.64951C2.83701 4.52219 2.59971 4.52219 2.42447 4.64951L1.96484 4.98345C1.57298 5.26816 1.04574 4.88509 1.19542 4.42444L1.37098 3.88411C1.43792 3.6781 1.36459 3.45242 1.18934 3.32509L0.729716 2.99116C0.337859 2.70645 0.539247 2.08665 1.02361 2.08665H1.59174C1.80835 2.08665 2.00033 1.94717 2.06727 1.74116L2.24283 1.20083Z" fill="#C8C9D4"/>
</svg>
