<svg width="24" height="24" viewBox="0 0 24 24" fill="none" xmlns="http://www.w3.org/2000/svg">
<path fill-rule="evenodd" clip-rule="evenodd" d="M12 22C6.477 22 2 17.523 2 12C2 6.477 6.477 2 12 2C17.523 2 22 6.477 22 12C22 17.523 17.523 22 12 22ZM12 21C15.2154 21 18.1865 19.2846 19.7942 16.5C21.4019 13.7154 21.4019 10.2846 19.7942 7.5C18.1865 4.71539 15.2154 3 12 3C7.02944 3 3 7.02944 3 12C3 16.9706 7.02944 21 12 21ZM15.1466 9.1459C15.3421 8.95039 15.6591 8.95039 15.8546 9.1459C16.0501 9.34141 16.0501 9.65839 15.8546 9.8539L10.8546 14.8539C10.7608 14.9479 10.6335 15.0008 10.5006 15.0008C10.3678 15.0008 10.2404 14.9479 10.1466 14.8539L8.14663 12.8539C7.95112 12.6584 7.95112 12.3414 8.14663 12.1459C8.34214 11.9504 8.65912 11.9504 8.85463 12.1459L10.5006 13.7929L15.1466 9.1459Z" fill="#31B303"/>
</svg>
