<svg width="21" height="26" viewBox="0 0 21 26" fill="none" xmlns="http://www.w3.org/2000/svg">
<path d="M20.6325 23.0582L14.6822 15.026C15.9982 13.4306 16.801 11.3284 16.801 9.03064C16.801 4.04372 13.0394 0 8.40048 0C3.76155 0 0 4.04372 0 9.03064C0 14.0176 3.76155 18.0613 8.40048 18.0613C9.68388 18.0613 10.8973 17.7502 11.9847 17.1984L18.0004 25.3159C18.5791 26.0986 19.6385 26.229 20.3665 25.6069C21.0945 24.9798 21.2112 23.8409 20.6325 23.0582ZM11.5507 16.6164C10.5893 17.0779 9.52055 17.3388 8.39582 17.3388C4.12558 17.3388 0.667368 13.6212 0.667368 9.03064C0.667368 4.44006 4.12558 0.722452 8.39582 0.722452C12.6661 0.722452 16.1243 4.44006 16.1243 9.03064C16.1243 11.1027 15.4195 12.9991 14.2528 14.454C13.5154 15.3671 12.596 16.1147 11.5507 16.6164Z" fill="black"/>
</svg>
