<svg width="48" height="49" viewBox="0 0 48 49" fill="none" xmlns="http://www.w3.org/2000/svg">
<circle cx="24" cy="24.3955" r="24" fill="#ADD134"/>
<path fill-rule="evenodd" clip-rule="evenodd" d="M15.04 16.7107V17.3507C15.04 19.118 13.6073 20.5507 11.84 20.5507H11.1999V28.2309H11.8924C12.7411 28.2309 13.5551 28.568 14.1552 29.1681C14.7553 29.7683 15.0925 30.5822 15.0925 31.4309V32.0709H32.9603V31.4309C32.9603 29.6636 34.393 28.2309 36.1603 28.2309H36.8003V20.5507H36.1603C34.393 20.5507 32.9603 19.118 32.9603 17.3507V16.7107H15.04ZM13.76 16.7107H13.12C12.0596 16.7107 11.1999 17.5703 11.1999 18.6307V19.2707H11.84C12.3492 19.2707 12.8375 19.0684 13.1976 18.7084C13.5577 18.3483 13.76 17.8599 13.76 17.3507V16.7107ZM13.8125 32.0709V31.4309C13.8125 30.3705 12.9528 29.5109 11.8924 29.5109H11.1999V30.1509C11.1999 31.2113 12.0596 32.0709 13.12 32.0709H13.8125ZM14.688 33.3509C14.5371 33.4106 14.3691 33.4106 14.2182 33.3509H13.12C11.3526 33.3509 9.91992 31.9182 9.91992 30.1509V18.6307C9.91992 16.8634 11.3526 15.4307 13.12 15.4307H34.8803C36.6476 15.4307 38.0804 16.8634 38.0804 18.6307V30.1509C38.0804 31.9182 36.6476 33.3509 34.8803 33.3509H14.688ZM34.2403 32.0709H34.8803C35.9407 32.0709 36.8003 31.2113 36.8003 30.1509V29.5109H36.1603C35.0999 29.5109 34.2403 30.3705 34.2403 31.4309V32.0709ZM34.2403 16.7107V17.3507C34.2403 18.4111 35.0999 19.2707 36.1603 19.2707H36.8003V18.6307C36.8003 17.5703 35.9407 16.7107 34.8803 16.7107H34.2403ZM24.0001 29.5109C21.1724 29.5109 18.8801 27.2185 18.8801 24.3908C18.8801 21.5631 21.1724 19.2707 24.0001 19.2707C26.8279 19.2707 29.1202 21.5631 29.1202 24.3908C29.1202 27.2185 26.8279 29.5109 24.0001 29.5109ZM24.0001 28.2309C26.1209 28.2309 27.8402 26.5116 27.8402 24.3908C27.8402 22.27 26.1209 20.5507 24.0001 20.5507C21.8793 20.5507 20.1601 22.27 20.1601 24.3908C20.1601 26.5116 21.8793 28.2309 24.0001 28.2309Z" fill="white"/>
</svg>
