<svg width="32" height="33" viewBox="0 0 32 33" fill="none" xmlns="http://www.w3.org/2000/svg">
<circle cx="16" cy="16.3955" r="16" fill="#ADD134"/>
<path d="M20.4392 18.1355C20.2449 18.3238 20.1557 18.596 20.1999 18.863L20.8667 22.553C20.9229 22.8658 20.7909 23.1823 20.5292 23.363C20.2727 23.5505 19.9314 23.573 19.6517 23.423L16.3299 21.6905C16.2144 21.629 16.0862 21.596 15.9549 21.5923H15.7517C15.6812 21.6028 15.6122 21.6253 15.5492 21.6598L12.2267 23.4005C12.0624 23.483 11.8764 23.5123 11.6942 23.483C11.2502 23.399 10.9539 22.976 11.0267 22.5298L11.6942 18.8398C11.7384 18.5705 11.6492 18.2968 11.4549 18.1055L8.74666 15.4805C8.52016 15.2608 8.44141 14.9308 8.54491 14.633C8.64541 14.336 8.90191 14.1193 9.21166 14.0705L12.9392 13.5298C13.2227 13.5005 13.4717 13.328 13.5992 13.073L15.2417 9.70551C15.2807 9.63051 15.3309 9.56151 15.3917 9.50301L15.4592 9.45051C15.4944 9.41151 15.5349 9.37926 15.5799 9.35301L15.6617 9.32301L15.7892 9.27051H16.1049C16.3869 9.29976 16.6352 9.46851 16.7649 9.72051L18.4292 13.073C18.5492 13.3183 18.7824 13.4885 19.0517 13.5298L22.7792 14.0705C23.0942 14.1155 23.3574 14.333 23.4617 14.633C23.5599 14.9338 23.4752 15.2638 23.2442 15.4805L20.4392 18.1355Z" fill="white"/>
</svg>
