<svg width="337" height="400" viewBox="0 0 337 400" fill="none" xmlns="http://www.w3.org/2000/svg">
<g opacity="0.8">
<path fill-rule="evenodd" clip-rule="evenodd" d="M57.1523 307.27L36.1734 356.576H26.6021L39.234 304.88L57.1523 307.27Z" fill="#ADD314"/>
<path fill-rule="evenodd" clip-rule="evenodd" d="M164.439 307.27L143.46 356.576H133.945L146.577 304.88L164.439 307.27Z" fill="#ADD314"/>
<path fill-rule="evenodd" clip-rule="evenodd" d="M324.703 356.576H315.187L294.208 307.27L312.071 304.88L324.703 356.576Z" fill="#ADD314"/>
<path fill-rule="evenodd" clip-rule="evenodd" d="M217.416 356.576H207.9L186.866 307.27L204.784 304.88L217.416 356.576Z" fill="#ADD314"/>
<path fill-rule="evenodd" clip-rule="evenodd" d="M313.018 191.87V311.272L188.813 311.55L168.391 193.427L313.018 191.87ZM303.558 201.431L179.576 202.765L196.771 302.045L303.558 301.823V201.431Z" fill="#ADD314"/>
<path fill-rule="evenodd" clip-rule="evenodd" d="M150.026 118.494L183.414 311.55H37.7298L4.34151 118.494H150.026Z" fill="#C8E262"/>
<path fill-rule="evenodd" clip-rule="evenodd" d="M189.147 118.494L222.535 311.55H78.6873L45.299 118.494H189.147Z" fill="#DCEC9A"/>
<path fill-rule="evenodd" clip-rule="evenodd" d="M224.816 311.55H53.5344C44.7978 311.55 37.6749 304.49 37.6749 295.707V259.242C37.6749 250.515 44.7421 243.399 53.5344 243.399H224.816C233.553 243.399 240.676 250.459 240.676 259.242V295.707C240.676 304.435 233.609 311.55 224.816 311.55Z" fill="#C8E262"/>
<path fill-rule="evenodd" clip-rule="evenodd" d="M313.629 311.55H161.935V243.455H313.629V311.55Z" fill="#DCEC9A"/>
<path fill-rule="evenodd" clip-rule="evenodd" d="M161.936 191.87V311.272L37.7311 311.55L17.3086 193.427L161.936 191.87ZM152.476 201.431L28.4937 202.765L45.6887 302.045L152.476 301.823V201.431Z" fill="#ADD314"/>
</g>
<path fill-rule="evenodd" clip-rule="evenodd" d="M126.096 237.971C126.096 237.971 94.2654 308.178 90.4258 384.555C90.4258 384.555 108.289 307.177 126.096 237.971Z" fill="#DCEC9A"/>
<path fill-rule="evenodd" clip-rule="evenodd" d="M69.1133 291.946C69.1133 291.946 92.0399 292.558 95.5457 368.88C95.49 368.935 85.7518 311.291 69.1133 291.946Z" fill="#DCEC9A"/>
<path fill-rule="evenodd" clip-rule="evenodd" d="M92.4863 215.124C92.4863 215.124 105.897 295.893 92.7089 378.107C92.7089 378.107 93.488 292.224 92.4863 215.124Z" fill="#DCEC9A"/>
<path fill-rule="evenodd" clip-rule="evenodd" d="M110.571 399.73H77.4606C77.2381 399.73 76.9599 399.73 76.7373 399.73C61.6569 399.174 53.2542 380.108 61.7682 366.322L69.3362 354.093H118.64L126.208 366.322C134.777 380.108 126.375 399.174 111.239 399.73C111.072 399.73 110.793 399.73 110.571 399.73Z" fill="#ECF5C9"/>
<path d="M58.373 382.165H129.657" stroke="#ADD314" stroke-width="9"/>
<path d="M59.9883 370.381H128.212" stroke="#ADD314" stroke-width="9"/>
<path d="M7.13 40.2653V53.2543C7.13 54.5563 7.45033 55.5587 8.091 56.2613C8.73167 56.964 9.672 57.3153 10.912 57.3153C12.152 57.3153 13.1027 56.964 13.764 56.2613C14.4253 55.5587 14.756 54.5563 14.756 53.2543V40.2653H20.057V53.2543C20.057 55.197 19.6437 56.84 18.817 58.1833C17.9903 59.5267 16.8743 60.5393 15.469 61.2213C14.0843 61.9033 12.5343 62.2443 10.819 62.2443C9.10367 62.2443 7.564 61.9137 6.2 61.2523C4.85667 60.5703 3.79233 59.5577 3.007 58.2143C2.22167 56.8503 1.829 55.197 1.829 53.2543V40.2653H7.13ZM42.6274 40.2653V62.0273H37.3264V53.0063H29.0804V62.0273H23.7794V40.2653H29.0804V48.8213H37.3264V40.2653H42.6274ZM48.9342 62.2753C48.0042 62.2753 47.2396 62.0067 46.6402 61.4693C46.0616 60.9113 45.7722 60.2293 45.7722 59.4233C45.7722 58.5967 46.0616 57.9043 46.6402 57.3463C47.2396 56.7883 48.0042 56.5093 48.9342 56.5093C49.8436 56.5093 50.5876 56.7883 51.1662 57.3463C51.7656 57.9043 52.0652 58.5967 52.0652 59.4233C52.0652 60.2293 51.7656 60.9113 51.1662 61.4693C50.5876 62.0067 49.8436 62.2753 48.9342 62.2753ZM57.6833 62.2753C56.7533 62.2753 55.9886 62.0067 55.3893 61.4693C54.8106 60.9113 54.5213 60.2293 54.5213 59.4233C54.5213 58.5967 54.8106 57.9043 55.3893 57.3463C55.9886 56.7883 56.7533 56.5093 57.6833 56.5093C58.5926 56.5093 59.3366 56.7883 59.9153 57.3463C60.5146 57.9043 60.8143 58.5967 60.8143 59.4233C60.8143 60.2293 60.5146 60.9113 59.9153 61.4693C59.3366 62.0067 58.5926 62.2753 57.6833 62.2753ZM74.2443 62.2443C72.1983 62.2443 70.3176 61.769 68.6023 60.8183C66.9076 59.8677 65.5539 58.545 64.5413 56.8503C63.5493 55.135 63.0533 53.213 63.0533 51.0843C63.0533 48.9557 63.5493 47.044 64.5413 45.3493C65.5539 43.6547 66.9076 42.332 68.6023 41.3813C70.3176 40.4307 72.1983 39.9553 74.2443 39.9553C76.2903 39.9553 78.1606 40.4307 79.8553 41.3813C81.5706 42.332 82.9139 43.6547 83.8853 45.3493C84.8773 47.044 85.3733 48.9557 85.3733 51.0843C85.3733 53.213 84.8773 55.135 83.8853 56.8503C82.8933 58.545 81.5499 59.8677 79.8553 60.8183C78.1606 61.769 76.2903 62.2443 74.2443 62.2443ZM74.2443 57.3463C75.9803 57.3463 77.3649 56.778 78.3983 55.6413C79.4523 54.5047 79.9793 52.9857 79.9793 51.0843C79.9793 49.183 79.4523 47.664 78.3983 46.5273C77.3649 45.3907 75.9803 44.8223 74.2443 44.8223C72.4876 44.8223 71.0823 45.3907 70.0283 46.5273C68.9949 47.664 68.4783 49.183 68.4783 51.0843C68.4783 52.9857 68.9949 54.5047 70.0283 55.6413C71.0823 56.778 72.4876 57.3463 74.2443 57.3463ZM107.17 40.2653V62.0273H101.869V53.0063H93.6234V62.0273H88.3224V40.2653H93.6234V48.8213H101.869V40.2653H107.17ZM113.477 62.2753C112.547 62.2753 111.783 62.0067 111.183 61.4693C110.605 60.9113 110.315 60.2293 110.315 59.4233C110.315 58.5967 110.605 57.9043 111.183 57.3463C111.783 56.7883 112.547 56.5093 113.477 56.5093C114.387 56.5093 115.131 56.7883 115.709 57.3463C116.309 57.9043 116.608 58.5967 116.608 59.4233C116.608 60.2293 116.309 60.9113 115.709 61.4693C115.131 62.0067 114.387 62.2753 113.477 62.2753ZM122.226 62.2753C121.296 62.2753 120.532 62.0067 119.932 61.4693C119.354 60.9113 119.064 60.2293 119.064 59.4233C119.064 58.5967 119.354 57.9043 119.932 57.3463C120.532 56.7883 121.296 56.5093 122.226 56.5093C123.136 56.5093 123.88 56.7883 124.458 57.3463C125.058 57.9043 125.357 58.5967 125.357 59.4233C125.357 60.2293 125.058 60.9113 124.458 61.4693C123.88 62.0067 123.136 62.2753 122.226 62.2753ZM135.47 39.4903L134.85 54.3393H130.355L129.735 39.4903H135.47ZM132.68 62.2753C131.75 62.2753 130.986 62.0067 130.386 61.4693C129.808 60.9113 129.518 60.2293 129.518 59.4233C129.518 58.5967 129.808 57.9043 130.386 57.3463C130.986 56.7883 131.75 56.5093 132.68 56.5093C133.59 56.5093 134.334 56.7883 134.912 57.3463C135.512 57.9043 135.811 58.5967 135.811 59.4233C135.811 60.2293 135.512 60.9113 134.912 61.4693C134.334 62.0067 133.59 62.2753 132.68 62.2753ZM147.61 39.4903L146.99 54.3393H142.495L141.875 39.4903H147.61ZM144.82 62.2753C143.89 62.2753 143.125 62.0067 142.526 61.4693C141.947 60.9113 141.658 60.2293 141.658 59.4233C141.658 58.5967 141.947 57.9043 142.526 57.3463C143.125 56.7883 143.89 56.5093 144.82 56.5093C145.729 56.5093 146.473 56.7883 147.052 57.3463C147.651 57.9043 147.951 58.5967 147.951 59.4233C147.951 60.2293 147.651 60.9113 147.052 61.4693C146.473 62.0067 145.729 62.2753 144.82 62.2753ZM159.75 39.4903L159.13 54.3393H154.635L154.015 39.4903H159.75ZM156.96 62.2753C156.03 62.2753 155.265 62.0067 154.666 61.4693C154.087 60.9113 153.798 60.2293 153.798 59.4233C153.798 58.5967 154.087 57.9043 154.666 57.3463C155.265 56.7883 156.03 56.5093 156.96 56.5093C157.869 56.5093 158.613 56.7883 159.192 57.3463C159.791 57.9043 160.091 58.5967 160.091 59.4233C160.091 60.2293 159.791 60.9113 159.192 61.4693C158.613 62.0067 157.869 62.2753 156.96 62.2753Z" fill="#ADD314"/>
<path d="M4.3028 79.2501H8.1108V81.4941H1.3958V69.5601H4.3028V79.2501ZM13.8154 81.6301C12.886 81.6301 12.0474 81.4318 11.2994 81.0351C10.5627 80.6385 9.97903 80.0718 9.54836 79.3351C9.12903 78.5985 8.91936 77.7371 8.91936 76.7511C8.91936 75.7765 9.13469 74.9208 9.56536 74.1841C9.99603 73.4361 10.5854 72.8638 11.3334 72.4671C12.0814 72.0705 12.92 71.8721 13.8494 71.8721C14.7787 71.8721 15.6174 72.0705 16.3654 72.4671C17.1134 72.8638 17.7027 73.4361 18.1334 74.1841C18.564 74.9208 18.7794 75.7765 18.7794 76.7511C18.7794 77.7258 18.5584 78.5871 18.1164 79.3351C17.6857 80.0718 17.0907 80.6385 16.3314 81.0351C15.5834 81.4318 14.7447 81.6301 13.8154 81.6301ZM13.8154 79.1141C14.3707 79.1141 14.841 78.9101 15.2264 78.5021C15.623 78.0941 15.8214 77.5105 15.8214 76.7511C15.8214 75.9918 15.6287 75.4081 15.2434 75.0001C14.8694 74.5921 14.4047 74.3881 13.8494 74.3881C13.2827 74.3881 12.8124 74.5921 12.4384 75.0001C12.0644 75.3968 11.8774 75.9805 11.8774 76.7511C11.8774 77.5105 12.0587 78.0941 12.4214 78.5021C12.7954 78.9101 13.26 79.1141 13.8154 79.1141ZM24.6396 81.6301C23.7102 81.6301 22.8716 81.4318 22.1236 81.0351C21.3869 80.6385 20.8032 80.0718 20.3726 79.3351C19.9532 78.5985 19.7436 77.7371 19.7436 76.7511C19.7436 75.7765 19.9589 74.9208 20.3896 74.1841C20.8202 73.4361 21.4096 72.8638 22.1576 72.4671C22.9056 72.0705 23.7442 71.8721 24.6736 71.8721C25.6029 71.8721 26.4416 72.0705 27.1896 72.4671C27.9376 72.8638 28.5269 73.4361 28.9576 74.1841C29.3882 74.9208 29.6036 75.7765 29.6036 76.7511C29.6036 77.7258 29.3826 78.5871 28.9406 79.3351C28.5099 80.0718 27.9149 80.6385 27.1556 81.0351C26.4076 81.4318 25.5689 81.6301 24.6396 81.6301ZM24.6396 79.1141C25.1949 79.1141 25.6652 78.9101 26.0506 78.5021C26.4472 78.0941 26.6456 77.5105 26.6456 76.7511C26.6456 75.9918 26.4529 75.4081 26.0676 75.0001C25.6936 74.5921 25.2289 74.3881 24.6736 74.3881C24.1069 74.3881 23.6366 74.5921 23.2626 75.0001C22.8886 75.3968 22.7016 75.9805 22.7016 76.7511C22.7016 77.5105 22.8829 78.0941 23.2456 78.5021C23.6196 78.9101 24.0842 79.1141 24.6396 79.1141ZM36.9428 81.4941L34.0528 77.5161V81.4941H31.1458V68.9141H34.0528V75.8671L36.9258 72.0081H40.5128L36.5688 76.7681L40.5468 81.4941H36.9428ZM45.5136 81.6301C44.6863 81.6301 43.9496 81.4885 43.3036 81.2051C42.6576 80.9218 42.1476 80.5365 41.7736 80.0491C41.3996 79.5505 41.1899 78.9951 41.1446 78.3831H44.0176C44.0516 78.7118 44.2046 78.9781 44.4766 79.1821C44.7486 79.3861 45.0829 79.4881 45.4796 79.4881C45.8423 79.4881 46.1199 79.4201 46.3126 79.2841C46.5166 79.1368 46.6186 78.9498 46.6186 78.7231C46.6186 78.4511 46.4769 78.2528 46.1936 78.1281C45.9103 77.9921 45.4513 77.8448 44.8166 77.6861C44.1366 77.5275 43.5699 77.3631 43.1166 77.1931C42.6633 77.0118 42.2723 76.7341 41.9436 76.3601C41.6149 75.9748 41.4506 75.4591 41.4506 74.8131C41.4506 74.2691 41.5979 73.7761 41.8926 73.3341C42.1986 72.8808 42.6406 72.5238 43.2186 72.2631C43.8079 72.0025 44.5049 71.8721 45.3096 71.8721C46.4996 71.8721 47.4346 72.1668 48.1146 72.7561C48.8059 73.3455 49.2026 74.1275 49.3046 75.1021H46.6186C46.5733 74.7735 46.4259 74.5128 46.1766 74.3201C45.9386 74.1275 45.6213 74.0311 45.2246 74.0311C44.8846 74.0311 44.6239 74.0991 44.4426 74.2351C44.2613 74.3598 44.1706 74.5355 44.1706 74.7621C44.1706 75.0341 44.3123 75.2381 44.5956 75.3741C44.8903 75.5101 45.3436 75.6461 45.9556 75.7821C46.6583 75.9635 47.2306 76.1448 47.6726 76.3261C48.1146 76.4961 48.4999 76.7795 48.8286 77.1761C49.1686 77.5615 49.3443 78.0828 49.3556 78.7401C49.3556 79.2955 49.1969 79.7941 48.8796 80.2361C48.5736 80.6668 48.1259 81.0068 47.5366 81.2561C46.9586 81.5055 46.2843 81.6301 45.5136 81.6301ZM57.6436 68.9141V81.4941H54.7366V68.9141H57.6436ZM61.2123 71.0221C60.7023 71.0221 60.283 70.8748 59.9543 70.5801C59.637 70.2741 59.4783 69.9001 59.4783 69.4581C59.4783 69.0048 59.637 68.6308 59.9543 68.3361C60.283 68.0301 60.7023 67.8771 61.2123 67.8771C61.711 67.8771 62.119 68.0301 62.4363 68.3361C62.765 68.6308 62.9293 69.0048 62.9293 69.4581C62.9293 69.9001 62.765 70.2741 62.4363 70.5801C62.119 70.8748 61.711 71.0221 61.2123 71.0221ZM62.6573 72.0081V81.4941H59.7503V72.0081H62.6573ZM70.561 81.4941L67.671 77.5161V81.4941H64.764V68.9141H67.671V75.8671L70.544 72.0081H74.131L70.187 76.7681L74.165 81.4941H70.561ZM84.2147 76.5981C84.2147 76.8701 84.1978 77.1535 84.1638 77.4481H77.5848C77.6301 78.0375 77.8171 78.4908 78.1458 78.8081C78.4858 79.1141 78.8994 79.2671 79.3868 79.2671C80.1121 79.2671 80.6164 78.9611 80.8998 78.3491H83.9938C83.8351 78.9725 83.5461 79.5335 83.1268 80.0321C82.7188 80.5308 82.2031 80.9218 81.5798 81.2051C80.9564 81.4885 80.2594 81.6301 79.4888 81.6301C78.5594 81.6301 77.7321 81.4318 77.0068 81.0351C76.2814 80.6385 75.7148 80.0718 75.3068 79.3351C74.8988 78.5985 74.6948 77.7371 74.6948 76.7511C74.6948 75.7651 74.8931 74.9038 75.2898 74.1671C75.6978 73.4305 76.2644 72.8638 76.9898 72.4671C77.7151 72.0705 78.5481 71.8721 79.4888 71.8721C80.4068 71.8721 81.2228 72.0648 81.9368 72.4501C82.6508 72.8355 83.2061 73.3851 83.6028 74.0991C84.0108 74.8131 84.2147 75.6461 84.2147 76.5981ZM81.2398 75.8331C81.2398 75.3345 81.0698 74.9378 80.7298 74.6431C80.3898 74.3485 79.9648 74.2011 79.4548 74.2011C78.9674 74.2011 78.5538 74.3428 78.2138 74.6261C77.8851 74.9095 77.6811 75.3118 77.6018 75.8331H81.2398ZM94.6379 79.0291V81.4941H93.1589C92.1049 81.4941 91.2832 81.2391 90.6939 80.7291C90.1045 80.2078 89.8099 79.3635 89.8099 78.1961V74.4221H88.6539V72.0081H89.8099V69.6961H92.7169V72.0081H94.6209V74.4221H92.7169V78.2301C92.7169 78.5135 92.7849 78.7175 92.9209 78.8421C93.0569 78.9668 93.2835 79.0291 93.6009 79.0291H94.6379ZM102.088 71.9061C103.176 71.9061 104.049 72.2688 104.706 72.9941C105.363 73.7081 105.692 74.6941 105.692 75.9521V81.4941H102.802V76.3431C102.802 75.7085 102.638 75.2155 102.309 74.8641C101.98 74.5128 101.538 74.3371 100.983 74.3371C100.428 74.3371 99.9858 74.5128 99.6571 74.8641C99.3285 75.2155 99.1641 75.7085 99.1641 76.3431V81.4941H96.2571V68.9141H99.1641V73.2831C99.4588 72.8638 99.8611 72.5295 100.371 72.2801C100.881 72.0308 101.453 71.9061 102.088 71.9061ZM116.654 76.5981C116.654 76.8701 116.637 77.1535 116.603 77.4481H110.024C110.07 78.0375 110.257 78.4908 110.585 78.8081C110.925 79.1141 111.339 79.2671 111.826 79.2671C112.552 79.2671 113.056 78.9611 113.339 78.3491H116.433C116.275 78.9725 115.986 79.5335 115.566 80.0321C115.158 80.5308 114.643 80.9218 114.019 81.2051C113.396 81.4885 112.699 81.6301 111.928 81.6301C110.999 81.6301 110.172 81.4318 109.446 81.0351C108.721 80.6385 108.154 80.0718 107.746 79.3351C107.338 78.5985 107.134 77.7371 107.134 76.7511C107.134 75.7651 107.333 74.9038 107.729 74.1671C108.137 73.4305 108.704 72.8638 109.429 72.4671C110.155 72.0705 110.988 71.8721 111.928 71.8721C112.846 71.8721 113.662 72.0648 114.376 72.4501C115.09 72.8355 115.646 73.3851 116.042 74.0991C116.45 74.8131 116.654 75.6461 116.654 76.5981ZM113.679 75.8331C113.679 75.3345 113.509 74.9378 113.169 74.6431C112.829 74.3485 112.404 74.2011 111.894 74.2011C111.407 74.2011 110.993 74.3428 110.653 74.6261C110.325 74.9095 110.121 75.3118 110.041 75.8331H113.679ZM121.095 73.5891C121.435 73.0678 121.86 72.6598 122.37 72.3651C122.88 72.0591 123.446 71.9061 124.07 71.9061V74.9831H123.271C122.545 74.9831 122.001 75.1418 121.639 75.4591C121.276 75.7651 121.095 76.3091 121.095 77.0911V81.4941H118.188V72.0081H121.095V73.5891ZM134.401 76.5981C134.401 76.8701 134.384 77.1535 134.35 77.4481H127.771C127.817 78.0375 128.004 78.4908 128.332 78.8081C128.672 79.1141 129.086 79.2671 129.573 79.2671C130.299 79.2671 130.803 78.9611 131.086 78.3491H134.18C134.022 78.9725 133.733 79.5335 133.313 80.0321C132.905 80.5308 132.39 80.9218 131.766 81.2051C131.143 81.4885 130.446 81.6301 129.675 81.6301C128.746 81.6301 127.919 81.4318 127.193 81.0351C126.468 80.6385 125.901 80.0718 125.493 79.3351C125.085 78.5985 124.881 77.7371 124.881 76.7511C124.881 75.7651 125.08 74.9038 125.476 74.1671C125.884 73.4305 126.451 72.8638 127.176 72.4671C127.902 72.0705 128.735 71.8721 129.675 71.8721C130.593 71.8721 131.409 72.0648 132.123 72.4501C132.837 72.8355 133.393 73.3851 133.789 74.0991C134.197 74.8131 134.401 75.6461 134.401 76.5981ZM131.426 75.8331C131.426 75.3345 131.256 74.9378 130.916 74.6431C130.576 74.3485 130.151 74.2011 129.641 74.2011C129.154 74.2011 128.74 74.3428 128.4 74.6261C128.072 74.9095 127.868 75.3118 127.788 75.8331H131.426Z" fill="#ADD314"/>
<path d="M0.817797 99.7341C0.817797 98.7595 0.99913 97.9038 1.3618 97.1671C1.7358 96.4305 2.24013 95.8638 2.8748 95.4671C3.50946 95.0705 4.2178 94.8721 4.9998 94.8721C5.66846 94.8721 6.25213 95.0081 6.7508 95.2801C7.2608 95.5521 7.6518 95.9091 7.9238 96.3511V95.0081H10.8308V104.494H7.9238V103.151C7.64046 103.593 7.2438 103.95 6.7338 104.222C6.23513 104.494 5.65146 104.63 4.9828 104.63C4.21213 104.63 3.50946 104.432 2.8748 104.035C2.24013 103.627 1.7358 103.055 1.3618 102.318C0.99913 101.57 0.817797 100.709 0.817797 99.7341ZM7.9238 99.7511C7.9238 99.0258 7.7198 98.4535 7.3118 98.0341C6.91513 97.6148 6.4278 97.4051 5.8498 97.4051C5.2718 97.4051 4.7788 97.6148 4.3708 98.0341C3.97413 98.4421 3.7758 99.0088 3.7758 99.7341C3.7758 100.459 3.97413 101.037 4.3708 101.468C4.7788 101.887 5.2718 102.097 5.8498 102.097C6.4278 102.097 6.91513 101.887 7.3118 101.468C7.7198 101.049 7.9238 100.476 7.9238 99.7511ZM15.8409 96.5891C16.1809 96.0678 16.6059 95.6598 17.1159 95.3651C17.6259 95.0591 18.1925 94.9061 18.8159 94.9061V97.9831H18.0169C17.2915 97.9831 16.7475 98.1418 16.3849 98.4591C16.0222 98.7651 15.8409 99.3091 15.8409 100.091V104.494H12.9339V95.0081H15.8409V96.5891ZM29.1474 99.5981C29.1474 99.8701 29.1304 100.153 29.0964 100.448H22.5174C22.5627 101.037 22.7497 101.491 23.0784 101.808C23.4184 102.114 23.832 102.267 24.3194 102.267C25.0447 102.267 25.549 101.961 25.8324 101.349H28.9264C28.7677 101.972 28.4787 102.533 28.0594 103.032C27.6514 103.531 27.1357 103.922 26.5124 104.205C25.889 104.488 25.192 104.63 24.4214 104.63C23.492 104.63 22.6647 104.432 21.9394 104.035C21.214 103.638 20.6474 103.072 20.2394 102.335C19.8314 101.598 19.6274 100.737 19.6274 99.7511C19.6274 98.7651 19.8257 97.9038 20.2224 97.1671C20.6304 96.4305 21.197 95.8638 21.9224 95.4671C22.6477 95.0705 23.4807 94.8721 24.4214 94.8721C25.3394 94.8721 26.1554 95.0648 26.8694 95.4501C27.5834 95.8355 28.1387 96.3851 28.5354 97.0991C28.9434 97.8131 29.1474 98.6461 29.1474 99.5981ZM26.1724 98.8331C26.1724 98.3345 26.0024 97.9378 25.6624 97.6431C25.3224 97.3485 24.8974 97.2011 24.3874 97.2011C23.9 97.2011 23.4864 97.3428 23.1464 97.6261C22.8177 97.9095 22.6137 98.3118 22.5344 98.8331H26.1724ZM40.0635 94.9061C41.1742 94.9061 42.0582 95.2688 42.7155 95.9941C43.3842 96.7081 43.7185 97.6941 43.7185 98.9521V104.494H40.8285V99.3431C40.8285 98.7085 40.6642 98.2155 40.3355 97.8641C40.0068 97.5128 39.5648 97.3371 39.0095 97.3371C38.4542 97.3371 38.0122 97.5128 37.6835 97.8641C37.3548 98.2155 37.1905 98.7085 37.1905 99.3431V104.494H34.2835V95.0081H37.1905V96.2661C37.4852 95.8468 37.8818 95.5181 38.3805 95.2801C38.8792 95.0308 39.4402 94.9061 40.0635 94.9061ZM50.0566 104.63C49.1272 104.63 48.2886 104.432 47.5406 104.035C46.8039 103.638 46.2202 103.072 45.7896 102.335C45.3702 101.598 45.1606 100.737 45.1606 99.7511C45.1606 98.7765 45.3759 97.9208 45.8066 97.1841C46.2372 96.4361 46.8266 95.8638 47.5746 95.4671C48.3226 95.0705 49.1612 94.8721 50.0906 94.8721C51.0199 94.8721 51.8586 95.0705 52.6066 95.4671C53.3546 95.8638 53.9439 96.4361 54.3746 97.1841C54.8052 97.9208 55.0206 98.7765 55.0206 99.7511C55.0206 100.726 54.7996 101.587 54.3576 102.335C53.9269 103.072 53.3319 103.638 52.5726 104.035C51.8246 104.432 50.9859 104.63 50.0566 104.63ZM50.0566 102.114C50.6119 102.114 51.0822 101.91 51.4676 101.502C51.8642 101.094 52.0626 100.51 52.0626 99.7511C52.0626 98.9918 51.8699 98.4081 51.4846 98.0001C51.1106 97.5921 50.6459 97.3881 50.0906 97.3881C49.5239 97.3881 49.0536 97.5921 48.6796 98.0001C48.3056 98.3968 48.1186 98.9805 48.1186 99.7511C48.1186 100.51 48.2999 101.094 48.6626 101.502C49.0366 101.91 49.5012 102.114 50.0566 102.114ZM65.9453 94.9061C67.056 94.9061 67.94 95.2688 68.5973 95.9941C69.266 96.7081 69.6003 97.6941 69.6003 98.9521V104.494H66.7103V99.3431C66.7103 98.7085 66.546 98.2155 66.2173 97.8641C65.8887 97.5128 65.4467 97.3371 64.8913 97.3371C64.336 97.3371 63.894 97.5128 63.5653 97.8641C63.2367 98.2155 63.0723 98.7085 63.0723 99.3431V104.494H60.1653V95.0081H63.0723V96.2661C63.367 95.8468 63.7637 95.5181 64.2623 95.2801C64.761 95.0308 65.322 94.9061 65.9453 94.9061ZM75.9384 104.63C75.0091 104.63 74.1704 104.432 73.4224 104.035C72.6857 103.638 72.1021 103.072 71.6714 102.335C71.2521 101.598 71.0424 100.737 71.0424 99.7511C71.0424 98.7765 71.2577 97.9208 71.6884 97.1841C72.1191 96.4361 72.7084 95.8638 73.4564 95.4671C74.2044 95.0705 75.0431 94.8721 75.9724 94.8721C76.9017 94.8721 77.7404 95.0705 78.4884 95.4671C79.2364 95.8638 79.8257 96.4361 80.2564 97.1841C80.6871 97.9208 80.9024 98.7765 80.9024 99.7511C80.9024 100.726 80.6814 101.587 80.2394 102.335C79.8087 103.072 79.2137 103.638 78.4544 104.035C77.7064 104.432 76.8677 104.63 75.9384 104.63ZM75.9384 102.114C76.4937 102.114 76.9641 101.91 77.3494 101.502C77.7461 101.094 77.9444 100.51 77.9444 99.7511C77.9444 98.9918 77.7517 98.4081 77.3664 98.0001C76.9924 97.5921 76.5277 97.3881 75.9724 97.3881C75.4057 97.3881 74.9354 97.5921 74.5614 98.0001C74.1874 98.3968 74.0004 98.9805 74.0004 99.7511C74.0004 100.51 74.1817 101.094 74.5444 101.502C74.9184 101.91 75.3831 102.114 75.9384 102.114ZM87.7316 102.029V104.494H86.2526C85.1986 104.494 84.377 104.239 83.7876 103.729C83.1983 103.208 82.9036 102.363 82.9036 101.196V97.4221H81.7476V95.0081H82.9036V92.6961H85.8106V95.0081H87.7146V97.4221H85.8106V101.23C85.8106 101.513 85.8786 101.717 86.0146 101.842C86.1506 101.967 86.3773 102.029 86.6946 102.029H87.7316ZM90.8129 94.0221C90.3029 94.0221 89.8835 93.8748 89.5549 93.5801C89.2375 93.2741 89.0789 92.9001 89.0789 92.4581C89.0789 92.0048 89.2375 91.6308 89.5549 91.3361C89.8835 91.0301 90.3029 90.8771 90.8129 90.8771C91.3115 90.8771 91.7195 91.0301 92.0369 91.3361C92.3655 91.6308 92.5299 92.0048 92.5299 92.4581C92.5299 92.9001 92.3655 93.2741 92.0369 93.5801C91.7195 93.8748 91.3115 94.0221 90.8129 94.0221ZM92.2579 95.0081V104.494H89.3509V95.0081H92.2579ZM99.1245 97.4221H97.5605V104.494H94.6535V97.4221H93.5995V95.0081H94.6535V94.7361C94.6535 93.5688 94.9879 92.6848 95.6565 92.0841C96.3252 91.4721 97.3055 91.1661 98.5975 91.1661C98.8129 91.1661 98.9715 91.1718 99.0735 91.1831V93.6481C98.5182 93.6141 98.1272 93.6935 97.9005 93.8861C97.6739 94.0788 97.5605 94.4245 97.5605 94.9231V95.0081H99.1245V97.4221ZM101.953 94.0221C101.443 94.0221 101.023 93.8748 100.695 93.5801C100.377 93.2741 100.219 92.9001 100.219 92.4581C100.219 92.0048 100.377 91.6308 100.695 91.3361C101.023 91.0301 101.443 90.8771 101.953 90.8771C102.451 90.8771 102.859 91.0301 103.177 91.3361C103.505 91.6308 103.67 92.0048 103.67 92.4581C103.67 92.9001 103.505 93.2741 103.177 93.5801C102.859 93.8748 102.451 94.0221 101.953 94.0221ZM103.398 95.0081V104.494H100.491V95.0081H103.398ZM104.926 99.7511C104.926 98.7651 105.125 97.9038 105.521 97.1671C105.929 96.4305 106.49 95.8638 107.204 95.4671C107.93 95.0705 108.757 94.8721 109.686 94.8721C110.876 94.8721 111.868 95.1838 112.661 95.8071C113.466 96.4305 113.993 97.3088 114.242 98.4421H111.148C110.888 97.7168 110.383 97.3541 109.635 97.3541C109.103 97.3541 108.678 97.5638 108.36 97.9831C108.043 98.3911 107.884 98.9805 107.884 99.7511C107.884 100.522 108.043 101.117 108.36 101.536C108.678 101.944 109.103 102.148 109.635 102.148C110.383 102.148 110.888 101.785 111.148 101.06H114.242C113.993 102.171 113.466 103.043 112.661 103.678C111.857 104.313 110.865 104.63 109.686 104.63C108.757 104.63 107.93 104.432 107.204 104.035C106.49 103.638 105.929 103.072 105.521 102.335C105.125 101.598 104.926 100.737 104.926 99.7511ZM115.219 99.7341C115.219 98.7595 115.4 97.9038 115.763 97.1671C116.137 96.4305 116.641 95.8638 117.276 95.4671C117.911 95.0705 118.619 94.8721 119.401 94.8721C120.07 94.8721 120.653 95.0081 121.152 95.2801C121.662 95.5521 122.053 95.9091 122.325 96.3511V95.0081H125.232V104.494H122.325V103.151C122.042 103.593 121.645 103.95 121.135 104.222C120.636 104.494 120.053 104.63 119.384 104.63C118.613 104.63 117.911 104.432 117.276 104.035C116.641 103.627 116.137 103.055 115.763 102.318C115.4 101.57 115.219 100.709 115.219 99.7341ZM122.325 99.7511C122.325 99.0258 122.121 98.4535 121.713 98.0341C121.316 97.6148 120.829 97.4051 120.251 97.4051C119.673 97.4051 119.18 97.6148 118.772 98.0341C118.375 98.4421 118.177 99.0088 118.177 99.7341C118.177 100.459 118.375 101.037 118.772 101.468C119.18 101.887 119.673 102.097 120.251 102.097C120.829 102.097 121.316 101.887 121.713 101.468C122.121 101.049 122.325 100.476 122.325 99.7511ZM132.622 102.029V104.494H131.143C130.089 104.494 129.268 104.239 128.678 103.729C128.089 103.208 127.794 102.363 127.794 101.196V97.4221H126.638V95.0081H127.794V92.6961H130.701V95.0081H132.605V97.4221H130.701V101.23C130.701 101.513 130.769 101.717 130.905 101.842C131.041 101.967 131.268 102.029 131.585 102.029H132.622ZM135.704 94.0221C135.194 94.0221 134.774 93.8748 134.446 93.5801C134.128 93.2741 133.97 92.9001 133.97 92.4581C133.97 92.0048 134.128 91.6308 134.446 91.3361C134.774 91.0301 135.194 90.8771 135.704 90.8771C136.202 90.8771 136.61 91.0301 136.928 91.3361C137.256 91.6308 137.421 92.0048 137.421 92.4581C137.421 92.9001 137.256 93.2741 136.928 93.5801C136.61 93.8748 136.202 94.0221 135.704 94.0221ZM137.149 95.0081V104.494H134.242V95.0081H137.149ZM143.573 104.63C142.644 104.63 141.805 104.432 141.057 104.035C140.321 103.638 139.737 103.072 139.306 102.335C138.887 101.598 138.677 100.737 138.677 99.7511C138.677 98.7765 138.893 97.9208 139.323 97.1841C139.754 96.4361 140.343 95.8638 141.091 95.4671C141.839 95.0705 142.678 94.8721 143.607 94.8721C144.537 94.8721 145.375 95.0705 146.123 95.4671C146.871 95.8638 147.461 96.4361 147.891 97.1841C148.322 97.9208 148.537 98.7765 148.537 99.7511C148.537 100.726 148.316 101.587 147.874 102.335C147.444 103.072 146.849 103.638 146.089 104.035C145.341 104.432 144.503 104.63 143.573 104.63ZM143.573 102.114C144.129 102.114 144.599 101.91 144.984 101.502C145.381 101.094 145.579 100.51 145.579 99.7511C145.579 98.9918 145.387 98.4081 145.001 98.0001C144.627 97.5921 144.163 97.3881 143.607 97.3881C143.041 97.3881 142.57 97.5921 142.196 98.0001C141.822 98.3968 141.635 98.9805 141.635 99.7511C141.635 100.51 141.817 101.094 142.179 101.502C142.553 101.91 143.018 102.114 143.573 102.114ZM155.859 94.9061C156.97 94.9061 157.854 95.2688 158.511 95.9941C159.18 96.7081 159.514 97.6941 159.514 98.9521V104.494H156.624V99.3431C156.624 98.7085 156.46 98.2155 156.131 97.8641C155.803 97.5128 155.361 97.3371 154.805 97.3371C154.25 97.3371 153.808 97.5128 153.479 97.8641C153.151 98.2155 152.986 98.7085 152.986 99.3431V104.494H150.079V95.0081H152.986V96.2661C153.281 95.8468 153.678 95.5181 154.176 95.2801C154.675 95.0308 155.236 94.9061 155.859 94.9061ZM174.827 95.0081L168.877 108.999H165.749L167.925 104.171L164.066 95.0081H167.313L169.506 100.941L171.682 95.0081H174.827ZM184.82 99.5981C184.82 99.8701 184.803 100.153 184.769 100.448H178.19C178.236 101.037 178.423 101.491 178.751 101.808C179.091 102.114 179.505 102.267 179.992 102.267C180.718 102.267 181.222 101.961 181.505 101.349H184.599C184.441 101.972 184.152 102.533 183.732 103.032C183.324 103.531 182.809 103.922 182.185 104.205C181.562 104.488 180.865 104.63 180.094 104.63C179.165 104.63 178.338 104.432 177.612 104.035C176.887 103.638 176.32 103.072 175.912 102.335C175.504 101.598 175.3 100.737 175.3 99.7511C175.3 98.7651 175.499 97.9038 175.895 97.1671C176.303 96.4305 176.87 95.8638 177.595 95.4671C178.321 95.0705 179.154 94.8721 180.094 94.8721C181.012 94.8721 181.828 95.0648 182.542 95.4501C183.256 95.8355 183.812 96.3851 184.208 97.0991C184.616 97.8131 184.82 98.6461 184.82 99.5981ZM181.845 98.8331C181.845 98.3345 181.675 97.9378 181.335 97.6431C180.995 97.3485 180.57 97.2011 180.06 97.2011C179.573 97.2011 179.159 97.3428 178.819 97.6261C178.491 97.9095 178.287 98.3118 178.207 98.8331H181.845ZM191.641 102.029V104.494H190.162C189.108 104.494 188.286 104.239 187.697 103.729C187.107 103.208 186.813 102.363 186.813 101.196V97.4221H185.657V95.0081H186.813V92.6961H189.72V95.0081H191.624V97.4221H189.72V101.23C189.72 101.513 189.788 101.717 189.924 101.842C190.06 101.967 190.286 102.029 190.604 102.029H191.641ZM194.62 104.63C194.11 104.63 193.691 104.483 193.362 104.188C193.045 103.882 192.886 103.508 192.886 103.066C192.886 102.613 193.045 102.233 193.362 101.927C193.691 101.621 194.11 101.468 194.62 101.468C195.119 101.468 195.527 101.621 195.844 101.927C196.173 102.233 196.337 102.613 196.337 103.066C196.337 103.508 196.173 103.882 195.844 104.188C195.527 104.483 195.119 104.63 194.62 104.63Z" fill="#ADD314"/>
</svg>
