<svg width="16" height="18" viewBox="0 0 16 18" fill="none" xmlns="http://www.w3.org/2000/svg">
<path fill-rule="evenodd" clip-rule="evenodd" d="M3.293 15.0009L14.793 3.50089L12.5 1.20789L1 12.7079V15.0009H3.293ZM1.59177e-06 15.5009V12.5009C-0.000235405 12.3682 0.0522876 12.2408 0.146002 12.1469L12.146 0.146894C12.2398 0.0528521 12.3672 0 12.5 0C12.6328 0 12.7602 0.0528521 12.854 0.146894L15.854 3.14689C15.948 3.2407 16.0009 3.36807 16.0009 3.50089C16.0009 3.63372 15.948 3.76109 15.854 3.85489L3.854 15.8549C3.76005 15.9486 3.6327 16.0011 3.5 16.0009H0.500002C0.223859 16.0009 1.59177e-06 15.777 1.59177e-06 15.5009ZM0.500002 18.0009C0.223859 18.0009 1.59177e-06 17.777 1.59177e-06 17.5009C1.59177e-06 17.2248 0.223859 17.0009 0.500002 17.0009H10.507C10.7831 17.0009 11.007 17.2248 11.007 17.5009C11.007 17.777 10.7831 18.0009 10.507 18.0009H0.500002Z" fill="black"/>
</svg>
