<svg width="18" height="18" viewBox="0 0 18 18" fill="none" xmlns="http://www.w3.org/2000/svg">
<path fill-rule="evenodd" clip-rule="evenodd" d="M13.95 16C13.7124 17.1642 12.6882 18.0002 11.5 18H2.5C1.83696 18 1.20107 17.7366 0.732233 17.2678C0.263392 16.7989 5.274e-08 16.163 5.274e-08 15.5V8.5C-0.000242451 7.31183 0.835834 6.28763 2 6.05V5C2 2.23858 4.23858 0 7 0C9.76142 0 12 2.23858 12 5V6.05C13.1642 6.28763 14.0002 7.31183 14 8.5V10H15.5C16.8807 10 18 11.1193 18 12.5V13.5C18 14.8807 16.8807 16 15.5 16H13.95ZM12.915 16H8.5C7.11929 16 6 14.8807 6 13.5V12.5C6 11.1193 7.11929 10 8.5 10H13V8.5C13.0003 7.71637 12.3973 7.0646 11.616 7.004C11.534 7.02364 11.4483 7.02227 11.367 7H2.5C2.10218 7 1.72064 7.15804 1.43934 7.43934C1.15804 7.72064 1 8.10218 1 8.5V15.5C1 16.3284 1.67157 17 2.5 17H11.5C12.136 17.0003 12.703 16.5996 12.915 16ZM3 6H11V5C11 2.79086 9.20914 1 7 1C4.79086 1 3 2.79086 3 5V6ZM17 13.5V12.5C17 11.6716 16.3284 11 15.5 11H8.5C7.67157 11 7 11.6716 7 12.5V13.5C7 14.3284 7.67157 15 8.5 15H15.5C16.3284 15 17 14.3284 17 13.5ZM8.5 12H9.5C9.77614 12 10 12.2239 10 12.5V13.5C10 13.7761 9.77614 14 9.5 14H8.5C8.22386 14 8 13.7761 8 13.5V12.5C8 12.2239 8.22386 12 8.5 12ZM11.5 12H12.5C12.7761 12 13 12.2239 13 12.5V13.5C13 13.7761 12.7761 14 12.5 14H11.5C11.2239 14 11 13.7761 11 13.5V12.5C11 12.2239 11.2239 12 11.5 12ZM14.5 12H15.5C15.7761 12 16 12.2239 16 12.5V13.5C16 13.7761 15.7761 14 15.5 14H14.5C14.2239 14 14 13.7761 14 13.5V12.5C14 12.2239 14.2239 12 14.5 12Z" fill="#121924"/>
</svg>
