<svg width="381" height="453" viewBox="0 0 381 453" fill="none" xmlns="http://www.w3.org/2000/svg">
<g filter="url(#filter0_d_439_19112)">
<mask id="mask0_439_19112" style="mask-type:alpha" maskUnits="userSpaceOnUse" x="4" y="0" width="445" height="445">
<path d="M318.637 245.71C359.364 209.002 374.621 151.21 356.57 98.7799C337.456 43.2648 285.214 6 226.5 6C167.786 6 115.544 43.2648 96.4304 98.7799C78.379 151.211 93.636 209.003 134.365 245.711L52.0655 283.111L52.0638 283.112C26.4433 294.764 9.99683 320.314 10 348.46C10 348.46 10 348.46 10 348.46L10 367.191C10 367.192 10 367.192 10 367.192C10 367.193 10 367.193 10 367.194C9.99303 386.235 17.5523 404.499 31.0141 417.966C44.4766 431.434 62.7387 439 81.7812 439H371.219C390.256 439 408.514 431.438 421.976 417.976C435.437 404.515 443 386.257 443 367.22V348.491C443.026 320.325 426.576 294.746 400.936 283.085L400.933 283.084L318.637 245.71ZM67.9476 317.98L67.9504 317.979L172.904 270.274C189.852 277.442 208.08 281.128 226.5 281.101C244.921 281.128 263.148 277.442 280.097 270.274L385.05 317.979L385.053 317.98C397.01 323.408 404.689 335.327 404.688 348.459V348.459V367.193C404.688 385.677 389.703 400.661 371.219 400.661H81.7814C72.9049 400.661 64.392 397.135 58.1154 390.859C51.8388 384.582 48.3126 376.07 48.3126 367.193V348.459L48.3126 348.459C48.3115 335.327 55.99 323.408 67.9476 317.98ZM325.75 143.542C325.75 198.355 281.314 242.79 226.5 242.79C171.686 242.79 127.25 198.355 127.25 143.542C127.25 88.7285 171.686 44.2935 226.5 44.2935C281.314 44.2935 325.75 88.7285 325.75 143.542Z" fill="#5D5F6D" stroke="#5D5F6D" stroke-width="12"/>
</mask>
<g mask="url(#mask0_439_19112)">
<path d="M-9 23.0001C-9 -33.5685 -9 -61.8528 8.57359 -79.4264C26.1472 -97 54.4315 -97 111 -97H340C396.569 -97 424.853 -97 442.426 -79.4264C460 -61.8528 460 -33.5685 460 23V345.143C460 426.493 460 467.168 433.3 484.982C406.601 502.796 369.043 487.18 293.928 455.946L64.9276 360.727C29.0948 345.828 11.1784 338.378 1.08922 323.256C-9 308.134 -9 288.731 -9 249.924V23.0001Z" fill="#5D5F6D"/>
</g>
</g>
<defs>
<filter id="filter0_d_439_19112" x="0" y="0" width="453" height="453" filterUnits="userSpaceOnUse" color-interpolation-filters="sRGB">
<feFlood flood-opacity="0" result="BackgroundImageFix"/>
<feColorMatrix in="SourceAlpha" type="matrix" values="0 0 0 0 0 0 0 0 0 0 0 0 0 0 0 0 0 0 127 0" result="hardAlpha"/>
<feOffset dy="4"/>
<feGaussianBlur stdDeviation="2"/>
<feComposite in2="hardAlpha" operator="out"/>
<feColorMatrix type="matrix" values="0 0 0 0 0 0 0 0 0 0 0 0 0 0 0 0 0 0 0.25 0"/>
<feBlend mode="normal" in2="BackgroundImageFix" result="effect1_dropShadow_439_19112"/>
<feBlend mode="normal" in="SourceGraphic" in2="effect1_dropShadow_439_19112" result="shape"/>
</filter>
</defs>
</svg>
