<svg width="18" height="18" viewBox="0 0 18 18" fill="none" xmlns="http://www.w3.org/2000/svg">
<path d="M8.25 2.25H9.75C10.1642 2.25 10.5 2.58579 10.5 3V3.42659C10.5 3.74744 10.7153 4.02619 11.0117 4.14921C11.3081 4.27228 11.6533 4.22538 11.8802 3.99842L12.1819 3.69668C12.4748 3.40378 12.9497 3.40378 13.2426 3.69668L14.3032 4.75734C14.5962 5.05024 14.5961 5.52511 14.3032 5.818L14.0016 6.1197C13.7746 6.34667 13.7277 6.69185 13.8508 6.98831C13.9738 7.28465 14.2525 7.5 14.5735 7.5H15C15.4142 7.5 15.75 7.83578 15.75 8.25V9.75C15.75 10.1642 15.4142 10.5 15 10.5H14.5734C14.2526 10.5 13.9738 10.7153 13.8508 11.0117C13.7277 11.3081 13.7746 11.6533 14.0016 11.8802L14.3032 12.1819C14.5962 12.4748 14.5962 12.9497 14.3032 13.2426L13.2426 14.3032C12.9497 14.5962 12.4748 14.5962 12.1819 14.3032L11.8802 14.0016C11.6533 13.7746 11.3081 13.7277 11.0117 13.8508C10.7153 13.9738 10.5 14.2526 10.5 14.5734V15C10.5 15.4142 10.1642 15.75 9.75 15.75H8.25C7.83578 15.75 7.5 15.4142 7.5 15V14.5735C7.5 14.2525 7.28465 13.9738 6.98831 13.8508C6.69185 13.7277 6.34667 13.7746 6.1197 14.0016L5.81799 14.3032C5.52509 14.5962 5.05022 14.5962 4.75733 14.3032L3.69667 13.2426C3.40378 12.9497 3.40378 12.4748 3.69667 12.1819L3.99842 11.8802C4.22538 11.6533 4.27228 11.3081 4.14921 11.0117C4.02619 10.7153 3.74744 10.5 3.42659 10.5H3C2.58579 10.5 2.25 10.1642 2.25 9.75V8.25C2.25 7.83578 2.58579 7.5 3 7.5H3.42658C3.74743 7.5 4.02619 7.28466 4.14922 6.98832C4.2723 6.69188 4.2254 6.34672 3.99842 6.11975L3.69668 5.818C3.40378 5.52511 3.40378 5.05024 3.69668 4.75735L4.75734 3.69668C5.05024 3.40379 5.52511 3.40379 5.818 3.69668L6.11975 3.99842C6.34671 4.2254 6.69188 4.2723 6.98832 4.14922C7.28466 4.02619 7.5 3.74743 7.5 3.42657V3C7.5 2.58579 7.83578 2.25 8.25 2.25Z" stroke="black"/>
<path d="M10.5 9C10.5 9.82845 9.82845 10.5 9 10.5C8.17155 10.5 7.5 9.82845 7.5 9C7.5 8.17155 8.17155 7.5 9 7.5C9.82845 7.5 10.5 8.17155 10.5 9Z" stroke="black"/>
</svg>
