<?xml version="1.0" encoding="utf-8"?>
<!-- Generator: Adobe Illustrator 23.0.1, SVG Export Plug-In . SVG Version: 6.00 Build 0)  -->
<svg version="1.1" id="Layer_1" xmlns="http://www.w3.org/2000/svg" xmlns:xlink="http://www.w3.org/1999/xlink" x="0px" y="0px"
	 viewBox="0 0 939.6 939.6" style="enable-background:new 0 0 939.6 939.6;" xml:space="preserve">
<style type="text/css">
	.st0{fill:#241F20;}
	.st1{fill:#99D200;}
	.st2{font-family:'Metropolis-Medium';}
	.st3{font-size:39.2239px;}
	.st4{letter-spacing:21;}
	.st5{letter-spacing:5;}
	.st6{letter-spacing:6;}
</style>
<g>
	<path class="st0" d="M655.6,237.2c-44.5-44.5-103.7-69.1-166.7-69.1c-6.4,0-12.7,0.3-19,0.8c-36.9,3-72.6,14.6-104.2,34
		c-33.7,20.7-61.9,49.8-81.6,84.1c-20.3,35.4-31,75.9-31,116.9c0,33.8,7,66.3,20.8,96.9c13.3,29.5,32.2,55.5,56.2,77.4
		c38.8,35.4,87.8,56.6,139.8,60.7c6.3,0.5,12.7,0.8,19,0.8c63,0,122.2-24.5,166.7-69.1c44.5-44.5,69.1-103.7,69.1-166.7
		S700.1,281.8,655.6,237.2 M469.8,588.7c-6.3,0.7-12.7,1-19.1,1c-102.4,0-185.8-83.3-185.8-185.8s83.3-185.8,185.8-185.8
		c6.5,0,12.8,0.3,19.1,1c6.3-0.7,12.7-1,19.1-1c102.4,0,185.8,83.3,185.8,185.8s-83.3,185.8-185.8,185.8
		C482.5,589.7,476.1,589.4,469.8,588.7"/>
	<path class="st1" d="M617.4,237.2c-40-40-91.8-63.8-147.5-68.3c-6.4-0.5-12.8-0.8-19.2-0.8c-63,0-122.2,24.5-166.7,69.1
		C239.4,281.8,214.9,341,214.9,404s24.5,122.2,69.1,166.7c44.5,44.5,103.7,69.1,166.7,69.1c6.4,0,12.8-0.3,19.2-0.8
		c55.7-4.5,107.6-28.3,147.5-68.3c44.5-44.5,69.1-103.7,69.1-166.7S661.9,281.8,617.4,237.2 M636.5,404c0,96-73.2,175.2-166.7,184.8
		c-6.3,0.7-12.7,1-19.1,1c-102.4,0-185.8-83.3-185.8-185.8s83.3-185.8,185.8-185.8c6.5,0,12.8,0.3,19.1,1
		C563.3,228.8,636.5,308,636.5,404"/>
</g>
<text transform="matrix(1 0 0 1 379.7495 721.4611)" class="st2 st3 st4">R</text>
<text transform="matrix(1 0 0 1 427.5495 721.4611)" class="st2 st3 st5">O</text>
<text transform="matrix(1 0 0 1 465.2495 721.4611)" class="st2 st3 st6">W</text>
<text transform="matrix(1 0 0 1 512.8495 721.4611)" class="st2 st3 st6">N</text>
<text transform="matrix(1 0 0 1 548.4495 721.4611)" class="st2 st3"> </text>
<text transform="matrix(1 0 0 1 464.1001 721.4611)" class="st2 st3"> </text>
</svg>
