<svg width="19" height="18" viewBox="0 0 19 18" fill="none" xmlns="http://www.w3.org/2000/svg">
<path d="M1.36143 16.6604L4.75869 13.2632H15.572C16.0745 13.2632 16.5564 13.0635 16.9117 12.7082C17.2671 12.3529 17.4667 11.8709 17.4667 11.3684V2.84211C17.4667 2.33959 17.2671 1.85766 16.9117 1.50232C16.5564 1.14699 16.0745 0.947368 15.572 0.947368H3.25617C2.75365 0.947368 2.27172 1.14699 1.91639 1.50232C1.56105 1.85766 1.36143 2.33959 1.36143 2.84211V16.6604ZM1.36143 18H0.414062V2.84211C0.414063 2.08833 0.713498 1.36543 1.2465 0.832433C1.77949 0.299435 2.50239 0 3.25617 0H15.572C16.3257 0 17.0486 0.299435 17.5816 0.832433C18.1146 1.36543 18.4141 2.08833 18.4141 2.84211V11.3684C18.4141 12.1222 18.1146 12.8451 17.5816 13.3781C17.0486 13.9111 16.3257 14.2105 15.572 14.2105H5.1509L1.36143 18ZM4.20354 3.78947H14.6246V4.73684H4.20354V3.78947ZM4.20354 6.63158H14.6246V7.57895H4.20354V6.63158ZM4.20354 9.47368H11.7825V10.4211H4.20354V9.47368Z" fill="#272A3D"/>
</svg>
